<svg id="Layer_1" data-name="Layer 1" xmlns="http://www.w3.org/2000/svg" viewBox="0 0 316.33 50"><title>bordeleauWeb</title><path d="M26.54,2.94h0Z" transform="translate(-1.83)"/><path d="M32.79,24a.23.23,0,0,1,0-.43c3.41-1.3,6.57-4.48,6.57-10.13,0,0,.85-9.48-12.77-10.11H1.83V6.44H4.16c1.26,0,2.29,1,2.29,2.75V44.74a2.26,2.26,0,0,1-2.29,1.83H1.83v3.12H26.58v0c4.46,0,14.93-1.85,14.93-14.37C41.52,35.28,42.22,27,32.79,24ZM16.93,7.58a1.15,1.15,0,0,1,1.14-1.14h4.82v0s6.75-.46,7,7.55a13.65,13.65,0,0,1-1.09,5.69,4.92,4.92,0,0,1-4.43,2.7H17.39a.46.46,0,0,1-.46-.46Zm8.13,39H19.22a2.29,2.29,0,0,1-2.29-2.29V26.43a.46.46,0,0,1,.46-.46h6.18l.33,0c2.38.36,7.91,1.65,7.91,10.09,0,0-.15,5.35-2.51,8.44A5.31,5.31,0,0,1,25.06,46.57Z" transform="translate(-1.83)"/><path d="M52,7.37" transform="translate(-1.83)"/><path d="M79.44,32.62A17.22,17.22,0,1,1,62.22,15.41,17.22,17.22,0,0,1,79.44,32.62ZM69.15,39.74c.19-1.94.34-4.31.34-7.1s-.14-5.19-.34-7.13a7,7,0,0,0-6.92-6.27h0a6.94,6.94,0,0,0-6.91,6.21,72.07,72.07,0,0,0,0,14.36A6.94,6.94,0,0,0,62.23,46h0A7,7,0,0,0,69.15,39.74Z" transform="translate(-1.83)"/><path d="M302.45,46.81v3.12H295c-3,0-4.95-1.17-5.76-3.27-4.13,4.15-11.94,3-11.94,3-4.82-.19-7.2-3.68-8.35-6.69A16.53,16.53,0,0,1,267.93,37l0-15a2.29,2.29,0,0,0-2.58-1.91l-1.62.23-.43-3.09,14.26-2,.21,1.5a22.45,22.45,0,0,1,.22,3.09s0,.07,0,.11V39.42c.44,6.21,4.54,6.31,4.54,6.31,3.09.08,4.92-.67,5.62-2.56V22.07a2.29,2.29,0,0,0-2.58-1.91l-1.62.23-.43-3.09,14.26-2,.21,1.5a22.75,22.75,0,0,1,.22,2.82h0V39.92h0v4.62a2.34,2.34,0,0,0,2.61,2.26Z" transform="translate(-1.83)"/><path d="M287,19.87V20s0-.07,0-.11Z" transform="translate(-1.83)"/><path d="M195.28,4.51v.75c0-.25,0-.5,0-.75Z" transform="translate(-1.83)"/><path d="M197.14,46.77v3.12h-8.08c-3.54,0-5.67-1.66-6.1-4.57,0-.06,0-.11,0-.16V6.94a2.37,2.37,0,0,0-2.61-1.74l-1.62.23-.43-3.09,14.26-2,.21,1.5A23,23,0,0,1,193,4.29c0,.25,0,.5,0,.75l0,39.47a2.26,2.26,0,0,0,2.51,2.26Z" transform="translate(-1.83)"/><path d="M110.26,16.24c-.11,0-2.33,4.5-3.77,7.44C100,20.93,96.35,27,96.35,30l0,14.89A2.2,2.2,0,0,0,98.62,47h2.33v2.86H81.68V47H84a2.2,2.2,0,0,0,2.29-2.1V22.26a2.29,2.29,0,0,0-2.58-1.91l-1.62.23-.43-3.09,14.26-2,.21,1.5a26.37,26.37,0,0,1,.22,3.43h0a.08.08,0,0,0,.14,0C100.53,13.49,110.26,16.24,110.26,16.24Z" transform="translate(-1.83)"/><path d="M144.69,46.5a2.34,2.34,0,0,1-2.61-2.27v-.57h0V10.89h0V4.69a22.88,22.88,0,0,0-.22-3.19L141.68,0,127.42,2l.43,3.09,1.63-.23a2.29,2.29,0,0,1,2.59,2V17.09a14.06,14.06,0,0,0-12-1.36,14.69,14.69,0,0,0-8.41,7.9,26.23,26.23,0,0,0-1.87,15.25,13.24,13.24,0,0,0,14.18,10.65,12.47,12.47,0,0,0,8.75-4.3l.11.34,0,.16c.43,2.9,2.56,3.89,6.1,3.88h7.4V46.5Zm-14.06-2.77a6.32,6.32,0,0,1-8.39-.15,9.43,9.43,0,0,1-2-3c-2.2-7.37-.68-14.45.89-17.1a7.34,7.34,0,0,1,5.35-3.63,5.63,5.63,0,0,1,5.57,2.47v20A11.86,11.86,0,0,1,130.63,43.73Z" transform="translate(-1.83)"/><path d="M177.5,33.21c0-9.38-3.51-17.67-14.47-17.67-9.38,0-15.84,7.6-15.84,17S153.65,49.73,163,49.73A13.13,13.13,0,0,0,175.51,42l-3.58-1.64c-2.36,3.39-3.63,5.51-8.46,5.45-3.25,0-6.71-3.7-7.1-7.09a38.12,38.12,0,0,1-.23-4.58h20.43a.93.93,0,0,0,.93-.92Zm-21.26-2.87c0-1.17,0-1.4.06-3.17.33-7.87,6.74-7.87,6.74-7.87,4,0,6.2,2.72,6,7.72,0,1.16,0,2.32,0,3.32Z" transform="translate(-1.83)"/><path d="M228.74,33.21c0-9.38-3.51-17.67-14.47-17.67-9.38,0-15.84,7.6-15.84,17s6.46,17.22,15.84,17.22A13.13,13.13,0,0,0,226.76,42l-3.58-1.64c-2.36,3.39-3.63,5.51-8.46,5.45-3.25,0-6.71-3.7-7.1-7.09a38.12,38.12,0,0,1-.23-4.58h20.43a.93.93,0,0,0,.93-.92Zm-21.26-2.87c0-1.17,0-1.4.06-3.17.33-7.87,6.74-7.87,6.74-7.87,4,0,6.2,2.72,6,7.72,0,1.16,0,2.32,0,3.32Z" transform="translate(-1.83)"/><path d="M262.15,46.88a2.34,2.34,0,0,1-2.61-2.26l0-20.2v0h0s0-.16,0-.31c-.28-1.81.72-9-12.4-9,0,0-8.39-.08-12.43,4.12l3.58,3.2A13.83,13.83,0,0,1,244,19.54a5.66,5.66,0,0,1,4.32.84,3.92,3.92,0,0,1,1.5,3s.08,1.26.08,2.86a17.39,17.39,0,0,1-4.1,1.16c-4.29.8-13.9,3.49-13.9,13.21,0,5.95,3.74,9.38,9.84,9.38a11.81,11.81,0,0,0,8.95-3.83c.66,2.45,2.71,3.84,5.94,3.83H264V46.88ZM243.54,46c-2.82,0-4.19-1.87-4.19-4.81,0-3.57,2.36-9.07,7.39-10.58,1.64-.49,2.51-.62,3.12-.78,0,2.19-.08,4.85-.08,4.85,0,1.77,0,4.69.15,6.45,0,.65.1,1.3.16,1.95A8.89,8.89,0,0,1,243.54,46Z" transform="translate(-1.83)"/><circle cx="310.81" cy="44.16" r="5.52"/></svg>