<?xml version="1.0" encoding="utf-8"?>
<!-- Generator: Adobe Illustrator 21.0.2, SVG Export Plug-In . SVG Version: 6.00 Build 0)  -->
<svg version="1.1" id="Layer_1" xmlns="http://www.w3.org/2000/svg" xmlns:xlink="http://www.w3.org/1999/xlink" x="0px" y="0px"
	 viewBox="0 0 40 40" style="enable-background:new 0 0 40 40;" xml:space="preserve">
<style type="text/css">
	.st0{fill:#4B4F54;}
</style>
<path class="st0" d="M40,10.7c-0.2,3.9-2.9,9.2-8.1,16.1c-5.5,7-10,10.6-13.9,10.6c-2.4,0-4.3-2.2-5.9-6.5C11,26.9,9.9,22.9,8.9,19
	c-1.2-4.3-2.5-6.5-3.8-6.5c-0.3,0-1.4,0.6-3.1,1.9L0,12c2-1.7,3.9-3.5,5.8-5.2c2.6-2.3,4.6-3.5,5.9-3.6c3.1-0.3,5,1.8,5.7,6.4
	c0.8,4.9,1.3,8,1.6,9.2c0.9,4.1,1.9,6.1,2.9,6.1c0.8,0,2.1-1.4,3.7-4s2.6-4.7,2.7-6c0.3-2.3-0.6-3.5-2.7-3.5c-0.9,0-1.9,0.2-2.9,0.6
	c1.9-6.5,5.7-9.6,11.2-9.4C38.2,2.8,40.2,5.5,40,10.7z"/>
</svg>
