<svg xmlns="http://www.w3.org/2000/svg" width="660" height="282">
  <g fill="#FFF">
    <path d="M206.5 35.1c-8.4 5.1-15.1 11.8-20.6 19.8-14.9 21.5-23.5 47-26.7 73-2.3 17.9-2 36.1 0 54.1.4 3.7 2.1 10.1 3 16.5 1.2 9.4.6 18.8-8.9 19.8-.5.1-1 .1-1.5.1-3 .1-5.8-1.1-7.8-3.1-.9-.3-1.6-.8-2.3-1.5C87.9 161.3 92.3 76.2 96.2 44.1c-9.1 6.7-19.1 12.1-29.8 15.7C56 63.3 44.9 65 33.9 64.4c-6.6-.4-26-1.5-28.1-9.4-.4-1.4.2-2.9 2.5-3.9.8-.4 1.7-.4 2.6-.3 33.1 4.5 76-11.2 93.3-40.9 1.6-2.7 4.4-4.5 7.5-4.7 1.8-.1 3.3.2 4.7.7 1.7.7 3.1 1.8 4.1 3.2 1.8 1.9 2.7 4.5 2.2 7.3-16.2 78.7-2.8 124.4 13.7 153.9 0-.4 0-.8-.1-1.2-1.1-25 1-56.6 8.8-80.6 4.2-13.1 10.3-25.6 18.3-36.8 7.9-11 19.8-25.2 33.5-28.7 6.8-1.7 12.7-.1 13.2 5.2.3 2.8-1.2 5.4-3.6 6.9zM508 74.6c-5-2.2-8.5-7.6-6.2-13.8 1.2-3 3.8-5.4 6.8-6.6 3.9-1.6 8.6-1.2 12.1 1.3 3.4 2.5 5.2 7.1 4.1 11.2-.9 3.1-3.3 5.7-6.1 7.4-3.3 2-7.3 1.9-10.7.5z"/>
    <path d="M653.8 75c-.2-1.9-.3-3.8-.6-5.7-.7-5.8-1.9-14.2-9.4-14.3-8.5-.1-8.6 8.5-8.2 14.3.6 11 1.5 22.8-.4 33.5-2.3 13.3-8 27.4-18.8 36-7.7 6.1-17.7 9.1-27.2 7.6.3-.1 1.6-2 1.9-2.5.8-1.2 1.4-2.5 1.8-3.8 3.4-9.2 5.5-18.9 5.7-28.6.1-6.6-.6-13.1-2.1-19.5-.1-.4-.2-.9-.3-1.3-.4-1.5-.9-3.1-1.6-4.5-7.5-16.5-25.9-18-37.5-8-10.6 9.1-12.9 23.9-11.7 37.1 1.1 12 4.2 24.5 12.4 33.7.9 1 1.9 2 2.9 3-2.1 1.4-4.6 2.5-7.2 3.2-.7.2-1.5.3-2.2.3-1.9.1-3.8 0-5.7-.4-2.7-.6-5.3-1.7-7.5-3.2-3.1-2.1-5.7-4.9-7.8-8.1-3-4.6-5-9.7-6.4-15-.9-3.5-1.6-7-2.2-10.5-.6-4.2-1.4-8.7-1.1-13 0-3.5.5-7 .4-10.4 0-4.2-3.5-7.7-7.7-7.7-3.8 0-7 2.7-7.6 6.5-1.7 10.4-4 25-12 32.6-5.4 5.1-13.1 6.5-20.3 6.8h-1.9c-.1-6 .5-12.1 1.5-17.9 1.5-8.5 1.1-18-3.5-25.3-5.4-8.6-14.8-9.1-23.9-8.2-.1-4.4-.5-8.2-1.2-11.6-2.7-12.8-13.6-22.5-26.7-23-2-.1-3.9.1-5.6.4-10.8 1.9-18.6 11.1-19.6 22-.7 7.2 2.2 12.9 6 17.2.3.4.6.8.9 1.1 7.2 7.5 17 11.4 27 11.4-2.2 7.6-4.6 15.3-7.9 22.6-2.9 6.5-6.8 14.4-12.4 19.1-4.5 3.7-10.7 6.2-16.4 7.3-.5.1-.9.1-1.4.2-3.8.1-7.2-.1-10.3-.6 1.4-4.9 3.7-14.4 3.8-14.8 2.3-11.6 4.7-23.5 3.5-35.4-2.3-23.4-26.2-30.4-40.5-18.2-10.6 9.1-12.9 23.9-11.7 37.1 1.1 12 4.2 24.5 12.4 33.7 3.1 3.5 6.7 6.5 10.6 9-6.6 19.7-16.8 39.6-33.8 39.8-7.9.1-14-6.9-18-13.7-5.7-9.6-9.7-19.9-12.5-30.6 6.4-4.9 11.3-11.8 15.9-18.9 7.1-11.1 12.4-23.2 15.9-35.9 5.9-21.5 11.9-45.3 12.6-67.7.2-6.5-.2-13.1-2.7-19C327.8 0 312.1-3 300.5 2.9c-11.8 6.1-18.2 19.2-22.4 31.2-3.7 10.6-5.9 21.7-8.2 32.7-5.1 25.3-6 52.7-1.1 78.5h-.7c-13.6-1-18.2-18.7-19.8-29.8.9-3 1.5-6.2-.2-8.8-1.5-2.3-6.4-3.7-9.1-3.2-3.5.8-5.5 4.4-7.1 7.6-2.2 4.5-4.3 9.1-6.5 13.6-4 8.3-8.5 17.1-16.7 21.3-3.2 1.6-6.9 2.4-10.2 1.2-4.1-1.4-6.8-5.5-7.8-9.8-2.2-9.9 1.4-19.9 7.8-27.4 8.1-9.5 20.5-16.3 33-17.2 4-.3 8.1 0 11.8 1.6 2.2 1 4.5 2.5 6.8 1.8 5.5-1.8 2.6-6.7-.6-9.9-.9-.9-1.8-1.7-2.6-2.3-6.5-4.6-16.1-5.7-23.8-5.3-6.4.4-12.8 2.1-18.5 5-20.1 10.2-35.2 33.5-31.2 55.9 1.2 7 5.5 13.9 11.4 18.4 7.8 6 18.7 7.6 27.8 4.2 6.5-2.4 12-7.1 16.3-12.5 3.2-4 6.4-8.3 9.3-12.8 1.5 5 4 9.8 7.7 14 6.7 7.7 17 11.3 27 10.5.4 1.2.7 2.4 1.1 3.6 7.3 22 18.7 50.2 45.3 51.5 24.7 1.2 42-25.1 52.3-51.1 1 .2 2 .5 3 .6 11.3 2 23.2-.1 33.3-5.6.3-.2.7-.4 1-.6l.1-.1c1-.6 2.2-1.3 3.4-2.2 0 0 .1 0 .1-.1 3.1-2.3 5.9-4.8 8.4-7.6 10.4-11.4 16.4-26.4 20.5-41.1 1.3-4.5 2.2-8.8 2.8-12.7 5.8-.4 10.8.9 12.1 7.3 1.7 8.6-1.1 19.3-1.2 28.2-.1 10.4 1.2 20.8 4.3 30.7 5.7 18 18.3 34.3 35.6 41.8 2.3 1 4.8 1.8 7.3 1.5s4.9-2.3 5-4.9c.1-5.3-5.1-7.8-8.7-10.2-4.4-3-8.3-6.6-11.7-10.7-7.7-9.2-12.3-20.4-14.4-32.2 12 1.5 23.7-.9 33.3-9.4.6-.5 1.1-1 1.6-1.6 3.7 13.2 10.4 25.5 22.2 31.8 16.9 9 34.4 5 47.2-6.5 16.7 6.4 36.5 3.7 51.7-7.3 18-13.1 24.5-37.1 25.5-58.3.5-6.9.4-14.1-.2-21.2zm-363.2-2.3c2-11.8 4.3-23.7 8.2-35.1 1.9-5.6 5.7-20 13.2-20.4h.6c1.8.2 3.4.8 4.2 2.7 1.8 4.2 2 12 1.6 16.4-1.1 12.2-4.1 24.1-7 36-5.2 21.2-10.3 42.4-23.6 60.1-2-19.9-.5-40.3 2.8-59.7zm74.1 55.1c-.7 3.6-1.1 7.5-3 12.2-11.1-8.2-11.5-24.6-10.6-37 1-14.5 9.5-12.3 9.5-12.2 6.7 1.8 6.1 13.5 5.8 18.6-.3 6.7-.5 11.9-1.7 18.4zm47.5-47.7c-.3-.3-.6-.7-.9-1-10.9-9.6 2.5-24.4 12.2-15.1 5.1 4.9 6.3 12 5.8 19.2-6.1.5-12.7.1-17.1-3.1zm160.9 9.7c8.2 2.1 6.1 22.7 4 35.5-.9 3.6-2.3 8-4.4 12.2-3.9-4.3-6.7-9.7-8.1-15.3-1.6-6.1-4.7-35.7 8.5-32.4z"/>
  </g>
  <path fill="#FFF" d="M233.8 268.1c0 5.6-4 8.4-10.7 8.4h-8.3v-30.7h6.7c6.8 0 10.8 2.5 10.8 7.6 0 4-2.3 6.2-5.6 6.8 3.8.4 7.1 2.6 7.1 7.9zm-16.9-8.6h6.7c3.9 0 6.5-2.2 6.5-5.9 0-4.2-3-5.9-8.4-5.9h-4.8v11.8zm14.7 8.6c0-4.8-3.3-6.8-7.6-6.8h-7v13.4h6.2c5.1 0 8.4-2 8.4-6.6zm34.2-6.8c0 10-4.8 15.8-12.4 15.8-7.3 0-12.3-5.6-12.3-15.7s5.1-15.9 12.3-15.9c7.4-.1 12.4 5.4 12.4 15.8zm-22.4 0c0 9.3 4.1 13.8 10.1 13.8 6.3 0 10.1-4.6 10.1-13.9 0-9.5-4-14-10.1-14-6.1.1-10.1 4.6-10.1 14.1zm32.9 1.2v14h-2.1v-30.7h7.2c7.3 0 10.6 2.9 10.6 8.2 0 4.7-2.6 7-6.9 8.1l8.5 14.4H291l-8.1-14h-6.6zm13.5-8.4c0-4.2-2.3-6.4-8.5-6.4h-5v13h5.4c5.2 0 8.1-2 8.1-6.6zm32 6.8c0 12.8-7.4 15.6-13.6 15.6H302v-30.7h6c6.8.1 13.8 2.5 13.8 15.1zm-17.7 13.8h4.3c5.5 0 11.2-2.5 11.2-13.8 0-11.5-6-13.2-11.5-13.2h-4v27zm28.1-27v11.9h11.1v1.8h-11.1v13.2h13.4v1.8h-15.5v-30.7h15.2l-.3 1.8h-12.8zm36.7 26.9l-.3 2h-14.7v-30.7h2.1v28.7h12.9zm8.8-26.9v11.9h11.1v1.8h-11.1v13.2h13.4v1.8h-15.5v-30.7h15.2l-.3 1.8h-12.8zm24.3 20.2l-2.8 8.6H397l10.4-30.7h2.7l10.4 30.7h-2.3l-2.8-8.6H402zm6.7-20.3l-6.1 18.4h12.1l-6-18.4zm26.6 29.4c-6.8 0-9.8-4.2-9.8-10v-21.2h2.1v21c0 5 2.3 8.2 7.7 8.2s7.7-3.3 7.7-8.2v-21h2.2V267c0 5.9-3.2 10-9.9 10z"/>
</svg>
