<?xml version="1.0" encoding="utf-8"?>
<!-- Generator: Adobe Illustrator 21.0.2, SVG Export Plug-In . SVG Version: 6.00 Build 0)  -->
<svg version="1.1" id="Layer_1" xmlns="http://www.w3.org/2000/svg" xmlns:xlink="http://www.w3.org/1999/xlink" x="0px" y="0px"
	 viewBox="0 0 1500 1125" style="enable-background:new 0 0 1500 1125;" xml:space="preserve">
<style type="text/css">
	.st0{fill:#F2F2F2;}
	.st1{fill:#F1B722;}
	.st2{fill:#7ABD47;}
	.st3{fill:#3074B4;}
	.st4{fill:#77BED9;}
	.st5{fill:#ED582F;}
	.st6{clip-path:url(#SVGID_2_);fill:#F1B722;}
	.st7{clip-path:url(#SVGID_4_);fill:#F1B722;}
	.st8{clip-path:url(#SVGID_6_);fill:#7BBE47;}
	.st9{clip-path:url(#SVGID_8_);fill:#3274B4;}
	.st10{clip-path:url(#SVGID_10_);fill:#77BED9;}
	.st11{clip-path:url(#SVGID_12_);fill:#77BED9;}
	.st12{clip-path:url(#SVGID_14_);fill:#ED5830;}
	.st13{clip-path:url(#SVGID_16_);fill:#7BBE47;}
	.st14{clip-path:url(#SVGID_18_);fill:#ED5830;}
	.st15{clip-path:url(#SVGID_20_);fill:#3274B4;}
	.st16{clip-path:url(#SVGID_22_);fill:#ED5830;}
	.st17{clip-path:url(#SVGID_24_);fill:#F1B722;}
	.st18{clip-path:url(#SVGID_26_);fill:#ED5830;}
	.st19{clip-path:url(#SVGID_28_);fill:#3274B4;}
	.st20{fill:#626366;}
	.st21{clip-path:url(#SVGID_30_);fill:#F1B722;}
	.st22{clip-path:url(#SVGID_32_);fill:#F1B722;}
	.st23{clip-path:url(#SVGID_34_);fill:#7BBE47;}
	.st24{clip-path:url(#SVGID_36_);fill:#3274B4;}
	.st25{clip-path:url(#SVGID_38_);fill:#77BED9;}
	.st26{clip-path:url(#SVGID_40_);fill:#77BED9;}
	.st27{clip-path:url(#SVGID_42_);fill:#ED5830;}
	.st28{clip-path:url(#SVGID_44_);fill:#7BBE47;}
	.st29{clip-path:url(#SVGID_46_);fill:#ED5830;}
	.st30{clip-path:url(#SVGID_48_);fill:#3274B4;}
	.st31{clip-path:url(#SVGID_50_);fill:#ED5830;}
	.st32{clip-path:url(#SVGID_52_);fill:#F1B722;}
	.st33{clip-path:url(#SVGID_54_);fill:#ED5830;}
	.st34{clip-path:url(#SVGID_56_);fill:#3274B4;}
</style>
<g>
	<rect class="st0" width="1500" height="1125"/>
</g>
<g>
	<path class="st1" d="M332.1,390.4L332.1,390.4c1,0,2,0,2.9,0h0.1c0.7,0,1.5,0,2.5,0.1L338,338c-13.2,0.2-26.4,0.7-39.6-0.1
		c-11-0.7-22.3-2.3-32.2-7.4c-12.9-6.7-21-19.2-23.2-33.4c-0.5-3.3-0.9-6.8-0.6-10.2c0.2-2.8,2.9-4.9,5.7-3.6
		c2.3,1.1,2.2,3.3,2.2,5.4c-0.3,11.6,4.3,23.5,13.5,30.9c7.8,6.2,17.7,8.6,27.4,9.8c10.7,1.3,105.4,0.5,133.1,0.1c2,0,2.8-2.7,1-3.8
		c-7.5-4.8-14.2-11-18.8-18.6c-2.6-4.3-5-9.3-5.5-14.3c-0.6-5,6.8-6.3,7.8-1.3c0.2,1,0.4,1.9,0.6,2.9c1.6,5.5,4.6,10.5,8.4,14.8
		c1,1.2,2.1,2.3,3.2,3.3c12.2,11.5,29.8,15.7,46.1,11.7c14.6-3.6,28.7-9.2,41.2-17.6c5-3.4,9.6-7.1,14-11.2
		c-17.1-5.4-32.6-15.2-43.9-29.2c-10.1-12.6-16.5-27.9-19.5-43.7c-1.4-7.2-2.2-14.6-2-22H299.8c-2-17.2-5.9-34.7-14-50.1
		c-4.5-8.6-10.4-16.7-18.2-22.6c-1.4-1-2.8-2-4.3-2.9c-0.8-0.5-1.6-1-2.6-1.1c-2-0.3-3.9,1.3-4,3.4l-0.6,67.7
		c-0.1,6.4-9.7,7.3-10.9,1l-12.7-66.4c-0.2-1.3-1.2-2.4-2.5-2.8c-2.1-0.6-3.5,0.9-4.8,2.3c-3.3,3.6-6.2,7.6-8.7,11.7
		c-5.3,8.9-8.9,18.8-11.2,28.9c-4.7,20.6-4.5,42.3-2.1,63.2c1.1,9.6,2.6,19.4,5,28.8l0,0c-3.1,25.2-5.8,50.4-7.8,75.7
		c-1.9,23.7-3.4,47.4-4.2,71.2c-0.4,13.5-0.7,27-0.5,40.6c3.3-3.1,6.8-6.3,10.5-9.5C243.8,407.3,287.2,390.4,332.1,390.4z
		 M452.2,257.7c5.9,0,5.9,9.1,0,9.1C446.3,266.9,446.3,257.7,452.2,257.7z M441.2,237c5.9,0,5.9,9.1,0,9.1
		C435.3,246.2,435.3,237,441.2,237z M428.3,257.7c5.9,0,5.9,9.1,0,9.1C422.4,266.9,422.4,257.7,428.3,257.7z M354.3,230.9
		c10,0,14.8,12.9,7.1,19.4c-7.7,6.5-19.7-0.4-18-10.3C344.4,234.8,349.1,230.9,354.3,230.9z"/>
	<path class="st1" d="M584.9,848.1c-0.9,0.1-1.7,0.4-2.5,0.8c-7.6,4.7-7.8,14.9-10.8,22.4c-3.3,8.2-8.8,15.7-16,20.9
		c-5.1,4.5-7.1,11-4.8,17.5c2.7,7.4,9.8,11,16.9,13.3c7,2.2,14.5,2.7,21.8,1.6c3.6-0.5,7.2-1.5,10.6-2.7c1.5-0.5,3.7-1,4.8-2.1
		c1.2-1.2,0.9-3-0.3-4c-4.8-3.9-13.1-4.3-18.8-2.9l0,0c-1.8,0.1-9.9,0.2-7.3-3.5c8.7-2.8,18-3.1,26.7-0.4c4.2,1.3,8.3,3.2,12,5.6
		c1.8,1.2,3.6,2.4,5.2,3.8c1.5,1.2,2.8,2.8,4.4,3.9c1,0.7,2.4,0.8,3.4,0c1.6-1.1,1.3-3.2,1.3-4.9c0-5.4-0.6-10.8-1.8-16
		c-2.4-10.3-7.1-20-13.3-28.6c-5.9-8.2-13.2-16-21.5-21.7C592.1,849.1,588.5,847.5,584.9,848.1z M589.7,869.9
		c4-4,14.4,6.4,10.4,10.4C596.1,884.3,585.7,873.9,589.7,869.9z"/>
	<path class="st2" d="M294.6,552.8c11.8,0,25.5-2,34-11.1c5-5.4,7.2-12.7,7.3-20c0-4.9-1.2-9.6-1.9-14.5
		c-2.9-19.9-1.7-40.5,4.6-59.7c2.4-7.2,5.3-14.8,9.6-21.1c2.1-3.1,4.4-5.7,5.7-9.3c1-2.8,1.4-5.8,1-8.7c-0.7-5.5-5.8-8-10.7-9.1
		c-7.2-1.7-14.9-1.2-22.1-0.7c-37.5,2.2-73,17.1-102.4,40.1c-14.1,11-27,23.7-38.3,37.7c-2.6,3.3-5.2,6.6-7.6,10
		c-2.1,2.9-4.2,5.8-5.5,9.2c-2.5,6.3-2.1,13.3,1.4,19.1c0.6,1,1.3,1.9,2,2.7c-3.7,0.4-7,2.5-8.4,6s-0.4,7.7,2.1,10.4
		c2.9,3.1,7.7,4.7,11.6,6c10.2,3.5,21.1,5.3,31.7,6.9c22.7,3.3,45.8,4.7,68.7,5.6C283.2,552.5,288.9,552.8,294.6,552.8z
		 M198.4,500.9c-2.1,5.5-10.6,2.3-8.6-3.2C191.9,492.1,200.5,495.3,198.4,500.9z M274.3,495.5c-14.8,0-26.5-13.3-24.6-28
		c-2.9,0.3-5.6,0.4-7.9-1.8c-2.5-2.5-2.4-5.8-0.9-8.8c2.6-5.3,5.9-10.4,10.1-14.5c5.8-5.7,13.2-9.5,21.2-10.6
		c8.9-1.2,18,1.2,25.4,6.3c7.6,5.3,12.2,13.7,13.4,22.8c0.6,4.9,0.4,9.8-0.5,14.7c-0.5,2.8-1.2,5.5-3.9,7c-3.5,1.9-6.6,0.2-9.4-1.9
		C293.1,489.6,284,495.5,274.3,495.5z"/>
	<path class="st3" d="M299.1,475.7c1.2,0.9,3.4,3.4,5.1,2.1c1.2-0.9,1.2-3.6,1.4-5c0.7-5,0.7-10.2-0.5-15.1
		c-2.7-10.8-11.1-18.4-21.7-20.4c-26.6-4.8-37.7,21.3-38,22.8c-0.3,1.7,0.9,2.3,1.7,2.3c1.7,0,3.4-0.3,5.1-0.4
		c7.6-0.3,15.2,0.5,22.6,2.4C283.5,466.7,291.7,470.6,299.1,475.7C300,476.4,298.9,475.6,299.1,475.7z"/>
	<path class="st4" d="M238.5,700.5L220.3,667c-0.6-1.1-2.2-0.9-2.5,0.3l-4.7,19.3l9.1,13L238.5,700.5z"/>
	<path class="st4" d="M322.2,848.8c4.6-2.4,9.3-4.4,14-6.2l-16.4-11.8l-35.4,13.8c-15.6,5.5-32.7,6.3-48.1-0.3
		c-8.9-3.8-17-9.8-23.2-17.2c-1.8-2.1-4-5.1-1.1-7.6c3.2-2.7,5.5,0.5,7.3,2.8c4.8,5.9,11.1,10.7,18,14c14,6.7,29.9,6,44.4,0.9
		c21-7.4,39.2-15.8,53.1-26.1c5.9-4.7,4.9-9.9,3.4-13.1c-4.7,2.3-12.2,4.6-20.9,4.8c-2.5,0-6,0-6.3-4.1c-0.1-0.9,0.2-1.9,0.8-2.6
		c1.1-1.3,2.5-1.5,4.1-1.3c2.3,0.3,4.7,0.2,7-0.1c3.3-0.4,16.4-1.1,17.3-13.2c0.3-3.7,0.5-7.4,0.2-10.8c-3.1,0.7-6.4,0.4-9.6-0.1
		c-3.5-0.6-7.5-1.4-10.3-3.8c-5.4-4.4-4.9-12,0.6-16l0.1-0.1l0.1-0.1l4.1-2.7c-21-7.8-38.7-30.3-38.7-30.3
		c-3.9-5.9-7.7-7.4-14.2-7.4l-54.6-2.7l-23.8-34.2c-1.1-1.5-3.5-1-3.8,0.8c0,0-20.5,60.3-6.3,85c1.4,2.5,3.1,4.8,5.1,6.8
		c2,1.9,4.7,4,2.6,7c-4.3,6.1-12.2-5.7-14.1-9c-3.5-6-5.3-12.9-6-19.8c-55.6,91.2,40.7,179.3,68.1,201.8
		C252.3,884.5,319.4,850.2,322.2,848.8C326.8,846.4,319.4,850.2,322.2,848.8z M301.1,778.5c1,1,1,2.7,0,3.7l-12.5,12.6
		c-2.4,2.4-6.1-1.3-3.7-3.7l12.5-12.6C298.4,777.5,300.1,777.5,301.1,778.5S300.1,777.5,301.1,778.5z M280.6,743.7
		c5.2-3.8,13.6,7.9,8.5,11.6C283.9,759.1,275.5,747.5,280.6,743.7z M273.6,767.9h20.7c3.4,0,3.4,5.3,0,5.3h-20.7
		C270.2,773.2,270.2,767.9,273.6,767.9z"/>
	<path class="st5" d="M528.4,288.8c0,0,31.6-33.8,27.8-88.5h-91.4C464.8,200.4,461.1,270.6,528.4,288.8z"/>
	<path class="st2" d="M475,587.2c-4.7-13-14.4-49.9,11-83.1c7.6-9.9,17.5-18,29.6-24.1c1.8-0.9,3.5-1.8,5.2-2.7
		c-16.9-19-39.2-32.5-66.5-40.4c-18.5-5.3-38.3-7.4-58.9-6.1c-13.9,0.9-31.5,3.1-45.2,8.6c-5.6,12.4-13.5,37.2-7.7,70.9
		c0.8,3.2,4.5,20.3-5.8,34.1c-8.1,10.8-22.3,16.3-42,16.3c-0.9,0-1.7,0-2.5,0c-5.2-0.1-30.7-0.5-58.2-3c13.7,12.7,40.7,31.3,81,31.7
		c1.4,0.1,31.1,1.2,46.6-24.1c0.4-0.7,11-18,28.6-21.3c1.9-0.4,3.9-0.5,5.8-0.5c8,0,15.9,3,23.7,9.1c1.3,1,27.5,20.8,36.5,63.5
		C461.8,605,468.2,595.5,475,587.2z"/>
	<path class="st5" d="M481,580.3c32.3-38.7,80.2-47.9,80.2-47.9c6.3-10.1,10.4-21.6,10.9-33.5c0.5-11.2-2-22.5-7.1-32.5
		c-1-1.9-2-4.1-4.5-4.2c-2.1-0.1-3.3,1.4-4.8,2.7c-3.2,2.8-6.8,5.2-10.5,7.6c-8,5.1-16.5,9.7-25,14c-10.9,5.5-20.7,12.8-28.1,22.5
		C471.6,535.9,476.7,566,481,580.3z"/>
	<path class="st3" d="M461.7,974.2c-1.9-6.6-1.6-12.9-0.7-18.2c-4.8-0.5-8.9-4-10.2-8.6c-0.7-2.3-0.5-4.8-1.2-7.1
		c-0.8-2.9-2.1-5.6-3.7-8.2c-3.1-4.9-16.8-15.5-22.3-23c-9.8-13.3-14.6-29.6-15.6-46c-0.3-5.3-0.2-10.7,0.4-16
		c-21.1-5.9-56.4-4.1-82.6,8.7c0,0-69.4,34.8-79.1,95.6c-1.4,8.1,3,15.5,10.8,18.1c9.7,3.3,21.1,0.8,30.6-1.8
		c-1.3,6,0.4,12.8,5.2,16.7c7.6,6.3,19.4,5.6,28.5,4.2c6.3-0.9,12.6-2.4,18.7-4.2c-0.9,5.9,3.2,10.6,8.6,12.2
		c8.7,2.6,18.8,0,27.2-2.4c2.3,5.1,8.4,7,13.6,7.2c8,0.2,15.9-3,23-6.5c7.3,3.8,16.8,3.1,24.3,0.2c10.2-3.9,18.2-11.8,24.7-20.3
		C461.9,974.7,461.8,974.5,461.7,974.2z"/>
	<path class="st5" d="M322.2,760.5c1.5,3.6,6.6,4.3,10,4.8c2.4,0.4,5.2,0.6,7.6-0.1c1-4.9-0.5-10.3-0.5-10.3c-1-2.8-3.5-6.2-6.9-5.4
		l-8.2,5.4C321.5,756.9,321.5,758.9,322.2,760.5C322.9,762.1,321.5,758.9,322.2,760.5z"/>
	<path class="st1" d="M259,470.7c0,8.4,6.9,15.3,15.3,15.3c6.8,0,12.5-4.4,14.5-10.4c-10.7-5.7-21.1-7.7-29.4-8.2
		C259.1,468.5,259,469.6,259,470.7z"/>
	<path class="st5" d="M560.7,540.6c0,0-112.3,25.1-116.1,156.1c0,0-0.5,34.3,9.6,68.3c16.7-3.1,34.1-4,50.8-0.5
		c1.4-2.4,3.7-4.3,6.4-5c3-0.8,5.8,0.1,8.6,1c5.8,1.8,11.5,3.9,17.1,6.5c9.3,4.2,18.1,9.6,25.9,16.1c9.7-8.4,18.2-18.2,25.7-28.6
		c5.3-7.3,10-14.9,14.3-22.8c1.1-2.1,2.3-4.2,3.3-6.4c1-2,2-4,1.5-6.3c-0.8-3.9-4-5-7.3-6.2c-12.4-4.7-24.9-11.3-33.9-21.3
		c-2.5-2.7-4.6-5.8-6.4-9c-0.5-0.9-1.3-2.2-0.2-3c1.1-0.9,2.2,0.3,3,1c6,4.7,12.4,8.9,19.2,12.4c18.4,9.3,39.1,12.4,59.6,10.4
		l11.4-53.7C653.3,649.4,580.9,632.7,560.7,540.6z M556.3,637.9c-5,0-9.1-4.1-9.1-9.1s4.1-9.1,9.1-9.1s9.1,4.1,9.1,9.1
		C565.4,633.8,561.2,637.9,556.3,637.9z"/>
	<path class="st3" d="M533.3,773.9c-5.3-2.4-10.8-4.3-16.3-6.1c-1.5-0.5-3.9-1.2-5,0.6c-1.2,2.1,0.9,4.9,1.6,6.8
		c-7.3-3.2-15.4-4.2-23.4-4.7c-8.6-0.6-17.2-0.2-25.8,0.9c-16.7,2.2-32.9,8.2-50,5.4c-2-0.3-5.1-0.5-5.5,2.2
		c-0.5,3.2,5.9,12.8,6.9,14.3c0.9,1.2,2.1,2.8,1.4,4.4c-0.9,2.1-3.9,1.3-5.7,1.3c-2.6,0-3.8,1.6-3.1,4.1c0.8,3.1,2.2,6.2,3.2,9.2
		c2.5,7.8,6,16.1,5.6,24.4c-0.3,6.6-1.9,21.1-1.6,25.4c0.6,8.4,2,16.8,4.9,24.8c2.6,7.3,6.5,14.3,11.5,20.3
		c4.8,5.8,11.1,10,16.2,15.5c2.6,2.9,4.9,6.2,6.6,9.7c0.8,1.7,2.8,9.2,3.2,11.2c0.6,3,2.3,4.7,5.4,4.4c2-0.2,4.5-1.8,6.5-1.3
		c2.9,0.7-0.5,6.9-0.9,8.6c-0.8,3.5-1.2,7.2-0.9,10.8c0.2,2.8,1.2,9.8,5.4,9c3.3-0.7,4.4-4.8,6.1-7.2c2.2-3.2,13.1-14,29.1-16.1
		s31.5-7.1,45.8-14.8c3.6-2,7.2-4.2,10.5-6.7c-6.9-2.2-13.7-5.9-18.2-11.7c-5.2-6.8-6.2-15.8-3-23.6c1.5-3.7,3.8-7,7.1-9.3
		c3.3-2.4,6.1-5.3,8.4-8.7c4.9-7.1,6.1-15.6,9.5-23.3c3.1-7,8.7-13.4,16.9-13.6c-1-10.2-3.9-19.6-9-28.5
		c-4.8-8.4-15.7-19.6-16.5-20.4C552.2,783.8,543.1,778.3,533.3,773.9z M522.7,866.6c-4.7,0-8.9-4.2-8.9-8.9s4.2-8.9,8.9-8.9
		s8.9,4.2,8.9,8.9C531.6,862.4,527.5,866.6,522.7,866.6z"/>
</g>
<g>
	<g>
		<g>
			<g>
				<defs>
					<rect id="SVGID_1_" x="890.1" y="220" width="185.6" height="318.9"/>
				</defs>
				<clipPath id="SVGID_2_">
					<use xlink:href="#SVGID_1_"  style="overflow:visible;"/>
				</clipPath>
				<path class="st6" d="M959.1,316.9L959.1,316.9c0.4,0,0.7,0,1.1,0l0,0c0.2,0,0.6,0,0.9,0l0.1-19c-4.8,0.1-9.6,0.3-14.4,0
					c-4-0.2-8.1-0.8-11.7-2.7c-4.7-2.4-7.6-7-8.4-12.1c-0.2-1.2-0.3-2.5-0.2-3.7c0.1-1,1-1.8,2.1-1.3c0.8,0.4,0.8,1.2,0.8,2
					c-0.1,4.2,1.6,8.6,4.9,11.2c2.8,2.3,6.4,3.1,10,3.6c3.9,0.5,38.3,0.2,48.3,0.1c0.7,0,1-1,0.4-1.4c-2.7-1.7-5.2-4-6.8-6.8
					c-0.9-1.5-1.8-3.4-2-5.2c-0.2-1.8,2.5-2.3,2.8-0.5c0.1,0.4,0.1,0.7,0.2,1c0.6,2,1.7,3.8,3,5.4c0.4,0.4,0.8,0.8,1.2,1.2
					c4.4,4.2,10.8,5.7,16.7,4.2c5.3-1.3,10.4-3.3,15-6.4c1.8-1.2,3.5-2.6,5.1-4.1c-6.2-1.9-11.8-5.5-15.9-10.6
					c-3.7-4.6-6-10.1-7.1-15.9c-0.5-2.6-0.8-5.3-0.7-8h-57.1c-0.7-6.3-2.1-12.6-5.1-18.2c-1.6-3.1-3.8-6.1-6.6-8.2
					c-0.5-0.4-1-0.7-1.6-1c-0.3-0.2-0.6-0.4-0.9-0.4c-0.7-0.1-1.4,0.5-1.4,1.2l-0.2,24.6c0,2.3-3.5,2.6-3.9,0.4l-4.6-24.1
					c-0.1-0.5-0.4-0.9-0.9-1c-0.8-0.2-1.3,0.3-1.7,0.8c-1.2,1.3-2.3,2.7-3.2,4.3c-1.9,3.2-3.2,6.8-4.1,10.5
					c-1.7,7.5-1.6,15.4-0.8,23c0.4,3.5,0.9,7,1.8,10.4c-1.1,9.1-2.1,18.3-2.8,27.5c-0.7,8.6-1.2,17.2-1.5,25.8
					c-0.2,4.9-0.2,9.8-0.2,14.7c1.2-1.1,2.5-2.3,3.8-3.5C927,323.1,942.8,316.9,959.1,316.9 M1002.6,268.8c2.1,0,2.1,3.3,0,3.3
					C1000.5,272.1,1000.5,268.8,1002.6,268.8 M998.7,261.3c2.1,0,2.1,3.3,0,3.3C996.5,264.6,996.5,261.3,998.7,261.3 M994,268.8
					c2.1,0,2.1,3.3,0,3.3C991.8,272.1,991.8,268.8,994,268.8 M967.1,259c3.6,0,5.4,4.7,2.6,7.1c-2.8,2.4-7.2-0.1-6.5-3.8
					C963.5,260.5,965.2,259,967.1,259"/>
			</g>
			<g>
				<defs>
					<rect id="SVGID_3_" x="890.1" y="220" width="185.6" height="318.9"/>
				</defs>
				<clipPath id="SVGID_4_">
					<use xlink:href="#SVGID_3_"  style="overflow:visible;"/>
				</clipPath>
				<path class="st7" d="M1050.8,483.1c-0.3,0.1-0.6,0.2-0.9,0.3c-2.8,1.7-2.8,5.4-3.9,8.1c-1.2,3-3.2,5.7-5.8,7.6
					c-1.9,1.6-2.6,4-1.7,6.4c1,2.7,3.6,4,6.1,4.8c2.6,0.8,5.3,1,7.9,0.6c1.3-0.2,2.6-0.5,3.9-1c0.5-0.2,1.3-0.4,1.8-0.8
					c0.4-0.4,0.3-1.1-0.1-1.5c-1.7-1.4-4.7-1.5-6.8-1.1c-0.6,0-3.6,0.1-2.7-1.3c3.1-1,6.5-1.1,9.7-0.2c1.5,0.5,3,1.2,4.4,2
					c0.7,0.4,1.3,0.9,1.9,1.4c0.5,0.4,1,1,1.6,1.4c0.4,0.3,0.9,0.3,1.2,0c0.6-0.4,0.5-1.2,0.5-1.8c0-2-0.2-3.9-0.6-5.8
					c-0.9-3.7-2.6-7.3-4.8-10.4c-2.1-3-4.8-5.8-7.8-7.9C1053.4,483.5,1052.1,482.9,1050.8,483.1 M1052.6,491
					c1.5-1.5,5.2,2.3,3.8,3.8C1054.9,496.3,1051.1,492.5,1052.6,491"/>
			</g>
			<g>
				<defs>
					<rect id="SVGID_5_" x="890.1" y="220" width="185.6" height="318.9"/>
				</defs>
				<clipPath id="SVGID_6_">
					<use xlink:href="#SVGID_5_"  style="overflow:visible;"/>
				</clipPath>
				<path class="st8" d="M945.4,375.9c4.3,0,9.3-0.7,12.3-4c1.8-2,2.6-4.6,2.6-7.2c0-1.8-0.4-3.5-0.7-5.3c-1-7.2-0.6-14.7,1.7-21.7
					c0.9-2.6,1.9-5.4,3.5-7.7c0.8-1.1,1.6-2.1,2.1-3.4c0.4-1,0.5-2.1,0.4-3.2c-0.3-2-2.1-2.9-3.9-3.3c-2.6-0.6-5.4-0.4-8-0.3
					c-13.6,0.8-26.5,6.2-37.2,14.6c-5.1,4-9.8,8.6-13.9,13.7c-1,1.2-1.9,2.4-2.8,3.6c-0.8,1.1-1.5,2.1-2,3.3
					c-0.9,2.3-0.8,4.8,0.5,6.9c0.2,0.4,0.5,0.7,0.7,1c-1.4,0.2-2.6,0.9-3.1,2.2c-0.5,1.3-0.2,2.8,0.8,3.8c1,1.1,2.8,1.7,4.2,2.2
					c3.7,1.3,7.6,1.9,11.5,2.5c8.3,1.2,16.6,1.7,24.9,2C941.3,375.8,943.3,375.9,945.4,375.9 M910.5,357.1c-0.8,2-3.9,0.8-3.1-1.2
					C908.1,353.9,911.2,355.1,910.5,357.1 M938.1,355.1c-5.4,0-9.6-4.8-8.9-10.2c-1.1,0.1-2,0.2-2.9-0.7c-0.9-0.9-0.9-2.1-0.3-3.2
					c0.9-1.9,2.1-3.8,3.7-5.3c2.1-2.1,4.8-3.5,7.7-3.8c3.2-0.4,6.5,0.4,9.2,2.3c2.8,1.9,4.4,5,4.9,8.3c0.2,1.8,0.1,3.6-0.2,5.3
					c-0.2,1-0.4,2-1.4,2.5c-1.3,0.7-2.4,0.1-3.4-0.7C944.9,353,941.6,355.1,938.1,355.1"/>
			</g>
			<g>
				<defs>
					<rect id="SVGID_7_" x="890.1" y="220" width="185.6" height="318.9"/>
				</defs>
				<clipPath id="SVGID_8_">
					<use xlink:href="#SVGID_7_"  style="overflow:visible;"/>
				</clipPath>
				<path class="st9" d="M947.1,347.9c0.4,0.3,1.2,1.2,1.8,0.8c0.4-0.3,0.4-1.3,0.5-1.8c0.3-1.8,0.3-3.7-0.2-5.5
					c-1-3.9-4-6.7-7.9-7.4c-9.7-1.8-13.7,7.7-13.8,8.3c-0.1,0.6,0.3,0.8,0.6,0.8c0.6,0,1.2-0.1,1.9-0.2c2.8-0.1,5.5,0.2,8.2,0.9
					C941.4,344.7,944.4,346.1,947.1,347.9C947.4,348.2,947,347.9,947.1,347.9"/>
			</g>
			<g>
				<defs>
					<rect id="SVGID_9_" x="890.1" y="220" width="185.6" height="318.9"/>
				</defs>
				<clipPath id="SVGID_10_">
					<use xlink:href="#SVGID_9_"  style="overflow:visible;"/>
				</clipPath>
				<path class="st10" d="M925,429.5l-6.6-12.2c-0.2-0.4-0.8-0.3-0.9,0.1l-1.7,7l3.3,4.7L925,429.5z"/>
			</g>
			<g>
				<defs>
					<rect id="SVGID_11_" x="890.1" y="220" width="185.6" height="318.9"/>
				</defs>
				<clipPath id="SVGID_12_">
					<use xlink:href="#SVGID_11_"  style="overflow:visible;"/>
				</clipPath>
				<path class="st11" d="M955.5,483.4c1.7-0.9,3.4-1.6,5.1-2.2l-6-4.3l-12.9,5c-5.7,2-11.9,2.3-17.5-0.1c-3.2-1.4-6.2-3.6-8.4-6.3
					c-0.6-0.8-1.5-1.8-0.4-2.7c1.2-1,2,0.2,2.7,1c1.8,2.1,4,3.9,6.5,5.1c5.1,2.4,10.9,2.2,16.1,0.3c7.6-2.7,14.2-5.7,19.3-9.5
					c2.2-1.7,1.8-3.6,1.2-4.8c-1.7,0.8-4.4,1.7-7.6,1.7c-0.9,0-2.2,0-2.3-1.5c0-0.3,0.1-0.7,0.3-0.9c0.4-0.5,0.9-0.5,1.5-0.5
					c0.8,0.1,1.7,0.1,2.5,0c1.2-0.2,5.9-0.4,6.3-4.8c0.1-1.3,0.2-2.7,0.1-3.9c-1.1,0.2-2.3,0.2-3.5,0c-1.3-0.2-2.7-0.5-3.7-1.4
					c-2-1.6-1.8-4.3,0.2-5.8l0,0l0,0l1.5-1c-7.6-2.8-14.1-11-14.1-11c-1.4-2.1-2.8-2.7-5.1-2.7l-19.8-1l-8.6-12.4
					c-0.4-0.6-1.3-0.4-1.4,0.3c0,0-7.4,21.9-2.3,30.9c0.5,0.9,1.1,1.8,1.9,2.5c0.7,0.7,1.7,1.4,0.9,2.5c-1.6,2.2-4.4-2.1-5.1-3.3
					c-1.3-2.2-1.9-4.7-2.2-7.2c-20.2,33.1,14.8,65.1,24.7,73.3C930,496.3,954.4,483.9,955.5,483.4
					C957.1,482.5,954.4,483.9,955.5,483.4 M947.8,457.9c0.4,0.4,0.4,1,0,1.4l-4.5,4.6c-0.9,0.9-2.2-0.5-1.4-1.3l4.5-4.6
					C946.8,457.5,947.4,457.5,947.8,457.9C948.2,458.2,947.4,457.5,947.8,457.9 M940.4,445.2c1.9-1.4,5,2.9,3.1,4.2
					C941.6,450.8,938.5,446.6,940.4,445.2 M937.8,454h7.5c1.2,0,1.2,1.9,0,1.9h-7.5C936.6,455.9,936.6,454,937.8,454"/>
			</g>
			<g>
				<defs>
					<rect id="SVGID_13_" x="890.1" y="220" width="185.6" height="318.9"/>
				</defs>
				<clipPath id="SVGID_14_">
					<use xlink:href="#SVGID_13_"  style="overflow:visible;"/>
				</clipPath>
				<path class="st12" d="M1030.3,280.1c0,0,11.5-12.3,10.1-32.1h-33.2C1007.2,247.9,1005.9,273.5,1030.3,280.1"/>
			</g>
			<g>
				<defs>
					<rect id="SVGID_15_" x="890.1" y="220" width="185.6" height="318.9"/>
				</defs>
				<clipPath id="SVGID_16_">
					<use xlink:href="#SVGID_15_"  style="overflow:visible;"/>
				</clipPath>
				<path class="st13" d="M1010.9,388.4c-1.7-4.7-5.2-18.1,4-30.2c2.8-3.6,6.4-6.5,10.7-8.8c0.7-0.3,1.3-0.7,1.9-1
					c-6.1-6.9-14.2-11.8-24.1-14.7c-6.7-1.9-13.9-2.7-21.4-2.2c-5.1,0.3-11.4,1.1-16.4,3.1c-2,4.5-4.9,13.5-2.8,25.7
					c0.3,1.2,1.6,7.4-2.1,12.4c-3,3.9-8.1,5.9-15.3,5.9c-0.3,0-0.6,0-0.9,0c-1.9,0-11.1-0.2-21.1-1.1c5,4.6,14.8,11.4,29.4,11.5
					c0.5,0,11.3,0.4,16.9-8.8c0.2-0.3,4-6.5,10.4-7.7c0.7-0.1,1.4-0.2,2.1-0.2c2.9,0,5.8,1.1,8.6,3.3c0.5,0.4,10,7.6,13.3,23.1
					C1006.1,394.9,1008.5,391.4,1010.9,388.4"/>
			</g>
			<g>
				<defs>
					<rect id="SVGID_17_" x="890.1" y="220" width="185.6" height="318.9"/>
				</defs>
				<clipPath id="SVGID_18_">
					<use xlink:href="#SVGID_17_"  style="overflow:visible;"/>
				</clipPath>
				<path class="st14" d="M1013.1,385.9c11.7-14,29.1-17.4,29.1-17.4c2.3-3.7,3.8-7.8,4-12.2c0.2-4.1-0.7-8.2-2.6-11.8
					c-0.4-0.7-0.7-1.5-1.6-1.5c-0.8,0-1.2,0.5-1.7,1c-1.2,1-2.5,1.9-3.8,2.7c-2.9,1.9-6,3.5-9.1,5.1c-3.9,2-7.5,4.6-10.2,8.2
					C1009.7,369.8,1011.6,380.7,1013.1,385.9"/>
			</g>
			<g>
				<defs>
					<rect id="SVGID_19_" x="890.1" y="220" width="185.6" height="318.9"/>
				</defs>
				<clipPath id="SVGID_20_">
					<use xlink:href="#SVGID_19_"  style="overflow:visible;"/>
				</clipPath>
				<path class="st15" d="M1006.1,528.9c-0.7-2.4-0.6-4.7-0.2-6.6c-1.7-0.2-3.2-1.4-3.7-3.1c-0.2-0.8-0.2-1.7-0.4-2.6
					c-0.3-1-0.8-2.1-1.4-3c-1.1-1.8-6.1-5.6-8.1-8.4c-3.5-4.8-5.3-10.8-5.6-16.7c-0.1-1.9-0.1-3.9,0.1-5.8c-7.6-2.1-20.5-1.5-30,3.1
					c0,0-25.2,12.6-28.7,34.7c-0.5,2.9,1.1,5.6,3.9,6.6c3.5,1.2,7.7,0.3,11.1-0.7c-0.5,2.2,0.1,4.6,1.9,6.1c2.7,2.3,7,2,10.4,1.5
					c2.3-0.3,4.6-0.9,6.8-1.5c-0.3,2.1,1.2,3.9,3.1,4.4c3.2,0.9,6.8,0,9.9-0.9c0.8,1.8,3.1,2.6,4.9,2.6c2.9,0.1,5.8-1.1,8.3-2.3
					c2.7,1.4,6.1,1.1,8.8,0.1C1000.9,535,1003.8,532.1,1006.1,528.9C1006.2,529.1,1006.1,529,1006.1,528.9"/>
			</g>
			<g>
				<defs>
					<rect id="SVGID_21_" x="890.1" y="220" width="185.6" height="318.9"/>
				</defs>
				<clipPath id="SVGID_22_">
					<use xlink:href="#SVGID_21_"  style="overflow:visible;"/>
				</clipPath>
				<path class="st16" d="M955.4,451.3c0.6,1.3,2.4,1.6,3.6,1.8c0.9,0.1,1.9,0.2,2.8,0c0.3-1.8-0.2-3.7-0.2-3.7
					c-0.4-1-1.3-2.3-2.5-2l-3,2C955.2,450,955.2,450.8,955.4,451.3C955.7,451.9,955.2,450.8,955.4,451.3"/>
			</g>
			<g>
				<defs>
					<rect id="SVGID_23_" x="890.1" y="220" width="185.6" height="318.9"/>
				</defs>
				<clipPath id="SVGID_24_">
					<use xlink:href="#SVGID_23_"  style="overflow:visible;"/>
				</clipPath>
				<path class="st17" d="M932.5,346.1c0,3.1,2.5,5.6,5.6,5.6c2.5,0,4.5-1.6,5.3-3.8c-3.9-2.1-7.7-2.8-10.7-3
					C932.5,345.3,932.5,345.7,932.5,346.1"/>
			</g>
			<g>
				<defs>
					<rect id="SVGID_25_" x="890.1" y="220" width="185.6" height="318.9"/>
				</defs>
				<clipPath id="SVGID_26_">
					<use xlink:href="#SVGID_25_"  style="overflow:visible;"/>
				</clipPath>
				<path class="st18" d="M1042,371.5c0,0-40.8,9.1-42.1,56.7c0,0-0.2,12.5,3.5,24.8c6.1-1.1,12.4-1.4,18.5-0.2
					c0.5-0.9,1.3-1.5,2.3-1.8c1.1-0.3,2.1,0,3.1,0.4c2.1,0.7,4.2,1.4,6.2,2.3c3.4,1.5,6.6,3.5,9.4,5.9c3.5-3.1,6.6-6.6,9.3-10.4
					c1.9-2.6,3.6-5.4,5.2-8.3c0.4-0.8,0.8-1.5,1.2-2.3c0.4-0.7,0.7-1.4,0.5-2.3c-0.3-1.4-1.4-1.8-2.6-2.3c-4.5-1.7-9-4.1-12.3-7.7
					c-0.9-1-1.7-2.1-2.3-3.3c-0.2-0.3-0.5-0.8-0.1-1.1c0.4-0.3,0.8,0.1,1.1,0.4c2.2,1.7,4.5,3.2,7,4.5c6.7,3.4,14.2,4.5,21.6,3.8
					l4.1-19.5C1075.7,411,1049.4,404.9,1042,371.5 M1040.4,406.8c-1.8,0-3.3-1.5-3.3-3.3s1.5-3.3,3.3-3.3s3.3,1.5,3.3,3.3
					C1043.7,405.3,1042.2,406.8,1040.4,406.8"/>
			</g>
			<g>
				<defs>
					<rect id="SVGID_27_" x="890.1" y="220" width="185.6" height="318.9"/>
				</defs>
				<clipPath id="SVGID_28_">
					<use xlink:href="#SVGID_27_"  style="overflow:visible;"/>
				</clipPath>
				<path class="st19" d="M1032.1,456.2c-1.9-0.9-3.9-1.6-5.9-2.2c-0.6-0.2-1.4-0.4-1.8,0.2c-0.4,0.8,0.3,1.8,0.6,2.5
					c-2.7-1.2-5.6-1.5-8.5-1.7c-3.1-0.2-6.2-0.1-9.4,0.3c-6.1,0.8-11.9,3-18.1,2c-0.7-0.1-1.9-0.2-2,0.8c-0.2,1.2,2.1,4.7,2.5,5.2
					c0.3,0.4,0.8,1,0.5,1.6c-0.3,0.8-1.4,0.5-2.1,0.5c-1,0-1.4,0.6-1.1,1.5c0.3,1.1,0.8,2.2,1.2,3.4c0.9,2.8,2.2,5.8,2,8.8
					c-0.1,2.4-0.7,7.7-0.6,9.2c0.2,3.1,0.7,6.1,1.8,9c1,2.7,2.4,5.2,4.2,7.4c1.7,2.1,4,3.6,5.9,5.6c1,1,1.8,2.2,2.4,3.5
					c0.3,0.6,1,3.3,1.2,4.1c0.2,1.1,0.8,1.7,2,1.6c0.7-0.1,1.6-0.6,2.4-0.5c1.1,0.3-0.2,2.5-0.3,3.1c-0.3,1.3-0.4,2.6-0.3,3.9
					c0.1,1,0.4,3.6,2,3.3c1.2-0.2,1.6-1.7,2.2-2.6c0.8-1.1,4.8-5.1,10.6-5.8s11.4-2.6,16.6-5.4c1.3-0.7,2.6-1.5,3.8-2.4
					c-2.5-0.8-5-2.1-6.6-4.2c-1.9-2.5-2.3-5.7-1.1-8.6c0.6-1.3,1.4-2.5,2.6-3.4s2.2-1.9,3.1-3.2c1.8-2.6,2.2-5.6,3.5-8.5
					c1.1-2.5,3.2-4.9,6.1-5c-0.4-3.7-1.4-7.1-3.3-10.3c-1.7-3.1-5.7-7.1-6-7.4C1039,459.8,1035.7,457.8,1032.1,456.2 M1028.3,489.8
					c-1.7,0-3.2-1.5-3.2-3.2s1.5-3.2,3.2-3.2s3.2,1.5,3.2,3.2S1030,489.8,1028.3,489.8"/>
			</g>
		</g>
		<g>
			<path class="st20" d="M1112.3,274h-0.6c-0.5,0-0.7-0.2-0.8-0.7l-1.3-6.2h-7.3l-1.3,6.2c-0.1,0.5-0.4,0.7-0.8,0.7h-0.5
				c-0.5,0-0.8-0.3-0.7-0.9l5.7-25.4c0.1-0.5,0.4-0.7,0.8-0.7h0.9c0.5,0,0.8,0.2,0.8,0.7l5.8,25.4
				C1113.1,273.7,1112.8,274,1112.3,274z M1109.1,265.2l-3.2-14.9l-3.2,14.9H1109.1z"/>
			<path class="st20" d="M1118.4,274h-0.4c-0.5,0-0.8-0.3-0.8-0.8v-25.4c0-0.5,0.3-0.8,0.8-0.8h0.7c0.5,0,0.7,0.2,0.9,0.6l8.6,21.4
				v-21.2c0-0.5,0.3-0.8,0.8-0.8h0.4c0.5,0,0.8,0.3,0.8,0.8v25.4c0,0.5-0.3,0.8-0.8,0.8h-0.6c-0.5,0-0.8-0.2-0.9-0.6l-8.7-21.6v21.4
				C1119.2,273.7,1118.9,274,1118.4,274z"/>
			<path class="st20" d="M1137.2,274h-0.5c-0.5,0-0.8-0.3-0.8-0.8v-25.4c0-0.5,0.3-0.8,0.8-0.8h0.5c0.5,0,0.8,0.3,0.8,0.8v25.4
				C1138,273.7,1137.7,274,1137.2,274z"/>
			<path class="st20" d="M1153.5,268.8c-0.2,0.4-0.4,0.7-0.8,0.7s-0.7-0.2-0.8-0.7l-6.1-16.5v20.9c0,0.5-0.3,0.8-0.8,0.8h-0.4
				c-0.5,0-0.8-0.3-0.8-0.8v-25.4c0-0.5,0.3-0.8,0.8-0.8h0.6c0.4,0,0.8,0.2,0.9,0.7l6.5,18l6.6-18c0.2-0.4,0.5-0.7,0.9-0.7h0.7
				c0.5,0,0.8,0.3,0.8,0.8v25.4c0,0.5-0.3,0.8-0.8,0.8h-0.5c-0.5,0-0.8-0.3-0.8-0.8v-20.9L1153.5,268.8z"/>
			<path class="st20" d="M1179.3,274h-0.6c-0.5,0-0.7-0.2-0.8-0.7l-1.3-6.2h-7.3l-1.3,6.2c-0.1,0.5-0.4,0.7-0.8,0.7h-0.5
				c-0.5,0-0.8-0.3-0.7-0.9l5.7-25.4c0.1-0.5,0.4-0.7,0.8-0.7h0.9c0.5,0,0.8,0.2,0.8,0.7l5.8,25.4
				C1180.1,273.7,1179.8,274,1179.3,274z M1176.1,265.2l-3.2-14.9l-3.2,14.9H1176.1z"/>
			<path class="st20" d="M1194.3,272.9v0.4c0,0.5-0.3,0.8-0.8,0.8h-8.5c-0.5,0-0.8-0.3-0.8-0.8v-25.4c0-0.5,0.3-0.8,0.8-0.8h0.5
				c0.5,0,0.8,0.3,0.8,0.8v24.3h7.2C1194,272.1,1194.3,272.4,1194.3,272.9z"/>
			<path class="st20" d="M1225.2,247.9l-4.3,25.4c-0.1,0.5-0.4,0.7-0.8,0.7h-0.6c-0.5,0-0.8-0.2-0.9-0.7l-4.5-22.2l-4.6,22.2
				c-0.1,0.5-0.4,0.7-0.8,0.7h-0.7c-0.5,0-0.8-0.3-0.8-0.7l-4.3-25.4c-0.1-0.5,0.2-0.8,0.7-0.8h0.5c0.5,0,0.8,0.3,0.8,0.7l3.5,22
				l4.5-22c0.1-0.5,0.4-0.7,0.9-0.7h0.6c0.5,0,0.8,0.2,0.9,0.7l4.4,22l3.6-22c0.1-0.5,0.3-0.7,0.8-0.7h0.4
				C1225,247.1,1225.2,247.4,1225.2,247.9z"/>
			<path class="st20" d="M1239.3,274h-9.1c-0.5,0-0.8-0.3-0.8-0.8v-25.4c0-0.5,0.3-0.8,0.8-0.8h9c0.5,0,0.8,0.3,0.8,0.8v0.3
				c0,0.5-0.3,0.8-0.8,0.8h-7.7v10.4h6.5c0.5,0,0.8,0.3,0.8,0.8v0.3c0,0.5-0.3,0.8-0.8,0.8h-6.5V272h7.8c0.5,0,0.8,0.3,0.8,0.8v0.3
				C1240.1,273.7,1239.8,274,1239.3,274z"/>
			<path class="st20" d="M1254.6,272.9v0.4c0,0.5-0.3,0.8-0.8,0.8h-8.5c-0.5,0-0.8-0.3-0.8-0.8v-25.4c0-0.5,0.3-0.8,0.8-0.8h0.5
				c0.5,0,0.8,0.3,0.8,0.8v24.3h7.2C1254.3,272.1,1254.6,272.4,1254.6,272.9z"/>
			<path class="st20" d="M1258.4,273.2v-25.4c0-0.5,0.3-0.8,0.8-0.8h8.8c0.5,0,0.8,0.3,0.8,0.8v0.3c0,0.5-0.3,0.8-0.8,0.8h-7.5v10.6
				h6.4c0.5,0,0.8,0.3,0.8,0.8v0.3c0,0.5-0.3,0.8-0.8,0.8h-6.4v11.7c0,0.5-0.3,0.8-0.8,0.8h-0.5
				C1258.7,274,1258.4,273.7,1258.4,273.2z"/>
			<path class="st20" d="M1283.5,274h-0.6c-0.5,0-0.7-0.2-0.8-0.7l-1.3-6.2h-7.3l-1.3,6.2c-0.1,0.5-0.4,0.7-0.8,0.7h-0.5
				c-0.5,0-0.8-0.3-0.7-0.9l5.7-25.4c0.1-0.5,0.4-0.7,0.8-0.7h0.9c0.5,0,0.8,0.2,0.8,0.7l5.8,25.4
				C1284.3,273.7,1284.1,274,1283.5,274z M1280.3,265.2l-3.2-14.9l-3.2,14.9H1280.3z"/>
			<path class="st20" d="M1300.9,274h-0.6c-0.4,0-0.7-0.2-0.9-0.7l-4.2-11h-0.4h-4.3v10.9c0,0.5-0.3,0.8-0.8,0.8h-0.5
				c-0.5,0-0.8-0.3-0.8-0.8v-25.4c0-0.5,0.3-0.8,0.8-0.8h5.5c4.1,0,6.2,1.9,6.2,5.7v3.9c0,2.9-1.2,4.7-3.7,5.4l4.3,11
				C1301.7,273.6,1301.5,274,1300.9,274z M1298.8,256v-2.6c0-3.2-1.2-4.5-4.2-4.5h-4.1v11.5h4.1
				C1297.6,260.5,1298.8,259.2,1298.8,256z"/>
			<path class="st20" d="M1316.2,274h-9.1c-0.5,0-0.8-0.3-0.8-0.8v-25.4c0-0.5,0.3-0.8,0.8-0.8h9c0.5,0,0.8,0.3,0.8,0.8v0.3
				c0,0.5-0.3,0.8-0.8,0.8h-7.7v10.4h6.5c0.5,0,0.8,0.3,0.8,0.8v0.3c0,0.5-0.3,0.8-0.8,0.8h-6.5V272h7.8c0.5,0,0.8,0.3,0.8,0.8v0.3
				C1317,273.7,1316.7,274,1316.2,274z"/>
			<path class="st20" d="M1323,257.5v1.2c0,0.5-0.3,0.8-0.8,0.8h-0.7c-0.5,0-0.8-0.3-0.8-0.8v-1.2c0-0.5,0.3-0.8,0.8-0.8h0.7
				C1322.7,256.7,1323,257,1323,257.5z M1323,272v1.2c0,0.5-0.3,0.8-0.8,0.8h-0.7c-0.5,0-0.8-0.3-0.8-0.8V272c0-0.5,0.3-0.8,0.8-0.8
				h0.7C1322.7,271.2,1323,271.5,1323,272z"/>
		</g>
		<g>
			<path class="st20" d="M1113.5,294h-0.6c-0.5,0-0.9-0.4-0.9-1v-3.1c0-3.5-1.3-5-4.7-5s-4.7,1.5-4.7,5v2.2c0,2.4,0.8,3,3.2,4.3
				l4.9,2.7c2.2,1.2,3.8,3,3.8,5.4v4.1c0,4.5-2.3,6.6-7.1,6.6h-0.1c-4.8,0-7.1-2-7.1-6.6v-4.2c0-0.6,0.4-1,1-1h0.6
				c0.5,0,0.9,0.4,0.9,1v3.5c0,3.5,1.3,5.1,4.7,5.1c3.5,0,4.7-1.7,4.7-5.1v-2.5c0-2.4-1-3.2-3.4-4.5l-4.8-2.6
				c-2.6-1.5-3.8-2.7-3.8-5.3v-3.7c0-4.4,2.7-6.6,7.1-6.6h0.1c4.4,0,7.1,2.2,7.1,6.6v3.9C1114.4,293.6,1114,294,1113.5,294z"/>
			<path class="st20" d="M1134.3,314.8h-0.7c-0.5,0-0.9-0.2-1-0.8l-1.6-7.4h-8.6l-1.6,7.4c-0.1,0.6-0.5,0.8-1,0.8h-0.5
				c-0.6,0-0.9-0.4-0.8-1l6.7-30c0.1-0.6,0.5-0.8,1-0.8h1.1c0.5,0,0.9,0.2,1,0.8l6.8,30C1135.2,314.5,1134.9,314.8,1134.3,314.8z
				 M1130.5,304.4l-3.8-17.6l-3.8,17.6H1130.5z"/>
			<path class="st20" d="M1140.1,313.9v-30c0-0.6,0.4-0.9,1-0.9h10.4c0.6,0,1,0.3,1,0.9v0.4c0,0.6-0.4,1-1,1h-8.9v12.5h7.5
				c0.6,0,1,0.4,1,1v0.4c0,0.6-0.4,1-1,1h-7.5v13.9c0,0.6-0.3,0.9-0.9,0.9h-0.6C1140.5,314.8,1140.1,314.5,1140.1,313.9z"/>
			<path class="st20" d="M1168.6,314.8h-10.7c-0.6,0-1-0.3-1-0.9v-30c0-0.6,0.4-0.9,1-0.9h10.6c0.6,0,1,0.3,1,0.9v0.4
				c0,0.6-0.4,1-1,1h-9.1v12.3h7.7c0.6,0,1,0.4,1,1v0.4c0,0.6-0.4,1-1,1h-7.7v12.7h9.2c0.6,0,1,0.4,1,1v0.4
				C1169.5,314.5,1169.2,314.8,1168.6,314.8z"/>
			<path class="st20" d="M1189.4,300v8.5c0,4.5-2.5,6.7-7.3,6.7h-0.4c-4.8,0-7.3-2.1-7.3-6.7v-19.1c0-4.4,2.5-6.7,7.3-6.7h0.4
				c4.8,0,7.3,2.4,7.3,6.7v3.2c0,0.6-0.4,1-1,1h-0.6c-0.6,0-0.9-0.4-0.9-1v-2.4c0-3.8-1.4-5.3-5-5.3s-5,1.5-5,5.3v17.5
				c0,3.8,1.4,5.3,5,5.3s5-1.5,5-5.3v-6.4h-4.3c-0.6,0-0.9-0.3-0.9-0.9V300c0-0.5,0.3-0.9,0.9-0.9h5.8
				C1189.1,299.1,1189.4,299.4,1189.4,300z"/>
			<path class="st20" d="M1210.3,283.9v24.6c0,4.5-2.4,6.7-7.2,6.7h-0.2c-4.8,0-7.2-2.1-7.2-6.7v-24.6c0-0.6,0.4-0.9,1-0.9h0.6
				c0.6,0,0.9,0.3,0.9,0.9v23.7c0,3.8,1.2,5.3,4.8,5.3c3.6,0,4.8-1.5,4.8-5.3v-23.7c0-0.6,0.3-0.9,0.9-0.9h0.6
				C1209.9,283,1210.3,283.3,1210.3,283.9z"/>
			<path class="st20" d="M1230.7,314.8h-0.7c-0.5,0-0.9-0.2-1-0.8l-1.6-7.4h-8.6l-1.6,7.4c-0.1,0.6-0.5,0.8-1,0.8h-0.5
				c-0.6,0-0.9-0.4-0.8-1l6.7-30c0.1-0.6,0.5-0.8,1-0.8h1.1c0.5,0,0.9,0.2,1,0.8l6.8,30C1231.7,314.5,1231.4,314.8,1230.7,314.8z
				 M1227,304.4l-3.8-17.6l-3.8,17.6H1227z"/>
			<path class="st20" d="M1251.2,314.8h-0.7c-0.5,0-0.9-0.2-1-0.8l-5-13h-0.5h-5.1v12.8c0,0.6-0.3,0.9-0.9,0.9h-0.6
				c-0.6,0-1-0.3-1-0.9v-30c0-0.6,0.4-0.9,1-0.9h6.6c4.8,0,7.3,2.3,7.3,6.7v4.6c0,3.5-1.5,5.6-4.4,6.4l5,13
				C1252.2,314.4,1251.9,314.8,1251.2,314.8z M1248.8,293.6v-3c0-3.8-1.4-5.3-5-5.3h-4.9v13.6h4.9
				C1247.4,298.9,1248.8,297.3,1248.8,293.6z"/>
			<path class="st20" d="M1272.4,289.7v18.4c0,4.5-2.5,6.7-7.3,6.7h-6.5c-0.6,0-1-0.3-1-0.9v-30c0-0.6,0.4-0.9,1-0.9h6.5
				C1269.9,283,1272.4,285.3,1272.4,289.7z M1264.9,285.3h-4.8v27.3h4.8c3.6,0,5-1.5,5-5.3v-16.7
				C1269.9,286.8,1268.5,285.3,1264.9,285.3z"/>
			<path class="st20" d="M1280.6,314.8h-0.6c-0.6,0-1-0.3-1-0.9v-30c0-0.6,0.4-0.9,1-0.9h0.6c0.6,0,0.9,0.3,0.9,0.9v30
				C1281.5,314.5,1281.2,314.8,1280.6,314.8z"/>
			<path class="st20" d="M1289.9,314.8h-0.5c-0.6,0-1-0.3-1-0.9v-30c0-0.6,0.4-0.9,1-0.9h0.8c0.5,0,0.9,0.2,1,0.7l10.1,25.3v-25.1
				c0-0.6,0.3-0.9,0.9-0.9h0.5c0.6,0,1,0.3,1,0.9v30c0,0.6-0.4,0.9-1,0.9h-0.7c-0.5,0-0.9-0.2-1-0.7l-10.3-25.5v25.3
				C1290.8,314.5,1290.5,314.8,1289.9,314.8z"/>
			<path class="st20" d="M1325.2,300v8.5c0,4.5-2.5,6.7-7.3,6.7h-0.4c-4.8,0-7.3-2.1-7.3-6.7v-19.1c0-4.4,2.5-6.7,7.3-6.7h0.4
				c4.8,0,7.3,2.4,7.3,6.7v3.2c0,0.6-0.4,1-1,1h-0.6c-0.6,0-0.9-0.4-0.9-1v-2.4c0-3.8-1.4-5.3-5-5.3s-5,1.5-5,5.3v17.5
				c0,3.8,1.4,5.3,5,5.3s5-1.5,5-5.3v-6.4h-4.3c-0.6,0-0.9-0.3-0.9-0.9V300c0-0.5,0.3-0.9,0.9-0.9h5.8
				C1324.8,299.1,1325.2,299.4,1325.2,300z"/>
		</g>
		<g>
			<path class="st20" d="M1126.1,328v1.4c0,1.8-0.9,2.7-2.7,2.7h-7.3v47.7c0,1.7-1,2.7-2.7,2.7h-2.3c-1.7,0-2.7-1-2.7-2.7v-47.7
				h-7.3c-1.7,0-2.7-0.9-2.7-2.7V328c0-1.7,1-2.7,2.7-2.7h22.2C1125.2,325.3,1126.1,326.3,1126.1,328z"/>
			<path class="st20" d="M1135.3,325.3h2.3c1.7,0,2.7,1,2.7,2.7v22h13.5v-22c0-1.7,1-2.7,2.7-2.7h2.3c1.8,0,2.7,1,2.7,2.7v51.8
				c0,1.7-0.9,2.7-2.7,2.7h-2.3c-1.7,0-2.7-1-2.7-2.7v-22.9h-13.5v22.9c0,1.7-1,2.7-2.7,2.7h-2.3c-1.8,0-2.7-1-2.7-2.7V328
				C1132.6,326.3,1133.5,325.3,1135.3,325.3z"/>
			<path class="st20" d="M1193.4,382.5h-18.9c-1.8,0-2.7-1-2.7-2.7V328c0-1.7,0.9-2.7,2.7-2.7h18.7c1.8,0,2.7,1,2.7,2.7v1.4
				c0,1.8-0.9,2.7-2.7,2.7h-13.7v18h11.2c1.8,0,2.7,1,2.7,2.7v1.5c0,1.7-0.9,2.7-2.7,2.7h-11.2v18.8h14c1.8,0,2.7,0.9,2.7,2.7v1.4
				C1196.1,381.5,1195.2,382.5,1193.4,382.5z"/>
			<path class="st20" d="M1218.4,379.8V328c0-1.7,0.9-2.7,2.7-2.7h18.4c1.8,0,2.7,1,2.7,2.7v1.4c0,1.8-0.9,2.7-2.7,2.7H1226v18.4
				h10.9c1.8,0,2.7,1,2.7,2.7v1.5c0,1.7-0.9,2.7-2.7,2.7H1226v22.5c0,1.7-1,2.7-2.7,2.7h-2.3
				C1219.3,382.5,1218.4,381.5,1218.4,379.8z"/>
			<path class="st20" d="M1254.3,382.5h-2.3c-1.8,0-2.7-1-2.7-2.7V328c0-1.7,0.9-2.7,2.7-2.7h2.3c1.7,0,2.7,1,2.7,2.7v51.8
				C1257,381.5,1256,382.5,1254.3,382.5z"/>
			<path class="st20" d="M1294.7,328.3l-10.3,51.8c-0.2,1.6-1.3,2.4-2.9,2.4h-3.4c-1.6,0-2.7-0.8-2.9-2.4l-10.3-51.8
				c-0.3-1.9,0.6-2.9,2.4-2.9h2.4c1.6,0,2.7,0.8,2.9,2.4l7.4,42.4l7.5-42.4c0.2-1.6,1.3-2.4,2.9-2.4h2
				C1294.1,325.3,1295.1,326.4,1294.7,328.3z"/>
			<path class="st20" d="M1323.8,382.5h-18.9c-1.8,0-2.7-1-2.7-2.7V328c0-1.7,0.9-2.7,2.7-2.7h18.7c1.8,0,2.7,1,2.7,2.7v1.4
				c0,1.8-0.9,2.7-2.7,2.7h-13.7v18h11.2c1.8,0,2.7,1,2.7,2.7v1.5c0,1.7-0.9,2.7-2.7,2.7h-11.2v18.8h14c1.8,0,2.7,0.9,2.7,2.7v1.4
				C1326.5,381.5,1325.6,382.5,1323.8,382.5z"/>
		</g>
		<g>
			<path class="st20" d="M1132,460.6h-2.7c-1.8,0-2.9-0.9-3.3-2.7l-2.2-12.4H1110l-2.2,12.4c-0.3,1.8-1.5,2.7-3.2,2.7h-2.3
				c-2,0-3-1.2-2.7-3.3l11.5-58.1c0.4-1.8,1.6-2.7,3.3-2.7h5.1c1.7,0,2.9,0.9,3.3,2.7l11.7,58.1C1135.1,459.4,1134,460.6,1132,460.6
				z M1122.6,438.3l-5.6-31l-5.6,31H1122.6z"/>
			<path class="st20" d="M1147.8,460.6h-1.9c-2,0-3-1.1-3-3v-58.1c0-1.9,1-3,3-3h3c1.7,0,2.9,0.8,3.5,2.5l15.2,41.7v-41.1
				c0-1.9,1.1-3,3-3h1.9c2,0,3,1.1,3,3v58.1c0,1.9-1,3-3,3h-2.7c-1.7,0-2.8-0.8-3.4-2.5l-15.7-43.1v42.6
				C1150.8,459.5,1149.7,460.6,1147.8,460.6z"/>
			<path class="st20" d="M1192.9,460.6h-2.6c-2,0-3-1.1-3-3v-58.1c0-1.9,1-3,3-3h2.6c1.9,0,3,1.1,3,3v58.1
				C1195.9,459.5,1194.8,460.6,1192.9,460.6z"/>
			<path class="st20" d="M1232.9,448.3c-0.5,1.7-1.6,2.5-3.2,2.5s-2.7-0.7-3.3-2.5l-10.6-31.2v40.6c0,1.9-1.1,3-3.1,3h-1.9
				c-2,0-3-1.1-3-3v-58.1c0-1.9,1-3,3-3h2.6c1.7,0,2.9,0.8,3.5,2.5l12.8,37.4l13-37.4c0.5-1.6,1.6-2.5,3.4-2.5h2.9c2,0,3,1.1,3,3
				v58.1c0,1.9-1,3-3,3h-2.3c-1.9,0-3-1.1-3-3v-40.6L1232.9,448.3z"/>
			<path class="st20" d="M1292.5,460.6h-2.7c-1.8,0-2.9-0.9-3.3-2.7l-2.2-12.4h-13.8l-2.2,12.4c-0.3,1.8-1.5,2.7-3.2,2.7h-2.3
				c-2,0-3-1.2-2.7-3.3l11.5-58.1c0.4-1.8,1.6-2.7,3.3-2.7h5.1c1.7,0,2.9,0.9,3.3,2.7l11.7,58.1
				C1295.6,459.4,1294.5,460.6,1292.5,460.6z M1283.1,438.3l-5.6-31l-5.6,31H1283.1z"/>
			<path class="st20" d="M1329.2,455.9v1.7c0,1.9-1,3-3,3h-19.9c-2,0-3-1.1-3-3v-58.1c0-1.9,1-3,3-3h2.6c1.9,0,3,1.1,3,3v53.3h14.3
				C1328.2,452.9,1329.2,454,1329.2,455.9z"/>
		</g>
		<g>
			<path class="st20" d="M1101.5,518.5V476c0-1.4,0.7-2.2,2.2-2.2h15.1c1.5,0,2.2,0.8,2.2,2.2v1.1c0,1.5-0.7,2.2-2.2,2.2h-11v15.1
				h8.9c1.5,0,2.2,0.8,2.2,2.2v1.2c0,1.4-0.7,2.2-2.2,2.2h-8.9v18.4c0,1.4-0.8,2.2-2.2,2.2h-1.9
				C1102.3,520.7,1101.5,519.9,1101.5,518.5z"/>
			<path class="st20" d="M1147.7,520.7h-1.9c-1.3,0-2.1-0.5-2.5-1.8l-5.9-17.4h-0.1h-5.4v17c0,1.4-0.8,2.2-2.2,2.2h-1.9
				c-1.5,0-2.2-0.8-2.2-2.2V476c0-1.4,0.7-2.2,2.2-2.2h9.5c7.1,0,11.4,3,11.4,9.9v7.8c0,4.7-2,7.6-5.5,9l6.3,17.6
				C1150,519.6,1149.3,520.7,1147.7,520.7z M1131.9,496h5.2c3.5,0,5.4-1.4,5.4-5.6v-5.5c0-4.2-1.9-5.6-5.4-5.6h-5.2V496z"/>
			<path class="st20" d="M1173.5,520.7H1158c-1.5,0-2.2-0.8-2.2-2.2V476c0-1.4,0.7-2.2,2.2-2.2h15.4c1.5,0,2.2,0.8,2.2,2.2v1.1
				c0,1.5-0.7,2.2-2.2,2.2h-11.3v14.8h9.2c1.5,0,2.2,0.8,2.2,2.2v1.2c0,1.4-0.7,2.2-2.2,2.2h-9.2v15.4h11.5c1.5,0,2.2,0.7,2.2,2.2
				v1.1C1175.8,519.9,1175,520.7,1173.5,520.7z"/>
			<path class="st20" d="M1199,520.7h-15.6c-1.5,0-2.2-0.8-2.2-2.2V476c0-1.4,0.7-2.2,2.2-2.2h15.4c1.5,0,2.2,0.8,2.2,2.2v1.1
				c0,1.5-0.7,2.2-2.2,2.2h-11.3v14.8h9.2c1.5,0,2.2,0.8,2.2,2.2v1.2c0,1.4-0.7,2.2-2.2,2.2h-9.2v15.4h11.5c1.5,0,2.2,0.7,2.2,2.2
				v1.1C1201.2,519.9,1200.5,520.7,1199,520.7z"/>
			<path class="st20" d="M1229.8,483.7v27.1c0,6.9-4.3,9.9-11.4,9.9h-9.4c-1.5,0-2.2-0.8-2.2-2.2V476c0-1.4,0.7-2.2,2.2-2.2h9.4
				C1225.5,473.8,1229.8,476.8,1229.8,483.7z M1218.1,479.3h-5v35.8h5c3.5,0,5.4-1.4,5.4-5.6v-24.7
				C1223.4,480.7,1221.6,479.3,1218.1,479.3z"/>
			<path class="st20" d="M1248.1,473.2h0.5c7.1,0,11.4,3,11.4,9.9v28.2c0,6.9-4.3,9.9-11.4,9.9h-0.5c-7.1,0-11.4-3-11.4-9.9v-28.2
				C1236.7,476.2,1241,473.2,1248.1,473.2z M1248.3,515.7c3.5,0,5.4-1.4,5.4-5.6v-25.8c0-4.2-1.9-5.6-5.4-5.6s-5.4,1.4-5.4,5.6v25.8
				C1243,514.3,1244.8,515.7,1248.3,515.7z"/>
			<path class="st20" d="M1285.6,511.7c-0.3,1.3-1.1,1.8-2.3,1.8s-2-0.5-2.4-1.8l-7.8-22.9v29.7c0,1.4-0.8,2.2-2.3,2.2h-1.4
				c-1.5,0-2.2-0.8-2.2-2.2V476c0-1.4,0.7-2.2,2.2-2.2h1.9c1.3,0,2.1,0.6,2.5,1.8l9.4,27.4l9.5-27.4c0.4-1.2,1.2-1.8,2.5-1.8h2.1
				c1.5,0,2.2,0.8,2.2,2.2v42.5c0,1.4-0.7,2.2-2.2,2.2h-1.7c-1.4,0-2.2-0.8-2.2-2.2v-29.7L1285.6,511.7z"/>
			<path class="st20" d="M1326.2,490.3h-1.7c-1.5,0-2.2-0.8-2.2-2.2V484c0-3.8-1.8-5.2-5-5.2s-5,1.5-5,5.2v3.2c0,2.8,1,3.8,3.7,5.4
				l6.1,3.4c4,2.3,6.6,4.6,6.6,9.1v6.5c0,7-4.1,9.8-11.2,9.8h-0.1c-7.1,0-11.2-2.7-11.2-9.8v-5.8c0-1.4,0.7-2.2,2.2-2.2h1.7
				c1.5,0,2.2,0.8,2.2,2.2v4.7c0,3.7,1.8,5.4,5.1,5.4c3.3,0,5.1-1.7,5.1-5.4v-3.7c0-2.8-1-4-3.8-5.6l-6-3.4c-4.3-2.5-6.6-4.5-6.6-9
				v-5.9c0-6.8,4.7-9.7,11.1-9.7h0.1c6.4,0,11.1,2.9,11.1,9.7v5.2C1328.4,489.5,1327.7,490.3,1326.2,490.3z"/>
		</g>
	</g>
	<g>
		<g>
			<g>
				<defs>
					<rect id="SVGID_29_" x="893.4" y="626.2" width="178.5" height="306.8"/>
				</defs>
				<clipPath id="SVGID_30_">
					<use xlink:href="#SVGID_29_"  style="overflow:visible;"/>
				</clipPath>
				<path class="st21" d="M959.7,719.5L959.7,719.5c0.3,0,0.7,0,1,0l0,0c0.2,0,0.5,0,0.9,0l0.1-18.3c-4.6,0.1-9.2,0.2-13.8,0
					c-3.8-0.2-7.8-0.8-11.2-2.6c-4.5-2.3-7.3-6.7-8.1-11.7c-0.2-1.2-0.3-2.4-0.2-3.6c0.1-1,1-1.7,2-1.3c0.8,0.4,0.8,1.1,0.8,1.9
					c-0.1,4.1,1.5,8.2,4.7,10.8c2.7,2.2,6.2,3,9.6,3.4c3.7,0.4,36.8,0.2,46.5,0c0.7,0,1-0.9,0.4-1.3c-2.6-1.7-5-3.9-6.6-6.5
					c-0.9-1.5-1.7-3.3-1.9-5c-0.2-1.8,2.4-2.2,2.7-0.5c0.1,0.3,0.1,0.7,0.2,1c0.5,1.9,1.6,3.7,2.9,5.2c0.4,0.4,0.7,0.8,1.1,1.2
					c4.3,4,10.4,5.5,16.1,4.1c5.1-1.2,10-3.2,14.4-6.2c1.7-1.2,3.4-2.5,4.9-3.9c-6-1.9-11.4-5.3-15.3-10.2
					c-3.5-4.4-5.8-9.7-6.8-15.3c-0.5-2.5-0.8-5.1-0.7-7.7h-54.9c-0.7-6-2.1-12.1-4.9-17.5c-1.6-3-3.6-5.8-6.4-7.9
					c-0.5-0.4-1-0.7-1.5-1c-0.3-0.2-0.6-0.4-0.9-0.4c-0.7-0.1-1.4,0.5-1.4,1.2l-0.2,23.6c0,2.2-3.4,2.5-3.8,0.3l-4.4-23.2
					c-0.1-0.5-0.4-0.8-0.9-1c-0.7-0.2-1.2,0.3-1.7,0.8c-1.2,1.3-2.2,2.6-3,4.1c-1.9,3.1-3.1,6.6-3.9,10.1
					c-1.6,7.2-1.6,14.8-0.7,22.1c0.4,3.4,0.9,6.8,1.7,10.1c-1.1,8.8-2,17.6-2.7,26.4c-0.7,8.3-1.2,16.6-1.5,24.9
					c-0.2,4.7-0.2,9.4-0.2,14.2c1.1-1.1,2.4-2.2,3.7-3.3C928.8,725.4,944,719.5,959.7,719.5 M1001.6,673.1c2.1,0,2.1,3.2,0,3.2
					C999.6,676.3,999.6,673.1,1001.6,673.1 M997.8,665.9c2.1,0,2.1,3.2,0,3.2C995.7,669.1,995.7,665.9,997.8,665.9 M993.3,673.1
					c2.1,0,2.1,3.2,0,3.2S991.2,673.1,993.3,673.1 M967.4,663.8c3.5,0,5.2,4.5,2.5,6.8s-6.9-0.1-6.3-3.6
					C964,665.1,965.6,663.8,967.4,663.8"/>
			</g>
			<g>
				<defs>
					<rect id="SVGID_31_" x="893.4" y="626.2" width="178.5" height="306.8"/>
				</defs>
				<clipPath id="SVGID_32_">
					<use xlink:href="#SVGID_31_"  style="overflow:visible;"/>
				</clipPath>
				<path class="st22" d="M1048,879.4c-0.3,0-0.6,0.1-0.9,0.3c-2.7,1.7-2.7,5.2-3.8,7.8c-1.1,2.9-3.1,5.5-5.6,7.3
					c-1.8,1.6-2.5,3.9-1.7,6.1c0.9,2.6,3.4,3.9,5.9,4.6c2.5,0.8,5.1,0.9,7.6,0.6c1.3-0.2,2.5-0.5,3.7-0.9c0.5-0.2,1.3-0.3,1.7-0.7
					c0.4-0.4,0.3-1-0.1-1.4c-1.7-1.4-4.6-1.5-6.6-1c-0.6,0-3.5,0.1-2.6-1.2c3-1,6.3-1.1,9.3-0.2c1.5,0.5,2.9,1.1,4.2,2
					c0.6,0.4,1.2,0.8,1.8,1.3c0.5,0.4,1,1,1.5,1.4c0.4,0.3,0.8,0.3,1.2,0c0.5-0.4,0.5-1.1,0.5-1.7c0-1.9-0.2-3.8-0.6-5.6
					c-0.8-3.6-2.5-7-4.7-10c-2.1-2.9-4.6-5.6-7.5-7.6C1050.5,879.7,1049.2,879.2,1048,879.4 M1049.7,887c1.4-1.4,5,2.2,3.6,3.6
					C1051.9,892,1048.3,888.4,1049.7,887"/>
			</g>
			<g>
				<defs>
					<rect id="SVGID_33_" x="893.4" y="626.2" width="178.5" height="306.8"/>
				</defs>
				<clipPath id="SVGID_34_">
					<use xlink:href="#SVGID_33_"  style="overflow:visible;"/>
				</clipPath>
				<path class="st23" d="M946.6,776.2c4.1,0,8.9-0.7,11.9-3.9c1.8-1.9,2.5-4.4,2.5-7c0-1.7-0.4-3.4-0.7-5.1c-1-7-0.6-14.2,1.6-20.9
					c0.8-2.5,1.8-5.2,3.4-7.4c0.7-1.1,1.5-2,2-3.2c0.3-1,0.5-2,0.4-3c-0.2-1.9-2-2.8-3.7-3.2c-2.5-0.6-5.2-0.4-7.7-0.3
					c-13.1,0.8-25.5,6-35.8,14c-4.9,3.9-9.4,8.3-13.4,13.2c-0.9,1.1-1.8,2.3-2.7,3.5c-0.7,1-1.5,2-1.9,3.2c-0.9,2.2-0.7,4.6,0.5,6.7
					c0.2,0.3,0.4,0.7,0.7,1c-1.3,0.2-2.5,0.9-2.9,2.1c-0.5,1.2-0.2,2.7,0.7,3.6c1,1.1,2.7,1.6,4.1,2.1c3.6,1.2,7.4,1.9,11.1,2.4
					c7.9,1.1,16,1.7,24,2C942.6,776.1,944.6,776.2,946.6,776.2 M913,758.1c-0.7,1.9-3.7,0.8-3-1.1C910.7,755,913.7,756.2,913,758.1
					 M939.5,756.2c-5.2,0-9.2-4.7-8.6-9.8c-1,0.1-2,0.2-2.8-0.6c-0.9-0.9-0.8-2-0.3-3.1c0.9-1.9,2-3.6,3.5-5.1c2-2,4.6-3.3,7.4-3.7
					c3.1-0.4,6.3,0.4,8.9,2.2c2.7,1.9,4.3,4.8,4.7,8c0.2,1.7,0.1,3.4-0.2,5.1c-0.2,1-0.4,1.9-1.4,2.4c-1.2,0.7-2.3,0.1-3.3-0.7
					C946,754.2,942.9,756.2,939.5,756.2"/>
			</g>
			<g>
				<defs>
					<rect id="SVGID_35_" x="893.4" y="626.2" width="178.5" height="306.8"/>
				</defs>
				<clipPath id="SVGID_36_">
					<use xlink:href="#SVGID_35_"  style="overflow:visible;"/>
				</clipPath>
				<path class="st24" d="M948.1,749.3c0.4,0.3,1.2,1.2,1.8,0.7c0.4-0.3,0.4-1.3,0.5-1.7c0.3-1.7,0.3-3.6-0.2-5.3
					c-0.9-3.8-3.9-6.4-7.6-7.1c-9.3-1.7-13.2,7.5-13.3,8c-0.1,0.6,0.3,0.8,0.6,0.8c0.6,0,1.2-0.1,1.8-0.1c2.7-0.1,5.3,0.2,7.9,0.8
					C942.7,746.2,945.6,747.5,948.1,749.3C948.5,749.5,948,749.2,948.1,749.3"/>
			</g>
			<g>
				<defs>
					<rect id="SVGID_37_" x="893.4" y="626.2" width="178.5" height="306.8"/>
				</defs>
				<clipPath id="SVGID_38_">
					<use xlink:href="#SVGID_37_"  style="overflow:visible;"/>
				</clipPath>
				<path class="st25" d="M927,827.8l-6.4-11.7c-0.2-0.4-0.8-0.3-0.9,0.1l-1.6,6.8l3.2,4.6L927,827.8z"/>
			</g>
			<g>
				<defs>
					<rect id="SVGID_39_" x="893.4" y="626.2" width="178.5" height="306.8"/>
				</defs>
				<clipPath id="SVGID_40_">
					<use xlink:href="#SVGID_39_"  style="overflow:visible;"/>
				</clipPath>
				<path class="st26" d="M956.2,879.6c1.6-0.8,3.2-1.5,4.9-2.2l-5.7-4.1l-12.4,4.8c-5.5,1.9-11.4,2.2-16.8-0.1
					c-3.1-1.3-5.9-3.4-8.1-6c-0.6-0.7-1.4-1.8-0.4-2.6c1.1-1,1.9,0.2,2.6,1c1.7,2.1,3.9,3.7,6.3,4.9c4.9,2.3,10.5,2.1,15.5,0.3
					c7.3-2.6,13.7-5.5,18.5-9.1c2.1-1.7,1.7-3.5,1.2-4.6c-1.6,0.8-4.3,1.6-7.3,1.7c-0.9,0-2.1,0-2.2-1.4c0-0.3,0.1-0.7,0.3-0.9
					c0.4-0.5,0.9-0.5,1.4-0.5c0.8,0.1,1.6,0.1,2.4,0c1.1-0.2,5.7-0.4,6.1-4.6c0.1-1.3,0.2-2.6,0.1-3.8c-1.1,0.2-2.2,0.2-3.3,0
					c-1.2-0.2-2.6-0.5-3.6-1.3c-1.9-1.5-1.7-4.2,0.2-5.6l0,0l0,0l1.4-0.9c-7.4-2.7-13.5-10.6-13.5-10.6c-1.4-2.1-2.7-2.6-4.9-2.6
					l-19.1-1l-8.3-11.9c-0.4-0.5-1.2-0.4-1.3,0.3c0,0-7.2,21.1-2.2,29.7c0.5,0.9,1.1,1.7,1.8,2.4s1.6,1.4,0.9,2.4
					c-1.5,2.1-4.2-2-4.9-3.1c-1.2-2.1-1.9-4.5-2.1-6.9c-19.4,31.9,14.2,62.7,23.8,70.5C931.8,892.1,955.2,880.1,956.2,879.6
					C957.8,878.8,955.2,880.1,956.2,879.6 M948.8,855.1c0.4,0.4,0.4,0.9,0,1.3l-4.4,4.4c-0.8,0.8-2.1-0.5-1.3-1.3l4.3-4.4
					C947.9,854.7,948.5,854.7,948.8,855.1C949.2,855.4,948.5,854.7,948.8,855.1 M941.7,842.9c1.8-1.3,4.8,2.8,3,4.1
					C942.8,848.3,939.9,844.2,941.7,842.9 M939.2,851.4h7.2c1.2,0,1.2,1.8,0,1.8h-7.2C938.1,853.2,938.1,851.4,939.2,851.4"/>
			</g>
			<g>
				<defs>
					<rect id="SVGID_41_" x="893.4" y="626.2" width="178.5" height="306.8"/>
				</defs>
				<clipPath id="SVGID_42_">
					<use xlink:href="#SVGID_41_"  style="overflow:visible;"/>
				</clipPath>
				<path class="st27" d="M1028.3,684c0,0,11-11.8,9.7-30.9h-32C1006,653.1,1004.7,677.6,1028.3,684"/>
			</g>
			<g>
				<defs>
					<rect id="SVGID_43_" x="893.4" y="626.2" width="178.5" height="306.8"/>
				</defs>
				<clipPath id="SVGID_44_">
					<use xlink:href="#SVGID_43_"  style="overflow:visible;"/>
				</clipPath>
				<path class="st28" d="M1009.6,788.3c-1.6-4.5-5-17.4,3.8-29c2.6-3.5,6.1-6.3,10.3-8.4c0.6-0.3,1.2-0.6,1.8-0.9
					c-5.9-6.6-13.7-11.4-23.2-14.1c-6.5-1.9-13.4-2.6-20.6-2.1c-4.9,0.3-11,1.1-15.8,3c-2,4.3-4.7,13-2.7,24.8
					c0.3,1.1,1.6,7.1-2,11.9c-2.8,3.8-7.8,5.7-14.7,5.7c-0.3,0-0.6,0-0.9,0c-1.8,0-10.7-0.2-20.3-1.1c4.8,4.4,14.2,10.9,28.3,11.1
					c0.5,0,10.9,0.4,16.3-8.4c0.2-0.2,3.8-6.3,10-7.4c0.7-0.1,1.3-0.2,2-0.2c2.8,0,5.6,1.1,8.3,3.2c0.5,0.3,9.6,7.3,12.8,22.2
					C1005,794.5,1007.2,791.1,1009.6,788.3"/>
			</g>
			<g>
				<defs>
					<rect id="SVGID_45_" x="893.4" y="626.2" width="178.5" height="306.8"/>
				</defs>
				<clipPath id="SVGID_46_">
					<use xlink:href="#SVGID_45_"  style="overflow:visible;"/>
				</clipPath>
				<path class="st29" d="M1011.7,785.8c11.3-13.5,28-16.7,28-16.7c2.2-3.5,3.6-7.5,3.8-11.7c0.2-3.9-0.7-7.9-2.5-11.4
					c-0.3-0.7-0.7-1.4-1.6-1.5c-0.7,0-1.2,0.5-1.7,0.9c-1.1,1-2.4,1.8-3.7,2.6c-2.8,1.8-5.8,3.4-8.7,4.9c-3.8,1.9-7.2,4.5-9.8,7.9
					C1008.4,770.3,1010.2,780.8,1011.7,785.8"/>
			</g>
			<g>
				<defs>
					<rect id="SVGID_47_" x="893.4" y="626.2" width="178.5" height="306.8"/>
				</defs>
				<clipPath id="SVGID_48_">
					<use xlink:href="#SVGID_47_"  style="overflow:visible;"/>
				</clipPath>
				<path class="st30" d="M1004.9,923.5c-0.7-2.3-0.6-4.5-0.2-6.4c-1.7-0.2-3.1-1.4-3.6-3c-0.2-0.8-0.2-1.7-0.4-2.5
					c-0.3-1-0.7-2-1.3-2.9c-1.1-1.7-5.9-5.4-7.8-8.1c-3.4-4.7-5.1-10.4-5.4-16.1c-0.1-1.9-0.1-3.7,0.1-5.6c-7.4-2.1-19.7-1.4-28.9,3
					c0,0-24.3,12.1-27.6,33.4c-0.5,2.8,1.1,5.4,3.8,6.3c3.4,1.1,7.4,0.3,10.7-0.6c-0.5,2.1,0.1,4.5,1.8,5.9c2.6,2.2,6.8,1.9,10,1.5
					c2.2-0.3,4.4-0.8,6.5-1.5c-0.3,2.1,1.1,3.7,3,4.3c3,0.9,6.6,0,9.5-0.8c0.8,1.8,3,2.5,4.7,2.5c2.8,0.1,5.6-1,8-2.3
					c2.6,1.3,5.9,1.1,8.5,0.1c3.5-1.4,6.4-4.1,8.6-7.1C1005,923.6,1005,923.5,1004.9,923.5"/>
			</g>
			<g>
				<defs>
					<rect id="SVGID_49_" x="893.4" y="626.2" width="178.5" height="306.8"/>
				</defs>
				<clipPath id="SVGID_50_">
					<use xlink:href="#SVGID_49_"  style="overflow:visible;"/>
				</clipPath>
				<path class="st31" d="M956.2,848.8c0.5,1.3,2.3,1.5,3.5,1.7c0.8,0.1,1.8,0.2,2.6,0c0.3-1.7-0.2-3.6-0.2-3.6
					c-0.4-1-1.2-2.2-2.4-1.9l-2.9,1.9C956,847.5,956,848.2,956.2,848.8C956.4,849.4,956,848.2,956.2,848.8"/>
			</g>
			<g>
				<defs>
					<rect id="SVGID_51_" x="893.4" y="626.2" width="178.5" height="306.8"/>
				</defs>
				<clipPath id="SVGID_52_">
					<use xlink:href="#SVGID_51_"  style="overflow:visible;"/>
				</clipPath>
				<path class="st32" d="M934.1,747.5c0,3,2.4,5.3,5.3,5.3c2.4,0,4.4-1.5,5.1-3.6c-3.7-2-7.4-2.7-10.3-2.9
					C934.2,746.8,934.1,747.2,934.1,747.5"/>
			</g>
			<g>
				<defs>
					<rect id="SVGID_53_" x="893.4" y="626.2" width="178.5" height="306.8"/>
				</defs>
				<clipPath id="SVGID_54_">
					<use xlink:href="#SVGID_53_"  style="overflow:visible;"/>
				</clipPath>
				<path class="st33" d="M1039.5,772c0,0-39.2,8.8-40.5,54.5c0,0-0.2,12,3.3,23.9c5.8-1.1,11.9-1.4,17.8-0.2
					c0.5-0.9,1.3-1.5,2.2-1.7c1.1-0.3,2,0,3,0.4c2,0.6,4,1.4,6,2.3c3.2,1.5,6.3,3.3,9.1,5.6c3.4-3,6.4-6.3,9-10c1.8-2.5,3.5-5.2,5-8
					c0.4-0.7,0.8-1.5,1.2-2.2c0.4-0.7,0.7-1.4,0.5-2.2c-0.3-1.4-1.4-1.8-2.5-2.2c-4.3-1.6-8.7-4-11.8-7.5c-0.9-1-1.6-2-2.2-3.2
					c-0.2-0.3-0.5-0.8-0.1-1.1s0.8,0.1,1.1,0.3c2.1,1.6,4.3,3.1,6.7,4.3c6.4,3.3,13.7,4.3,20.8,3.6l4-18.8
					C1071.9,810,1046.6,804.1,1039.5,772 M1038,806c-1.7,0-3.2-1.4-3.2-3.2c0-1.7,1.4-3.2,3.2-3.2c1.7,0,3.2,1.4,3.2,3.2
					C1041.2,804.5,1039.7,806,1038,806"/>
			</g>
			<g>
				<defs>
					<rect id="SVGID_55_" x="893.4" y="626.2" width="178.5" height="306.8"/>
				</defs>
				<clipPath id="SVGID_56_">
					<use xlink:href="#SVGID_55_"  style="overflow:visible;"/>
				</clipPath>
				<path class="st34" d="M1029.9,853.5c-1.8-0.8-3.8-1.5-5.7-2.1c-0.5-0.2-1.4-0.4-1.7,0.2c-0.4,0.7,0.3,1.7,0.6,2.4
					c-2.6-1.1-5.4-1.5-8.2-1.7c-3-0.2-6-0.1-9,0.3c-5.8,0.8-11.5,2.9-17.5,1.9c-0.7-0.1-1.8-0.2-1.9,0.8c-0.2,1.1,2.1,4.5,2.4,5
					c0.3,0.4,0.7,1,0.5,1.5c-0.3,0.7-1.4,0.5-2,0.5c-0.9,0-1.3,0.5-1.1,1.4c0.3,1.1,0.8,2.2,1.1,3.2c0.9,2.7,2.1,5.6,2,8.5
					c-0.1,2.3-0.6,7.4-0.5,8.9c0.2,2.9,0.7,5.9,1.7,8.7c0.9,2.6,2.3,5,4,7.1c1.7,2,3.9,3.5,5.7,5.4c0.9,1,1.7,2.2,2.3,3.4
					c0.3,0.6,1,3.2,1.1,3.9c0.2,1,0.8,1.7,1.9,1.6c0.7-0.1,1.6-0.6,2.3-0.4c1,0.3-0.2,2.4-0.3,3c-0.3,1.2-0.4,2.5-0.3,3.8
					c0.1,1,0.4,3.4,1.9,3.1c1.1-0.2,1.6-1.7,2.1-2.5c0.8-1.1,4.6-4.9,10.2-5.6c5.6-0.7,11-2.5,16-5.2c1.3-0.7,2.5-1.5,3.7-2.3
					c-2.4-0.8-4.8-2.1-6.4-4.1c-1.8-2.4-2.2-5.5-1-8.3c0.5-1.3,1.3-2.4,2.5-3.3c1.2-0.8,2.1-1.9,2.9-3c1.7-2.5,2.1-5.4,3.3-8.1
					c1.1-2.4,3-4.7,5.9-4.8c-0.4-3.6-1.4-6.8-3.1-10c-1.7-2.9-5.5-6.9-5.8-7.1C1036.6,856.9,1033.4,855,1029.9,853.5 M1026.3,885.8
					c-1.7,0-3.1-1.5-3.1-3.1c0-1.7,1.5-3.1,3.1-3.1c1.7,0,3.1,1.5,3.1,3.1C1029.4,884.4,1027.9,885.8,1026.3,885.8"/>
			</g>
		</g>
		<g>
			<path class="st20" d="M1112.3,658.8v5c0,4.6-2.4,7-7.4,7h-5.7v13.4c0,0.5-0.3,0.8-0.8,0.8h-0.4c-0.5,0-0.8-0.3-0.8-0.8v-31.7
				c0-0.5,0.3-0.8,0.8-0.8h6.9C1110,651.8,1112.3,654.3,1112.3,658.8z M1110.4,659.7c0-4.3-1.5-6.1-5.7-6.1h-5.6V669h5.6
				c4.2,0,5.7-1.8,5.7-6.1V659.7z"/>
			<path class="st20" d="M1134,685h-0.5c-0.4,0-0.7-0.2-0.9-0.6l-5.6-14h-0.7h-5.7v13.8c0,0.5-0.3,0.8-0.8,0.8h-0.4
				c-0.5,0-0.8-0.3-0.8-0.8v-31.7c0-0.5,0.3-0.8,0.8-0.8h6.9c5,0,7.4,2.5,7.4,7v4.6c0,3.7-1.5,6-4.7,6.7l5.6,14
				C1134.8,684.7,1134.6,685,1134,685z M1131.9,662.6v-2.9c0-4.3-1.5-6.1-5.7-6.1h-5.6v15h5.6
				C1130.4,668.7,1131.9,666.9,1131.9,662.6z"/>
			<path class="st20" d="M1148.1,651.4h0.4c5,0,7.4,2.5,7.4,7v19.9c0,4.6-2.4,7-7.4,7h-0.4c-5,0-7.4-2.5-7.4-7v-19.9
				C1140.7,653.9,1143.1,651.4,1148.1,651.4z M1148.3,683.6c4.2,0,5.7-1.8,5.7-6.1v-18.2c0-4.3-1.5-6.1-5.7-6.1s-5.7,1.8-5.7,6.1
				v18.2C1142.6,681.8,1144.2,683.6,1148.3,683.6z"/>
			<path class="st20" d="M1175.3,652.6v0.3c0,0.5-0.3,0.8-0.8,0.8h-5.6v30.7c0,0.5-0.3,0.8-0.8,0.8h-0.4c-0.5,0-0.8-0.3-0.8-0.8
				v-30.7h-5.6c-0.5,0-0.8-0.3-0.8-0.8v-0.3c0-0.5,0.3-0.8,0.8-0.8h13.2C1175.1,651.8,1175.3,652.1,1175.3,652.6z"/>
			<path class="st20" d="M1192.5,685h-11.3c-0.5,0-0.8-0.3-0.8-0.8v-31.7c0-0.5,0.3-0.8,0.8-0.8h11.2c0.5,0,0.8,0.3,0.8,0.8v0.3
				c0,0.5-0.3,0.8-0.8,0.8h-10v13.7h8.5c0.5,0,0.8,0.3,0.8,0.8v0.3c0,0.5-0.3,0.8-0.8,0.8h-8.5v14.1h10.2c0.5,0,0.8,0.3,0.8,0.8v0.3
				C1193.3,684.7,1193,685,1192.5,685z M1189.7,643.5h0.9c0.6,0,0.9,0.5,0.5,0.9l-3.4,4.4c-0.2,0.3-0.5,0.4-0.8,0.4h-0.1
				c-0.5,0-0.7-0.3-0.5-0.8l2.5-4.4C1189,643.6,1189.3,643.5,1189.7,643.5z"/>
			<path class="st20" d="M1214.3,669.5v8.9c0,4.7-2.4,7-7.4,7h-0.4c-5,0-7.4-2.3-7.4-7v-19.9c0-4.5,2.4-7,7.4-7h0.4
				c5,0,7.4,2.6,7.4,7v3.5c0,0.5-0.3,0.8-0.8,0.8h-0.4c-0.5,0-0.8-0.3-0.8-0.8v-2.7c0-4.3-1.5-6.1-5.7-6.1s-5.7,1.8-5.7,6.1v18.2
				c0,4.3,1.5,6.1,5.7,6.1s5.7-1.8,5.7-6.1v-7h-5.1c-0.5,0-0.8-0.3-0.8-0.8v-0.3c0-0.5,0.3-0.8,0.8-0.8h6.3
				C1214,668.7,1214.3,669,1214.3,669.5z"/>
			<path class="st20" d="M1233.7,685h-11.3c-0.5,0-0.8-0.3-0.8-0.8v-31.7c0-0.5,0.3-0.8,0.8-0.8h11.2c0.5,0,0.8,0.3,0.8,0.8v0.3
				c0,0.5-0.3,0.8-0.8,0.8h-10v13.7h8.5c0.5,0,0.8,0.3,0.8,0.8v0.3c0,0.5-0.3,0.8-0.8,0.8h-8.5v14.1h10.2c0.5,0,0.8,0.3,0.8,0.8v0.3
				C1234.5,684.7,1234.2,685,1233.7,685z"/>
			<path class="st20" d="M1255.7,685h-0.5c-0.4,0-0.7-0.2-0.9-0.6l-5.6-14h-0.7h-5.7v13.8c0,0.5-0.3,0.8-0.8,0.8h-0.4
				c-0.5,0-0.8-0.3-0.8-0.8v-31.7c0-0.5,0.3-0.8,0.8-0.8h6.9c5,0,7.4,2.5,7.4,7v4.6c0,3.7-1.5,6-4.7,6.7l5.6,14
				C1256.5,684.7,1256.2,685,1255.7,685z M1253.6,662.6v-2.9c0-4.3-1.5-6.1-5.7-6.1h-5.6v15h5.6
				C1252.1,668.7,1253.6,666.9,1253.6,662.6z"/>
		</g>
		<g>
			<path class="st20" d="M1283.7,684v0.3c0,0.5-0.3,0.8-0.8,0.8h-10.6c-0.5,0-0.8-0.3-0.8-0.8v-31.7c0-0.5,0.3-0.8,0.8-0.8h0.4
				c0.5,0,0.8,0.3,0.8,0.8v30.7h9.4C1283.4,683.2,1283.7,683.5,1283.7,684z"/>
			<path class="st20" d="M1301.1,685h-11.3c-0.5,0-0.8-0.3-0.8-0.8v-31.7c0-0.5,0.3-0.8,0.8-0.8h11.2c0.5,0,0.8,0.3,0.8,0.8v0.3
				c0,0.5-0.3,0.8-0.8,0.8h-10v13.7h8.5c0.5,0,0.8,0.3,0.8,0.8v0.3c0,0.5-0.3,0.8-0.8,0.8h-8.5v14.1h10.2c0.5,0,0.8,0.3,0.8,0.8v0.3
				C1301.9,684.7,1301.6,685,1301.1,685z"/>
			<path class="st20" d="M1320.6,663.2h-0.4c-0.5,0-0.8-0.3-0.8-0.8V659c0-4-1.4-5.8-5.4-5.8s-5.4,1.8-5.4,5.8v2.3
				c0,2.7,0.9,3.3,3.7,4.7l5.4,2.9c2.1,1.1,3.7,3.1,3.7,5.3v4.2c0,4.7-2.2,6.9-7.3,6.9h-0.1c-5,0-7.3-2.2-7.3-6.9v-4.6
				c0-0.5,0.3-0.8,0.8-0.8h0.4c0.5,0,0.8,0.3,0.8,0.8v3.8c0,3.9,1.4,5.9,5.4,5.9s5.4-1.9,5.4-5.9v-2.7c0-2.7-1.1-3.5-3.8-5l-5.2-2.8
				c-2.7-1.5-3.7-2.7-3.7-5.2v-3.7c0-4.5,2.7-6.8,7.2-6.8h0.1c4.6,0,7.2,2.4,7.2,6.8v4.2C1321.4,662.9,1321.1,663.2,1320.6,663.2z"
				/>
		</g>
		<g>
			<path class="st20" d="M1113.6,720.1v5.4c0,5.2-3.2,7.4-8.5,7.4h-0.1c-5.3,0-8.5-2.1-8.5-7.4v-20.9c0-5,3.2-7.4,8.5-7.4h0.1
				c5.3,0,8.5,2.3,8.5,7.4v4.6c0,1-0.5,1.6-1.6,1.6h-1.4c-1,0-1.6-0.6-1.6-1.6v-3.7c0-3-1.3-4.1-3.8-4.1s-3.8,1.1-3.8,4.1v19.1
				c0,3,1.3,4.1,3.8,4.1s3.8-1.1,3.8-4.1v-4.5c0-1,0.6-1.6,1.6-1.6h1.4C1113,718.4,1113.6,719,1113.6,720.1z"/>
			<path class="st20" d="M1121.7,732.5h-1.4c-1.1,0-1.6-0.6-1.6-1.6v-31.6c0-1,0.5-1.6,1.6-1.6h1.4c1,0,1.6,0.6,1.6,1.6v31.6
				C1123.3,731.9,1122.7,732.5,1121.7,732.5z"/>
			<path class="st20" d="M1131.5,732.5h-1c-1.1,0-1.6-0.6-1.6-1.6v-31.6c0-1,0.5-1.6,1.6-1.6h1.6c0.9,0,1.6,0.4,1.9,1.3l8.3,22.6
				v-22.3c0-1,0.6-1.6,1.6-1.6h1c1.1,0,1.6,0.6,1.6,1.6v31.6c0,1-0.5,1.6-1.6,1.6h-1.4c-0.9,0-1.5-0.4-1.8-1.3l-8.5-23.4v23.1
				C1133.1,731.9,1132.5,732.5,1131.5,732.5z"/>
			<path class="st20" d="M1169,704.6v20.9c0,4.4-2.4,6.7-6.4,7.2v3.3c0,1.1-0.5,1.6-1.6,1.6h-1c-1.1,0-1.6-0.5-1.6-1.6v-3.2
				c-4.2-0.5-6.6-2.8-6.6-7.3v-20.9c0-5.2,3.2-7.4,8.5-7.4h0.4C1165.8,697.2,1169,699.5,1169,704.6z M1164.3,705.5
				c0-3.1-1.4-4.1-4-4.1s-4,1-4,4.1v19.1c0,3.1,1.4,4.1,4,4.1s4-1,4-4.1V705.5z"/>
			<path class="st20" d="M1195.1,729.9v0.9c0,1-0.5,1.6-1.6,1.6h-10.8c-1.1,0-1.6-0.6-1.6-1.6v-31.6c0-1,0.5-1.6,1.6-1.6h1.4
				c1,0,1.6,0.6,1.6,1.6v29h7.8C1194.5,728.3,1195.1,728.9,1195.1,729.9z"/>
			<path class="st20" d="M1201.5,732.5h-1.4c-1.1,0-1.6-0.6-1.6-1.6v-31.6c0-1,0.5-1.6,1.6-1.6h1.4c1,0,1.6,0.6,1.6,1.6v31.6
				C1203.2,731.9,1202.6,732.5,1201.5,732.5z"/>
			<path class="st20" d="M1221.7,714.4c3.1,0.5,4.1,3,4.1,5.5v5.7c0,4.2-3.1,6.9-8.4,6.9h-7.1c-1.1,0-1.6-0.6-1.6-1.6v-31.6
				c0-1,0.5-1.6,1.6-1.6h7.2c5.3,0,8.1,2.6,8.1,6.9v4.4C1225.5,711.3,1224.6,714,1221.7,714.4z M1217.6,716.5h-4.2v11.9h4.2
				c2.3,0,3.5-1.1,3.5-3.6v-5.2C1221.1,717.5,1219.8,716.5,1217.6,716.5z M1213.3,712.5h4c2.2,0,3.5-1,3.5-3.1v-4
				c0-2.4-1.1-3.6-3.5-3.6h-4V712.5z"/>
			<path class="st20" d="M1243.5,732.5H1232c-1.1,0-1.6-0.6-1.6-1.6v-31.6c0-1,0.5-1.6,1.6-1.6h11.4c1.1,0,1.6,0.6,1.6,1.6v0.8
				c0,1.1-0.5,1.6-1.6,1.6h-8.4v11h6.8c1.1,0,1.6,0.6,1.6,1.6v0.9c0,1-0.5,1.6-1.6,1.6h-6.8v11.4h8.5c1.1,0,1.6,0.5,1.6,1.6v0.8
				C1245.2,731.9,1244.6,732.5,1243.5,732.5z"/>
			<path class="st20" d="M1265.4,732.5h-1.4c-0.9,0-1.5-0.4-1.8-1.3l-4.4-12.9l0,0h-4v12.6c0,1-0.6,1.6-1.6,1.6h-1.4
				c-1.1,0-1.6-0.6-1.6-1.6v-31.6c0-1,0.5-1.6,1.6-1.6h7.1c5.3,0,8.5,2.2,8.5,7.4v5.8c0,3.5-1.5,5.6-4.1,6.7l4.7,13.1
				C1267.1,731.7,1266.6,732.5,1265.4,732.5z M1253.7,714.1h3.8c2.6,0,4-1,4-4.1v-4.1c0-3.1-1.4-4.1-4-4.1h-3.8V714.1z"/>
			<path class="st20" d="M1285.3,699.3v0.8c0,1.1-0.5,1.6-1.6,1.6h-4.4v29.1c0,1-0.6,1.6-1.6,1.6h-1.4c-1,0-1.6-0.6-1.6-1.6v-29.1
				h-4.4c-1,0-1.6-0.5-1.6-1.6v-0.8c0-1,0.6-1.6,1.6-1.6h13.5C1284.8,697.6,1285.3,698.2,1285.3,699.3z"/>
			<path class="st20" d="M1301.5,732.5H1290c-1.1,0-1.6-0.6-1.6-1.6v-31.6c0-1,0.5-1.6,1.6-1.6h11.4c1.1,0,1.6,0.6,1.6,1.6v0.8
				c0,1.1-0.5,1.6-1.6,1.6h-8.4v11h6.8c1.1,0,1.6,0.6,1.6,1.6v0.9c0,1-0.5,1.6-1.6,1.6h-6.8v11.4h8.5c1.1,0,1.6,0.5,1.6,1.6v0.8
				C1303.1,731.9,1302.6,732.5,1301.5,732.5z M1298.1,688.2h1.5c1.4,0,1.9,0.9,1,2l-3,3.8c-0.5,0.6-1.1,0.9-2,0.9h-0.1
				c-1.2,0-1.7-0.8-1.2-1.9l1.9-3.6C1296.5,688.5,1297.2,688.2,1298.1,688.2z"/>
			<path class="st20" d="M1320.9,709.9h-1.3c-1.1,0-1.6-0.6-1.6-1.6v-3.1c0-2.8-1.3-3.9-3.7-3.9c-2.4,0-3.7,1.1-3.7,3.9v2.4
				c0,2.1,0.7,2.8,2.7,4l4.5,2.5c3,1.7,4.9,3.4,4.9,6.7v4.8c0,5.2-3,7.3-8.3,7.3h-0.1c-5.3,0-8.3-2-8.3-7.3v-4.3
				c0-1,0.5-1.6,1.6-1.6h1.3c1.1,0,1.6,0.6,1.6,1.6v3.5c0,2.7,1.3,4,3.8,4c2.4,0,3.8-1.2,3.8-4v-2.7c0-2.1-0.7-3-2.8-4.1l-4.5-2.5
				c-3.2-1.8-4.9-3.3-4.9-6.7v-4.4c0-5,3.5-7.2,8.3-7.2h0.1c4.8,0,8.3,2.1,8.3,7.2v3.9C1322.6,709.3,1322,709.9,1320.9,709.9z"/>
		</g>
		<g>
			<path class="st20" d="M1108,769.8h-0.6c-0.4,0-0.7-0.2-0.8-0.7l-1.3-6h-7.1l-1.3,6c-0.1,0.5-0.4,0.7-0.8,0.7h-0.4
				c-0.5,0-0.7-0.3-0.7-0.9l5.5-24.6c0.1-0.5,0.4-0.7,0.8-0.7h0.9c0.4,0,0.7,0.2,0.8,0.7l5.6,24.6
				C1108.8,769.5,1108.6,769.8,1108,769.8z M1104.9,761.3l-3.1-14.4l-3.1,14.4H1104.9z"/>
			<path class="st20" d="M1112.5,769.1v-24.6c0-0.5,0.3-0.7,0.8-0.7h8.6c0.5,0,0.8,0.3,0.8,0.7v0.3c0,0.5-0.3,0.8-0.8,0.8h-7.3v10.3
				h6.2c0.5,0,0.8,0.3,0.8,0.8v0.3c0,0.5-0.3,0.8-0.8,0.8h-6.2v11.4c0,0.5-0.3,0.7-0.7,0.7h-0.5
				C1112.8,769.8,1112.5,769.6,1112.5,769.1z"/>
			<path class="st20" d="M1127.5,769.8h-0.5c-0.5,0-0.8-0.3-0.8-0.7v-24.6c0-0.5,0.3-0.7,0.8-0.7h0.5c0.5,0,0.7,0.3,0.7,0.7v24.6
				C1128.2,769.6,1128,769.8,1127.5,769.8z"/>
			<path class="st20" d="M1134.8,769.8h-0.4c-0.5,0-0.8-0.3-0.8-0.7v-24.6c0-0.5,0.3-0.7,0.8-0.7h0.7c0.4,0,0.7,0.2,0.9,0.6
				l8.3,20.8v-20.6c0-0.5,0.3-0.7,0.7-0.7h0.4c0.5,0,0.8,0.3,0.8,0.7v24.6c0,0.5-0.3,0.7-0.8,0.7h-0.6c-0.4,0-0.7-0.2-0.9-0.6
				l-8.4-20.9v20.8C1135.6,769.6,1135.3,769.8,1134.8,769.8z"/>
			<path class="st20" d="M1169.8,749.2v15.1c0,3.7-2,5.5-6,5.5h-5.3c-0.5,0-0.8-0.3-0.8-0.7v-24.6c0-0.5,0.3-0.7,0.8-0.7h5.3
				C1167.7,743.7,1169.8,745.5,1169.8,749.2z M1163.6,745.5h-3.9V768h3.9c2.9,0,4.1-1.2,4.1-4.3V750
				C1167.7,746.8,1166.6,745.5,1163.6,745.5z"/>
			<path class="st20" d="M1176.4,744.5v1.2c0,1.7-0.4,3.3-0.9,4.6c-0.2,0.4-0.5,0.6-0.8,0.4c-0.3-0.1-0.3-0.4-0.1-0.9
				c0.4-1,0.7-2.3,0.7-3.4h-0.2c-0.5,0-0.8-0.3-0.8-0.7v-1.2c0-0.5,0.3-0.8,0.8-0.8h0.6C1176.1,743.7,1176.4,744,1176.4,744.5z"/>
			<path class="st20" d="M1191.2,769.8h-0.6c-0.4,0-0.7-0.2-0.8-0.7l-1.3-6h-7.1l-1.3,6c-0.1,0.5-0.4,0.7-0.8,0.7h-0.4
				c-0.5,0-0.7-0.3-0.7-0.9l5.5-24.6c0.1-0.5,0.4-0.7,0.8-0.7h0.9c0.4,0,0.7,0.2,0.8,0.7l5.6,24.6
				C1192,769.5,1191.8,769.8,1191.2,769.8z M1188.1,761.3l-3.1-14.4l-3.1,14.4H1188.1z"/>
			<path class="st20" d="M1205.9,752.7h-0.5c-0.4,0-0.7-0.3-0.7-0.8v-2.6c0-2.9-1-4.1-3.8-4.1s-3.8,1.3-3.8,4.1v1.8
				c0,1.9,0.7,2.5,2.7,3.5l4,2.2c1.8,1,3.1,2.4,3.1,4.4v3.4c0,3.7-1.9,5.5-5.9,5.5h-0.1c-4,0-5.9-1.7-5.9-5.5v-3.5
				c0-0.5,0.3-0.8,0.8-0.8h0.5c0.4,0,0.7,0.3,0.7,0.8v2.9c0,2.8,1,4.2,3.9,4.2c2.8,0,3.9-1.4,3.9-4.2v-2c0-1.9-0.8-2.6-2.8-3.7
				l-3.9-2.1c-2.2-1.2-3.1-2.2-3.1-4.3v-3c0-3.6,2.2-5.4,5.8-5.4h0.1c3.6,0,5.8,1.8,5.8,5.4v3.2
				C1206.7,752.4,1206.4,752.7,1205.9,752.7z"/>
			<path class="st20" d="M1221.8,752.7h-0.5c-0.4,0-0.7-0.3-0.7-0.8v-2.6c0-2.9-1-4.1-3.8-4.1s-3.8,1.3-3.8,4.1v1.8
				c0,1.9,0.7,2.5,2.7,3.5l4,2.2c1.8,1,3.1,2.4,3.1,4.4v3.4c0,3.7-1.9,5.5-5.9,5.5h-0.1c-4,0-5.9-1.7-5.9-5.5v-3.5
				c0-0.5,0.3-0.8,0.8-0.8h0.5c0.4,0,0.7,0.3,0.7,0.8v2.9c0,2.8,1,4.2,3.9,4.2c2.8,0,3.9-1.4,3.9-4.2v-2c0-1.9-0.8-2.6-2.8-3.7
				l-3.9-2.1c-2.2-1.2-3.1-2.2-3.1-4.3v-3c0-3.6,2.2-5.4,5.8-5.4h0.1c3.6,0,5.8,1.8,5.8,5.4v3.2
				C1222.6,752.4,1222.3,752.7,1221.8,752.7z"/>
			<path class="st20" d="M1239.2,744.4v20.2c0,3.7-1.9,5.5-5.9,5.5h-0.1c-4,0-5.9-1.8-5.9-5.5v-20.2c0-0.5,0.3-0.7,0.8-0.7h0.5
				c0.5,0,0.7,0.3,0.7,0.7v19.5c0,3.1,1,4.3,4,4.3s4-1.2,4-4.3v-19.5c0-0.5,0.3-0.7,0.7-0.7h0.5
				C1238.9,743.7,1239.2,743.9,1239.2,744.4z"/>
			<path class="st20" d="M1256.4,769.8h-0.6c-0.4,0-0.7-0.2-0.9-0.6l-4.1-10.6h-0.4h-4.1v10.5c0,0.5-0.3,0.7-0.7,0.7h-0.5
				c-0.5,0-0.8-0.3-0.8-0.7v-24.6c0-0.5,0.3-0.7,0.8-0.7h5.4c4,0,6,1.9,6,5.5v3.8c0,2.8-1.2,4.6-3.6,5.2l4.1,10.7
				C1257.2,769.4,1256.9,769.8,1256.4,769.8z M1254.4,752.4v-2.5c0-3.1-1.2-4.3-4.1-4.3h-4v11.2h4
				C1253.2,756.7,1254.4,755.4,1254.4,752.4z"/>
			<path class="st20" d="M1271,769.8h-8.8c-0.5,0-0.8-0.3-0.8-0.7v-24.6c0-0.5,0.3-0.7,0.8-0.7h8.7c0.5,0,0.8,0.3,0.8,0.7v0.3
				c0,0.5-0.3,0.8-0.8,0.8h-7.5v10.1h6.3c0.5,0,0.8,0.3,0.8,0.8v0.3c0,0.5-0.3,0.8-0.8,0.8h-6.3V768h7.6c0.5,0,0.8,0.3,0.8,0.8v0.3
				C1271.8,769.6,1271.5,769.8,1271,769.8z"/>
			<path class="st20" d="M1287.9,769.8h-0.6c-0.4,0-0.7-0.2-0.9-0.6l-4.1-10.6h-0.4h-4.1v10.5c0,0.5-0.3,0.7-0.7,0.7h-0.5
				c-0.5,0-0.8-0.3-0.8-0.7v-24.6c0-0.5,0.3-0.7,0.8-0.7h5.4c4,0,6,1.9,6,5.5v3.8c0,2.8-1.2,4.6-3.6,5.2l4.1,10.7
				C1288.6,769.4,1288.4,769.8,1287.9,769.8z M1285.9,752.4v-2.5c0-3.1-1.2-4.3-4.1-4.3h-4v11.2h4
				C1284.7,756.7,1285.9,755.4,1285.9,752.4z"/>
			<path class="st20" d="M1309,768.7v0.4c0,0.5-0.3,0.7-0.8,0.7h-8.3c-0.5,0-0.8-0.3-0.8-0.7v-24.6c0-0.5,0.3-0.7,0.8-0.7h0.5
				c0.5,0,0.7,0.3,0.7,0.7V768h7C1308.7,768,1309,768.2,1309,768.7z"/>
			<path class="st20" d="M1322,769.8h-8.8c-0.5,0-0.8-0.3-0.8-0.7v-24.6c0-0.5,0.3-0.7,0.8-0.7h8.7c0.5,0,0.8,0.3,0.8,0.7v0.3
				c0,0.5-0.3,0.8-0.8,0.8h-7.5v10.1h6.3c0.5,0,0.8,0.3,0.8,0.8v0.3c0,0.5-0.3,0.8-0.8,0.8h-6.3V768h7.6c0.5,0,0.8,0.3,0.8,0.8v0.3
				C1322.8,769.6,1322.5,769.8,1322,769.8z"/>
		</g>
		<g>
			<path class="st20" d="M1114.7,802.8c4.1,0.7,5.4,3.9,5.4,7.3v7.5c0,5.6-4.1,9-11,9h-9.3c-1.4,0-2.2-0.8-2.2-2.2V783
				c0-1.4,0.7-2.2,2.2-2.2h9.4c6.9,0,10.6,3.5,10.6,9v5.7C1119.8,798.8,1118.5,802.4,1114.7,802.8z M1109.3,805.6h-5.6v15.7h5.6
				c3.1,0,4.6-1.5,4.6-4.7v-6.9C1113.9,806.9,1112.3,805.6,1109.3,805.6z M1103.8,800.3h5.3c2.9,0,4.6-1.3,4.6-4.1v-5.3
				c0-3.2-1.5-4.7-4.6-4.7h-5.3V800.3z"/>
			<path class="st20" d="M1132.1,826.6h-1.8c-1.4,0-2.2-0.8-2.2-2.2V783c0-1.4,0.7-2.2,2.2-2.2h1.8c1.4,0,2.2,0.8,2.2,2.2v41.4
				C1134.2,825.8,1133.4,826.6,1132.1,826.6z"/>
			<path class="st20" d="M1160.5,826.6h-15.2c-1.4,0-2.2-0.8-2.2-2.2V783c0-1.4,0.7-2.2,2.2-2.2h15c1.4,0,2.2,0.8,2.2,2.2v1.1
				c0,1.4-0.7,2.2-2.2,2.2h-11v14.4h9c1.4,0,2.2,0.8,2.2,2.2v1.2c0,1.4-0.7,2.2-2.2,2.2h-9v15h11.2c1.4,0,2.2,0.7,2.2,2.2v1.1
				C1162.7,825.8,1162,826.6,1160.5,826.6z"/>
			<path class="st20" d="M1173,826.6h-1.4c-1.4,0-2.2-0.8-2.2-2.2V783c0-1.4,0.7-2.2,2.2-2.2h2.2c1.2,0,2.1,0.6,2.5,1.8l10.8,29.7
				V783c0-1.4,0.8-2.2,2.2-2.2h1.4c1.4,0,2.2,0.8,2.2,2.2v41.4c0,1.4-0.7,2.2-2.2,2.2h-1.9c-1.2,0-2-0.6-2.4-1.8l-11.2-30.8v30.4
				C1175.2,825.8,1174.4,826.6,1173,826.6z"/>
			<path class="st20" d="M1214.5,802.8v0.8c0,1.4-0.8,2.2-2.2,2.2h-10.7c-1.4,0-2.2-0.8-2.2-2.2v-0.8c0-1.4,0.8-2.2,2.2-2.2h10.7
				C1213.7,800.7,1214.5,801.5,1214.5,802.8z"/>
			<path class="st20" d="M1238.3,826.6h-15.2c-1.4,0-2.2-0.8-2.2-2.2V783c0-1.4,0.7-2.2,2.2-2.2h15c1.4,0,2.2,0.8,2.2,2.2v1.1
				c0,1.4-0.7,2.2-2.2,2.2h-11v14.4h9c1.4,0,2.2,0.8,2.2,2.2v1.2c0,1.4-0.7,2.2-2.2,2.2h-9v15h11.2c1.4,0,2.2,0.7,2.2,2.2v1.1
				C1240.5,825.8,1239.7,826.6,1238.3,826.6z"/>
			<path class="st20" d="M1266.3,783v1.1c0,1.4-0.7,2.2-2.2,2.2h-5.8v38.2c0,1.4-0.8,2.2-2.2,2.2h-1.8c-1.4,0-2.2-0.8-2.2-2.2v-38.2
				h-5.8c-1.4,0-2.2-0.7-2.2-2.2V783c0-1.4,0.8-2.2,2.2-2.2h17.8C1265.6,780.9,1266.3,781.6,1266.3,783z"/>
			<path class="st20" d="M1293.5,826.6h-1.8c-1.2,0-2-0.5-2.4-1.8l-5.8-17h-0.1h-5.3v16.6c0,1.4-0.8,2.2-2.2,2.2h-1.8
				c-1.4,0-2.2-0.8-2.2-2.2V783c0-1.4,0.7-2.2,2.2-2.2h9.3c6.9,0,11.1,2.9,11.1,9.7v7.6c0,4.6-2,7.4-5.4,8.8l6.1,17.2
				C1295.7,825.6,1295,826.6,1293.5,826.6z M1278.1,802.5h5c3.4,0,5.2-1.4,5.2-5.4v-5.4c0-4.1-1.8-5.4-5.2-5.4h-5V802.5z"/>
			<path class="st20" d="M1320.1,826.6h-15.2c-1.4,0-2.2-0.8-2.2-2.2V783c0-1.4,0.7-2.2,2.2-2.2h15c1.4,0,2.2,0.8,2.2,2.2v1.1
				c0,1.4-0.7,2.2-2.2,2.2h-11v14.4h9c1.4,0,2.2,0.8,2.2,2.2v1.2c0,1.4-0.7,2.2-2.2,2.2h-9v15h11.2c1.4,0,2.2,0.7,2.2,2.2v1.1
				C1322.3,825.8,1321.5,826.6,1320.1,826.6z"/>
		</g>
		<g>
			<path class="st20" d="M1127.1,895.8h-2.6c-1.8,0-2.8-0.9-3.2-2.7l-2.1-12h-13.4l-2.1,12c-0.3,1.8-1.4,2.7-3.1,2.7h-2.2
				c-1.9,0-2.9-1.2-2.6-3.2l11.2-56.2c0.4-1.8,1.5-2.7,3.2-2.7h5c1.7,0,2.8,0.9,3.2,2.7l11.4,56.2
				C1130.1,894.7,1129.1,895.8,1127.1,895.8z M1118,874.2l-5.4-30l-5.4,30H1118z"/>
			<path class="st20" d="M1143.9,895.8h-1.9c-2,0-2.9-1.1-2.9-2.9v-56.2c0-1.9,1-2.9,2.9-2.9h2.9c1.7,0,2.8,0.8,3.4,2.4l14.7,40.4
				v-39.8c0-1.9,1.1-2.9,2.9-2.9h1.9c1.9,0,2.9,1.1,2.9,2.9V893c0,1.9-1,2.9-2.9,2.9h-2.6c-1.7,0-2.7-0.8-3.3-2.4l-15.2-41.8v41.2
				C1146.8,894.8,1145.7,895.8,1143.9,895.8z"/>
			<path class="st20" d="M1189,895.8h-2.5c-2,0-2.9-1.1-2.9-2.9v-56.2c0-1.9,1-2.9,2.9-2.9h2.5c1.9,0,2.9,1.1,2.9,2.9v56.2
				C1192,894.8,1190.9,895.8,1189,895.8z"/>
			<path class="st20" d="M1229.2,883.9c-0.4,1.7-1.5,2.4-3.1,2.4s-2.7-0.7-3.2-2.4l-10.3-30.2V893c0,1.9-1.1,2.9-3,2.9h-1.9
				c-2,0-2.9-1.1-2.9-2.9v-56.2c0-1.9,1-2.9,2.9-2.9h2.5c1.7,0,2.8,0.8,3.4,2.4l12.4,36.2l12.6-36.2c0.5-1.6,1.6-2.4,3.3-2.4h2.8
				c2,0,2.9,1.1,2.9,2.9V893c0,1.9-1,2.9-2.9,2.9h-2.2c-1.9,0-2.9-1.1-2.9-2.9v-39.3L1229.2,883.9z"/>
			<path class="st20" d="M1288.3,895.8h-2.6c-1.8,0-2.8-0.9-3.2-2.7l-2.1-12H1267l-2.1,12c-0.3,1.8-1.4,2.7-3.1,2.7h-2.2
				c-1.9,0-2.9-1.2-2.6-3.2l11.2-56.2c0.4-1.8,1.5-2.7,3.2-2.7h5c1.7,0,2.8,0.9,3.2,2.7l11.4,56.2
				C1291.4,894.7,1290.3,895.8,1288.3,895.8z M1279.2,874.2l-5.4-30l-5.4,30H1279.2z"/>
			<path class="st20" d="M1323.6,891.2v1.7c0,1.9-1,2.9-2.9,2.9h-19.2c-2,0-2.9-1.1-2.9-2.9v-56.2c0-1.9,1-2.9,2.9-2.9h2.5
				c1.9,0,2.9,1.1,2.9,2.9v51.6h13.8C1322.7,888.3,1323.6,889.4,1323.6,891.2z"/>
		</g>
	</g>
</g>
</svg>
