<?xml version="1.0" encoding="utf-8"?>
<!-- Generator: Adobe Illustrator 21.0.2, SVG Export Plug-In . SVG Version: 6.00 Build 0)  -->
<svg version="1.1" id="Layer_1" xmlns="http://www.w3.org/2000/svg" xmlns:xlink="http://www.w3.org/1999/xlink" x="0px" y="0px"
	 viewBox="0 0 1500 1125" style="enable-background:new 0 0 1500 1125;" xml:space="preserve">
<style type="text/css">
	.st0{fill:#F2F2F2;}
	.st1{fill:#F1B722;}
	.st2{fill:#7ABD47;}
	.st3{fill:#3074B4;}
	.st4{fill:#77BED9;}
	.st5{fill:#ED582F;}
	.st6{clip-path:url(#SVGID_2_);fill:#F1B722;}
	.st7{clip-path:url(#SVGID_2_);fill:#7BBE47;}
	.st8{clip-path:url(#SVGID_2_);fill:#3274B4;}
	.st9{clip-path:url(#SVGID_2_);fill:#77BED9;}
	.st10{clip-path:url(#SVGID_2_);fill:#ED5830;}
	.st11{fill:#626366;}
	.st12{clip-path:url(#SVGID_4_);fill:#F1B722;}
	.st13{clip-path:url(#SVGID_4_);fill:#7BBE47;}
	.st14{clip-path:url(#SVGID_4_);fill:#3274B4;}
	.st15{clip-path:url(#SVGID_4_);fill:#77BED9;}
	.st16{clip-path:url(#SVGID_4_);fill:#ED5830;}
</style>
<g>
	<rect y="0" class="st0" width="1500" height="1125"/>
</g>
<g>
	<path class="st1" d="M334.1,390.4L334.1,390.4c1,0,2,0,2.9,0l0.1,0c0.7,0,1.5,0,2.5,0.1l0.4-52.5c-13.2,0.2-26.4,0.7-39.6-0.1
		c-11-0.7-22.3-2.3-32.2-7.4c-12.9-6.7-21-19.2-23.2-33.4c-0.5-3.3-0.9-6.8-0.6-10.2c0.2-2.8,2.9-4.9,5.7-3.6
		c2.3,1.1,2.2,3.3,2.2,5.4c-0.3,11.6,4.3,23.5,13.5,30.9c7.8,6.2,17.7,8.6,27.4,9.8c10.7,1.3,105.4,0.5,133.1,0.1c2,0,2.8-2.7,1-3.8
		c-7.5-4.8-14.2-11-18.8-18.6c-2.6-4.3-5-9.3-5.5-14.3c-0.6-5,6.8-6.3,7.8-1.3c0.2,1,0.4,1.9,0.6,2.9c1.6,5.5,4.6,10.5,8.4,14.8
		c1,1.2,2.1,2.3,3.2,3.3c12.2,11.5,29.8,15.7,46.1,11.7c14.6-3.6,28.7-9.2,41.2-17.6c5-3.4,9.6-7.1,14-11.2
		c-17.1-5.4-32.6-15.2-43.9-29.2c-10.1-12.6-16.5-27.9-19.5-43.7c-1.4-7.2-2.2-14.6-2-22H301.8c-2-17.2-5.9-34.7-14-50.1
		c-4.5-8.6-10.4-16.7-18.2-22.6c-1.4-1-2.8-2-4.3-2.9c-0.8-0.5-1.6-1-2.6-1.1c-2-0.3-3.9,1.3-4,3.4l-0.6,67.7
		c-0.1,6.4-9.7,7.3-10.9,1l-12.7-66.4c-0.2-1.3-1.2-2.4-2.5-2.8c-2.1-0.6-3.5,0.9-4.8,2.3c-3.3,3.6-6.2,7.6-8.7,11.7
		c-5.3,8.9-8.9,18.8-11.2,28.9c-4.7,20.6-4.5,42.3-2.1,63.2c1.1,9.6,2.6,19.4,5,28.8v0c-3.1,25.2-5.8,50.4-7.8,75.7
		c-1.9,23.7-3.4,47.4-4.2,71.2c-0.4,13.5-0.7,27-0.5,40.6c3.3-3.1,6.8-6.3,10.5-9.5C245.8,407.3,289.2,390.4,334.1,390.4z
		 M454.2,257.7c5.9,0,5.9,9.1,0,9.1C448.3,266.9,448.3,257.7,454.2,257.7z M443.2,237c5.9,0,5.9,9.1,0,9.1
		C437.3,246.2,437.3,237,443.2,237z M430.3,257.7c5.9,0,5.9,9.1,0,9.1C424.4,266.9,424.4,257.7,430.3,257.7z M356.3,230.9
		c10,0,14.8,12.9,7.1,19.4c-7.7,6.5-19.7-0.4-18-10.3C346.4,234.8,351.1,230.9,356.3,230.9z"/>
	<path class="st1" d="M586.9,848.1c-0.9,0.1-1.7,0.4-2.5,0.8c-7.6,4.7-7.8,14.9-10.8,22.4c-3.3,8.2-8.8,15.7-16,20.9
		c-5.1,4.5-7.1,11-4.8,17.5c2.7,7.4,9.8,11,16.9,13.3c7,2.2,14.5,2.7,21.8,1.6c3.6-0.5,7.2-1.5,10.6-2.7c1.5-0.5,3.7-1,4.8-2.1
		c1.2-1.2,0.9-3-0.3-4c-4.8-3.9-13.1-4.3-18.8-2.9h0c-1.8,0.1-9.9,0.2-7.3-3.5c8.7-2.8,18-3.1,26.7-0.4c4.2,1.3,8.3,3.2,12,5.6
		c1.8,1.2,3.6,2.4,5.2,3.8c1.5,1.2,2.8,2.8,4.4,3.9c1,0.7,2.4,0.8,3.4,0c1.6-1.1,1.3-3.2,1.3-4.9c0-5.4-0.6-10.8-1.8-16
		c-2.4-10.3-7.1-20-13.3-28.6c-5.9-8.2-13.2-16-21.5-21.7C594.1,849.1,590.5,847.5,586.9,848.1z M591.7,869.9
		c4-4,14.4,6.4,10.4,10.4C598.1,884.3,587.7,873.9,591.7,869.9z"/>
	<path class="st2" d="M296.6,552.8c11.8,0,25.5-2,34-11.1c5-5.4,7.2-12.7,7.3-20c0-4.9-1.2-9.6-1.9-14.5
		c-2.9-19.9-1.7-40.5,4.6-59.7c2.4-7.2,5.3-14.8,9.6-21.1c2.1-3.1,4.4-5.7,5.7-9.3c1-2.8,1.4-5.8,1-8.7c-0.7-5.5-5.8-8-10.7-9.1
		c-7.2-1.7-14.9-1.2-22.1-0.7c-37.5,2.2-73,17.1-102.4,40.1c-14.1,11-27,23.7-38.3,37.7c-2.6,3.3-5.2,6.6-7.6,10
		c-2.1,2.9-4.2,5.8-5.5,9.2c-2.5,6.3-2.1,13.3,1.4,19.1c0.6,1,1.3,1.9,2,2.7c-3.7,0.4-7,2.5-8.4,6c-1.4,3.5-0.4,7.7,2.1,10.4
		c2.9,3.1,7.7,4.7,11.6,6c10.2,3.5,21.1,5.3,31.7,6.9c22.7,3.3,45.8,4.7,68.7,5.6C285.2,552.5,290.9,552.8,296.6,552.8z
		 M200.4,500.9c-2.1,5.5-10.6,2.3-8.6-3.2C193.9,492.1,202.5,495.3,200.4,500.9z M276.3,495.5c-14.8,0-26.5-13.3-24.6-28
		c-2.9,0.3-5.6,0.4-7.9-1.8c-2.5-2.5-2.4-5.8-0.9-8.8c2.6-5.3,5.9-10.4,10.1-14.5c5.8-5.7,13.2-9.5,21.2-10.6
		c8.9-1.2,18,1.2,25.4,6.3c7.6,5.3,12.2,13.7,13.4,22.8c0.6,4.9,0.4,9.8-0.5,14.7c-0.5,2.8-1.2,5.5-3.9,7c-3.5,1.9-6.6,0.2-9.4-1.9
		C295.1,489.6,286,495.5,276.3,495.5z"/>
	<path class="st3" d="M301.1,475.7c1.2,0.9,3.4,3.4,5.1,2.1c1.2-0.9,1.2-3.6,1.4-5c0.7-5,0.7-10.2-0.5-15.1
		c-2.7-10.8-11.1-18.4-21.7-20.4c-26.6-4.8-37.7,21.3-38,22.8c-0.3,1.7,0.9,2.3,1.7,2.3c1.7,0,3.4-0.3,5.1-0.4
		c7.6-0.3,15.2,0.5,22.6,2.4C285.5,466.7,293.7,470.6,301.1,475.7C302,476.4,300.9,475.6,301.1,475.7z"/>
	<path class="st4" d="M240.5,700.5L222.3,667c-0.6-1.1-2.2-0.9-2.5,0.3l-4.7,19.3l9.1,13L240.5,700.5z"/>
	<path class="st4" d="M324.2,848.8c4.6-2.4,9.3-4.4,14-6.2l-16.4-11.8l-35.4,13.8c-15.6,5.5-32.7,6.3-48.1-0.3
		c-8.9-3.8-17-9.8-23.2-17.2c-1.8-2.1-4-5.1-1.1-7.6c3.2-2.7,5.5,0.5,7.3,2.8c4.8,5.9,11.1,10.7,18,14c14,6.7,29.9,6,44.4,0.9
		c21-7.4,39.2-15.8,53.1-26.1c5.9-4.7,4.9-9.9,3.4-13.1c-4.7,2.3-12.2,4.6-20.9,4.8c-2.5,0-6,0-6.3-4.1c-0.1-0.9,0.2-1.9,0.8-2.6
		c1.1-1.3,2.5-1.5,4.1-1.3c2.3,0.3,4.7,0.2,7-0.1c3.3-0.4,16.4-1.1,17.3-13.2c0.3-3.7,0.5-7.4,0.2-10.8c-3.1,0.7-6.4,0.4-9.6-0.1
		c-3.5-0.6-7.5-1.4-10.3-3.8c-5.4-4.4-4.9-12,0.6-16l0.1-0.1l0.1-0.1l4.1-2.7c-21-7.8-38.7-30.3-38.7-30.3
		c-3.9-5.9-7.7-7.4-14.2-7.4l-54.6-2.7l-23.8-34.2c-1.1-1.5-3.5-1-3.8,0.8c0,0-20.5,60.3-6.3,85c1.4,2.5,3.1,4.8,5.1,6.8
		c2,1.9,4.7,4,2.6,7c-4.3,6.1-12.2-5.7-14.1-9c-3.5-6-5.3-12.9-6-19.8c-55.6,91.2,40.7,179.3,68.1,201.8
		C254.3,884.5,321.4,850.2,324.2,848.8C328.8,846.4,321.4,850.2,324.2,848.8z M303.1,778.5c1,1,1,2.7,0,3.7l-12.5,12.6
		c-2.4,2.4-6.1-1.3-3.7-3.7l12.5-12.6C300.4,777.5,302.1,777.5,303.1,778.5C304.1,779.5,302.1,777.5,303.1,778.5z M282.6,743.7
		c5.2-3.8,13.6,7.9,8.5,11.6C285.9,759.1,277.5,747.5,282.6,743.7z M275.6,767.9h20.7c3.4,0,3.4,5.3,0,5.3h-20.7
		C272.2,773.2,272.2,767.9,275.6,767.9z"/>
	<path class="st5" d="M530.4,288.8c0,0,31.6-33.8,27.8-88.5h-91.4C466.8,200.4,463.1,270.6,530.4,288.8z"/>
	<path class="st2" d="M477,587.2c-4.7-13-14.4-49.9,11-83.1c7.6-9.9,17.5-18,29.6-24.1c1.8-0.9,3.5-1.8,5.2-2.7
		c-16.9-19-39.2-32.5-66.5-40.4c-18.5-5.3-38.3-7.4-58.9-6.1c-13.9,0.9-31.5,3.1-45.2,8.6c-5.6,12.4-13.5,37.2-7.7,70.9
		c0.8,3.2,4.5,20.3-5.8,34.1c-8.1,10.8-22.3,16.3-42,16.3c-0.9,0-1.7,0-2.5,0c-5.2-0.1-30.7-0.5-58.2-3c13.7,12.7,40.7,31.3,81,31.7
		c1.4,0.1,31.1,1.2,46.6-24.1c0.4-0.7,11-18,28.6-21.3c1.9-0.4,3.9-0.5,5.8-0.5c8,0,15.9,3,23.7,9.1c1.3,1,27.5,20.8,36.5,63.5
		C463.8,605,470.2,595.5,477,587.2z"/>
	<path class="st5" d="M483,580.3c32.3-38.7,80.2-47.9,80.2-47.9c6.3-10.1,10.4-21.6,10.9-33.5c0.5-11.2-2-22.5-7.1-32.5
		c-1-1.9-2-4.1-4.5-4.2c-2.1-0.1-3.3,1.4-4.8,2.7c-3.2,2.8-6.8,5.2-10.5,7.6c-8,5.1-16.5,9.7-25,14c-10.9,5.5-20.7,12.8-28.1,22.5
		C473.6,535.9,478.7,566,483,580.3z"/>
	<path class="st3" d="M463.7,974.2c-1.9-6.6-1.6-12.9-0.7-18.2c-4.8-0.5-8.9-4-10.2-8.6c-0.7-2.3-0.5-4.8-1.2-7.1
		c-0.8-2.9-2.1-5.6-3.7-8.2c-3.1-4.9-16.8-15.5-22.3-23c-9.8-13.3-14.6-29.6-15.6-46c-0.3-5.3-0.2-10.7,0.4-16
		c-21.1-5.9-56.4-4.1-82.6,8.7c0,0-69.4,34.8-79.1,95.6c-1.4,8.1,3,15.5,10.8,18.1c9.7,3.3,21.1,0.8,30.6-1.8
		c-1.3,6,0.4,12.8,5.2,16.7c7.6,6.3,19.4,5.6,28.5,4.2c6.3-0.9,12.6-2.4,18.7-4.2c-0.9,5.9,3.2,10.6,8.6,12.2
		c8.7,2.6,18.8,0,27.2-2.4c2.3,5.1,8.4,7,13.6,7.2c8,0.2,15.9-3,23-6.5c7.3,3.8,16.8,3.1,24.3,0.2c10.2-3.9,18.2-11.8,24.7-20.3
		C463.9,974.7,463.8,974.5,463.7,974.2z"/>
	<path class="st5" d="M324.2,760.5c1.5,3.6,6.6,4.3,10,4.8c2.4,0.4,5.2,0.6,7.6-0.1c1-4.9-0.5-10.3-0.5-10.3c-1-2.8-3.5-6.2-6.9-5.4
		l-8.2,5.4C323.5,756.9,323.5,758.9,324.2,760.5C324.9,762.1,323.5,758.9,324.2,760.5z"/>
	<path class="st1" d="M261,470.7c0,8.4,6.9,15.3,15.3,15.3c6.8,0,12.5-4.4,14.5-10.4c-10.7-5.7-21.1-7.7-29.4-8.2
		C261.1,468.5,261,469.6,261,470.7z"/>
	<path class="st5" d="M562.7,540.6c0,0-112.3,25.1-116.1,156.1c0,0-0.5,34.3,9.6,68.3c16.7-3.1,34.1-4,50.8-0.5
		c1.4-2.4,3.7-4.3,6.4-5c3-0.8,5.8,0.1,8.6,1c5.8,1.8,11.5,3.9,17.1,6.5c9.3,4.2,18.1,9.6,25.9,16.1c9.7-8.4,18.2-18.2,25.7-28.6
		c5.3-7.3,10-14.9,14.3-22.8c1.1-2.1,2.3-4.2,3.3-6.4c1-2,2-4,1.5-6.3c-0.8-3.9-4-5-7.3-6.2c-12.4-4.7-24.9-11.3-33.9-21.3
		c-2.5-2.7-4.6-5.8-6.4-9c-0.5-0.9-1.3-2.2-0.2-3c1.1-0.9,2.2,0.3,3,1c6,4.7,12.4,8.9,19.2,12.4c18.4,9.3,39.1,12.4,59.6,10.4
		l11.4-53.7C655.3,649.4,582.9,632.7,562.7,540.6z M558.3,637.9c-5,0-9.1-4.1-9.1-9.1c0-5,4.1-9.1,9.1-9.1c5,0,9.1,4.1,9.1,9.1
		C567.4,633.8,563.2,637.9,558.3,637.9z"/>
	<path class="st3" d="M535.3,773.9c-5.3-2.4-10.8-4.3-16.3-6.1c-1.5-0.5-3.9-1.2-5,0.6c-1.2,2.1,0.9,4.9,1.6,6.8
		c-7.3-3.2-15.4-4.2-23.4-4.7c-8.6-0.6-17.2-0.2-25.8,0.9c-16.7,2.2-32.9,8.2-50,5.4c-2-0.3-5.1-0.5-5.5,2.2
		c-0.5,3.2,5.9,12.8,6.9,14.3c0.9,1.2,2.1,2.8,1.4,4.4c-0.9,2.1-3.9,1.3-5.7,1.3c-2.6,0-3.8,1.6-3.1,4.1c0.8,3.1,2.2,6.2,3.2,9.2
		c2.5,7.8,6,16.1,5.6,24.4c-0.3,6.6-1.9,21.1-1.6,25.4c0.6,8.4,2,16.8,4.9,24.8c2.6,7.3,6.5,14.3,11.5,20.3
		c4.8,5.8,11.1,10,16.2,15.5c2.6,2.9,4.9,6.2,6.6,9.7c0.8,1.7,2.8,9.2,3.2,11.2c0.6,3,2.3,4.7,5.4,4.4c2-0.2,4.5-1.8,6.5-1.3
		c2.9,0.7-0.5,6.9-0.9,8.6c-0.8,3.5-1.2,7.2-0.9,10.8c0.2,2.8,1.2,9.8,5.4,9c3.3-0.7,4.4-4.8,6.1-7.2c2.2-3.2,13.1-14,29.1-16.1
		c16-2.1,31.5-7.1,45.8-14.8c3.6-2,7.2-4.2,10.5-6.7c-6.9-2.2-13.7-5.9-18.2-11.7c-5.2-6.8-6.2-15.8-3-23.6c1.5-3.7,3.8-7,7.1-9.3
		c3.3-2.4,6.1-5.3,8.4-8.7c4.9-7.1,6.1-15.6,9.5-23.3c3.1-7,8.7-13.4,16.9-13.6c-1-10.2-3.9-19.6-9-28.5
		c-4.8-8.4-15.7-19.6-16.5-20.4C554.2,783.8,545.1,778.3,535.3,773.9z M524.7,866.6c-4.7,0-8.9-4.2-8.9-8.9c0-4.7,4.2-8.9,8.9-8.9
		c4.7,0,8.9,4.2,8.9,8.9C533.6,862.4,529.5,866.6,524.7,866.6z"/>
</g>
<g>
	<g>
		<g>
			<defs>
				<rect id="SVGID_1_" x="843.4" y="169.9" width="216.5" height="372.1"/>
			</defs>
			<clipPath id="SVGID_2_">
				<use xlink:href="#SVGID_1_"  style="overflow:visible;"/>
			</clipPath>
			<path class="st6" d="M923.8,283.1L923.8,283.1c0.4,0,0.8,0,1.2,0h0c0.3,0,0.7,0,1.1,0l0.2-22.2c-5.6,0.1-11.2,0.3-16.8,0
				c-4.6-0.3-9.5-1-13.6-3.1c-5.5-2.8-8.9-8.1-9.8-14.2c-0.2-1.4-0.4-2.9-0.3-4.3c0.1-1.2,1.2-2.1,2.4-1.5c1,0.5,0.9,1.4,0.9,2.3
				c-0.1,4.9,1.8,10,5.7,13.1c3.3,2.6,7.5,3.7,11.6,4.2c4.5,0.5,44.6,0.2,56.4,0.1c0.9,0,1.2-1.1,0.4-1.6c-3.2-2-6-4.7-8-7.9
				c-1.1-1.8-2.1-3.9-2.4-6.1c-0.2-2.1,2.9-2.7,3.3-0.5c0.1,0.4,0.2,0.8,0.3,1.2c0.7,2.3,2,4.5,3.5,6.3c0.4,0.5,0.9,1,1.4,1.4
				c5.2,4.9,12.6,6.7,19.5,5c6.2-1.5,12.2-3.9,17.5-7.5c2.1-1.4,4.1-3,5.9-4.8c-7.3-2.3-13.8-6.4-18.6-12.4
				c-4.3-5.3-7-11.8-8.3-18.5c-0.6-3-0.9-6.2-0.8-9.3h-66.6c-0.9-7.3-2.5-14.7-5.9-21.2c-1.9-3.6-4.4-7.1-7.7-9.6
				c-0.6-0.4-1.2-0.8-1.8-1.2c-0.3-0.2-0.7-0.4-1.1-0.5c-0.9-0.1-1.7,0.6-1.7,1.4l-0.3,28.7c0,2.7-4.1,3.1-4.6,0.4l-5.4-28.1
				c-0.1-0.6-0.5-1-1-1.2c-0.9-0.3-1.5,0.4-2,1c-1.4,1.5-2.6,3.2-3.7,5c-2.3,3.8-3.8,8-4.7,12.2c-2,8.7-1.9,17.9-0.9,26.8
				c0.5,4.1,1.1,8.2,2.1,12.2c-1.3,10.7-2.4,21.3-3.3,32.1c-0.8,10-1.4,20.1-1.8,30.2c-0.2,5.7-0.3,11.5-0.2,17.2
				c1.4-1.3,2.9-2.7,4.4-4C886.4,290.2,904.8,283.1,923.8,283.1 M974.7,226.9c2.5,0,2.5,3.9,0,3.9
				C972.2,230.7,972.2,226.9,974.7,226.9 M970.1,218.1c2.5,0,2.5,3.9,0,3.9C967.6,222,967.6,218.1,970.1,218.1 M964.6,226.9
				c2.5,0,2.5,3.9,0,3.9C962.1,230.7,962.1,226.9,964.6,226.9 M933.2,215.5c4.3,0,6.3,5.5,3,8.2c-3.3,2.8-8.4-0.2-7.6-4.4
				C929,217.2,931,215.5,933.2,215.5"/>
			<path class="st6" d="M1031,477c-0.4,0.1-0.7,0.2-1.1,0.3c-3.2,2-3.3,6.3-4.6,9.5c-1.4,3.5-3.7,6.6-6.8,8.8c-2.2,1.9-3,4.7-2,7.4
				c1.1,3.1,4.2,4.7,7.2,5.6c3,0.9,6.1,1.1,9.2,0.7c1.5-0.2,3-0.6,4.5-1.1c0.6-0.2,1.6-0.4,2-0.9c0.5-0.5,0.4-1.3-0.1-1.7
				c-2-1.6-5.5-1.8-8-1.2c-0.7,0-4.2,0.1-3.1-1.5c3.7-1.2,7.6-1.3,11.3-0.2c1.8,0.5,3.5,1.4,5.1,2.4c0.8,0.5,1.5,1,2.2,1.6
				c0.6,0.5,1.2,1.2,1.8,1.7c0.4,0.3,1,0.3,1.5,0c0.7-0.5,0.5-1.4,0.6-2.1c0-2.3-0.2-4.6-0.8-6.8c-1-4.4-3-8.5-5.6-12.1
				c-2.5-3.5-5.6-6.8-9.1-9.2C1034,477.4,1032.5,476.7,1031,477 M1033,486.2c1.7-1.7,6.1,2.7,4.4,4.4
				C1035.7,492.3,1031.3,487.9,1033,486.2"/>
			<path class="st7" d="M907.9,351.9c5,0,10.8-0.8,14.4-4.7c2.1-2.3,3.1-5.4,3.1-8.5c0-2.1-0.5-4.1-0.8-6.1
				c-1.2-8.4-0.7-17.2,1.9-25.3c1-3.1,2.2-6.3,4.1-9c0.9-1.3,1.9-2.4,2.4-3.9c0.4-1.2,0.6-2.4,0.4-3.7c-0.3-2.3-2.4-3.4-4.5-3.9
				c-3-0.7-6.3-0.5-9.4-0.3c-15.9,0.9-30.9,7.3-43.4,17c-6,4.7-11.4,10.1-16.2,16c-1.1,1.4-2.2,2.8-3.2,4.2
				c-0.9,1.2-1.8,2.5-2.3,3.9c-1,2.7-0.9,5.6,0.6,8.1c0.3,0.4,0.5,0.8,0.9,1.2c-1.6,0.2-3,1-3.6,2.6c-0.6,1.5-0.2,3.2,0.9,4.4
				c1.2,1.3,3.3,2,4.9,2.6c4.3,1.5,8.9,2.3,13.5,2.9c9.6,1.4,19.4,2,29.1,2.4C903.1,351.8,905.5,351.9,907.9,351.9 M867.2,329.9
				c-0.9,2.3-4.5,1-3.6-1.4C864.4,326.2,868.1,327.5,867.2,329.9 M899.3,327.6c-6.3,0-11.2-5.7-10.4-11.9c-1.2,0.1-2.4,0.2-3.3-0.8
				c-1.1-1.1-1-2.5-0.4-3.7c1.1-2.3,2.5-4.4,4.3-6.2c2.4-2.4,5.6-4,9-4.5c3.8-0.5,7.6,0.5,10.8,2.7c3.2,2.3,5.2,5.8,5.7,9.7
				c0.3,2.1,0.2,4.2-0.2,6.2c-0.2,1.2-0.5,2.3-1.7,3c-1.5,0.8-2.8,0.1-4-0.8C907.3,325.1,903.5,327.6,899.3,327.6"/>
			<path class="st8" d="M909.8,319.2c0.5,0.4,1.4,1.4,2.1,0.9c0.5-0.4,0.5-1.5,0.6-2.1c0.3-2.1,0.3-4.3-0.2-6.4
				c-1.1-4.6-4.7-7.8-9.2-8.6c-11.3-2-16,9-16.1,9.6c-0.1,0.7,0.4,1,0.7,1c0.7,0,1.5-0.1,2.2-0.2c3.2-0.1,6.5,0.2,9.6,1
				C903.2,315.4,906.7,317,909.8,319.2C910.2,319.5,909.7,319.2,909.8,319.2"/>
			<path class="st9" d="M884.2,414.5l-7.7-14.2c-0.2-0.5-0.9-0.4-1.1,0.1l-2,8.2l3.8,5.5L884.2,414.5z"/>
			<path class="st9" d="M919.7,477.3c2-1,3.9-1.9,5.9-2.6l-7-5l-15,5.8c-6.6,2.3-13.9,2.7-20.4-0.1c-3.8-1.6-7.2-4.2-9.8-7.3
				c-0.8-0.9-1.7-2.1-0.5-3.2c1.4-1.2,2.3,0.2,3.1,1.2c2,2.5,4.7,4.5,7.6,5.9c5.9,2.8,12.7,2.6,18.8,0.4c8.9-3.1,16.6-6.7,22.5-11.1
				c2.5-2,2.1-4.2,1.4-5.5c-2,1-5.2,2-8.9,2c-1.1,0-2.6,0-2.7-1.8c0-0.4,0.1-0.8,0.3-1.1c0.5-0.6,1.1-0.6,1.7-0.6c1,0.1,2,0.1,3,0
				c1.4-0.2,6.9-0.5,7.3-5.6c0.1-1.6,0.2-3.1,0.1-4.6c-1.3,0.3-2.7,0.2-4.1,0c-1.5-0.3-3.2-0.6-4.4-1.6c-2.3-1.9-2.1-5.1,0.3-6.8
				l0,0l0,0l1.7-1.1c-8.9-3.3-16.4-12.8-16.4-12.8c-1.7-2.5-3.3-3.1-6-3.1l-23.1-1.2l-10.1-14.5c-0.5-0.7-1.5-0.4-1.6,0.3
				c0,0-8.7,25.5-2.7,36c0.6,1,1.3,2,2.2,2.9c0.8,0.8,2,1.7,1.1,3c-1.8,2.6-5.2-2.4-6-3.8c-1.5-2.5-2.3-5.5-2.6-8.4
				c-23.6,38.6,17.2,76,28.8,85.5C890,492.4,918.4,477.9,919.7,477.3C921.6,476.3,918.4,477.9,919.7,477.3 M910.7,447.5
				c0.4,0.4,0.4,1.1,0,1.6l-5.3,5.3c-1,1-2.6-0.6-1.6-1.6l5.3-5.3C909.5,447.1,910.3,447.1,910.7,447.5
				C911.1,447.9,910.3,447.1,910.7,447.5 M902,432.8c2.2-1.6,5.8,3.3,3.6,4.9C903.4,439.3,899.8,434.4,902,432.8 M899.1,443h8.7
				c1.4,0,1.4,2.2,0,2.2h-8.7C897.6,445.3,897.6,443,899.1,443"/>
			<path class="st10" d="M1007,240c0,0,13.4-14.3,11.8-37.5h-38.7C980.1,202.6,978.5,232.3,1007,240"/>
			<path class="st7" d="M984.4,366.5c-2-5.5-6.1-21.1,4.7-35.2c3.2-4.2,7.4-7.6,12.5-10.2c0.8-0.4,1.5-0.8,2.2-1.1
				c-7.2-8-16.6-13.8-28.2-17.1c-7.8-2.3-16.2-3.1-25-2.6c-5.9,0.4-13.4,1.3-19.1,3.6c-2.4,5.2-5.7,15.7-3.2,30
				c0.3,1.4,1.9,8.6-2.5,14.4c-3.4,4.6-9.4,6.9-17.8,6.9c-0.4,0-0.7,0-1.1,0c-2.2,0-13-0.2-24.7-1.3c5.8,5.4,17.2,13.3,34.3,13.4
				c0.6,0,13.2,0.5,19.7-10.2c0.2-0.3,4.7-7.6,12.1-9c0.8-0.2,1.6-0.2,2.5-0.2c3.4,0,6.7,1.3,10.1,3.9c0.6,0.4,11.6,8.8,15.5,26.9
				C978.8,374,981.5,370,984.4,366.5"/>
			<path class="st10" d="M986.9,363.5c13.7-16.4,34-20.3,34-20.3c2.7-4.3,4.4-9.1,4.6-14.2c0.2-4.8-0.9-9.5-3-13.8
				c-0.4-0.8-0.8-1.7-1.9-1.8c-0.9,0-1.4,0.6-2,1.1c-1.4,1.2-2.9,2.2-4.4,3.2c-3.4,2.2-7,4.1-10.6,5.9c-4.6,2.4-8.8,5.4-11.9,9.5
				C982.9,344.7,985.1,357.5,986.9,363.5"/>
			<path class="st8" d="M978.8,530.5c-0.8-2.8-0.7-5.5-0.3-7.7c-2-0.2-3.8-1.7-4.3-3.6c-0.3-1-0.2-2-0.5-3c-0.3-1.2-0.9-2.4-1.6-3.5
				c-1.3-2.1-7.1-6.6-9.4-9.8c-4.1-5.6-6.2-12.6-6.6-19.5c-0.1-2.3-0.1-4.5,0.2-6.8c-8.9-2.5-23.9-1.7-35,3.7
				c0,0-29.4,14.7-33.5,40.5c-0.6,3.4,1.3,6.6,4.6,7.7c4.1,1.4,8.9,0.3,13-0.8c-0.6,2.5,0.2,5.4,2.2,7.1c3.2,2.7,8.2,2.4,12.1,1.8
				c2.7-0.4,5.3-1,7.9-1.8c-0.4,2.5,1.4,4.5,3.7,5.2c3.7,1.1,8,0,11.5-1c1,2.1,3.6,3,5.8,3c3.4,0.1,6.8-1.3,9.7-2.7
				c3.1,1.6,7.1,1.3,10.3,0.1c4.3-1.7,7.7-5,10.5-8.6C978.8,530.6,978.8,530.5,978.8,530.5"/>
			<path class="st10" d="M919.6,439.9c0.6,1.5,2.8,1.8,4.2,2.1c1,0.2,2.2,0.3,3.2,0c0.4-2.1-0.2-4.4-0.2-4.4
				c-0.4-1.2-1.5-2.6-2.9-2.3l-3.5,2.3C919.3,438.4,919.3,439.2,919.6,439.9C919.9,440.6,919.3,439.2,919.6,439.9"/>
			<path class="st6" d="M892.9,317.1c0,3.6,2.9,6.5,6.5,6.5c2.9,0,5.3-1.9,6.1-4.4c-4.5-2.4-9-3.3-12.5-3.5
				C892.9,316.2,892.9,316.6,892.9,317.1"/>
			<path class="st10" d="M1020.7,346.7c0,0-47.6,10.7-49.2,66.1c0,0-0.2,14.5,4.1,28.9c7.1-1.3,14.5-1.7,21.5-0.2
				c0.6-1,1.6-1.8,2.7-2.1c1.3-0.3,2.4,0.1,3.7,0.4c2.5,0.8,4.9,1.7,7.2,2.7c3.9,1.8,7.7,4.1,11,6.8c4.1-3.6,7.7-7.7,10.9-12.1
				c2.2-3.1,4.3-6.3,6.1-9.7c0.5-0.9,1-1.8,1.4-2.7c0.4-0.9,0.8-1.7,0.6-2.7c-0.3-1.7-1.7-2.1-3.1-2.6c-5.3-2-10.6-4.8-14.4-9
				c-1-1.2-2-2.4-2.7-3.8c-0.2-0.4-0.6-0.9-0.1-1.3c0.5-0.4,0.9,0.1,1.3,0.4c2.6,2,5.2,3.8,8.1,5.3c7.8,3.9,16.6,5.3,25.2,4.4
				l4.8-22.8C1059.9,392.8,1029.2,385.7,1020.7,346.7 M1018.8,387.9c-2.1,0-3.9-1.8-3.9-3.9c0-2.1,1.8-3.9,3.9-3.9
				c2.1,0,3.9,1.8,3.9,3.9C1022.7,386.2,1020.9,387.9,1018.8,387.9"/>
			<path class="st8" d="M1009.1,445.6c-2.2-1-4.6-1.8-6.9-2.6c-0.7-0.2-1.7-0.5-2.1,0.2c-0.5,0.9,0.4,2.1,0.7,2.9
				c-3.1-1.4-6.5-1.8-9.9-2c-3.6-0.2-7.3-0.1-10.9,0.4c-7.1,0.9-13.9,3.5-21.2,2.3c-0.9-0.1-2.2-0.2-2.3,0.9
				c-0.2,1.4,2.5,5.4,2.9,6.1c0.4,0.5,0.9,1.2,0.6,1.9c-0.4,0.9-1.7,0.6-2.4,0.5c-1.1,0-1.6,0.7-1.3,1.7c0.3,1.3,0.9,2.6,1.4,3.9
				c1.1,3.3,2.5,6.8,2.4,10.3c-0.1,2.8-0.8,8.9-0.7,10.8c0.2,3.6,0.9,7.1,2.1,10.5c1.1,3.1,2.7,6,4.9,8.6c2,2.4,4.7,4.2,6.9,6.6
				c1.1,1.2,2.1,2.6,2.8,4.1c0.3,0.7,1.2,3.9,1.3,4.8c0.2,1.3,1,2,2.3,1.9c0.9-0.1,1.9-0.8,2.8-0.5c1.2,0.3-0.2,2.9-0.4,3.7
				c-0.4,1.5-0.5,3.1-0.4,4.6c0.1,1.2,0.5,4.2,2.3,3.8c1.4-0.3,1.9-2,2.6-3c0.9-1.3,5.6-5.9,12.3-6.8c6.8-0.9,13.3-3,19.4-6.3
				c1.5-0.8,3-1.8,4.4-2.8c-2.9-0.9-5.8-2.5-7.7-5c-2.2-2.9-2.6-6.7-1.3-10c0.7-1.6,1.6-3,3-4c1.4-1,2.6-2.3,3.6-3.7
				c2.1-3,2.6-6.6,4-9.9c1.3-3,3.7-5.7,7.2-5.8c-0.4-4.3-1.6-8.3-3.8-12.1c-2-3.6-6.6-8.3-7-8.6
				C1017.1,449.8,1013.2,447.4,1009.1,445.6 M1004.6,484.8c-2,0-3.8-1.8-3.8-3.8c0-2,1.8-3.8,3.8-3.8c2,0,3.8,1.8,3.8,3.8
				C1008.4,483.1,1006.6,484.8,1004.6,484.8"/>
		</g>
		<g>
			<path class="st11" d="M1102.6,233h-0.7c-0.5,0-0.9-0.2-1-0.8l-1.6-7.3h-8.5l-1.6,7.3c-0.1,0.6-0.5,0.8-1,0.8h-0.5
				c-0.6,0-0.9-0.4-0.8-1l6.6-29.6c0.1-0.6,0.4-0.8,1-0.8h1.1c0.5,0,0.9,0.2,1,0.8l6.7,29.6C1103.6,232.6,1103.3,233,1102.6,233z
				 M1098.9,222.7l-3.7-17.3l-3.8,17.3H1098.9z"/>
			<path class="st11" d="M1109.8,233h-0.5c-0.6,0-0.9-0.3-0.9-0.9v-29.6c0-0.6,0.4-0.9,0.9-0.9h0.8c0.5,0,0.9,0.2,1,0.7l10,25v-24.8
				c0-0.6,0.3-0.9,0.9-0.9h0.5c0.6,0,0.9,0.3,0.9,0.9v29.6c0,0.6-0.4,0.9-0.9,0.9h-0.7c-0.5,0-0.9-0.2-1-0.7l-10.2-25.2v25
				C1110.7,232.7,1110.4,233,1109.8,233z"/>
			<path class="st11" d="M1131.8,233h-0.6c-0.6,0-0.9-0.3-0.9-0.9v-29.6c0-0.6,0.4-0.9,0.9-0.9h0.6c0.6,0,0.9,0.3,0.9,0.9v29.6
				C1132.7,232.7,1132.3,233,1131.8,233z"/>
			<path class="st11" d="M1150.8,226.9c-0.2,0.5-0.5,0.8-0.9,0.8c-0.5,0-0.8-0.3-1-0.8l-7.1-19.2v24.4c0,0.6-0.3,0.9-0.9,0.9h-0.4
				c-0.6,0-0.9-0.3-0.9-0.9v-29.6c0-0.6,0.4-0.9,0.9-0.9h0.7c0.5,0,0.9,0.3,1,0.8l7.6,21l7.7-21c0.2-0.5,0.6-0.8,1.1-0.8h0.8
				c0.6,0,0.9,0.3,0.9,0.9v29.6c0,0.6-0.4,0.9-0.9,0.9h-0.5c-0.6,0-0.9-0.3-0.9-0.9v-24.4L1150.8,226.9z"/>
			<path class="st11" d="M1180.8,233h-0.7c-0.5,0-0.9-0.2-1-0.8l-1.6-7.3h-8.5l-1.6,7.3c-0.1,0.6-0.4,0.8-1,0.8h-0.5
				c-0.6,0-0.9-0.4-0.8-1l6.6-29.6c0.1-0.6,0.4-0.8,1-0.8h1.1c0.5,0,0.9,0.2,1,0.8l6.7,29.6C1181.8,232.6,1181.5,233,1180.8,233z
				 M1177.1,222.7l-3.7-17.3l-3.8,17.3H1177.1z"/>
			<path class="st11" d="M1198.4,231.6v0.4c0,0.6-0.4,0.9-0.9,0.9h-9.9c-0.6,0-0.9-0.3-0.9-0.9v-29.6c0-0.6,0.4-0.9,0.9-0.9h0.6
				c0.6,0,0.9,0.3,0.9,0.9v28.3h8.4C1198.1,230.7,1198.4,231,1198.4,231.6z"/>
			<path class="st11" d="M1234.4,202.5l-5,29.6c-0.1,0.5-0.4,0.9-1,0.9h-0.7c-0.5,0-0.9-0.3-1-0.8l-5.3-25.9l-5.4,25.9
				c-0.1,0.6-0.4,0.8-0.9,0.8h-0.8c-0.5,0-0.9-0.3-1-0.9l-5-29.6c-0.1-0.6,0.2-1,0.9-1h0.6c0.5,0,0.9,0.3,1,0.9l4.1,25.7l5.2-25.7
				c0.1-0.5,0.5-0.8,1-0.8h0.7c0.5,0,0.9,0.3,1,0.8l5.2,25.7l4.2-25.7c0.1-0.5,0.4-0.9,0.9-0.9h0.5
				C1234.2,201.5,1234.5,201.9,1234.4,202.5z"/>
			<path class="st11" d="M1250.9,233h-10.6c-0.6,0-0.9-0.3-0.9-0.9v-29.6c0-0.6,0.4-0.9,0.9-0.9h10.5c0.6,0,0.9,0.3,0.9,0.9v0.4
				c0,0.6-0.4,0.9-0.9,0.9h-9v12.1h7.6c0.6,0,0.9,0.4,0.9,0.9v0.4c0,0.6-0.4,0.9-0.9,0.9h-7.6v12.6h9.1c0.6,0,0.9,0.4,0.9,0.9v0.4
				C1251.8,232.7,1251.5,233,1250.9,233z"/>
			<path class="st11" d="M1268.7,231.6v0.4c0,0.6-0.4,0.9-0.9,0.9h-9.9c-0.6,0-0.9-0.3-0.9-0.9v-29.6c0-0.6,0.4-0.9,0.9-0.9h0.6
				c0.6,0,0.9,0.3,0.9,0.9v28.3h8.4C1268.3,230.7,1268.7,231,1268.7,231.6z"/>
			<path class="st11" d="M1273.2,232.1v-29.6c0-0.6,0.4-0.9,0.9-0.9h10.3c0.6,0,0.9,0.3,0.9,0.9v0.4c0,0.6-0.4,0.9-0.9,0.9h-8.8
				v12.4h7.4c0.6,0,0.9,0.4,0.9,0.9v0.4c0,0.6-0.4,0.9-0.9,0.9h-7.4v13.7c0,0.6-0.3,0.9-0.9,0.9h-0.6
				C1273.6,233,1273.2,232.7,1273.2,232.1z"/>
			<path class="st11" d="M1302.5,233h-0.7c-0.5,0-0.9-0.2-1-0.8l-1.6-7.3h-8.5l-1.6,7.3c-0.1,0.6-0.4,0.8-1,0.8h-0.5
				c-0.6,0-0.9-0.4-0.8-1l6.6-29.6c0.1-0.6,0.4-0.8,1-0.8h1.1c0.5,0,0.9,0.2,1,0.8l6.7,29.6C1303.4,232.6,1303.1,233,1302.5,233z
				 M1298.8,222.7l-3.7-17.3l-3.8,17.3H1298.8z"/>
			<path class="st11" d="M1322.7,233h-0.7c-0.5,0-0.9-0.2-1-0.8l-4.9-12.8h-0.5h-5v12.7c0,0.6-0.3,0.9-0.9,0.9h-0.6
				c-0.6,0-0.9-0.3-0.9-0.9v-29.6c0-0.6,0.4-0.9,0.9-0.9h6.5c4.8,0,7.2,2.2,7.2,6.6v4.6c0,3.4-1.4,5.5-4.3,6.3l5,12.8
				C1323.7,232.5,1323.4,233,1322.7,233z M1320.4,212v-3c0-3.7-1.4-5.2-4.9-5.2h-4.8v13.4h4.8C1319,217.2,1320.4,215.7,1320.4,212z"
				/>
			<path class="st11" d="M1340.7,233h-10.6c-0.6,0-0.9-0.3-0.9-0.9v-29.6c0-0.6,0.4-0.9,0.9-0.9h10.5c0.6,0,0.9,0.3,0.9,0.9v0.4
				c0,0.6-0.4,0.9-0.9,0.9h-9v12.1h7.6c0.6,0,0.9,0.4,0.9,0.9v0.4c0,0.6-0.4,0.9-0.9,0.9h-7.6v12.6h9.1c0.6,0,0.9,0.4,0.9,0.9v0.4
				C1341.6,232.7,1341.2,233,1340.7,233z"/>
			<path class="st11" d="M1348.5,213.7v1.4c0,0.6-0.4,0.9-0.9,0.9h-0.8c-0.6,0-0.9-0.3-0.9-0.9v-1.4c0-0.6,0.4-0.9,0.9-0.9h0.8
				C1348.2,212.8,1348.5,213.1,1348.5,213.7z M1348.5,230.6v1.4c0,0.6-0.4,0.9-0.9,0.9h-0.8c-0.6,0-0.9-0.3-0.9-0.9v-1.4
				c0-0.6,0.4-0.9,0.9-0.9h0.8C1348.2,229.7,1348.5,230,1348.5,230.6z"/>
		</g>
		<g>
			<path class="st11" d="M1104,256.3h-0.7c-0.6,0-1.1-0.4-1.1-1.1v-3.7c0-4.1-1.5-5.9-5.5-5.9c-4,0-5.5,1.8-5.5,5.9v2.6
				c0,2.8,1,3.5,3.8,5l5.7,3.1c2.6,1.4,4.5,3.5,4.5,6.3v4.8c0,5.3-2.7,7.8-8.3,7.8h-0.1c-5.6,0-8.3-2.4-8.3-7.8v-4.9
				c0-0.7,0.4-1.1,1.1-1.1h0.7c0.6,0,1.1,0.4,1.1,1.1v4.1c0,4,1.5,6,5.5,6s5.5-2,5.5-6v-3c0-2.8-1.1-3.7-3.9-5.3l-5.6-3
				c-3.1-1.8-4.4-3.2-4.4-6.2v-4.3c0-5.1,3.2-7.6,8.3-7.6h0.1c5.1,0,8.3,2.5,8.3,7.6v4.5C1105.1,255.9,1104.7,256.3,1104,256.3z"/>
			<path class="st11" d="M1128.3,280.6h-0.8c-0.6,0-1-0.3-1.2-1l-1.9-8.6h-10l-1.9,8.6c-0.1,0.7-0.5,1-1.2,1h-0.6
				c-0.7,0-1.1-0.4-1-1.2l7.9-35c0.1-0.7,0.5-1,1.2-1h1.3c0.6,0,1.1,0.3,1.2,1l8,35C1129.5,280.2,1129.1,280.6,1128.3,280.6z
				 M1123.9,268.5l-4.4-20.5l-4.5,20.5H1123.9z"/>
			<path class="st11" d="M1135.1,279.5v-35c0-0.7,0.4-1.1,1.1-1.1h12.2c0.7,0,1.1,0.4,1.1,1.1v0.5c0,0.7-0.4,1.1-1.1,1.1H1138v14.6
				h8.8c0.7,0,1.1,0.4,1.1,1.1v0.4c0,0.7-0.4,1.1-1.1,1.1h-8.8v16.2c0,0.7-0.4,1.1-1.1,1.1h-0.7
				C1135.6,280.6,1135.1,280.2,1135.1,279.5z"/>
			<path class="st11" d="M1168.4,280.6h-12.5c-0.7,0-1.1-0.4-1.1-1.1v-35c0-0.7,0.4-1.1,1.1-1.1h12.4c0.7,0,1.1,0.4,1.1,1.1v0.5
				c0,0.7-0.4,1.1-1.1,1.1h-10.6v14.3h9c0.7,0,1.1,0.4,1.1,1.1v0.4c0,0.7-0.4,1.1-1.1,1.1h-9V278h10.8c0.7,0,1.1,0.4,1.1,1.1v0.5
				C1169.5,280.2,1169.1,280.6,1168.4,280.6z"/>
			<path class="st11" d="M1192.7,263.3v9.9c0,5.3-2.9,7.9-8.5,7.9h-0.4c-5.6,0-8.5-2.5-8.5-7.9v-22.3c0-5.1,2.9-7.9,8.5-7.9h0.4
				c5.6,0,8.5,2.8,8.5,7.9v3.8c0,0.7-0.4,1.1-1.1,1.1h-0.7c-0.7,0-1.1-0.4-1.1-1.1v-2.8c0-4.4-1.6-6.2-5.8-6.2
				c-4.2,0-5.8,1.8-5.8,6.2v20.4c0,4.4,1.6,6.2,5.8,6.2c4.2,0,5.8-1.8,5.8-6.2v-7.4h-5c-0.7,0-1.1-0.4-1.1-1.1v-0.5
				c0-0.6,0.4-1.1,1.1-1.1h6.7C1192.3,262.2,1192.7,262.6,1192.7,263.3z"/>
			<path class="st11" d="M1217,244.5v28.7c0,5.3-2.8,7.9-8.4,7.9h-0.2c-5.6,0-8.4-2.5-8.4-7.9v-28.7c0-0.7,0.4-1.1,1.1-1.1h0.7
				c0.7,0,1.1,0.4,1.1,1.1v27.7c0,4.4,1.4,6.2,5.6,6.2c4.2,0,5.6-1.8,5.6-6.2v-27.7c0-0.7,0.4-1.1,1.1-1.1h0.7
				C1216.6,243.4,1217,243.8,1217,244.5z"/>
			<path class="st11" d="M1240.9,280.6h-0.8c-0.6,0-1-0.3-1.2-1l-1.9-8.6h-10l-1.9,8.6c-0.1,0.7-0.5,1-1.2,1h-0.6
				c-0.7,0-1.1-0.4-1-1.2l7.9-35c0.1-0.7,0.5-1,1.2-1h1.3c0.6,0,1.1,0.3,1.2,1l8,35C1242,280.2,1241.6,280.6,1240.9,280.6z
				 M1236.5,268.5l-4.4-20.5l-4.5,20.5H1236.5z"/>
			<path class="st11" d="M1264.8,280.6h-0.8c-0.6,0-1-0.3-1.2-0.9l-5.8-15.1h-0.6h-5.9v15c0,0.7-0.4,1.1-1.1,1.1h-0.7
				c-0.7,0-1.1-0.4-1.1-1.1v-35c0-0.7,0.4-1.1,1.1-1.1h7.6c5.6,0,8.5,2.7,8.5,7.9v5.4c0,4-1.7,6.5-5.1,7.4l5.9,15.2
				C1265.9,280.1,1265.6,280.6,1264.8,280.6z M1262,255.8v-3.6c0-4.4-1.6-6.2-5.8-6.2h-5.7V262h5.7
				C1260.4,262,1262,260.2,1262,255.8z"/>
			<path class="st11" d="M1289.5,251.3v21.4c0,5.2-2.9,7.9-8.5,7.9h-7.5c-0.7,0-1.1-0.4-1.1-1.1v-35c0-0.7,0.4-1.1,1.1-1.1h7.5
				C1286.6,243.4,1289.5,246.1,1289.5,251.3z M1280.8,246.1h-5.6V278h5.6c4.2,0,5.8-1.8,5.8-6.2v-19.5
				C1286.6,247.9,1285,246.1,1280.8,246.1z"/>
			<path class="st11" d="M1299.1,280.6h-0.7c-0.7,0-1.1-0.4-1.1-1.1v-35c0-0.7,0.4-1.1,1.1-1.1h0.7c0.7,0,1.1,0.4,1.1,1.1v35
				C1300.2,280.2,1299.8,280.6,1299.1,280.6z"/>
			<path class="st11" d="M1309.9,280.6h-0.6c-0.7,0-1.1-0.4-1.1-1.1v-35c0-0.7,0.4-1.1,1.1-1.1h1c0.6,0,1,0.3,1.2,0.8l11.8,29.5
				v-29.3c0-0.7,0.4-1.1,1.1-1.1h0.6c0.7,0,1.1,0.4,1.1,1.1v35c0,0.7-0.4,1.1-1.1,1.1h-0.8c-0.6,0-1.1-0.3-1.2-0.8l-12-29.7v29.5
				C1311,280.2,1310.6,280.6,1309.9,280.6z"/>
			<path class="st11" d="M1351.1,263.3v9.9c0,5.3-2.9,7.9-8.5,7.9h-0.4c-5.6,0-8.5-2.5-8.5-7.9v-22.3c0-5.1,2.9-7.9,8.5-7.9h0.4
				c5.6,0,8.5,2.8,8.5,7.9v3.8c0,0.7-0.4,1.1-1.1,1.1h-0.7c-0.7,0-1.1-0.4-1.1-1.1v-2.8c0-4.4-1.6-6.2-5.8-6.2
				c-4.2,0-5.8,1.8-5.8,6.2v20.4c0,4.4,1.6,6.2,5.8,6.2c4.2,0,5.8-1.8,5.8-6.2v-7.4h-5c-0.7,0-1.1-0.4-1.1-1.1v-0.5
				c0-0.6,0.4-1.1,1.1-1.1h6.7C1350.7,262.2,1351.1,262.6,1351.1,263.3z"/>
		</g>
		<g>
			<path class="st11" d="M1118.8,296v1.6c0,2.1-1,3.1-3.1,3.1h-8.5v55.6c0,2-1.1,3.1-3.1,3.1h-2.7c-2,0-3.1-1.1-3.1-3.1v-55.6h-8.5
				c-2,0-3.1-1-3.1-3.1V296c0-2,1.1-3.1,3.1-3.1h25.9C1117.7,292.9,1118.8,294,1118.8,296z"/>
			<path class="st11" d="M1129.5,292.9h2.7c2,0,3.1,1.1,3.1,3.1v25.6h15.7V296c0-2,1.1-3.1,3.1-3.1h2.7c2.1,0,3.1,1.1,3.1,3.1v60.4
				c0,2-1,3.1-3.1,3.1h-2.7c-2,0-3.1-1.1-3.1-3.1v-26.8h-15.7v26.8c0,2-1.1,3.1-3.1,3.1h-2.7c-2.1,0-3.1-1.1-3.1-3.1V296
				C1126.4,294,1127.4,292.9,1129.5,292.9z"/>
			<path class="st11" d="M1197.3,359.6h-22.1c-2.1,0-3.1-1.1-3.1-3.1V296c0-2,1-3.1,3.1-3.1h21.8c2.1,0,3.1,1.1,3.1,3.1v1.6
				c0,2.1-1,3.1-3.1,3.1h-16v21h13.1c2.1,0,3.1,1.1,3.1,3.1v1.7c0,2-1,3.1-3.1,3.1H1181v21.9h16.3c2.1,0,3.1,1,3.1,3.1v1.6
				C1200.4,358.4,1199.4,359.6,1197.3,359.6z"/>
			<path class="st11" d="M1226.4,356.4V296c0-2,1-3.1,3.1-3.1h21.4c2.1,0,3.1,1.1,3.1,3.1v1.6c0,2.1-1,3.1-3.1,3.1h-15.6v21.4h12.7
				c2.1,0,3.1,1.1,3.1,3.1v1.7c0,2-1,3.1-3.1,3.1h-12.7v26.2c0,2-1.1,3.1-3.1,3.1h-2.7C1227.5,359.6,1226.4,358.4,1226.4,356.4z"/>
			<path class="st11" d="M1268.4,359.6h-2.7c-2.1,0-3.1-1.1-3.1-3.1V296c0-2,1-3.1,3.1-3.1h2.7c2,0,3.1,1.1,3.1,3.1v60.4
				C1271.5,358.4,1270.4,359.6,1268.4,359.6z"/>
			<path class="st11" d="M1315.5,296.3l-12,60.4c-0.3,1.9-1.5,2.9-3.4,2.9h-4c-1.9,0-3.1-1-3.4-2.9l-12-60.4
				c-0.4-2.2,0.7-3.4,2.8-3.4h2.8c1.9,0,3.1,1,3.4,2.9l8.7,49.5l8.8-49.5c0.3-1.9,1.5-2.9,3.3-2.9h2.4
				C1314.9,292.9,1316,294.1,1315.5,296.3z"/>
			<path class="st11" d="M1349.5,359.6h-22.1c-2.1,0-3.1-1.1-3.1-3.1V296c0-2,1-3.1,3.1-3.1h21.8c2.1,0,3.1,1.1,3.1,3.1v1.6
				c0,2.1-1,3.1-3.1,3.1h-16v21h13.1c2.1,0,3.1,1.1,3.1,3.1v1.7c0,2-1,3.1-3.1,3.1h-13.1v21.9h16.3c2.1,0,3.1,1,3.1,3.1v1.6
				C1352.7,358.4,1351.6,359.6,1349.5,359.6z"/>
		</g>
		<g>
			<path class="st11" d="M1125.7,450.8h-3.1c-2.1,0-3.4-1.1-3.8-3.2l-2.6-14.4H1100l-2.6,14.4c-0.3,2.1-1.7,3.2-3.7,3.2h-2.7
				c-2.4,0-3.5-1.4-3.1-3.8l13.5-67.7c0.4-2.1,1.8-3.2,3.8-3.2h6c2,0,3.4,1.1,3.8,3.2l13.7,67.7
				C1129.3,449.4,1128,450.8,1125.7,450.8z M1114.7,424.7l-6.5-36.1l-6.5,36.1H1114.7z"/>
			<path class="st11" d="M1144.1,450.8h-2.2c-2.4,0-3.5-1.3-3.5-3.5v-67.7c0-2.2,1.2-3.5,3.5-3.5h3.5c2,0,3.4,1,4.1,2.9l17.7,48.6
				v-48c0-2.2,1.3-3.5,3.5-3.5h2.2c2.4,0,3.5,1.3,3.5,3.5v67.7c0,2.2-1.2,3.5-3.5,3.5h-3.1c-2,0-3.3-1-4-2.9l-18.3-50.3v49.7
				C1147.6,449.5,1146.3,450.8,1144.1,450.8z"/>
			<path class="st11" d="M1196.7,450.8h-3c-2.4,0-3.5-1.3-3.5-3.5v-67.7c0-2.2,1.2-3.5,3.5-3.5h3c2.2,0,3.5,1.3,3.5,3.5v67.7
				C1200.3,449.5,1199,450.8,1196.7,450.8z"/>
			<path class="st11" d="M1243.4,436.3c-0.5,2-1.8,2.9-3.7,2.9c-1.9,0-3.2-0.9-3.8-2.9l-12.4-36.4v47.3c0,2.2-1.3,3.5-3.6,3.5h-2.2
				c-2.4,0-3.5-1.3-3.5-3.5v-67.7c0-2.2,1.2-3.5,3.5-3.5h3c2,0,3.4,1,4.1,2.9l15,43.6l15.2-43.6c0.6-1.9,1.9-2.9,4-2.9h3.4
				c2.3,0,3.5,1.3,3.5,3.5v67.7c0,2.2-1.2,3.5-3.5,3.5h-2.7c-2.2,0-3.5-1.3-3.5-3.5v-47.3L1243.4,436.3z"/>
			<path class="st11" d="M1313,450.8h-3.1c-2.1,0-3.4-1.1-3.8-3.2l-2.6-14.4h-16.1l-2.6,14.4c-0.3,2.1-1.7,3.2-3.7,3.2h-2.7
				c-2.4,0-3.5-1.4-3.1-3.8l13.5-67.7c0.4-2.1,1.8-3.2,3.8-3.2h6c2,0,3.4,1.1,3.8,3.2l13.7,67.7
				C1316.6,449.4,1315.3,450.8,1313,450.8z M1302,424.7l-6.5-36.1l-6.5,36.1H1302z"/>
			<path class="st11" d="M1355.8,445.2v2c0,2.2-1.2,3.5-3.5,3.5h-23.2c-2.4,0-3.5-1.3-3.5-3.5v-67.7c0-2.2,1.2-3.5,3.5-3.5h3
				c2.2,0,3.5,1.3,3.5,3.5v62.2h16.7C1354.7,441.7,1355.8,443,1355.8,445.2z"/>
		</g>
		<g>
			<path class="st11" d="M1090.1,518.3v-49.6c0-1.6,0.9-2.6,2.6-2.6h17.6c1.7,0,2.6,0.9,2.6,2.6v1.3c0,1.7-0.9,2.6-2.6,2.6h-12.8
				v17.6h10.4c1.7,0,2.6,0.9,2.6,2.6v1.4c0,1.6-0.9,2.6-2.6,2.6h-10.4v21.5c0,1.6-0.9,2.6-2.6,2.6h-2.2
				C1091,520.8,1090.1,519.9,1090.1,518.3z"/>
			<path class="st11" d="M1143.9,520.8h-2.2c-1.5,0-2.4-0.6-2.9-2.1l-6.9-20.3h-0.1h-6.3v19.9c0,1.6-0.9,2.6-2.6,2.6h-2.2
				c-1.7,0-2.6-0.9-2.6-2.6v-49.6c0-1.6,0.9-2.6,2.6-2.6h11.1c8.3,0,13.3,3.5,13.3,11.6v9.2c0,5.5-2.3,8.8-6.4,10.5l7.4,20.6
				C1146.7,519.6,1145.8,520.8,1143.9,520.8z M1125.5,492h6c4.1,0,6.3-1.6,6.3-6.5v-6.4c0-4.9-2.2-6.5-6.3-6.5h-6V492z"/>
			<path class="st11" d="M1174.2,520.8H1156c-1.7,0-2.6-0.9-2.6-2.6v-49.6c0-1.6,0.9-2.6,2.6-2.6h17.9c1.7,0,2.6,0.9,2.6,2.6v1.3
				c0,1.7-0.9,2.6-2.6,2.6h-13.1v17.2h10.7c1.7,0,2.6,0.9,2.6,2.6v1.4c0,1.6-0.9,2.6-2.6,2.6h-10.7v18h13.4c1.7,0,2.6,0.9,2.6,2.6
				v1.3C1176.7,519.9,1175.9,520.8,1174.2,520.8z"/>
			<path class="st11" d="M1203.9,520.8h-18.2c-1.7,0-2.6-0.9-2.6-2.6v-49.6c0-1.6,0.9-2.6,2.6-2.6h17.9c1.7,0,2.6,0.9,2.6,2.6v1.3
				c0,1.7-0.9,2.6-2.6,2.6h-13.1v17.2h10.7c1.7,0,2.6,0.9,2.6,2.6v1.4c0,1.6-0.9,2.6-2.6,2.6h-10.7v18h13.4c1.7,0,2.6,0.9,2.6,2.6
				v1.3C1206.5,519.9,1205.6,520.8,1203.9,520.8z"/>
			<path class="st11" d="M1239.7,477.6v31.6c0,8.1-5,11.6-13.3,11.6h-11c-1.7,0-2.6-0.9-2.6-2.6v-49.6c0-1.6,0.9-2.6,2.6-2.6h11
				C1234.7,466.1,1239.7,469.6,1239.7,477.6z M1226.1,472.6h-5.9v41.8h5.9c4.1,0,6.3-1.6,6.3-6.5v-28.8
				C1232.4,474.2,1230.2,472.6,1226.1,472.6z"/>
			<path class="st11" d="M1261.1,465.4h0.6c8.3,0,13.3,3.5,13.3,11.6v32.9c0,8.1-5,11.6-13.3,11.6h-0.6c-8.3,0-13.3-3.5-13.3-11.6
				V477C1247.8,468.9,1252.8,465.4,1261.1,465.4z M1261.4,515c4.1,0,6.3-1.6,6.3-6.5v-30.1c0-4.9-2.2-6.5-6.3-6.5
				c-4.1,0-6.3,1.6-6.3,6.5v30.1C1255.2,513.3,1257.3,515,1261.4,515z"/>
			<path class="st11" d="M1304.9,510.3c-0.4,1.5-1.3,2.1-2.7,2.1s-2.3-0.6-2.8-2.1l-9.1-26.7v34.7c0,1.6-0.9,2.6-2.7,2.6h-1.6
				c-1.7,0-2.6-0.9-2.6-2.6v-49.6c0-1.6,0.9-2.6,2.6-2.6h2.2c1.5,0,2.5,0.7,3,2.1l11,31.9l11.1-31.9c0.5-1.4,1.4-2.1,2.9-2.1h2.5
				c1.7,0,2.6,0.9,2.6,2.6v49.6c0,1.6-0.9,2.6-2.6,2.6h-2c-1.6,0-2.6-0.9-2.6-2.6v-34.7L1304.9,510.3z"/>
			<path class="st11" d="M1352.3,485.4h-2c-1.7,0-2.6-0.9-2.6-2.6V478c0-4.4-2.1-6.1-5.9-6.1c-3.8,0-5.9,1.7-5.9,6.1v3.8
				c0,3.3,1.2,4.5,4.3,6.3l7.1,3.9c4.7,2.7,7.7,5.3,7.7,10.6v7.6c0,8.2-4.8,11.4-13.1,11.4h-0.2c-8.3,0-13.1-3.1-13.1-11.4v-6.7
				c0-1.6,0.9-2.6,2.6-2.6h2c1.7,0,2.6,0.9,2.6,2.6v5.5c0,4.3,2.1,6.3,5.9,6.3c3.8,0,5.9-2,5.9-6.3v-4.3c0-3.3-1.2-4.7-4.4-6.5
				l-7-3.9c-5-2.9-7.7-5.2-7.7-10.5v-6.9c0-7.9,5.5-11.3,13-11.3h0.2c7.5,0,13,3.4,13,11.3v6.1
				C1354.9,484.5,1354,485.4,1352.3,485.4z"/>
		</g>
	</g>
	<g>
		<g>
			<defs>
				<rect id="SVGID_3_" x="847.2" y="643.9" width="208.3" height="358.1"/>
			</defs>
			<clipPath id="SVGID_4_">
				<use xlink:href="#SVGID_3_"  style="overflow:visible;"/>
			</clipPath>
			<path class="st12" d="M924.6,752.8L924.6,752.8c0.4,0,0.8,0,1.2,0h0c0.3,0,0.6,0,1,0l0.2-21.4c-5.4,0.1-10.8,0.3-16.2,0
				c-4.5-0.3-9.1-0.9-13.1-3c-5.3-2.7-8.6-7.8-9.5-13.6c-0.2-1.4-0.4-2.8-0.2-4.2c0.1-1.1,1.2-2,2.3-1.5c0.9,0.4,0.9,1.3,0.9,2.2
				c-0.1,4.7,1.8,9.6,5.5,12.6c3.2,2.5,7.2,3.5,11.2,4c4.4,0.5,43,0.2,54.3,0.1c0.8,0,1.1-1.1,0.4-1.5c-3.1-1.9-5.8-4.5-7.7-7.6
				c-1-1.7-2-3.8-2.3-5.8c-0.2-2,2.8-2.6,3.2-0.5c0.1,0.4,0.1,0.8,0.3,1.2c0.6,2.2,1.9,4.3,3.4,6c0.4,0.5,0.8,0.9,1.3,1.4
				c5,4.7,12.1,6.4,18.8,4.8c6-1.5,11.7-3.8,16.8-7.2c2-1.4,3.9-2.9,5.7-4.6c-7-2.2-13.3-6.2-17.9-11.9c-4.1-5.1-6.7-11.4-7.9-17.8
				c-0.6-2.9-0.9-6-0.8-9h-64.1c-0.8-7-2.4-14.1-5.7-20.4c-1.8-3.5-4.2-6.8-7.4-9.2c-0.6-0.4-1.1-0.8-1.7-1.2
				c-0.3-0.2-0.7-0.4-1-0.5c-0.8-0.1-1.6,0.5-1.6,1.4l-0.3,27.6c0,2.6-3.9,3-4.4,0.4l-5.2-27.1c-0.1-0.5-0.5-1-1-1.1
				c-0.9-0.2-1.4,0.4-1.9,0.9c-1.3,1.5-2.5,3.1-3.6,4.8c-2.2,3.6-3.6,7.7-4.5,11.8c-1.9,8.4-1.8,17.2-0.8,25.8
				c0.5,3.9,1.1,7.9,2,11.7c-1.3,10.3-2.4,20.5-3.2,30.8c-0.8,9.7-1.4,19.3-1.7,29c-0.2,5.5-0.3,11-0.2,16.5
				c1.3-1.3,2.8-2.6,4.3-3.9C888.5,759.7,906.3,752.8,924.6,752.8 M973.5,698.7c2.4,0,2.4,3.7,0,3.7
				C971.1,702.5,971.1,698.7,973.5,698.7 M969,690.3c2.4,0,2.4,3.7,0,3.7C966.6,694,966.6,690.3,969,690.3 M963.8,698.7
				c2.4,0,2.4,3.7,0,3.7C961.4,702.5,961.4,698.7,963.8,698.7 M933.6,687.8c4.1,0,6,5.3,2.9,7.9c-3.1,2.7-8-0.2-7.3-4.2
				C929.6,689.4,931.5,687.8,933.6,687.8"/>
			<path class="st12" d="M1027.6,939.4c-0.4,0.1-0.7,0.2-1,0.3c-3.1,1.9-3.2,6.1-4.4,9.1c-1.3,3.4-3.6,6.4-6.5,8.5
				c-2.1,1.8-2.9,4.5-1.9,7.1c1.1,3,4,4.5,6.9,5.4c2.9,0.9,5.9,1.1,8.9,0.6c1.5-0.2,2.9-0.6,4.3-1.1c0.6-0.2,1.5-0.4,2-0.9
				c0.5-0.5,0.4-1.2-0.1-1.6c-1.9-1.6-5.3-1.7-7.7-1.2c-0.7,0-4.1,0.1-3-1.4c3.5-1.1,7.3-1.3,10.9-0.2c1.7,0.5,3.4,1.3,4.9,2.3
				c0.7,0.5,1.4,1,2.1,1.5c0.6,0.5,1.1,1.1,1.8,1.6c0.4,0.3,1,0.3,1.4,0c0.6-0.5,0.5-1.3,0.5-2c0-2.2-0.2-4.4-0.7-6.5
				c-1-4.2-2.9-8.1-5.4-11.6c-2.4-3.3-5.4-6.5-8.8-8.9C1030.5,939.8,1029.1,939.2,1027.6,939.4 M1029.6,948.3
				c1.6-1.6,5.9,2.6,4.2,4.2C1032.2,954.2,1027.9,949.9,1029.6,948.3"/>
			<path class="st13" d="M909.3,819c4.8,0,10.4-0.8,13.9-4.5c2-2.2,3-5.2,3-8.1c0-2-0.5-3.9-0.8-5.9c-1.2-8.1-0.7-16.5,1.9-24.4
				c1-3,2.1-6,3.9-8.6c0.9-1.3,1.8-2.3,2.3-3.8c0.4-1.1,0.6-2.3,0.4-3.5c-0.3-2.2-2.4-3.2-4.4-3.7c-2.9-0.7-6.1-0.5-9-0.3
				c-15.3,0.9-29.7,7-41.7,16.3c-5.8,4.5-11,9.7-15.6,15.4c-1.1,1.3-2.1,2.7-3.1,4.1c-0.8,1.2-1.7,2.4-2.2,3.7
				c-1,2.6-0.9,5.4,0.6,7.8c0.2,0.4,0.5,0.8,0.8,1.1c-1.5,0.2-2.9,1-3.4,2.5c-0.6,1.4-0.2,3.1,0.9,4.3c1.2,1.3,3.1,1.9,4.7,2.5
				c4.2,1.4,8.6,2.2,12.9,2.8c9.3,1.3,18.7,1.9,28,2.3C904.6,818.9,906.9,819,909.3,819 M870.1,797.9c-0.8,2.3-4.3,0.9-3.5-1.3
				C867.4,794.3,870.9,795.6,870.1,797.9 M901,795.7c-6,0-10.8-5.4-10-11.4c-1.2,0.1-2.3,0.2-3.2-0.7c-1-1-1-2.4-0.4-3.6
				c1-2.2,2.4-4.2,4.1-5.9c2.3-2.3,5.4-3.9,8.6-4.3c3.6-0.5,7.3,0.5,10.3,2.6c3.1,2.2,5,5.6,5.4,9.3c0.3,2,0.2,4-0.2,6
				c-0.2,1.2-0.5,2.2-1.6,2.9c-1.4,0.8-2.7,0.1-3.9-0.8C908.7,793.3,905,795.7,901,795.7"/>
			<path class="st14" d="M911.1,787.6c0.5,0.4,1.4,1.4,2.1,0.9c0.5-0.4,0.5-1.5,0.6-2c0.3-2,0.3-4.1-0.2-6.1
				c-1.1-4.4-4.5-7.5-8.9-8.3c-10.8-2-15.4,8.7-15.5,9.3c-0.1,0.7,0.4,0.9,0.7,1c0.7,0,1.4-0.1,2.1-0.2c3.1-0.1,6.2,0.2,9.2,1
				C904.7,783.9,908.1,785.5,911.1,787.6C911.5,787.9,911,787.5,911.1,787.6"/>
			<path class="st15" d="M886.4,879.2l-7.4-13.7c-0.2-0.4-0.9-0.4-1,0.1l-1.9,7.9l3.7,5.3L886.4,879.2z"/>
			<path class="st15" d="M920.5,939.7c1.9-1,3.8-1.8,5.7-2.5l-6.7-4.8l-14.4,5.6c-6.4,2.3-13.3,2.6-19.6-0.1c-3.6-1.6-6.9-4-9.5-7
				c-0.7-0.9-1.6-2.1-0.5-3.1c1.3-1.1,2.2,0.2,3,1.1c2,2.4,4.5,4.4,7.3,5.7c5.7,2.7,12.2,2.5,18.1,0.4c8.5-3,16-6.4,21.6-10.7
				c2.4-1.9,2-4,1.4-5.3c-1.9,0.9-5,1.9-8.5,1.9c-1,0-2.5,0-2.6-1.7c0-0.4,0.1-0.8,0.3-1.1c0.4-0.5,1-0.6,1.7-0.5
				c1,0.1,1.9,0.1,2.9,0c1.3-0.2,6.7-0.4,7.1-5.4c0.1-1.5,0.2-3,0.1-4.4c-1.3,0.3-2.6,0.2-3.9,0c-1.4-0.2-3-0.6-4.2-1.5
				c-2.2-1.8-2-4.9,0.3-6.5l0,0l0,0l1.7-1.1c-8.6-3.2-15.8-12.4-15.8-12.4c-1.6-2.4-3.1-3-5.8-3l-22.3-1.1l-9.7-13.9
				c-0.4-0.6-1.4-0.4-1.6,0.3c0,0-8.4,24.6-2.6,34.7c0.6,1,1.3,2,2.1,2.8c0.8,0.8,1.9,1.6,1.1,2.8c-1.7,2.5-5-2.3-5.7-3.7
				c-1.4-2.4-2.2-5.2-2.5-8.1c-22.7,37.2,16.6,73.1,27.8,82.3C892,954.2,919.4,940.3,920.5,939.7
				C922.4,938.7,919.4,940.3,920.5,939.7 M911.9,911c0.4,0.4,0.4,1.1,0,1.5l-5.1,5.1c-1,1-2.5-0.5-1.5-1.5l5.1-5.1
				C910.8,910.6,911.5,910.6,911.9,911C912.3,911.4,911.5,910.6,911.9,911 M903.6,896.9c2.1-1.5,5.6,3.2,3.5,4.7
				C904.9,903.1,901.5,898.4,903.6,896.9 M900.7,906.7h8.4c1.4,0,1.4,2.1,0,2.1h-8.4C899.3,908.9,899.3,906.7,900.7,906.7"/>
			<path class="st16" d="M1004.6,711.4c0,0,12.9-13.8,11.3-36.1h-37.3C978.7,675.3,977.1,704,1004.6,711.4"/>
			<path class="st13" d="M982.8,833.1c-1.9-5.3-5.9-20.3,4.5-33.9c3.1-4,7.1-7.3,12.1-9.8c0.7-0.4,1.4-0.7,2.1-1.1
				c-6.9-7.7-16-13.3-27.1-16.5c-7.5-2.2-15.6-3-24-2.5c-5.7,0.3-12.8,1.3-18.4,3.5c-2.3,5-5.5,15.1-3.1,28.9
				c0.3,1.3,1.8,8.3-2.4,13.9c-3.3,4.4-9.1,6.7-17.1,6.7c-0.4,0-0.7,0-1,0c-2.1,0-12.5-0.2-23.7-1.2c5.6,5.2,16.6,12.8,33,12.9
				c0.6,0,12.7,0.5,19-9.8c0.2-0.3,4.5-7.3,11.7-8.7c0.8-0.1,1.6-0.2,2.4-0.2c3.2,0,6.5,1.2,9.7,3.7c0.5,0.4,11.2,8.5,14.9,25.9
				C977.4,840.3,980,836.4,982.8,833.1"/>
			<path class="st16" d="M985.3,830.2c13.2-15.8,32.7-19.5,32.7-19.5c2.6-4.1,4.2-8.8,4.5-13.7c0.2-4.6-0.8-9.2-2.9-13.3
				c-0.4-0.8-0.8-1.7-1.8-1.7c-0.9,0-1.4,0.6-1.9,1.1c-1.3,1.1-2.8,2.1-4.3,3.1c-3.3,2.1-6.7,4-10.2,5.7c-4.4,2.3-8.4,5.2-11.5,9.2
				C981.4,812.1,983.5,824.4,985.3,830.2"/>
			<path class="st14" d="M977.4,990.8c-0.8-2.7-0.7-5.3-0.3-7.4c-1.9-0.2-3.6-1.6-4.2-3.5c-0.3-0.9-0.2-1.9-0.5-2.9
				c-0.3-1.2-0.9-2.3-1.5-3.3c-1.3-2-6.8-6.3-9.1-9.4c-4-5.4-6-12.1-6.3-18.8c-0.1-2.2-0.1-4.4,0.1-6.5c-8.6-2.4-23-1.7-33.7,3.5
				c0,0-28.3,14.2-32.2,39c-0.6,3.3,1.2,6.3,4.4,7.4c3.9,1.3,8.6,0.3,12.5-0.7c-0.5,2.4,0.2,5.2,2.1,6.8c3.1,2.6,7.9,2.3,11.6,1.7
				c2.6-0.4,5.1-1,7.6-1.7c-0.4,2.4,1.3,4.3,3.5,5c3.5,1,7.7,0,11.1-1c0.9,2.1,3.4,2.9,5.5,2.9c3.3,0.1,6.5-1.2,9.4-2.6
				c3,1.6,6.9,1.3,9.9,0.1c4.1-1.6,7.4-4.8,10.1-8.3C977.5,991,977.4,990.9,977.4,990.8"/>
			<path class="st16" d="M920.5,903.7c0.6,1.5,2.7,1.8,4.1,2c1,0.2,2.1,0.3,3.1,0c0.4-2-0.2-4.2-0.2-4.2c-0.4-1.1-1.4-2.5-2.8-2.2
				l-3.4,2.2C920.2,902.2,920.2,903.1,920.5,903.7C920.8,904.4,920.2,903.1,920.5,903.7"/>
			<path class="st12" d="M894.8,785.6c0,3.4,2.8,6.2,6.2,6.2c2.8,0,5.1-1.8,5.9-4.3c-4.4-2.3-8.6-3.1-12-3.3
				C894.8,784.7,894.8,785.1,894.8,785.6"/>
			<path class="st16" d="M1017.8,814.1c0,0-45.8,10.2-47.3,63.6c0,0-0.2,14,3.9,27.8c6.8-1.3,13.9-1.6,20.7-0.2c0.6-1,1.5-1.7,2.6-2
				c1.2-0.3,2.4,0,3.5,0.4c2.4,0.7,4.7,1.6,7,2.6c3.8,1.7,7.4,3.9,10.6,6.6c3.9-3.4,7.4-7.4,10.5-11.6c2.1-3,4.1-6.1,5.8-9.3
				c0.5-0.9,0.9-1.7,1.4-2.6c0.4-0.8,0.8-1.6,0.6-2.6c-0.3-1.6-1.6-2-3-2.5c-5.1-1.9-10.2-4.6-13.8-8.7c-1-1.1-1.9-2.3-2.6-3.7
				c-0.2-0.4-0.5-0.9-0.1-1.2c0.4-0.4,0.9,0.1,1.2,0.4c2.5,1.9,5,3.6,7.8,5.1c7.5,3.8,16,5.1,24.3,4.2l4.6-21.9
				C1055.5,858.4,1026,851.6,1017.8,814.1 M1015.9,853.7c-2,0-3.7-1.7-3.7-3.7c0-2,1.7-3.7,3.7-3.7c2,0,3.7,1.7,3.7,3.7
				C1019.7,852,1018,853.7,1015.9,853.7"/>
			<path class="st14" d="M1006.6,909.2c-2.2-1-4.4-1.8-6.6-2.5c-0.6-0.2-1.6-0.5-2,0.2c-0.5,0.9,0.4,2,0.7,2.8
				c-3-1.3-6.3-1.7-9.5-1.9c-3.5-0.2-7-0.1-10.5,0.4c-6.8,0.9-13.4,3.3-20.4,2.2c-0.8-0.1-2.1-0.2-2.2,0.9c-0.2,1.3,2.4,5.2,2.8,5.8
				c0.3,0.5,0.8,1.2,0.6,1.8c-0.4,0.9-1.6,0.5-2.3,0.5c-1.1,0-1.5,0.6-1.3,1.7c0.3,1.3,0.9,2.5,1.3,3.8c1,3.2,2.4,6.6,2.3,9.9
				c-0.1,2.7-0.8,8.6-0.6,10.4c0.2,3.4,0.8,6.9,2,10.1c1.1,3,2.6,5.8,4.7,8.3c2,2.4,4.5,4.1,6.6,6.3c1.1,1.2,2,2.5,2.7,3.9
				c0.3,0.7,1.1,3.8,1.3,4.6c0.2,1.2,0.9,1.9,2.2,1.8c0.8-0.1,1.8-0.7,2.6-0.5c1.2,0.3-0.2,2.8-0.4,3.5c-0.3,1.4-0.5,2.9-0.4,4.4
				c0.1,1.2,0.5,4,2.2,3.7c1.3-0.3,1.8-1.9,2.5-2.9c0.9-1.3,5.3-5.7,11.9-6.6c6.5-0.8,12.8-2.9,18.7-6c1.5-0.8,2.9-1.7,4.3-2.7
				c-2.8-0.9-5.6-2.4-7.4-4.8c-2.1-2.8-2.5-6.4-1.2-9.6c0.6-1.5,1.6-2.8,2.9-3.8c1.3-1,2.5-2.2,3.4-3.5c2-2.9,2.5-6.3,3.9-9.5
				c1.3-2.9,3.6-5.5,6.9-5.6c-0.4-4.2-1.6-8-3.7-11.6c-2-3.4-6.4-8-6.7-8.3C1014.3,913.2,1010.6,911,1006.6,909.2 M1002.3,946.9
				c-1.9,0-3.6-1.7-3.6-3.6c0-1.9,1.7-3.6,3.6-3.6c1.9,0,3.6,1.7,3.6,3.6C1005.9,945.3,1004.2,946.9,1002.3,946.9"/>
		</g>
		<g>
			<path class="st11" d="M1102.7,682v5.8c0,5.3-2.8,8.2-8.6,8.2h-6.7v15.7c0,0.6-0.3,0.9-0.9,0.9h-0.4c-0.6,0-0.9-0.3-0.9-0.9v-37
				c0-0.6,0.3-0.9,0.9-0.9h8C1099.9,673.8,1102.7,676.7,1102.7,682z M1100.5,683c0-5-1.8-7.1-6.6-7.1h-6.5v18h6.5
				c4.9,0,6.6-2.1,6.6-7.1V683z"/>
			<path class="st11" d="M1128,712.6h-0.6c-0.5,0-0.8-0.2-1-0.7l-6.5-16.3h-0.8h-6.7v16.1c0,0.6-0.3,0.9-0.9,0.9h-0.4
				c-0.6,0-0.9-0.3-0.9-0.9v-37c0-0.6,0.3-0.9,0.9-0.9h8c5.9,0,8.6,2.9,8.6,8.2v5.4c0,4.3-1.8,7-5.5,7.9l6.5,16.3
				C1129,712.2,1128.7,712.6,1128,712.6z M1125.6,686.4V683c0-5-1.8-7.1-6.6-7.1h-6.5v17.6h6.5
				C1123.8,693.5,1125.6,691.4,1125.6,686.4z"/>
			<path class="st11" d="M1144.5,673.4h0.4c5.9,0,8.6,2.9,8.6,8.2v23.3c0,5.3-2.8,8.2-8.6,8.2h-0.4c-5.9,0-8.6-2.9-8.6-8.2v-23.3
				C1135.9,676.2,1138.6,673.4,1144.5,673.4z M1144.7,710.9c4.9,0,6.6-2.1,6.6-7.1v-21.3c0-5-1.8-7.1-6.6-7.1
				c-4.9,0-6.6,2.1-6.6,7.1v21.3C1138.1,708.8,1139.9,710.9,1144.7,710.9z"/>
			<path class="st11" d="M1176.2,674.7v0.3c0,0.6-0.3,0.9-0.9,0.9h-6.6v35.8c0,0.6-0.3,0.9-0.9,0.9h-0.4c-0.6,0-0.9-0.3-0.9-0.9
				v-35.8h-6.6c-0.6,0-0.9-0.3-0.9-0.9v-0.3c0-0.6,0.3-0.9,0.9-0.9h15.4C1175.9,673.8,1176.2,674.2,1176.2,674.7z"/>
			<path class="st11" d="M1196.3,712.6h-13.2c-0.6,0-0.9-0.3-0.9-0.9v-37c0-0.6,0.3-0.9,0.9-0.9h13c0.6,0,0.9,0.3,0.9,0.9v0.3
				c0,0.6-0.3,0.9-0.9,0.9h-11.7v16h10c0.6,0,0.9,0.3,0.9,0.9v0.3c0,0.6-0.3,0.9-0.9,0.9h-10v16.5h11.9c0.6,0,0.9,0.3,0.9,0.9v0.3
				C1197.2,712.3,1196.8,712.6,1196.3,712.6z M1193,664.1h1.1c0.7,0,1,0.6,0.6,1.1l-3.9,5.2c-0.2,0.3-0.6,0.4-0.9,0.4h-0.2
				c-0.6,0-0.8-0.4-0.6-0.9l2.9-5.2C1192.1,664.3,1192.5,664.1,1193,664.1z"/>
			<path class="st11" d="M1221.6,694.4v10.4c0,5.4-2.8,8.2-8.6,8.2h-0.4c-5.9,0-8.6-2.7-8.6-8.2v-23.3c0-5.2,2.8-8.2,8.6-8.2h0.4
				c5.9,0,8.6,3,8.6,8.2v4.1c0,0.6-0.3,0.9-0.9,0.9h-0.4c-0.6,0-0.9-0.3-0.9-0.9v-3.1c0-5-1.8-7.1-6.6-7.1c-4.9,0-6.6,2.1-6.6,7.1
				v21.3c0,5,1.8,7.1,6.6,7.1c4.9,0,6.6-2.1,6.6-7.1v-8.2h-6c-0.6,0-0.9-0.3-0.9-0.9v-0.3c0-0.6,0.3-0.9,0.9-0.9h7.3
				C1221.3,693.6,1221.6,693.9,1221.6,694.4z"/>
			<path class="st11" d="M1244.3,712.6h-13.2c-0.6,0-0.9-0.3-0.9-0.9v-37c0-0.6,0.3-0.9,0.9-0.9h13c0.6,0,0.9,0.3,0.9,0.9v0.3
				c0,0.6-0.3,0.9-0.9,0.9h-11.7v16h10c0.6,0,0.9,0.3,0.9,0.9v0.3c0,0.6-0.3,0.9-0.9,0.9h-10v16.5h11.9c0.6,0,0.9,0.3,0.9,0.9v0.3
				C1245.2,712.3,1244.9,712.6,1244.3,712.6z"/>
			<path class="st11" d="M1270,712.6h-0.6c-0.5,0-0.8-0.2-1-0.7l-6.5-16.3h-0.8h-6.7v16.1c0,0.6-0.3,0.9-0.9,0.9h-0.4
				c-0.6,0-0.9-0.3-0.9-0.9v-37c0-0.6,0.3-0.9,0.9-0.9h8c5.9,0,8.6,2.9,8.6,8.2v5.4c0,4.3-1.8,7-5.5,7.9l6.5,16.3
				C1270.9,712.2,1270.7,712.6,1270,712.6z M1267.6,686.4V683c0-5-1.8-7.1-6.6-7.1h-6.5v17.6h6.5
				C1265.8,693.5,1267.6,691.4,1267.6,686.4z"/>
		</g>
		<g>
			<path class="st11" d="M1302.7,711.4v0.3c0,0.6-0.3,0.9-0.9,0.9h-12.4c-0.6,0-0.9-0.3-0.9-0.9v-37c0-0.6,0.3-0.9,0.9-0.9h0.4
				c0.6,0,0.9,0.3,0.9,0.9v35.8h11C1302.3,710.5,1302.7,710.8,1302.7,711.4z"/>
			<path class="st11" d="M1323,712.6h-13.2c-0.6,0-0.9-0.3-0.9-0.9v-37c0-0.6,0.3-0.9,0.9-0.9h13c0.6,0,0.9,0.3,0.9,0.9v0.3
				c0,0.6-0.3,0.9-0.9,0.9h-11.7v16h10c0.6,0,0.9,0.3,0.9,0.9v0.3c0,0.6-0.3,0.9-0.9,0.9h-10v16.5h11.9c0.6,0,0.9,0.3,0.9,0.9v0.3
				C1323.9,712.3,1323.6,712.6,1323,712.6z"/>
			<path class="st11" d="M1345.8,687.1h-0.4c-0.6,0-0.9-0.3-0.9-0.9v-4c0-4.7-1.6-6.8-6.3-6.8s-6.3,2.1-6.3,6.8v2.7
				c0,3.1,1.1,3.8,4.3,5.5l6.3,3.4c2.4,1.3,4.3,3.6,4.3,6.2v4.9c0,5.4-2.6,8.1-8.5,8.1h-0.1c-5.9,0-8.5-2.6-8.5-8.1v-5.3
				c0-0.6,0.3-0.9,0.9-0.9h0.4c0.6,0,0.9,0.3,0.9,0.9v4.4c0,4.6,1.6,6.9,6.3,6.9c4.7,0,6.3-2.3,6.3-6.9V701c0-3.1-1.3-4.1-4.5-5.9
				l-6.1-3.3c-3.1-1.7-4.3-3.2-4.3-6v-4.4c0-5.2,3.1-8,8.4-8h0.1c5.3,0,8.4,2.8,8.4,8v4.9C1346.7,686.8,1346.3,687.1,1345.8,687.1z"
				/>
		</g>
		<g>
			<path class="st11" d="M1104.2,753.5v6.3c0,6.1-3.7,8.6-9.9,8.6h-0.1c-6.2,0-9.9-2.4-9.9-8.6v-24.4c0-5.9,3.7-8.6,9.9-8.6h0.1
				c6.2,0,9.9,2.7,9.9,8.6v5.3c0,1.2-0.6,1.9-1.9,1.9h-1.6c-1.2,0-1.9-0.7-1.9-1.9v-4.3c0-3.5-1.5-4.8-4.5-4.8c-3,0-4.5,1.3-4.5,4.8
				v22.3c0,3.5,1.5,4.8,4.5,4.8c3,0,4.5-1.3,4.5-4.8v-5.3c0-1.2,0.7-1.9,1.9-1.9h1.6C1103.5,751.6,1104.2,752.3,1104.2,753.5z"/>
			<path class="st11" d="M1113.6,768h-1.6c-1.3,0-1.9-0.7-1.9-1.9v-36.8c0-1.2,0.6-1.9,1.9-1.9h1.6c1.2,0,1.9,0.7,1.9,1.9v36.8
				C1115.5,767.3,1114.9,768,1113.6,768z"/>
			<path class="st11" d="M1125.1,768h-1.2c-1.3,0-1.9-0.7-1.9-1.9v-36.8c0-1.2,0.6-1.9,1.9-1.9h1.9c1.1,0,1.9,0.5,2.2,1.6l9.6,26.4
				v-26.1c0-1.2,0.7-1.9,1.9-1.9h1.2c1.3,0,1.9,0.7,1.9,1.9v36.8c0,1.2-0.6,1.9-1.9,1.9h-1.7c-1.1,0-1.8-0.5-2.1-1.6l-9.9-27.4v27
				C1127,767.3,1126.3,768,1125.1,768z"/>
			<path class="st11" d="M1168.8,735.5v24.4c0,5.2-2.8,7.8-7.5,8.4v3.8c0,1.3-0.6,1.9-1.9,1.9h-1.2c-1.3,0-1.9-0.6-1.9-1.9v-3.8
				c-4.9-0.6-7.7-3.3-7.7-8.5v-24.4c0-6,3.7-8.6,9.9-8.6h0.5C1165.1,726.9,1168.8,729.5,1168.8,735.5z M1163.4,736.5
				c0-3.6-1.6-4.8-4.6-4.8c-3,0-4.6,1.2-4.6,4.8v22.3c0,3.6,1.6,4.8,4.6,4.8c3,0,4.6-1.2,4.6-4.8V736.5z"/>
			<path class="st11" d="M1199.3,765v1.1c0,1.2-0.6,1.9-1.9,1.9h-12.6c-1.3,0-1.9-0.7-1.9-1.9v-36.8c0-1.2,0.6-1.9,1.9-1.9h1.6
				c1.2,0,1.9,0.7,1.9,1.9V763h9.1C1198.6,763,1199.3,763.7,1199.3,765z"/>
			<path class="st11" d="M1206.8,768h-1.6c-1.3,0-1.9-0.7-1.9-1.9v-36.8c0-1.2,0.6-1.9,1.9-1.9h1.6c1.2,0,1.9,0.7,1.9,1.9v36.8
				C1208.7,767.3,1208,768,1206.8,768z"/>
			<path class="st11" d="M1230.3,746.8c3.7,0.6,4.8,3.5,4.8,6.4v6.7c0,4.9-3.6,8-9.8,8h-8.2c-1.3,0-1.9-0.7-1.9-1.9v-36.8
				c0-1.2,0.6-1.9,1.9-1.9h8.4c6.2,0,9.4,3.1,9.4,8v5.1C1234.8,743.2,1233.7,746.4,1230.3,746.8z M1225.5,749.3h-4.9v13.9h4.9
				c2.7,0,4.1-1.3,4.1-4.2v-6.1C1229.6,750.4,1228.1,749.3,1225.5,749.3z M1220.6,744.6h4.7c2.6,0,4.1-1.2,4.1-3.7v-4.7
				c0-2.8-1.3-4.2-4.1-4.2h-4.7V744.6z"/>
			<path class="st11" d="M1255.8,768h-13.5c-1.3,0-1.9-0.7-1.9-1.9v-36.8c0-1.2,0.6-1.9,1.9-1.9h13.3c1.3,0,1.9,0.7,1.9,1.9v1
				c0,1.3-0.6,1.9-1.9,1.9h-9.8v12.8h8c1.3,0,1.9,0.7,1.9,1.9v1c0,1.2-0.6,1.9-1.9,1.9h-8v13.4h9.9c1.3,0,1.9,0.6,1.9,1.9v1
				C1257.7,767.3,1257.1,768,1255.8,768z"/>
			<path class="st11" d="M1281.3,768h-1.6c-1.1,0-1.8-0.5-2.2-1.6l-5.1-15.1h-0.1h-4.7v14.8c0,1.2-0.7,1.9-1.9,1.9h-1.6
				c-1.3,0-1.9-0.7-1.9-1.9v-36.8c0-1.2,0.6-1.9,1.9-1.9h8.2c6.2,0,9.9,2.6,9.9,8.6v6.8c0,4.1-1.7,6.6-4.8,7.8l5.5,15.3
				C1283.3,767.1,1282.7,768,1281.3,768z M1267.6,746.6h4.5c3,0,4.6-1.2,4.6-4.8V737c0-3.6-1.6-4.8-4.6-4.8h-4.5V746.6z"/>
			<path class="st11" d="M1304.6,729.2v1c0,1.3-0.6,1.9-1.9,1.9h-5.2v33.9c0,1.2-0.7,1.9-1.9,1.9h-1.6c-1.2,0-1.9-0.7-1.9-1.9v-33.9
				h-5.2c-1.2,0-1.9-0.6-1.9-1.9v-1c0-1.2,0.7-1.9,1.9-1.9h15.8C1304,727.3,1304.6,728,1304.6,729.2z"/>
			<path class="st11" d="M1323.4,768h-13.5c-1.3,0-1.9-0.7-1.9-1.9v-36.8c0-1.2,0.6-1.9,1.9-1.9h13.3c1.3,0,1.9,0.7,1.9,1.9v1
				c0,1.3-0.6,1.9-1.9,1.9h-9.8v12.8h8c1.3,0,1.9,0.7,1.9,1.9v1c0,1.2-0.6,1.9-1.9,1.9h-8v13.4h9.9c1.3,0,1.9,0.6,1.9,1.9v1
				C1325.3,767.3,1324.7,768,1323.4,768z M1319.5,716.3h1.8c1.6,0,2.2,1,1.2,2.3l-3.5,4.4c-0.6,0.8-1.3,1.1-2.3,1.1h-0.2
				c-1.5,0-2-0.9-1.4-2.2l2.2-4.2C1317.7,716.7,1318.4,716.3,1319.5,716.3z"/>
			<path class="st11" d="M1346.1,741.7h-1.5c-1.3,0-1.9-0.7-1.9-1.9v-3.6c0-3.3-1.6-4.5-4.4-4.5c-2.8,0-4.4,1.3-4.4,4.5v2.8
				c0,2.4,0.9,3.3,3.2,4.6l5.3,2.9c3.5,2,5.7,4,5.7,7.8v5.6c0,6.1-3.5,8.5-9.7,8.5h-0.1c-6.2,0-9.7-2.3-9.7-8.5v-5
				c0-1.2,0.6-1.9,1.9-1.9h1.5c1.3,0,1.9,0.7,1.9,1.9v4.1c0,3.2,1.6,4.6,4.4,4.6c2.8,0,4.4-1.5,4.4-4.6v-3.2c0-2.4-0.9-3.5-3.3-4.8
				l-5.2-2.9c-3.7-2.2-5.7-3.9-5.7-7.8v-5.1c0-5.9,4.1-8.4,9.6-8.4h0.1c5.6,0,9.6,2.5,9.6,8.4v4.5
				C1348,741,1347.4,741.7,1346.1,741.7z"/>
		</g>
		<g>
			<path class="st11" d="M1097.7,811.6h-0.7c-0.5,0-0.8-0.2-1-0.8l-1.5-7.1h-8.2l-1.5,7.1c-0.1,0.6-0.4,0.8-1,0.8h-0.5
				c-0.6,0-0.9-0.3-0.8-1l6.5-28.7c0.1-0.6,0.4-0.8,1-0.8h1c0.5,0,0.9,0.2,1,0.8l6.5,28.7C1098.6,811.2,1098.3,811.6,1097.7,811.6z
				 M1094.1,801.6l-3.6-16.8l-3.7,16.8H1094.1z"/>
			<path class="st11" d="M1102.9,810.7v-28.8c0-0.6,0.3-0.9,0.9-0.9h10c0.6,0,0.9,0.3,0.9,0.9v0.4c0,0.6-0.3,0.9-0.9,0.9h-8.5v12
				h7.2c0.6,0,0.9,0.3,0.9,0.9v0.3c0,0.6-0.3,0.9-0.9,0.9h-7.2v13.3c0,0.6-0.3,0.9-0.9,0.9h-0.6
				C1103.3,811.6,1102.9,811.3,1102.9,810.7z"/>
			<path class="st11" d="M1120.4,811.6h-0.6c-0.6,0-0.9-0.3-0.9-0.9v-28.8c0-0.6,0.3-0.9,0.9-0.9h0.6c0.6,0,0.9,0.3,0.9,0.9v28.8
				C1121.3,811.3,1121,811.6,1120.4,811.6z"/>
			<path class="st11" d="M1129,811.6h-0.5c-0.6,0-0.9-0.3-0.9-0.9v-28.8c0-0.6,0.3-0.9,0.9-0.9h0.8c0.5,0,0.8,0.2,1,0.7l9.7,24.2
				v-24.1c0-0.6,0.3-0.9,0.9-0.9h0.5c0.6,0,0.9,0.3,0.9,0.9v28.8c0,0.6-0.3,0.9-0.9,0.9h-0.7c-0.5,0-0.9-0.2-1-0.7l-9.9-24.4v24.2
				C1129.9,811.3,1129.6,811.6,1129,811.6z"/>
			<path class="st11" d="M1169.7,787.5v17.6c0,4.3-2.4,6.5-7,6.5h-6.2c-0.6,0-0.9-0.3-0.9-0.9v-28.8c0-0.6,0.3-0.9,0.9-0.9h6.2
				C1167.4,781.1,1169.7,783.2,1169.7,787.5z M1162.6,783.2h-4.6v26.1h4.6c3.4,0,4.8-1.4,4.8-5.1v-16
				C1167.4,784.7,1166,783.2,1162.6,783.2z"/>
			<path class="st11" d="M1177.4,782v1.4c0,2-0.4,3.8-1.1,5.3c-0.3,0.5-0.6,0.7-0.9,0.5c-0.4-0.2-0.3-0.5-0.2-1
				c0.5-1.1,0.8-2.7,0.8-3.9h-0.3c-0.6,0-0.9-0.3-0.9-0.9V782c0-0.6,0.3-0.9,0.9-0.9h0.7C1177.1,781.1,1177.4,781.4,1177.4,782z"/>
			<path class="st11" d="M1194.8,811.6h-0.7c-0.5,0-0.8-0.2-1-0.8l-1.5-7.1h-8.2l-1.5,7.1c-0.1,0.6-0.4,0.8-1,0.8h-0.5
				c-0.6,0-0.9-0.3-0.8-1l6.5-28.7c0.1-0.6,0.4-0.8,1-0.8h1c0.5,0,0.9,0.2,1,0.8l6.5,28.7C1195.7,811.2,1195.4,811.6,1194.8,811.6z
				 M1191.2,801.6l-3.6-16.8l-3.7,16.8H1191.2z"/>
			<path class="st11" d="M1211.9,791.6h-0.6c-0.5,0-0.9-0.3-0.9-0.9v-3c0-3.4-1.2-4.8-4.5-4.8c-3.3,0-4.5,1.5-4.5,4.8v2.1
				c0,2.3,0.8,2.9,3.1,4.1l4.7,2.6c2.1,1.1,3.7,2.8,3.7,5.1v3.9c0,4.4-2.2,6.4-6.8,6.4h-0.1c-4.6,0-6.8-2-6.8-6.4v-4.1
				c0-0.6,0.3-0.9,0.9-0.9h0.6c0.5,0,0.9,0.3,0.9,0.9v3.4c0,3.3,1.2,4.9,4.5,4.9c3.3,0,4.5-1.6,4.5-4.9v-2.4c0-2.3-0.9-3.1-3.2-4.4
				l-4.6-2.5c-2.5-1.4-3.6-2.6-3.6-5.1V787c0-4.2,2.6-6.3,6.8-6.3h0.1c4.2,0,6.8,2.1,6.8,6.3v3.7
				C1212.8,791.2,1212.5,791.6,1211.9,791.6z"/>
			<path class="st11" d="M1230.5,791.6h-0.6c-0.5,0-0.9-0.3-0.9-0.9v-3c0-3.4-1.2-4.8-4.5-4.8c-3.3,0-4.5,1.5-4.5,4.8v2.1
				c0,2.3,0.8,2.9,3.1,4.1l4.7,2.6c2.1,1.1,3.7,2.8,3.7,5.1v3.9c0,4.4-2.2,6.4-6.8,6.4h-0.1c-4.6,0-6.8-2-6.8-6.4v-4.1
				c0-0.6,0.3-0.9,0.9-0.9h0.6c0.5,0,0.9,0.3,0.9,0.9v3.4c0,3.3,1.2,4.9,4.5,4.9c3.3,0,4.5-1.6,4.5-4.9v-2.4c0-2.3-0.9-3.1-3.2-4.4
				l-4.6-2.5c-2.5-1.4-3.6-2.6-3.6-5.1V787c0-4.2,2.6-6.3,6.8-6.3h0.1c4.2,0,6.8,2.1,6.8,6.3v3.7
				C1231.4,791.2,1231,791.6,1230.5,791.6z"/>
			<path class="st11" d="M1250.7,781.9v23.5c0,4.4-2.3,6.5-6.9,6.5h-0.2c-4.6,0-6.9-2-6.9-6.5v-23.5c0-0.6,0.3-0.9,0.9-0.9h0.6
				c0.6,0,0.9,0.3,0.9,0.9v22.7c0,3.6,1.2,5.1,4.6,5.1c3.4,0,4.6-1.4,4.6-5.1v-22.7c0-0.6,0.3-0.9,0.9-0.9h0.6
				C1250.4,781.1,1250.7,781.4,1250.7,781.9z"/>
			<path class="st11" d="M1270.8,811.6h-0.7c-0.5,0-0.8-0.2-1-0.7l-4.8-12.4h-0.5h-4.8v12.3c0,0.6-0.3,0.9-0.9,0.9h-0.6
				c-0.6,0-0.9-0.3-0.9-0.9v-28.8c0-0.6,0.3-0.9,0.9-0.9h6.3c4.6,0,7,2.2,7,6.5v4.4c0,3.3-1.4,5.4-4.2,6.1l4.8,12.5
				C1271.7,811.1,1271.5,811.6,1270.8,811.6z M1268.5,791.2v-2.9c0-3.6-1.4-5.1-4.8-5.1h-4.7v13h4.7
				C1267.2,796.3,1268.5,794.8,1268.5,791.2z"/>
			<path class="st11" d="M1287.9,811.6h-10.3c-0.6,0-0.9-0.3-0.9-0.9v-28.8c0-0.6,0.3-0.9,0.9-0.9h10.2c0.6,0,0.9,0.3,0.9,0.9v0.4
				c0,0.6-0.3,0.9-0.9,0.9h-8.7V795h7.4c0.6,0,0.9,0.3,0.9,0.9v0.3c0,0.6-0.3,0.9-0.9,0.9h-7.4v12.2h8.8c0.6,0,0.9,0.3,0.9,0.9v0.4
				C1288.8,811.3,1288.5,811.6,1287.9,811.6z"/>
			<path class="st11" d="M1307.5,811.6h-0.7c-0.5,0-0.8-0.2-1-0.7l-4.8-12.4h-0.5h-4.8v12.3c0,0.6-0.3,0.9-0.9,0.9h-0.6
				c-0.6,0-0.9-0.3-0.9-0.9v-28.8c0-0.6,0.3-0.9,0.9-0.9h6.3c4.6,0,7,2.2,7,6.5v4.4c0,3.3-1.4,5.4-4.2,6.1l4.8,12.5
				C1308.5,811.1,1308.2,811.6,1307.5,811.6z M1305.2,791.2v-2.9c0-3.6-1.4-5.1-4.8-5.1h-4.7v13h4.7
				C1303.9,796.3,1305.2,794.8,1305.2,791.2z"/>
			<path class="st11" d="M1332.2,810.2v0.4c0,0.6-0.3,0.9-0.9,0.9h-9.6c-0.6,0-0.9-0.3-0.9-0.9v-28.8c0-0.6,0.3-0.9,0.9-0.9h0.6
				c0.6,0,0.9,0.3,0.9,0.9v27.5h8.2C1331.8,809.4,1332.2,809.7,1332.2,810.2z"/>
			<path class="st11" d="M1347.4,811.6h-10.3c-0.6,0-0.9-0.3-0.9-0.9v-28.8c0-0.6,0.3-0.9,0.9-0.9h10.2c0.6,0,0.9,0.3,0.9,0.9v0.4
				c0,0.6-0.3,0.9-0.9,0.9h-8.7V795h7.4c0.6,0,0.9,0.3,0.9,0.9v0.3c0,0.6-0.3,0.9-0.9,0.9h-7.4v12.2h8.8c0.6,0,0.9,0.3,0.9,0.9v0.4
				C1348.3,811.3,1348,811.6,1347.4,811.6z"/>
		</g>
		<g>
			<path class="st11" d="M1105.4,850.1c4.8,0.8,6.3,4.6,6.3,8.5v8.8c0,6.5-4.7,10.5-12.8,10.5h-10.8c-1.7,0-2.5-0.9-2.5-2.5V827
				c0-1.6,0.8-2.5,2.5-2.5h11c8.1,0,12.4,4,12.4,10.5v6.7C1111.4,845.3,1109.9,849.5,1105.4,850.1z M1099.2,853.3h-6.5v18.3h6.5
				c3.6,0,5.3-1.8,5.3-5.5v-8C1104.5,854.8,1102.6,853.3,1099.2,853.3z M1092.7,847.2h6.2c3.4,0,5.3-1.5,5.3-4.8v-6.2
				c0-3.7-1.8-5.5-5.3-5.5h-6.2V847.2z"/>
			<path class="st11" d="M1125.7,877.8h-2.1c-1.7,0-2.5-0.9-2.5-2.5V827c0-1.6,0.8-2.5,2.5-2.5h2.1c1.6,0,2.5,0.9,2.5,2.5v48.4
				C1128.2,876.9,1127.3,877.8,1125.7,877.8z"/>
			<path class="st11" d="M1159,877.8h-17.7c-1.7,0-2.5-0.9-2.5-2.5V827c0-1.6,0.8-2.5,2.5-2.5h17.5c1.7,0,2.5,0.9,2.5,2.5v1.3
				c0,1.7-0.8,2.5-2.5,2.5h-12.8v16.8h10.4c1.7,0,2.5,0.9,2.5,2.5v1.4c0,1.6-0.8,2.5-2.5,2.5h-10.4v17.5h13c1.7,0,2.5,0.8,2.5,2.5
				v1.3C1161.5,876.9,1160.7,877.8,1159,877.8z"/>
			<path class="st11" d="M1173.5,877.8h-1.6c-1.7,0-2.5-0.9-2.5-2.5V827c0-1.6,0.8-2.5,2.5-2.5h2.5c1.4,0,2.4,0.7,2.9,2.1l12.7,34.7
				V827c0-1.6,0.9-2.5,2.5-2.5h1.6c1.7,0,2.5,0.9,2.5,2.5v48.4c0,1.6-0.8,2.5-2.5,2.5h-2.2c-1.4,0-2.4-0.7-2.8-2.1l-13-35.9v35.5
				C1176.1,876.9,1175.1,877.8,1173.5,877.8z"/>
			<path class="st11" d="M1221.9,850.1v0.9c0,1.6-0.9,2.5-2.5,2.5h-12.5c-1.6,0-2.5-0.9-2.5-2.5v-0.9c0-1.6,0.9-2.5,2.5-2.5h12.5
				C1221,847.5,1221.9,848.5,1221.9,850.1z"/>
			<path class="st11" d="M1249.7,877.8H1232c-1.7,0-2.5-0.9-2.5-2.5V827c0-1.6,0.8-2.5,2.5-2.5h17.5c1.7,0,2.5,0.9,2.5,2.5v1.3
				c0,1.7-0.8,2.5-2.5,2.5h-12.8v16.8h10.4c1.7,0,2.5,0.9,2.5,2.5v1.4c0,1.6-0.8,2.5-2.5,2.5h-10.4v17.5h13c1.7,0,2.5,0.8,2.5,2.5
				v1.3C1252.2,876.9,1251.4,877.8,1249.7,877.8z"/>
			<path class="st11" d="M1282.4,827v1.3c0,1.7-0.8,2.5-2.5,2.5h-6.8v44.5c0,1.6-0.9,2.5-2.5,2.5h-2.1c-1.6,0-2.5-0.9-2.5-2.5v-44.5
				h-6.8c-1.6,0-2.5-0.8-2.5-2.5V827c0-1.6,0.9-2.5,2.5-2.5h20.7C1281.5,824.4,1282.4,825.4,1282.4,827z"/>
			<path class="st11" d="M1314.1,877.8h-2.1c-1.4,0-2.4-0.6-2.8-2.1l-6.7-19.8h-0.1h-6.2v19.4c0,1.6-0.9,2.5-2.5,2.5h-2.1
				c-1.7,0-2.5-0.9-2.5-2.5V827c0-1.6,0.8-2.5,2.5-2.5h10.8c8.1,0,13,3.4,13,11.3v8.9c0,5.3-2.3,8.6-6.3,10.2l7.2,20.1
				C1316.7,876.6,1315.9,877.8,1314.1,877.8z M1296.1,849.7h5.9c4,0,6.1-1.6,6.1-6.3v-6.3c0-4.7-2.1-6.3-6.1-6.3h-5.9V849.7z"/>
			<path class="st11" d="M1345.2,877.8h-17.7c-1.7,0-2.5-0.9-2.5-2.5V827c0-1.6,0.8-2.5,2.5-2.5h17.5c1.7,0,2.5,0.9,2.5,2.5v1.3
				c0,1.7-0.8,2.5-2.5,2.5h-12.8v16.8h10.4c1.7,0,2.5,0.9,2.5,2.5v1.4c0,1.6-0.8,2.5-2.5,2.5h-10.4v17.5h13c1.7,0,2.5,0.8,2.5,2.5
				v1.3C1347.7,876.9,1346.9,877.8,1345.2,877.8z"/>
		</g>
		<g>
			<path class="st11" d="M1120,958.6h-3c-2.1,0-3.3-1-3.7-3.1l-2.5-14h-15.6l-2.5,14c-0.3,2.1-1.7,3.1-3.6,3.1h-2.6
				c-2.3,0-3.4-1.3-3-3.7l13-65.6c0.4-2.1,1.8-3.1,3.7-3.1h5.8c2,0,3.3,1,3.7,3.1l13.2,65.6C1123.5,957.3,1122.3,958.6,1120,958.6z
				 M1109.3,933.4l-6.3-35l-6.3,35H1109.3z"/>
			<path class="st11" d="M1139.5,958.6h-2.2c-2.3,0-3.4-1.2-3.4-3.4v-65.6c0-2.2,1.1-3.4,3.4-3.4h3.4c2,0,3.3,0.9,3.9,2.8l17.2,47.1
				v-46.5c0-2.2,1.2-3.4,3.4-3.4h2.2c2.3,0,3.4,1.2,3.4,3.4v65.6c0,2.2-1.1,3.4-3.4,3.4h-3c-2,0-3.2-0.9-3.8-2.8l-17.7-48.7v48.1
				C1142.9,957.4,1141.7,958.6,1139.5,958.6z"/>
			<path class="st11" d="M1192.2,958.6h-2.9c-2.3,0-3.4-1.2-3.4-3.4v-65.6c0-2.2,1.1-3.4,3.4-3.4h2.9c2.2,0,3.4,1.2,3.4,3.4v65.6
				C1195.6,957.4,1194.4,958.6,1192.2,958.6z"/>
			<path class="st11" d="M1239.1,944.6c-0.5,2-1.8,2.8-3.6,2.8s-3.1-0.8-3.7-2.8l-12-35.3v45.8c0,2.2-1.2,3.4-3.5,3.4h-2.2
				c-2.3,0-3.4-1.2-3.4-3.4v-65.6c0-2.2,1.1-3.4,3.4-3.4h2.9c2,0,3.3,0.9,3.9,2.8l14.5,42.2l14.7-42.2c0.6-1.9,1.9-2.8,3.8-2.8h3.3
				c2.3,0,3.4,1.2,3.4,3.4v65.6c0,2.2-1.1,3.4-3.4,3.4h-2.6c-2.2,0-3.4-1.2-3.4-3.4v-45.8L1239.1,944.6z"/>
			<path class="st11" d="M1308.1,958.6h-3c-2.1,0-3.3-1-3.7-3.1l-2.5-14h-15.6l-2.5,14c-0.3,2.1-1.7,3.1-3.6,3.1h-2.6
				c-2.3,0-3.4-1.3-3-3.7l13-65.6c0.4-2.1,1.8-3.1,3.7-3.1h5.8c2,0,3.3,1,3.7,3.1l13.2,65.6C1311.6,957.3,1310.4,958.6,1308.1,958.6
				z M1297.5,933.4l-6.3-35l-6.3,35H1297.5z"/>
			<path class="st11" d="M1349.3,953.2v2c0,2.2-1.1,3.4-3.4,3.4h-22.5c-2.3,0-3.4-1.2-3.4-3.4v-65.6c0-2.2,1.1-3.4,3.4-3.4h2.9
				c2.2,0,3.4,1.2,3.4,3.4v60.2h16.1C1348.2,949.8,1349.3,951.1,1349.3,953.2z"/>
		</g>
	</g>
</g>
</svg>
