<?xml version="1.0" encoding="utf-8"?>
<!-- Generator: Adobe Illustrator 21.0.2, SVG Export Plug-In . SVG Version: 6.00 Build 0)  -->
<svg version="1.1" id="Layer_1" xmlns="http://www.w3.org/2000/svg" xmlns:xlink="http://www.w3.org/1999/xlink" x="0px" y="0px"
	 viewBox="0 0 215 194" style="enable-background:new 0 0 215 194;" xml:space="preserve">
<style type="text/css">
	.st0{opacity:0.1;fill:#FFFFFF;}
	.st1{opacity:0.1;}
	.st2{fill:#FFFFFF;}
</style>
<path class="st0" d="M168.5,36.8c-3.3,1.8-6.5,4.5-9,7.4c-2.7,2.9-4.8,6.2-6.1,10.1c-0.9,1.9-1.3,3.9-1.4,5.9
	c-0.1,0.8-0.2,1.5,0.3,1.9c0.3,0.2,0.8,0.4,1,0.3c0.2,0,0.2,0,0.5-0.1c0.7-0.4,1.1-0.9,1.7-1.3s1.3-0.7,2-1.1
	c1.6-0.8,3.2-1.3,4.9-1.6l0.2,0c3.3-0.6,6.6-0.2,9.7,1.2c0.4,0.7-0.1,1-0.8,1.1c-0.7,0.1-2-0.1-2.2-0.1c-1.3-0.5-3.3-0.7-4.9-0.4
	c-0.7,0.1-1.4,0.5-2.1,0.8c-0.4,0.3-0.5,1.1-0.2,1.5c0.3,0.4,1.1,0.8,1.6,0.9c1.3,0.7,2.7,1.2,3.9,1.5c2.6,0.8,5.3,0.8,7.9,0.3
	c0.2,0,0.2,0,0.5-0.1c2.6-0.7,5.6-1.7,6.8-4.3c1.1-2.1,0.6-4.7-1.1-6.6c-2.3-2.3-4.3-5.1-5.1-8.4c-0.7-2.8-0.7-6.7-3.2-8.7
	C170.7,35.7,168.5,36.8,168.5,36.8z M167.1,48.7c-0.5,0.1-1-0.1-1.3-0.5c-1-1.3,1.3-3.6,3-3.9c0.5-0.1,1,0.1,1.3,0.5
	C171.1,46.1,168.8,48.4,167.1,48.7"/>
<path class="st0" d="M201.5,9.4c0,0-4.8,0.6-6.9,1.2c-3.7,1.4-7.3,3-10.8,5.5c-0.4,0.3-4.9,4-7.1,7.1c-2.4,3.1-3.8,6.5-4.6,10.3
	c3.2,0.4,4.9,3.1,5.9,5.8c0.8,3,1.1,6.2,2.5,9.1c0.7,1.3,1.7,2.6,2.8,3.7c1.2,1,1.9,2.4,2.4,3.7c0.8,3,0.1,6.3-2.2,8.7
	c-1.8,2-4.6,3.2-7.2,3.7c1.2,1.3,2.3,2,3.7,3c5,3.5,10.8,5.9,16.6,7.4s9.6,5.9,10.3,7.2c0.4,0.9,0.7,2.6,2,2.8
	c0.3,0.2,0.3,0.2,0.5,0.2c1.2-0.2,1.8-2.3,1.9-3.3c0.2-1.5,0.3-2.7,0-4.1c-0.1-0.5-1.2-3-0.1-3.2l0,0c0.7-0.1,1.6,0.7,2.3,0.8
	c0.3,0.2,0.5,0.2,0.8,0.1c0.7-0.1,1.1-0.7,1.5-1.5c0.4-0.8,1.3-3.6,1.7-4.2c0.7-1.3,1.8-2.5,2.8-3.4c2.1-1.8,4.6-3,6.7-5.1
	c2.1-2.1,3.8-4.6,5.1-7.2c1.5-2.7,2.4-6,2.8-9c0.2-1.5,0.2-7.1,0.3-9.6c0.2-3,1.9-5.9,3.1-8.8c0.5-1.3,1.1-2.4,1.6-3.4
	c0.3-1,0-1.7-1-1.8c-0.7,0.1-1.9,0.3-2.1-0.6c-0.1-0.7,0.3-1.3,0.7-1.6c0.6-0.6,3.2-4,3.2-5.2c0-1.2-1.2-1.3-1.9-1.1
	c-6.5,0.4-12.4-2.5-18.5-3.9c-3-0.7-6.3-1.1-9.5-1.3c-2.2,0.1-4.4,0-6.5,0.4c-0.7,0.1-1.6,0.5-2.3,0.6c0.4-0.8,1.2-1.7,0.8-2.6
	C202.7,9.2,202,9.3,201.5,9.4 M196.2,46.1c-0.2,0-0.7,0.1-0.9,0.2c-2-0.1-3.3-1.9-3.1-3.6c0.2-1.5,1.5-2.7,2.9-2.9
	c0.5-0.1,0.7-0.1,0.9-0.2c2,0.1,3.3,1.9,3.1,3.6C198.9,44.7,197.6,45.9,196.2,46.1"/>
<g class="st1">
	<path class="st2" d="M34.2,130l0.7-14.8c0.2-0.1,0.2-0.3,0.4-0.4c0.2-0.1,0.5-0.1,0.5,0.1l4.9,6l-1,6L34.2,130z"/>
	<line class="st2" x1="26" y1="168.2" x2="26.1" y2="168.4"/>
	<path class="st2" d="M42.8,241.8c0.3,0.2,0.5,0.1,0.9,0.3c5,1.1,10.1,0.8,14.9-0.6c9.3-2.8,17.2-10.2,20.2-20.1
		c9.1-30.1,13.4-68.3-11.8-86.1l-0.2,0.1c-0.5-0.6-1.1-1-1.7-1.3c0.1,0.5,0.4,1.2,0.5,1.7l0.2-0.1c0.3,2,0.7,4.2,0.6,6.3
		c-0.2,1.1-0.5,5.1-2.2,5.6c-0.2,0.1-0.8,0-1.1-0.2c-1.2-0.7-0.8-1.8-0.3-2.8c0.2-1.1,0.4-2.2,0.6-3.3c0.1-1.3-0.2-3.1-0.7-4.7
		c-3-10.8-16-23.7-16-23.7c-0.1-0.2-0.6-0.3-0.9-0.3c-0.2,0.1-0.4,0.4-0.6,0.7L42.7,129l-18.5,10.3c-2.2,1.2-3.2,2.3-3.7,5
		c0,0-0.6,2.3-1.7,5.5c-1.3,3.5-3.5,8.3-6.6,11.6l1.9,0.2c2.7,0.2,4,2.9,2.9,5.4c-0.7,1.2-1.9,2.2-3,3c-0.8,0.8-1.7,1.3-2.9,1.7
		l-0.2,0.1c0.4,1.4,1.3,2.5,1.9,3.8c2,3,5.2,2.6,7.1,2c0.5-0.1,1-0.3,1.2-0.4c0.9-0.5,1.6-0.7,2.5-1.3c0.2-0.1,0.5-0.1,0.7-0.2
		c0.5-0.1,0.7-0.2,1-0.1s0.7,0.6,0.8,0.8c0.4,1.4-0.7,2-1.6,2.6c-0.9,0.5-1.8,0.8-2.8,1.1c-1.9,0.6-3.9,0.9-5.2,0.8
		c-0.1,1.3,0.5,3.2,3.3,3.9c6.6,1.1,14.4,1.1,22.9,0.1c1.7-0.3,3.2-0.5,4.9-1c4-1.2,7.8-3.4,10.4-6.8c1.9-2.4,3.1-5.1,3.8-7.9
		c0-0.8,0.4-2,1.2-2.2c0.2-0.1,0.5-0.1,0.8,0c1.4,0.4,1.1,1.8,0.9,2.9c-0.7,3.6-2.6,7-5.1,9.9c-3.1,3.5-7.1,5.8-11.4,7.1
		c-1.7,0.5-3.6,0.8-5.4,1.1l-14.7,1.3l-4.1,7C12.8,214,22.5,237.3,42.8,241.8z M34.4,161.5l-7.3,3.5c-1.2,0.4-1.7-1.3-0.8-1.8l7-3.4
		c0.2-0.1,0.2-0.1,0.2-0.1C34.7,159.3,35.5,160.9,34.4,161.5z M26.7,157.8c-0.2,0.1-0.5,0.1-0.5-0.1c-2.2-0.4-1.8-4.9,0.2-5.5
		c0.2-0.1,0.5,0.1,0.8,0C29.1,152.6,28.6,157.2,26.7,157.8z M26,168.2c-0.1-0.2,0.3-0.6,0.6-0.7c0,0,0.2-0.1,0.5,0.1l6.4,2.2
		c1.1,0.2,0.7,1.6,0,1.8c-0.2,0.1-0.2,0.1-0.5-0.1l-6.3-2C26,169.2,25.9,168.7,26,168.2z"/>
	<path class="st2" d="M15.6,165.6c0,0-0.1-0.2-0.1-0.5"/>
	<path class="st2" d="M15.2,165.2c0.2,1.5-1.6,2.6-2.6,3.4c-0.6,0.5-1.3,0.9-2.2,1.2c-0.2,0.1-0.2,0.1-0.5,0.1
		c-1-1.5-1.4-3.7-1.4-3.7c-0.1-1,0.2-2.7,1.4-3l3.8,0.4C15,163.7,15.2,164.4,15.2,165.2z"/>
</g>
<g class="st1">
	<path class="st2" d="M153,94.1c-1.3-0.1-2.7-0.1-3.8,0c-13.9,0.2-27.3,4.9-38.4,12.8c-5.3,3.8-10.5,8.2-14.8,13.1
		c-0.9,1.1-2.1,2.4-3.1,3.6c-0.7,1.1-1.7,2.2-2.2,3.2c-1,2.2-1.1,4.9,0.1,7.2c0.2,0.5,0.4,0.7,0.6,1.1c-1.4,0.2-2.7,0.8-3.2,2.1
		c-0.5,1.3-0.4,2.9,0.5,3.8c1.1,1.2,2.8,1.9,4.1,2.4c3.7,1.5,7.7,2.4,11.7,3c8.4,1.5,16.9,2.6,25.3,3.3c2,0.1,4.2,0.4,6.2,0.5
		c4.5,0.2,9.4-0.2,12.7-3.4c1.9-1.9,2.9-4.6,3-7.2c0.1-1.8-0.3-3.6-0.4-5.4c-0.7-7.4,0.1-15,2.9-22c1-2.6,2.3-5.5,4-7.6
		c0.9-1.1,1.7-1.9,2.2-3.2c0.5-1.1,0.6-2.2,0.6-3.1c-0.1-2-2.1-3-3.8-3.5C156.1,94.3,154.6,94.2,153,94.1 M120.2,118.2
		c-0.7,0-1.3-0.3-2-0.8c-0.8-0.9-0.8-2.3-0.3-3.4c1-2,2.4-3.7,4.1-5.2c2.3-1.9,5.1-3.3,8-3.6c0.7,0,1.1-0.2,1.8-0.1
		c2.7,0.1,5.3,1.2,7.5,2.8c2.8,2.2,4.2,5.4,4.5,8.7c0.1,1.8,0,3.6-0.5,5.3c-0.3,1.1-0.5,2-1.7,2.6c-0.5,0.2-0.9,0.2-1.1,0.2
		c-0.9,0-1.5-0.5-2.2-1.2c-1.7,3.3-5,5.3-8.8,5.2c-5.4-0.3-9.6-5.4-8.6-10.7C120.9,118.2,120.7,118.2,120.2,118.2 M100.2,130.4
		c-1.1-0.1-2.2-1-1.5-2.3c0.3-0.7,0.9-1.1,1.6-1c1.1,0.1,2.2,1,1.7,2.3C101.3,130.2,100.8,130.4,100.2,130.4"/>
	<path class="st2" d="M131.3,107.1c-8-0.4-12,7.5-12,8.1c-0.3,0.7,0.2,0.9,0.6,0.9l0,0c0.7,0,1.1-0.2,1.8-0.1c0.4,0,0.9,0,1.3,0.1
		c2.5,0.1,4.7,0.5,7.1,1.2c3.1,1,6.1,2.5,8.7,4.7l0,0c0,0,1.1,0.9,1.7,1c0.2,0,0.2,0,0.5-0.2c0.5-0.2,0.5-1.3,0.5-1.8
		c0.3-1.8,0.4-3.8,0.1-5.6c-0.7-4.1-3.7-7.1-7.7-8C132.7,107.2,132,107.2,131.3,107.1 M138.6,121.8L138.6,121.8L138.6,121.8
		L138.6,121.8L138.6,121.8"/>
	<path class="st2" d="M124.9,118.2c0,0.4-0.3,0.9-0.3,1.1c-0.2,3.1,2.2,5.7,5.3,5.9c2.5,0.1,4.8-1.3,5.5-3.5
		C131.8,119.5,127.8,118.6,124.9,118.2"/>
	<path class="st2" d="M234.6,211c-0.2,0-0.2,0-0.2,0c-0.2,0-6-0.7-9.1-2c-3.1-1.3-9.5-6.5-11.9-11.8c-3.4-7.6-30.6-44.6-31-44.8
		c-2.8-2.4-5.6-3.6-8.5-3.8c-0.9,0-1.6-0.1-2.2,0.1c-6.5,0.8-10.6,7.1-10.9,7.3c-5.6,8.2-15,8.2-17.2,8.1c-0.2,0-0.4,0-0.4,0
		c-15-0.7-24.4-8.2-29.3-13.1c10,1.4,19.4,2.1,21.4,2.2c0.2,0,0.7,0,0.9,0c7.4,0.4,12.8-1.4,15.9-5.2c4-4.7,3-11.3,2.9-12.4
		c-1.4-12.6,2-21.6,4.2-26c3.6-1.4,13.2-3.6,24.8-3c4.2,0.2,8.7,0.9,13.1,1.8c2.2,0.8,3.5,0.6,8.6,3.3
		c18.8,13.2,39.8,44.8,50.8,61.9C266.9,190.3,254.2,212,234.6,211z"/>
</g>
</svg>
