<?xml version="1.0" encoding="utf-8"?>
<!-- Generator: Adobe Illustrator 21.0.2, SVG Export Plug-In . SVG Version: 6.00 Build 0)  -->
<svg version="1.1" id="Layer_1" xmlns="http://www.w3.org/2000/svg" xmlns:xlink="http://www.w3.org/1999/xlink" x="0px" y="0px"
	 viewBox="0 0 180 126" style="enable-background:new 0 0 180 126;" xml:space="preserve">
<style type="text/css">
	.st0{opacity:0.1;}
	.st1{fill:#FFFFFF;}
</style>
<g class="st0">
	<path class="st1" d="M38.5,59.8l2.3-14.6c0.2,0,0.2-0.3,0.4-0.3c0.2,0,0.5-0.1,0.5,0.2l4.3,6.5l-1.7,5.9L38.5,59.8z"/>
	<line class="st1" x1="26.2" y1="96.8" x2="26.2" y2="97"/>
	<path class="st1" d="M34.8,171.8c0.3,0.2,0.5,0.2,0.8,0.4c4.9,1.6,10,1.9,14.9,1c9.5-1.8,18.2-8.2,22.3-17.8
		c12.4-28.9,20.8-66.4-2.2-86.9l-0.2,0c-0.4-0.7-1-1.1-1.5-1.5c0.1,0.5,0.2,1.2,0.3,1.7l0.2,0c0.1,2,0.3,4.2-0.1,6.3
		c-0.3,1.1-1.1,5-2.8,5.3c-0.2,0-0.8-0.1-1.1-0.3c-1.2-0.8-0.6-1.9,0-2.8c0.3-1.1,0.6-2.1,0.9-3.2c0.3-1.3,0.2-3.1-0.1-4.8
		C64.3,58.3,52.8,44,52.8,44c0-0.2-0.6-0.4-0.8-0.4c-0.2,0-0.4,0.3-0.6,0.6l-4.2,15.5l-19.5,8.2c-2.4,0.9-3.4,1.9-4.2,4.6
		c0,0-0.9,2.2-2.3,5.2c-1.7,3.3-4.4,7.9-7.9,10.8l1.8,0.4c2.6,0.5,3.7,3.4,2.3,5.6c-0.8,1.2-2.2,1.9-3.3,2.6c-0.9,0.7-1.8,1.1-3,1.3
		l-0.2,0c0.3,1.5,1,2.6,1.5,4c1.6,3.2,4.9,3.1,6.8,2.8c0.5-0.1,1-0.2,1.2-0.2c0.9-0.4,1.7-0.6,2.6-1c0.2,0,0.5-0.1,0.7-0.1
		c0.5-0.1,0.7-0.1,1,0.1c0.3,0.2,0.6,0.6,0.7,0.9c0.3,1.5-0.9,1.9-1.8,2.4c-0.9,0.4-1.9,0.6-2.9,0.8c-2,0.4-4,0.5-5.3,0.2
		c-0.3,1.3,0.1,3.3,2.8,4.3c6.4,1.8,14.2,2.7,22.8,2.6c1.8-0.1,3.3-0.1,5-0.4c4.2-0.8,8.1-2.5,11.1-5.6c2.1-2.2,3.7-4.7,4.7-7.5
		c0.1-0.8,0.7-1.9,1.4-2c0.2,0,0.5-0.1,0.8,0.1c1.4,0.5,0.9,1.9,0.5,2.9c-1.1,3.5-3.3,6.7-6.1,9.2c-3.5,3.2-7.7,5-12.1,5.8
		c-1.7,0.3-3.7,0.4-5.5,0.5L26.1,118l-4.9,6.5C8.1,140.9,15.1,165.1,34.8,171.8z M35.2,91l-7.6,2.7c-1.2,0.2-1.5-1.5-0.6-1.9
		l7.4-2.6c0.2,0,0.2,0,0.2,0C35.8,88.9,36.4,90.6,35.2,91z M28.1,86.5c-0.2,0-0.5,0.1-0.5-0.2c-2.1-0.6-1.2-5.1,0.8-5.5
		c0.2,0,0.5,0.2,0.8,0.1C31,81.7,30,86.2,28.1,86.5z M26.2,96.8c0-0.2,0.4-0.6,0.6-0.6c0,0,0.2,0,0.5,0.2l6.1,2.9
		c1.1,0.3,0.6,1.7-0.2,1.8c-0.2,0-0.2,0-0.5-0.2l-6.1-2.7C26.1,97.8,26,97.3,26.2,96.8z"/>
	<path class="st1" d="M16.1,93.1c0,0,0-0.2-0.1-0.5"/>
	<path class="st1" d="M15.8,92.6c0,1.5-1.8,2.4-3,3.1c-0.7,0.4-1.4,0.8-2.4,0.9c-0.2,0-0.2,0-0.5,0.1c-0.8-1.6-1-3.9-1-3.9
		c0.1-1,0.5-2.6,1.7-2.9l3.7,0.8C15.8,91.1,15.9,91.8,15.8,92.6z"/>
</g>
<g class="st0">
	<path class="st1" d="M150,4.1c-1.3-0.1-2.7-0.1-3.8,0C132.3,4.3,118.9,9,107.7,17c-5.3,3.8-10.5,8.2-14.8,13.1
		c-0.9,1.1-2.1,2.4-3.1,3.6c-0.7,1.1-1.7,2.2-2.2,3.2c-1,2.2-1.1,4.9,0.1,7.2c0.2,0.5,0.4,0.7,0.6,1.1c-1.4,0.2-2.7,0.8-3.2,2.1
		s-0.4,2.9,0.5,3.8c1.1,1.2,2.8,1.9,4.1,2.4c3.7,1.5,7.7,2.4,11.7,3c8.4,1.5,16.9,2.6,25.3,3.3c2,0.1,4.2,0.4,6.2,0.5
		c4.5,0.2,9.4-0.2,12.7-3.4c1.9-1.9,2.9-4.6,3-7.2c0.1-1.8-0.3-3.6-0.4-5.4c-0.7-7.4,0.1-15,2.9-22c1-2.6,2.3-5.5,4-7.6
		c0.9-1.1,1.7-1.9,2.2-3.2c0.5-1.1,0.6-2.2,0.6-3.1c-0.1-2-2.1-3-3.8-3.5C153.1,4.3,151.6,4.2,150,4.1 M117.2,28.2
		c-0.7,0-1.3-0.3-2-0.8c-0.8-0.9-0.8-2.3-0.3-3.4c1-2,2.4-3.7,4.1-5.2c2.3-1.9,5.1-3.3,8-3.6c0.7,0,1.1-0.2,1.8-0.1
		c2.7,0.1,5.3,1.2,7.5,2.8c2.8,2.2,4.2,5.4,4.5,8.7c0.1,1.8,0,3.6-0.5,5.3c-0.3,1.1-0.5,2-1.7,2.6c-0.5,0.2-0.9,0.2-1.1,0.2
		c-0.9,0-1.5-0.5-2.2-1.2c-1.7,3.3-5,5.3-8.8,5.2c-5.4-0.3-9.6-5.4-8.6-10.7C117.9,28.2,117.7,28.2,117.2,28.2 M97.2,40.4
		c-1.1-0.1-2.2-1-1.5-2.3c0.3-0.7,0.9-1.1,1.6-1c1.1,0.1,2.2,1,1.7,2.3C98.3,40.2,97.8,40.4,97.2,40.4"/>
	<path class="st1" d="M128.3,17.1c-8-0.4-12,7.5-12,8.1c-0.3,0.7,0.2,0.9,0.6,0.9l0,0c0.7,0,1.1-0.2,1.8-0.1c0.4,0,0.9,0,1.3,0.1
		c2.5,0.1,4.7,0.5,7.1,1.2c3.1,1,6.1,2.5,8.7,4.7l0,0c0,0,1.1,0.9,1.7,1c0.2,0,0.2,0,0.5-0.2c0.5-0.2,0.5-1.3,0.5-1.8
		c0.3-1.8,0.4-3.8,0.1-5.6c-0.7-4.1-3.7-7.1-7.7-8C129.7,17.2,129,17.2,128.3,17.1 M135.6,31.8L135.6,31.8L135.6,31.8L135.6,31.8
		L135.6,31.8"/>
	<path class="st1" d="M121.9,28.2c0,0.4-0.3,0.9-0.3,1.1c-0.2,3.1,2.2,5.7,5.3,5.9c2.5,0.1,4.8-1.3,5.5-3.5
		C128.8,29.5,124.8,28.6,121.9,28.2"/>
	<path class="st1" d="M231.6,121c-0.2,0-0.2,0-0.2,0c-0.2,0-6-0.7-9.1-2c-3.1-1.3-9.5-6.5-11.9-11.8c-3.4-7.6-30.6-44.6-31-44.8
		c-2.8-2.4-5.6-3.6-8.5-3.8c-0.9,0-1.6-0.1-2.2,0.1c-6.5,0.8-10.6,7.1-10.9,7.3c-5.6,8.2-15,8.2-17.2,8.1c-0.2,0-0.4,0-0.4,0
		c-15-0.7-24.4-8.2-29.3-13.1c10,1.4,19.4,2.1,21.4,2.2c0.2,0,0.7,0,0.9,0c7.4,0.4,12.8-1.4,15.9-5.2c4-4.7,3-11.3,2.9-12.4
		c-1.4-12.6,2-21.6,4.2-26c3.6-1.4,13.2-3.6,24.8-3c4.2,0.2,8.7,0.9,13.1,1.8c2.2,0.8,3.5,0.6,8.6,3.3
		c18.8,13.2,39.8,44.8,50.8,61.9C263.9,100.3,251.2,122,231.6,121z"/>
</g>
</svg>
