<?xml version="1.0" encoding="utf-8"?>
<!-- Generator: Adobe Illustrator 21.0.2, SVG Export Plug-In . SVG Version: 6.00 Build 0)  -->
<svg version="1.1" id="Layer_1" xmlns="http://www.w3.org/2000/svg" xmlns:xlink="http://www.w3.org/1999/xlink" x="0px" y="0px"
	 viewBox="0 0 210.5 174" style="enable-background:new 0 0 210.5 174;" xml:space="preserve">
<style type="text/css">
	.st0{opacity:0.1;}
	.st1{fill:none;}
	.st2{fill:#FFFFFF;}
	.st3{opacity:0.1;fill:#FFFFFF;enable-background:new    ;}
</style>
<g class="st0">
	<line class="st1" x1="22" y1="54.6" x2="21.9" y2="54.8"/>
	<path class="st2" d="M97.2,60.1c-0.5-2.8-0.9-5.9-0.8-8.5l-61.6-0.2c-0.3-2.6-0.7-5.2-1.2-7.6c-0.9-4.1-2.3-8.3-4.3-11.8
		c-1.8-3.3-4.1-6.6-7.3-8.7c-0.4-0.4-3.2-1.6-3.6-1.2c-0.2,0.2-0.4,0.4-0.5,0.8l-0.1,26.4c0,0.4,0,0.4,0,0.9
		c-0.2,0.2-0.2,0.6-0.5,0.8c-1.1,1-3.1,0.8-3.6-1.2l-0.9-5l-4-20.9c0-0.4-0.4-0.9-1-1.1S6.7,23,6.3,23.4c-0.2,0.2-0.2,0.2-0.4,0.4
		c-1.1,1.5-2.3,2.9-3.2,4.6c-0.7,1.1-1.2,2.3-1.8,3.4c-1,2.6-1.9,5.1-2.7,7.9c-1.8,7.9-1.7,16.6-0.7,24.8c0.5,3.7,1,7.4,2,11.1
		c-1.2,9.9-13,65.6-14,97.3c-0.6,16,36.1,29.1,36.6,29.1c7.6,0.1,14.1-2.7,19.3-7.5c6.5-6,10-14.8,8.6-24.3l0.6-64.9
		c-5.2,0.2-10.2,0.3-15.3,0.1c-4.3-0.2-8.6-0.7-12.6-2.8c-4.9-2.5-8.2-7.4-9.1-12.9c-0.4-1.3-0.3-2.6-0.3-3.9c0-0.4,0.3-1.1,0.5-1.3
		c0.4-0.4,1.1-0.6,1.7-0.4c0.8,0.5,0.8,1.3,0.8,2.2c0.1,4.5,1.8,9.1,5.4,12.1c3.2,2.5,6.8,3.3,10.7,3.8c2.8,0.3,48-0.9,51.7-1
		c0.2-0.2,0.4,0,0.7-0.2c0.4-0.4,0.5-0.8,0-1.3c-3-1.8-5.7-4.3-7.5-7.2c-1-1.5-2-3.5-2.2-5.5c-0.2-0.7,0.3-1.1,0.5-1.3
		c0.7-0.6,2.4-0.6,2.6,1c0,0.4,0.2,0.7,0.2,1.1c0.6,2,1.8,4.2,3.3,5.7l1.2,1.3c4.8,4.3,11.5,6,18,4.5c5.7-1.5,11.2-3.7,16-7
		c1.8-1.2,3.3-2.3,4.9-3.7l0.7-0.6c-6.6-2.2-12.8-5.6-17.1-11.2C100.9,72.1,98.8,66.2,97.2,60.1z M59.6,70.6c-3.3,2.7-8-0.1-7.4-3.9
		c0-0.9,0.7-1.9,1.2-2.3c0.7-0.6,1.8-1.2,3.1-1.2C60.2,63.3,62.2,68.1,59.6,70.6z M86.3,76.6c-0.2,0.2-0.7,0.6-1.3,0.4
		c-1.7-0.1-2.1-2.2-1.2-3.1c0.2-0.2,0.7-0.6,1.3-0.4C87.1,73.3,87.4,75.5,86.3,76.6z M95.8,76.5c-0.2,0.2-0.7,0.6-1.3,0.4
		c-1.7-0.1-2.1-2.2-1.2-3.1c0.2-0.2,0.7-0.6,1.3-0.4C96.3,73.5,96.8,75.6,95.8,76.5z M91.3,68.5c-0.2,0.2-0.7,0.6-1.3,0.4
		c-1.7-0.1-2.1-2.2-1.2-3.1c0.2-0.2,0.7-0.6,1.3-0.4C92.2,65.3,92.4,67.5,91.3,68.5z"/>
	<path class="st2" d="M134.9,50.8c1.6,21.4-10.7,34.6-10.7,34.6C98.2,78.4,99.3,51,99.3,51L134.9,50.8z"/>
</g>
<path class="st3" d="M154.1,83.6c-0.8,0-0.8,0.6-1.9,0.8c-0.8,1.4-1.6,2.2-2.7,3.3c-2.4,2.2-4.9,4.4-7.3,6c-3,2.2-5.9,5.2-7.6,9
	c-4.8,10.4-1.2,19.6,1,23.9c8.1-14.5,23-20.6,23-20.6c1.3-3.8,2.1-7.6,1.5-11.4s-2-7.1-4.2-10C155.2,83.9,154.9,83.6,154.1,83.6
	L154.1,83.6"/>
<path class="st3" d="M129.4,111.9c0,0-58.1,21.7-54.6,82.6c0.6,6.3,6.1,10.6,12.3,9.7h0.3l77.5-14.5c7.3-1.4,13.3-5.8,16.5-12.6l0,0
	c1.3-2.7,2.4-5.7,3.2-8.2c0.3-0.8,0.5-1.4,0.8-2.2s0.3-1.4,0.3-2.2c-0.6-1.4-1.6-1.6-2.7-1.6c-4.4-0.8-9-2.4-12.3-4.8
	c-0.8-0.8-1.6-1.6-2.5-2.7c-0.5-0.3-0.8-0.8-0.3-1.1h0.3c0.3,0,0.5,0.3,0.8,0.3c2.5,0.8,4.6,1.9,7.1,2.7c4.9,1.3,9.8,1.6,14.7,0.7
	c1.9-0.3,3.5-0.6,5.4-1.1l0.1-18.2c0,0-24.5-0.9-37-29.7c0,0-15.2,6.7-23.5,23.6C135.6,132.8,126.9,122,129.4,111.9 M163.9,141
	c-1.6,0.3-3.3-0.8-3.3-2.4c-0.3-1.4,0.8-3,2.4-3.3l0,0c1.4-0.3,3,0.8,3.3,2.4C166.6,138.8,165.6,140.4,163.9,141L163.9,141"/>
</svg>
