<?xml version="1.0" encoding="utf-8"?>
<!-- Generator: Adobe Illustrator 21.0.2, SVG Export Plug-In . SVG Version: 6.00 Build 0)  -->
<svg version="1.1" id="Layer_1" xmlns="http://www.w3.org/2000/svg" xmlns:xlink="http://www.w3.org/1999/xlink" x="0px" y="0px"
	 viewBox="0 0 5000 2000" style="enable-background:new 0 0 5000 2000;" xml:space="preserve">
<style type="text/css">
	.st0{fill:none;}
	.st1{fill:#FFFFFF;enable-background:new    ;}
	.st2{fill:#FFFFFF;stroke:#A06262;stroke-width:0;stroke-linecap:round;stroke-linejoin:round;enable-background:new    ;}
	.st3{fill:#FFFFFF;stroke:#A06262;stroke-width:0;stroke-linecap:round;stroke-linejoin:round;}
	.st4{opacity:6.000000e-02;fill:url(#New_Pattern_3);}
</style>
<pattern  x="2436.9" y="126.2" width="165.6" height="131.5" patternUnits="userSpaceOnUse" id="New_Pattern_3" viewBox="8 -171.7 165.6 131.5" style="overflow:visible;">
	<g>
		<rect x="8" y="-171.7" class="st0" width="165.6" height="131.5"/>
		<g>
			<path class="st1" d="M204.9-6.5c-0.2,2.3,0.5,4.5,1.6,6.5h-0.3c-0.7,0-1.3-0.1-2-0.2c-1.9-0.3-3.7-1-5.4-1.9
				c-1.9-1.1-3.1-3-3.3-5.1v-0.6c0-0.7,0.2-1.5,0.5-2.1c0.1-0.1,0.1-0.2,0.2-0.3c0.3-0.4-0.1-0.8-0.4-0.8c-0.1,0-0.3,0-0.4,0.2
				c-0.4,0.5-0.6,1.2-0.7,1.8c-0.2,1.1-0.1,2.3,0.2,3.4c0,0.2-0.1,0.3-0.3,0.3c-0.1,0-0.1-0.1-0.2-0.1c-0.9-0.8-12-10.6-12.6-11.3
				c-0.8-1-1.5-2-1.7-3.3c-0.2-1.5,0.4-3,1.4-4.1c0.2-0.2,0.4-0.4,0.3-0.7c-0.1-0.2-0.3-0.3-0.5-0.3c-0.1,0-0.3,0.1-0.4,0.2
				c-0.3,0.3-0.6,0.6-0.8,1c-1,1.5-1.3,3.4-0.7,5.1c0.5,1.4,1.4,2.5,2.4,3.5c1.2,1.2,2.4,2.3,3.7,3.4l-3,4.2
				c-1.8,2.6-4.6,3.9-7.5,3.9c-2.3,0-4.5-0.8-6.3-2.5c-0.1-0.1-0.1-0.1-0.2-0.2c-3.8-3.6-3.9-9.5-0.2-13.2c1.9-1.8,3.5-3.5,4.4-4.3
				c2.3-2.2,4.7-4.3,7.2-6.4c0.6-1.1,1.3-2.1,2-3.1c1.6-2.2,3.5-4.3,5.7-5.8c0.8-0.5,1.6-0.9,2.4-1.3c0.4-0.1,0.8-0.3,1.2-0.4
				c0.6-0.2,1.2-0.3,1.8-0.4c0.1,0,0.1,0,0.2,0c0.2,0,0.4,0,0.5,0.2c0.1,0.2,0.1,0.4,0,0.5l-3.7,5.9l-0.9,1.4
				c-0.3,0.6,0.1,1.1,0.6,1.1c0.1,0,0.2-0.1,0.3-0.1c0.1-0.1,0.1-0.1,0.2-0.2l5.9-6.3c0.1-0.1,0.2-0.1,0.3-0.1
				c0.2,0,0.6,0.9,0.6,1.1c0.3,1.2,0.1,2.5-0.2,3.7c-0.3,1.3-0.9,2.6-1.6,3.8c-0.4,0.7-0.9,1.4-1.4,2.1l14.7,13.8
				c-0.6,0.6-1.2,1.4-1.7,2.2C205.8-10.5,205-8.6,204.9-6.5z M196.3-20.7c-0.3-0.3-0.7-0.4-1-0.4c-0.2,0-0.6,0.1-0.8,0.3
				c-1,0.8-0.5,2.5,0.9,2.6C196.6-18.2,197.2-19.8,196.3-20.7z M200.9-11.8c-0.1-0.2-0.3-0.2-0.4-0.2c-0.4,0-0.8,0.6-0.4,1
				c0.1,0.2,0.3,0.2,0.4,0.2C201-10.8,201.4-11.4,200.9-11.8z M203.2-9.7c-0.1-0.2-0.3-0.2-0.4-0.2c-0.4,0-0.8,0.6-0.4,1
				c0.1,0.2,0.3,0.2,0.4,0.2C203.2-8.7,203.6-9.3,203.2-9.7z M203.9-12.6c-0.1-0.2-0.3-0.2-0.4-0.2c-0.4,0-0.8,0.6-0.4,1
				c0.1,0.2,0.3,0.2,0.4,0.2C204-11.6,204.4-12.2,203.9-12.6z"/>
		</g>
		<g>
			<path class="st1" d="M39.3-6.5C39.1-4.2,39.8-2,40.9,0h-0.3c-0.7,0-1.3-0.1-2-0.2c-1.9-0.3-3.7-1-5.4-1.9c-1.9-1.1-3.1-3-3.3-5.1
				v-0.6c0-0.7,0.2-1.5,0.5-2.1c0.1-0.1,0.1-0.2,0.2-0.3c0.3-0.4-0.1-0.8-0.4-0.8c-0.1,0-0.3,0-0.4,0.2c-0.4,0.5-0.6,1.2-0.7,1.8
				c-0.2,1.1-0.1,2.3,0.2,3.4c0,0.2-0.1,0.3-0.3,0.3c-0.1,0-0.1-0.1-0.2-0.1c-0.9-0.8-12-10.6-12.6-11.3c-0.8-1-1.5-2-1.7-3.3
				c-0.2-1.5,0.4-3,1.4-4.1c0.2-0.2,0.4-0.4,0.3-0.7c-0.1-0.2-0.3-0.3-0.5-0.3c-0.1,0-0.3,0.1-0.4,0.2c-0.3,0.3-0.6,0.6-0.8,1
				c-1,1.5-1.3,3.4-0.7,5.1c0.5,1.4,1.4,2.5,2.4,3.5c1.2,1.2,2.4,2.3,3.7,3.4l-3,4.2c-1.8,2.6-4.6,3.9-7.5,3.9
				c-2.3,0-4.5-0.8-6.3-2.5C3-6.4,3-6.4,2.9-6.5C-0.9-10.1-1-16,2.7-19.7c1.9-1.8,3.5-3.5,4.4-4.3c2.3-2.2,4.7-4.3,7.2-6.4
				c0.6-1.1,1.3-2.1,2-3.1c1.6-2.2,3.5-4.3,5.7-5.8c0.8-0.5,1.6-0.9,2.4-1.3c0.4-0.1,0.8-0.3,1.2-0.4c0.6-0.2,1.2-0.3,1.8-0.4
				c0.1,0,0.1,0,0.2,0c0.2,0,0.4,0,0.5,0.2c0.1,0.2,0.1,0.4,0,0.5l-3.7,5.9l-0.9,1.4c-0.3,0.6,0.1,1.1,0.6,1.1
				c0.1,0,0.2-0.1,0.3-0.1c0.1-0.1,0.1-0.1,0.2-0.2l5.9-6.3c0.1-0.1,0.2-0.1,0.3-0.1c0.2,0,0.6,0.9,0.6,1.1c0.3,1.2,0.1,2.5-0.2,3.7
				c-0.3,1.3-0.9,2.6-1.6,3.8c-0.4,0.7-0.9,1.4-1.4,2.1l14.7,13.8c-0.6,0.6-1.2,1.4-1.7,2.2C40.2-10.5,39.4-8.6,39.3-6.5z
				 M30.7-20.7c-0.3-0.3-0.7-0.4-1-0.4c-0.2,0-0.6,0.1-0.8,0.3c-1,0.8-0.5,2.5,0.9,2.6C31-18.2,31.6-19.8,30.7-20.7z M35.3-11.8
				C35.2-12,35-12,34.9-12c-0.4,0-0.8,0.6-0.4,1c0.1,0.2,0.3,0.2,0.4,0.2C35.4-10.8,35.8-11.4,35.3-11.8z M37.6-9.7
				c-0.1-0.2-0.3-0.2-0.4-0.2c-0.4,0-0.8,0.6-0.4,1c0.1,0.2,0.3,0.2,0.4,0.2C37.6-8.7,38-9.3,37.6-9.7z M38.3-12.6
				c-0.1-0.2-0.3-0.2-0.4-0.2c-0.4,0-0.8,0.6-0.4,1c0.1,0.2,0.3,0.2,0.4,0.2C38.4-11.6,38.8-12.2,38.3-12.6z"/>
			<g>
				<path class="st1" d="M80.8-56.5l-2-5.6c-0.1,0-0.1-0.1-0.2-0.1c-0.1,0-0.2,0-0.2,0.1l-1.2,2.9l1.1,2.2L80.8-56.5z"/>
				<line class="st2" x1="88.4" y1="-42.8" x2="88.4" y2="-42.7"/>
				<path class="st1" d="M90.5-12.5c-0.1,0.1-0.2,0.1-0.3,0.2c-1.8,1-3.8,1.5-5.8,1.5c-3.9,0-7.8-1.9-10.1-5.4
					c-7-10.5-13.1-24.7-5.5-34.5h0.1c0.1-0.3,0.3-0.5,0.5-0.7c0,0.2,0,0.5,0,0.7h-0.1c0.1,0.8,0.2,1.7,0.5,2.5
					c0.2,0.4,0.8,1.9,1.5,1.9c0.1,0,0.3-0.1,0.4-0.2c0.4-0.4,0.1-0.8-0.2-1.1c-0.2-0.4-0.4-0.8-0.6-1.2c-0.2-0.5-0.3-1.2-0.3-1.9
					c-0.1-4.5,3.4-11,3.4-11c0-0.1,0.2-0.2,0.3-0.2c0.1,0,0.2,0.1,0.3,0.2l2.8,5.8l8.3,1.8c1,0.2,1.5,0.5,2,1.5c0,0,0.5,0.8,1.3,1.9
					c0.9,1.2,2.3,2.8,3.9,3.7l-0.7,0.3c-1,0.4-1.2,1.6-0.5,2.4c0.4,0.4,1,0.6,1.5,0.8c0.4,0.2,0.8,0.3,1.3,0.3h0.1
					c0,0.6-0.2,1.1-0.3,1.7c-0.4,1.4-1.7,1.6-2.5,1.6c-0.2,0-0.4,0-0.5,0c-0.4-0.1-0.7-0.1-1.1-0.2c-0.1,0-0.2,0-0.3,0
					c-0.2,0-0.3,0-0.4,0.1c-0.1,0.1-0.2,0.3-0.2,0.4c0,0.6,0.5,0.7,0.9,0.8c0.4,0.1,0.8,0.1,1.2,0.1c0.8,0,1.6-0.1,2.1-0.3
					c0.2,0.5,0.2,1.3-0.8,1.9c-2.4,1.2-5.4,2.1-8.8,2.7c-0.7,0.1-1.3,0.2-2,0.2c-1.7,0-3.4-0.4-4.8-1.4c-1-0.7-1.8-1.6-2.4-2.6
					c-0.1-0.3-0.4-0.7-0.7-0.7c-0.1,0-0.2,0-0.3,0.1c-0.5,0.3-0.2,0.8,0,1.2c0.7,1.3,1.8,2.4,3.1,3.2c1.6,1,3.4,1.4,5.2,1.4
					c0.7,0,1.5-0.1,2.2-0.2l5.8-1.2l2.4,2.2C98.8-26.7,97.8-16.6,90.5-12.5z M84.4-44.4l3.2,0.5c0.5,0,0.5-0.7,0.1-0.8l-3.1-0.5
					c-0.1,0-0.1,0-0.1,0C84-45.2,83.9-44.5,84.4-44.4z M86.9-46.7c0.1,0,0.2,0,0.2-0.1c0.8-0.4,0.1-2.1-0.7-2.1
					c-0.1,0-0.2,0.1-0.3,0.1C85.4-48.4,86.1-46.7,86.9-46.7z M88.4-42.8c0-0.1-0.2-0.2-0.3-0.2c0,0-0.1,0-0.2,0.1l-2.2,1.6
					c-0.4,0.2-0.1,0.7,0.2,0.7c0.1,0,0.1,0,0.2-0.1l2.2-1.5C88.5-42.4,88.5-42.6,88.4-42.8z"/>
				<path class="st2" d="M92.1-45c0,0,0-0.1,0-0.2"/>
				<path class="st1" d="M92.2-45.2c0.1,0.6,0.9,0.8,1.4,1c0.3,0.1,0.6,0.2,1,0.2c0.1,0,0.1,0,0.2,0c0.2-0.7,0.1-1.6,0.1-1.6
					c-0.1-0.4-0.4-1-0.9-1L92.6-46C92.1-45.8,92.1-45.5,92.2-45.2z"/>
			</g>
		</g>
		<g>
			<path class="st1" d="M204.9-138c-0.2,2.3,0.5,4.5,1.6,6.5h-0.3c-0.7,0-1.3-0.1-2-0.2c-1.9-0.3-3.7-1-5.4-1.9
				c-1.9-1.1-3.1-3-3.3-5.1v-0.6c0-0.7,0.2-1.5,0.5-2.1c0.1-0.1,0.1-0.2,0.2-0.3c0.3-0.4-0.1-0.8-0.4-0.8c-0.1,0-0.3,0-0.4,0.2
				c-0.4,0.5-0.6,1.2-0.7,1.8c-0.2,1.1-0.1,2.3,0.2,3.4c0,0.2-0.1,0.3-0.3,0.3c-0.1,0-0.1-0.1-0.2-0.1c-0.9-0.8-12-10.6-12.6-11.3
				c-0.8-1-1.5-2-1.7-3.3c-0.2-1.5,0.4-3,1.4-4.1c0.2-0.2,0.4-0.4,0.3-0.7c-0.1-0.2-0.3-0.3-0.5-0.3c-0.1,0-0.3,0.1-0.4,0.2
				c-0.3,0.3-0.6,0.6-0.8,1c-1,1.5-1.3,3.4-0.7,5.1c0.5,1.4,1.4,2.5,2.4,3.5c1.2,1.2,2.4,2.3,3.7,3.4l-3,4.2
				c-1.8,2.6-4.6,3.9-7.5,3.9c-2.3,0-4.5-0.8-6.3-2.5c-0.1-0.1-0.1-0.1-0.2-0.2c-3.8-3.6-3.9-9.5-0.2-13.2c1.9-1.8,3.5-3.5,4.4-4.3
				c2.3-2.2,4.7-4.3,7.2-6.4c0.6-1.1,1.3-2.1,2-3.1c1.6-2.2,3.5-4.3,5.7-5.8c0.8-0.5,1.6-0.9,2.4-1.3c0.4-0.1,0.8-0.3,1.2-0.4
				c0.6-0.2,1.2-0.3,1.8-0.4c0.1,0,0.1,0,0.2,0c0.2,0,0.4,0,0.5,0.2c0.1,0.2,0.1,0.4,0,0.5l-3.7,5.9l-0.9,1.4
				c-0.3,0.6,0.1,1.1,0.6,1.1c0.1,0,0.2-0.1,0.3-0.1c0.1-0.1,0.1-0.1,0.2-0.2l5.9-6.3c0.1-0.1,0.2-0.1,0.3-0.1
				c0.2,0,0.6,0.9,0.6,1.1c0.3,1.2,0.1,2.5-0.2,3.7c-0.3,1.3-0.9,2.6-1.6,3.8c-0.4,0.7-0.9,1.4-1.4,2.1l14.7,13.8
				c-0.6,0.6-1.2,1.4-1.7,2.2C205.8-142,205-140.1,204.9-138z M196.3-152.2c-0.3-0.3-0.7-0.4-1-0.4c-0.2,0-0.6,0.1-0.8,0.3
				c-1,0.8-0.5,2.5,0.9,2.6C196.6-149.7,197.2-151.3,196.3-152.2z M200.9-143.3c-0.1-0.2-0.3-0.2-0.4-0.2c-0.4,0-0.8,0.6-0.4,1
				c0.1,0.2,0.3,0.2,0.4,0.2C201-142.3,201.4-142.9,200.9-143.3z M203.2-141.2c-0.1-0.2-0.3-0.2-0.4-0.2c-0.4,0-0.8,0.6-0.4,1
				c0.1,0.2,0.3,0.2,0.4,0.2C203.2-140.2,203.6-140.8,203.2-141.2z M203.9-144.1c-0.1-0.2-0.3-0.2-0.4-0.2c-0.4,0-0.8,0.6-0.4,1
				c0.1,0.2,0.3,0.2,0.4,0.2C204-143.1,204.4-143.7,203.9-144.1z"/>
		</g>
		<g>
			<line class="st3" x1="24.3" y1="-161.9" x2="24.4" y2="-161.9"/>
			<path class="st1" d="M39.3-138c-0.2,2.3,0.5,4.5,1.6,6.5h-0.3c-0.7,0-1.3-0.1-2-0.2c-1.9-0.3-3.7-1-5.4-1.9
				c-1.9-1.1-3.1-3-3.3-5.1v-0.6c0-0.7,0.2-1.5,0.5-2.1c0.1-0.1,0.1-0.2,0.2-0.3c0.3-0.4-0.1-0.8-0.4-0.8c-0.1,0-0.3,0-0.4,0.2
				c-0.4,0.5-0.6,1.2-0.7,1.8c-0.2,1.1-0.1,2.3,0.2,3.4c0,0.2-0.1,0.3-0.3,0.3c-0.1,0-0.1-0.1-0.2-0.1c-0.9-0.8-12-10.6-12.6-11.3
				c-0.8-1-1.5-2-1.7-3.3c-0.2-1.5,0.4-3,1.4-4.1c0.2-0.2,0.4-0.4,0.3-0.7c-0.1-0.2-0.3-0.3-0.5-0.3c-0.1,0-0.3,0.1-0.4,0.2
				c-0.3,0.3-0.6,0.6-0.8,1c-1,1.5-1.3,3.4-0.7,5.1c0.5,1.4,1.4,2.5,2.4,3.5c1.2,1.2,2.4,2.3,3.7,3.4l-3,4.2
				c-1.8,2.6-4.6,3.9-7.5,3.9c-2.3,0-4.5-0.8-6.3-2.5C3-137.9,3-137.9,2.9-138c-3.8-3.6-3.9-9.5-0.2-13.2c1.9-1.8,3.5-3.5,4.4-4.3
				c2.3-2.2,4.7-4.3,7.2-6.4c0.6-1.1,1.3-2.1,2-3.1c1.6-2.2,3.5-4.3,5.7-5.8c0.8-0.5,1.6-0.9,2.4-1.3c0.4-0.1,0.8-0.3,1.2-0.4
				c0.6-0.2,1.2-0.3,1.8-0.4c0.1,0,0.1,0,0.2,0c0.2,0,0.4,0,0.5,0.2c0.1,0.2,0.1,0.4,0,0.5l-3.7,5.9l-0.9,1.4
				c-0.3,0.6,0.1,1.1,0.6,1.1c0.1,0,0.2-0.1,0.3-0.1c0.1-0.1,0.1-0.1,0.2-0.2l5.9-6.3c0.1-0.1,0.2-0.1,0.3-0.1
				c0.2,0,0.6,0.9,0.6,1.1c0.3,1.2,0.1,2.5-0.2,3.7c-0.3,1.3-0.9,2.6-1.6,3.8c-0.4,0.7-0.9,1.4-1.4,2.1L42.9-146
				c-0.6,0.6-1.2,1.4-1.7,2.2C40.2-142,39.4-140.1,39.3-138z M30.7-152.2c-0.3-0.3-0.7-0.4-1-0.4c-0.2,0-0.6,0.1-0.8,0.3
				c-1,0.8-0.5,2.5,0.9,2.6C31-149.7,31.6-151.3,30.7-152.2z M35.3-143.3c-0.1-0.2-0.3-0.2-0.4-0.2c-0.4,0-0.8,0.6-0.4,1
				c0.1,0.2,0.3,0.2,0.4,0.2C35.4-142.3,35.8-142.9,35.3-143.3z M37.6-141.2c-0.1-0.2-0.3-0.2-0.4-0.2c-0.4,0-0.8,0.6-0.4,1
				c0.1,0.2,0.3,0.2,0.4,0.2C37.6-140.2,38-140.8,37.6-141.2z M38.3-144.1c-0.1-0.2-0.3-0.2-0.4-0.2c-0.4,0-0.8,0.6-0.4,1
				c0.1,0.2,0.3,0.2,0.4,0.2C38.4-143.1,38.8-143.7,38.3-144.1z"/>
			<path class="st1" d="M43.7-145.5c0,0-6.4,6.3-1.7,13.8c0,0,5.9-0.4,10.3-5.9L43.7-145.5z"/>
			<g>
				<path class="st1" d="M80.8-188l-2-5.6c-0.1,0-0.1-0.1-0.2-0.1c-0.1,0-0.2,0-0.2,0.1l-1.2,2.9l1.1,2.2L80.8-188z"/>
				<line class="st2" x1="88.4" y1="-174.3" x2="88.4" y2="-174.2"/>
				<path class="st1" d="M90.5-144c-0.1,0.1-0.2,0.1-0.3,0.2c-1.8,1-3.8,1.5-5.8,1.5c-3.9,0-7.8-1.9-10.1-5.4
					c-7-10.5-13.1-24.7-5.5-34.5h0.1c0.1-0.3,0.3-0.5,0.5-0.7c0,0.2,0,0.5,0,0.7h-0.1c0.1,0.8,0.2,1.7,0.5,2.5
					c0.2,0.4,0.8,1.9,1.5,1.9c0.1,0,0.3-0.1,0.4-0.2c0.4-0.4,0.1-0.8-0.2-1.1c-0.2-0.4-0.4-0.8-0.6-1.2c-0.2-0.5-0.3-1.2-0.3-1.9
					c-0.1-4.5,3.4-11,3.4-11c0-0.1,0.2-0.2,0.3-0.2c0.1,0,0.2,0.1,0.3,0.2l2.8,5.8l8.3,1.8c1,0.2,1.5,0.5,2,1.5c0,0,0.5,0.8,1.3,1.9
					c0.9,1.2,2.3,2.8,3.9,3.7l-0.7,0.3c-1,0.4-1.2,1.6-0.5,2.4c0.4,0.4,1,0.6,1.5,0.8c0.4,0.2,0.8,0.3,1.3,0.3h0.1
					c0,0.6-0.2,1.1-0.3,1.7c-0.4,1.4-1.7,1.6-2.5,1.6c-0.2,0-0.4,0-0.5,0c-0.4-0.1-0.7-0.1-1.1-0.2c-0.1,0-0.2,0-0.3,0
					c-0.2,0-0.3,0-0.4,0.1c-0.1,0.1-0.2,0.3-0.2,0.4c0,0.6,0.5,0.7,0.9,0.8c0.4,0.1,0.8,0.1,1.2,0.1c0.8,0,1.6-0.1,2.1-0.3
					c0.2,0.5,0.2,1.3-0.8,1.9c-2.4,1.2-5.4,2.1-8.8,2.7c-0.7,0.1-1.3,0.2-2,0.2c-1.7,0-3.4-0.4-4.8-1.4c-1-0.7-1.8-1.6-2.4-2.6
					c-0.1-0.3-0.4-0.7-0.7-0.7c-0.1,0-0.2,0-0.3,0.1c-0.5,0.3-0.2,0.8,0,1.2c0.7,1.3,1.8,2.4,3.1,3.2c1.6,1,3.4,1.4,5.2,1.4
					c0.7,0,1.5-0.1,2.2-0.2l5.8-1.2l2.4,2.2C98.8-158.2,97.8-148.1,90.5-144z M84.4-175.9l3.2,0.5c0.5,0,0.5-0.7,0.1-0.8l-3.1-0.5
					c-0.1,0-0.1,0-0.1,0C84-176.7,83.9-176,84.4-175.9z M86.9-178.2c0.1,0,0.2,0,0.2-0.1c0.8-0.4,0.1-2.1-0.7-2.1
					c-0.1,0-0.2,0.1-0.3,0.1C85.4-179.9,86.1-178.2,86.9-178.2z M88.4-174.3c0-0.1-0.2-0.2-0.3-0.2c0,0-0.1,0-0.2,0.1l-2.2,1.6
					c-0.4,0.2-0.1,0.7,0.2,0.7c0.1,0,0.1,0,0.2-0.1l2.2-1.5C88.5-173.9,88.5-174.1,88.4-174.3z"/>
				<path class="st2" d="M92.1-176.5c0,0,0-0.1,0-0.2"/>
				<path class="st1" d="M92.2-176.7c0.1,0.6,0.9,0.8,1.4,1c0.3,0.1,0.6,0.2,1,0.2c0.1,0,0.1,0,0.2,0c0.2-0.7,0.1-1.6,0.1-1.6
					c-0.1-0.4-0.4-1-0.9-1l-1.4,0.6C92.1-177.3,92.1-177,92.2-176.7z"/>
			</g>
			<path class="st1" d="M122.6-134.2c0.7,0,1.4,0,1.9,0.3c0.8,0.2,1.7,0.6,1.8,1.5c0,0.4,0,0.9-0.2,1.4c-0.2,0.6-0.5,1-0.9,1.5
				c-0.7,1-1.2,2.3-1.6,3.5c-1.1,3.2-1.3,6.6-0.8,9.9c0.1,0.8,0.3,1.6,0.3,2.4c0,1.2-0.4,2.4-1.2,3.3c-1.4,1.5-3.6,1.8-5.6,1.8
				c-0.9,0-1.9-0.1-2.8-0.1c-3.8-0.1-7.6-0.4-11.4-0.9c-1.8-0.2-3.6-0.5-5.3-1.1c-0.6-0.2-1.4-0.5-1.9-1c-0.4-0.4-0.5-1.1-0.3-1.7
				c0.2-0.6,0.8-0.9,1.4-1c-0.1-0.2-0.2-0.3-0.3-0.5c-0.6-1-0.6-2.2-0.2-3.2c0.2-0.5,0.6-1,0.9-1.5c0.4-0.6,0.9-1.2,1.3-1.7
				c1.8-2.3,4-4.4,6.3-6.2c4.8-3.8,10.7-6.2,16.9-6.6C121.4-134.2,122-134.2,122.6-134.2 M108.5-122.7c0.2,0,0.3,0,0.3-0.1
				c-0.3,2.4,1.7,4.6,4.1,4.6c1.7,0,3.1-1,3.8-2.5c0.3,0.3,0.6,0.5,1,0.5c0.1,0,0.3,0,0.5-0.1c0.5-0.3,0.6-0.7,0.7-1.2
				c0.2-0.8,0.2-1.6,0.1-2.4c-0.2-1.5-0.9-2.9-2.2-3.8c-1-0.7-2.2-1.1-3.4-1.1c-0.3,0-0.5,0.1-0.8,0.1c-1.3,0.2-2.5,0.9-3.5,1.8
				c-0.7,0.7-1.3,1.5-1.7,2.4c-0.2,0.5-0.2,1.1,0.2,1.5C107.9-122.8,108.2-122.7,108.5-122.7 M99.8-116.8c0.3,0,0.5-0.1,0.8-0.5
				c0.2-0.6-0.3-1-0.8-1c-0.3,0-0.6,0.2-0.7,0.5C98.8-117.2,99.3-116.8,99.8-116.8"/>
			<path class="st1" d="M113.2-127.9c0.3,0,0.6,0,1.2,0.1c1.8,0.3,3.2,1.6,3.6,3.4c0.2,0.8,0.2,1.7,0.1,2.5c0,0.2,0,0.7-0.2,0.8
				c-0.1,0.1-0.1,0.1-0.2,0.1c-0.3,0-0.8-0.4-0.8-0.4l0,0c-1.2-0.9-2.6-1.5-4-1.9c-1.1-0.3-2.1-0.4-3.2-0.4c-0.2,0-0.4,0-0.6,0
				c-0.3,0-0.5,0.1-0.8,0.1l0,0c-0.2,0-0.4-0.1-0.3-0.4C108-124.3,109.6-127.9,113.2-127.9 M116.8-121.5L116.8-121.5L116.8-121.5
				L116.8-121.5L116.8-121.5"/>
			<path class="st1" d="M110.6-122.8c1.3,0.1,3.1,0.4,4.8,1.3c-0.3,1-1.3,1.7-2.4,1.7c-1.4,0-2.5-1.1-2.5-2.5
				C110.5-122.4,110.6-122.6,110.6-122.8"/>
			<path class="st1" d="M147.5-88.3L147.5-88.3c0.3,0,0.4,0.1,0.7,0.4c0.8,1.1,1.3,2.3,1.5,3.7s-0.1,2.8-0.6,4.2
				c0,0-5.5,2.2-8.5,7.5c-0.8-1.6-2.1-5-0.3-8.8c0.6-1.4,1.7-2.5,2.8-3.3c0.9-0.6,1.8-1.4,2.7-2.2c0.4-0.4,0.7-0.7,1-1.2
				C147.2-88.1,147.2-88.3,147.5-88.3"/>
			<path class="st1" d="M138.3-78c-0.9,3.7,2.2,7.7,2.3,7.6c3.1-6.2,8.7-8.6,8.7-8.6c4.5,10.6,13.5,11,13.5,11l-0.1,6.7
				c-0.7,0.2-1.3,0.3-2,0.4c-1.8,0.3-3.6,0.2-5.4-0.3c-0.9-0.3-1.7-0.7-2.6-1c-0.1,0-0.2-0.1-0.3-0.1l-0.1,0
				c-0.2,0.1-0.1,0.3,0.1,0.4c0.3,0.4,0.6,0.7,0.9,1c1.2,0.9,2.9,1.5,4.5,1.8c0.4,0,0.8,0.1,1,0.6c0,0.3,0,0.5-0.1,0.8
				c-0.1,0.3-0.2,0.5-0.3,0.8c-0.3,0.9-0.7,2-1.2,3l0,0c-1.2,2.5-3.4,4.1-6.1,4.6l-28.5,5.1l-0.1,0c-2.3,0.3-4.3-1.3-4.5-3.6
				C116.9-70.2,138.3-78,138.3-78 M150.9-67.2L150.9-67.2c0.6-0.2,1-0.8,0.9-1.2c-0.1-0.6-0.7-1-1.2-0.9l0,0c-0.6,0.1-1,0.7-0.9,1.2
				C149.7-67.5,150.3-67.1,150.9-67.2"/>
			<path class="st1" d="M70.6-99.9c1.5,0.5,3,1.4,4.2,2.4c1.3,1,2.4,2.2,3.2,3.7c0.5,0.7,0.8,1.5,1,2.3c0.1,0.3,0.2,0.6,0,0.8
				c-0.1,0.1-0.3,0.2-0.4,0.2s-0.1,0-0.2,0c-0.3-0.1-0.5-0.3-0.8-0.4c-0.3-0.1-0.6-0.2-0.9-0.3c-0.7-0.2-1.4-0.3-2.1-0.3h-0.1
				c-1.4,0-2.7,0.4-3.9,1.2c-0.1,0.3,0.1,0.4,0.4,0.4c0.3,0,0.8-0.2,0.9-0.2c0.5-0.3,1.3-0.5,2-0.5c0.3,0,0.6,0.1,0.9,0.2
				c0.2,0.1,0.3,0.4,0.2,0.6s-0.4,0.4-0.6,0.5c-0.5,0.4-1,0.7-1.5,0.9c-1,0.5-2.1,0.7-3.2,0.7c-0.1,0-0.1,0-0.2,0
				c-1.1-0.1-2.4-0.3-3.1-1.3c-0.6-0.8-0.6-1.9,0-2.8c0.8-1.1,1.4-2.4,1.5-3.8c0.1-1.2-0.2-2.8,0.7-3.8
				C69.6-100.2,70.6-99.9,70.6-99.9z M72-95.1c0.2,0,0.4-0.1,0.5-0.3c0.3-0.6-0.8-1.4-1.5-1.4c-0.2,0-0.4,0.1-0.5,0.3
				C70.2-95.9,71.3-95.1,72-95.1"/>
			<path class="st1" d="M42.2-92.2c0.1,0.8,0.3,1.6,0.5,2.5c0.8,2.4,2.3,4.7,4.3,6.3c1.1,0.9,3.6,1.9,4.3,2.5
				c0.3,0.3,0.7,0.7,0.9,1.1c0.2,0.3,0.3,0.7,0.5,1c0.3,0.6,1,0.9,1.6,0.9c0.1,0,0.2,0,0.3,0c0.1,0.8,0.3,1.8,0.9,2.7l0.1,0.1
				C55-73.6,54.1-72,52.7-71c-0.8,0.6-1.9,1.1-3,1.1c-0.2,0-0.5-0.1-0.7-0.1c-0.9,0.9-2,1.7-3.2,2c-0.2,0.1-0.5,0.1-0.8,0.1
				c-0.5,0-1.1-0.2-1.5-0.6c-1.2,0.7-2.6,1.5-4,1.5l0,0c-0.9,0-1.7-0.6-1.8-1.5c-0.8,0.5-1.7,1-2.6,1.4c-1,0.4-2.1,0.8-3.2,0.8
				c-0.4,0-0.9-0.1-1.3-0.3c-0.9-0.4-1.4-1.3-1.5-2.3c-1.2,0.8-2.8,1.6-4.3,1.6c-0.1,0-0.1,0-0.2,0c-1.3-0.1-2.3-1-2.4-2.3
				c-1.1-9.6,7.9-17.8,7.9-17.8C33.5-90.4,38.8-92.2,42.2-92.2"/>
			<path class="st1" d="M55.1-108.8c0,0,2-0.1,2.9,0c1.6,0.3,3.2,0.7,4.8,1.5c0.2,0.1,2.3,1.3,3.4,2.4c1.2,1.1,2,2.4,2.6,3.9
				c-1.3,0.4-1.8,1.6-2,2.8c-0.1,1.3,0,2.6-0.4,3.9c-0.2,0.6-0.5,1.2-0.9,1.7s-0.6,1.1-0.7,1.7c-0.1,1.3,0.4,2.6,1.5,3.4
				c0.9,0.7,2.1,1,3.2,1c-0.4,0.6-0.8,1-1.3,1.5c-1.8,1.8-4,3.2-6.3,4.2c-2.3,1-3.5,3.1-3.7,3.7c-0.1,0.4-0.1,1.1-0.6,1.3
				c-0.1,0.1-0.1,0.1-0.2,0.1c-0.5,0-0.9-0.8-1-1.2c-0.2-0.6-0.3-1.1-0.3-1.7c0-0.2,0.3-1.3-0.2-1.3l0,0c-0.3,0-0.6,0.4-0.9,0.5
				c-0.1,0.1-0.2,0.1-0.3,0.1c-0.3,0-0.5-0.2-0.7-0.5c-0.2-0.3-0.8-1.4-1-1.6c-0.4-0.5-0.9-0.9-1.4-1.2c-1-0.6-2.1-0.9-3.1-1.6
				s-1.9-1.6-2.6-2.6c-0.8-1-1.4-2.3-1.8-3.5c-0.2-0.6-0.6-2.9-0.8-3.9c-0.3-1.2-1.2-2.3-1.9-3.4c-0.3-0.5-0.6-0.9-0.9-1.3
				c-0.2-0.4-0.1-0.7,0.3-0.8c0.3,0,0.8,0,0.8-0.4c0-0.3-0.2-0.5-0.4-0.6c-0.3-0.2-1.6-1.4-1.7-1.9c-0.1-0.5,0.4-0.6,0.7-0.6
				c2.7-0.3,4.9-1.9,7.3-2.9c1.2-0.5,2.5-0.9,3.8-1.2c0.9-0.1,1.8-0.3,2.7-0.3c0.3,0,0.7,0.1,1,0.1c-0.2-0.3-0.6-0.6-0.5-1
				C54.6-108.8,54.9-108.8,55.1-108.8 M59.9-94.1c0.1,0,0.3,0,0.4,0c0.8-0.2,1.2-1,1-1.7c-0.2-0.6-0.8-1-1.4-1c-0.2,0-0.3,0-0.4,0
				c-0.8,0.2-1.2,1-1,1.7C58.7-94.5,59.3-94.1,59.9-94.1"/>
			<path class="st1" d="M159.6-115.3c-5.3-7.4-10.9-11.1-13.2-12.2c-2.3-1.1-2.9-1-3.9-1.3c-2-0.3-4-0.5-5.9-0.5
				c-5.2,0-9.4,1.2-11,1.9c-0.9,2-2.2,6.1-1.3,11.7c0.1,0.5,0.7,3.4-1,5.6c-1.3,1.8-3.7,2.7-7,2.7c-0.1,0-0.3,0-0.4,0
				c-0.9,0-5.1-0.1-9.6-0.5c2.3,2.1,6.7,5.2,13.4,5.2c0,0,0.1,0,0.2,0c1,0,5.2-0.2,7.5-4c0.1-0.1,1.8-3,4.7-3.5
				c0.3-0.1,0.6-0.1,1-0.1c1.3,0,2.6,0.5,3.9,1.5c0.2,0.1,2.3,1.7,4,5c1.2,2.3,4.2,4.5,5.6,5c1.4,0.5,4,0.7,4.1,0.7c0,0,0,0,0.1,0
				C159.6-98.1,164.8-108.1,159.6-115.3z"/>
		</g>
	</g>
</pattern>
<rect class="st4" width="5000" height="2000"/>
</svg>
