<?xml version="1.0" encoding="utf-8"?>
<!-- Generator: Adobe Illustrator 21.0.2, SVG Export Plug-In . SVG Version: 6.00 Build 0)  -->
<svg version="1.1" id="Layer_1" xmlns="http://www.w3.org/2000/svg" xmlns:xlink="http://www.w3.org/1999/xlink" x="0px" y="0px"
	 viewBox="0 0 126.2 126.2" style="enable-background:new 0 0 126.2 126.2;" xml:space="preserve">
<style type="text/css">
	.st0{opacity:8.000000e-02;fill:#FFFFFF;}
</style>
<path class="st0" d="M126.2,115.9c-0.8,0.4-1.6,0.8-2.4,1.3c-2.2,1.5-4.1,3.6-5.7,5.8c-0.7,1-1.4,2-2,3.1c0,0,0,0,0,0h10.1v-2
	c-0.1,0-0.2,0.1-0.3,0.1c-0.5,0-0.9-0.5-0.6-1.1l0.9-1.4V115.9"/>
<path class="st0" d="M3.2,115.2c-0.1,0-0.1,0-0.2,0c-0.6,0.1-1.2,0.2-1.8,0.4c-0.4,0.1-0.8,0.3-1.2,0.4v5.8l3.7-5.9
	c0.1-0.1,0.1-0.3,0-0.5C3.6,115.2,3.4,115.2,3.2,115.2 M6.4,117.6c-0.1,0-0.2,0-0.3,0.1L0.2,124c-0.1,0.1-0.1,0.1-0.2,0.2v2h5.2
	c0.7-1.2,1.3-2.5,1.6-3.8c0.3-1.2,0.5-2.5,0.2-3.7c0-0.2-0.1-0.4-0.2-0.6c0-0.1-0.1-0.2-0.1-0.3C6.7,117.6,6.6,117.6,6.4,117.6"/>
<path class="st0" d="M52.6,114.7c-0.1,0-0.2,0-0.2,0.1l-1.2,2.9l1.1,2.2l2.5,0.5l-2-5.6C52.7,114.8,52.7,114.7,52.6,114.7"/>
<path class="st0" d="M48.3,115c-0.1,0-0.3,0.1-0.3,0.2c0,0-3.5,6.5-3.4,11H63c-0.8-1.1-1.3-1.9-1.3-1.9c-0.5-1-1-1.3-2-1.5l-8.3-1.8
	l-2.8-5.8C48.5,115.1,48.4,115,48.3,115 M43.4,125.5c-0.2,0.2-0.4,0.4-0.5,0.7h0.5C43.4,126,43.4,125.7,43.4,125.5"/>
<path class="st0" d="M126.2,0h-10.1c-2.5,2.1-4.9,4.2-7.2,6.4c-0.9,0.8-2.5,2.5-4.4,4.3c-3.7,3.7-3.6,9.6,0.2,13.2
	c0.1,0.1,0.1,0.1,0.2,0.2c1.8,1.7,4,2.5,6.3,2.5c2.9,0,5.7-1.3,7.5-3.9l3-4.2c-1.3-1.1-2.5-2.2-3.7-3.4c-1-1-1.9-2.1-2.4-3.5
	c-0.6-1.7-0.3-3.6,0.7-5.1c0.2-0.4,0.5-0.7,0.8-1c0.1-0.1,0.3-0.2,0.4-0.2c0.2,0,0.4,0.1,0.5,0.3c0.1,0.3-0.1,0.5-0.3,0.7
	c-1,1.1-1.6,2.6-1.4,4.1c0.2,1.3,0.9,2.3,1.7,3.3c0.6,0.7,4.7,4.4,8.1,7.6V0"/>
<path class="st0" d="M5.2,0H0v21.1c1.8,1.6,3.5,3.1,4.4,3.9c0.1,0,0.1,0.1,0.2,0.1c0.2,0,0.3-0.1,0.3-0.3c-0.3-1.1-0.4-2.3-0.2-3.4
	c0.1-0.6,0.3-1.3,0.7-1.8c0.1-0.2,0.3-0.2,0.4-0.2c0.3,0,0.7,0.4,0.4,0.8c-0.1,0.1-0.1,0.2-0.2,0.3c-0.3,0.6-0.5,1.4-0.5,2.1
	c0,0.2,0,0.4,0,0.6c0.2,2.1,1.4,4,3.3,5.1c1.7,0.9,3.5,1.6,5.4,1.9c0.7,0.1,1.3,0.2,2,0.2c0.1,0,0.2,0,0.3,0c-1.1-2-1.8-4.2-1.6-6.5
	c0.1-2.1,0.9-4,1.9-5.8c0.5-0.8,1.1-1.6,1.7-2.2L3.8,2.1C4.3,1.4,4.8,0.7,5.2,0 M5.4,12.2C5.3,12.2,5.3,12.2,5.4,12.2
	C4,12.1,3.5,10.4,4.5,9.6c0.2-0.2,0.6-0.3,0.8-0.3c0.3,0,0.7,0.1,1,0.4C7.2,10.6,6.6,12.2,5.4,12.2 M13.5,18.8c-0.1,0-0.3,0-0.4-0.2
	c-0.4-0.4,0-1,0.4-1c0.1,0,0.3,0,0.4,0.2C14.4,18.2,14,18.8,13.5,18.8 M10.5,19.6c-0.1,0-0.3,0-0.4-0.2c-0.4-0.4,0-1,0.4-1
	c0.1,0,0.3,0,0.4,0.2C11.4,19,11,19.6,10.5,19.6 M12.8,21.7c-0.1,0-0.3,0-0.4-0.2c-0.4-0.4,0-1,0.4-1c0.1,0,0.3,0,0.4,0.2
	C13.6,21.1,13.2,21.7,12.8,21.7"/>
<path class="st0" d="M19.3,16.4c0,0-6.4,6.3-1.7,13.8c0,0,5.9-0.4,10.3-5.9L19.3,16.4"/>
<path class="st0" d="M63,0H44.6c0,0.7,0.1,1.4,0.3,1.9c0.2,0.4,0.4,0.8,0.6,1.2c0.3,0.3,0.6,0.7,0.2,1.1c-0.1,0.1-0.3,0.2-0.4,0.2
	c-0.7,0-1.3-1.5-1.5-1.9c-0.3-0.8-0.4-1.7-0.5-2.5h-0.5c-7.6,9.8-1.5,24,5.5,34.5c2.3,3.5,6.2,5.4,10.1,5.4c2,0,4-0.5,5.8-1.5
	c0.1-0.1,0.2-0.1,0.3-0.2c7.3-4.1,8.3-14.2,1.9-19.7L64,16.3l-5.8,1.2c-0.7,0.1-1.5,0.2-2.2,0.2c-1.8,0-3.6-0.4-5.2-1.4
	c-1.3-0.8-2.4-1.9-3.1-3.2c-0.2-0.4-0.5-0.9,0-1.2c0.1-0.1,0.2-0.1,0.3-0.1c0.3,0,0.6,0.4,0.7,0.7c0.6,1,1.4,1.9,2.4,2.6
	c1.4,1,3.1,1.4,4.8,1.4c0.7,0,1.3-0.1,2-0.2c3.4-0.6,6.4-1.5,8.8-2.7c1-0.6,1-1.4,0.8-1.9c-0.5,0.2-1.3,0.3-2.1,0.3
	c-0.4,0-0.8,0-1.2-0.1c-0.4-0.1-0.9-0.2-0.9-0.8c0-0.1,0.1-0.3,0.2-0.4c0.1-0.1,0.2-0.1,0.4-0.1c0.1,0,0.2,0,0.3,0
	c0.4,0.1,0.7,0.1,1.1,0.2c0.1,0,0.3,0,0.5,0c0.8,0,2.1-0.2,2.5-1.6c0.1-0.6,0.3-1.1,0.3-1.7c0,0-0.1,0-0.1,0c-0.5,0-0.9-0.1-1.3-0.3
	c-0.5-0.2-1.1-0.4-1.5-0.8c-0.7-0.8-0.5-2,0.5-2.4l0,0l0,0l0.7-0.3C65.3,2.8,63.9,1.2,63,0 M60.9,4c-0.8,0-1.5-1.7-0.8-2.1
	c0.1,0,0.2-0.1,0.3-0.1c0.8,0,1.5,1.7,0.7,2.1C61.1,4,61,4,60.9,4 M61.6,6.8C61.6,6.8,61.5,6.8,61.6,6.8l-3.2-0.5
	c-0.5-0.1-0.4-0.8,0.1-0.8c0,0,0,0,0.1,0L61.7,6C62.1,6.1,62.1,6.8,61.6,6.8 M59.9,10.1c-0.3,0-0.6-0.5-0.2-0.7l2.2-1.6
	c0.1-0.1,0.2-0.1,0.2-0.1c0.1,0,0.3,0.1,0.3,0.2c0,0,0-0.1,0-0.1s0,0,0,0.1c0,0,0,0.1,0,0.1s0,0,0-0.1c0.1,0.2,0.1,0.4-0.1,0.6
	L60.1,10C60,10.1,60,10.1,59.9,10.1"/>
<path class="st0" d="M68,4.1C68,4.1,68,4.1,68,4.1l-1.4,0.6c-0.5,0.2-0.5,0.5-0.4,0.8c0.1,0.6,0.9,0.8,1.4,1c0.3,0.1,0.6,0.2,1,0.2
	c0.1,0,0.1,0,0.2,0C69,6,68.9,5.1,68.9,5.1C68.8,4.7,68.5,4.1,68,4.1 M66.1,5.5C66.1,5.5,66.1,5.5,66.1,5.5c0,0.1,0,0.2,0,0.2
	S66.1,5.6,66.1,5.5C66.1,5.5,66.1,5.5,66.1,5.5"/>
<path class="st0" d="M102.1,32.6c-0.6,0-1.2,0-1.7,0.1c-6.2,0.4-12.1,2.8-16.9,6.6c-2.3,1.8-4.5,3.9-6.3,6.2
	c-0.4,0.5-0.9,1.1-1.3,1.7c-0.3,0.5-0.7,1-0.9,1.5c-0.4,1-0.4,2.2,0.2,3.2c0.1,0.2,0.2,0.3,0.3,0.5c-0.6,0.1-1.2,0.4-1.4,1
	c-0.2,0.6-0.1,1.3,0.3,1.7c0.5,0.5,1.3,0.8,1.9,1c1.7,0.6,3.5,0.9,5.3,1.1c3.8,0.5,7.6,0.8,11.4,0.9c0.9,0,1.9,0.1,2.8,0.1
	c2,0,4.2-0.3,5.6-1.8c0.8-0.9,1.2-2.1,1.2-3.3c0-0.8-0.2-1.6-0.3-2.4c-0.5-3.3-0.3-6.7,0.8-9.9c0.4-1.2,0.9-2.5,1.6-3.5
	c0.4-0.5,0.7-0.9,0.9-1.5c0.2-0.5,0.2-1,0.2-1.4c-0.1-0.9-1-1.3-1.8-1.5C103.5,32.6,102.8,32.6,102.1,32.6 M88,44.1
	c-0.3,0-0.6-0.1-0.9-0.3c-0.4-0.4-0.4-1-0.2-1.5c0.4-0.9,1-1.7,1.7-2.4c1-0.9,2.2-1.6,3.5-1.8c0.3,0,0.5-0.1,0.8-0.1
	c1.2,0,2.4,0.4,3.4,1.1c1.3,0.9,2,2.3,2.2,3.8c0.1,0.8,0.1,1.6-0.1,2.4c-0.1,0.5-0.2,0.9-0.7,1.2c-0.2,0.1-0.4,0.1-0.5,0.1
	c-0.4,0-0.7-0.2-1-0.5c-0.7,1.5-2.1,2.5-3.8,2.5c-2.4,0-4.4-2.2-4.1-4.6C88.3,44.1,88.2,44.1,88,44.1 M79.3,50c-0.5,0-1-0.4-0.7-1
	c0.1-0.3,0.4-0.5,0.7-0.5c0.5,0,1,0.4,0.8,1C79.8,49.9,79.6,50,79.3,50"/>
<path class="st0" d="M93,39c-3.6,0-5.2,3.6-5.2,3.9c-0.1,0.3,0.1,0.4,0.3,0.4c0,0,0,0,0,0c0.3,0,0.5-0.1,0.8-0.1c0.2,0,0.4,0,0.6,0
	c1.1,0,2.1,0.1,3.2,0.4c1.4,0.4,2.8,1,4,1.9c0,0,0,0,0,0c0,0,0.1,0,0.1,0s0,0,0,0c0,0,0,0,0,0c0.2,0.1,0.4,0.4,0.7,0.4
	c0.1,0,0.1,0,0.2-0.1c0.2-0.1,0.2-0.6,0.2-0.8c0.1-0.8,0.1-1.7-0.1-2.5c-0.4-1.8-1.8-3.1-3.6-3.4C93.6,39,93.3,39,93,39 M96.6,45.4
	C96.6,45.4,96.6,45.4,96.6,45.4C96.6,45.4,96.6,45.4,96.6,45.4C96.6,45.4,96.6,45.4,96.6,45.4C96.6,45.4,96.6,45.4,96.6,45.4"/>
<path class="st0" d="M116.1,37.5c-5.2,0-9.4,1.2-11,1.9c-0.9,2-2.2,6.1-1.3,11.7c0.1,0.5,0.7,3.4-1,5.6c-1.3,1.8-3.7,2.7-7,2.7
	c-0.1,0-0.3,0-0.4,0c-0.9,0-5.1-0.1-9.6-0.5c2.3,2.1,6.7,5.2,13.4,5.2c0,0,0.1,0,0.2,0c1,0,5.2-0.2,7.5-4c0.1-0.1,1.8-3,4.7-3.5
	c0.3-0.1,0.6-0.1,1-0.1c1.3,0,2.6,0.5,3.9,1.5c0.2,0.1,2.3,1.7,4,5c1.2,2.3,3.2,4.1,5.6,5V39.4c-1.6-0.8-3-1.1-4.1-1.4
	C120,37.7,118,37.5,116.1,37.5"/>
<path class="st0" d="M90.1,44c0,0.2-0.1,0.4-0.1,0.5c0,1.4,1.1,2.5,2.5,2.5c1.1,0,2.1-0.7,2.4-1.7C93.2,44.4,91.4,44.1,90.1,44"/>
<path class="st0" d="M105.7,77.2c-0.3,0-0.4,0.2-0.6,0.3c-0.4,0.4-0.8,0.7-1.2,1c-1,0.7-2,1.3-3,1.8c-1.3,0.7-2.5,1.6-3.3,2.9
	c-2.4,3.4-1.6,7-1,8.7c3.7-4.8,9.5-6.2,9.5-6.2c0.7-1.3,1.2-2.7,1.2-4.1c0-1.4-0.4-2.7-1-3.9C106.1,77.4,106,77.2,105.7,77.2
	C105.7,77.2,105.7,77.2,105.7,77.2"/>
<path class="st0" d="M95.1,86.1c0,0-22.3,4.7-24.2,27c-0.2,2.3,1.6,4.2,3.9,4.2c0,0,0.1,0,0.1,0l28.9-1c2.7-0.1,5.2-1.4,6.7-3.7l0,0
	c0.6-0.9,1.2-1.9,1.6-2.8c0.1-0.3,0.3-0.5,0.4-0.8c0.1-0.3,0.2-0.5,0.2-0.8c-0.1-0.5-0.5-0.6-0.9-0.7c-1.5-0.5-3.1-1.3-4.2-2.4
	c-0.3-0.3-0.6-0.7-0.8-1.1c-0.1-0.1-0.2-0.3,0-0.4c0,0,0.1,0,0.1,0c0.1,0,0.2,0.1,0.3,0.1c0.8,0.5,1.5,1,2.4,1.4
	c1.7,0.8,3.5,1.1,5.3,1.1c0.7,0,1.3,0,2-0.1l1.1-6.6c0,0-8.9-1.7-11.8-12.8c0,0-5.9,1.6-9.9,7.3C96.2,94,93.7,89.6,95.1,86.1
	 M106,98.6c-0.6,0-1.1-0.5-1.1-1.1c0-0.6,0.5-1.1,1.1-1.1c0,0,0,0,0,0c0.6,0,1.1,0.5,1.1,1.1C107.1,98,106.6,98.5,106,98.6
	C106,98.6,106,98.6,106,98.6"/>
<path class="st0" d="M58.4,69.9c-0.2,0-0.5,0-0.7,0.1c-0.1,0.1-0.2,0.1-0.3,0.2c-0.9,1-0.6,2.6-0.7,3.8c-0.1,1.4-0.7,2.7-1.5,3.8
	c-0.6,0.9-0.6,2,0,2.8c0.7,1,2,1.2,3.1,1.3c0.1,0,0.1,0,0.2,0c1.1,0,2.2-0.2,3.2-0.7c0.5-0.2,1-0.5,1.5-0.9c0.2-0.1,0.5-0.3,0.6-0.5
	c0.1-0.2,0-0.5-0.2-0.6c-0.3-0.1-0.6-0.2-0.9-0.2c-0.7,0-1.5,0.2-2,0.5c-0.1,0-0.6,0.2-0.9,0.2c-0.3,0-0.5-0.1-0.4-0.4
	c1.2-0.8,2.5-1.2,3.9-1.2c0,0,0.1,0,0.1,0c0.7,0,1.4,0.1,2.1,0.3c0.3,0.1,0.6,0.2,0.9,0.3c0.3,0.1,0.5,0.3,0.8,0.4
	c0.1,0,0.1,0,0.2,0c0.1,0,0.3-0.1,0.4-0.2c0.2-0.2,0.1-0.5,0-0.8c-0.2-0.8-0.5-1.6-1-2.3c-0.8-1.5-1.9-2.7-3.2-3.7
	c-1.2-1-2.7-1.9-4.2-2.4C59,69.9,58.7,69.9,58.4,69.9 M60.8,74.5c-0.7,0-1.8-0.8-1.5-1.4c0.1-0.2,0.3-0.3,0.5-0.3
	c0.7,0,1.8,0.8,1.5,1.4C61.2,74.4,61,74.5,60.8,74.5"/>
<path class="st0" d="M31,77.4c-3.4,0-8.7,1.8-12.1,4.8c0,0-9,8.2-7.9,17.8c0.1,1.3,1.1,2.2,2.4,2.3c0.1,0,0.1,0,0.2,0
	c1.5,0,3.1-0.8,4.3-1.6c0.1,1,0.6,1.9,1.5,2.3c0.4,0.2,0.9,0.3,1.3,0.3c1.1,0,2.2-0.4,3.2-0.8c0.9-0.4,1.8-0.9,2.6-1.4
	c0.1,0.9,0.9,1.5,1.8,1.5c0,0,0,0,0,0c1.4,0,2.8-0.8,4-1.5c0.4,0.4,1,0.6,1.5,0.6c0.3,0,0.6,0,0.8-0.1c1.2-0.3,2.3-1.1,3.2-2
	c0.2,0,0.5,0.1,0.7,0.1c1.1,0,2.2-0.5,3-1.1c1.4-1,2.3-2.6,2.9-4.1l-0.1-0.1c-0.6-0.9-0.8-1.9-0.9-2.7c-0.1,0-0.2,0-0.3,0
	c-0.6,0-1.3-0.3-1.6-0.9c-0.2-0.3-0.3-0.7-0.5-1c-0.2-0.4-0.6-0.8-0.9-1.1c-0.7-0.6-3.2-1.6-4.3-2.5c-2-1.6-3.5-3.9-4.3-6.3
	C31.3,79,31.1,78.2,31,77.4"/>
<path class="st0" d="M43.9,60.8c-0.2,0-0.5,0-0.6,0.3c-0.1,0.4,0.3,0.7,0.5,1c-0.3,0-0.7-0.1-1-0.1c-0.9,0-1.8,0.2-2.7,0.3
	c-1.3,0.3-2.6,0.7-3.8,1.2c-2.4,1-4.6,2.6-7.3,2.9c-0.3,0-0.8,0.1-0.7,0.6c0.1,0.5,1.4,1.7,1.7,1.9c0.2,0.1,0.4,0.3,0.4,0.6
	c0,0.4-0.5,0.4-0.8,0.4c-0.4,0.1-0.5,0.4-0.3,0.8c0.3,0.4,0.6,0.8,0.9,1.3c0.7,1.1,1.6,2.2,1.9,3.4c0.2,1,0.6,3.3,0.8,3.9
	c0.4,1.2,1,2.5,1.8,3.5c0.7,1,1.6,1.9,2.6,2.6c1,0.7,2.1,1,3.1,1.6c0.5,0.3,1,0.7,1.4,1.2c0.2,0.2,0.8,1.3,1,1.6
	c0.2,0.3,0.4,0.5,0.7,0.5c0.1,0,0.2,0,0.3-0.1c0.3-0.1,0.6-0.5,0.9-0.5c0,0,0,0,0,0c0.5,0,0.2,1.1,0.2,1.3c0,0.6,0.1,1.1,0.3,1.7
	c0.1,0.4,0.5,1.2,1,1.2c0.1,0,0.1,0,0.2-0.1c0.5-0.2,0.5-0.9,0.6-1.3c0.2-0.6,1.4-2.7,3.7-3.7c2.3-1,4.5-2.4,6.3-4.2
	c0.5-0.5,0.9-0.9,1.3-1.5c-1.1,0-2.3-0.3-3.2-1c-1.1-0.8-1.6-2.1-1.5-3.4c0.1-0.6,0.3-1.2,0.7-1.7c0.4-0.5,0.7-1.1,0.9-1.7
	c0.4-1.3,0.3-2.6,0.4-3.9c0.2-1.2,0.7-2.4,2-2.8c-0.6-1.5-1.4-2.8-2.6-3.9c-1.1-1.1-3.2-2.3-3.4-2.4c-1.6-0.8-3.2-1.2-4.8-1.5
	c-0.9-0.1-1.8-0.2-2.7-0.2C44,60.8,43.9,60.8,43.9,60.8 M48.7,75.5c-0.6,0-1.2-0.4-1.4-1c-0.2-0.7,0.2-1.5,1-1.7c0.1,0,0.2,0,0.4,0
	c0.6,0,1.2,0.4,1.4,1c0.2,0.7-0.2,1.5-1,1.7C49,75.5,48.8,75.5,48.7,75.5"/>
<path class="st0" d="M0,39.4v28.7c1.2,0.5,2.6,0.8,4,0.8c0.1,0,0.2,0,0.3,0c0,0,0,0,0.1,0c8.8,0,14-10,8.8-17.2
	C7.9,44.3,3.4,41,0,39.4"/>
</svg>
