<?xml version="1.0" encoding="utf-8"?>
<!-- Generator: Adobe Illustrator 21.0.2, SVG Export Plug-In . SVG Version: 6.00 Build 0)  -->
<svg version="1.1" id="Layer_1" xmlns="http://www.w3.org/2000/svg" xmlns:xlink="http://www.w3.org/1999/xlink" x="0px" y="0px"
	 viewBox="0 0 35 35" style="enable-background:new 0 0 35 35;" xml:space="preserve">
<style type="text/css">
	.st0{fill:#4B4F54;}
</style>
<g>
	<path class="st0" d="M34.7,10c-0.2,3.4-2.5,8-7,13.8C23,29.9,19,33,15.8,33c-2,0-3.7-1.9-5.1-5.6C9.8,24,8.8,20.6,7.9,17.2
		c-1-3.7-2.1-5.6-3.3-5.6c-0.3,0-1.2,0.5-2.7,1.6l-1.6-2.1c1.7-1.5,3.4-3,5-4.5c2.3-2,4-3,5.1-3.1c2.7-0.3,4.3,1.6,5,5.5
		c0.7,4.2,1.1,6.9,1.4,7.9c0.8,3.5,1.6,5.3,2.6,5.3c0.7,0,1.8-1.1,3.3-3.4c1.4-2.3,2.2-4,2.3-5.2c0.2-2-0.6-3-2.3-3
		c-0.8,0-1.7,0.2-2.6,0.6c1.7-5.6,4.9-8.3,9.7-8.1C33.3,3.2,35,5.5,34.7,10z"/>
</g>
</svg>
