<?xml version="1.0" encoding="utf-8"?>
<!-- Generator: Adobe Illustrator 21.0.2, SVG Export Plug-In . SVG Version: 6.00 Build 0)  -->
<svg version="1.1" id="Layer_1" xmlns="http://www.w3.org/2000/svg" xmlns:xlink="http://www.w3.org/1999/xlink" x="0px" y="0px"
	 viewBox="0 0 35 35" style="enable-background:new 0 0 35 35;" xml:space="preserve">
<style type="text/css">
	.st0{fill:#4B4F54;}
</style>
<g>
	<path class="st0" d="M17.5,3.1c4.6,0,5.2,0,7.1,0.1c1.8,0.1,2.6,0.4,3.2,0.6c0.8,0.4,1.4,0.7,2,1.3c0.6,0.6,1,1.2,1.3,2
		c0.3,0.6,0.5,1.6,0.6,3.2c0.1,1.8,0.1,2.4,0.1,7.1s0,5.2-0.1,7.1c-0.1,1.8-0.4,2.6-0.6,3.2c-0.4,0.8-0.7,1.4-1.3,2
		c-0.6,0.6-1.2,1-2,1.3c-0.6,0.3-1.6,0.5-3.2,0.6c-1.8,0.1-2.4,0.1-7.1,0.1s-5.2,0-7.1-0.1c-1.8-0.1-2.6-0.4-3.2-0.6
		c-0.8-0.4-1.4-0.7-2-1.3c-0.6-0.6-1-1.2-1.3-2c-0.3-0.6-0.5-1.6-0.6-3.2c-0.1-1.8-0.1-2.4-0.1-7.1s0-5.2,0.1-7.1
		c0.1-1.8,0.4-2.6,0.6-3.2c0.4-0.8,0.7-1.4,1.3-2c0.6-0.6,1.2-1,2-1.3c0.6-0.3,1.6-0.5,3.2-0.6C12.2,3.1,12.9,3.1,17.5,3.1 M17.5,0
		c-4.7,0-5.3,0-7.3,0.1S7.1,0.5,6,0.9c-1.1,0.5-2.1,1.1-3.1,2s-1.5,2-2,3.1c-0.4,1.1-0.7,2.4-0.8,4.2S0,12.7,0,17.5
		c0,4.7,0,5.3,0.1,7.3s0.4,3.2,0.8,4.2c0.4,1.1,1.1,2.1,2,3.1s1.9,1.6,3.1,2s2.4,0.7,4.2,0.8c1.8,0.1,2.5,0.2,7.3,0.2s5.3,0,7.3-0.1
		s3.2-0.4,4.2-0.8c1.1-0.4,2.1-1,3.1-2c1-1,1.6-1.9,2-3.1s0.7-2.4,0.8-4.2c0.1-1.8,0.2-2.5,0.2-7.4s0-5.3-0.1-7.3S34.5,7.1,34.1,6
		c-0.4-1.1-1-2.1-2-3.1c-1-1-2-1.6-3.2-2.1c-1.1-0.4-2.4-0.7-4.2-0.8C22.8,0,22.2,0,17.5,0L17.5,0z"/>
	<path class="st0" d="M17.5,8.6c-5,0-8.9,3.9-8.9,8.9s3.9,8.9,8.9,8.9s8.9-3.9,8.9-8.9S22.5,8.6,17.5,8.6z M17.5,23.4
		c-3.2,0-5.9-2.6-5.9-5.9s2.6-5.9,5.9-5.9s5.9,2.6,5.9,5.9S20.7,23.4,17.5,23.4z"/>
	<circle class="st0" cx="26.9" cy="8.1" r="2.1"/>
</g>
</svg>
