<?xml version="1.0" encoding="utf-8"?>
<!-- Generator: Adobe Illustrator 21.0.2, SVG Export Plug-In . SVG Version: 6.00 Build 0)  -->
<svg version="1.1" id="Layer_1" xmlns="http://www.w3.org/2000/svg" xmlns:xlink="http://www.w3.org/1999/xlink" x="0px" y="0px"
	 viewBox="0 0 50 50" style="enable-background:new 0 0 50 50;" xml:space="preserve">
<style type="text/css">
	.st0{fill-rule:evenodd;clip-rule:evenodd;}
</style>
<path class="st0" d="M25,46.5C13.1,46.5,3.5,36.9,3.5,25C3.5,13.1,13.1,3.5,25,3.5c11.9,0,21.5,9.6,21.5,21.5
	C46.5,36.9,36.9,46.5,25,46.5L25,46.5z M43.1,27.9c-0.6-0.2-5.7-1.7-11.5-0.8c2.4,6.6,3.4,12,3.6,13.1C39.4,37.5,42.3,33,43.1,27.9
	L43.1,27.9z M32.2,41.9c-0.3-1.6-1.3-7.2-3.9-13.9c0,0-0.1,0-0.1,0C17.8,31.7,14,38.8,13.7,39.5c3.1,2.4,7,3.9,11.3,3.9
	C27.5,43.4,30,42.9,32.2,41.9L32.2,41.9z M11.3,37.3c0.4-0.7,5.5-9.1,14.9-12.1c0.2-0.1,0.5-0.2,0.7-0.2c-0.5-1-1-2.1-1.5-3.1
	c-9.2,2.7-18.1,2.6-18.9,2.6c0,0.2,0,0.4,0,0.6C6.6,29.7,8.4,34,11.3,37.3L11.3,37.3z M7,21.3c0.8,0,8.4,0,17-2.2
	c-3-5.4-6.3-10-6.8-10.6C12,10.8,8.2,15.6,7,21.3L7,21.3z M20.7,7.2c0.5,0.7,3.8,5.2,6.9,10.7c6.5-2.4,9.3-6.2,9.6-6.6
	C33.9,8.4,29.7,6.7,25,6.7C23.5,6.7,22.1,6.8,20.7,7.2L20.7,7.2z M39.2,13.4c-0.4,0.5-3.5,4.5-10.3,7.2c0.4,0.9,0.8,1.8,1.2,2.7
	c0.1,0.3,0.3,0.6,0.4,0.9c6.1-0.8,12.2,0.5,12.8,0.6C43.3,20.5,41.8,16.5,39.2,13.4L39.2,13.4z"/>
</svg>
