<?xml version="1.0" encoding="utf-8"?>
<!-- Generator: Adobe Illustrator 21.0.2, SVG Export Plug-In . SVG Version: 6.00 Build 0)  -->
<svg version="1.1" id="Layer_1" xmlns="http://www.w3.org/2000/svg" xmlns:xlink="http://www.w3.org/1999/xlink" x="0px" y="0px"
	 viewBox="0 0 50 50" style="enable-background:new 0 0 50 50;" xml:space="preserve">
<path d="M46.9,14.8c-0.2,4.3-3.2,10.1-8.9,17.6C32,40.1,27,44,22.8,44c-2.6,0-4.7-2.4-6.5-7.1c-1.2-4.3-2.4-8.7-3.5-13
	c-1.3-4.7-2.7-7.1-4.2-7.1c-0.3,0-1.5,0.7-3.4,2.1l-2.1-2.7c2.2-1.9,4.3-3.8,6.4-5.7C12.4,8,14.5,6.7,16,6.6c3.4-0.3,5.5,2,6.3,7
	c0.9,5.4,1.4,8.8,1.8,10.1c1,4.5,2.1,6.7,3.2,6.7c0.9,0,2.3-1.5,4.1-4.4c1.8-2.9,2.8-5.1,3-6.6c0.3-2.5-0.7-3.8-3-3.8
	c-1,0-2.1,0.2-3.2,0.7C30.3,9.2,34.5,5.8,40.5,6C45,6.1,47.2,9.1,46.9,14.8z"/>
</svg>
