<?xml version="1.0" encoding="utf-8"?>
<!-- Generator: Adobe Illustrator 21.0.2, SVG Export Plug-In . SVG Version: 6.00 Build 0)  -->
<svg version="1.1" id="Layer_1" xmlns="http://www.w3.org/2000/svg" xmlns:xlink="http://www.w3.org/1999/xlink" x="0px" y="0px"
	 viewBox="0 0 160 25" style="enable-background:new 0 0 160 25;" xml:space="preserve">
<style type="text/css">
	.st0{fill:#4B4F54;}
</style>
<g>
	<path class="st0" d="M13.5,7.8C11.2,7.8,9.3,8.6,8,10l0,0.1V2.4C8,2.3,8,2.1,8,2c0-0.4,0-0.8-0.1-1.2L7.8,0L0,1l0.2,1.6l0.9-0.1
		c0.7-0.1,1.3,0.3,1.4,0.9l0,18.2c0,0.7,0,1.3-0.8,1.3H1.4v1.5h4.3c1.2,0,1.6-0.8,1.7-1.8c0.8,1,2.3,1.7,3.7,1.7
		c4.4,0,8.8-1.1,8.8-8.8C19.9,11,17.6,7.8,13.5,7.8z M11.1,22.6c-1.7,0-2.4-0.6-3-1.9C8,20.2,8,19.2,8,18.6v-4.7
		c0-0.7,0-1.3,0.2-1.8c0.5-1.2,1.4-1.9,3.1-1.9s3.7,0.8,3.7,6.1C14.9,20.4,13.9,22.6,11.1,22.6z"/>
	<path class="st0" d="M25,24.4"/>
	<path class="st0" d="M39.3,16c0,4.6-4,8.3-8.8,8.3s-8.8-3.7-8.8-8.3s4-8.3,8.8-8.3S39.3,11.5,39.3,16z M34.1,19.5
		c0.1-0.9,0.2-2.1,0.2-3.4s-0.1-2.5-0.2-3.4c-0.2-1.7-1.7-3-3.5-3l0,0c-1.8,0-3.3,1.3-3.5,3c-0.1,0.9-0.2,2.1-0.2,3.5
		c0,1.3,0.1,2.5,0.2,3.5c0.2,1.7,1.7,3,3.5,3l0,0C32.4,22.5,33.9,21.2,34.1,19.5z"/>
	<path class="st0" d="M151.8,22.8v1.5H148c-1.5,0-2.5-0.6-2.9-1.6c-2.1,2-6.1,1.4-6.1,1.4c-2.5-0.1-3.7-1.8-4.3-3.2
		c-0.4-0.9-0.5-1.9-0.5-2.8l0-7.2c-0.1-0.6-0.7-1-1.3-0.9l-0.8,0.1l-0.2-1.5l7.3-1l0.1,0.7c0.1,0.5,0.1,1,0.1,1.5c0,0,0,0,0,0v9.4
		c0.2,3,2.3,3,2.3,3c1.6,0,2.5-0.3,2.9-1.2V10.9c-0.1-0.6-0.7-1-1.3-0.9l-0.8,0.1l-0.2-1.5l7.3-1l0.1,0.7c0.1,0.4,0.1,0.9,0.1,1.4h0
		v9.8h0v2.2c0,0.7,0.6,1.1,1.3,1.1H151.8z"/>
	<path class="st0" d="M143.8,24.3L143.8,24.3C143.8,24.3,143.8,24.3,143.8,24.3L143.8,24.3z"/>
	<path class="st0" d="M98.5,22.8v1.5h-4c-1.8,0-2.9-0.8-3.1-2.2c0,0,0,0,0-0.1V3.6c-0.1-0.5-0.7-0.9-1.3-0.8l-0.8,0.1L89,1.4l7.3-1
		l0.1,0.7c0.1,0.4,0.1,0.8,0.1,1.2c0,0.1,0,0.2,0,0.4l0,19c0,0.7,0.5,1.1,1.3,1.1H98.5z"/>
	<path class="st0" d="M54,8c-0.1,0-0.5,1.6-1.1,3.3c-3.4-1-5.4,1.6-5.4,4l0,6.7c0,0.6,0.5,1,1.2,1h1.2v1.4h-9.6V23h0.9
		c0.6,0,1.2-0.4,1.2-1V11c-0.1-0.6-0.7-1-1.3-0.9l-0.8,0.1L40,8.7l7.3-1l0.1,0.7c0.1,0.5,0.1,1.4,0.1,1.9l0,0c0,0,0,0,0.1,0
		C50,6.4,54,8,54,8z"/>
	<g>
		<path class="st0" d="M72.1,22.8c-0.8,0-1.3-0.4-1.3-1.1v-0.3l0,0V5.7h0v-3c0-0.5,0-1-0.1-1.5l-0.1-0.7l-7.3,1l0.2,1.5l0.8-0.1
			c0.7-0.1,1.2,0.4,1.3,0.9v4.9C64.4,8,62.1,7.1,59.5,8c-1.9,0.6-3.5,2-4.3,3.8c-0.8,1.7-1.6,4.5-1,7.3c0.7,3.2,3.8,5.5,7.2,5.1
			c1.5-0.1,3.1-0.5,4.5-2.1l0.1,0.2c0,0,0,0,0,0.1c0.2,1.4,1.3,1.9,3.1,1.9h3.8v-1.5L72.1,22.8z M64.9,21.5c-1.3,1-3.1,1-4.3-0.1
			c-0.7-0.7-1-1.4-1-1.4c-1.1-3.6-0.4-7,0.4-8.2c0.6-0.9,1.6-1.6,2.7-1.7c1.6-0.2,2.5,0.7,2.8,1.2v9.3v-0.2v0v0.6
			C65.3,21.1,65.1,21.3,64.9,21.5z"/>
	</g>
	<path class="st0" d="M81.6,7.9c-4.8,0-8.1,3.7-8.1,8.2c0,4.5,3.3,8.4,8.1,8.3c3.4,0,5.3-1.6,6.7-4.1l-1.6-0.7
		c-1.2,1.7-2.3,2.9-4.5,2.9c-2.3,0-3.4-1.8-3.6-3.4c-0.1-0.8-0.1-1.3-0.1-2.2h9c0.8,0,1.4-0.6,1.4-1.3C88.8,13.1,88.1,7.9,81.6,7.9z
		 M78.4,15c0-0.6,0-0.7,0-1.5c0.2-3.8,3.2-3.8,3.2-3.8c2,0,3.2,1.3,3.1,3.7c0,0.3,0,0.6,0,0.8c0,0.4-0.4,0.8-0.8,0.8H78.4z"/>
	<path class="st0" d="M107.3,7.9c-4.8,0-8.1,3.7-8.1,8.2c0,4.5,3.3,8.4,8.1,8.3c3.4,0,5.3-1.6,6.7-4.1l-1.6-0.7
		c-1.2,1.7-2.3,2.9-4.5,2.9c-2.3,0-3.4-1.8-3.6-3.4c-0.1-0.8-0.1-1.3-0.1-2.2h9c0.8,0,1.4-0.6,1.4-1.3
		C114.5,13.1,113.8,7.9,107.3,7.9z M104.1,15c0-0.6,0-0.7,0-1.5c0.2-3.8,3.2-3.8,3.2-3.8c2,0,3.2,1.3,3.1,3.7c0,0.3,0,0.6,0,0.8
		c0,0.4-0.4,0.8-0.8,0.8H104.1z"/>
	<g>
		<path class="st0" d="M131.3,22.8c-0.8,0-1.3-0.4-1.3-1.1l0-9.7v0l0,0c0,0,0-0.1,0-0.1c-0.1-0.9,0.4-4.2-6.4-4.2c0,0-2-0.1-5.5,1.3
			l1,2c0,0,1.3-0.8,2.9-1.1c0.8-0.1,1.6,0,2.2,0.4c0.4,0.3,0.8,0.9,0.8,1.5c0,0,0,0.5,0,1.2c-0.4,0.2-1.1,0.3-2.1,0.4
			c-2.2,0.4-7.1,1.7-7.1,6.4c0,2.9,1.9,4.5,5,4.5c1.7,0,3.2-0.5,4.6-1.8c0.3,1.2,1.4,1.9,3,1.8h3.8v-1.5H131.3z M121.8,22.4
			c-1.4,0-2.1-0.9-2.1-2.3c0-1.7,1.2-4.1,3.8-4.8c0.8-0.2,1.2-0.2,1.6-0.2c0,1.1,0,1.9,0,1.9c0,0.8,0,2.1,0.1,2.9
			c0,0.3,0,0.6,0.1,0.9C124.4,21.7,123,22.4,121.8,22.4z"/>
	</g>
	<ellipse class="st0" cx="157.2" cy="21.7" rx="2.8" ry="2.7"/>
</g>
</svg>
