<?xml version="1.0" encoding="utf-8"?>
<!-- Generator: Adobe Illustrator 21.0.2, SVG Export Plug-In . SVG Version: 6.00 Build 0)  -->
<svg version="1.1" id="Layer_1" xmlns="http://www.w3.org/2000/svg" xmlns:xlink="http://www.w3.org/1999/xlink" x="0px" y="0px"
	 viewBox="0 0 120 120" style="enable-background:new 0 0 120 120;" xml:space="preserve">
<style type="text/css">
	.st0{fill:none;}
</style>
<g>
	<path class="st0" d="M63.2,57.3L98.5,35h-77l35.3,22.3C58.8,58.3,61.2,58.3,63.2,57.3z"/>
	<path class="st0" d="M67.3,65.3c-2.3,1.2-4.8,1.8-7.3,1.8c-2.5,0-5-0.6-7.3-1.8L9,38.7V85h102V38.7L67.3,65.3z"/>
	<path d="M0,26v68h120V26H0z M98.5,35L63.2,57.3c-2,1-4.4,1-6.4,0L21.5,35H98.5z M9,85V38.7l43.7,26.6c2.3,1.2,4.8,1.8,7.3,1.8
		c2.5,0,5-0.6,7.3-1.8L111,38.7V85H9z"/>
</g>
</svg>
