<?xml version="1.0" encoding="utf-8"?>
<!-- Generator: Adobe Illustrator 21.0.2, SVG Export Plug-In . SVG Version: 6.00 Build 0)  -->
<svg version="1.1" id="Layer_1" xmlns="http://www.w3.org/2000/svg" xmlns:xlink="http://www.w3.org/1999/xlink" x="0px" y="0px"
	 viewBox="0 0 35 35" style="enable-background:new 0 0 35 35;" xml:space="preserve">
<style type="text/css">
	.st0{fill:#4B4F54;}
</style>
<path class="st0" d="M17.5,35C7.8,35,0,27.2,0,17.5S7.8,0,17.5,0S35,7.8,35,17.5S27.2,35,17.5,35L17.5,35z M32.2,19.9
	c-0.5-0.2-4.6-1.4-9.4-0.6c1.9,5.3,2.8,9.8,2.9,10.7C29.2,27.6,31.6,24,32.2,19.9L32.2,19.9z M23.4,31.2c-0.3-1.3-1.1-5.9-3.2-11.3
	h-0.1c-8.5,3-11.6,8.8-11.8,9.4c2.5,1.9,5.7,3.1,9.2,3.1C19.5,32.5,21.6,32.1,23.4,31.2L23.4,31.2z M6.4,27.5
	c0.3-0.6,4.5-7.4,12.2-9.9c0.2-0.1,0.4-0.2,0.6-0.2c-0.4-0.8-0.8-1.8-1.2-2.5C10.4,17.1,3.2,17,2.5,17c0,0.2,0,0.3,0,0.5
	C2.5,21.4,4,24.9,6.4,27.5L6.4,27.5z M2.9,14.5c0.6,0,6.8,0,13.8-1.8c-2.4-4.4-5.2-8.1-5.5-8.7C6.9,6,3.9,9.9,2.9,14.5L2.9,14.5z
	 M14,3c0.4,0.6,3.1,4.2,5.6,8.7c5.2-1.9,7.6-5.1,7.8-5.3c-2.6-2.4-6-3.8-9.9-3.8C16.3,2.6,15.1,2.7,14,3L14,3z M29.1,8.1
	c-0.4,0.4-2.9,3.7-8.4,5.9c0.4,0.7,0.6,1.5,1,2.2c0.1,0.3,0.3,0.5,0.3,0.7c5-0.6,9.9,0.4,10.4,0.5C32.4,13.8,31.1,10.6,29.1,8.1
	L29.1,8.1z"/>
</svg>
