<?xml version="1.0" encoding="utf-8"?>
<!-- Generator: Adobe Illustrator 21.0.2, SVG Export Plug-In . SVG Version: 6.00 Build 0)  -->
<svg version="1.1" id="Layer_1" xmlns="http://www.w3.org/2000/svg" xmlns:xlink="http://www.w3.org/1999/xlink" x="0px" y="0px"
	 viewBox="0 0 1000 160" style="enable-background:new 0 0 1000 160;" xml:space="preserve">
<style type="text/css">
	.st0{fill:#FFFFFF;}
</style>
<g>
	<path class="st0" d="M84.6,52.7c-14.3,0-26.7,5.1-34.6,13.8l-0.1,0.7V18.9c0-0.8,0-1.6,0-2.4c-0.1-2.6-0.3-5.2-0.7-7.8l-0.7-4.8
		L0,10.3l1.5,9.9L7,19.4c4.1-0.5,7.9,2,8.9,5.5l0.1,113.5c0,4.5,0.3,8.2-4.9,8.2H8.8v9.4h26.7c7.7,0,9.9-4.9,10.8-11
		c5.1,6.5,14.1,10.9,23.1,10.9c27.3,0,55.2-6.8,55.2-54.7C124.6,72.9,109.7,52.7,84.6,52.7z M69.6,144.9c-10.6,0-15.3-3.9-18.8-11.8
		c-0.9-3-0.9-9.1-0.9-13.1V90.4c0-4.3,0.2-8.3,1.4-11.1c3.4-7.5,9-12.1,19.2-12.1c10.2,0,22.9,5.1,22.9,38.3
		C93.4,131.5,86.8,144.9,69.6,144.9z"/>
	<path class="st0" d="M156.2,156.1"/>
	<path class="st0" d="M245.9,104.2c0,28.6-24.7,51.8-55.1,51.8s-55.1-23.2-55.1-51.8s24.7-51.8,55.1-51.8S245.9,75.6,245.9,104.2z
		 M213,125.7c0.6-5.8,1.1-13,1.1-21.4c0-8.4-0.5-15.6-1.1-21.5c-1.1-10.7-10.7-18.9-22.1-18.9h0c-11.4,0-20.9,8.1-22.1,18.7
		c-0.7,5.9-1.1,13.2-1.1,21.7c0,8.4,0.5,15.7,1.1,21.6c1.2,10.6,10.7,18.7,22.1,18.7h0C202.3,144.6,211.8,136.4,213,125.7z"/>
	<path class="st0" d="M948.9,146.7v9.4h-23.7c-9.5,0-15.8-3.5-18.4-9.8c-13.2,12.5-38.2,8.9-38.2,8.9c-15.4-0.6-23-11.1-26.7-20.2
		c-2.3-5.6-3.4-11.7-3.4-17.7l-0.1-45.1c-0.6-3.7-4.2-6.3-8.3-5.8l-5.2,0.7l-1.4-9.3l45.6-6l0.7,4.5c0.5,3.1,0.7,6.2,0.7,9.3
		c0,0.1,0,0.2,0,0.3v58.5c1.4,18.7,14.5,19,14.5,19c9.9,0.2,15.7-2,18-7.7V72.2c-0.6-3.7-4.2-6.3-8.3-5.8l-5.2,0.7l-1.4-9.3l45.6-6
		l0.7,4.5c0.4,2.8,0.7,5.6,0.7,8.5h0.1V126h0.1v13.9c0,4.2,3.6,6.8,8.3,6.8H948.9z"/>
	<path class="st0" d="M898.5,155.8v0.3C898.5,156,898.5,155.9,898.5,155.8L898.5,155.8z"/>
	<path class="st0" d="M615.6,146.7v9.4h-25c-11.3,0-18.1-5-19.5-13.8c0-0.2,0-0.3,0-0.5l0-115.1c-0.9-3.4-4.5-5.7-8.3-5.2l-5.2,0.7
		l-1.4-9.3l45.6-6l0.7,4.5c0.4,2.4,0.6,4.9,0.7,7.4c0,0.8,0,1.5,0,2.2l0.1,118.9c0,4.2,3.3,6.8,8,6.8H615.6z"/>
	<path class="st0" d="M337.5,53.8c-0.4,0.1-3,10.1-6.7,20.8c-21.1-6.4-33.6,10.2-33.6,24.7l-0.1,41.9c0,3.5,3.3,6.3,7.3,6.3h7.5v8.6
		h-59.9v-8.6h5.8c4,0,7.3-2.8,7.3-6.3V72.9c-0.6-3.7-4.2-6.3-8.3-5.8l-5.2,0.7l-1.4-9.3l45.6-6l0.7,4.5c0.5,3.2,0.7,8.7,0.7,11.9v0
		c0,0.2,0.3,0.3,0.5,0.1C312.3,43.7,337.5,53.8,337.5,53.8z"/>
	<g>
		<path class="st0" d="M450.4,146.7c-4.8,0-8.3-2.6-8.3-6.8v-1.7h0V39.5h0.1V20.8c0-3.2-0.2-6.4-0.7-9.6l-0.7-4.5l-45.6,6l1.4,9.3
			l5.2-0.7c4.1-0.5,7.8,2.2,8.3,5.9v30.9c-7.8-4.4-21.8-9.6-38.5-4.1c-12.1,4-21.7,12.8-26.9,23.8c-4.9,10.4-9.9,28.2-6,45.9
			c4.4,20,23.8,34.2,45.3,32.1c9.2-0.9,19.1-3.4,28-12.9l0.4,1c0,0.1,0,0.3,0.1,0.5c1.4,8.7,8.2,11.7,19.5,11.7h23.7v-9.4
			L450.4,146.7z M405.4,138.4c-8,6-19.6,6.4-26.8-0.5c-4.4-4.2-6.3-8.9-6.3-8.9c-7-22.2-2.2-43.5,2.8-51.5
			c3.7-5.9,9.9-10.1,17.1-10.9c10-1.2,15.5,4.2,17.8,7.5v58l0-1.4l0,0.1v3.5C408.4,135.9,406.9,137.3,405.4,138.4z"/>
	</g>
	<path class="st0" d="M510,53.1c-30-0.2-50.7,22.9-50.7,51.2c0,28.2,20.7,52.2,50.7,51.8c21.3-0.3,33.4-9.8,41.8-25.5l-10.3-4.5
		c-7.7,10.9-14.2,18.4-28.4,18.1c-14.5-0.3-21.5-11.1-22.7-21.4c-0.6-4.8-0.7-8.2-0.7-13.8h56.5c4.7,0,8.5-3.6,8.5-8
		C554.9,85.7,550.5,53.3,510,53.1z M490,97.7c0.1-3.5,0-4.2,0.2-9.6c1.1-23.7,19.8-23.7,19.8-23.7c12.8,0,19.8,8.2,19.3,23.3
		c-0.1,1.8-0.1,3.6-0.1,5.3c0,2.6-2.2,4.7-4.9,4.7H490z"/>
	<path class="st0" d="M670.9,53.1c-30-0.2-50.7,22.9-50.7,51.2c0,28.2,20.7,52.2,50.7,51.8c21.3-0.3,33.4-9.8,41.8-25.5l-10.3-4.5
		c-7.7,10.9-14.2,18.4-28.4,18.1c-14.5-0.3-21.5-11.1-22.7-21.4c-0.6-4.8-0.7-8.2-0.7-13.8h56.5c4.7,0,8.5-3.6,8.5-8
		C715.9,85.7,711.5,53.3,670.9,53.1z M650.9,97.7c0.1-3.5,0-4.2,0.2-9.6c1.1-23.7,19.8-23.7,19.8-23.7c12.8,0,19.8,8.2,19.3,23.3
		c-0.1,1.8-0.1,3.6-0.1,5.3c0,2.6-2.2,4.7-4.9,4.7H650.9z"/>
	<g>
		<path class="st0" d="M820.9,146.7c-4.8,0-8.3-2.6-8.3-6.8l0.1-60.8V79c0,0,0,0,0,0c0-0.1,0-0.5-0.1-0.9
			c-0.9-5.4,2.3-26.4-39.7-26.4c0,0-12.8-0.7-34.5,8.4l6.2,12.8c0,0,8-5,18.2-6.9c4.8-0.9,9.8-0.1,13.8,2.5c2.6,1.7,4.9,5.5,4.8,9.1
			c0,0.1,0.3,3,0.3,7.8c-2.5,1.1-6.7,1.6-13.1,2.7c-13.7,2.4-44.5,10.5-44.5,39.8c0,17.9,12,28.2,31.5,28.2
			c10.8,0,20.1-3.3,28.6-11.5c2.1,7.4,8.7,11.6,19,11.5h23.7v-9.4H820.9z M761.4,144c-9,0-13.4-5.6-13.4-14.5
			c0-10.7,7.5-25.7,23.7-30.2c5.2-1.5,7.4-1.2,10-1.3c0,6.6-0.2,12-0.2,12c0,5.3,0,12.9,0.4,18.3c0.1,2,0.3,3.9,0.5,5.9
			C777.3,139.8,768.7,144,761.4,144z"/>
	</g>
	<ellipse class="st0" cx="982.3" cy="139.5" rx="17.7" ry="16.6"/>
</g>
</svg>
