<?xml version="1.0" encoding="utf-8"?>
<!-- Generator: Adobe Illustrator 21.0.2, SVG Export Plug-In . SVG Version: 6.00 Build 0)  -->
<svg version="1.1" id="Layer_1" xmlns="http://www.w3.org/2000/svg" xmlns:xlink="http://www.w3.org/1999/xlink" x="0px" y="0px"
	 viewBox="0 0 40 40" style="enable-background:new 0 0 40 40;" xml:space="preserve">
<style type="text/css">
	.st0{fill:#4B4F54;}
</style>
<path class="st0" d="M20,40C8.9,40,0,31.1,0,20S8.9,0,20,0s20,8.9,20,20S31.1,40,20,40L20,40z M36.8,22.7c-0.6-0.2-5.3-1.6-10.7-0.7
	c2.2,6.1,3.2,11.2,3.3,12.2C33.4,31.6,36.1,27.4,36.8,22.7L36.8,22.7z M26.7,35.7c-0.3-1.5-1.2-6.7-3.6-12.9H23
	c-9.7,3.4-13.2,10-13.5,10.7c2.9,2.2,6.5,3.6,10.5,3.6C22.3,37.1,24.7,36.7,26.7,35.7L26.7,35.7z M7.3,31.4
	c0.4-0.7,5.1-8.5,13.9-11.3c0.2-0.1,0.5-0.2,0.7-0.2c-0.5-0.9-0.9-2-1.4-2.9c-8.6,2.5-16.8,2.4-17.6,2.4c0,0.2,0,0.4,0,0.6
	C2.9,24.4,4.6,28.4,7.3,31.4L7.3,31.4z M3.3,16.6c0.7,0,7.8,0,15.8-2c-2.8-5-5.9-9.3-6.3-9.9C7.9,6.8,4.4,11.3,3.3,16.6L3.3,16.6z
	 M16,3.4c0.5,0.7,3.5,4.8,6.4,10c6-2.2,8.7-5.8,8.9-6.1C28.3,4.6,24.4,3,20,3C18.6,3,17.3,3.1,16,3.4L16,3.4z M33.2,9.2
	c-0.4,0.5-3.3,4.2-9.6,6.7c0.4,0.8,0.7,1.7,1.1,2.5c0.1,0.3,0.3,0.6,0.4,0.8c5.7-0.7,11.3,0.5,11.9,0.6C37,15.8,35.6,12.1,33.2,9.2
	L33.2,9.2z"/>
</svg>
