<?xml version="1.0" encoding="utf-8"?>
<!-- Generator: Adobe Illustrator 21.0.2, SVG Export Plug-In . SVG Version: 6.00 Build 0)  -->
<svg version="1.1" id="Layer_1" xmlns="http://www.w3.org/2000/svg" xmlns:xlink="http://www.w3.org/1999/xlink" x="0px" y="0px"
	 viewBox="0 0 50 50" style="enable-background:new 0 0 50 50;" xml:space="preserve">
<style type="text/css">
	.st0{fill:#4B4F54;}
</style>
<g>
	<path class="st0" d="M25,7.4c5.7,0,6.4,0,8.7,0.1c2.1,0.1,3.2,0.4,4,0.7c1,0.4,1.7,0.9,2.5,1.6c0.8,0.8,1.2,1.5,1.6,2.5
		c0.3,0.8,0.6,1.9,0.7,4c0.1,2.3,0.1,2.9,0.1,8.7s0,6.4-0.1,8.7c-0.1,2.1-0.4,3.2-0.7,4c-0.4,1-0.9,1.7-1.6,2.5
		c-0.8,0.8-1.5,1.2-2.5,1.6c-0.8,0.3-1.9,0.6-4,0.7c-2.3,0.1-2.9,0.1-8.7,0.1s-6.4,0-8.7-0.1c-2.1-0.1-3.2-0.4-4-0.7
		c-1-0.4-1.7-0.9-2.5-1.6c-0.8-0.8-1.2-1.5-1.6-2.5c-0.3-0.8-0.6-1.9-0.7-4c-0.1-2.3-0.1-2.9-0.1-8.7s0-6.4,0.1-8.7
		c0.1-2.1,0.4-3.2,0.7-4c0.4-1,0.9-1.7,1.6-2.5c0.8-0.8,1.5-1.2,2.5-1.6c0.8-0.3,1.9-0.6,4-0.7C18.6,7.4,19.3,7.4,25,7.4 M25,3.5
		c-5.8,0-6.6,0-8.9,0.1s-3.9,0.5-5.2,1C9.5,5.2,8.3,5.9,7.1,7.1s-1.9,2.4-2.5,3.8c-0.5,1.4-0.9,2.9-1,5.2s-0.1,3-0.1,8.9
		c0,5.8,0,6.6,0.1,8.9s0.5,3.9,1,5.2c0.5,1.4,1.3,2.6,2.5,3.8s2.4,1.9,3.8,2.5c1.4,0.5,2.9,0.9,5.2,1s3,0.1,8.9,0.1s6.6,0,8.9-0.1
		s3.9-0.5,5.2-1c1.4-0.5,2.6-1.3,3.8-2.5s1.9-2.4,2.5-3.8c0.5-1.4,0.9-2.9,1-5.2s0.1-3,0.1-8.9s0-6.6-0.1-8.9s-0.5-3.9-1-5.2
		c-0.5-1.4-1.3-2.6-2.5-3.8s-2.4-1.9-3.8-2.5c-1.4-0.5-2.9-0.9-5.2-1C31.6,3.5,30.8,3.5,25,3.5L25,3.5z"/>
	<path class="st0" d="M25,14c-6.1,0-11,4.9-11,11s4.9,11,11,11s11-4.9,11-11S31.1,14,25,14z M25,32.2c-4,0-7.2-3.2-7.2-7.2
		s3.2-7.2,7.2-7.2s7.2,3.2,7.2,7.2S29,32.2,25,32.2z"/>
	<circle class="st0" cx="36.5" cy="13.5" r="2.6"/>
</g>
</svg>
