<?xml version="1.0" encoding="utf-8"?>
<!-- Generator: Adobe Illustrator 22.1.0, SVG Export Plug-In . SVG Version: 6.00 Build 0)  -->
<svg version="1.1" id="Layer_1" xmlns="http://www.w3.org/2000/svg" xmlns:xlink="http://www.w3.org/1999/xlink" x="0px" y="0px"
	 viewBox="0 0 1244 860" style="enable-background:new 0 0 1244 860;" xml:space="preserve">
<style type="text/css">
	.st0{fill:#F1B49B;}
	.st1{fill:#D8917D;}
	.st2{fill:#6B848E;}
	.st3{fill:#C0CBCE;}
	.st4{fill:#526972;}
	.st5{fill:#E0E2E2;}
	.st6{fill:#FFFFFF;}
	.st7{fill:#B3B3B3;}
	.st8{fill:#4A4AE7;}
	.st9{fill:none;stroke:#F0F1F1;stroke-width:1.2076;stroke-miterlimit:10;}
	.st10{fill:#1A5AE0;}
	.st11{fill:none;stroke:#B5C3C6;stroke-width:1.3909;stroke-miterlimit:10;}
	.st12{fill:none;stroke:#B5C3C6;stroke-width:1.3844;stroke-miterlimit:10;}
	.st13{fill:#124CB2;}
	.st14{opacity:0.5;fill:#4C5973;}
	.st15{fill:#515151;}
	.st16{fill:#F7D2C6;}
	.st17{fill:#F4F4F4;}
	.st18{fill:#969696;}
	.st19{fill:#1D66FD;}
	.st20{fill:#5460D1;}
	.st21{fill:#FBC003;}
	.st22{fill:#F9D6DC;}
	.st23{fill:#7F5842;}
	.st24{fill:#DD3748;}
</style>
<g>
	<path class="st0" d="M598.2,264.1c1.9,5,2.3,22.1,7.6,22.7c6.6,0.9,7.3-21.7,10.3-27.6c5.6-10.8,11.3-22.2,11.3-34.4
		c0-9.9-4.8-22.4-11.7-34.5c-2.7-4.6-5.6-9.2-8.8-13.5c-16.8-23.2-38.4-39.4-42.2-21.9C562.3,166.7,593.9,252.7,598.2,264.1z"/>
	<path class="st1" d="M602.7,265.5c4.4-10.7,4.6-24.6,6.5-36c2.2-13.1,4.3-26.1,6.5-39.2c-2.7-4.6-5.6-9.2-8.8-13.5
		c-0.6,0.6-1.1,1.2-1.5,1.9c-1.2,2.1-1.4,4.6-1.6,7.1C602.3,212.4,606.2,238.9,602.7,265.5z"/>
	<path class="st0" d="M745.8,868.1c-22.1,4.4-37.5-9.3-42.7-15c-38.8-41.8-71.8-88.4-103-136.1c-10.5-16.1-21-32.6-27.1-50.8
		s-7.7-38.7-0.5-56.6c5.4-13.3,15.1-24.2,25.2-34.4c73.3-73.6,175.2-117.9,279-121.3c14.2-0.5,28.7-0.1,42,5
		c24.9,9.6,41.1,34.9,46.9,60.9c5.8,26.1,6.7,275.4-25.7,285.7C905,816.8,778.8,861.5,745.8,868.1z"/>
	<path class="st1" d="M849.8,759c0,3.3-4.8,3.8-5.4,0.5c0-0.1,0-0.1,0-0.2c-0.9-5.4-1-11-3.4-15.9c-5.6-11.3-20.6-13.5-33.2-13.7
		c-33.1-0.7-66.3,1.7-99.4,1.1c-33.1-0.6-66.7-4.3-97.5-16.5c41.5-5.9,83.4-6.3,125.2-5.9c20.7,0.2,41.4,0.6,62,0.7
		c10.5,0,21,0,31.4-0.2c5.4-0.1,23.3-3.7,26.3,1.6c2.5,4.5-4.9,24.6-5.3,30.7C850.3,743.3,849.7,751.5,849.8,759z"/>
	<g>
		<path class="st2" d="M988.4,109l-68.3,600.6c-1.2,9.5-9.4,16.7-19,16.7H571.3c-6.8,0-17.5-6.5-24.7-14.2
			c-6.3-6.7-6.9-16.9-1.7-24.5L952.1,89.2c5.5-8.1,17.1-9.6,24.3-2.9C983.5,93.1,989.2,102.5,988.4,109z"/>
		<path class="st3" d="M979.2,100l-71.9,594.7c-1.2,9.5-9.4,16.7-19,16.7H558.5c-11.5,0-20.4-10.1-19-21.6l86.3-594.6
			c1.2-9.5,9.2-16.8,18.8-16.8h315.6C971.8,78.4,980.7,88.5,979.2,100z"/>
		<path class="st4" d="M846.3,125.6H741c-2.3,0-4.2-1.9-4.2-4.2s1.9-4.2,4.2-4.2h105.3c2.3,0,4.2,1.9,4.2,4.2
			S848.6,125.6,846.3,125.6z"/>
		<path class="st4" d="M749.4,720.6h-66.9c-0.7,0-1.3-0.6-1.3-1.3s0.6-1.3,1.3-1.3h66.9c0.7,0,1.3,0.6,1.3,1.3
			S750.1,720.6,749.4,720.6z"/>
		<polygon class="st5" points="972,154.8 913,648.1 546,646.7 616.6,154.8 		"/>
		<path class="st6" d="M636.5,235.6l294.6-1.4c5.6,0,10.3-4.1,11.1-9.6l5.2-35.9c0.9-6.7-4.3-12.8-11.1-12.8H643.1
			c-5.6,0-10.3,4.1-11.1,9.6l-6.6,37.3C624.4,229.6,629.7,235.6,636.5,235.6z"/>
		<path class="st7" d="M661.4,190.1c-5.5,0-10.6,4.5-11.4,10c-0.4,2.7,0.3,5.1,1.8,6.9l-11.5,10.4c-0.5,0.4-0.5,1.1-0.2,1.5
			c0.2,0.2,0.4,0.3,0.7,0.3c0.3,0,0.6-0.1,0.8-0.3l11.6-10.5c1.4,1.1,3.3,1.7,5.3,1.7c5.5,0,10.6-4.5,11.4-10
			C670.8,194.6,667,190.1,661.4,190.1z M667.9,200.1c-0.6,4.3-4.6,7.8-8.9,7.8c-1.8,0-3.5-0.6-4.7-1.7c0,0,0,0-0.1-0.1
			c-1.5-1.4-2.3-3.6-2-6c0.6-4.3,4.6-7.8,8.9-7.8C665.5,192.2,668.5,195.8,667.9,200.1z"/>
		
			<ellipse transform="matrix(0.7315 -0.6819 0.6819 0.7315 -181.2673 759.0947)" class="st6" cx="873.1" cy="609.7" rx="22.9" ry="19.9"/>
		
			<ellipse transform="matrix(0.7315 -0.6819 0.6819 0.7315 -200.2697 710.8421)" class="st6" cx="802.4" cy="609.7" rx="22.9" ry="19.9"/>
		
			<ellipse transform="matrix(0.7315 -0.6819 0.6819 0.7315 -219.2721 662.5895)" class="st3" cx="731.6" cy="609.7" rx="22.9" ry="19.9"/>
		
			<ellipse transform="matrix(0.7315 -0.6819 0.6819 0.7315 -238.2746 614.337)" class="st6" cx="660.9" cy="609.7" rx="22.9" ry="19.9"/>
		
			<ellipse transform="matrix(0.7315 -0.6819 0.6819 0.7315 -257.277 566.0844)" class="st6" cx="590.1" cy="609.7" rx="22.9" ry="19.9"/>
		<g>
			
				<ellipse transform="matrix(0.7315 -0.6819 0.6819 0.7315 -218.102 655.912)" class="st6" cx="723.7" cy="604.9" rx="2.5" ry="2.1"/>
			
				<ellipse transform="matrix(0.7315 -0.6819 0.6819 0.7315 -215.6448 662.1517)" class="st6" cx="732.9" cy="604.9" rx="2.5" ry="2.1"/>
			
				<ellipse transform="matrix(0.7315 -0.6819 0.6819 0.7315 -213.1875 668.3914)" class="st6" cx="742" cy="604.9" rx="2.5" ry="2.1"/>
			
				<ellipse transform="matrix(0.7315 -0.6819 0.6819 0.7315 -224.6871 657.4924)" class="st6" cx="722.4" cy="614" rx="2.5" ry="2.1"/>
			
				<ellipse transform="matrix(0.7315 -0.6819 0.6819 0.7315 -222.2298 663.7321)" class="st6" cx="731.6" cy="614" rx="2.5" ry="2.1"/>
			
				<ellipse transform="matrix(0.7315 -0.6819 0.6819 0.7315 -219.7726 669.9717)" class="st6" cx="740.7" cy="614" rx="2.5" ry="2.1"/>
		</g>
		<polygon class="st3" points="651.6,614 654.8,614 659.5,618.2 659.7,614 670.1,614 671.5,604 653,604 		"/>
		<g>
			<g>
				<path class="st3" d="M795.9,601.1c0.3-0.4,0.6-0.8,0.9-1.2c1-1.2,2.3-2,3.7-2.5c0.4-0.1,0.8-0.3,1.1-0.4c0.9-0.2,1.5,0,1.7,0.8
					c0.1,0.4,0.2,0.7,0.2,1.1c0,0.8,0.1,1.6,0.1,2.5c0,0.4-0.1,0.8-0.2,1.2c-0.3,0.7-0.9,1.2-1.6,1.4c-0.5,0.2-1,0.3-1.5,0.5
					c-0.8,0.2-1.2,0.7-1.4,1.4c-0.2,0.8-0.2,1.6-0.1,2.3c0.2,1.5,0.5,2.8,1,4.1c0.2,0.6,0.5,1.1,1.1,1.5c0.4,0.4,1,0.4,1.6,0.1
					c0.6-0.2,1.1-0.4,1.6-0.6c1-0.3,1.8-0.1,2.3,0.7c0.3,0.4,0.4,0.7,0.6,1.1c0.3,0.7,0.5,1.4,0.7,2.1c0.1,0.2,0.1,0.5,0.1,0.8
					c0,0.7-0.3,1.3-1,1.5c-0.9,0.4-1.9,0.8-2.8,0.9c-1.2,0.2-2.3,0.1-3.4-0.4c-1.5-0.6-2.6-1.7-3.4-3c-0.7-1.1-1.2-2.4-1.7-3.7
					c-0.6-2.1-1-4.3-1.1-6.5c0-1.4,0.2-2.8,0.7-4.2c0.1-0.3,0.2-0.6,0.3-0.9C795.7,601.5,795.8,601.3,795.9,601.1z"/>
			</g>
		</g>
		<g>
			<path class="st3" d="M600.4,606.1c-0.3-1.9-1.1-3.6-2.3-4.9c-1.6-1.8-4.1-2.9-6.9-2.9c-4,0-7.8,2.2-10.1,5.5
				c-1.1,1.5-1.8,3.3-2,5.1c-0.8,5.9,3.3,10.7,9.2,10.7c1.1,0,2.2-0.2,3.2-0.5h0c4.5-1.4,8.2-5.4,8.9-10.2
				C600.5,608,600.5,607,600.4,606.1z M586.3,608.7c-0.3,0.1-0.6,0.4-0.5,0.6c0,0.1,0.1,0.2,0.2,0.3c0.3,0.3,0.2,0.9,0,1.4
				c-0.2,0.5-0.6,0.8-0.8,1.3c-0.5,0.9-0.4,1.9-0.5,2.9c-0.1,0.3-0.1,0.6-0.3,0.9c-0.2,0.3-0.6,0.4-0.8,0.2
				c-0.2-0.1-0.2-0.3-0.2-0.5c-0.4-1.7-2.1-2.7-2.5-4.3c-0.1-0.3,0-0.7,0.3-0.9c0.6-0.5,1.3-0.8,2-0.9c0.6-0.1,1.3-0.2,1.7-0.7
				c0.1-0.2,0.2-0.4,0.4-0.6c0.3-0.4,0.9-0.5,1.4-0.7c0.5-0.2,0.6-0.8,0.2-1.1l-1.8-1.2c-0.3-0.2-0.7-0.4-0.8-0.8
				c0-0.1-0.1-0.1-0.1-0.2c-0.2-0.8,0.4-1.8,1.3-2.1c0.2-0.1,0.5-0.1,0.6,0.1c0.2,0.3-0.3,0.8,0,1.1c0.1,0.1,0.2,0.1,0.3,0.1
				c0.4,0,0.8,0,1.1-0.2c0.4-0.2,0.6-0.7,0.4-1c-0.2-0.2-0.6-0.3-0.6-0.7c0-0.2,0.2-0.4,0.5-0.5c0.8-0.1,1.6,0.3,2.5,0
				c0.2-0.1,0.4-0.2,0.7-0.3c1-0.3,1.8,0.2,2.8,0.1c0.2,0,0.4-0.1,0.6-0.1c0.4,0.1,0.7,0.5,0.6,1c-0.1,0.5-0.6,0.7-1,0.8
				c-0.3,0.1-0.6,0-0.8,0c-0.3-0.1-0.7,0.2-0.7,0.5c-0.1,0.2-0.1,0.4-0.1,0.6c0,0.1-0.1,0.1-0.1,0.2c-0.1,0.2-0.3,0.3-0.5,0.5
				c-0.5,0.5-0.7,1.1-1.1,1.7c-0.3,0.4-0.7,0.7-1.1,0.8c-0.3,0.1-0.5,0.3-0.6,0.6c-0.1,0.2-0.2,0.4-0.4,0.6
				C587.9,608.7,587.1,608.5,586.3,608.7z M596.8,612.9c-0.5,0.6-1,1.1-1.5,1.6c-0.6,0.6-1.2,1.1-1.8,1.6c-0.4,0.3-0.7,0.6-1.1,0.8
				c-1,0.7-2.3,1.1-3.4,1c-0.1,0-0.1,0-0.2-0.1c-0.1-0.1-0.1-0.2,0-0.4c0.3-0.8,0.9-1.6,1.6-2.2c0.3-0.2,0.5-0.4,0.7-0.7
				c0.2-0.4,0.2-0.8,0.5-1.1c0.3-0.3,0.8-0.4,1.1-0.7c0.3-0.2,0.3-0.6,0.5-0.8c0.2-0.1,0.4-0.2,0.6-0.3c0.3-0.2,0.5-0.5,0.6-0.8
				c0-0.1,0-0.2,0.1-0.2c0.2-0.2,0.5,0,0.8-0.1c0.4-0.1,0.5-0.7,0.8-0.9c0.1-0.1,0.3-0.1,0.4-0.1c0.4,0.1,0.8,0.4,1,0.7
				c0.1,0.2,0.2,0.5,0.2,0.7C597.7,611.6,597.3,612.3,596.8,612.9z"/>
		</g>
		<g>
			<path class="st3" d="M883.8,605.1c-0.3,0-0.6-0.2-0.7-0.5l-1.8-4.6c-0.1-0.3-0.4-0.4-0.7-0.4h-11.5c-0.3,0-0.6,0.2-0.8,0.4
				l-3.1,4.6c-0.2,0.3-0.5,0.5-0.8,0.5c-0.5,0-0.9,0.4-1,0.8l-1,6.7c-0.1,0.5,0.3,0.9,0.7,0.9h1.3l-0.3,1.8c0,0.2,0,0.4,0,0.6
				c0.1,0.5,0.6,0.8,1.2,0.8c0.8,0,1.5-0.6,1.6-1.4l0.2-1.8h11.3l-0.2,1.8c-0.1,0.8,0.4,1.4,1.2,1.4h0c0.8,0,1.5-0.6,1.6-1.4
				l0.2-1.8h1.3c0.5,0,0.9-0.4,1-0.9l1-6.7C884.6,605.4,884.3,605.1,883.8,605.1z M868.2,609.3c-0.1,0.6-0.5,1.2-1.1,1.5
				c-0.3,0.2-0.6,0.3-1,0.3c-1,0-1.7-0.8-1.5-1.8c0.1-1,1-1.8,2-1.8c0.9,0,1.5,0.6,1.5,1.4C868.2,609.1,868.2,609.2,868.2,609.3z
				 M868.6,605.1c-0.6,0-1-0.7-0.6-1.2l1.2-1.7c0.2-0.3,0.5-0.5,0.8-0.5h9c0.3,0,0.6,0.2,0.7,0.5l0.7,1.7c0.2,0.6-0.3,1.2-0.9,1.2
				H868.6z M880.3,611c-1,0-1.7-0.8-1.5-1.8c0.1-1,1-1.8,2-1.8c1,0,1.6,0.8,1.5,1.8C882.1,610.3,881.2,611,880.3,611z"/>
		</g>
		
			<ellipse transform="matrix(0.7315 -0.6819 0.6819 0.7315 142.0147 568.178)" class="st4" cx="792.4" cy="103.8" rx="6.2" ry="5.4"/>
		<g>
			<path class="st3" d="M591,559.2l296-1.4c5.6,0,10.3-4.1,11.1-9.6l13.8-111.3c0.9-6.7-4.3-12.8-11.1-12.8H609
				c-5.6,0-10.3,4.1-11.1,9.6l-18,112.7C578.9,553.2,584.2,559.2,591,559.2z"/>
			
				<ellipse transform="matrix(0.7315 -0.6819 0.6819 0.7315 -70.252 720.9974)" class="st8" cx="880.3" cy="449.7" rx="16" ry="13.9"/>
			
				<ellipse transform="matrix(0.7315 -0.6819 0.6819 0.7315 -97.9672 727.4307)" class="st8" cx="874.6" cy="488.1" rx="16" ry="13.9"/>
			
				<ellipse transform="matrix(0.7315 -0.6819 0.6819 0.7315 -126.6522 734.2459)" class="st8" cx="868.9" cy="527.9" rx="16" ry="13.9"/>
			<g>
				<line class="st9" x1="857.1" y1="441.2" x2="776" y2="441.2"/>
				<line class="st9" x1="855.4" y1="447.6" x2="774.4" y2="447.6"/>
				<line class="st9" x1="854.4" y1="454.7" x2="806.8" y2="454.7"/>
			</g>
			<g>
				<line class="st9" x1="852.8" y1="481" x2="771.7" y2="481"/>
				<line class="st9" x1="851.2" y1="487.4" x2="770.1" y2="487.4"/>
				<line class="st9" x1="850.2" y1="494.5" x2="802.5" y2="494.5"/>
			</g>
			<g>
				<line class="st9" x1="847.1" y1="522.2" x2="766" y2="522.2"/>
				<line class="st9" x1="845.5" y1="528.6" x2="764.4" y2="528.6"/>
				<line class="st9" x1="844.5" y1="535.7" x2="796.8" y2="535.7"/>
			</g>
			
				<ellipse transform="matrix(0.7315 -0.6819 0.6819 0.7315 -111.8855 615.2782)" class="st8" cx="725.2" cy="449.7" rx="16" ry="13.9"/>
			
				<ellipse transform="matrix(0.7315 -0.6819 0.6819 0.7315 -140.5705 622.0934)" class="st8" cx="719.6" cy="489.5" rx="16" ry="13.9"/>
			
				<ellipse transform="matrix(0.7315 -0.6819 0.6819 0.7315 -169.2556 628.9087)" class="st8" cx="713.9" cy="529.3" rx="16" ry="13.9"/>
			<g>
				<line class="st9" x1="702" y1="441.2" x2="620.9" y2="441.2"/>
				<line class="st9" x1="700.4" y1="447.6" x2="619.3" y2="447.6"/>
				<line class="st9" x1="699.4" y1="454.7" x2="651.7" y2="454.7"/>
			</g>
			<g>
				<line class="st9" x1="697.7" y1="481" x2="616.7" y2="481"/>
				<line class="st9" x1="696.1" y1="487.4" x2="615.1" y2="487.4"/>
				<line class="st9" x1="695.1" y1="494.5" x2="647.5" y2="494.5"/>
			</g>
			<g>
				<line class="st9" x1="692.1" y1="522.2" x2="611" y2="522.2"/>
				<line class="st9" x1="690.4" y1="528.6" x2="609.4" y2="528.6"/>
				<line class="st9" x1="689.4" y1="535.7" x2="641.8" y2="535.7"/>
			</g>
		</g>
		<g>
			<path class="st6" d="M731.4,409.5l179.4-1.4c5.6,0,10.3-4.1,11.1-9.6l18-131.2c0.9-6.7-4.3-12.8-11.1-12.8H753.7
				c-5.6,0-10.3,4.1-11.1,9.6l-22.3,132.6C719.4,403.5,724.6,409.5,731.4,409.5z"/>
			<path class="st10" d="M725.1,267.2l-20.9,131.2c-0.8,5.5-5.5,9.6-11.1,9.6l-16.6,0.3l-58.2,1l-5,0.1c-6.8,0-12-6-11.1-12.8
				l22.3-132.7c0.8-5.5,5.5-9.6,11.1-9.6h78.4C720.8,254.4,726.1,260.5,725.1,267.2z"/>
			<g>
				<line class="st11" x1="907.9" y1="282" x2="759.3" y2="282"/>
				<line class="st11" x1="917.3" y1="273.3" x2="760.6" y2="273.3"/>
				<line class="st12" x1="847.6" y1="290.8" x2="756.4" y2="290.8"/>
			</g>
			<g>
				<line class="st11" x1="890.5" y1="378.6" x2="741.9" y2="378.6"/>
				<line class="st11" x1="899.9" y1="369.7" x2="743.2" y2="369.7"/>
				<line class="st12" x1="895.4" y1="387.6" x2="740.2" y2="387.6"/>
			</g>
			<g>
				<line class="st11" x1="900.5" y1="322.2" x2="751.9" y2="322.2"/>
				<line class="st11" x1="909.9" y1="313.4" x2="753.2" y2="313.4"/>
				<line class="st12" x1="880.4" y1="330.6" x2="750.3" y2="331.2"/>
				<line class="st12" x1="889.1" y1="339.6" x2="749" y2="339.6"/>
				<line class="st12" x1="873.1" y1="348.4" x2="746.3" y2="348.4"/>
			</g>
			
				<ellipse transform="matrix(0.7315 -0.6819 0.6819 0.7315 -34.4707 538.4252)" class="st13" cx="666.4" cy="313" rx="23.1" ry="20.1"/>
			<path class="st13" d="M686,372.6l-5.7,35.5l-3.8,0.3l-58.2,1l4.2-36.8c1.2-8.8,5.9-16.7,12.4-22.4c6.5-5.7,15-9.3,23.7-9.3
				C676.3,340.9,688.4,355.1,686,372.6z"/>
		</g>
		<path class="st14" d="M832,711.4h39.9c3-2.7,5.2-3.8,7.4-7.2c1.2-1.8,2.3-3.6,3.4-5.4c10.6-16.8,20.8-33.9,29.1-51.9l0,0
			c0.8-1.8,1.7-3.6,2.5-5.5c7.5-17.2,13.1-35.1,18.4-53.1l23.8-202.5c-25.2,8.5-43.3,108.9-60.4,174.3
			C891.8,576.8,827.9,657.3,832,711.4z"/>
	</g>
	<path class="st0" d="M985.2,781.3c-0.7,10.9-4.1,37.7-1.1,83.5c0.1,2,0.3,4.1,0.4,6.2H720.2c-0.5-2.2-0.9-4.2-1.3-6.2
		c0-0.2-0.1-0.4-0.1-0.6c0-0.1-0.1-0.3-0.1-0.4h0c-0.2-0.9-0.4-1.8-0.6-2.8c-0.6-3.4-0.8-6.8,0.4-9.9c1.5-3.7,4.9-6,8-7.9
		c40.5-25.1,84.6-43.4,130.1-54.7c29.5-7.3,59.5-11.7,89.4-13c12.9-0.6,25.8-0.6,38.6-0.1C985.4,775.5,985.5,777.4,985.2,781.3z"/>
	<path class="st14" d="M631.4,508.3c-6.1,3.4-15.5,1.1-21.4-2.5c-13.7-8.3-28-19.9-41-21.9c-1.7-0.3,2.6-11.5,2.4-13.2
		c-0.2-2.5,2.4-8.3,4.9-8.7c2.5-0.4,4.8,4.2,7,5.4c12.1,6.1,22.1,17.2,35.5,19.3c6,0.9,15.6-1,18.9,5.2
		C640.3,497,635.8,505.9,631.4,508.3z"/>
	<path class="st14" d="M648.1,389.1c-6.1,3.4-15.5,1.1-21.4-2.5c-13.7-8.3-37.1-18.9-52.6-22.8c-5.7-1.4,14.2-10.6,14-12.3
		c-0.2-2.5,2.1-4.7,4.6-5.1s5,0.6,7.3,1.7c12.1,6.1,22.1,17.2,35.5,19.3c6,0.9,15.6-1,18.9,5.2C657,377.7,652.4,386.7,648.1,389.1z"
		/>
	<path class="st0" d="M539.3,463.4c3.7,8.2,26.2,48.3,26.2,48.3l6.5-44.3c1-0.2,0.8,0.1,1.6,0.6c11.6,6.8,22.5,14.7,32.6,23.6
		c3.7,3.3,7.4,6.7,11.9,8.7c4.6,1.9,10.3,2,14-1.2c5.6-4.8,4.4-13.7,1.6-20.6c-6.8-16.8-54.1-74.5-64.1-78.1
		c-5.2-1.9-11.1-2.4-16.1-0.1c-2.7,1.3-4.9,3.3-7,5.4C535.7,417.2,527.2,436.8,539.3,463.4z"/>
	<path class="st0" d="M559.3,346.7c0.6,8.9,23.7,44.4,23.7,44.4s4.8-32.8,5.3-36.2c0.3-1.8,0.6-4,2.2-4.5c0.1,0,0.2-0.1,0.3-0.1
		c1-0.2,2,0.3,2.8,0.8c11.6,6.8,22.5,14.7,32.6,23.6c3.7,3.3,7.4,6.7,11.9,8.7c4.6,1.9,10.3,2,14-1.2c5.6-4.8,4.4-13.7,1.6-20.6
		c-6.8-16.8-19-30.6-31-44.1c-7.1-7.9-14.5-16.2-24.5-19.8c-5.2-1.9-11.1-2.4-16.1-0.1c-2.7,1.3-4.9,3.3-7,5.4
		C564.1,314.8,558.2,330.9,559.3,346.7z"/>
	<path class="st14" d="M597.8,601.4c-4.3,3-10,3.6-15.1,2.7c-5.2-0.9-10-3.2-14.6-5.8c-1.9-1.1-3.8-2.2-5.9-2.3
		c-3.5-0.2-6.5,2.4-9.1,4.8c-1.4-3.8-1.3-7.9-0.8-11.9c0.4-3,1-6.1,2.6-8.7s4.4-4.6,7.4-4.6c3.1,0,5.8,2.2,8.4,3.9
		c5.7,3.7,12.4,5.7,19.2,5.9C600.5,585.7,611.3,592.2,597.8,601.4z"/>
	<path class="st0" d="M528,578.5c0.6,8.9,21.5,45.6,21.5,45.6s1.5-10.6,3.6-23l3.3-15.9c0.5-1.8,1.3-2.7,3.1-3.1
		c0.4-0.1,0.8,0,1.2,0.1c0.6,0.2,1.2,0.5,1.7,0.8c11.6,6.8,20.1,10.5,24.7,12.4c4.6,1.9,10.3,2,14-1.2c5.6-4.8,4.4-13.7,1.6-20.6
		c-6.8-16.8-25.6-40.3-35.6-44c-5.2-1.9-11.1-2.4-16.1-0.1c-2.7,1.3-4.9,3.3-7,5.4C532.8,546.5,526.9,562.7,528,578.5z"/>
	<g>
		<g>
			<path class="st15" d="M564.1,585.5C564.1,585.5,564.1,585.5,564.1,585.5C564.1,585.5,564.1,585.5,564.1,585.5L564.1,585.5z"/>
		</g>
	</g>
	<path class="st1" d="M560.1,464.5c0.9,4.6,2.5,9.1,4.5,13.3c1.2,2.4,2.9,4.8,5.2,6.2l2.2-16.6c0-1.4-2.9-2.4-6.7-5.3
		c-0.7-0.5-1.5-1.1-2.3-1.3c-0.9-0.2-1.9-0.1-2.5,0.5C559.7,462.1,559.9,463.4,560.1,464.5z"/>
	<path class="st1" d="M549,595.8c1,2,2.3,4,4.1,5.4l3.3-15.9c0.5-1.8,1.3-2.7,3.1-3.1c0.4-0.1,0.8,0,1.2,0.1
		c-1.2-1.4-2.1-1.2-8.5-4.1C539.3,572.5,546.9,591.6,549,595.8z"/>
	<path class="st1" d="M579.3,351.4c0.8,3.8,2,7.5,3.7,11c1,2,1.4,4.2,3.2,5.4l0.3-1.3c0.6-4.1,1.2-8.1,1.7-11.5
		c0.3-1.8,0.6-4,2.2-4.5c-0.3-1-10.4-2.3-10.9-1.8C579,349.5,579.1,350.5,579.3,351.4z"/>
	<path class="st16" d="M597.2,575.4c1.1,3.1,1.7,7.1-0.7,9.3c-1.3,1.2-3.2,1.6-5,1.4c-3.4-0.3-6.4-2.3-9.2-4.2
		c-2.1-1.4-4.2-2.8-6.3-4.2c-1-0.7-2-1.4-2.7-2.4c-1.2-1.9-0.6-4.5,0.7-6.3c1.3-1.8,3.3-3,5.2-4.2c4.4-2.7,7.8-7,11.5-2.2
		C593.5,566.5,595.7,571,597.2,575.4z"/>
	<path class="st16" d="M631.4,484.4c1.1,3.1,1.7,7.1-0.7,9.3c-1.3,1.2-3.2,1.6-5,1.4c-3.4-0.3-6.4-2.3-9.2-4.2
		c-2.1-1.4-4.2-2.8-6.3-4.2c-1-0.7-2-1.4-2.7-2.4c-1.2-1.9-0.6-4.5,0.7-6.3s3.3-3,5.2-4.2c4.4-2.7,7.8-7,11.5-2.2
		C627.7,475.4,629.8,479.9,631.4,484.4z"/>
	<path class="st16" d="M649.8,362.6c1.2,3.4,1.8,7.7-0.8,10.1c-1.4,1.3-3.5,1.7-5.4,1.5c-3.7-0.3-6.9-2.5-10-4.5
		c-2.3-1.5-4.5-3.1-6.8-4.6c-1.1-0.7-2.2-1.5-2.9-2.6c-1.3-2.1-0.7-4.9,0.7-6.8c1.4-2,3.6-3.3,5.6-4.5c4.8-2.9,8.4-7.6,12.4-2.4
		C645.8,352.9,648.1,357.8,649.8,362.6z"/>
	<path class="st0" d="M848.3,736.1c0.1,58.7,27.7,119.3,110.8,73.2c18.2-10.1,28.2-30.6,35.5-49.8c9.2-24.2,11.7-50.5,12-76.3
		c0.4-37.4-5.8-74.4-11.9-111.3c-8.5-51.7-3.8-108.4,2.8-150.8c3.2-20.9,6.9-38.4,9.7-50.1c0.1-0.5,0.2-1,0.2-1.4
		c0-2.5-1.6-4.9-4.1-5.7c-12.8-4.4-28.2,0.8-38.2,10.4c-11.4,10.9-17.2,26.2-22.1,41.2c-16,48.4-24.7,151.2-54,192.9
		C861.8,646.7,848.2,717.3,848.3,736.1z"/>
	<path class="st16" d="M984.7,419.9c0.6,0.6,1.5,0.7,2.4,0.8c5.2,0.7,8.2,1.2,10.4,0.3c3.2-20.9,6.9-38.4,9.7-50.1
		c0.1-0.5,0.2-1,0.2-1.4c-1.1-0.4-2.4-0.3-3.4,0.2c-1.7,0.7-2.9,2.1-4,3.5c-9.5,12.3-12.7,27.9-15.7,42.9
		C983.9,417.5,983.7,419,984.7,419.9z"/>
</g>
<circle class="st17" cx="1089.5" cy="126.5" r="55.5"/>
<circle class="st17" cx="468" cy="472" r="27"/>
<rect x="426" y="145" class="st17" width="68" height="68"/>
<rect x="301" y="483" class="st17" width="32" height="32"/>
<rect x="708.1" y="-127" class="st18" width="95.2" height="87.6"/>
<rect x="292.9" y="-150.2" class="st19" width="95.2" height="87.6"/>
<rect x="435.5" y="-77.6" class="st20" width="95.2" height="87.6"/>
<rect x="494.3" y="-142.8" class="st21" width="95.2" height="87.6"/>
<rect x="196.7" y="-137.2" class="st22" width="95.2" height="87.6"/>
<rect x="556.6" y="-118.3" class="st23" width="95.2" height="87.6"/>
<rect x="341.5" y="-92" class="st24" width="95.2" height="87.6"/>
<image style="overflow:visible;" width="2552" height="1496" xlink:href="../../../Desktop/Screen Shot 2018-06-27 at 8.45.07 PM.png"  transform="matrix(0.1753 0 0 0.1753 214.3365 -439)">
</image>
<polygon class="st24" points="427,261 340,261 346,216 433,216 "/>
</svg>
