<svg xmlns="http://www.w3.org/2000/svg" viewBox="0 0 500 142.1">
  <path d="M486.7 128c-1.3-1.8-2.1-7.7.2-15.1v-.1c.6-1.8 1.1-3.6 1.6-5.3.4-1.4.8-2.7 1.2-4L500 71.2l-9.3-2.9-10.2 32.4c-.4 1.3-.8 2.7-1.3 4.1-.5 1.7-1 3.4-1.6 5.1-1.6 4.8-3.4 9.7-6 13.3-3.4 4.8-7.5 6.5-13.2 5.5-2.9-.5-5.4-2.3-6.9-4.8s-1.8-5.6-.9-8.3l14.6-44.2-9.3-3.1-14.6 44.2c-.3.8-.5 1.6-.6 2.3l-3.5 9.3c-2.6 6-6.3 5.6-7.4 5.3-1.6-.5-5.6-1.9-3.6-9.3l16.3-48.7-9.3-3.1-4.3 12.7c-2.5-6.5-6.9-9-7.9-9.6-10.9-5.6-22.4-1.5-32.4 11.4-3.1 4.1-5.7 8.6-7.7 13.3-1.8 4.5-3.1 9.2-3.8 14.1-8.6 18.3-19.8 19.2-20.5 19.2-6.6 0-11.1-2.5-13.7-7.6-1.7-3.4-2.5-8.3-2.3-13.6 2.5.6 5.5 1.1 8.8 1 7.5-.2 14.8-3.4 20-8.8 3.4-3.6 6.6-10.1 5.9-16.6-.8-8.4-8.4-15.6-16.6-15.7h-.1c-6.2 0-13.2 4.5-18.7 12-4.2 5.7-7.4 14-8.6 22.6-4.4 16.3-10.3 22.6-14.5 25-3.4 2-6.1 1.5-6.6 1.4l-.3-.1c-1.1-.3-4.5-1.2-6.3-8.1 0-.1-.1-.2-.1-.4 9-11.4 46.2-60.3 49.8-95 0-.4 1-10.8-4.9-16.7-2-2-5.6-4.2-11.3-3.5-5.1.6-8.7 4-11.5 6.8-8.1 7.8-17.8 30.5-23.8 49.5-3.8 11.9-6.5 23.4-8 33.4-1.2 8.1-1.5 15.1-1 21-10.9 12.7-20.5 13.5-21 13.5-6.9 0-11.6-2.7-14.4-8.3-1.9-3.8-2.7-8.4-2.7-13.2 2.4.6 5.2 1 8.2.9 7.5-.2 14.8-3.4 20-8.8 3.4-3.6 6.6-10.1 5.9-16.6-.8-8.3-8.2-15.1-16.6-15.2h-.2c-6.5 0-13.3 4.2-18.7 11.5-4.2 5.7-7.3 14.3-8.2 23.2-2.6 15-7.2 21.4-10.7 24.2-3.2 2.6-5.8 2.4-6 2.4-2.1-.3-2.6-1.1-2.8-1.5-1.5-2.5-.3-7.8.5-10v-.1l23.2-71.3c6.7.4 21.1-.7 29.3-16.6 3.6-7.1 4.5-14.3 2.3-19.9-1.6-4.1-4.7-7.1-8.9-8.8-4-1.5-8.1-1.4-11.7.3-7.7 3.7-11.1 13.5-11.4 14.8l-19.1 58.7c-2.7-5.4-6.5-7.6-7.5-8.1-11.7-6-24-1.6-34.7 12.3-3.4 4.4-6.2 9.3-8.3 14.4-2.1 5.1-3.5 10.5-4.2 16.1-.1.6-.2 1.3-.2 1.9-3.5 8.5-7.4 15.9-9.4 17.8-2.6 2.5-5.1 3.1-6.4 2.5-1.2-.5-1.8-2.3-1.6-4.6.2-3.5 7.1-19.4 13.3-32.2l.1-.3c2.1-5.2.5-11-3.8-14.5l-.3-.2-5.7-3.3c-.2-.1-1.8-1.2-4-2.8 3.8-5.9 10.3-18.8 2.6-27.9-5-5.9-13.5-7.1-19.9-2.8-5 3.3-7.3 9.5-6.2 16.5.9 5.7 5.4 11.3 10.1 15.8-3.8 4.5-7.5 8.2-11.1 11-.3-3.5-1-6.6-2.2-9.4-2.6-6.1-6.8-8.5-7.9-9-8-4.1-16.3-3.3-24.1 2.1-20.5 14.9-32.9 3.5-33.4 3-2.5-3.3-5.3-4.8-6.1-5.2-9.3-4.7-18.9-2.9-27.9 5l9.1-27.8c3 .2 6.2 0 9.7-.7 10.9-2.2 23.8-13.2 24.9-25.5.6-7.6-1.9-12.1-4.1-14.5-3-3.1-7.3-4.8-12.3-4.8h-.2C44.7.1 39.4 16.4 38.9 17.8l-5.2 15.9c-3.6-2-7.1-5.5-10.5-11.5L14.7 27c4.4 7.8 9.8 13.2 16 16.1L0 136.2l9.3 3.1 3.9-11.9c.9 2.1 2 3.9 3.4 5.5 5 5.6 11.5 6.1 13.1 6.1.8.1 1.5.1 2.3.1 9.6 0 18.3-5 25.3-14.5 5.1-6.9 7.7-13.9 8.1-15 3.8-9.6 4.8-17 4.4-22.8.5.1.9.3 1.4.4 2.4.6 4.8.8 7.1.8 1.7 0 3.4-.1 5.1-.4-4.1 7.1-6.8 15.2-8 23.6-1.2 8.8.3 15.8 4.5 20.9 5.1 6.1 12.1 6.9 13.4 7 .8.1 1.6.1 2.4.1 9.6 0 18.3-5 25.3-14.5 5.4-7.3 8-14.9 8.1-15.2v-.1c1.2-3.7 2.1-7.2 2.7-10.5 6.3-3.3 12.9-9 19.5-16.9 2.8 2.1 4.9 3.3 4.9 3.3l5.1 2.9c.8.8 1.1 1.9.7 2.9-3.3 6.9-13.7 28.7-14.2 35.6-.5 6.5 2.3 11.8 7.3 14.2 1.7.8 3.4 1.1 5.3 1.1 4.1 0 8.4-1.9 12.1-5.5 1.6-1.6 3.4-4.3 5.1-7.4.8 1.5 1.7 2.9 2.8 4.1 4.9 5.4 11.2 5.8 12.9 5.8.7.1 1.4.1 2.1.1 7.5 0 14.5-3.2 20.5-9.3.3 1.1.8 2.1 1.3 3.1 1.4 2.4 4.3 5.4 9.8 6.2.3 0 .8.1 1.6.1 3.8 0 12.9-1.5 19.7-14.3l.3.6c4.5 8.8 12.7 13.7 23.2 13.7 1.2 0 11.5-.4 23.5-11.8 3 7.2 8 10 11.9 11.1.6.2 2.1.5 4.2.5 2.5 0 5.9-.5 9.6-2.5 4.6-2.5 8.7-6.7 12.1-12.5.3.8.6 1.5 1 2.2 3 5.9 9.3 13 22.4 13 .8 0 5.5-.2 11.5-3.7 3.7-2.2 7.1-5.1 10.2-8.8.9 2.3 2.1 4.3 3.6 6 4.6 5 10.5 5.4 12.1 5.5.7 0 1.3.1 2 .1 7.5 0 14.5-3.4 20.5-10.1 1.4 4.9 4.9 8.5 10.4 10.3 1.1.3 2.5.6 4 .6 4.3 0 9.8-1.8 13.7-8.2 3 3.8 7.2 6.3 12 7.2 1.7.3 3.3.5 4.9.5 6.2 0 11.5-2.4 15.9-7.1.4.8.8 1.5 1.3 2.2 1.8 2.5 5.3 5.5 11.8 5.5v-9.8c-2.7.1-3.4-1-3.7-1.4zM258.3 19.5c.6-1.8 3-7.3 6.4-9 .6-.3 1.2-.4 1.9-.4s1.3.1 2.1.4c1.6.6 2.7 1.6 3.2 3.1 1.1 2.9.4 7.4-1.9 11.9-4.7 9.1-12.2 11.2-17.4 11.3l5.7-17.3zM48.2 20.8v-.1c0-.1 3.5-10.8 9.9-10.9h.1c1.6 0 3.8.3 5.1 1.7 1.6 1.7 1.7 4.8 1.5 7-.6 7.3-9.9 15.3-17.1 16.7-1.4.3-3 .5-4.5.6l5-15zm8.1 85.2l-.1.2c-.1.2-8.6 24.5-25.8 22.9h-.5c-.4 0-3.7-.2-6.1-2.9-2.4-2.8-3.2-7.6-2.4-13.9 1.2-9.4 4.8-18.3 10.5-25.7C35.4 82 39 78.8 42.5 77c4.1-2.1 7.8-2.1 11.8 0l.3.1c.2.2 11 5.6 1.7 28.9zm66.6-14c-1.2.3-2.3.5-3.4.5h-.1c-7.2 0-10.9-3.4-11-10 0-2 .9-3.9 2.5-5.1 1.5-1.1 3.5-1.4 5.2-.9.6.2 1.4.4 2 .5l.2.1c.7.5 5.3 3.8 4.6 14.9zm-3 14.3c-.3.9-8.8 24.4-25.8 22.9h-.2s-3.9-.3-6.5-3.4c-2.4-2.9-3.2-7.3-2.3-13.3 1.3-9.6 5-18.5 10.6-25.8 1-1.3 2-2.5 3-3.5.4 11.7 8.5 19.1 20.8 19.1h.1c.5 0 1 0 1.5-.1-.4 1.3-.8 2.7-1.2 4.1zm29.7-38.5c-3.7-3.6-5.9-6.9-6.3-9.3-.5-3.1.3-5.7 2-6.9.9-.6 1.9-.9 2.9-.9 1.5 0 3 .6 4.1 1.9 2.9 3.4.2 10.3-2.7 15.2zm70.1 37.2c0 .1-2.2 6.8-6.8 13.3-5.6 7.9-12 11.6-19 11h-.6s-3.3 0-5.7-2.6c-2-2.2-3-5.8-3-10.5 0-1.6.1-3.2.3-5 1.2-9.4 4.8-18.3 10.5-25.7 3.5-4.6 7.1-7.8 10.6-9.6 4.1-2.1 7.8-2.1 11.8 0l.2.1c.4.2 2.4 1.6 3.7 5.1 1.5 3.8 2.3 11.2-2 23.9zm41.6-19.5c5.2-7.1 9.9-7.5 10.9-7.5 3.3 0 6.7 3.1 7 6.4.3 3.1-1.4 7-3.3 8.9-3.4 3.6-8.2 5.7-13.1 5.8-2.7.1-5-.4-6.9-.9 1.1-4.9 3-9.5 5.4-12.7zM311 64.7c5.5-17.4 14.8-39.2 21.3-45.4 2.1-2 4-3.9 6-4.1.3 0 .6-.1.9-.1 1.5 0 2 .5 2.3.8 1.9 1.8 2.3 6.5 2 8.7-2.7 26.1-27.5 62.8-41 81 .7-11.2 3.6-25.4 8.5-40.9zM347.7 86c4.1-5.5 8.4-8 10.9-8 3.2 0 6.6 3.4 7 6.8.3 3.1-1.4 7-3.3 8.9-3.4 3.6-8.2 5.7-13.1 5.8-2.8.1-5.3-.4-7.2-1 1.2-4.5 3.1-8.9 5.7-12.5zm9 43.5h.1-.1zm61.2-23c-.1.3-7.8 23.4-23.3 22h-.6c-.1 0-2.9-.1-4.9-2.3-1.8-1.9-2.7-5.1-2.7-9.4 0-1.4.1-2.9.3-4.6 1.1-8.5 4.4-16.6 9.6-23.4 3.2-4.2 6.4-7.1 9.6-8.7 3.6-1.8 7-1.8 10.5 0h-.1l.2.1c.4.2 2.1 1.4 3.2 4.5 1.5 3.6 2.2 10.3-1.8 21.8z"/>
</svg>
