<?xml version="1.0" encoding="utf-8"?>
<!-- Generator: Adobe Illustrator 21.0.2, SVG Export Plug-In . SVG Version: 6.00 Build 0)  -->
<svg version="1.1" id="Layer_1" xmlns="http://www.w3.org/2000/svg" xmlns:xlink="http://www.w3.org/1999/xlink" x="0px" y="0px"
	 viewBox="0 0 1920 1400" style="enable-background:new 0 0 1920 1400;" xml:space="preserve">
<style type="text/css">
	.st0{fill:#F1F1F2;}
	.st1{fill:#909190;}
	.st2{fill:#B3B3B4;}
	.st3{fill:#E1E0E0;}
	.st4{fill:#00AEC8;}
	.st5{fill:#028CA0;}
	.st6{fill:#D0D2D3;}
</style>
<g>
	<path class="st0" d="M80.3,19.3c0,19.4-15.5,35.9-37.5,42.5L7,81.2c-2.2,1.1-4.5-1.1-3.4-3.3l7.1-13.7c-27.4-3.9-48-22.5-48-44.7
		C-37.3-5.7-11-26,21.5-26S80.3-5.8,80.3,19.3z"/>
	<circle class="st1" cx="-3.1" cy="20.7" r="6.3"/>
	<circle class="st1" cx="21.7" cy="20.7" r="6.3"/>
	<circle class="st1" cx="46.4" cy="20.7" r="6.3"/>
</g>
<g>
	<path class="st0" d="M342.2,699.2c0,5.6-4.5,10.3-10.8,12.2l-10.3,5.6c-0.6,0.3-1.3-0.3-1-1l2.1-4c-7.9-1.1-13.8-6.5-13.8-12.9
		c0-7.2,7.6-13.1,16.9-13.1C334.7,686.1,342.2,692,342.2,699.2z"/>
	<circle class="st1" cx="318.2" cy="699.6" r="1.8"/>
	<circle class="st1" cx="325.3" cy="699.6" r="1.8"/>
	<circle class="st1" cx="332.5" cy="699.6" r="1.8"/>
</g>
<g>
	<path class="st0" d="M483.5,217.3c0,3.8-3.1,7.1-7.4,8.5l-7.1,3.8c-0.4,0.2-0.9-0.2-0.7-0.7l1.4-2.8c-5.5-0.8-9.5-4.5-9.5-8.9
		c0-5,5.2-9.1,11.7-9.1C478.3,208.2,483.5,212.3,483.5,217.3z"/>
	<circle class="st1" cx="466.9" cy="217.6" r="1.3"/>
	<circle class="st1" cx="471.8" cy="217.6" r="1.3"/>
	<circle class="st1" cx="476.8" cy="217.6" r="1.3"/>
</g>
<g>
	<path class="st0" d="M358.7,977.3c0,3.8-3.1,7.1-7.4,8.5l-7.1,3.8c-0.4,0.2-0.9-0.2-0.7-0.7l1.4-2.8c-5.5-0.8-9.5-4.5-9.5-8.9
		c0-5,5.2-9.1,11.7-9.1C353.5,968.3,358.7,972.3,358.7,977.3z"/>
	<circle class="st1" cx="342.1" cy="977.6" r="1.3"/>
	<circle class="st1" cx="347" cy="977.6" r="1.3"/>
	<circle class="st1" cx="352" cy="977.6" r="1.3"/>
</g>
<g>
	<path class="st0" d="M342.4,1256.9c0,3.8-3.1,7.1-7.4,8.5l-7.1,3.8c-0.4,0.2-0.9-0.2-0.7-0.7l1.4-2.8c-5.5-0.8-9.5-4.5-9.5-8.9
		c0-5,5.2-9.1,11.7-9.1C337.2,1247.9,342.4,1251.9,342.4,1256.9z"/>
	<circle class="st1" cx="325.8" cy="1257.2" r="1.3"/>
	<circle class="st1" cx="330.7" cy="1257.2" r="1.3"/>
	<circle class="st1" cx="335.7" cy="1257.2" r="1.3"/>
</g>
<g>
	<path class="st0" d="M129.9,77.9c0,3.8-3.1,7.1-7.4,8.5l-7.1,3.8c-0.4,0.2-0.9-0.2-0.7-0.7l1.4-2.8c-5.5-0.8-9.5-4.5-9.5-8.9
		c0-5,5.2-9.1,11.7-9.1C124.7,68.8,129.9,72.9,129.9,77.9z"/>
	<circle class="st1" cx="113.3" cy="78.2" r="1.3"/>
	<circle class="st1" cx="118.2" cy="78.2" r="1.3"/>
	<circle class="st1" cx="123.2" cy="78.2" r="1.3"/>
</g>
<g>
	<path class="st0" d="M53.3,215.3c0,3.8-3.1,7.1-7.4,8.5l-7.1,3.8c-0.4,0.2-0.9-0.2-0.7-0.7l1.4-2.8c-5.5-0.8-9.5-4.5-9.5-8.9
		c0-5,5.2-9.1,11.7-9.1C48.1,206.2,53.3,210.3,53.3,215.3z"/>
	<circle class="st1" cx="36.7" cy="215.6" r="1.3"/>
	<circle class="st1" cx="41.6" cy="215.6" r="1.3"/>
	<circle class="st1" cx="46.6" cy="215.6" r="1.3"/>
</g>
<g>
	<path class="st0" d="M314.3,511.9c0,3.8-3.1,7.1-7.4,8.5l-7.1,3.8c-0.4,0.2-0.9-0.2-0.7-0.7l1.4-2.8c-5.5-0.8-9.5-4.5-9.5-8.9
		c0-5,5.2-9.1,11.7-9.1C309.1,502.8,314.3,506.9,314.3,511.9z"/>
	<circle class="st1" cx="297.7" cy="512.2" r="1.3"/>
	<circle class="st1" cx="302.6" cy="512.2" r="1.3"/>
	<circle class="st1" cx="307.6" cy="512.2" r="1.3"/>
</g>
<g>
	<path class="st0" d="M467.7,19.1c0,3.8-3.1,7.1-7.4,8.5l-7.1,3.8c-0.4,0.2-0.9-0.2-0.7-0.7l1.4-2.8c-5.5-0.8-9.5-4.5-9.5-8.9
		c0-5,5.2-9.1,11.7-9.1C462.5,10,467.7,14.1,467.7,19.1z"/>
	<circle class="st1" cx="451.1" cy="19.4" r="1.3"/>
	<circle class="st1" cx="456" cy="19.4" r="1.3"/>
	<circle class="st1" cx="461" cy="19.4" r="1.3"/>
</g>
<g>
	<path class="st0" d="M130.8,959.4c0,19.4-15.5,35.9-37.5,42.5l-35.8,19.4c-2.2,1.1-4.5-1.1-3.4-3.3l7.1-13.7
		c-27.4-3.9-48-22.5-48-44.7c0-25.2,26.3-45.5,58.8-45.5S130.8,934.3,130.8,959.4z"/>
	<circle class="st1" cx="47.5" cy="960.8" r="6.3"/>
	<circle class="st1" cx="72.2" cy="960.8" r="6.3"/>
	<circle class="st1" cx="96.9" cy="960.8" r="6.3"/>
</g>
<g>
	<path class="st0" d="M75.6,559.7c0,19.4-15.5,35.9-37.5,42.5L2.3,621.6c-2.2,1.1-4.5-1.1-3.4-3.3L6,604.6
		c-27.4-3.9-48-22.5-48-44.7c0-25.2,26.3-45.5,58.8-45.5S75.6,534.6,75.6,559.7z"/>
	<circle class="st1" cx="-7.7" cy="561.1" r="6.3"/>
	<circle class="st1" cx="17" cy="561.1" r="6.3"/>
	<circle class="st1" cx="41.7" cy="561.1" r="6.3"/>
</g>
<g>
	<g>
		<path class="st2" d="M466,420.3c0.6-0.3,0.9-1.1,0.6-1.7l-5.8-11.6c-4.2-8.4-13.1-3.7-13.1-3.7c-9.1,4.5-4.9,12.9-4.9,12.9
			l8.3,16.7l3.5-1.7l-7.7-15.4c0,0-3.1-5.9,2.4-8.7c0,0,5.4-3.4,8.7,3.2l5,10.1c0.3,0.7,1.1,1,1.8,0.6L466,420.3z"/>
		<path class="st3" d="M444.3,414.6C444.3,414.7,444.3,414.7,444.3,414.6c-0.3,0.2-0.7,0-0.8-0.3c0-0.1-2.4-7.3,5.1-10.2
			c0.3-0.1,0.6,0,0.8,0.3c0.1,0.3,0,0.6-0.3,0.8c-6.5,2.4-4.5,8.4-4.4,8.7S444.5,414.5,444.3,414.6z"/>
	</g>
	<path class="st0" d="M464.6,411.3l-20.7,10.3c-0.3,0.2-0.4,0.6-0.3,0.9l6,12c0.2,0.3,0.5,0.4,0.9,0.3l20.7-10.3
		c0.3-0.2,0.4-0.5,0.3-0.9l-6-12C465.3,411.3,464.9,411.1,464.6,411.3z M457.7,422.5l1.2,2.5c0.2,0.3,0,0.6-0.3,0.8s-0.6,0-0.8-0.3
		l-1.2-2.5c-0.6,0.1-1.2-0.3-1.5-0.9c-0.3-0.8-0.1-1.7,0.7-2s1.7-0.1,2,0.7C458.2,421.5,458.2,422.1,457.7,422.5z"/>
</g>
<g>
	<g>
		<path class="st2" d="M166.1,596.5c0.6-0.3,0.9-1.1,0.6-1.7l-5.8-11.6c-4.2-8.4-13.1-3.7-13.1-3.7c-9.1,4.5-4.9,12.9-4.9,12.9
			l8.3,16.7l3.5-1.7L147,592c0,0-3.1-5.9,2.4-8.7c0,0,5.4-3.4,8.7,3.2l5,10.1c0.3,0.7,1.1,1,1.8,0.6L166.1,596.5z"/>
		<path class="st3" d="M144.4,590.7C144.4,590.8,144.4,590.8,144.4,590.7c-0.3,0.2-0.7,0-0.8-0.3c0-0.1-2.4-7.3,5.1-10.2
			c0.3-0.1,0.6,0,0.8,0.3c0.1,0.3,0,0.6-0.3,0.8c-6.5,2.4-4.5,8.4-4.4,8.7C144.9,590.3,144.7,590.7,144.4,590.7z"/>
	</g>
	<path class="st0" d="M164.7,587.4L144,597.7c-0.3,0.2-0.4,0.6-0.3,0.9l6,12c0.2,0.3,0.5,0.4,0.9,0.3l20.7-10.3
		c0.3-0.2,0.4-0.5,0.3-0.9l-6-12C165.4,587.4,165.1,587.3,164.7,587.4z M157.9,598.6l1.2,2.5c0.2,0.3,0,0.6-0.3,0.8s-0.6,0-0.8-0.3
		l-1.2-2.5c-0.6,0.1-1.2-0.3-1.5-0.9c-0.3-0.8-0.1-1.7,0.7-2s1.7-0.1,2,0.7C158.4,597.6,158.3,598.2,157.9,598.6z"/>
</g>
<g>
	<g>
		<path class="st2" d="M153,1251.5c0.6-0.3,0.9-1.1,0.6-1.7l-5.8-11.6c-4.2-8.4-13.1-3.7-13.1-3.7c-9.1,4.5-4.9,12.9-4.9,12.9
			l8.3,16.7l3.5-1.7l-7.7-15.4c0,0-3.1-5.9,2.4-8.7c0,0,5.4-3.4,8.7,3.2l5,10.1c0.3,0.7,1.1,1,1.8,0.6L153,1251.5z"/>
		<path class="st3" d="M131.3,1245.7C131.3,1245.8,131.3,1245.8,131.3,1245.7c-0.3,0.2-0.7,0-0.8-0.3c0-0.1-2.4-7.3,5.1-10.2
			c0.3-0.1,0.6,0,0.8,0.3c0.1,0.3,0,0.6-0.3,0.8c-6.5,2.4-4.5,8.4-4.4,8.7C131.8,1245.3,131.6,1245.7,131.3,1245.7z"/>
	</g>
	<path class="st0" d="M151.6,1242.4l-20.7,10.3c-0.3,0.2-0.4,0.6-0.3,0.9l6,12c0.2,0.3,0.5,0.4,0.9,0.3l20.7-10.3
		c0.3-0.2,0.4-0.5,0.3-0.9l-6-12C152.3,1242.4,152,1242.3,151.6,1242.4z M144.8,1253.6l1.2,2.5c0.2,0.3,0,0.6-0.3,0.8
		c-0.3,0.2-0.6,0-0.8-0.3l-1.2-2.5c-0.6,0.1-1.2-0.3-1.5-0.9c-0.3-0.8-0.1-1.7,0.7-2c0.8-0.3,1.7-0.1,2,0.7
		C145.3,1252.6,145.2,1253.2,144.8,1253.6z"/>
</g>
<g>
	<path class="st4" d="M281.4,255l-16.6-4.1c-0.8-0.1-1.3-0.8-1.4-1.5l-3.5-37.4c-0.1-1.2,0.9-2.1,2.1-1.9l15.5,3.1L281.4,255z"/>
	<polygon class="st0" points="281.1,252.2 265.7,248.3 262.4,213.1 277.8,216.3 	"/>
	<path class="st4" d="M311.2,249.4l-15.3-3.1l-3.9-41.8l16.3,3.2c0.8,0.1,1.3,0.8,1.4,1.5l3.6,38.2
		C313.4,248.7,312.4,249.7,311.2,249.4z"/>
	<polygon class="st5" points="295.9,246.4 281.4,255 277.5,213.1 292,204.5 	"/>
	<polygon class="st6" points="295.7,243.8 281.1,252.2 277.8,216.3 292.3,207.8 	"/>
	<polygon class="st0" points="310.9,246.6 295.7,243.7 292.3,207.8 307.7,210.8 	"/>
</g>
<g>
	<path class="st4" d="M12.9,171.3l-16.6-4.1c-0.8-0.1-1.3-0.8-1.4-1.5l-3.5-37.4c-0.1-1.2,0.9-2.1,2.1-1.9L9,129.5L12.9,171.3z"/>
	<polygon class="st0" points="12.6,168.5 -2.8,164.6 -6.1,129.4 9.3,132.6 	"/>
	<path class="st4" d="M42.7,165.7l-15.3-3.1l-3.9-41.8l16.3,3.2c0.8,0.1,1.3,0.8,1.4,1.5l3.6,38.2C44.9,165,43.9,166,42.7,165.7z"/>
	<polygon class="st5" points="27.4,162.7 12.9,171.3 9,129.4 23.5,120.8 	"/>
	<polygon class="st6" points="27.2,160.1 12.6,168.5 9.3,132.6 23.8,124.1 	"/>
	<polygon class="st0" points="42.4,162.9 27.2,160 23.8,124.1 39.2,127.1 	"/>
</g>
<g>
	<path class="st4" d="M254.7,64.9l-16.6-4.1c-0.8-0.1-1.3-0.8-1.4-1.5l-3.5-37.4c-0.1-1.2,0.9-2.1,2.1-1.9l15.5,3.1L254.7,64.9z"/>
	<polygon class="st0" points="254.4,62.1 239,58.2 235.7,23 251.1,26.2 	"/>
	<path class="st4" d="M284.5,59.3l-15.3-3.1l-3.9-41.8l16.3,3.2c0.8,0.1,1.3,0.8,1.4,1.5l3.6,38.2C286.7,58.6,285.7,59.6,284.5,59.3
		z"/>
	<polygon class="st5" points="269.2,56.3 254.7,64.9 250.8,23 265.3,14.4 	"/>
	<polygon class="st6" points="269,53.7 254.4,62.1 251.1,26.2 265.6,17.7 	"/>
	<polygon class="st0" points="284.2,56.5 269,53.6 265.6,17.7 281,20.7 	"/>
</g>
<g>
	<path class="st4" d="M145.5,1194.6l-36.4-8.9c-1.7-0.3-2.9-1.7-3.1-3.4l-7.6-82.2c-0.3-2.6,2.1-4.5,4.5-4.1l34.1,6.7L145.5,1194.6z
		"/>
	<polygon class="st0" points="144.9,1188.4 110.9,1180 103.6,1102.7 137.6,1109.7 	"/>
	<path class="st4" d="M210.9,1182.4l-33.6-6.7l-8.6-91.9l35.8,7.1c1.7,0.3,2.9,1.7,3.1,3.4l7.9,84
		C215.7,1180.9,213.5,1182.9,210.9,1182.4z"/>
	<polygon class="st5" points="177.3,1175.7 145.5,1194.6 136.8,1102.7 168.7,1083.8 	"/>
	<polygon class="st6" points="176.8,1170 144.9,1188.4 137.6,1109.7 169.4,1090.9 	"/>
	<polygon class="st0" points="210.2,1176.2 176.8,1169.9 169.4,1090.9 203.2,1097.5 	"/>
</g>
<g>
	<path class="st4" d="M163.2,715.3l-19.4-2.3c-0.9-0.1-1.6-0.7-1.8-1.6l-9.3-42c-0.3-1.3,0.7-2.5,2.1-2.4l18,1.3L163.2,715.3z"/>
	<polygon class="st0" points="162.6,712.1 144.4,710 135.7,670.5 153.7,672 	"/>
	<path class="st4" d="M196.3,704.8l-17.8-1.3l-10.4-46.9l19,1.4c0.9,0.1,1.6,0.7,1.8,1.6l9.5,42.9
		C198.7,703.7,197.6,704.9,196.3,704.8z"/>
	<polygon class="st5" points="178.5,703.5 163.2,715.3 152.9,668.3 168.1,656.6 	"/>
	<polygon class="st6" points="177.8,700.6 162.6,712.1 153.7,672 169,660.1 	"/>
	<polygon class="st0" points="195.5,701.6 177.8,700.5 169,660.1 186.8,661.4 	"/>
</g>
<g>
	<path class="st4" d="M4.5,452.3l-19.4-2.3c-0.9-0.1-1.6-0.7-1.8-1.6l-9.3-42c-0.3-1.3,0.7-2.5,2.1-2.4l18,1.3L4.5,452.3z"/>
	<polygon class="st0" points="3.9,449.1 -14.3,447 -23,407.5 -5,409 	"/>
	<path class="st4" d="M37.6,441.8l-17.8-1.3L9.4,393.6l19,1.4c0.9,0.1,1.6,0.7,1.8,1.6l9.5,42.9C40,440.7,38.9,441.9,37.6,441.8z"/>
	<polygon class="st5" points="19.8,440.5 4.5,452.3 -5.8,405.3 9.4,393.6 	"/>
	<polygon class="st6" points="19.1,437.6 3.9,449.1 -5,409 10.3,397.1 	"/>
	<polygon class="st0" points="36.8,438.6 19.1,437.5 10.3,397.1 28.1,398.4 	"/>
</g>
<g>
	<path class="st0" d="M154.1,400.5l-73.4,39.3c-1.4,0.8-2.9-0.9-2.1-2.2l23.6-38l1-1.7l-0.9-1.3l-24.1-36.7c-0.9-1.3,0.6-3,2-2.3
		l73.8,37.8C156,396.6,156.1,399.4,154.1,400.5z"/>
	<path class="st4" d="M136.8,398.1c0,0.8-1.1,3.1-3.6,3.1h-32l0.5-0.8c0.9-1.5,0.9-3.4-0.2-4.9l-0.5-0.7h32.7
		C135.8,395.2,136.8,397.4,136.8,398.1z"/>
</g>
<g>
	<path class="st0" d="M446.3,717.7l-25.8,13.8c-0.5,0.3-1-0.3-0.7-0.8l8.3-13.3l0.3-0.6l-0.3-0.4l-8.4-12.9c-0.3-0.4,0.2-1,0.7-0.8
		l25.9,13.3C447,716.3,447,717.3,446.3,717.7z"/>
	<path class="st4" d="M440.2,716.9c0,0.3-0.4,1.1-1.3,1.1h-11.2l0.2-0.3c0.3-0.5,0.3-1.2-0.1-1.7l-0.2-0.3h11.5
		C439.9,715.8,440.2,716.6,440.2,716.9z"/>
</g>
<g>
	<path class="st0" d="M249.8,143.7l-21.9-19.5c-0.4-0.4-0.1-1.1,0.5-0.9l15.4,3.2l0.7,0.1l0.3-0.5l9.2-12.3c0.3-0.5,1-0.2,1,0.4
		l-3.6,28.9C251.3,143.8,250.4,144.2,249.8,143.7z"/>
	<path class="st4" d="M248.5,137.7c-0.2,0.1-1.2,0-1.5-0.8l-3.9-10.5l0.3,0.1c0.6,0.1,1.2-0.2,1.5-0.7l0.2-0.3l4,10.8
		C249.4,137,248.7,137.6,248.5,137.7z"/>
</g>
<g>
	<path class="st0" d="M217.4,384.8l-21.9-19.5c-0.4-0.4-0.1-1.1,0.5-0.9l15.4,3.2l0.7,0.1l0.3-0.5l9.2-12.3c0.3-0.5,1-0.2,1,0.4
		l-3.6,28.9C218.9,384.9,218,385.3,217.4,384.8z"/>
	<path class="st4" d="M216.1,378.8c-0.2,0.1-1.2,0-1.5-0.8l-3.9-10.5l0.3,0.1c0.6,0.1,1.2-0.2,1.5-0.7l0.2-0.3l4,10.8
		C217,378.1,216.3,378.7,216.1,378.8z"/>
</g>
<g>
	<path class="st0" d="M90.9,671.5L69,652c-0.4-0.4-0.1-1.1,0.5-0.9l15.4,3.2l0.7,0.1l0.3-0.5l9.2-12.3c0.3-0.5,1-0.2,1,0.4
		l-3.6,28.9C92.4,671.6,91.5,672,90.9,671.5z"/>
	<path class="st4" d="M89.6,665.5c-0.2,0.1-1.2,0-1.5-0.8l-3.9-10.5l0.3,0.1c0.6,0.1,1.2-0.2,1.5-0.7l0.2-0.3l4,10.8
		C90.5,664.8,89.8,665.4,89.6,665.5z"/>
</g>
<g>
	<path class="st0" d="M411.7,97.7l-21.9-19.5c-0.4-0.4-0.1-1.1,0.5-0.9l15.4,3.2l0.7,0.1l0.3-0.5l9.2-12.3c0.3-0.5,1-0.2,1,0.4
		l-3.6,28.9C413.2,97.8,412.3,98.2,411.7,97.7z"/>
	<path class="st4" d="M410.4,91.7c-0.2,0.1-1.2,0-1.5-0.8L405,80.4l0.3,0.1c0.6,0.1,1.2-0.2,1.5-0.7l0.2-0.3l4,10.8
		C411.3,91,410.6,91.6,410.4,91.7z"/>
</g>
<g>
	<path class="st0" d="M138,223.1l-13.2,26.1c-0.3,0.5-1,0.4-1-0.2l-0.8-15.7l-0.1-0.7l-0.5-0.2l-14.3-5.7c-0.5-0.2-0.5-1,0.1-1
		l28.8-4C137.8,221.6,138.4,222.4,138,223.1z"/>
	<path class="st4" d="M132.6,225.9c0.1,0.2,0.3,1.2-0.4,1.7L123,234v-0.3c0-0.6-0.5-1.1-1-1.3l-0.3-0.1l9.4-6.6
		C131.7,225.3,132.4,225.7,132.6,225.9z"/>
</g>
<g>
	<path class="st0" d="M389.9,799.8l-13.2,26.1c-0.3,0.5-1,0.4-1-0.2l-0.8-15.7l-0.1-0.7l-0.5-0.2l-14.3-5.7c-0.5-0.2-0.5-1,0.1-1
		l28.8-4C389.7,798.3,390.3,799.1,389.9,799.8z"/>
	<path class="st4" d="M384.5,802.6c0.1,0.2,0.3,1.2-0.4,1.7l-9.2,6.4v-0.3c0-0.6-0.5-1.1-1-1.3l-0.3-0.1l9.4-6.6
		C383.6,802,384.3,802.4,384.5,802.6z"/>
</g>
<g>
	<path class="st0" d="M237.1,717.5l28.8,5.2c0.5,0.1,0.6,0.9,0.1,1l-14.8,5.3l-0.6,0.3l-0.1,0.5l-1.4,15.4c-0.1,0.5-0.8,0.7-1,0.2
		l-12-26.5C235.7,718.2,236.3,717.4,237.1,717.5z"/>
	<path class="st4" d="M241.2,721.9c0.2-0.3,1-0.6,1.7-0.1l8.8,6.9l-0.3,0.1c-0.6,0.2-1,0.8-1,1.4v0.3l-8.9-7.1
		C240.9,723,241,722.2,241.2,721.9z"/>
</g>
<g>
	<path class="st0" d="M166.1,874.1l28.8,5.2c0.5,0.1,0.6,0.9,0.1,1l-14.8,5.3l-0.6,0.3l-0.1,0.5l-1.4,15.4c-0.1,0.5-0.8,0.7-1,0.2
		l-12-26.5C164.7,874.8,165.3,874,166.1,874.1z"/>
	<path class="st4" d="M170.3,878.5c0.2-0.3,1-0.6,1.7-0.1l8.8,6.9l-0.3,0.1c-0.6,0.2-1,0.8-1,1.4v0.3l-8.9-7.1
		C169.9,879.5,170.1,878.7,170.3,878.5z"/>
</g>
<g>
	<path class="st0" d="M191.6,1330l28.8,5.2c0.5,0.1,0.6,0.9,0.1,1l-14.8,5.3l-0.6,0.3l-0.1,0.5l-1.4,15.4c-0.1,0.5-0.8,0.7-1,0.2
		l-12-26.5C190.2,1330.7,190.8,1329.9,191.6,1330z"/>
	<path class="st4" d="M195.8,1334.4c0.2-0.3,1-0.6,1.7-0.1l8.8,6.9l-0.3,0.1c-0.6,0.2-1,0.8-1,1.4v0.3l-8.9-7.1
		C195.4,1335.4,195.6,1334.6,195.8,1334.4z"/>
</g>
<g>
	<path class="st0" d="M369.7,1150.9l107.4,19.5c1.9,0.3,2.3,3.2,0.3,3.9l-55.2,19.8l-2.3,1l-0.3,1.9l-5.2,57.4
		c-0.3,1.9-2.9,2.6-3.9,0.6l-44.8-99C364.5,1153.5,366.7,1150.6,369.7,1150.9z"/>
	<path class="st4" d="M385.2,1167.5c0.6-1,3.9-2.3,6.2-0.3l32.8,26l-1.3,0.3c-2.3,0.6-3.6,2.9-3.9,5.2v1.3l-33.4-26.6
		C383.9,1171.4,384.6,1168.5,385.2,1167.5z"/>
</g>
<g>
	<path class="st0" d="M365.3,517.3l41.8,7.6c0.8,0.1,0.9,1.3,0.1,1.5l-21.5,7.7l-0.9,0.4l-0.1,0.8l-2,22.4c-0.1,0.8-1.1,1-1.5,0.3
		l-17.4-38.7C363.3,518.3,364.2,517.2,365.3,517.3z"/>
	<path class="st4" d="M371.4,523.7c0.3-0.4,1.5-0.9,2.4-0.1l12.8,10.1l-0.5,0.1c-0.9,0.3-1.4,1.1-1.5,2v0.5l-13-10.4
		C370.9,525.3,371.1,524.1,371.4,523.7z"/>
</g>
<g>
	<path class="st0" d="M346,136.9c-4.6,10.3-16.5,15.2-27,10.6c-10.5-4.6-15.2-16.5-10.6-27s16.5-15.2,27-10.6
		C345.8,114.5,350.4,126.6,346,136.9z"/>
	<path class="st4" d="M325.5,138.7l4.6-11.8l0.7,2.8c0.3,1,1.3,1.8,2.5,1.6c1.1-0.2,2-1.3,1.8-2.5l-2.3-10.8
		c-0.2-0.8-1.1-1.3-1.8-0.8l-9.3,5.9c-1.1,0.7-1.3,2.1-0.7,3.1c0.7,0.7,1.6,1,2.5,0.5l2.9-1.6l-4.9,12c-0.5,1.1,0,2.5,1.1,2.9l0,0
		C323.8,140.5,325,140,325.5,138.7z"/>
</g>
<g>
	<path class="st0" d="M345.2,19.6c-2.2-11.1,4.7-22,15.9-24.3s22,4.7,24.3,15.9s-4.7,22-15.9,24.3C358.3,37.8,347.6,30.6,345.2,19.6
		z"/>
	<path class="st4" d="M360.9,6.3l3.1,12.3l-2.1-1.9c-0.8-0.6-2.1-0.7-3,0.1c-0.8,0.8-0.8,2.2-0.1,3l8.1,7.5c0.6,0.6,1.7,0.4,1.9-0.4
		l4.2-10.2c0.6-1.2-0.2-2.5-1.3-2.9c-0.9-0.2-1.9,0.1-2.3,1l-1.5,3L365,5.2c-0.3-1.2-1.4-2-2.6-1.7l0,0
		C361.2,3.9,360.5,4.9,360.9,6.3z"/>
</g>
<g>
	<path class="st0" d="M102,874.7c-2.8,6.3-10.1,9.3-16.5,6.5s-9.3-10.1-6.5-16.5s10.1-9.3,16.5-6.5S104.7,868.4,102,874.7z"/>
	<path class="st4" d="M89.5,875.8l2.8-7.2l0.4,1.7c0.2,0.6,0.8,1.1,1.5,1s1.2-0.8,1.1-1.5l-1.4-6.6c-0.1-0.5-0.7-0.8-1.1-0.5
		l-5.7,3.6c-0.7,0.4-0.8,1.3-0.4,1.9c0.4,0.4,1,0.6,1.5,0.3l1.8-1l-3,7.3c-0.3,0.7,0,1.5,0.7,1.8l0,0
		C88.5,876.9,89.2,876.6,89.5,875.8z"/>
</g>
<g>
	<path class="st0" d="M98,1313c-2.8,6.3-10.1,9.3-16.5,6.5s-9.3-10.1-6.5-16.5s10.1-9.3,16.5-6.5S100.7,1306.7,98,1313z"/>
	<path class="st4" d="M85.5,1314.1l2.8-7.2l0.4,1.7c0.2,0.6,0.8,1.1,1.5,1s1.2-0.8,1.1-1.5l-1.4-6.6c-0.1-0.5-0.7-0.8-1.1-0.5
		l-5.7,3.6c-0.7,0.4-0.8,1.3-0.4,1.9c0.4,0.4,1,0.6,1.5,0.3l1.8-1l-3,7.3c-0.3,0.7,0,1.5,0.7,1.8l0,0
		C84.5,1315.2,85.2,1314.9,85.5,1314.1z"/>
</g>
<g>
	<path class="st0" d="M118.7,1049.4c-2.8,6.3-10.1,9.3-16.5,6.5c-6.3-2.8-9.3-10.1-6.5-16.5c2.8-6.3,10.1-9.3,16.5-6.5
		C118.5,1035.7,121.4,1043,118.7,1049.4z"/>
	<path class="st4" d="M106.2,1050.5l2.8-7.2l0.4,1.7c0.2,0.6,0.8,1.1,1.5,1s1.2-0.8,1.1-1.5l-1.4-6.6c-0.1-0.5-0.7-0.8-1.1-0.5
		l-5.7,3.6c-0.7,0.4-0.8,1.3-0.4,1.9c0.4,0.4,1,0.6,1.5,0.3l1.8-1l-3,7.3c-0.3,0.7,0,1.5,0.7,1.8l0,0
		C105.1,1051.6,105.9,1051.2,106.2,1050.5z"/>
</g>
<g>
	<path class="st0" d="M371.1,446.8c-2.8,6.3-10.1,9.3-16.5,6.5c-6.3-2.8-9.3-10.1-6.5-16.5c2.8-6.3,10.1-9.3,16.5-6.5
		C370.9,433.1,373.8,440.4,371.1,446.8z"/>
	<path class="st4" d="M358.6,447.9l2.8-7.2l0.4,1.7c0.2,0.6,0.8,1.1,1.5,1s1.2-0.8,1.1-1.5l-1.4-6.6c-0.1-0.5-0.7-0.8-1.1-0.5
		l-5.7,3.6c-0.7,0.4-0.8,1.3-0.4,1.9c0.4,0.4,1,0.6,1.5,0.3l1.8-1l-3,7.3c-0.3,0.7,0,1.5,0.7,1.8l0,0
		C357.5,449,358.3,448.6,358.6,447.9z"/>
</g>
<g>
	<path class="st0" d="M381.9,315.5c-2.8,6.3-10.1,9.3-16.5,6.5c-6.3-2.8-9.3-10.1-6.5-16.5c2.8-6.3,10.1-9.3,16.5-6.5
		C381.7,301.8,384.6,309.1,381.9,315.5z"/>
	<path class="st4" d="M369.4,316.6l2.8-7.2l0.4,1.7c0.2,0.6,0.8,1.1,1.5,1s1.2-0.8,1.1-1.5l-1.4-6.6c-0.1-0.5-0.7-0.8-1.1-0.5
		l-5.7,3.6c-0.7,0.4-0.8,1.3-0.4,1.9c0.4,0.4,1,0.6,1.5,0.3l1.8-1l-3,7.3c-0.3,0.7,0,1.5,0.7,1.8l0,0
		C368.3,317.7,369.1,317.3,369.4,316.6z"/>
</g>
<g>
	<path class="st0" d="M293.4,1069.8c7.1,7.9,6.4,20-1.5,27.1s-20,6.4-27.1-1.5s-6.4-20,1.5-27.1
		C274.2,1061.3,286.3,1061.9,293.4,1069.8z"/>
	<path class="st4" d="M287.1,1087.9l-8.2-8.6l2.7,0.6c1.1,0.2,2.1-0.4,2.3-1.5c0.3-1.1-0.4-2.2-1.5-2.5l-10-2.2
		c-0.8-0.2-1.6,0.4-1.6,1.3l1.4,10.2c0.1,1.2,1.3,2,2.4,1.7c0.8-0.3,1.5-1,1.5-1.9l-0.3-3.2l8.1,8.9c0.8,0.8,2.1,0.9,2.9,0.1l0,0
		C287.9,1090,287.9,1088.7,287.1,1087.9z"/>
</g>
<g>
	<path class="st0" d="M228.2,1236.9c7.1,7.9,6.4,20-1.5,27.1s-20,6.4-27.1-1.5s-6.4-20,1.5-27.1C209,1228.4,221.1,1229,228.2,1236.9
		z"/>
	<path class="st4" d="M221.9,1255l-8.2-8.6l2.7,0.6c1.1,0.2,2.1-0.4,2.3-1.5c0.3-1.1-0.4-2.2-1.5-2.5l-10-2.2
		c-0.8-0.2-1.6,0.4-1.6,1.3l1.4,10.2c0.1,1.2,1.3,2,2.4,1.7c0.8-0.3,1.5-1,1.5-1.9l-0.3-3.2l8.1,8.9c0.8,0.8,2.1,0.9,2.9,0.1l0,0
		C222.7,1257.1,222.7,1255.8,221.9,1255z"/>
</g>
<g>
	<path class="st0" d="M68.6,1085c15.9,17.8,14.5,45-3.3,61c-17.8,15.9-45,14.5-61-3.3c-15.9-17.8-14.5-45,3.3-61
		C25.4,1065.8,52.7,1067.2,68.6,1085z"/>
	<path class="st4" d="M54.4,1125.6l-18.5-19.3l6.1,1.3c2.4,0.4,4.7-1,5.3-3.4c0.7-2.4-0.9-5-3.3-5.7l-22.6-5c-1.8-0.4-3.7,1-3.6,2.8
		l3.1,23c0.1,2.7,2.8,4.5,5.4,3.8c1.8-0.6,3.3-2.3,3.3-4.3l-0.6-7.1l18.3,20c1.7,1.8,4.7,2,6.5,0.3l0,0
		C56.1,1130.5,56.1,1127.5,54.4,1125.6z"/>
</g>
<g>
	<path class="st0" d="M375.9,607.4c6.8,7.6,6.2,19.2-1.4,26.1c-7.6,6.8-19.2,6.2-26.1-1.4c-6.8-7.6-6.2-19.2,1.4-26.1
		C357.4,599.2,369.1,599.8,375.9,607.4z"/>
	<path class="st4" d="M369.8,624.8l-7.9-8.3l2.6,0.6c1,0.2,2-0.4,2.3-1.5c0.3-1-0.4-2.1-1.4-2.4l-9.7-2.1c-0.8-0.2-1.6,0.4-1.5,1.2
		l1.3,9.8c0,1.2,1.2,1.9,2.3,1.6c0.8-0.3,1.4-1,1.4-1.8l-0.3-3l7.8,8.6c0.7,0.8,2,0.9,2.8,0.1l0,0
		C370.6,626.9,370.6,625.6,369.8,624.8z"/>
</g>
<g>
	<path class="st4" d="M58.8,738.7c2.8-1.4,4-4.8,2.6-7.6l-14.1-29.8C29.9,664.6-9.3,684-9.3,684c-39.9,18.9-22.2,55.1-22.2,55.1
		l34.6,73.1l15.2-7.1l-31.9-67.3c0,0-13-25.8,11.3-37.3c0,0,23.6-14.1,37.2,14.7l10.8,23.5c1.4,2.9,4.9,4.1,7.8,2.7L58.8,738.7z"/>
	<path class="st0" d="M81.2,756.3l-90.6,42.9c-1.5,0.7-2.1,2.4-1.4,3.8L14,855.5c0.7,1.4,2.3,2.1,3.8,1.4l90.6-42.9
		c1.4-0.7,2.1-2.3,1.4-3.8L85,757.7C84.4,756.3,82.6,755.6,81.2,756.3z M50.4,804.3l5.3,11c0.6,1.2,0.1,2.7-1.1,3.3
		c-1.2,0.6-2.7,0.1-3.3-1.1l-5.2-10.9c-2.6,0.3-5.3-1.1-6.5-3.8c-1.6-3.3-0.2-7.2,3.1-8.8s7.2-0.2,8.8,3.1
		C52.7,799.5,52.1,802.4,50.4,804.3z"/>
	<path class="st3" d="M-25,733.8c-0.1,0.1-0.3,0.1-0.3,0.2c-1.4,0.4-2.8-0.3-3.3-1.6c-0.1-0.3-10-32.3,23.5-44.1
		c1.4-0.5,2.8,0.3,3.3,1.6s-0.3,2.8-1.6,3.3c-28.8,10.1-20.7,36.5-20.3,37.6C-23.2,731.9-23.9,733.1-25,733.8z"/>
</g>
<g>
	<path class="st4" d="M305.7,399.6c1.8,0.6,3.8-0.5,4.4-2.3l6.2-19.4c7.7-23.9-18.1-31.7-18.1-31.7c-25.9-8.3-33.3,15.4-33.3,15.4
		l-15.4,47.5l9.8,3.2l14.1-43.7c0,0,5.1-17.1,20.8-12c0,0,16.6,3.6,10.5,22.4l-5.1,15.1c-0.6,1.9,0.4,3.9,2.3,4.5L305.7,399.6z"/>
	<path class="st0" d="M308.4,416.9l-58.8-19c-0.9-0.3-2,0.2-2.2,1.1l-11,34.1c-0.3,0.9,0.2,1.9,1.1,2.2l58.8,19
		c0.9,0.3,1.9-0.2,2.2-1.1l11-34.1C309.8,418.3,309.3,417.2,308.4,416.9z M274.3,425.5l-2.3,7.2c-0.3,0.8-1.1,1.3-1.9,1
		s-1.3-1.1-1-1.9l2.3-7.1c-1.3-1-1.9-2.7-1.3-4.4c0.7-2.1,2.9-3.3,5.1-2.6c2.1,0.7,3.3,2.9,2.6,5.1
		C277.3,424.3,275.9,425.3,274.3,425.5z"/>
	<path class="st3" d="M270.3,361.9c-0.1,0-0.1-0.1-0.2-0.1c-0.8-0.4-1.1-1.3-0.8-2.1c0.1-0.2,9.1-18.7,29.2-9.8
		c0.8,0.4,1.2,1.3,0.8,2.1c-0.4,0.8-1.3,1.1-2.1,0.8c-17.2-7.6-24.7,7.6-25,8.3C271.9,361.8,271,362.2,270.3,361.9z"/>
</g>
<g>
	<path class="st4" d="M193.8,267.2c1.1-0.5,1.6-1.9,1-3l-5.6-11.7c-6.8-14.4-22.2-6.8-22.2-6.8c-15.6,7.4-8.7,21.5-8.7,21.5
		l13.6,28.7l5.9-2.8l-12.5-26.4c0,0-5.1-10.1,4.4-14.6c0,0,9.2-5.6,14.6,5.7l4.3,9.2c0.5,1.1,1.9,1.7,3,1L193.8,267.2z"/>
	<path class="st0" d="M202.6,274l-35.4,16.8c-0.5,0.3-0.8,1-0.5,1.5l9.7,20.6c0.3,0.5,1,0.8,1.5,0.5l35.4-16.8
		c0.5-0.3,0.8-1,0.5-1.5l-9.7-20.6C203.9,273.9,203.2,273.8,202.6,274z M190.6,292.8l2,4.3c0.3,0.5,0,1-0.4,1.3
		c-0.5,0.3-1,0-1.3-0.4l-2-4.3c-1,0.1-2.1-0.4-2.5-1.5c-0.6-1.3-0.1-2.9,1.2-3.5s2.9-0.1,3.5,1.2C191.5,291,191.2,292,190.6,292.8z"
		/>
	<path class="st3" d="M161.1,265.2C161.1,265.2,161,265.2,161.1,265.2c-0.6,0.3-1.2,0-1.4-0.5c0-0.1-3.9-12.6,9.2-17.3
		c0.5-0.2,1.1,0.1,1.3,0.6s-0.1,1.1-0.6,1.3c-11.3,4-8.1,14.2-8,14.8C161.8,264.4,161.5,264.9,161.1,265.2z"/>
</g>
<g>
	<path class="st4" d="M259.3,619c1.1-0.5,1.6-1.9,1-3l-5.6-11.7c-6.8-14.4-22.2-6.8-22.2-6.8c-15.6,7.4-8.7,21.5-8.7,21.5l13.6,28.7
		l5.9-2.8l-12.5-26.4c0,0-5.1-10.1,4.4-14.6c0,0,9.2-5.6,14.6,5.7l4.3,9.2c0.5,1.1,1.9,1.7,3,1L259.3,619z"/>
	<path class="st0" d="M268.1,625.8l-35.4,16.8c-0.5,0.3-0.8,1-0.5,1.5l9.7,20.6c0.3,0.5,1,0.8,1.5,0.5l35.4-16.8
		c0.5-0.3,0.8-1,0.5-1.5l-9.7-20.6C269.4,625.7,268.7,625.6,268.1,625.8z M256.1,644.6l2,4.3c0.3,0.5,0,1-0.4,1.3
		c-0.5,0.3-1,0-1.3-0.4l-2-4.3c-1,0.1-2.1-0.4-2.5-1.5c-0.6-1.3-0.1-2.9,1.2-3.5s2.9-0.1,3.5,1.2C257,642.8,256.7,643.8,256.1,644.6
		z"/>
	<path class="st3" d="M226.6,617C226.6,617,226.5,617,226.6,617c-0.6,0.3-1.2,0-1.4-0.5c0-0.1-3.9-12.6,9.2-17.3
		c0.5-0.2,1.1,0.1,1.3,0.6s-0.1,1.1-0.6,1.3c-11.3,4-8.1,14.2-8,14.8C227.3,616.2,227,616.7,226.6,617z"/>
</g>
<path class="st0" d="M240.8,511h-3.2c0-1.8-0.3-3.6-0.6-5.2l3.4-0.8c0.3-0.1,0.6-0.4,0.5-0.9c-1-3.6-2.6-6.9-5-9.7
	c-0.3-0.3-0.7-0.3-1-0.1l-2.7,2.3c-1.1-1.3-2.4-2.5-3.8-3.6l2.1-2.8c0.3-0.3,0.2-0.8-0.2-1c-3-2.1-6.4-3.6-10.1-4.3
	c-0.3-0.1-0.8,0.2-0.8,0.6l-0.6,3.4c-1.2-0.2-2.5-0.3-3.8-0.3c-0.4,0-1,0-1.4,0.1l-0.2-3.5c0-0.3-0.3-0.7-0.8-0.7
	c-3.6,0.3-7.2,1.4-10.4,3.1c-0.3,0.2-0.4,0.6-0.3,1l1.7,3c-1.5,0.9-3,1.9-4.2,3.1l-2.3-2.5c-0.3-0.3-0.7-0.3-1,0
	c-2.6,2.6-4.7,5.7-6,9.1c-0.2,0.3,0.1,0.8,0.4,0.9l3.3,1.2c-0.6,1.7-1,3.3-1.2,5.1l-3.4-0.3c-0.4-0.1-0.8,0.3-0.8,0.7
	c0,2.2,0.4,7.8,1.2,10.7c0.1,0.4,0.5,0.6,1,0.4c1.1-0.4,3.2-1.2,3.2-1.2c0.6,1.7,1.4,3.2,2.3,4.7l-2.9,1.9c-0.3,0.3-0.4,0.7-0.2,1
	c2.1,3,4.9,5.6,8,7.5c0.3,0.2,0.8,0.1,1-0.3l1.7-3c1.5,0.9,3.1,1.6,4.8,2.1l-1,3.3c-0.1,0.3,0.1,0.8,0.5,0.9c2.3,0.6,4.6,1,6.9,1
	c1.3,0,2.7-0.1,4-0.3c0.3-0.1,0.6-0.4,0.6-0.8l-0.6-3.4c1.7-0.3,3.4-0.8,5-1.5l1.4,3.2c0.2,0.3,0.6,0.5,1,0.3
	c3.3-1.6,6.3-3.8,8.8-6.5c0.3-0.3,0.3-0.8-0.1-1l-2.7-2.3c1.1-1.3,2.1-2.8,2.9-4.3l3.1,1.6c0.3,0.2,0.7,0.1,0.9-0.3
	c2-3,2.4-8.4,2.5-10.6C241.7,511.4,241.2,511,240.8,511z M215,521.5c-5.7,0-10.4-4.7-10.4-10.3c0-5.7,4.7-10.4,10.4-10.4
	s10.4,4.7,10.4,10.4C225.4,516.9,220.8,521.5,215,521.5z"/>
<path class="st0" d="M203.1,171.1h-3.2c0-1.8-0.3-3.6-0.6-5.2l3.4-0.8c0.3-0.1,0.6-0.4,0.5-0.9c-1-3.6-2.6-6.9-5-9.7
	c-0.3-0.3-0.7-0.3-1-0.1l-2.7,2.3c-1.1-1.3-2.4-2.5-3.8-3.6l2.1-2.8c0.3-0.3,0.2-0.8-0.2-1c-3-2.1-6.4-3.6-10.1-4.3
	c-0.3-0.1-0.8,0.2-0.8,0.6l-0.6,3.4c-1.2-0.2-2.5-0.3-3.8-0.3c-0.4,0-1,0-1.4,0.1l-0.2-3.5c0-0.3-0.3-0.7-0.8-0.7
	c-3.6,0.3-7.2,1.4-10.4,3.1c-0.3,0.2-0.4,0.6-0.3,1l1.7,3c-1.5,0.9-3,1.9-4.2,3.1l-2.3-2.5c-0.3-0.3-0.7-0.3-1,0
	c-2.6,2.6-4.7,5.7-6,9.1c-0.2,0.3,0.1,0.8,0.4,0.9l3.3,1.2c-0.6,1.7-1,3.3-1.2,5.1l-3.4-0.3c-0.4-0.1-0.8,0.3-0.8,0.7
	c0,2.2,0.4,7.8,1.2,10.7c0.1,0.4,0.5,0.6,1,0.4c1.1-0.4,3.2-1.2,3.2-1.2c0.6,1.7,1.4,3.2,2.3,4.7l-2.9,1.9c-0.3,0.3-0.4,0.7-0.2,1
	c2.1,3,4.9,5.6,8,7.5c0.3,0.2,0.8,0.1,1-0.3l1.7-3c1.5,0.9,3.1,1.6,4.8,2.1l-1,3.3c-0.1,0.3,0.1,0.8,0.5,0.9c2.3,0.6,4.6,1,6.9,1
	c1.3,0,2.7-0.1,4-0.3c0.3-0.1,0.6-0.4,0.6-0.8l-0.6-3.4c1.7-0.3,3.4-0.8,5-1.5l1.4,3.2c0.2,0.3,0.6,0.5,1,0.3
	c3.3-1.6,6.3-3.8,8.8-6.5c0.3-0.3,0.3-0.8-0.1-1l-2.7-2.3c1.1-1.3,2.1-2.8,2.9-4.3l3.1,1.6c0.3,0.2,0.7,0.1,0.9-0.3
	c2-3,2.4-8.4,2.5-10.6C204,171.5,203.5,171.1,203.1,171.1z M177.3,181.6c-5.7,0-10.4-4.7-10.4-10.3c0-5.7,4.7-10.4,10.4-10.4
	s10.4,4.7,10.4,10.4S183.1,181.6,177.3,181.6z"/>
<path class="st0" d="M225.2,793.9h-4.3c0-2.3-0.3-4.7-0.9-6.9l4.5-1c0.5-0.1,0.8-0.6,0.7-1.1c-1.3-4.7-3.6-9.1-6.6-13
	c-0.3-0.4-1-0.4-1.3-0.1l-3.6,3c-1.5-1.7-3.2-3.4-5-4.8l2.8-3.7c0.3-0.4,0.3-1-0.2-1.3c-4-2.8-8.6-4.8-13.4-5.7
	c-0.5-0.1-1,0.3-1.1,0.8l-0.8,4.5c-1.7-0.3-3.4-0.4-5.1-0.4c-0.6,0-1.2,0-1.8,0.1l-0.3-4.6c0-0.5-0.5-1-1-0.9
	c-4.9,0.4-9.6,1.9-13.9,4.2c-0.4,0.3-0.6,0.9-0.3,1.3l2.3,4c-2,1.2-3.9,2.6-5.6,4.2l-3.2-3.4c-0.3-0.3-1-0.4-1.3,0
	c-3.5,3.5-6.2,7.6-8,12.2c-0.2,0.5,0.1,1,0.5,1.2l4.3,1.6c-0.8,2.2-1.3,4.4-1.6,6.8l-4.5-0.5c-0.5-0.1-1,0.3-1,1
	c0.1,2.9,0.6,10.4,1.7,14.2c0.2,0.5,0.7,0.8,1.2,0.6c1.5-0.5,4.3-1.6,4.3-1.6c0.8,2.2,1.9,4.3,3.1,6.2l-3.8,2.5
	c-0.4,0.3-0.5,0.9-0.3,1.3c2.8,4,6.4,7.4,10.6,10c0.4,0.3,1,0.1,1.3-0.3l2.3-4c2,1.1,4.2,2.1,6.4,2.8l-1.3,4.4
	c-0.2,0.5,0.2,1,0.6,1.1c3,0.8,6.1,1.2,9.2,1.2c1.7,0,3.6-0.1,5.3-0.4c0.5-0.1,0.9-0.6,0.8-1l-0.8-4.5c2.3-0.4,4.6-1,6.7-2l1.8,4.3
	c0.2,0.4,0.8,0.7,1.2,0.5c4.4-2.1,8.4-5,11.6-8.7c0.3-0.4,0.3-1-0.1-1.3l-3.6-3c1.5-1.8,2.8-3.7,3.8-5.8l4.1,2.1
	c0.4,0.2,1,0.1,1.2-0.3c2.7-4.1,3.3-11.2,3.4-14.1C226.4,794.4,225.9,793.9,225.2,793.9z M191,807.9c-7.6,0-13.8-6.2-13.8-13.8
	s6.2-13.8,13.8-13.8s13.8,6.2,13.8,13.8S198.6,807.9,191,807.9z"/>
<path class="st0" d="M496.4,630.5h-1.9c0-1-0.2-2.1-0.3-3l2-0.4c0.3-0.1,0.3-0.3,0.3-0.5c-0.5-2.1-1.6-4.1-3-5.8
	c-0.2-0.2-0.4-0.2-0.6-0.1l-1.6,1.3c-0.7-0.8-1.4-1.5-2.3-2.1l1.2-1.7c0.2-0.2,0.1-0.4-0.1-0.6c-1.8-1.2-3.8-2.1-5.9-2.5
	c-0.3,0-0.4,0.1-0.5,0.3l-0.3,2c-0.7-0.1-1.5-0.2-2.3-0.2c-0.3,0-0.5,0-0.8,0l-0.1-2.1c0-0.3-0.2-0.4-0.4-0.3
	c-2.2,0.2-4.3,0.9-6.2,1.9c-0.2,0.1-0.3,0.3-0.2,0.6l1,1.7c-0.9,0.5-1.7,1.1-2.4,1.8l-1.4-1.5c-0.2-0.2-0.4-0.2-0.6,0
	c-1.6,1.6-2.8,3.4-3.6,5.4c-0.1,0.2,0,0.4,0.3,0.5l1.9,0.7c-0.3,1-0.6,2-0.7,3l-2-0.3c-0.3,0-0.4,0.2-0.4,0.4c0,1.3,0.3,4.6,0.7,6.3
	c0.1,0.3,0.3,0.3,0.5,0.3c0.7-0.3,1.9-0.7,1.9-0.7c0.3,1,0.9,1.9,1.4,2.8l-1.7,1.1c-0.2,0.2-0.3,0.4-0.1,0.6
	c1.2,1.7,2.9,3.3,4.7,4.4c0.2,0.1,0.4,0.1,0.6-0.2l1-1.7c0.9,0.5,1.8,1,2.9,1.2l-0.6,2c-0.1,0.3,0.1,0.4,0.3,0.5
	c1.3,0.3,2.7,0.5,4.1,0.5c0.8,0,1.6-0.1,2.3-0.2c0.3,0,0.3-0.3,0.3-0.5l-0.3-2c1-0.2,2-0.5,3-0.9l0.8,1.9c0.1,0.2,0.3,0.3,0.5,0.2
	c2-1,3.7-2.3,5.2-3.8c0.2-0.2,0.2-0.4-0.1-0.6l-1.6-1.3c0.7-0.8,1.2-1.7,1.7-2.6l1.8,1c0.2,0.1,0.4,0,0.5-0.2c1.2-1.8,1.5-5,1.5-6.3
	C496.9,630.8,496.7,630.5,496.4,630.5z M481.1,636.8c-3.4,0-6.2-2.8-6.2-6.2s2.8-6.2,6.2-6.2c3.4,0,6.2,2.8,6.2,6.2
	S484.6,636.8,481.1,636.8z"/>
<path class="st0" d="M81.1,1221.4h-1.9c0-1-0.2-2.1-0.3-3l2-0.4c0.3-0.1,0.3-0.3,0.3-0.5c-0.5-2.1-1.6-4.1-3-5.8
	c-0.2-0.2-0.4-0.2-0.6-0.1l-1.6,1.3c-0.7-0.8-1.4-1.5-2.3-2.1l1.2-1.7c0.2-0.2,0.1-0.4-0.1-0.6c-1.8-1.2-3.8-2.1-5.9-2.5
	c-0.3,0-0.4,0.1-0.5,0.3l-0.3,2c-0.7-0.1-1.5-0.2-2.3-0.2c-0.3,0-0.5,0-0.8,0l-0.1-2.1c0-0.3-0.2-0.4-0.4-0.3
	c-2.2,0.2-4.3,0.9-6.2,1.9c-0.2,0.1-0.3,0.3-0.2,0.6l1,1.7c-0.9,0.5-1.7,1.1-2.4,1.8l-1.4-1.5c-0.2-0.2-0.4-0.2-0.6,0
	c-1.6,1.6-2.8,3.4-3.6,5.4c-0.1,0.2,0,0.4,0.3,0.5l1.9,0.7c-0.3,1-0.6,2-0.7,3l-2-0.3c-0.3,0-0.4,0.2-0.4,0.4c0,1.3,0.3,4.6,0.7,6.3
	c0.1,0.3,0.3,0.3,0.5,0.3c0.7-0.3,1.9-0.7,1.9-0.7c0.3,1,0.9,1.9,1.4,2.8l-1.7,1.1c-0.2,0.2-0.3,0.4-0.1,0.6
	c1.2,1.7,2.9,3.3,4.7,4.4c0.2,0.1,0.4,0.1,0.6-0.2l1-1.7c0.9,0.5,1.8,1,2.9,1.2l-0.6,2c-0.1,0.3,0.1,0.4,0.3,0.5
	c1.3,0.3,2.7,0.5,4.1,0.5c0.8,0,1.6-0.1,2.3-0.2c0.3,0,0.3-0.3,0.3-0.5l-0.3-2c1-0.2,2-0.5,3-0.9l0.8,1.9c0.1,0.2,0.3,0.3,0.5,0.2
	c2-1,3.7-2.3,5.2-3.8c0.2-0.2,0.2-0.4-0.1-0.6l-1.6-1.3c0.7-0.8,1.2-1.7,1.7-2.6l1.8,1c0.2,0.1,0.4,0,0.5-0.2c1.2-1.8,1.5-5,1.5-6.3
	C81.6,1221.7,81.3,1221.4,81.1,1221.4z M65.8,1227.7c-3.4,0-6.2-2.8-6.2-6.2c0-3.4,2.8-6.2,6.2-6.2s6.2,2.8,6.2,6.2
	S69.3,1227.7,65.8,1227.7z"/>
<path class="st0" d="M374.8,894.6h-1.9c0-1-0.2-2.1-0.3-3l2-0.4c0.3-0.1,0.3-0.3,0.3-0.5c-0.5-2.1-1.6-4.1-3-5.8
	c-0.2-0.2-0.4-0.2-0.6-0.1l-1.6,1.3c-0.7-0.8-1.4-1.5-2.3-2.1l1.2-1.7c0.2-0.2,0.1-0.4-0.1-0.6c-1.8-1.2-3.8-2.1-5.9-2.5
	c-0.3,0-0.4,0.1-0.5,0.3l-0.3,2c-0.7-0.1-1.5-0.2-2.3-0.2c-0.3,0-0.5,0-0.8,0l-0.1-2.1c0-0.3-0.2-0.4-0.4-0.3
	c-2.2,0.2-4.3,0.9-6.2,1.9c-0.2,0.1-0.3,0.3-0.2,0.6l1,1.7c-0.9,0.5-1.7,1.1-2.4,1.8l-1.4-1.5c-0.2-0.2-0.4-0.2-0.6,0
	c-1.6,1.6-2.8,3.4-3.6,5.4c-0.1,0.2,0,0.4,0.3,0.5l1.9,0.7c-0.3,1-0.6,2-0.7,3l-2-0.3c-0.3,0-0.4,0.2-0.4,0.4c0,1.3,0.3,4.6,0.7,6.3
	c0.1,0.3,0.3,0.3,0.5,0.3c0.7-0.3,1.9-0.7,1.9-0.7c0.3,1,0.9,1.9,1.4,2.8l-1.7,1.1c-0.2,0.2-0.3,0.4-0.1,0.6
	c1.2,1.7,2.9,3.3,4.7,4.4c0.2,0.1,0.4,0.1,0.6-0.2l1-1.7c0.9,0.5,1.8,1,2.9,1.2l-0.6,2c-0.1,0.3,0.1,0.4,0.3,0.5
	c1.3,0.3,2.7,0.5,4.1,0.5c0.8,0,1.6-0.1,2.3-0.2c0.3,0,0.3-0.3,0.3-0.5l-0.3-2c1-0.2,2-0.5,3-0.9l0.8,1.9c0.1,0.2,0.3,0.3,0.5,0.2
	c2-1,3.7-2.3,5.2-3.8c0.2-0.2,0.2-0.4-0.1-0.6l-1.6-1.3c0.7-0.8,1.2-1.7,1.7-2.6l1.8,1c0.2,0.1,0.4,0,0.5-0.2c1.2-1.8,1.5-5,1.5-6.3
	C375.4,894.8,375.1,894.6,374.8,894.6z M359.5,900.8c-3.4,0-6.2-2.8-6.2-6.2s2.8-6.2,6.2-6.2s6.2,2.8,6.2,6.2
	C365.7,898.1,363,900.8,359.5,900.8z"/>
<path class="st0" d="M298.3,1181.4h-1.9c0-1-0.2-2.1-0.3-3l2-0.4c0.3-0.1,0.3-0.3,0.3-0.5c-0.5-2.1-1.6-4.1-3-5.8
	c-0.2-0.2-0.4-0.2-0.6-0.1l-1.6,1.3c-0.7-0.8-1.4-1.5-2.3-2.1l1.2-1.7c0.2-0.2,0.1-0.4-0.1-0.6c-1.8-1.2-3.8-2.1-5.9-2.5
	c-0.3,0-0.4,0.1-0.5,0.3l-0.3,2c-0.7-0.1-1.5-0.2-2.3-0.2c-0.3,0-0.5,0-0.8,0l-0.1-2.1c0-0.3-0.2-0.4-0.4-0.3
	c-2.2,0.2-4.3,0.9-6.2,1.9c-0.2,0.1-0.3,0.3-0.2,0.6l1,1.7c-0.9,0.5-1.7,1.1-2.4,1.8l-1.4-1.5c-0.2-0.2-0.4-0.2-0.6,0
	c-1.6,1.6-2.8,3.4-3.6,5.4c-0.1,0.2,0,0.4,0.3,0.5l1.9,0.7c-0.3,1-0.6,2-0.7,3l-2-0.3c-0.3,0-0.4,0.2-0.4,0.4c0,1.3,0.3,4.6,0.7,6.3
	c0.1,0.3,0.3,0.3,0.5,0.3c0.7-0.3,1.9-0.7,1.9-0.7c0.3,1,0.9,1.9,1.4,2.8l-1.7,1.1c-0.2,0.2-0.3,0.4-0.1,0.6
	c1.2,1.7,2.9,3.3,4.7,4.4c0.2,0.1,0.4,0.1,0.6-0.2l1-1.7c0.9,0.5,1.8,1,2.9,1.2l-0.6,2c-0.1,0.3,0.1,0.4,0.3,0.5
	c1.3,0.3,2.7,0.5,4.1,0.5c0.8,0,1.6-0.1,2.3-0.2c0.3,0,0.3-0.3,0.3-0.5l-0.3-2c1-0.2,2-0.5,3-0.9l0.8,1.9c0.1,0.2,0.3,0.3,0.5,0.2
	c2-1,3.7-2.3,5.2-3.8c0.2-0.2,0.2-0.4-0.1-0.6l-1.6-1.3c0.7-0.8,1.2-1.7,1.7-2.6l1.8,1c0.2,0.1,0.4,0,0.5-0.2c1.2-1.8,1.5-5,1.5-6.3
	C298.8,1181.7,298.5,1181.4,298.3,1181.4z M283,1187.7c-3.4,0-6.2-2.8-6.2-6.2c0-3.4,2.8-6.2,6.2-6.2s6.2,2.8,6.2,6.2
	S286.5,1187.7,283,1187.7z"/>
<path class="st0" d="M197.5,1022.7h-1.9c0-1-0.2-2.1-0.3-3l2-0.4c0.3-0.1,0.3-0.3,0.3-0.5c-0.5-2.1-1.6-4.1-3-5.8
	c-0.2-0.2-0.4-0.2-0.6-0.1l-1.6,1.3c-0.7-0.8-1.4-1.5-2.3-2.1l1.2-1.7c0.2-0.2,0.1-0.4-0.1-0.6c-1.8-1.2-3.8-2.1-5.9-2.5
	c-0.3,0-0.4,0.1-0.5,0.3l-0.3,2c-0.7-0.1-1.5-0.2-2.3-0.2c-0.3,0-0.5,0-0.8,0l-0.1-2.1c0-0.3-0.2-0.4-0.4-0.3
	c-2.2,0.2-4.3,0.9-6.2,1.9c-0.2,0.1-0.3,0.3-0.2,0.6l1,1.7c-0.9,0.5-1.7,1.1-2.4,1.8l-1.4-1.5c-0.2-0.2-0.4-0.2-0.6,0
	c-1.6,1.6-2.8,3.4-3.6,5.4c-0.1,0.2,0,0.4,0.3,0.5l1.9,0.7c-0.3,1-0.6,2-0.7,3l-2-0.3c-0.3,0-0.4,0.2-0.4,0.4c0,1.3,0.3,4.6,0.7,6.3
	c0.1,0.3,0.3,0.3,0.5,0.3c0.7-0.3,1.9-0.7,1.9-0.7c0.3,1,0.9,1.9,1.4,2.8l-1.7,1.1c-0.2,0.2-0.3,0.4-0.1,0.6
	c1.2,1.7,2.9,3.3,4.7,4.4c0.2,0.1,0.4,0.1,0.6-0.2l1-1.7c0.9,0.5,1.8,1,2.9,1.2l-0.6,2c-0.1,0.3,0.1,0.4,0.3,0.5
	c1.3,0.3,2.7,0.5,4.1,0.5c0.8,0,1.6-0.1,2.3-0.2c0.3,0,0.3-0.3,0.3-0.5l-0.3-2c1-0.2,2-0.5,3-0.9l0.8,1.9c0.1,0.2,0.3,0.3,0.5,0.2
	c2-1,3.7-2.3,5.2-3.8c0.2-0.2,0.2-0.4-0.1-0.6l-1.6-1.3c0.7-0.8,1.2-1.7,1.7-2.6l1.8,1c0.2,0.1,0.4,0,0.5-0.2c1.2-1.8,1.5-5,1.5-6.3
	C198.1,1022.9,197.8,1022.7,197.5,1022.7z M182.3,1028.9c-3.4,0-6.2-2.8-6.2-6.2c0-3.4,2.8-6.2,6.2-6.2s6.2,2.8,6.2,6.2
	C188.5,1026.1,185.7,1028.9,182.3,1028.9z"/>
<path class="st0" d="M295.1,943.3h-5.4c0-2.9-0.4-5.8-1.1-8.6l5.6-1.3c0.6-0.1,1-0.8,0.9-1.4c-1.5-5.8-4.3-11.3-8.2-16.1
	c-0.4-0.5-1.1-0.5-1.6-0.1l-4.3,3.7c-1.9-2.2-3.9-4.1-6.3-5.9l3.4-4.6c0.4-0.5,0.3-1.3-0.3-1.6c-5-3.5-10.6-5.9-16.5-7.1
	c-0.6-0.1-1.3,0.3-1.3,0.9l-1,5.6c-2.1-0.3-4.1-0.5-6.3-0.5c-0.7,0-1.5,0.1-2.3,0.1l-0.3-5.7c-0.1-0.6-0.6-1.1-1.3-1.1
	c-6,0.5-11.9,2.3-17.2,5.2c-0.5,0.3-0.7,1-0.5,1.6l2.9,5c-2.5,1.5-4.8,3.2-6.9,5.2l-3.9-4.1c-0.5-0.5-1.2-0.5-1.7-0.1
	c-4.3,4.3-7.6,9.4-9.8,15.1c-0.3,0.6,0.1,1.3,0.7,1.5l5.4,1.9c-1,2.7-1.7,5.5-1.9,8.4l-5.6-0.6c-0.7-0.1-1.3,0.5-1.3,1.1
	c0.1,3.5,0.7,12.8,2,17.6c0.2,0.7,0.9,1,1.5,0.8c1.9-0.7,5.3-1.9,5.3-1.9c1,2.7,2.3,5.3,3.9,7.7l-4.7,3.1c-0.5,0.3-0.7,1.1-0.3,1.6
	c3.5,5,8,9.2,13,12.3c0.5,0.3,1.3,0.1,1.6-0.4l2.9-5c2.5,1.4,5.1,2.5,7.9,3.4l-1.6,5.5c-0.2,0.6,0.2,1.3,0.8,1.4
	c3.7,1,7.6,1.5,11.4,1.5c2.2,0,4.3-0.1,6.5-0.5c0.6-0.1,1.1-0.7,0.9-1.3l-1-5.6c2.9-0.5,5.6-1.3,8.2-2.5l2.3,5.2
	c0.3,0.6,0.9,0.9,1.5,0.6c5.5-2.5,10.4-6.2,14.4-10.7c0.4-0.5,0.3-1.2-0.1-1.7l-4.3-3.7c1.9-2.2,3.4-4.6,4.7-7.2l5.1,2.5
	c0.5,0.3,1.1,0.1,1.5-0.4c3.3-5,4.1-13.9,4.2-17.4C296.5,943.9,295.9,943.3,295.1,943.3z M252.7,960.5c-9.4,0-17.1-7.6-17.1-17.1
	c0-9.4,7.6-17.1,17.1-17.1c9.4,0,17.1,7.6,17.1,17.1S262.1,960.5,252.7,960.5z"/>
<g>
	<path class="st0" d="M69,302.8c0,23.3-18.9,42.2-42.2,42.2s-42.2-18.9-42.2-42.2s18.9-42.2,42.2-42.2S69,279.5,69,302.8z"/>
	<path class="st4" d="M13.7,298.6l10.7,10.7l45.1-45.1c1.6-1.6,4.2-1.7,6-0.2l0,0c2,1.6,2.1,4.7,0.2,6.5L25,321.2L7.6,304.9
		c-1.9-1.8-1.8-4.8,0.2-6.5l0,0C9.5,297,12.1,297.1,13.7,298.6z"/>
</g>
<g>
	<path class="st0" d="M189.8-10.9c6.4,13.6,6.7,65.7,1.7,68c-6.2,3-44.6-31.4-50.9-44.9s-0.6-29.8,13-36.1
		C167.2-30.2,183.4-24.5,189.8-10.9z"/>
	<ellipse transform="matrix(0.9047 -0.426 0.426 0.9047 15.3996 70.6682)" class="st1" cx="165.7" cy="0.9" rx="10.9" ry="10.9"/>
</g>
<g>
	<path class="st0" d="M140.2,498.1c-2.3,7.6-20.6,28.6-23.4,27.7c-3.5-1-6.7-28.2-4.4-35.9c2.3-7.6,10.3-12.1,18-9.8
		C138.1,482.4,142.5,490.5,140.2,498.1z"/>
	
		<ellipse transform="matrix(0.282 -0.9594 0.9594 0.282 -383.5564 476.2019)" class="st1" cx="126.4" cy="494.4" rx="5.8" ry="5.8"/>
</g>
<g>
	<path class="st0" d="M392.8,187.5c3.4,4.5,7.5,23.8,5.8,24.9c-2.1,1.6-18.8-8.2-22.2-12.7c-3.4-4.5-2.5-10.9,2.1-14.3
		C383.1,181.9,389.5,182.9,392.8,187.5z"/>
	<ellipse transform="matrix(0.7997 -0.6004 0.6004 0.7997 -39.172 269.9672)" class="st1" cx="385" cy="193.7" rx="4.1" ry="4.1"/>
</g>
<g>
	<path class="st0" d="M100.2,140c-1.6,5.4-14.6,20.2-16.5,19.6c-2.5-0.7-4.7-20-3.1-25.4s7.2-8.5,12.7-6.9
		C98.8,128.9,101.8,134.6,100.2,140z"/>
	<ellipse transform="matrix(0.282 -0.9594 0.9594 0.282 -66.8082 185.4954)" class="st1" cx="90.5" cy="137.4" rx="4.1" ry="4.1"/>
</g>
<g>
	<path class="st0" d="M398.6,1055.5c-4,13.5-36.4,50.5-41.3,49c-6.1-1.8-11.8-49.9-7.8-63.4s18.1-21.3,31.8-17.4
		C394.9,1027.7,402.6,1041.9,398.6,1055.5z"/>
	
		<ellipse transform="matrix(0.282 -0.9594 0.9594 0.282 -737.3771 1112.0452)" class="st1" cx="374.3" cy="1048.7" rx="10.3" ry="10.3"/>
</g>
<g>
	<path class="st0" d="M309.8,804.8c3.3,6.6,4.3,32.3,1.9,33.6c-3,1.5-22.5-14.8-25.8-21.3c-3.3-6.6-0.7-14.7,5.9-18
		C298.3,795.6,306.4,798.2,309.8,804.8z"/>
	<ellipse transform="matrix(0.891 -0.454 0.454 0.891 -335.6941 223.7358)" class="st1" cx="298.1" cy="811" rx="5.4" ry="5.4"/>
</g>
</svg>
