<?xml version="1.0" encoding="utf-8"?>
<!-- Generator: Adobe Illustrator 21.0.2, SVG Export Plug-In . SVG Version: 6.00 Build 0)  -->
<svg version="1.1" id="Layer_1" xmlns="http://www.w3.org/2000/svg" xmlns:xlink="http://www.w3.org/1999/xlink" x="0px" y="0px"
	 viewBox="0 0 1920 1200" style="enable-background:new 0 0 1920 1200;" xml:space="preserve">
<style type="text/css">
	.st0{fill:#F1F1F2;}
	.st1{fill:#909190;}
	.st2{fill:#B3B3B4;}
	.st3{fill:#E1E0E0;}
	.st4{fill:#00AEC8;}
	.st5{fill:#028CA0;}
	.st6{fill:#D0D2D3;}
</style>
<g>
	<path class="st0" d="M666,1193.7c0,19.4-15.5,35.9-37.5,42.5l-35.8,19.4c-2.2,1.1-4.5-1.1-3.4-3.3l7.1-13.7
		c-27.4-3.9-48-22.5-48-44.7c0-25.2,26.3-45.5,58.8-45.5S666,1168.6,666,1193.7z"/>
	<circle class="st1" cx="582.6" cy="1195.1" r="6.3"/>
	<circle class="st1" cx="607.4" cy="1195.1" r="6.3"/>
	<circle class="st1" cx="632.1" cy="1195.1" r="6.3"/>
</g>
<g>
	<path class="st0" d="M811.3,856.5c0,5.6-4.5,10.3-10.8,12.2l-10.3,5.6c-0.6,0.3-1.3-0.3-1-1l2.1-4c-7.9-1.1-13.8-6.5-13.8-12.9
		c0-7.2,7.6-13.1,16.9-13.1C803.8,843.4,811.3,849.3,811.3,856.5z"/>
	<circle class="st1" cx="787.3" cy="856.9" r="1.8"/>
	<circle class="st1" cx="794.4" cy="856.9" r="1.8"/>
	<circle class="st1" cx="801.6" cy="856.9" r="1.8"/>
</g>
<g>
	<path class="st0" d="M547.4,695.1c0,5.6-4.5,10.3-10.8,12.2l-10.3,5.6c-0.6,0.3-1.3-0.3-1-1l2.1-4c-7.9-1.1-13.8-6.5-13.8-12.9
		c0-7.2,7.6-13.1,16.9-13.1C539.9,682,547.4,687.9,547.4,695.1z"/>
	<circle class="st1" cx="523.4" cy="695.5" r="1.8"/>
	<circle class="st1" cx="530.5" cy="695.5" r="1.8"/>
	<circle class="st1" cx="537.7" cy="695.5" r="1.8"/>
</g>
<g>
	<path class="st0" d="M249.6,510.5c0,5.6-4.5,10.3-10.8,12.2l-10.3,5.6c-0.6,0.3-1.3-0.3-1-1l2.1-4c-7.9-1.1-13.8-6.5-13.8-12.9
		c0-7.2,7.6-13.1,16.9-13.1C242.1,497.4,249.6,503.3,249.6,510.5z"/>
	<circle class="st1" cx="225.6" cy="510.9" r="1.8"/>
	<circle class="st1" cx="232.7" cy="510.9" r="1.8"/>
	<circle class="st1" cx="239.9" cy="510.9" r="1.8"/>
</g>
<g>
	<path class="st0" d="M1836.7,451.8c0,5.6-4.5,10.3-10.8,12.2l-10.3,5.6c-0.6,0.3-1.3-0.3-1-1l2.1-4c-7.9-1.1-13.8-6.5-13.8-12.9
		c0-7.2,7.6-13.1,16.9-13.1C1829.2,438.7,1836.7,444.6,1836.7,451.8z"/>
	<circle class="st1" cx="1812.7" cy="452.2" r="1.8"/>
	<circle class="st1" cx="1819.8" cy="452.2" r="1.8"/>
	<circle class="st1" cx="1827" cy="452.2" r="1.8"/>
</g>
<g>
	<path class="st0" d="M1294.6,1032.5c0,3.8-3.1,7.1-7.4,8.5l-7.1,3.8c-0.4,0.2-0.9-0.2-0.7-0.7l1.4-2.8c-5.5-0.8-9.5-4.5-9.5-8.9
		c0-5,5.2-9.1,11.7-9.1C1289.4,1023.4,1294.6,1027.5,1294.6,1032.5z"/>
	<circle class="st1" cx="1278" cy="1032.8" r="1.3"/>
	<circle class="st1" cx="1282.9" cy="1032.8" r="1.3"/>
	<circle class="st1" cx="1287.9" cy="1032.8" r="1.3"/>
</g>
<g>
	<path class="st0" d="M361.7,1003.2c0,3.8-3.1,7.1-7.4,8.5l-7.1,3.8c-0.4,0.2-0.9-0.2-0.7-0.7l1.4-2.8c-5.5-0.8-9.5-4.5-9.5-8.9
		c0-5,5.2-9.1,11.7-9.1C356.5,994.2,361.7,998.2,361.7,1003.2z"/>
	<circle class="st1" cx="345.1" cy="1003.5" r="1.3"/>
	<circle class="st1" cx="350" cy="1003.5" r="1.3"/>
	<circle class="st1" cx="355" cy="1003.5" r="1.3"/>
</g>
<g>
	<path class="st0" d="M955.5,885.2c0,3.8-3.1,7.1-7.4,8.5l-7.1,3.8c-0.4,0.2-0.9-0.2-0.7-0.7l1.4-2.8c-5.5-0.8-9.5-4.5-9.5-8.9
		c0-5,5.2-9.1,11.7-9.1C950.3,876.1,955.5,880.2,955.5,885.2z"/>
	<circle class="st1" cx="938.9" cy="885.5" r="1.3"/>
	<circle class="st1" cx="943.8" cy="885.5" r="1.3"/>
	<circle class="st1" cx="948.8" cy="885.5" r="1.3"/>
</g>
<g>
	<path class="st0" d="M1239.7,812.9c0,3.8-3.1,7.1-7.4,8.5l-7.1,3.8c-0.4,0.2-0.9-0.2-0.7-0.7l1.4-2.8c-5.5-0.8-9.5-4.5-9.5-8.9
		c0-5,5.2-9.1,11.7-9.1C1234.5,803.8,1239.7,807.9,1239.7,812.9z"/>
	<circle class="st1" cx="1223.1" cy="813.2" r="1.3"/>
	<circle class="st1" cx="1228" cy="813.2" r="1.3"/>
	<circle class="st1" cx="1233" cy="813.2" r="1.3"/>
</g>
<g>
	<path class="st0" d="M874.3,1030.5c0,3.8-3.1,7.1-7.4,8.5l-7.1,3.8c-0.4,0.2-0.9-0.2-0.7-0.7l1.4-2.8c-5.5-0.8-9.5-4.5-9.5-8.9
		c0-5,5.2-9.1,11.7-9.1C869.1,1021.4,874.3,1025.5,874.3,1030.5z"/>
	<circle class="st1" cx="857.7" cy="1030.8" r="1.3"/>
	<circle class="st1" cx="862.6" cy="1030.8" r="1.3"/>
	<circle class="st1" cx="867.6" cy="1030.8" r="1.3"/>
</g>
<g>
	<path class="st0" d="M724.2,1017.5c0,3.8-3.1,7.1-7.4,8.5l-7.1,3.8c-0.4,0.2-0.9-0.2-0.7-0.7l1.4-2.8c-5.5-0.8-9.5-4.5-9.5-8.9
		c0-5,5.2-9.1,11.7-9.1C719,1008.4,724.2,1012.5,724.2,1017.5z"/>
	<circle class="st1" cx="707.6" cy="1017.8" r="1.3"/>
	<circle class="st1" cx="712.5" cy="1017.8" r="1.3"/>
	<circle class="st1" cx="717.5" cy="1017.8" r="1.3"/>
</g>
<g>
	<path class="st0" d="M1146.4,972.6c0,3.8-3.1,7.1-7.4,8.5l-7.1,3.8c-0.4,0.2-0.9-0.2-0.7-0.7l1.4-2.8c-5.5-0.8-9.5-4.5-9.5-8.9
		c0-5,5.2-9.1,11.7-9.1C1141.2,963.5,1146.4,967.6,1146.4,972.6z"/>
	<circle class="st1" cx="1129.8" cy="972.9" r="1.3"/>
	<circle class="st1" cx="1134.7" cy="972.9" r="1.3"/>
	<circle class="st1" cx="1139.7" cy="972.9" r="1.3"/>
</g>
<g>
	<path class="st0" d="M1672.2,930.3c0,3.8-3.1,7.1-7.4,8.5l-7.1,3.8c-0.4,0.2-0.9-0.2-0.7-0.7l1.4-2.8c-5.5-0.8-9.5-4.5-9.5-8.9
		c0-5,5.2-9.1,11.7-9.1C1667,921.2,1672.2,925.3,1672.2,930.3z"/>
	<circle class="st1" cx="1655.6" cy="930.6" r="1.3"/>
	<circle class="st1" cx="1660.5" cy="930.6" r="1.3"/>
	<circle class="st1" cx="1665.5" cy="930.6" r="1.3"/>
</g>
<g>
	<path class="st0" d="M1519.1,888.5c0,3.8-3.1,7.1-7.4,8.5l-7.1,3.8c-0.4,0.2-0.9-0.2-0.7-0.7l1.4-2.8c-5.5-0.8-9.5-4.5-9.5-8.9
		c0-5,5.2-9.1,11.7-9.1C1513.9,879.4,1519.1,883.5,1519.1,888.5z"/>
	<circle class="st1" cx="1502.5" cy="888.8" r="1.3"/>
	<circle class="st1" cx="1507.4" cy="888.8" r="1.3"/>
	<circle class="st1" cx="1512.4" cy="888.8" r="1.3"/>
</g>
<g>
	<path class="st0" d="M1794.6,588.5c0,3.8-3.1,7.1-7.4,8.5l-7.1,3.8c-0.4,0.2-0.9-0.2-0.7-0.7l1.4-2.8c-5.5-0.8-9.5-4.5-9.5-8.9
		c0-5,5.2-9.1,11.7-9.1C1789.4,579.4,1794.6,583.5,1794.6,588.5z"/>
	<circle class="st1" cx="1778" cy="588.8" r="1.3"/>
	<circle class="st1" cx="1782.9" cy="588.8" r="1.3"/>
	<circle class="st1" cx="1787.9" cy="588.8" r="1.3"/>
</g>
<g>
	<path class="st0" d="M1132.8,1183.6c0,19.4-15.5,35.9-37.5,42.5l-35.8,19.4c-2.2,1.1-4.5-1.1-3.4-3.3l7.1-13.7
		c-27.4-3.9-48-22.5-48-44.7c0-25.2,26.3-45.5,58.8-45.5S1132.8,1158.5,1132.8,1183.6z"/>
	<circle class="st1" cx="1049.5" cy="1185" r="6.3"/>
	<circle class="st1" cx="1074.2" cy="1185" r="6.3"/>
	<circle class="st1" cx="1098.9" cy="1185" r="6.3"/>
</g>
<g>
	<path class="st0" d="M1860,1166.2c0,19.4-15.5,35.9-37.5,42.5l-35.8,19.4c-2.2,1.1-4.5-1.1-3.4-3.3l7.1-13.7
		c-27.4-3.9-48-22.5-48-44.7c0-25.2,26.3-45.5,58.8-45.5S1860,1141.1,1860,1166.2z"/>
	<circle class="st1" cx="1776.7" cy="1167.6" r="6.3"/>
	<circle class="st1" cx="1801.4" cy="1167.6" r="6.3"/>
	<circle class="st1" cx="1826.1" cy="1167.6" r="6.3"/>
</g>
<g>
	<g>
		<path class="st2" d="M1712.5,1013.5c0.6-0.3,0.9-1.1,0.6-1.7l-5.8-11.6c-4.2-8.4-13.1-3.7-13.1-3.7c-9.1,4.5-4.9,12.9-4.9,12.9
			l8.3,16.7l3.5-1.7l-7.7-15.4c0,0-3.1-5.9,2.4-8.7c0,0,5.4-3.4,8.7,3.2l5,10.1c0.3,0.7,1.1,1,1.8,0.6L1712.5,1013.5z"/>
		<path class="st3" d="M1690.8,1007.8C1690.8,1007.9,1690.8,1007.9,1690.8,1007.8c-0.3,0.2-0.7,0-0.8-0.3c0-0.1-2.4-7.3,5.1-10.2
			c0.3-0.1,0.6,0,0.8,0.3c0.1,0.3,0,0.6-0.3,0.8c-6.5,2.4-4.5,8.4-4.4,8.7C1691.3,1007.4,1691,1007.7,1690.8,1007.8z"/>
	</g>
	<path class="st0" d="M1711.1,1004.5l-20.7,10.3c-0.3,0.2-0.4,0.6-0.3,0.9l6,12c0.2,0.3,0.5,0.4,0.9,0.3l20.7-10.3
		c0.3-0.2,0.4-0.5,0.3-0.9l-6-12C1711.8,1004.5,1711.4,1004.3,1711.1,1004.5z M1704.2,1015.7l1.2,2.5c0.2,0.3,0,0.6-0.3,0.8
		s-0.6,0-0.8-0.3l-1.2-2.5c-0.6,0.1-1.2-0.3-1.5-0.9c-0.3-0.8-0.1-1.7,0.7-2s1.7-0.1,2,0.7
		C1704.7,1014.7,1704.7,1015.3,1704.2,1015.7z"/>
</g>
<g>
	<g>
		<path class="st2" d="M571.2,871.8c1.3-0.7,2-2.4,1.3-3.7l-12.7-25.4c-9.2-18.4-28.7-8.1-28.7-8.1c-19.9,9.9-10.7,28.3-10.7,28.3
			l18.2,36.6l7.7-3.7l-16.9-33.7c0,0-6.8-12.9,5.3-19.1c0,0,11.8-7.4,19.1,7l11,22.1c0.7,1.5,2.4,2.2,3.9,1.3L571.2,871.8z"/>
		<path class="st3" d="M523.6,859.1C523.6,859.3,523.6,859.3,523.6,859.1c-0.7,0.4-1.5,0-1.8-0.7c0-0.2-5.3-16,11.2-22.3
			c0.7-0.2,1.3,0,1.8,0.7c0.2,0.7,0,1.3-0.7,1.8c-14.2,5.3-9.9,18.4-9.6,19.1C524.7,858.2,524.3,859.1,523.6,859.1z"/>
	</g>
	<path class="st0" d="M568.1,851.9l-45.3,22.6c-0.7,0.4-0.9,1.3-0.7,2l13.1,26.3c0.4,0.7,1.1,0.9,2,0.7l45.3-22.6
		c0.7-0.4,0.9-1.1,0.7-2l-13.1-26.3C569.6,851.9,569,851.6,568.1,851.9z M553.2,876.4l2.6,5.5c0.4,0.7,0,1.3-0.7,1.8
		c-0.7,0.4-1.3,0-1.8-0.7l-2.6-5.5c-1.3,0.2-2.6-0.7-3.3-2c-0.7-1.8-0.2-3.7,1.5-4.4c1.8-0.7,3.7-0.2,4.4,1.5
		C554.3,874.2,554.1,875.5,553.2,876.4z"/>
</g>
<g>
	<g>
		<path class="st2" d="M413.7,719c0.6-0.3,0.9-1.1,0.6-1.7l-5.8-11.6c-4.2-8.4-13.1-3.7-13.1-3.7c-9.1,4.5-4.9,12.9-4.9,12.9
			l8.3,16.7l3.5-1.7l-7.7-15.4c0,0-3.1-5.9,2.4-8.7c0,0,5.4-3.4,8.7,3.2l5,10.1c0.3,0.7,1.1,1,1.8,0.6L413.7,719z"/>
		<path class="st3" d="M392,713.2C392,713.3,392,713.3,392,713.2c-0.3,0.2-0.7,0-0.8-0.3c0-0.1-2.4-7.3,5.1-10.2
			c0.3-0.1,0.6,0,0.8,0.3c0.1,0.3,0,0.6-0.3,0.8c-6.5,2.4-4.5,8.4-4.4,8.7C392.5,712.8,392.3,713.2,392,713.2z"/>
	</g>
	<path class="st0" d="M412.3,709.9l-20.7,10.3c-0.3,0.2-0.4,0.6-0.3,0.9l6,12c0.2,0.3,0.5,0.4,0.9,0.3l20.7-10.3
		c0.3-0.2,0.4-0.5,0.3-0.9l-6-12C413,709.9,412.7,709.8,412.3,709.9z M405.5,721.1l1.2,2.5c0.2,0.3,0,0.6-0.3,0.8s-0.6,0-0.8-0.3
		l-1.2-2.5c-0.6,0.1-1.2-0.3-1.5-0.9c-0.3-0.8-0.1-1.7,0.7-2s1.7-0.1,2,0.7C406,720.1,405.9,720.7,405.5,721.1z"/>
</g>
<g>
	<g>
		<path class="st2" d="M48.9,914.3c0.6-0.3,0.9-1.1,0.6-1.7L43.7,901c-4.2-8.4-13.1-3.7-13.1-3.7c-9.1,4.5-4.9,12.9-4.9,12.9
			l8.3,16.7l3.5-1.7l-7.7-15.4c0,0-3.1-5.9,2.4-8.7c0,0,5.4-3.4,8.7,3.2l5,10.1c0.3,0.7,1.1,1,1.8,0.6L48.9,914.3z"/>
		<path class="st3" d="M27.2,908.5C27.2,908.6,27.2,908.6,27.2,908.5c-0.3,0.2-0.7,0-0.8-0.3c0-0.1-2.4-7.3,5.1-10.2
			c0.3-0.1,0.6,0,0.8,0.3c0.1,0.3,0,0.6-0.3,0.8c-6.5,2.4-4.5,8.4-4.4,8.7C27.7,908.1,27.5,908.5,27.2,908.5z"/>
	</g>
	<path class="st0" d="M47.5,905.2l-20.7,10.3c-0.3,0.2-0.4,0.6-0.3,0.9l6,12c0.2,0.3,0.5,0.4,0.9,0.3l20.7-10.3
		c0.3-0.2,0.4-0.5,0.3-0.9l-6-12C48.2,905.2,47.9,905.1,47.5,905.2z M40.7,916.4l1.2,2.5c0.2,0.3,0,0.6-0.3,0.8s-0.6,0-0.8-0.3
		l-1.2-2.5c-0.6,0.1-1.2-0.3-1.5-0.9c-0.3-0.8-0.1-1.7,0.7-2s1.7-0.1,2,0.7C41.2,915.4,41.1,916,40.7,916.4z"/>
</g>
<g>
	<g>
		<path class="st2" d="M487.5,985.2c0.6-0.3,0.9-1.1,0.6-1.7l-5.8-11.6c-4.2-8.4-13.1-3.7-13.1-3.7c-9.1,4.5-4.9,12.9-4.9,12.9
			l8.3,16.7l3.5-1.7l-7.7-15.4c0,0-3.1-5.9,2.4-8.7c0,0,5.4-3.4,8.7,3.2l5,10.1c0.3,0.7,1.1,1,1.8,0.6L487.5,985.2z"/>
		<path class="st3" d="M465.8,979.4C465.8,979.5,465.8,979.5,465.8,979.4c-0.3,0.2-0.7,0-0.8-0.3c0-0.1-2.4-7.3,5.1-10.2
			c0.3-0.1,0.6,0,0.8,0.3c0.1,0.3,0,0.6-0.3,0.8c-6.5,2.4-4.5,8.4-4.4,8.7S466.1,979.4,465.8,979.4z"/>
	</g>
	<path class="st0" d="M486.1,976.1l-20.7,10.3c-0.3,0.2-0.4,0.6-0.3,0.9l6,12c0.2,0.3,0.5,0.4,0.9,0.3l20.7-10.3
		c0.3-0.2,0.4-0.5,0.3-0.9l-6-12C486.8,976.1,486.5,976,486.1,976.1z M479.3,987.3l1.2,2.5c0.2,0.3,0,0.6-0.3,0.8s-0.6,0-0.8-0.3
		l-1.2-2.5c-0.6,0.1-1.2-0.3-1.5-0.9c-0.3-0.8-0.1-1.7,0.7-2c0.8-0.3,1.7-0.1,2,0.7C479.8,986.3,479.7,986.9,479.3,987.3z"/>
</g>
<g>
	<path class="st4" d="M1153.7,1120.1l-16.6-4.1c-0.8-0.1-1.3-0.8-1.4-1.5l-3.5-37.4c-0.1-1.2,0.9-2.1,2.1-1.9l15.5,3.1
		L1153.7,1120.1z"/>
	<polygon class="st0" points="1153.4,1117.3 1138,1113.4 1134.7,1078.2 1150.1,1081.4 	"/>
	<path class="st4" d="M1183.5,1114.5l-15.3-3.1l-3.9-41.8l16.3,3.2c0.8,0.1,1.3,0.8,1.4,1.5l3.6,38.2
		C1185.7,1113.8,1184.7,1114.8,1183.5,1114.5z"/>
	<polygon class="st5" points="1168.2,1111.5 1153.7,1120.1 1149.8,1078.2 1164.3,1069.6 	"/>
	<polygon class="st6" points="1168,1108.9 1153.4,1117.3 1150.1,1081.4 1164.6,1072.9 	"/>
	<polygon class="st0" points="1183.2,1111.7 1168,1108.8 1164.6,1072.9 1180,1075.9 	"/>
</g>
<g>
	<path class="st4" d="M849.1,1139.8l-16.6-4.1c-0.8-0.1-1.3-0.8-1.4-1.5l-3.5-37.4c-0.1-1.2,0.9-2.1,2.1-1.9l15.5,3.1L849.1,1139.8z
		"/>
	<polygon class="st0" points="848.8,1137 833.4,1133.1 830.1,1097.9 845.5,1101.1 	"/>
	<path class="st4" d="M878.9,1134.2l-15.3-3.1l-3.9-41.8l16.3,3.2c0.8,0.1,1.3,0.8,1.4,1.5l3.6,38.2
		C881.1,1133.5,880.1,1134.5,878.9,1134.2z"/>
	<polygon class="st5" points="863.6,1131.2 849.1,1139.8 845.2,1097.9 859.7,1089.3 	"/>
	<polygon class="st6" points="863.4,1128.6 848.8,1137 845.5,1101.1 860,1092.6 	"/>
	<polygon class="st0" points="878.6,1131.4 863.4,1128.5 860,1092.6 875.4,1095.6 	"/>
</g>
<g>
	<path class="st4" d="M165.7,1245.8l-44.7-10.9c-2.1-0.4-3.6-2.1-3.9-4.1l-9.4-100.9c-0.4-3.2,2.6-5.5,5.5-5.1l41.9,8.3
		L165.7,1245.8z"/>
	<polygon class="st0" points="164.9,1238.2 123.3,1227.9 114.3,1132.9 155.9,1141.6 	"/>
	<path class="st4" d="M246,1230.8l-41.2-8.3l-10.6-112.8l44,8.7c2.1,0.4,3.6,2.1,3.9,4.1l9.7,103.1
		C251.9,1229,249.1,1231.5,246,1230.8z"/>
	<polygon class="st5" points="204.7,1222.6 165.7,1245.8 155,1132.9 194.1,1109.7 	"/>
	<polygon class="st6" points="204.1,1215.6 164.9,1238.2 155.9,1141.6 195.1,1118.4 	"/>
	<polygon class="st0" points="245.1,1223.2 204.1,1215.5 195.1,1118.4 236.6,1126.5 	"/>
</g>
<g>
	<path class="st4" d="M1510.6,1240.9l-36.4-8.9c-1.7-0.3-2.9-1.7-3.1-3.4l-7.6-82.2c-0.3-2.6,2.1-4.5,4.5-4.1l34.1,6.7
		L1510.6,1240.9z"/>
	<polygon class="st0" points="1510,1234.7 1476,1226.3 1468.7,1149 1502.7,1156 	"/>
	<path class="st4" d="M1576,1228.7l-33.6-6.7l-8.6-91.9l35.8,7.1c1.7,0.3,2.9,1.7,3.1,3.4l7.9,84
		C1580.8,1227.2,1578.6,1229.2,1576,1228.7z"/>
	<polygon class="st5" points="1542.4,1222 1510.6,1240.9 1501.9,1149 1533.8,1130.1 	"/>
	<polygon class="st6" points="1541.9,1216.3 1510,1234.7 1502.7,1156 1534.5,1137.2 	"/>
	<polygon class="st0" points="1575.3,1222.5 1541.9,1216.2 1534.5,1137.2 1568.3,1143.8 	"/>
</g>
<g>
	<path class="st4" d="M1879.3,1114.3l-36.4-8.9c-1.7-0.3-2.9-1.7-3.1-3.4l-7.6-82.2c-0.3-2.6,2.1-4.5,4.5-4.1l34.1,6.7
		L1879.3,1114.3z"/>
	<polygon class="st0" points="1878.7,1108.1 1844.7,1099.7 1837.4,1022.4 1871.4,1029.4 	"/>
	<path class="st4" d="M1944.7,1102.1l-33.6-6.7l-8.6-91.9l35.8,7.1c1.7,0.3,2.9,1.7,3.1,3.4l7.9,84
		C1949.5,1100.6,1947.3,1102.6,1944.7,1102.1z"/>
	<polygon class="st5" points="1911.1,1095.4 1879.3,1114.3 1870.6,1022.4 1902.5,1003.5 	"/>
	<polygon class="st6" points="1910.6,1089.7 1878.7,1108.1 1871.4,1029.4 1903.2,1010.6 	"/>
	<polygon class="st0" points="1944,1095.9 1910.6,1089.6 1903.2,1010.6 1937,1017.2 	"/>
</g>
<g>
	<path class="st4" d="M478.8,1159.8l-19.4-2.3c-0.9-0.1-1.6-0.7-1.8-1.6l-9.3-42c-0.3-1.3,0.7-2.5,2.1-2.4l18,1.3L478.8,1159.8z"/>
	<polygon class="st0" points="478.2,1156.6 460,1154.5 451.3,1115 469.3,1116.5 	"/>
	<path class="st4" d="M511.9,1149.3l-17.8-1.3l-10.4-46.9l19,1.4c0.9,0.1,1.6,0.7,1.8,1.6l9.5,42.9
		C514.3,1148.2,513.2,1149.4,511.9,1149.3z"/>
	<polygon class="st5" points="494.1,1148 478.8,1159.8 468.5,1112.8 483.7,1101.1 	"/>
	<polygon class="st6" points="493.4,1145.1 478.2,1156.6 469.3,1116.5 484.6,1104.6 	"/>
	<polygon class="st0" points="511.1,1146.1 493.4,1145 484.6,1104.6 502.4,1105.9 	"/>
</g>
<g>
	<path class="st0" d="M1659.1,1064.3l-73.4,39.3c-1.4,0.8-2.9-0.9-2.1-2.2l23.6-38l1-1.7l-0.9-1.3l-24.1-36.7c-0.9-1.3,0.6-3,2-2.3
		l73.8,37.8C1661,1060.4,1661.1,1063.2,1659.1,1064.3z"/>
	<path class="st4" d="M1641.8,1061.9c0,0.8-1.1,3.1-3.6,3.1h-32l0.5-0.8c0.9-1.5,0.9-3.4-0.2-4.9l-0.5-0.7h32.7
		C1640.8,1059,1641.8,1061.2,1641.8,1061.9z"/>
</g>
<g>
	<path class="st0" d="M1062.7,933.4l-21.9-19.5c-0.4-0.4-0.1-1.1,0.5-0.9l15.4,3.2l0.7,0.1l0.3-0.5l9.2-12.3c0.3-0.5,1-0.2,1,0.4
		l-3.6,28.9C1064.2,933.5,1063.3,933.9,1062.7,933.4z"/>
	<path class="st4" d="M1061.4,927.4c-0.2,0.1-1.2,0-1.5-0.8l-3.9-10.5l0.3,0.1c0.6,0.1,1.2-0.2,1.5-0.7l0.2-0.3l4,10.8
		C1062.3,926.7,1061.6,927.3,1061.4,927.4z"/>
</g>
<g>
	<path class="st0" d="M1500.3,784.5l3,29.2c0,0.6-0.7,0.9-1,0.3l-9.2-12.8l-0.4-0.5l-0.6,0.2l-15.1,2.9c-0.6,0.2-0.9-0.5-0.5-1
		l22.2-18.9C1499.3,783.4,1500.2,783.7,1500.3,784.5z"/>
	<path class="st4" d="M1497.2,789.8c0.2,0.1,0.9,0.8,0.6,1.6l-4.2,10.4l-0.2-0.3c-0.4-0.5-1-0.7-1.6-0.5l-0.4,0.1l4.3-10.7
		C1496.1,789.7,1497,789.8,1497.2,789.8z"/>
</g>
<g>
	<path class="st0" d="M1477.5,959.5l-21.9-19.5c-0.4-0.4-0.1-1.1,0.5-0.9l15.4,3.2l0.7,0.1l0.3-0.5l9.2-12.3c0.3-0.5,1-0.2,1,0.4
		l-3.6,28.9C1479,959.6,1478.1,960,1477.5,959.5z"/>
	<path class="st4" d="M1476.2,953.5c-0.2,0.1-1.2,0-1.5-0.8l-3.9-10.5l0.3,0.1c0.6,0.1,1.2-0.2,1.5-0.7l0.2-0.3l4,10.8
		C1477.1,952.8,1476.4,953.4,1476.2,953.5z"/>
</g>
<g>
	<path class="st0" d="M603.1,967.6l-21.9-19.5c-0.4-0.4-0.1-1.1,0.5-0.9l15.4,3.2l0.7,0.1l0.3-0.5l9.2-12.3c0.3-0.5,1-0.2,1,0.4
		l-3.6,28.9C604.6,967.7,603.7,968.1,603.1,967.6z"/>
	<path class="st4" d="M601.8,961.6c-0.2,0.1-1.2,0-1.5-0.8l-3.9-10.5l0.3,0.1c0.6,0.1,1.2-0.2,1.5-0.7l0.2-0.3l4,10.8
		C602.7,960.9,602,961.5,601.8,961.6z"/>
</g>
<g>
	<path class="st0" d="M468.2,779.3l-4.5,29c-0.1,0.6-0.9,0.7-1,0.1l-5.7-14.7l-0.3-0.6l-0.6,0l-15.3-1c-0.6,0-0.7-0.7-0.2-1.1
		l26.2-12.7C467.5,778,468.3,778.6,468.2,779.3z"/>
	<path class="st4" d="M463.9,783.7c0.2,0.1,0.7,1,0.1,1.7l-6.7,9l-0.1-0.3c-0.2-0.6-0.8-0.9-1.4-0.9l-0.4,0l6.9-9.2
		C462.8,783.3,463.7,783.6,463.9,783.7z"/>
</g>
<g>
	<path class="st0" d="M270.8,645.4l-32.7-29.1c-0.6-0.6-0.1-1.6,0.7-1.3l23,4.8l1,0.1l0.4-0.7l13.7-18.4c0.4-0.7,1.5-0.3,1.5,0.6
		l-5.4,43.1C273.1,645.6,271.7,646.2,270.8,645.4z"/>
	<path class="st4" d="M268.9,636.5c-0.3,0.1-1.8,0-2.2-1.2l-5.8-15.7l0.4,0.1c0.9,0.1,1.8-0.3,2.2-1l0.3-0.4l6,16.1
		C270.2,635.4,269.2,636.3,268.9,636.5z"/>
</g>
<g>
	<path class="st0" d="M1100.8,1099.8l-21.9-19.5c-0.4-0.4-0.1-1.1,0.5-0.9l15.4,3.2l0.7,0.1l0.3-0.5l9.2-12.3c0.3-0.5,1-0.2,1,0.4
		l-3.6,28.9C1102.3,1099.9,1101.4,1100.3,1100.8,1099.8z"/>
	<path class="st4" d="M1099.5,1093.8c-0.2,0.1-1.2,0-1.5-0.8l-3.9-10.5l0.3,0.1c0.6,0.1,1.2-0.2,1.5-0.7l0.2-0.3l4,10.8
		C1100.4,1093.1,1099.7,1093.7,1099.5,1093.8z"/>
</g>
<g>
	<path class="st0" d="M949.1,1038.3l-13.2,26.1c-0.3,0.5-1,0.4-1-0.2l-0.8-15.7l-0.1-0.7l-0.5-0.2l-14.3-5.7c-0.5-0.2-0.5-1,0.1-1
		l28.8-4C948.9,1036.8,949.5,1037.6,949.1,1038.3z"/>
	<path class="st4" d="M943.7,1041.1c0.1,0.2,0.3,1.2-0.4,1.7l-9.2,6.4v-0.3c0-0.6-0.5-1.1-1-1.3l-0.3-0.1l9.4-6.6
		C942.8,1040.5,943.5,1040.9,943.7,1041.1z"/>
</g>
<g>
	<path class="st0" d="M465.5,896.1l-13.2,26.1c-0.3,0.5-1,0.4-1-0.2l-0.8-15.7l-0.1-0.7l-0.5-0.2l-14.3-5.7c-0.5-0.2-0.5-1,0.1-1
		l28.8-4C465.3,894.6,465.9,895.4,465.5,896.1z"/>
	<path class="st4" d="M460.1,898.9c0.1,0.2,0.3,1.2-0.4,1.7l-9.2,6.4v-0.3c0-0.6-0.5-1.1-1-1.3l-0.3-0.1l9.4-6.6
		C459.2,898.3,459.9,898.7,460.1,898.9z"/>
</g>
<g>
	<path class="st0" d="M1703.3,833l-13.2,26.1c-0.3,0.5-1,0.4-1-0.2l-0.8-15.7l-0.1-0.7l-0.5-0.2l-14.3-5.7c-0.5-0.2-0.5-1,0.1-1
		l28.8-4C1703.1,831.5,1703.7,832.3,1703.3,833z"/>
	<path class="st4" d="M1697.9,835.8c0.1,0.2,0.3,1.2-0.4,1.7l-9.2,6.4v-0.3c0-0.6-0.5-1.1-1-1.3l-0.3-0.1l9.4-6.6
		C1697,835.2,1697.7,835.6,1697.9,835.8z"/>
</g>
<g>
	<path class="st0" d="M164,831.7l28.8,5.2c0.5,0.1,0.6,0.9,0.1,1l-14.8,5.3l-0.6,0.3l-0.1,0.5l-1.4,15.4c-0.1,0.5-0.8,0.7-1,0.2
		l-12-26.5C162.6,832.4,163.2,831.6,164,831.7z"/>
	<path class="st4" d="M168.2,836.1c0.2-0.3,1-0.6,1.7-0.1l8.8,6.9l-0.3,0.1c-0.6,0.2-1,0.8-1,1.4v0.3l-8.9-7.1
		C167.8,837.1,168,836.3,168.2,836.1z"/>
</g>
<g>
	<path class="st0" d="M329.1,1143.2l107.4,19.5c1.9,0.3,2.3,3.2,0.3,3.9l-55.2,19.8l-2.3,1l-0.3,1.9l-5.2,57.4
		c-0.3,1.9-2.9,2.6-3.9,0.6l-44.8-99C323.9,1145.8,326.1,1142.9,329.1,1143.2z"/>
	<path class="st4" d="M344.6,1159.8c0.6-1,3.9-2.3,6.2-0.3l32.8,26l-1.3,0.3c-2.3,0.6-3.6,2.9-3.9,5.2v1.3l-33.4-26.6
		C343.3,1163.7,344,1160.8,344.6,1159.8z"/>
</g>
<g>
	<path class="st0" d="M221.5,770.8l107.4,19.5c1.9,0.3,2.3,3.2,0.3,3.9L274,814l-2.3,1l-0.3,1.9l-5.2,57.4c-0.3,1.9-2.9,2.6-3.9,0.6
		l-44.8-99C216.3,773.4,218.5,770.5,221.5,770.8z"/>
	<path class="st4" d="M237,787.4c0.6-1,3.9-2.3,6.2-0.3l32.8,26l-1.3,0.3c-2.3,0.6-3.6,2.9-3.9,5.2v1.3l-33.4-26.6
		C235.7,791.3,236.4,788.4,237,787.4z"/>
</g>
<g>
	<path class="st0" d="M1220,1131.3l61.5,90.2c1.1,1.6-0.7,3.9-2.6,3l-52.9-25.4l-2.3-0.9l-1.6,1.1l-44.5,36.6
		c-1.6,1.1-3.9-0.2-3.2-2.4l39-101.4C1214.5,1129.4,1218.1,1128.9,1220,1131.3z"/>
	<path class="st4" d="M1219.1,1154c1.1-0.3,4.4,1.2,4.6,4.2l4.5,41.6l-1.1-0.7c-2-1.2-4.6-0.5-6.4,0.9l-0.9,0.9l-4.5-42.5
		C1215.4,1155.8,1217.9,1154.2,1219.1,1154z"/>
</g>
<g>
	<path class="st0" d="M775.4,1032.1l41.8,7.6c0.8,0.1,0.9,1.3,0.1,1.5l-21.5,7.7l-0.9,0.4l-0.1,0.8l-2,22.4c-0.1,0.8-1.1,1-1.5,0.3
		l-17.4-38.7C773.4,1033.1,774.3,1032,775.4,1032.1z"/>
	<path class="st4" d="M781.5,1038.5c0.3-0.4,1.5-0.9,2.4-0.1l12.8,10.1l-0.5,0.1c-0.9,0.3-1.4,1.1-1.5,2v0.5l-13-10.4
		C781,1040.1,781.2,1038.9,781.5,1038.5z"/>
</g>
<g>
	<path class="st0" d="M1164,906.7c-4.6,10.3-16.5,15.2-27,10.6s-15.2-16.5-10.6-27s16.5-15.2,27-10.6
		C1163.8,884.3,1168.4,896.4,1164,906.7z"/>
	<path class="st4" d="M1143.5,908.5l4.6-11.8l0.7,2.8c0.3,1,1.3,1.8,2.5,1.6c1.1-0.2,2-1.3,1.8-2.5l-2.3-10.8
		c-0.2-0.8-1.1-1.3-1.8-0.8l-9.3,5.9c-1.1,0.7-1.3,2.1-0.7,3.1c0.7,0.7,1.6,1,2.5,0.5l2.9-1.6l-4.9,12c-0.5,1.1,0,2.5,1.1,2.9l0,0
		C1141.8,910.3,1143,909.8,1143.5,908.5z"/>
</g>
<g>
	<path class="st0" d="M1034.3,1026.2c-2.2-11.1,4.7-22,15.9-24.3c11.2-2.3,22,4.7,24.3,15.9s-4.7,22-15.9,24.3
		C1047.4,1044.4,1036.7,1037.2,1034.3,1026.2z"/>
	<path class="st4" d="M1050,1012.9l3.1,12.3l-2.1-1.9c-0.8-0.6-2.1-0.7-3,0.1c-0.8,0.8-0.8,2.2-0.1,3l8.1,7.5
		c0.6,0.6,1.7,0.4,1.9-0.4l4.2-10.2c0.6-1.2-0.2-2.5-1.3-2.9c-0.9-0.2-1.9,0.1-2.3,1l-1.5,3l-2.9-12.6c-0.3-1.2-1.4-2-2.6-1.7l0,0
		C1050.3,1010.5,1049.6,1011.5,1050,1012.9z"/>
</g>
<g>
	<path class="st0" d="M82.5,782.4c6.7-1.5,13.5,2.6,15,9.4s-2.6,13.5-9.4,15c-6.8,1.6-13.5-2.6-15-9.4S75.8,783.9,82.5,782.4z"/>
	<path class="st4" d="M90.8,791.7l-7.5,2l1.1-1.3c0.4-0.5,0.4-1.3-0.1-1.8c-0.5-0.5-1.4-0.5-1.9,0l-4.5,5.1c-0.3,0.4-0.2,1,0.3,1.2
		l6.3,2.4c0.7,0.3,1.5-0.1,1.8-0.8c0.1-0.6-0.1-1.2-0.7-1.4l-1.9-0.9l7.7-1.9c0.7-0.2,1.2-0.9,1-1.6l0,0
		C92.3,791.9,91.6,791.5,90.8,791.7z"/>
</g>
<g>
	<path class="st0" d="M369.5,574.4c2.3-6.5,9.3-10.1,15.9-7.8c6.6,2.3,10.1,9.3,7.8,15.9c-2.3,6.6-9.3,10.1-15.9,7.8
		C370.8,588,367.4,580.9,369.5,574.4z"/>
	<path class="st4" d="M381.9,572.2l-2.2,7.4l-0.5-1.7c-0.2-0.6-0.9-1-1.6-0.9s-1.1,0.9-1,1.6l1.9,6.5c0.1,0.5,0.8,0.7,1.1,0.4
		l5.4-4.1c0.7-0.5,0.7-1.4,0.2-1.9c-0.4-0.4-1-0.5-1.5-0.2l-1.7,1.1l2.4-7.5c0.2-0.7-0.1-1.5-0.8-1.7l0,0
		C382.8,571.1,382.1,571.4,381.9,572.2z"/>
</g>
<g>
	<path class="st0" d="M43.9,715c-2.8,6.3-10.1,9.3-16.5,6.5s-9.3-10.1-6.5-16.5s10.1-9.3,16.5-6.5S46.6,708.7,43.9,715z"/>
	<path class="st4" d="M31.4,716.1l2.8-7.2l0.4,1.7c0.2,0.6,0.8,1.1,1.5,1s1.2-0.8,1.1-1.5l-1.4-6.6c-0.1-0.5-0.7-0.8-1.1-0.5
		l-5.7,3.6c-0.7,0.4-0.8,1.3-0.4,1.9c0.4,0.4,1,0.6,1.5,0.3l1.8-1l-3,7.3c-0.3,0.7,0,1.5,0.7,1.8l0,0
		C30.4,717.2,31.1,716.9,31.4,716.1z"/>
</g>
<g>
	<path class="st0" d="M248.2,726.9c-2.8,6.3-10.1,9.3-16.5,6.5s-9.3-10.1-6.5-16.5s10.1-9.3,16.5-6.5
		C248.1,713.2,250.9,720.6,248.2,726.9z"/>
	<path class="st4" d="M235.7,728l2.8-7.2l0.4,1.7c0.2,0.6,0.8,1.1,1.5,1s1.2-0.8,1.1-1.5l-1.4-6.6c-0.1-0.5-0.7-0.8-1.1-0.5
		l-5.7,3.6c-0.7,0.4-0.8,1.3-0.4,1.9c0.4,0.4,1,0.6,1.5,0.3l1.8-1l-3,7.3c-0.3,0.7,0,1.5,0.7,1.8l0,0
		C234.7,729.1,235.4,728.8,235.7,728z"/>
</g>
<g>
	<path class="st0" d="M675.4,792.5c-2.8,6.3-10.1,9.3-16.5,6.5c-6.4-2.8-9.3-10.1-6.5-16.5s10.1-9.3,16.5-6.5
		C675.3,778.8,678.1,786.2,675.4,792.5z"/>
	<path class="st4" d="M662.9,793.6l2.8-7.2l0.4,1.7c0.2,0.6,0.8,1.1,1.5,1s1.2-0.8,1.1-1.5l-1.4-6.6c-0.1-0.5-0.7-0.8-1.1-0.5
		l-5.7,3.6c-0.7,0.4-0.8,1.3-0.4,1.9c0.4,0.4,1,0.6,1.5,0.3l1.8-1l-3,7.3c-0.3,0.7,0,1.5,0.7,1.8l0,0
		C661.9,794.7,662.6,794.4,662.9,793.6z"/>
</g>
<g>
	<path class="st0" d="M96.8,544.3c19.2,6.5,29.9,27,23.4,46.5s-27,29.9-46.5,23.4c-19.5-6.5-29.9-27-23.4-46.5
		C56.7,548.3,77.6,538.1,96.8,544.3z"/>
	<path class="st4" d="M103.3,580.6l-21.8-6.3l4.9-1.6c1.7-0.7,3-2.6,2.5-4.7c-0.5-2-2.7-3.3-4.7-2.8l-18.9,5.9
		c-1.4,0.4-2.2,2.3-1.2,3.3l12,15.7c1.4,1.9,4,2,5.7,0.7c1.1-1.3,1.5-3.1,0.5-4.5l-3.4-5l22.1,6.8c2.1,0.7,4.4-0.4,5.1-2.5l0,0
		C106.8,583.2,105.7,581.2,103.3,580.6z"/>
</g>
<g>
	<path class="st0" d="M378.5,936.9c-2.8,6.3-10.1,9.3-16.5,6.5s-9.3-10.1-6.5-16.5s10.1-9.3,16.5-6.5S381.2,930.6,378.5,936.9z"/>
	<path class="st4" d="M366,938l2.8-7.2l0.4,1.7c0.2,0.6,0.8,1.1,1.5,1s1.2-0.8,1.1-1.5l-1.4-6.6c-0.1-0.5-0.7-0.8-1.1-0.5l-5.7,3.6
		c-0.7,0.4-0.8,1.3-0.4,1.9c0.4,0.4,1,0.6,1.5,0.3l1.8-1l-3,7.3c-0.3,0.7,0,1.5,0.7,1.8l0,0C365,939.1,365.7,938.8,366,938z"/>
</g>
<g>
	<path class="st0" d="M1082.8,806.3c4.5-5.2,12.4-5.9,17.7-1.3s5.9,12.4,1.3,17.7c-4.6,5.3-12.4,5.9-17.7,1.3
		C1078.9,819.4,1078.4,811.5,1082.8,806.3z"/>
	<path class="st4" d="M1095.1,808.9l-4.8,6l0.1-1.7c0-0.6-0.4-1.3-1.1-1.4c-0.7-0.1-1.4,0.4-1.5,1.1l-0.6,6.7
		c-0.1,0.5,0.4,1,0.9,0.8l6.5-1.7c0.8-0.2,1.2-1,0.9-1.7c-0.3-0.5-0.8-0.9-1.3-0.7l-2,0.4l5-6.1c0.5-0.6,0.4-1.4-0.1-1.9l0,0
		C1096.4,808.2,1095.6,808.3,1095.1,808.9z"/>
</g>
<g>
	<path class="st0" d="M994.7,787.7c-2.8,6.3-10.1,9.3-16.5,6.5s-9.3-10.1-6.5-16.5s10.1-9.3,16.5-6.5S997.4,781.4,994.7,787.7z"/>
	<path class="st4" d="M982.2,788.8l2.8-7.2l0.4,1.7c0.2,0.6,0.8,1.1,1.5,1s1.2-0.8,1.1-1.5l-1.4-6.6c-0.1-0.5-0.7-0.8-1.1-0.5
		l-5.7,3.6c-0.7,0.4-0.8,1.3-0.4,1.9c0.4,0.4,1,0.6,1.5,0.3l1.8-1l-3,7.3c-0.3,0.7,0,1.5,0.7,1.8l0,0
		C981.2,789.9,981.9,789.6,982.2,788.8z"/>
</g>
<g>
	<path class="st0" d="M1772,1027c2.9-6.3,10.2-9.2,16.6-6.3s9.2,10.2,6.3,16.6c-2.9,6.4-10.2,9.2-16.6,6.3
		C1771.9,1040.7,1769.2,1033.3,1772,1027z"/>
	<path class="st4" d="M1784.5,1026.1l-2.9,7.2l-0.4-1.7c-0.2-0.6-0.8-1.1-1.5-1s-1.2,0.8-1.1,1.5l1.3,6.6c0.1,0.5,0.7,0.8,1.1,0.5
		l5.7-3.5c0.7-0.4,0.8-1.3,0.4-1.9c-0.4-0.4-1-0.6-1.5-0.3l-1.8,1l3.1-7.3c0.3-0.7,0-1.5-0.7-1.8l0,0
		C1785.5,1025,1784.8,1025.3,1784.5,1026.1z"/>
</g>
<g>
	<path class="st0" d="M136.2,1089.9c-2.8,6.3-10.1,9.3-16.5,6.5c-6.3-2.8-9.3-10.1-6.5-16.5c2.8-6.3,10.1-9.3,16.5-6.5
		C136,1076.2,138.9,1083.5,136.2,1089.9z"/>
	<path class="st4" d="M123.7,1091l2.8-7.2l0.4,1.7c0.2,0.6,0.8,1.1,1.5,1c0.7-0.1,1.2-0.8,1.1-1.5l-1.4-6.6
		c-0.1-0.5-0.7-0.8-1.1-0.5l-5.7,3.6c-0.7,0.4-0.8,1.3-0.4,1.9c0.4,0.4,1,0.6,1.5,0.3l1.8-1l-3,7.3c-0.3,0.7,0,1.5,0.7,1.8l0,0
		C122.6,1092.1,123.4,1091.7,123.7,1091z"/>
</g>
<g>
	<path class="st0" d="M805.6,957.3c-2.8,6.3-10.1,9.3-16.5,6.5c-6.3-2.8-9.3-10.1-6.5-16.5c2.8-6.3,10.1-9.3,16.5-6.5
		C805.4,943.6,808.3,950.9,805.6,957.3z"/>
	<path class="st4" d="M793.1,958.4l2.8-7.2l0.4,1.7c0.2,0.6,0.8,1.1,1.5,1s1.2-0.8,1.1-1.5l-1.4-6.6c-0.1-0.5-0.7-0.8-1.1-0.5
		l-5.7,3.6c-0.7,0.4-0.8,1.3-0.4,1.9c0.4,0.4,1,0.6,1.5,0.3l1.8-1l-3,7.3c-0.3,0.7,0,1.5,0.7,1.8l0,0
		C792,959.5,792.8,959.1,793.1,958.4z"/>
</g>
<g>
	<path class="st0" d="M1438.5,856.1c4.6,5.1,4.4,13-0.8,17.7c-5.1,4.6-13,4.4-17.7-0.8c-4.6-5.1-4.4-13,0.8-17.7
		C1425.9,850.7,1433.8,851.1,1438.5,856.1z"/>
	<path class="st4" d="M1434.4,868l-5.4-5.5l1.7,0.3c0.6,0.1,1.3-0.3,1.5-1s-0.2-1.4-0.9-1.6l-6.6-1.4c-0.5-0.1-1,0.3-0.9,0.8l1,6.7
		c0.1,0.8,0.9,1.3,1.6,1.1c0.5-0.2,1-0.7,0.9-1.2l-0.2-2.1l5.4,5.7c0.5,0.6,1.4,0.6,1.9,0.1l0,0
		C1434.9,869.4,1434.9,868.6,1434.4,868z"/>
</g>
<g>
	<path class="st0" d="M1359.1,781.3c4.6,5.1,4.4,13-0.8,17.7c-5.1,4.6-13,4.4-17.7-0.8c-4.6-5.1-4.4-13,0.8-17.7
		C1346.5,775.9,1354.4,776.3,1359.1,781.3z"/>
	<path class="st4" d="M1355,793.2l-5.4-5.5l1.7,0.3c0.6,0.1,1.3-0.3,1.5-1s-0.2-1.4-0.9-1.6l-6.6-1.4c-0.5-0.1-1,0.3-0.9,0.8l1,6.7
		c0.1,0.8,0.9,1.3,1.6,1.1c0.5-0.2,1-0.7,0.9-1.2l-0.2-2.1l5.4,5.7c0.5,0.6,1.4,0.6,1.9,0.1l0,0
		C1355.5,794.6,1355.5,793.8,1355,793.2z"/>
</g>
<g>
	<path class="st0" d="M1591.2,895.1c-2.8,6.3-10.1,9.3-16.5,6.5c-6.3-2.8-9.3-10.1-6.5-16.5c2.8-6.3,10.1-9.3,16.5-6.5
		C1591,881.4,1593.9,888.7,1591.2,895.1z"/>
	<path class="st4" d="M1578.7,896.2l2.8-7.2l0.4,1.7c0.2,0.6,0.8,1.1,1.5,1s1.2-0.8,1.1-1.5l-1.4-6.6c-0.1-0.5-0.7-0.8-1.1-0.5
		l-5.7,3.6c-0.7,0.4-0.8,1.3-0.4,1.9c0.4,0.4,1,0.6,1.5,0.3l1.8-1l-3,7.3c-0.3,0.7,0,1.5,0.7,1.8l0,0
		C1577.6,897.3,1578.4,896.9,1578.7,896.2z"/>
</g>
<g>
	<path class="st0" d="M296.4,1095.7c7.1,7.9,6.4,20-1.5,27.1s-20,6.4-27.1-1.5s-6.4-20,1.5-27.1
		C277.2,1087.2,289.3,1087.8,296.4,1095.7z"/>
	<path class="st4" d="M290.1,1113.8l-8.2-8.6l2.7,0.6c1.1,0.2,2.1-0.4,2.3-1.5c0.3-1.1-0.4-2.2-1.5-2.5l-10-2.2
		c-0.8-0.2-1.6,0.4-1.6,1.3l1.4,10.2c0.1,1.2,1.3,2,2.4,1.7c0.8-0.3,1.5-1,1.5-1.9l-0.3-3.2l8.1,8.9c0.8,0.8,2.1,0.9,2.9,0.1l0,0
		C290.9,1115.9,290.9,1114.6,290.1,1113.8z"/>
</g>
<g>
	<path class="st0" d="M1379.6,1140.3c15.9,17.8,14.5,45-3.3,61c-17.8,15.9-45,14.5-61-3.3c-15.9-17.8-14.5-45,3.3-61
		C1336.4,1121.1,1363.7,1122.5,1379.6,1140.3z"/>
	<path class="st4" d="M1365.4,1180.9l-18.5-19.3l6.1,1.3c2.4,0.4,4.7-1,5.3-3.4c0.7-2.4-0.9-5-3.3-5.7l-22.6-5
		c-1.8-0.4-3.7,1-3.6,2.8l3.1,23c0.1,2.7,2.8,4.5,5.4,3.8c1.8-0.6,3.3-2.3,3.3-4.3l-0.6-7.1l18.3,20c1.7,1.8,4.7,2,6.5,0.3l0,0
		C1367.1,1185.8,1367.1,1182.8,1365.4,1180.9z"/>
</g>
<g>
	<path class="st0" d="M1404.4,979.9c6.8,7.6,6.2,19.2-1.4,26.1c-7.6,6.8-19.2,6.2-26.1-1.4c-6.8-7.6-6.2-19.2,1.4-26.1
		C1385.9,971.7,1397.6,972.3,1404.4,979.9z"/>
	<path class="st4" d="M1398.3,997.3l-7.9-8.3l2.6,0.6c1,0.2,2-0.4,2.3-1.5c0.3-1-0.4-2.1-1.4-2.4l-9.7-2.1c-0.8-0.2-1.6,0.4-1.5,1.2
		l1.3,9.8c0,1.2,1.2,1.9,2.3,1.6c0.8-0.3,1.4-1,1.4-1.8l-0.3-3l7.8,8.6c0.7,0.8,2,0.9,2.8,0.1l0,0
		C1399.1,999.4,1399.1,998.1,1398.3,997.3z"/>
</g>
<g>
	<path class="st4" d="M777.3,1142.1c2.8-1.4,4-4.8,2.6-7.6l-14.1-29.8c-17.4-36.7-56.6-17.3-56.6-17.3
		c-39.9,18.9-22.2,55.1-22.2,55.1l34.6,73.1l15.2-7.1l-31.9-67.3c0,0-13-25.8,11.3-37.3c0,0,23.6-14.1,37.2,14.7l10.8,23.5
		c1.4,2.9,4.9,4.1,7.8,2.7L777.3,1142.1z"/>
	<path class="st0" d="M799.7,1159.7l-90.6,42.9c-1.5,0.7-2.1,2.4-1.4,3.8l24.8,52.5c0.7,1.4,2.3,2.1,3.8,1.4l90.6-42.9
		c1.4-0.7,2.1-2.3,1.4-3.8l-24.8-52.5C802.9,1159.7,801.1,1159,799.7,1159.7z M768.9,1207.7l5.3,11c0.6,1.2,0.1,2.7-1.1,3.3
		s-2.7,0.1-3.3-1.1l-5.2-10.9c-2.6,0.3-5.3-1.1-6.5-3.8c-1.6-3.3-0.2-7.2,3.1-8.8c3.3-1.6,7.2-0.2,8.8,3.1
		C771.2,1202.9,770.6,1205.8,768.9,1207.7z"/>
	<path class="st3" d="M693.5,1137.2c-0.1,0.1-0.3,0.1-0.3,0.2c-1.4,0.4-2.8-0.3-3.3-1.6c-0.1-0.3-10-32.3,23.5-44.1
		c1.4-0.5,2.8,0.3,3.3,1.6c0.5,1.3-0.3,2.8-1.6,3.3c-28.8,10.1-20.7,36.5-20.3,37.6C695.3,1135.3,694.6,1136.5,693.5,1137.2z"/>
</g>
<g>
	<path class="st4" d="M1706.6,1166.8c2.5,1,5.3-0.1,6.4-2.5l11.5-25.7c14.2-31.7-20.2-46.4-20.2-46.4
		c-34.5-15.4-48.2,16.2-48.2,16.2l-28.3,63.1l13.1,5.9l26-58.2c0,0,9.6-22.8,30.5-13.4c0,0,22.3,7.5,11.1,32.4l-9.3,20.1
		c-1.1,2.5,0.1,5.5,2.6,6.6L1706.6,1166.8z"/>
	<path class="st0" d="M1707.6,1191.1l-78.3-35.1c-1.3-0.6-2.7,0-3.2,1.2l-20.4,45.3c-0.5,1.2-0.1,2.7,1.2,3.2l78.3,35.1
		c1.2,0.5,2.7,0.1,3.2-1.2l20.4-45.3C1709.4,1193.2,1708.9,1191.6,1707.6,1191.1z M1659.3,1197.8l-4.2,9.6c-0.4,1.1-1.7,1.6-2.8,1.1
		s-1.6-1.7-1.1-2.8l4.2-9.4c-1.6-1.5-2.2-4.1-1.1-6.3c1.3-2.9,4.6-4.1,7.4-2.9c2.9,1.3,4.1,4.6,2.9,7.4
		C1663.7,1196.6,1661.5,1197.8,1659.3,1197.8z"/>
	<path class="st3" d="M1663.2,1109.6c-0.1,0-0.2-0.1-0.3-0.1c-1-0.7-1.4-2-0.8-3c0.1-0.2,15.4-24.5,41.7-9.2c1.1,0.6,1.4,2,0.8,3
		s-2,1.4-3,0.8c-22.6-13.1-35.2,6.8-35.7,7.7C1665.5,1109.7,1664.3,1109.9,1663.2,1109.6z"/>
</g>
<g>
	<path class="st4" d="M1537,1036.5c1.6,0.5,3.4-0.4,4-2.1l5.6-17.5c6.9-21.5-16.3-28.5-16.3-28.5c-23.3-7.5-30,13.9-30,13.9
		l-13.9,42.7l8.8,2.9l12.7-39.3c0,0,4.6-15.4,18.7-10.8c0,0,14.9,3.2,9.4,20.2l-4.6,13.6c-0.5,1.7,0.4,3.5,2.1,4L1537,1036.5z"/>
	<path class="st0" d="M1539.4,1052.1l-52.9-17.1c-0.8-0.3-1.8,0.2-2,1l-9.9,30.7c-0.3,0.8,0.2,1.7,1,2l52.9,17.1
		c0.8,0.3,1.7-0.2,2-1l9.9-30.7C1540.7,1053.3,1540.2,1052.3,1539.4,1052.1z M1508.7,1059.8l-2.1,6.5c-0.3,0.7-1,1.2-1.7,0.9
		c-0.7-0.3-1.2-1-0.9-1.7l2.1-6.4c-1.2-0.9-1.7-2.4-1.2-4c0.6-1.9,2.6-3,4.6-2.3c1.9,0.6,3,2.6,2.3,4.6
		C1511.4,1058.7,1510.2,1059.6,1508.7,1059.8z"/>
	<path class="st3" d="M1505.1,1002.6c-0.1,0-0.1-0.1-0.2-0.1c-0.7-0.4-1-1.2-0.7-1.9c0.1-0.2,8.2-16.8,26.3-8.8
		c0.7,0.4,1.1,1.2,0.7,1.9s-1.2,1-1.9,0.7c-15.5-6.8-22.2,6.8-22.5,7.5C1506.6,1002.5,1505.8,1002.8,1505.1,1002.6z"/>
</g>
<g>
	<path class="st4" d="M1610.3,787.6c1.6,0.5,3.4-0.4,4-2.1l5.6-17.5c6.9-21.5-16.3-28.5-16.3-28.5c-23.3-7.5-30,13.9-30,13.9
		l-13.9,42.7l8.8,2.9l12.7-39.3c0,0,4.6-15.4,18.7-10.8c0,0,14.9,3.2,9.4,20.2l-4.6,13.6c-0.5,1.7,0.4,3.5,2.1,4L1610.3,787.6z"/>
	<path class="st0" d="M1612.7,803.2l-52.9-17.1c-0.8-0.3-1.8,0.2-2,1l-9.9,30.7c-0.3,0.8,0.2,1.7,1,2l52.9,17.1c0.8,0.3,1.7-0.2,2-1
		l9.9-30.7C1614,804.4,1613.5,803.4,1612.7,803.2z M1582,810.9l-2.1,6.5c-0.3,0.7-1,1.2-1.7,0.9c-0.7-0.3-1.2-1-0.9-1.7l2.1-6.4
		c-1.2-0.9-1.7-2.4-1.2-4c0.6-1.9,2.6-3,4.6-2.3c1.9,0.6,3,2.6,2.3,4.6C1584.7,809.8,1583.5,810.7,1582,810.9z"/>
	<path class="st3" d="M1578.4,753.7c-0.1,0-0.1-0.1-0.2-0.1c-0.7-0.4-1-1.2-0.7-1.9c0.1-0.2,8.2-16.8,26.3-8.8
		c0.7,0.4,1.1,1.2,0.7,1.9s-1.2,1-1.9,0.7c-15.5-6.8-22.2,6.8-22.5,7.5C1579.9,753.6,1579.1,753.9,1578.4,753.7z"/>
</g>
<g>
	<path class="st4" d="M45,1171.7c1.8,0.6,3.8-0.5,4.4-2.3l6.2-19.4c7.7-23.9-18.1-31.7-18.1-31.7c-25.9-8.3-33.3,15.4-33.3,15.4
		l-15.4,47.5l9.8,3.2l14.1-43.7c0,0,5.1-17.1,20.8-12c0,0,16.6,3.6,10.5,22.4l-5.1,15.1c-0.6,1.9,0.4,3.9,2.3,4.5L45,1171.7z"/>
	<path class="st0" d="M47.7,1189l-58.8-19c-0.9-0.3-2,0.2-2.2,1.1l-11,34.1c-0.3,0.9,0.2,1.9,1.1,2.2l58.8,19
		c0.9,0.3,1.9-0.2,2.2-1.1l11-34.1C49.1,1190.4,48.6,1189.3,47.7,1189z M13.6,1197.6l-2.3,7.2c-0.3,0.8-1.1,1.3-1.9,1
		c-0.8-0.3-1.3-1.1-1-1.9l2.3-7.1c-1.3-1-1.9-2.7-1.3-4.4c0.7-2.1,2.9-3.3,5.1-2.6c2.1,0.7,3.3,2.9,2.6,5.1
		C16.6,1196.4,15.2,1197.4,13.6,1197.6z"/>
	<path class="st3" d="M9.6,1134c-0.1,0-0.1-0.1-0.2-0.1c-0.8-0.4-1.1-1.3-0.8-2.1c0.1-0.2,9.1-18.7,29.2-9.8
		c0.8,0.4,1.2,1.3,0.8,2.1c-0.4,0.8-1.3,1.1-2.1,0.8c-17.2-7.6-24.7,7.6-25,8.3C11.2,1133.9,10.3,1134.3,9.6,1134z"/>
</g>
<g>
	<path class="st4" d="M143,952.4c1.8,0.6,3.8-0.5,4.4-2.3l6.2-19.4c7.7-23.9-18.1-31.7-18.1-31.7c-25.9-8.3-33.3,15.4-33.3,15.4
		l-15.4,47.5l9.8,3.2l14.1-43.7c0,0,5.1-17.1,20.8-12c0,0,16.6,3.6,10.5,22.4l-5.1,15.1c-0.6,1.9,0.4,3.9,2.3,4.5L143,952.4z"/>
	<path class="st0" d="M145.7,969.7l-58.8-19c-0.9-0.3-2,0.2-2.2,1.1l-11,34.1c-0.3,0.9,0.2,1.9,1.1,2.2l58.8,19
		c0.9,0.3,1.9-0.2,2.2-1.1l11-34.1C147.1,971.1,146.6,970,145.7,969.7z M111.6,978.3l-2.3,7.2c-0.3,0.8-1.1,1.3-1.9,1
		s-1.3-1.1-1-1.9l2.3-7.1c-1.3-1-1.9-2.7-1.3-4.4c0.7-2.1,2.9-3.3,5.1-2.6c2.1,0.7,3.3,2.9,2.6,5.1
		C114.6,977.1,113.2,978.1,111.6,978.3z"/>
	<path class="st3" d="M107.6,914.7c-0.1,0-0.1-0.1-0.2-0.1c-0.8-0.4-1.1-1.3-0.8-2.1c0.1-0.2,9.1-18.7,29.2-9.8
		c0.8,0.4,1.2,1.3,0.8,2.1c-0.4,0.8-1.3,1.1-2.1,0.8c-17.2-7.6-24.7,7.6-25,8.3C109.2,914.6,108.3,915,107.6,914.7z"/>
</g>
<g>
	<path class="st4" d="M1004.9,1082.4c1.1-0.5,1.6-1.9,1-3l-5.6-11.7c-6.8-14.4-22.2-6.8-22.2-6.8c-15.6,7.4-8.7,21.5-8.7,21.5
		l13.6,28.7l5.9-2.8l-12.5-26.4c0,0-5.1-10.1,4.4-14.6c0,0,9.2-5.6,14.6,5.7l4.3,9.2c0.5,1.1,1.9,1.7,3,1L1004.9,1082.4z"/>
	<path class="st0" d="M1013.7,1089.2l-35.4,16.8c-0.5,0.3-0.8,1-0.5,1.5l9.7,20.6c0.3,0.5,1,0.8,1.5,0.5l35.4-16.8
		c0.5-0.3,0.8-1,0.5-1.5l-9.7-20.6C1015,1089.1,1014.3,1089,1013.7,1089.2z M1001.7,1108l2,4.3c0.3,0.5,0,1-0.4,1.3
		c-0.5,0.3-1,0-1.3-0.4l-2-4.3c-1,0.1-2.1-0.4-2.5-1.5c-0.6-1.3-0.1-2.9,1.2-3.5s2.9-0.1,3.5,1.2
		C1002.6,1106.2,1002.3,1107.2,1001.7,1108z"/>
	<path class="st3" d="M972.2,1080.4C972.2,1080.4,972.1,1080.4,972.2,1080.4c-0.6,0.3-1.2,0-1.4-0.5c0-0.1-3.9-12.6,9.2-17.3
		c0.5-0.2,1.1,0.1,1.3,0.6s-0.1,1.1-0.6,1.3c-11.3,4-8.1,14.2-8,14.8C972.9,1079.6,972.6,1080.1,972.2,1080.4z"/>
</g>
<g>
	<path class="st4" d="M1279.8,929.3c1.1-0.5,1.6-1.9,1-3l-5.6-11.7c-6.8-14.4-22.2-6.8-22.2-6.8c-15.6,7.4-8.7,21.5-8.7,21.5
		l13.6,28.7l5.9-2.8l-12.5-26.4c0,0-5.1-10.1,4.4-14.6c0,0,9.2-5.6,14.6,5.7l4.3,9.2c0.5,1.1,1.9,1.7,3,1L1279.8,929.3z"/>
	<path class="st0" d="M1288.6,936.1l-35.4,16.8c-0.5,0.3-0.8,1-0.5,1.5l9.7,20.6c0.3,0.5,1,0.8,1.5,0.5l35.4-16.8
		c0.5-0.3,0.8-1,0.5-1.5l-9.7-20.6C1289.9,936,1289.2,935.9,1288.6,936.1z M1276.6,954.9l2,4.3c0.3,0.5,0,1-0.4,1.3
		c-0.5,0.3-1,0-1.3-0.4l-2-4.3c-1,0.1-2.1-0.4-2.5-1.5c-0.6-1.3-0.1-2.9,1.2-3.5c1.3-0.6,2.9-0.1,3.5,1.2
		C1277.5,953.1,1277.2,954.1,1276.6,954.9z"/>
	<path class="st3" d="M1247.1,927.3C1247.1,927.3,1247,927.3,1247.1,927.3c-0.6,0.3-1.2,0-1.4-0.5c0-0.1-3.9-12.6,9.2-17.3
		c0.5-0.2,1.1,0.1,1.3,0.6c0.2,0.5-0.1,1.1-0.6,1.3c-11.3,4-8.1,14.2-8,14.8C1247.8,926.5,1247.5,927,1247.1,927.3z"/>
</g>
<g>
	<path class="st4" d="M1892.7,913.4c1.1-0.5,1.6-1.9,1-3l-5.6-11.7c-6.8-14.4-22.2-6.8-22.2-6.8c-15.6,7.4-8.7,21.5-8.7,21.5
		l13.6,28.7l5.9-2.8l-12.5-26.4c0,0-5.1-10.1,4.4-14.6c0,0,9.2-5.6,14.6,5.7l4.3,9.2c0.5,1.1,1.9,1.7,3,1L1892.7,913.4z"/>
	<path class="st0" d="M1901.5,920.2l-35.4,16.8c-0.5,0.3-0.8,1-0.5,1.5l9.7,20.6c0.3,0.5,1,0.8,1.5,0.5l35.4-16.8
		c0.5-0.3,0.8-1,0.5-1.5l-9.7-20.6C1902.8,920.1,1902.1,920,1901.5,920.2z M1889.5,939l2,4.3c0.3,0.5,0,1-0.4,1.3
		c-0.5,0.3-1,0-1.3-0.4l-2-4.3c-1,0.1-2.1-0.4-2.5-1.5c-0.6-1.3-0.1-2.9,1.2-3.5c1.3-0.6,2.9-0.1,3.5,1.2
		C1890.4,937.2,1890.1,938.2,1889.5,939z"/>
	<path class="st3" d="M1860,911.4C1860,911.4,1859.9,911.4,1860,911.4c-0.6,0.3-1.2,0-1.4-0.5c0-0.1-3.9-12.6,9.2-17.3
		c0.5-0.2,1.1,0.1,1.3,0.6c0.2,0.5-0.1,1.1-0.6,1.3c-11.3,4-8.1,14.2-8,14.8C1860.7,910.6,1860.4,911.1,1860,911.4z"/>
</g>
<path class="st0" d="M647.1,1077.9h-3.2c0-1.8-0.3-3.6-0.6-5.2l3.4-0.8c0.3-0.1,0.6-0.4,0.5-0.9c-1-3.6-2.6-6.9-5-9.7
	c-0.3-0.3-0.7-0.3-1-0.1l-2.7,2.3c-1.1-1.3-2.4-2.5-3.8-3.6l2.1-2.8c0.3-0.3,0.2-0.8-0.2-1c-3-2.1-6.4-3.6-10.1-4.3
	c-0.3-0.1-0.8,0.2-0.8,0.6l-0.6,3.4c-1.2-0.2-2.5-0.3-3.8-0.3c-0.4,0-1,0-1.4,0.1l-0.2-3.5c0-0.3-0.3-0.7-0.8-0.7
	c-3.6,0.3-7.2,1.4-10.4,3.1c-0.3,0.2-0.4,0.6-0.3,1l1.7,3c-1.5,0.9-3,1.9-4.2,3.1l-2.3-2.5c-0.3-0.3-0.7-0.3-1,0
	c-2.6,2.6-4.7,5.7-6,9.1c-0.2,0.3,0.1,0.8,0.4,0.9l3.3,1.2c-0.6,1.7-1,3.3-1.2,5.1l-3.4-0.3c-0.4-0.1-0.8,0.3-0.8,0.7
	c0,2.2,0.4,7.8,1.2,10.7c0.1,0.4,0.5,0.6,1,0.4c1.1-0.4,3.2-1.2,3.2-1.2c0.6,1.7,1.4,3.2,2.3,4.7l-2.9,1.9c-0.3,0.3-0.4,0.7-0.2,1
	c2.1,3,4.9,5.6,8,7.5c0.3,0.2,0.8,0.1,1-0.3l1.7-3c1.5,0.9,3.1,1.6,4.8,2.1l-1,3.3c-0.1,0.3,0.1,0.8,0.5,0.9c2.3,0.6,4.6,1,6.9,1
	c1.3,0,2.7-0.1,4-0.3c0.3-0.1,0.6-0.4,0.6-0.8l-0.6-3.4c1.7-0.3,3.4-0.8,5-1.5l1.4,3.2c0.2,0.3,0.6,0.5,1,0.3
	c3.3-1.6,6.3-3.8,8.8-6.5c0.3-0.3,0.3-0.8-0.1-1l-2.7-2.3c1.1-1.3,2.1-2.8,2.9-4.3l3.1,1.6c0.3,0.2,0.7,0.1,0.9-0.3
	c2-3,2.4-8.4,2.5-10.6C648,1078.3,647.5,1077.9,647.1,1077.9z M621.3,1088.4c-5.7,0-10.4-4.7-10.4-10.3c0-5.7,4.7-10.4,10.4-10.4
	s10.4,4.7,10.4,10.4S627.1,1088.4,621.3,1088.4z"/>
<path class="st0" d="M1788.5,947.1h-3.2c0-1.8-0.3-3.6-0.6-5.2l3.4-0.8c0.3-0.1,0.6-0.4,0.5-0.9c-1-3.6-2.6-6.9-5-9.7
	c-0.3-0.3-0.7-0.3-1-0.1l-2.7,2.3c-1.1-1.3-2.4-2.5-3.8-3.6l2.1-2.8c0.3-0.3,0.2-0.8-0.2-1c-3-2.1-6.4-3.6-10.1-4.3
	c-0.3-0.1-0.8,0.2-0.8,0.6l-0.6,3.4c-1.2-0.2-2.5-0.3-3.8-0.3c-0.4,0-1,0-1.4,0.1l-0.2-3.5c0-0.3-0.3-0.7-0.8-0.7
	c-3.6,0.3-7.2,1.4-10.4,3.1c-0.3,0.2-0.4,0.6-0.3,1l1.7,3c-1.5,0.9-3,1.9-4.2,3.1l-2.3-2.5c-0.3-0.3-0.7-0.3-1,0
	c-2.6,2.6-4.7,5.7-6,9.1c-0.2,0.3,0.1,0.8,0.4,0.9l3.3,1.2c-0.6,1.7-1,3.3-1.2,5.1l-3.4-0.3c-0.4-0.1-0.8,0.3-0.8,0.7
	c0,2.2,0.4,7.8,1.2,10.7c0.1,0.4,0.5,0.6,1,0.4c1.1-0.4,3.2-1.2,3.2-1.2c0.6,1.7,1.4,3.2,2.3,4.7l-2.9,1.9c-0.3,0.3-0.4,0.7-0.2,1
	c2.1,3,4.9,5.6,8,7.5c0.3,0.2,0.8,0.1,1-0.3l1.7-3c1.5,0.9,3.1,1.6,4.8,2.1l-1,3.3c-0.1,0.3,0.1,0.8,0.5,0.9c2.3,0.6,4.6,1,6.9,1
	c1.3,0,2.7-0.1,4-0.3c0.3-0.1,0.6-0.4,0.6-0.8l-0.6-3.4c1.7-0.3,3.4-0.8,5-1.5l1.4,3.2c0.2,0.3,0.6,0.5,1,0.3
	c3.3-1.6,6.3-3.8,8.8-6.5c0.3-0.3,0.3-0.8-0.1-1l-2.7-2.3c1.1-1.3,2.1-2.8,2.9-4.3l3.1,1.6c0.3,0.2,0.7,0.1,0.9-0.3
	c2-3,2.4-8.4,2.5-10.6C1789.4,947.5,1788.9,947.1,1788.5,947.1z M1762.7,957.6c-5.7,0-10.4-4.7-10.4-10.3c0-5.7,4.7-10.4,10.4-10.4
	c5.7,0,10.4,4.7,10.4,10.4S1768.5,957.6,1762.7,957.6z"/>
<path class="st0" d="M1013.2,966.7h-3.2c0-1.8-0.3-3.6-0.6-5.2l3.4-0.8c0.3-0.1,0.6-0.4,0.5-0.9c-1-3.6-2.6-6.9-5-9.7
	c-0.3-0.3-0.7-0.3-1-0.1l-2.7,2.3c-1.1-1.3-2.4-2.5-3.8-3.6l2.1-2.8c0.3-0.3,0.2-0.8-0.2-1c-3-2.1-6.4-3.6-10.1-4.3
	c-0.3-0.1-0.8,0.2-0.8,0.6l-0.6,3.4c-1.2-0.2-2.5-0.3-3.8-0.3c-0.4,0-1,0-1.4,0.1l-0.2-3.5c0-0.3-0.3-0.7-0.8-0.7
	c-3.6,0.3-7.2,1.4-10.4,3.1c-0.3,0.2-0.4,0.6-0.3,1l1.7,3c-1.5,0.9-3,1.9-4.2,3.1l-2.3-2.5c-0.3-0.3-0.7-0.3-1,0
	c-2.6,2.6-4.7,5.7-6,9.1c-0.2,0.3,0.1,0.8,0.4,0.9l3.3,1.2c-0.6,1.7-1,3.3-1.2,5.1l-3.4-0.3c-0.4-0.1-0.8,0.3-0.8,0.7
	c0,2.2,0.4,7.8,1.2,10.7c0.1,0.4,0.5,0.6,1,0.4c1.1-0.4,3.2-1.2,3.2-1.2c0.6,1.7,1.4,3.2,2.3,4.7l-2.9,1.9c-0.3,0.3-0.4,0.7-0.2,1
	c2.1,3,4.9,5.6,8,7.5c0.3,0.2,0.8,0.1,1-0.3l1.7-3c1.5,0.9,3.1,1.6,4.8,2.1l-1,3.3c-0.1,0.3,0.1,0.8,0.5,0.9c2.3,0.6,4.6,1,6.9,1
	c1.3,0,2.7-0.1,4-0.3c0.3-0.1,0.6-0.4,0.6-0.8l-0.6-3.4c1.7-0.3,3.4-0.8,5-1.5l1.4,3.2c0.2,0.3,0.6,0.5,1,0.3
	c3.3-1.6,6.3-3.8,8.8-6.5c0.3-0.3,0.3-0.8-0.1-1l-2.7-2.3c1.1-1.3,2.1-2.8,2.9-4.3l3.1,1.6c0.3,0.2,0.7,0.1,0.9-0.3
	c2-3,2.4-8.4,2.5-10.6C1014.1,967.1,1013.6,966.7,1013.2,966.7z M987.4,977.2c-5.7,0-10.4-4.7-10.4-10.3c0-5.7,4.7-10.4,10.4-10.4
	s10.4,4.7,10.4,10.4C997.8,972.6,993.2,977.2,987.4,977.2z"/>
<path class="st0" d="M1303.8,1099.8h-3.2c0-1.8-0.3-3.6-0.6-5.2l3.4-0.8c0.3-0.1,0.6-0.4,0.5-0.9c-1-3.6-2.6-6.9-5-9.7
	c-0.3-0.3-0.7-0.3-1-0.1l-2.7,2.3c-1.1-1.3-2.4-2.5-3.8-3.6l2.1-2.8c0.3-0.3,0.2-0.8-0.2-1c-3-2.1-6.4-3.6-10.1-4.3
	c-0.3-0.1-0.8,0.2-0.8,0.6l-0.6,3.4c-1.2-0.2-2.5-0.3-3.8-0.3c-0.4,0-1,0-1.4,0.1l-0.2-3.5c0-0.3-0.3-0.7-0.8-0.7
	c-3.6,0.3-7.2,1.4-10.4,3.1c-0.3,0.2-0.4,0.6-0.3,1l1.7,3c-1.5,0.9-3,1.9-4.2,3.1l-2.3-2.5c-0.3-0.3-0.7-0.3-1,0
	c-2.6,2.6-4.7,5.7-6,9.1c-0.2,0.3,0.1,0.8,0.4,0.9l3.3,1.2c-0.6,1.7-1,3.3-1.2,5.1l-3.4-0.3c-0.4-0.1-0.8,0.3-0.8,0.7
	c0,2.2,0.4,7.8,1.2,10.7c0.1,0.4,0.5,0.6,1,0.4c1.1-0.4,3.2-1.2,3.2-1.2c0.6,1.7,1.4,3.2,2.3,4.7l-2.9,1.9c-0.3,0.3-0.4,0.7-0.2,1
	c2.1,3,4.9,5.6,8,7.5c0.3,0.2,0.8,0.1,1-0.3l1.7-3c1.5,0.9,3.1,1.6,4.8,2.1l-1,3.3c-0.1,0.3,0.1,0.8,0.5,0.9c2.3,0.6,4.6,1,6.9,1
	c1.3,0,2.7-0.1,4-0.3c0.3-0.1,0.6-0.4,0.6-0.8l-0.6-3.4c1.7-0.3,3.4-0.8,5-1.5l1.4,3.2c0.2,0.3,0.6,0.5,1,0.3
	c3.3-1.6,6.3-3.8,8.8-6.5c0.3-0.3,0.3-0.8-0.1-1l-2.7-2.3c1.1-1.3,2.1-2.8,2.9-4.3l3.1,1.6c0.3,0.2,0.7,0.1,0.9-0.3
	c2-3,2.4-8.4,2.5-10.6C1304.7,1100.2,1304.2,1099.8,1303.8,1099.8z M1278,1110.3c-5.7,0-10.4-4.7-10.4-10.3
	c0-5.7,4.7-10.4,10.4-10.4c5.7,0,10.4,4.7,10.4,10.4C1288.4,1105.7,1283.8,1110.3,1278,1110.3z"/>
<path class="st0" d="M1434.9,702.7h-3.2c0-1.8-0.3-3.6-0.6-5.2l3.4-0.8c0.3-0.1,0.6-0.4,0.5-0.9c-1-3.6-2.6-6.9-5-9.7
	c-0.3-0.3-0.7-0.3-1-0.1l-2.7,2.3c-1.1-1.3-2.4-2.5-3.8-3.6l2.1-2.8c0.3-0.3,0.2-0.8-0.2-1c-3-2.1-6.4-3.6-10.1-4.3
	c-0.3-0.1-0.8,0.2-0.8,0.6l-0.6,3.4c-1.2-0.2-2.5-0.3-3.8-0.3c-0.4,0-1,0-1.4,0.1l-0.2-3.5c0-0.3-0.3-0.7-0.8-0.7
	c-3.6,0.3-7.2,1.4-10.4,3.1c-0.3,0.2-0.4,0.6-0.3,1l1.7,3c-1.5,0.9-3,1.9-4.2,3.1l-2.3-2.5c-0.3-0.3-0.7-0.3-1,0
	c-2.6,2.6-4.7,5.7-6,9.1c-0.2,0.3,0.1,0.8,0.4,0.9l3.3,1.2c-0.6,1.7-1,3.3-1.2,5.1l-3.4-0.3c-0.4-0.1-0.8,0.3-0.8,0.7
	c0,2.2,0.4,7.8,1.2,10.7c0.1,0.4,0.5,0.6,1,0.4c1.1-0.4,3.2-1.2,3.2-1.2c0.6,1.7,1.4,3.2,2.3,4.7l-2.9,1.9c-0.3,0.3-0.4,0.7-0.2,1
	c2.1,3,4.9,5.6,8,7.5c0.3,0.2,0.8,0.1,1-0.3l1.7-3c1.5,0.9,3.1,1.6,4.8,2.1l-1,3.3c-0.1,0.3,0.1,0.8,0.5,0.9c2.3,0.6,4.6,1,6.9,1
	c1.3,0,2.7-0.1,4-0.3c0.3-0.1,0.6-0.4,0.6-0.8l-0.6-3.4c1.7-0.3,3.4-0.8,5-1.5l1.4,3.2c0.2,0.3,0.6,0.5,1,0.3
	c3.3-1.6,6.3-3.8,8.8-6.5c0.3-0.3,0.3-0.8-0.1-1l-2.7-2.3c1.1-1.3,2.1-2.8,2.9-4.3l3.1,1.6c0.3,0.2,0.7,0.1,0.9-0.3
	c2-3,2.4-8.4,2.5-10.6C1435.8,703.1,1435.3,702.7,1434.9,702.7z M1409.1,713.2c-5.7,0-10.4-4.7-10.4-10.3c0-5.7,4.7-10.4,10.4-10.4
	c5.7,0,10.4,4.7,10.4,10.4C1419.5,708.6,1414.9,713.2,1409.1,713.2z"/>
<path class="st0" d="M57.9,1055.1h-4.3c0-2.3-0.3-4.7-0.9-6.9l4.5-1c0.5-0.1,0.8-0.6,0.7-1.1c-1.3-4.7-3.6-9.1-6.6-13
	c-0.3-0.4-1-0.4-1.3-0.1l-3.6,3c-1.5-1.7-3.2-3.4-5-4.8l2.8-3.7c0.3-0.4,0.3-1-0.2-1.3c-4-2.8-8.6-4.8-13.4-5.7
	c-0.5-0.1-1,0.3-1.1,0.8l-0.8,4.5c-1.7-0.3-3.4-0.4-5.1-0.4c-0.6,0-1.2,0-1.8,0.1l-0.3-4.6c0-0.5-0.5-1-1-0.9
	c-4.9,0.4-9.6,1.9-13.9,4.2c-0.4,0.3-0.6,0.9-0.3,1.3l2.3,4c-2,1.2-3.9,2.6-5.6,4.2l-3.2-3.4c-0.3-0.3-1-0.4-1.3,0
	c-3.5,3.5-6.2,7.6-8,12.2c-0.2,0.5,0.1,1,0.5,1.2l4.3,1.6c-0.8,2.2-1.3,4.4-1.6,6.8l-4.5-0.5c-0.5-0.1-1,0.3-1,1
	c0.1,2.9,0.6,10.4,1.7,14.2c0.2,0.5,0.7,0.8,1.2,0.6c1.5-0.5,4.3-1.6,4.3-1.6c0.8,2.2,1.9,4.3,3.1,6.2l-3.8,2.5
	c-0.4,0.3-0.5,0.9-0.3,1.3c2.8,4,6.4,7.4,10.6,10c0.4,0.3,1,0.1,1.3-0.3l2.3-4c2,1.1,4.2,2.1,6.4,2.8l-1.3,4.4
	c-0.2,0.5,0.2,1,0.6,1.1c3,0.8,6.1,1.2,9.2,1.2c1.7,0,3.6-0.1,5.3-0.4c0.5-0.1,0.9-0.6,0.8-1l-0.8-4.5c2.3-0.4,4.6-1,6.7-2l1.8,4.3
	c0.2,0.4,0.8,0.7,1.2,0.5c4.4-2.1,8.4-5,11.6-8.7c0.3-0.4,0.3-1-0.1-1.3l-3.6-3c1.5-1.8,2.8-3.7,3.8-5.8l4.1,2.1
	c0.4,0.2,1,0.1,1.2-0.3c2.7-4.1,3.3-11.2,3.4-14.1C59.1,1055.6,58.6,1055.1,57.9,1055.1z M23.7,1069.1c-7.6,0-13.8-6.2-13.8-13.8
	s6.2-13.8,13.8-13.8s13.8,6.2,13.8,13.8S31.3,1069.1,23.7,1069.1z"/>
<path class="st0" d="M1349.4,897.6h-1.9c0-1-0.2-2.1-0.3-3l2-0.4c0.3-0.1,0.3-0.3,0.3-0.5c-0.5-2.1-1.6-4.1-3-5.8
	c-0.2-0.2-0.4-0.2-0.6-0.1l-1.6,1.3c-0.7-0.8-1.4-1.5-2.3-2.1l1.2-1.7c0.2-0.2,0.1-0.4-0.1-0.6c-1.8-1.2-3.8-2.1-5.9-2.5
	c-0.3,0-0.4,0.1-0.5,0.3l-0.3,2c-0.7-0.1-1.5-0.2-2.3-0.2c-0.3,0-0.5,0-0.8,0l-0.1-2.1c0-0.3-0.2-0.4-0.4-0.3
	c-2.2,0.2-4.3,0.9-6.2,1.9c-0.2,0.1-0.3,0.3-0.2,0.6l1,1.7c-0.9,0.5-1.7,1.1-2.4,1.8l-1.4-1.5c-0.2-0.2-0.4-0.2-0.6,0
	c-1.6,1.6-2.8,3.4-3.6,5.4c-0.1,0.2,0,0.4,0.3,0.5l1.9,0.7c-0.3,1-0.6,2-0.7,3l-2-0.3c-0.3,0-0.4,0.2-0.4,0.4c0,1.3,0.3,4.6,0.7,6.3
	c0.1,0.3,0.3,0.3,0.5,0.3c0.7-0.3,1.9-0.7,1.9-0.7c0.3,1,0.9,1.9,1.4,2.8l-1.7,1.1c-0.2,0.2-0.3,0.4-0.1,0.6
	c1.2,1.7,2.9,3.3,4.7,4.4c0.2,0.1,0.4,0.1,0.6-0.2l1-1.7c0.9,0.5,1.8,1,2.9,1.2l-0.6,2c-0.1,0.3,0.1,0.4,0.3,0.5
	c1.3,0.3,2.7,0.5,4.1,0.5c0.8,0,1.6-0.1,2.3-0.2c0.3,0,0.3-0.3,0.3-0.5l-0.3-2c1-0.2,2-0.5,3-0.9l0.8,1.9c0.1,0.2,0.3,0.3,0.5,0.2
	c2-1,3.7-2.3,5.2-3.8c0.2-0.2,0.2-0.4-0.1-0.6l-1.6-1.3c0.7-0.8,1.2-1.7,1.7-2.6l1.8,1c0.2,0.1,0.4,0,0.5-0.2c1.2-1.8,1.5-5,1.5-6.3
	C1349.9,897.9,1349.7,897.6,1349.4,897.6z M1334.1,903.9c-3.4,0-6.2-2.8-6.2-6.2s2.8-6.2,6.2-6.2s6.2,2.8,6.2,6.2
	S1337.6,903.9,1334.1,903.9z"/>
<path class="st0" d="M1823,810.3h-1.9c0-1-0.2-2.1-0.3-3l2-0.4c0.3-0.1,0.3-0.3,0.3-0.5c-0.5-2.1-1.6-4.1-3-5.8
	c-0.2-0.2-0.4-0.2-0.6-0.1l-1.6,1.3c-0.7-0.8-1.4-1.5-2.3-2.1l1.2-1.7c0.2-0.2,0.1-0.4-0.1-0.6c-1.8-1.2-3.8-2.1-5.9-2.5
	c-0.3,0-0.4,0.1-0.5,0.3l-0.3,2c-0.7-0.1-1.5-0.2-2.3-0.2c-0.3,0-0.5,0-0.8,0l-0.1-2.1c0-0.3-0.2-0.4-0.4-0.3
	c-2.2,0.2-4.3,0.9-6.2,1.9c-0.2,0.1-0.3,0.3-0.2,0.6l1,1.7c-0.9,0.5-1.7,1.1-2.4,1.8l-1.4-1.5c-0.2-0.2-0.4-0.2-0.6,0
	c-1.6,1.6-2.8,3.4-3.6,5.4c-0.1,0.2,0,0.4,0.3,0.5l1.9,0.7c-0.3,1-0.6,2-0.7,3l-2-0.3c-0.3,0-0.4,0.2-0.4,0.4c0,1.3,0.3,4.6,0.7,6.3
	c0.1,0.3,0.3,0.3,0.5,0.3c0.7-0.3,1.9-0.7,1.9-0.7c0.3,1,0.9,1.9,1.4,2.8l-1.7,1.1c-0.2,0.2-0.3,0.4-0.1,0.6
	c1.2,1.7,2.9,3.3,4.7,4.4c0.2,0.1,0.4,0.1,0.6-0.2l1-1.7c0.9,0.5,1.8,1,2.9,1.2l-0.6,2c-0.1,0.3,0.1,0.4,0.3,0.5
	c1.3,0.3,2.7,0.5,4.1,0.5c0.8,0,1.6-0.1,2.3-0.2c0.3,0,0.3-0.3,0.3-0.5l-0.3-2c1-0.2,2-0.5,3-0.9l0.8,1.9c0.1,0.2,0.3,0.3,0.5,0.2
	c2-1,3.7-2.3,5.2-3.8c0.2-0.2,0.2-0.4-0.1-0.6l-1.6-1.3c0.7-0.8,1.2-1.7,1.7-2.6l1.8,1c0.2,0.1,0.4,0,0.5-0.2c1.2-1.8,1.5-5,1.5-6.3
	C1823.5,810.6,1823.3,810.3,1823,810.3z M1807.7,816.6c-3.4,0-6.2-2.8-6.2-6.2s2.8-6.2,6.2-6.2c3.4,0,6.2,2.8,6.2,6.2
	S1811.2,816.6,1807.7,816.6z"/>
<path class="st0" d="M90.2,1207.3h-1.9c0-1-0.2-2.1-0.3-3l2-0.4c0.3-0.1,0.3-0.3,0.3-0.5c-0.5-2.1-1.6-4.1-3-5.8
	c-0.2-0.2-0.4-0.2-0.6-0.1l-1.6,1.3c-0.7-0.8-1.4-1.5-2.3-2.1l1.2-1.7c0.2-0.2,0.1-0.4-0.1-0.6c-1.8-1.2-3.8-2.1-5.9-2.5
	c-0.3,0-0.4,0.1-0.5,0.3l-0.3,2c-0.7-0.1-1.5-0.2-2.3-0.2c-0.3,0-0.5,0-0.8,0l-0.1-2.1c0-0.3-0.2-0.4-0.4-0.3
	c-2.2,0.2-4.3,0.9-6.2,1.9c-0.2,0.1-0.3,0.3-0.2,0.6l1,1.7c-0.9,0.5-1.7,1.1-2.4,1.8l-1.4-1.5c-0.2-0.2-0.4-0.2-0.6,0
	c-1.6,1.6-2.8,3.4-3.6,5.4c-0.1,0.2,0,0.4,0.3,0.5l1.9,0.7c-0.3,1-0.6,2-0.7,3l-2-0.3c-0.3,0-0.4,0.2-0.4,0.4c0,1.3,0.3,4.6,0.7,6.3
	c0.1,0.3,0.3,0.3,0.5,0.3c0.7-0.3,1.9-0.7,1.9-0.7c0.3,1,0.9,1.9,1.4,2.8l-1.7,1.1c-0.2,0.2-0.3,0.4-0.1,0.6
	c1.2,1.7,2.9,3.3,4.7,4.4c0.2,0.1,0.4,0.1,0.6-0.2l1-1.7c0.9,0.5,1.8,1,2.9,1.2l-0.6,2c-0.1,0.3,0.1,0.4,0.3,0.5
	c1.3,0.3,2.7,0.5,4.1,0.5c0.8,0,1.6-0.1,2.3-0.2c0.3,0,0.3-0.3,0.3-0.5l-0.3-2c1-0.2,2-0.5,3-0.9l0.8,1.9c0.1,0.2,0.3,0.3,0.5,0.2
	c2-1,3.7-2.3,5.2-3.8c0.2-0.2,0.2-0.4-0.1-0.6l-1.6-1.3c0.7-0.8,1.2-1.7,1.7-2.6l1.8,1c0.2,0.1,0.4,0,0.5-0.2c1.2-1.8,1.5-5,1.5-6.3
	C90.7,1207.6,90.4,1207.3,90.2,1207.3z M74.9,1213.6c-3.4,0-6.2-2.8-6.2-6.2c0-3.4,2.8-6.2,6.2-6.2s6.2,2.8,6.2,6.2
	S78.4,1213.6,74.9,1213.6z"/>
<path class="st0" d="M378.2,830.2h-1.9c0-1-0.2-2.1-0.3-3l2-0.4c0.3-0.1,0.3-0.3,0.3-0.5c-0.5-2.1-1.6-4.1-3-5.8
	c-0.2-0.2-0.4-0.2-0.6-0.1l-1.6,1.3c-0.7-0.8-1.4-1.5-2.3-2.1l1.2-1.7c0.2-0.2,0.1-0.4-0.1-0.6c-1.8-1.2-3.8-2.1-5.9-2.5
	c-0.3,0-0.4,0.1-0.5,0.3l-0.3,2c-0.7-0.1-1.5-0.2-2.3-0.2c-0.3,0-0.5,0-0.8,0l-0.1-2.1c0-0.3-0.2-0.4-0.4-0.3
	c-2.2,0.2-4.3,0.9-6.2,1.9c-0.2,0.1-0.3,0.3-0.2,0.6l1,1.7c-0.9,0.5-1.7,1.1-2.4,1.8l-1.4-1.5c-0.2-0.2-0.4-0.2-0.6,0
	c-1.6,1.6-2.8,3.4-3.6,5.4c-0.1,0.2,0,0.4,0.3,0.5l1.9,0.7c-0.3,1-0.6,2-0.7,3l-2-0.3c-0.3,0-0.4,0.2-0.4,0.4c0,1.3,0.3,4.6,0.7,6.3
	c0.1,0.3,0.3,0.3,0.5,0.3c0.7-0.3,1.9-0.7,1.9-0.7c0.3,1,0.9,1.9,1.4,2.8l-1.7,1.1c-0.2,0.2-0.3,0.4-0.1,0.6
	c1.2,1.7,2.9,3.3,4.7,4.4c0.2,0.1,0.4,0.1,0.6-0.2l1-1.7c0.9,0.5,1.8,1,2.9,1.2l-0.6,2c-0.1,0.3,0.1,0.4,0.3,0.5
	c1.3,0.3,2.7,0.5,4.1,0.5c0.8,0,1.6-0.1,2.3-0.2c0.3,0,0.3-0.3,0.3-0.5l-0.3-2c1-0.2,2-0.5,3-0.9l0.8,1.9c0.1,0.2,0.3,0.3,0.5,0.2
	c2-1,3.7-2.3,5.2-3.8c0.2-0.2,0.2-0.4-0.1-0.6l-1.6-1.3c0.7-0.8,1.2-1.7,1.7-2.6l1.8,1c0.2,0.1,0.4,0,0.5-0.2c1.2-1.8,1.5-5,1.5-6.3
	C378.8,830.4,378.5,830.2,378.2,830.2z M362.9,836.4c-3.4,0-6.2-2.8-6.2-6.2s2.8-6.2,6.2-6.2s6.2,2.8,6.2,6.2
	C369.1,833.7,366.4,836.4,362.9,836.4z"/>
<path class="st0" d="M175.3,710.1h-1.9c0-1-0.2-2.1-0.3-3l2-0.4c0.3-0.1,0.3-0.3,0.3-0.5c-0.5-2.1-1.6-4.1-3-5.8
	c-0.2-0.2-0.4-0.2-0.6-0.1l-1.6,1.3c-0.7-0.8-1.4-1.5-2.3-2.1l1.2-1.7c0.2-0.2,0.1-0.4-0.1-0.6c-1.8-1.2-3.8-2.1-5.9-2.5
	c-0.3,0-0.4,0.1-0.5,0.3l-0.3,2c-0.7-0.1-1.5-0.2-2.3-0.2c-0.3,0-0.5,0-0.8,0l-0.1-2.1c0-0.3-0.2-0.4-0.4-0.3
	c-2.2,0.2-4.3,0.9-6.2,1.9c-0.2,0.1-0.3,0.3-0.2,0.6l1,1.7c-0.9,0.5-1.7,1.1-2.4,1.8l-1.4-1.5c-0.2-0.2-0.4-0.2-0.6,0
	c-1.6,1.6-2.8,3.4-3.6,5.4c-0.1,0.2,0,0.4,0.3,0.5l1.9,0.7c-0.3,1-0.6,2-0.7,3l-2-0.3c-0.3,0-0.4,0.2-0.4,0.4c0,1.3,0.3,4.6,0.7,6.3
	c0.1,0.3,0.3,0.3,0.5,0.3c0.7-0.3,1.9-0.7,1.9-0.7c0.3,1,0.9,1.9,1.4,2.8l-1.7,1.1c-0.2,0.2-0.3,0.4-0.1,0.6
	c1.2,1.7,2.9,3.3,4.7,4.4c0.2,0.1,0.4,0.1,0.6-0.2l1-1.7c0.9,0.5,1.8,1,2.9,1.2l-0.6,2c-0.1,0.3,0.1,0.4,0.3,0.5
	c1.3,0.3,2.7,0.5,4.1,0.5c0.8,0,1.6-0.1,2.3-0.2c0.3,0,0.3-0.3,0.3-0.5l-0.3-2c1-0.2,2-0.5,3-0.9l0.8,1.9c0.1,0.2,0.3,0.3,0.5,0.2
	c2-1,3.7-2.3,5.2-3.8c0.2-0.2,0.2-0.4-0.1-0.6l-1.6-1.3c0.7-0.8,1.2-1.7,1.7-2.6l1.8,1c0.2,0.1,0.4,0,0.5-0.2c1.2-1.8,1.5-5,1.5-6.3
	C175.9,710.3,175.6,710.1,175.3,710.1z M160,716.3c-3.4,0-6.2-2.8-6.2-6.2s2.8-6.2,6.2-6.2s6.2,2.8,6.2,6.2
	C166.2,713.6,163.5,716.3,160,716.3z"/>
<g>
	<path class="st0" d="M1887.3,624.5l-21.9-19.5c-0.4-0.4-0.1-1.1,0.5-0.9l15.4,3.2l0.7,0.1l0.3-0.5l9.2-12.3c0.3-0.5,1-0.2,1,0.4
		l-3.6,28.9C1888.8,624.6,1887.9,625,1887.3,624.5z"/>
	<path class="st4" d="M1886,618.5c-0.2,0.1-1.2,0-1.5-0.8l-3.9-10.5l0.3,0.1c0.6,0.1,1.2-0.2,1.5-0.7l0.2-0.3l4,10.8
		C1886.9,617.8,1886.2,618.4,1886,618.5z"/>
</g>
<g>
	<path class="st0" d="M1672.4,709.3c-2.8,6.3-10.1,9.3-16.5,6.5s-9.3-10.1-6.5-16.5c2.8-6.4,10.1-9.3,16.5-6.5
		S1675.1,703,1672.4,709.3z"/>
	<path class="st4" d="M1659.9,710.4l2.8-7.2l0.4,1.7c0.2,0.6,0.8,1.1,1.5,1c0.7-0.1,1.2-0.8,1.1-1.5l-1.4-6.6
		c-0.1-0.5-0.7-0.8-1.1-0.5l-5.7,3.6c-0.7,0.4-0.8,1.3-0.4,1.9c0.4,0.4,1,0.6,1.5,0.3l1.8-1l-3,7.3c-0.3,0.7,0,1.5,0.7,1.8l0,0
		C1658.9,711.5,1659.6,711.2,1659.9,710.4z"/>
</g>
<g>
	<path class="st0" d="M1530.7,693.7c-2.8,6.3-10.1,9.3-16.5,6.5s-9.3-10.1-6.5-16.5c2.8-6.4,10.1-9.3,16.5-6.5
		S1533.4,687.4,1530.7,693.7z"/>
	<path class="st4" d="M1518.2,694.8l2.8-7.2l0.4,1.7c0.2,0.6,0.8,1.1,1.5,1c0.7-0.1,1.2-0.8,1.1-1.5l-1.4-6.6
		c-0.1-0.5-0.7-0.8-1.1-0.5l-5.7,3.6c-0.7,0.4-0.8,1.3-0.4,1.9c0.4,0.4,1,0.6,1.5,0.3l1.8-1l-3,7.3c-0.3,0.7,0,1.5,0.7,1.8l0,0
		C1517.2,695.9,1517.9,695.6,1518.2,694.8z"/>
</g>
<g>
	<path class="st0" d="M1718.1,529c6.5,2.2,10.2,9.2,8,15.8c-2.2,6.6-9.2,10.2-15.8,8s-10.2-9.2-8-15.8
		C1704.5,530.3,1711.6,526.9,1718.1,529z"/>
	<path class="st4" d="M1720.4,541.3l-7.4-2.1l1.7-0.6c0.6-0.3,1-0.9,0.9-1.6s-0.9-1.1-1.6-1l-6.4,2c-0.5,0.1-0.7,0.8-0.4,1.1
		l4.1,5.3c0.5,0.7,1.4,0.7,1.9,0.2c0.4-0.4,0.5-1.1,0.2-1.5l-1.2-1.7l7.5,2.3c0.7,0.2,1.5-0.1,1.7-0.9l0,0
		C1721.6,542.2,1721.2,541.6,1720.4,541.3z"/>
</g>
<path class="st0" d="M1803.8,704.4h-1.9c0-1-0.2-2.1-0.3-3l2-0.4c0.3-0.1,0.3-0.3,0.3-0.5c-0.5-2.1-1.6-4.1-3-5.8
	c-0.2-0.2-0.4-0.2-0.6-0.1l-1.6,1.3c-0.7-0.8-1.4-1.5-2.3-2.1l1.2-1.7c0.2-0.2,0.1-0.4-0.1-0.6c-1.8-1.2-3.8-2.1-5.9-2.5
	c-0.3,0-0.4,0.1-0.5,0.3l-0.3,2c-0.7-0.1-1.5-0.2-2.3-0.2c-0.3,0-0.5,0-0.8,0l-0.1-2.1c0-0.3-0.2-0.4-0.4-0.3
	c-2.2,0.2-4.3,0.9-6.2,1.9c-0.2,0.1-0.3,0.3-0.2,0.6l1,1.7c-0.9,0.5-1.7,1.1-2.4,1.8l-1.4-1.5c-0.2-0.2-0.4-0.2-0.6,0
	c-1.6,1.6-2.8,3.4-3.6,5.4c-0.1,0.2,0,0.4,0.3,0.5l1.9,0.7c-0.3,1-0.6,2-0.7,3l-2-0.3c-0.3,0-0.4,0.2-0.4,0.4c0,1.3,0.3,4.6,0.7,6.3
	c0.1,0.3,0.3,0.3,0.5,0.3c0.7-0.3,1.9-0.7,1.9-0.7c0.3,1,0.9,1.9,1.4,2.8l-1.7,1.1c-0.2,0.2-0.3,0.4-0.1,0.6
	c1.2,1.7,2.9,3.3,4.7,4.4c0.2,0.1,0.4,0.1,0.6-0.2l1-1.7c0.9,0.5,1.8,1,2.9,1.2l-0.6,2c-0.1,0.3,0.1,0.4,0.3,0.5
	c1.3,0.3,2.7,0.5,4.1,0.5c0.8,0,1.6-0.1,2.3-0.2c0.3,0,0.3-0.3,0.3-0.5l-0.3-2c1-0.2,2-0.5,3-0.9l0.8,1.9c0.1,0.2,0.3,0.3,0.5,0.2
	c2-1,3.7-2.3,5.2-3.8c0.2-0.2,0.2-0.4-0.1-0.6l-1.6-1.3c0.7-0.8,1.2-1.7,1.7-2.6l1.8,1c0.2,0.1,0.4,0,0.5-0.2c1.2-1.8,1.5-5,1.5-6.3
	C1804.4,704.6,1804.1,704.4,1803.8,704.4z M1788.5,710.6c-3.4,0-6.2-2.8-6.2-6.2s2.8-6.2,6.2-6.2s6.2,2.8,6.2,6.2
	C1794.7,707.9,1792,710.6,1788.5,710.6z"/>
<path class="st0" d="M1621.2,594.4h-1.9c0-1-0.2-2.1-0.3-3l2-0.4c0.3-0.1,0.3-0.3,0.3-0.5c-0.5-2.1-1.6-4.1-3-5.8
	c-0.2-0.2-0.4-0.2-0.6-0.1l-1.6,1.3c-0.7-0.8-1.4-1.5-2.3-2.1l1.2-1.7c0.2-0.2,0.1-0.4-0.1-0.6c-1.8-1.2-3.8-2.1-5.9-2.5
	c-0.3,0-0.4,0.1-0.5,0.3l-0.3,2c-0.7-0.1-1.5-0.2-2.3-0.2c-0.3,0-0.5,0-0.8,0l-0.1-2.1c0-0.3-0.2-0.4-0.4-0.3
	c-2.2,0.2-4.3,0.9-6.2,1.9c-0.2,0.1-0.3,0.3-0.2,0.6l1,1.7c-0.9,0.5-1.7,1.1-2.4,1.8l-1.4-1.5c-0.2-0.2-0.4-0.2-0.6,0
	c-1.6,1.6-2.8,3.4-3.6,5.4c-0.1,0.2,0,0.4,0.3,0.5l1.9,0.7c-0.3,1-0.6,2-0.7,3l-2-0.3c-0.3,0-0.4,0.2-0.4,0.4c0,1.3,0.3,4.6,0.7,6.3
	c0.1,0.3,0.3,0.3,0.5,0.3c0.7-0.3,1.9-0.7,1.9-0.7c0.3,1,0.9,1.9,1.4,2.8l-1.7,1.1c-0.2,0.2-0.3,0.4-0.1,0.6
	c1.2,1.7,2.9,3.3,4.7,4.4c0.2,0.1,0.4,0.1,0.6-0.2l1-1.7c0.9,0.5,1.8,1,2.9,1.2l-0.6,2c-0.1,0.3,0.1,0.4,0.3,0.5
	c1.3,0.3,2.7,0.5,4.1,0.5c0.8,0,1.6-0.1,2.3-0.2c0.3,0,0.3-0.3,0.3-0.5l-0.3-2c1-0.2,2-0.5,3-0.9l0.8,1.9c0.1,0.2,0.3,0.3,0.5,0.2
	c2-1,3.7-2.3,5.2-3.8c0.2-0.2,0.2-0.4-0.1-0.6l-1.6-1.3c0.7-0.8,1.2-1.7,1.7-2.6l1.8,1c0.2,0.1,0.4,0,0.5-0.2c1.2-1.8,1.5-5,1.5-6.3
	C1621.8,594.6,1621.5,594.4,1621.2,594.4z M1605.9,600.6c-3.4,0-6.2-2.8-6.2-6.2s2.8-6.2,6.2-6.2s6.2,2.8,6.2,6.2
	C1612.1,597.9,1609.4,600.6,1605.9,600.6z"/>
<path class="st0" d="M301.3,1207.3h-1.9c0-1-0.2-2.1-0.3-3l2-0.4c0.3-0.1,0.3-0.3,0.3-0.5c-0.5-2.1-1.6-4.1-3-5.8
	c-0.2-0.2-0.4-0.2-0.6-0.1l-1.6,1.3c-0.7-0.8-1.4-1.5-2.3-2.1l1.2-1.7c0.2-0.2,0.1-0.4-0.1-0.6c-1.8-1.2-3.8-2.1-5.9-2.5
	c-0.3,0-0.4,0.1-0.5,0.3l-0.3,2c-0.7-0.1-1.5-0.2-2.3-0.2c-0.3,0-0.5,0-0.8,0l-0.1-2.1c0-0.3-0.2-0.4-0.4-0.3
	c-2.2,0.2-4.3,0.9-6.2,1.9c-0.2,0.1-0.3,0.3-0.2,0.6l1,1.7c-0.9,0.5-1.7,1.1-2.4,1.8l-1.4-1.5c-0.2-0.2-0.4-0.2-0.6,0
	c-1.6,1.6-2.8,3.4-3.6,5.4c-0.1,0.2,0,0.4,0.3,0.5l1.9,0.7c-0.3,1-0.6,2-0.7,3l-2-0.3c-0.3,0-0.4,0.2-0.4,0.4c0,1.3,0.3,4.6,0.7,6.3
	c0.1,0.3,0.3,0.3,0.5,0.3c0.7-0.3,1.9-0.7,1.9-0.7c0.3,1,0.9,1.9,1.4,2.8l-1.7,1.1c-0.2,0.2-0.3,0.4-0.1,0.6
	c1.2,1.7,2.9,3.3,4.7,4.4c0.2,0.1,0.4,0.1,0.6-0.2l1-1.7c0.9,0.5,1.8,1,2.9,1.2l-0.6,2c-0.1,0.3,0.1,0.4,0.3,0.5
	c1.3,0.3,2.7,0.5,4.1,0.5c0.8,0,1.6-0.1,2.3-0.2c0.3,0,0.3-0.3,0.3-0.5l-0.3-2c1-0.2,2-0.5,3-0.9l0.8,1.9c0.1,0.2,0.3,0.3,0.5,0.2
	c2-1,3.7-2.3,5.2-3.8c0.2-0.2,0.2-0.4-0.1-0.6l-1.6-1.3c0.7-0.8,1.2-1.7,1.7-2.6l1.8,1c0.2,0.1,0.4,0,0.5-0.2c1.2-1.8,1.5-5,1.5-6.3
	C301.8,1207.6,301.5,1207.3,301.3,1207.3z M286,1213.6c-3.4,0-6.2-2.8-6.2-6.2c0-3.4,2.8-6.2,6.2-6.2s6.2,2.8,6.2,6.2
	S289.5,1213.6,286,1213.6z"/>
<path class="st0" d="M200.5,1048.6h-1.9c0-1-0.2-2.1-0.3-3l2-0.4c0.3-0.1,0.3-0.3,0.3-0.5c-0.5-2.1-1.6-4.1-3-5.8
	c-0.2-0.2-0.4-0.2-0.6-0.1l-1.6,1.3c-0.7-0.8-1.4-1.5-2.3-2.1l1.2-1.7c0.2-0.2,0.1-0.4-0.1-0.6c-1.8-1.2-3.8-2.1-5.9-2.5
	c-0.3,0-0.4,0.1-0.5,0.3l-0.3,2c-0.7-0.1-1.5-0.2-2.3-0.2c-0.3,0-0.5,0-0.8,0l-0.1-2.1c0-0.3-0.2-0.4-0.4-0.3
	c-2.2,0.2-4.3,0.9-6.2,1.9c-0.2,0.1-0.3,0.3-0.2,0.6l1,1.7c-0.9,0.5-1.7,1.1-2.4,1.8l-1.4-1.5c-0.2-0.2-0.4-0.2-0.6,0
	c-1.6,1.6-2.8,3.4-3.6,5.4c-0.1,0.2,0,0.4,0.3,0.5l1.9,0.7c-0.3,1-0.6,2-0.7,3l-2-0.3c-0.3,0-0.4,0.2-0.4,0.4c0,1.3,0.3,4.6,0.7,6.3
	c0.1,0.3,0.3,0.3,0.5,0.3c0.7-0.3,1.9-0.7,1.9-0.7c0.3,1,0.9,1.9,1.4,2.8l-1.7,1.1c-0.2,0.2-0.3,0.4-0.1,0.6
	c1.2,1.7,2.9,3.3,4.7,4.4c0.2,0.1,0.4,0.1,0.6-0.2l1-1.7c0.9,0.5,1.8,1,2.9,1.2l-0.6,2c-0.1,0.3,0.1,0.4,0.3,0.5
	c1.3,0.3,2.7,0.5,4.1,0.5c0.8,0,1.6-0.1,2.3-0.2c0.3,0,0.3-0.3,0.3-0.5l-0.3-2c1-0.2,2-0.5,3-0.9l0.8,1.9c0.1,0.2,0.3,0.3,0.5,0.2
	c2-1,3.7-2.3,5.2-3.8c0.2-0.2,0.2-0.4-0.1-0.6l-1.6-1.3c0.7-0.8,1.2-1.7,1.7-2.6l1.8,1c0.2,0.1,0.4,0,0.5-0.2c1.2-1.8,1.5-5,1.5-6.3
	C201.1,1048.8,200.8,1048.6,200.5,1048.6z M185.3,1054.8c-3.4,0-6.2-2.8-6.2-6.2s2.8-6.2,6.2-6.2s6.2,2.8,6.2,6.2
	S188.7,1054.8,185.3,1054.8z"/>
<path class="st0" d="M282.6,942.5h-4.4c0-2.4-0.3-4.8-0.9-7l4.6-1.1c0.5-0.1,0.8-0.7,0.7-1.1c-1.2-4.8-3.5-9.3-6.7-13.2
	c-0.3-0.4-0.9-0.4-1.3-0.1l-3.5,3c-1.6-1.8-3.2-3.4-5.2-4.8l2.8-3.8c0.3-0.4,0.2-1.1-0.2-1.3c-4.1-2.9-8.7-4.8-13.5-5.8
	c-0.5-0.1-1.1,0.2-1.1,0.7l-0.8,4.6c-1.7-0.2-3.4-0.4-5.2-0.4c-0.6,0-1.2,0.1-1.9,0.1l-0.2-4.7c-0.1-0.5-0.5-0.9-1.1-0.9
	c-4.9,0.4-9.7,1.9-14.1,4.3c-0.4,0.2-0.6,0.8-0.4,1.3l2.4,4.1c-2,1.2-3.9,2.6-5.7,4.3l-3.2-3.4c-0.4-0.4-1-0.4-1.4-0.1
	c-3.5,3.5-6.2,7.7-8,12.4c-0.2,0.5,0.1,1.1,0.6,1.2l4.4,1.6c-0.8,2.2-1.4,4.5-1.6,6.9l-4.6-0.5c-0.6-0.1-1.1,0.4-1.1,0.9
	c0.1,2.9,0.6,10.5,1.6,14.4c0.2,0.6,0.7,0.8,1.2,0.7c1.6-0.6,4.3-1.6,4.3-1.6c0.8,2.2,1.9,4.3,3.2,6.3l-3.8,2.5
	c-0.4,0.2-0.6,0.9-0.2,1.3c2.9,4.1,6.6,7.5,10.6,10.1c0.4,0.2,1.1,0.1,1.3-0.3l2.4-4.1c2,1.1,4.2,2,6.5,2.8l-1.3,4.5
	c-0.2,0.5,0.2,1.1,0.7,1.1c3,0.8,6.2,1.2,9.3,1.2c1.8,0,3.5-0.1,5.3-0.4c0.5-0.1,0.9-0.6,0.7-1.1l-0.8-4.6c2.4-0.4,4.6-1.1,6.7-2
	l1.9,4.3c0.2,0.5,0.7,0.7,1.2,0.5c4.5-2,8.5-5.1,11.8-8.8c0.3-0.4,0.2-1-0.1-1.4l-3.5-3c1.6-1.8,2.8-3.8,3.8-5.9l4.2,2
	c0.4,0.2,0.9,0.1,1.2-0.3c2.7-4.1,3.4-11.4,3.4-14.3C283.8,943,283.3,942.5,282.6,942.5z M247.9,956.6c-7.7,0-14-6.2-14-14
	c0-7.7,6.2-14,14-14c7.7,0,14,6.2,14,14S255.6,956.6,247.9,956.6z"/>
<g>
	<path class="st0" d="M965.5,1192.1c0,23.3-18.9,42.2-42.2,42.2s-42.2-18.9-42.2-42.2c0-23.3,18.9-42.2,42.2-42.2
		S965.5,1168.8,965.5,1192.1z"/>
	<path class="st4" d="M910.2,1187.9l10.7,10.7l45.1-45.1c1.6-1.6,4.2-1.7,6-0.2l0,0c2,1.6,2.1,4.7,0.2,6.5l-50.7,50.7l-17.4-16.3
		c-1.9-1.8-1.8-4.8,0.2-6.5l0,0C906,1186.3,908.6,1186.4,910.2,1187.9z"/>
</g>
<g>
	<path class="st0" d="M1442.4,1068.6c6.4,13.6,6.7,65.7,1.7,68c-6.2,3-44.6-31.4-50.9-44.9s-0.6-29.8,13-36.1
		C1419.8,1049.3,1436,1055,1442.4,1068.6z"/>
	
		<ellipse transform="matrix(0.9047 -0.426 0.426 0.9047 -325.1273 707.1381)" class="st1" cx="1418.3" cy="1080.4" rx="10.9" ry="10.9"/>
</g>
<g>
	<path class="st0" d="M538.6,1053.5c-2.3,7.6-20.6,28.6-23.4,27.7c-3.5-1-6.7-28.2-4.4-35.9c2.3-7.6,10.3-12.1,18-9.8
		C536.5,1037.8,540.9,1045.9,538.6,1053.5z"/>
	
		<ellipse transform="matrix(0.282 -0.9594 0.9594 0.282 -630.4219 1257.108)" class="st1" cx="524.7" cy="1049.8" rx="5.8" ry="5.8"/>
</g>
<g>
	<path class="st0" d="M1203.9,1002.7c3.4,4.5,7.5,23.8,5.8,24.9c-2.1,1.6-18.8-8.2-22.2-12.7s-2.5-10.9,2.1-14.3
		C1194.2,997.1,1200.6,998.1,1203.9,1002.7z"/>
	
		<ellipse transform="matrix(0.7997 -0.6004 0.6004 0.7997 -366.1821 920.2256)" class="st1" cx="1196.1" cy="1008.9" rx="4.1" ry="4.1"/>
</g>
<g>
	<path class="st0" d="M911.3,955.2c-1.6,5.4-14.6,20.2-16.5,19.6c-2.5-0.7-4.7-20-3.1-25.4c1.6-5.4,7.2-8.5,12.7-6.9
		S912.9,949.8,911.3,955.2z"/>
	
		<ellipse transform="matrix(0.282 -0.9594 0.9594 0.282 -266.6401 1549.0162)" class="st1" cx="901.6" cy="952.7" rx="4.1" ry="4.1"/>
</g>
<g>
	<path class="st0" d="M82.6,400.6C81,406,68,420.8,66.1,420.2c-2.5-0.7-4.7-20-3.1-25.4c1.6-5.4,7.2-8.5,12.7-6.9
		S84.2,395.2,82.6,400.6z"/>
	<ellipse transform="matrix(0.282 -0.9594 0.9594 0.282 -329.5703 355.7488)" class="st1" cx="72.9" cy="398.1" rx="4.1" ry="4.1"/>
</g>
<g>
	<path class="st0" d="M403.3,1069.7c-4,13.5-36.4,50.5-41.3,49c-6.1-1.8-11.8-49.9-7.8-63.4s18.1-21.3,31.8-17.4
		C399.6,1041.9,407.3,1056.1,403.3,1069.7z"/>
	
		<ellipse transform="matrix(0.282 -0.9594 0.9594 0.282 -747.613 1126.7328)" class="st1" cx="379" cy="1062.9" rx="10.3" ry="10.3"/>
</g>
<g>
	<path class="st0" d="M689.2,905.2c3.3,6.6,4.3,32.3,1.9,33.6c-3,1.5-22.5-14.8-25.8-21.3c-3.3-6.6-0.7-14.7,5.9-18
		C677.7,896,685.8,898.6,689.2,905.2z"/>
	<ellipse transform="matrix(0.891 -0.454 0.454 0.891 -339.9226 406.92)" class="st1" cx="677.5" cy="911.4" rx="5.4" ry="5.4"/>
</g>
</svg>
