<?xml version="1.0" encoding="utf-8"?>
<!-- Generator: Adobe Illustrator 21.0.2, SVG Export Plug-In . SVG Version: 6.00 Build 0)  -->
<svg version="1.1" id="Layer_1" xmlns="http://www.w3.org/2000/svg" xmlns:xlink="http://www.w3.org/1999/xlink" x="0px" y="0px"
	 viewBox="0 0 1920 1400" style="enable-background:new 0 0 1920 1400;" xml:space="preserve">
<style type="text/css">
	.st0{fill:#F1F1F2;}
	.st1{fill:#909190;}
	.st2{fill:#B3B3B4;}
	.st3{fill:#E1E0E0;}
	.st4{fill:#00AEC8;}
	.st5{fill:#028CA0;}
	.st6{fill:#D0D2D3;}
</style>
<g>
	<path class="st0" d="M1930.3,15.7c0,19.4-15.5,35.9-37.5,42.5L1857,77.5c-2.2,1.1-4.5-1.1-3.4-3.3l7.1-13.7
		c-27.4-3.9-48-22.5-48-44.7c0-25.2,26.3-45.5,58.8-45.5S1930.3-9.4,1930.3,15.7z"/>
	<circle class="st1" cx="1846.9" cy="17.1" r="6.3"/>
	<circle class="st1" cx="1871.7" cy="17.1" r="6.3"/>
	<circle class="st1" cx="1896.4" cy="17.1" r="6.3"/>
</g>
<g>
	<path class="st0" d="M1767.5,272.7c0,5.6-4.5,10.3-10.8,12.2l-10.3,5.6c-0.6,0.3-1.3-0.3-1-1l2.1-4c-7.9-1.1-13.8-6.5-13.8-12.9
		c0-7.2,7.6-13.1,16.9-13.1C1760,259.6,1767.5,265.5,1767.5,272.7z"/>
	<circle class="st1" cx="1743.5" cy="273.2" r="1.8"/>
	<circle class="st1" cx="1750.6" cy="273.2" r="1.8"/>
	<circle class="st1" cx="1757.8" cy="273.2" r="1.8"/>
</g>
<g>
	<path class="st0" d="M1586.9,1219.6c0,4.3-3.4,7.9-8.3,9.3l-7.9,4.3c-0.5,0.2-1-0.2-0.8-0.8l1.6-3.1c-6.1-0.8-10.6-5-10.6-9.9
		c0-5.5,5.8-10,13-10C1581.2,1209.6,1586.9,1214.1,1586.9,1219.6z"/>
	<circle class="st1" cx="1568.5" cy="1220" r="1.4"/>
	<circle class="st1" cx="1574" cy="1220" r="1.4"/>
	<circle class="st1" cx="1579.5" cy="1220" r="1.4"/>
</g>
<g>
	<path class="st0" d="M1437.3,1262c0,4.3-3.4,7.9-8.3,9.3l-7.9,4.3c-0.5,0.2-1-0.2-0.8-0.8l1.6-3.1c-6.1-0.8-10.6-5-10.6-9.9
		c0-5.5,5.8-10,13-10C1431.6,1252,1437.3,1256.5,1437.3,1262z"/>
	<circle class="st1" cx="1418.9" cy="1262.4" r="1.4"/>
	<circle class="st1" cx="1424.4" cy="1262.4" r="1.4"/>
	<circle class="st1" cx="1429.9" cy="1262.4" r="1.4"/>
</g>
<g>
	<path class="st0" d="M1494.8,452.4c0,4.3-3.4,7.9-8.3,9.3l-7.9,4.3c-0.5,0.2-1-0.2-0.8-0.8l1.6-3.1c-6.1-0.8-10.6-5-10.6-9.9
		c0-5.5,5.8-10,13-10C1489.1,442.4,1494.8,446.9,1494.8,452.4z"/>
	<circle class="st1" cx="1476.4" cy="452.8" r="1.4"/>
	<circle class="st1" cx="1481.9" cy="452.8" r="1.4"/>
	<circle class="st1" cx="1487.4" cy="452.8" r="1.4"/>
</g>
<g>
	<path class="st0" d="M1732.7,1376.4c0,4.3-3.4,7.9-8.3,9.3l-7.9,4.3c-0.5,0.2-1-0.2-0.8-0.8l1.6-3.1c-6.1-0.8-10.6-5-10.6-9.9
		c0-5.5,5.8-10,13-10C1727,1366.4,1732.7,1370.9,1732.7,1376.4z"/>
	<circle class="st1" cx="1714.3" cy="1376.8" r="1.4"/>
	<circle class="st1" cx="1719.8" cy="1376.8" r="1.4"/>
	<circle class="st1" cx="1725.3" cy="1376.8" r="1.4"/>
</g>
<g>
	<path class="st0" d="M1513.2,186.2c0,3.8-3.1,7.1-7.4,8.5l-7.1,3.8c-0.4,0.2-0.9-0.2-0.7-0.7l1.4-2.8c-5.5-0.8-9.5-4.5-9.5-8.9
		c0-5,5.2-9.1,11.7-9.1C1507.9,177.2,1513.2,181.2,1513.2,186.2z"/>
	<circle class="st1" cx="1496.5" cy="186.5" r="1.3"/>
	<circle class="st1" cx="1501.5" cy="186.5" r="1.3"/>
	<circle class="st1" cx="1506.4" cy="186.5" r="1.3"/>
</g>
<g>
	<path class="st0" d="M1991.1,950.4c0,19.4-15.5,35.9-37.5,42.5l-35.8,19.4c-2.2,1.1-4.5-1.1-3.4-3.3l7.1-13.7
		c-27.4-3.9-48-22.5-48-44.7c0-25.2,26.3-45.5,58.8-45.5C1964.8,904.9,1991.1,925.3,1991.1,950.4z"/>
	<circle class="st1" cx="1907.7" cy="951.8" r="6.3"/>
	<circle class="st1" cx="1932.5" cy="951.8" r="6.3"/>
	<circle class="st1" cx="1957.2" cy="951.8" r="6.3"/>
</g>
<g>
	<g>
		<path class="st2" d="M1839.3,138.9c1.8,0,3.2-1.5,3.2-3.3v-31.9c0-23.2-24.9-22.8-24.9-22.8c-25.2,0-24.9,23-24.9,23v46.2h9.6
			v-42.5c0,0-0.4-16.5,14.9-16.5c0,0,15.6-1.5,15.6,16.7l-0.2,27.9c0,1.8,1.5,3.3,3.4,3.3L1839.3,138.9z"/>
		<path class="st3" d="M1797.6,102.4c-0.1,0-0.1,0-0.2,0c-0.8-0.1-1.4-0.9-1.2-1.7c0-0.2,2.7-18.9,22.6-16.8
			c0.8,0.1,1.4,0.8,1.3,1.6c-0.1,0.8-0.8,1.4-1.6,1.3c-17.1-1.7-19.4,13.6-19.5,14.2C1799,101.8,1798.4,102.4,1797.6,102.4z"/>
	</g>
	<path class="st0" d="M1846.2,117.5H1789c-0.9,0-1.7,0.8-1.7,1.7v33.2c0,0.9,0.8,1.7,1.7,1.7h57.2c0.9,0,1.7-0.8,1.7-1.7v-33.2
		C1847.8,118.3,1847.1,117.5,1846.2,117.5z M1818.6,134.7v6.9c0,0.8-0.6,1.4-1.4,1.4s-1.4-0.6-1.4-1.4v-6.9
		c-1.4-0.5-2.4-1.9-2.4-3.5c0-2.1,1.7-3.7,3.7-3.7c2.1,0,3.7,1.7,3.7,3.7C1820.9,132.9,1820,134.2,1818.6,134.7z"/>
</g>
<g>
	<g>
		<path class="st2" d="M1578.4,408.4c0.6-0.3,0.9-1.1,0.6-1.7l-5.8-11.6c-4.2-8.4-13.1-3.7-13.1-3.7c-9.1,4.5-4.9,12.9-4.9,12.9
			l8.3,16.7l3.5-1.7l-7.7-15.4c0,0-3.1-5.9,2.4-8.7c0,0,5.4-3.4,8.7,3.2l5,10.1c0.3,0.7,1.1,1,1.8,0.6L1578.4,408.4z"/>
		<path class="st3" d="M1556.7,402.7C1556.7,402.8,1556.7,402.8,1556.7,402.7c-0.3,0.2-0.7,0-0.8-0.3c0-0.1-2.4-7.3,5.1-10.2
			c0.3-0.1,0.6,0,0.8,0.3c0.1,0.3,0,0.6-0.3,0.8c-6.5,2.4-4.5,8.4-4.4,8.7C1557.1,402.3,1556.9,402.6,1556.7,402.7z"/>
	</g>
	<path class="st0" d="M1577,399.4l-20.7,10.3c-0.3,0.2-0.4,0.6-0.3,0.9l6,12c0.2,0.3,0.5,0.4,0.9,0.3l20.7-10.3
		c0.3-0.2,0.4-0.5,0.3-0.9l-6-12C1577.7,399.4,1577.3,399.2,1577,399.4z M1570.1,410.6l1.2,2.5c0.2,0.3,0,0.6-0.3,0.8
		c-0.3,0.2-0.6,0-0.8-0.3l-1.2-2.5c-0.6,0.1-1.2-0.3-1.5-0.9c-0.3-0.8-0.1-1.7,0.7-2c0.8-0.3,1.7-0.1,2,0.7
		C1570.7,409.6,1570.6,410.2,1570.1,410.6z"/>
</g>
<g>
	<g>
		<path class="st2" d="M1816.4,1247c0.7,0.1,1.4-0.4,1.5-1l2.2-12.8c1.6-9.3-8.4-10.7-8.4-10.7c-10-1.7-11.6,7.5-11.6,7.5l-3.2,18.4
			l3.8,0.7l2.9-17c0,0,1-6.6,7.1-5.6c0,0,6.4,0.4,5.1,7.7l-1.9,11.1c-0.2,0.7,0.3,1.5,1.1,1.5L1816.4,1247z"/>
		<path class="st3" d="M1802.3,1229.6C1802.2,1229.7,1802.2,1229.7,1802.3,1229.6c-0.4,0-0.6-0.4-0.5-0.7c0.1-0.1,2.4-7.3,10.1-5.2
			c0.3,0.1,0.5,0.4,0.5,0.7c-0.1,0.3-0.4,0.5-0.7,0.5c-6.7-1.9-8.6,4.1-8.7,4.4C1802.8,1229.5,1802.5,1229.7,1802.3,1229.6z"/>
	</g>
	<path class="st0" d="M1820.6,1238.9l-22.8-3.9c-0.4,0-0.7,0.2-0.8,0.5l-2.2,13.2c0,0.4,0.2,0.6,0.5,0.8l22.8,3.9
		c0.4,0,0.6-0.2,0.8-0.5l2.2-13.2C1821.2,1239.4,1820.9,1239,1820.6,1238.9z M1808.4,1243.9l-0.5,2.7c0,0.4-0.4,0.5-0.7,0.5
		c-0.4,0-0.5-0.4-0.5-0.7l0.5-2.7c-0.5-0.3-0.8-1-0.7-1.6c0.2-0.8,0.9-1.4,1.7-1.2c0.8,0.2,1.4,0.9,1.2,1.7
		C1809.5,1243.5,1809,1243.9,1808.4,1243.9z"/>
</g>
<g>
	<g>
		<path class="st2" d="M1650.4,1356.5c0.6-0.3,0.9-1.1,0.6-1.7l-5.8-11.6c-4.2-8.4-13.1-3.7-13.1-3.7c-9.1,4.5-4.9,12.9-4.9,12.9
			l8.3,16.7l3.5-1.7l-7.7-15.4c0,0-3.1-5.9,2.4-8.7c0,0,5.4-3.4,8.7,3.2l5,10.1c0.3,0.7,1.1,1,1.8,0.6L1650.4,1356.5z"/>
		<path class="st3" d="M1628.7,1350.8C1628.7,1350.9,1628.7,1350.9,1628.7,1350.8c-0.3,0.2-0.7,0-0.8-0.3c0-0.1-2.4-7.3,5.1-10.2
			c0.3-0.1,0.6,0,0.8,0.3c0.1,0.3,0,0.6-0.3,0.8c-6.5,2.4-4.5,8.4-4.4,8.7C1629.1,1350.4,1628.9,1350.7,1628.7,1350.8z"/>
	</g>
	<path class="st0" d="M1649,1347.5l-20.7,10.3c-0.3,0.2-0.4,0.6-0.3,0.9l6,12c0.2,0.3,0.5,0.4,0.9,0.3l20.7-10.3
		c0.3-0.2,0.4-0.5,0.3-0.9l-6-12C1649.7,1347.5,1649.3,1347.3,1649,1347.5z M1642.1,1358.7l1.2,2.5c0.2,0.3,0,0.6-0.3,0.8
		c-0.3,0.2-0.6,0-0.8-0.3l-1.2-2.5c-0.6,0.1-1.2-0.3-1.5-0.9c-0.3-0.8-0.1-1.7,0.7-2c0.8-0.3,1.7-0.1,2,0.7
		C1642.7,1357.7,1642.6,1358.3,1642.1,1358.7z"/>
</g>
<g>
	<g>
		<path class="st2" d="M1429.5,166.7c0.7-0.1,1.2-0.8,1-1.5l-2.4-12.7c-1.8-9.2-11.6-7.1-11.6-7.1c-10,1.9-8.2,11.1-8.2,11.1
			l3.4,18.3l3.8-0.7l-3.2-16.9c0,0-1.4-6.5,4.7-7.7c0,0,6.1-1.8,7.5,5.4l2.1,11.1c0.1,0.8,0.8,1.3,1.6,1.1L1429.5,166.7z"/>
		<path class="st3" d="M1410.2,155.4C1410.2,155.5,1410.2,155.5,1410.2,155.4c-0.3,0.1-0.7-0.2-0.7-0.5c0-0.1-0.3-7.7,7.7-8.4
			c0.3,0,0.6,0.2,0.7,0.5c0,0.3-0.2,0.6-0.5,0.7c-6.9,0.5-6.6,6.9-6.6,7.2C1410.7,155.1,1410.4,155.3,1410.2,155.4z"/>
	</g>
	<path class="st0" d="M1430.6,157.7l-22.7,4.3c-0.3,0.1-0.5,0.5-0.5,0.8l2.5,13.2c0.1,0.3,0.4,0.5,0.8,0.5l22.7-4.3
		c0.3-0.1,0.5-0.4,0.5-0.8l-2.5-13.2C1431.3,157.9,1431,157.6,1430.6,157.7z M1421,166.6l0.5,2.7c0.1,0.3-0.2,0.6-0.5,0.7
		c-0.3,0.1-0.6-0.2-0.7-0.5l-0.5-2.7c-0.6-0.1-1.1-0.6-1.2-1.3c-0.1-0.9,0.4-1.7,1.2-1.7c0.9-0.1,1.7,0.4,1.7,1.2
		C1421.8,165.8,1421.5,166.4,1421,166.6z"/>
</g>
<g>
	<g>
		<path class="st2" d="M1690.9,606.6c1.2,0,2.2-1,2.2-2.3v-21.6c0-15.7-16.9-15.5-16.9-15.5c-17,0-16.9,15.5-16.9,15.5v31.4h6.5
			v-28.8c0,0-0.3-11.2,10.2-11.2c0,0,10.6-1,10.6,11.3l-0.2,18.9c0,1.2,1,2.3,2.3,2.3L1690.9,606.6z"/>
		<path class="st3" d="M1662.6,581.8L1662.6,581.8c-0.6-0.1-1-0.5-1-1.1c0-0.1,1.8-12.8,15.4-11.4c0.5,0.1,1,0.5,0.9,1s-0.5,1-1,0.9
			c-11.6-1.2-13.1,9.2-13.2,9.6C1663.5,581.4,1663.1,581.8,1662.6,581.8z"/>
	</g>
	<path class="st0" d="M1695.6,592h-38.8c-0.6,0-1.1,0.5-1.1,1.1v22.5c0,0.6,0.5,1.1,1.1,1.1h38.8c0.6,0,1.1-0.5,1.1-1.1v-22.5
		C1696.6,592.6,1696.2,592,1695.6,592z M1676.8,603.7v4.7c0,0.5-0.4,1-1,1c-0.5,0-1-0.4-1-1v-4.6c-1-0.3-1.7-1.3-1.7-2.3
		c0-1.4,1.1-2.5,2.5-2.5s2.5,1.1,2.5,2.5C1678.4,602.5,1677.8,603.3,1676.8,603.7z"/>
</g>
<g>
	<path class="st4" d="M1741,910.2l-24.4-6c-1.1-0.2-1.9-1.1-2.1-2.3l-5.1-55.1c-0.2-1.7,1.4-3,3-2.8l22.8,4.5L1741,910.2z"/>
	<polygon class="st0" points="1740.6,906 1717.9,900.3 1713,848.6 1735.7,853.3 	"/>
	<path class="st4" d="M1784.8,902l-22.5-4.5l-5.7-61.6l24,4.8c1.1,0.2,1.9,1.1,2.1,2.3l5.3,56.3C1788,900.9,1786.6,902.3,1784.8,902
		z"/>
	<polygon class="st5" points="1762.3,897.5 1741,910.2 1735.2,848.6 1756.6,835.9 	"/>
	<polygon class="st6" points="1762,893.7 1740.6,906 1735.7,853.3 1757,840.7 	"/>
	<polygon class="st0" points="1784.4,897.8 1762,893.6 1757,840.7 1779.7,845.1 	"/>
</g>
<g>
	<path class="st4" d="M1649.6,1205.8l-36.4-8.9c-1.7-0.3-2.9-1.7-3.1-3.4l-7.6-82.2c-0.3-2.6,2.1-4.5,4.5-4.1l34.1,6.7
		L1649.6,1205.8z"/>
	<polygon class="st0" points="1649,1199.6 1615,1191.2 1607.8,1113.9 1641.7,1120.9 	"/>
	<path class="st4" d="M1715,1193.6l-33.6-6.7l-8.6-91.9l35.8,7.1c1.7,0.3,2.9,1.7,3.1,3.4l7.9,84
		C1719.8,1192.1,1717.6,1194.1,1715,1193.6z"/>
	<polygon class="st5" points="1681.4,1186.9 1649.6,1205.8 1641,1113.9 1672.9,1094.9 	"/>
	<polygon class="st6" points="1680.9,1181.2 1649,1199.6 1641.7,1120.9 1673.5,1102.1 	"/>
	<polygon class="st0" points="1714.3,1187.4 1680.9,1181 1673.5,1102.1 1707.3,1108.7 	"/>
</g>
<g>
	<path class="st4" d="M1879,635.2l-36.4-8.9c-1.7-0.3-2.9-1.7-3.1-3.4l-7.6-82.2c-0.3-2.6,2.1-4.5,4.5-4.1l34.1,6.7L1879,635.2z"/>
	<polygon class="st0" points="1878.4,629 1844.4,620.6 1837.2,543.3 1871.1,550.3 	"/>
	<path class="st4" d="M1944.4,623l-33.6-6.7l-8.6-91.9l35.8,7.1c1.7,0.3,2.9,1.7,3.1,3.4l7.9,84C1949.2,621.5,1947,623.5,1944.4,623
		z"/>
	<polygon class="st5" points="1910.8,616.3 1879,635.2 1870.4,543.3 1902.3,524.3 	"/>
	<polygon class="st6" points="1910.3,610.6 1878.4,629 1871.1,550.3 1902.9,531.5 	"/>
	<polygon class="st0" points="1943.7,616.8 1910.3,610.4 1902.9,531.5 1936.7,538.1 	"/>
</g>
<g>
	<path class="st4" d="M1752.5,462.4l-29.3-3.5c-1.3-0.1-2.4-1-2.7-2.3l-14-63.2c-0.4-1.9,1.1-3.7,3.1-3.6l27.2,1.9L1752.5,462.4z"/>
	<polygon class="st0" points="1751.5,457.7 1724.2,454.4 1711.1,394.9 1738.1,397.1 	"/>
	<path class="st4" d="M1802.3,446.6l-26.8-2l-15.6-70.7l28.6,2.2c1.3,0.1,2.4,1,2.7,2.3l14.2,64.6
		C1805.8,445,1804.3,446.8,1802.3,446.6z"/>
	<polygon class="st5" points="1775.5,444.6 1752.5,462.4 1736.9,391.6 1759.9,373.9 	"/>
	<polygon class="st6" points="1774.5,440.2 1751.5,457.7 1738.1,397.1 1761.1,379.3 	"/>
	<polygon class="st0" points="1801.2,441.8 1774.5,440.1 1761.1,379.3 1788,381.2 	"/>
</g>
<g>
	<path class="st0" d="M1748.5,190.3l-73.4,39.3c-1.4,0.8-2.9-0.9-2.1-2.2l23.6-38l1-1.7l-0.9-1.3l-24.1-36.7c-0.9-1.3,0.6-3,2-2.3
		l73.8,37.8C1750.4,186.4,1750.5,189.3,1748.5,190.3z"/>
	<path class="st4" d="M1731.2,188c0,0.8-1.1,3.1-3.6,3.1h-32l0.5-0.8c0.9-1.5,0.9-3.4-0.2-4.9l-0.5-0.7h32.7
		C1730.2,185,1731.2,187.2,1731.2,188z"/>
</g>
<g>
	<path class="st0" d="M1627,741.1l-25.8,13.8c-0.5,0.3-1-0.3-0.7-0.8l8.3-13.3l0.3-0.6l-0.3-0.4l-8.4-12.9c-0.3-0.4,0.2-1,0.7-0.8
		l25.9,13.3C1627.7,739.7,1627.7,740.7,1627,741.1z"/>
	<path class="st4" d="M1620.9,740.3c0,0.3-0.4,1.1-1.3,1.1h-11.2l0.2-0.3c0.3-0.5,0.3-1.2-0.1-1.7l-0.2-0.3h11.5
		C1620.6,739.2,1620.9,740,1620.9,740.3z"/>
</g>
<g>
	<path class="st0" d="M1507.5,1269.4l-7.1-28.4c-0.2-0.6,0.5-0.9,0.9-0.5l10.9,11.3l0.5,0.4l0.5-0.2l14.6-5c0.5-0.2,0.9,0.4,0.6,0.9
		l-19.2,21.9C1508.7,1270.4,1507.7,1270.2,1507.5,1269.4z"/>
	<path class="st4" d="M1509.8,1263.7c-0.3-0.1-1-0.7-0.7-1.5l2.7-10.9l0.2,0.3c0.4,0.4,1.1,0.6,1.7,0.3l0.3-0.1l-2.8,11.2
		C1510.9,1263.7,1510.1,1263.8,1509.8,1263.7z"/>
</g>
<g>
	<path class="st0" d="M1575.9,1332.1l-25.8,13.8c-0.5,0.3-1-0.3-0.7-0.8l8.3-13.3l0.3-0.6l-0.3-0.4l-8.4-12.9
		c-0.3-0.4,0.2-1,0.7-0.8l25.9,13.3C1576.6,1330.7,1576.6,1331.7,1575.9,1332.1z"/>
	<path class="st4" d="M1569.8,1331.3c0,0.3-0.4,1.1-1.3,1.1h-11.2l0.2-0.3c0.3-0.5,0.3-1.2-0.1-1.7l-0.2-0.3h11.5
		C1569.5,1330.2,1569.8,1331,1569.8,1331.3z"/>
</g>
<g>
	<path class="st0" d="M1872.7,1289.9l28.8,5.2c0.5,0.1,0.6,0.9,0.1,1l-14.8,5.3l-0.6,0.3l-0.1,0.5l-1.4,15.4c-0.1,0.5-0.8,0.7-1,0.2
		l-12-26.5C1871.3,1290.6,1871.9,1289.8,1872.7,1289.9z"/>
	<path class="st4" d="M1876.8,1294.3c0.2-0.3,1-0.6,1.7-0.1l8.8,6.9l-0.3,0.1c-0.6,0.2-1,0.8-1,1.4v0.3l-8.9-7.1
		C1876.5,1295.3,1876.7,1294.6,1876.8,1294.3z"/>
</g>
<g>
	<path class="st0" d="M1822,931.4l28.8,5.2c0.5,0.1,0.6,0.9,0.1,1l-14.8,5.3l-0.6,0.3l-0.1,0.5l-1.4,15.4c-0.1,0.5-0.8,0.7-1,0.2
		l-12-26.5C1820.7,932.1,1821.3,931.3,1822,931.4z"/>
	<path class="st4" d="M1826.2,935.8c0.2-0.3,1-0.6,1.7-0.1l8.8,6.9l-0.3,0.1c-0.6,0.2-1,0.8-1,1.4v0.3l-8.9-7.1
		C1825.9,936.9,1826,936.1,1826.2,935.8z"/>
</g>
<g>
	<path class="st0" d="M1392.6,917.3l28.8,5.2c0.5,0.1,0.6,0.9,0.1,1l-14.8,5.3l-0.6,0.3l-0.1,0.5l-1.4,15.4c-0.1,0.5-0.8,0.7-1,0.2
		l-12-26.5C1391.2,918,1391.9,917.2,1392.6,917.3z"/>
	<path class="st4" d="M1396.8,921.7c0.2-0.3,1-0.6,1.7-0.1l8.8,6.9l-0.3,0.1c-0.6,0.2-1,0.8-1,1.4v0.3l-8.9-7.1
		C1396.5,922.8,1396.6,922,1396.8,921.7z"/>
</g>
<g>
	<path class="st0" d="M1752.3,1110.6l49.9,9c0.9,0.2,1.1,1.5,0.2,1.8l-25.6,9.2l-1.1,0.5l-0.2,0.9l-2.4,26.7
		c-0.2,0.9-1.4,1.2-1.8,0.3l-20.8-46C1749.9,1111.8,1751,1110.4,1752.3,1110.6z"/>
	<path class="st4" d="M1759.6,1118.3c0.3-0.5,1.8-1.1,2.9-0.2l15.2,12.1l-0.6,0.2c-1.1,0.3-1.7,1.4-1.8,2.4v0.6l-15.5-12.4
		C1759,1120.1,1759.3,1118.7,1759.6,1118.3z"/>
</g>
<g>
	<path class="st0" d="M1530.9,503.1l41.8,7.6c0.8,0.1,0.9,1.3,0.1,1.5l-21.5,7.7l-0.9,0.4l-0.1,0.8l-2,22.4c-0.1,0.8-1.1,1-1.5,0.3
		l-17.4-38.5C1528.9,504.1,1529.8,503,1530.9,503.1z"/>
	<path class="st4" d="M1537,509.5c0.3-0.4,1.5-0.9,2.4-0.1l12.8,10.1l-0.5,0.1c-0.9,0.3-1.4,1.1-1.5,2v0.5l-13-10.4
		C1536.5,511.1,1536.7,509.9,1537,509.5z"/>
</g>
<g>
	<path class="st0" d="M1491.8,73.2c-2.8,6.3-10.1,9.3-16.5,6.5c-6.3-2.8-9.3-10.1-6.5-16.5c2.8-6.3,10.1-9.3,16.5-6.5
		C1491.6,59.5,1494.5,66.8,1491.8,73.2z"/>
	<path class="st4" d="M1479.3,74.3l2.8-7.2l0.4,1.7c0.2,0.6,0.8,1.1,1.5,1s1.2-0.8,1.1-1.5l-1.4-6.6c-0.1-0.5-0.7-0.8-1.1-0.5
		l-5.7,3.6c-0.7,0.4-0.8,1.3-0.4,1.9c0.4,0.4,1,0.6,1.5,0.3l1.8-1l-3,7.3c-0.3,0.7,0,1.5,0.7,1.8l0,0
		C1478.2,75.3,1479,75,1479.3,74.3z"/>
</g>
<g>
	<path class="st0" d="M1460.7,335.9c-2.8,6.3-10.1,9.3-16.5,6.5c-6.3-2.8-9.3-10.1-6.5-16.5c2.8-6.3,10.1-9.3,16.5-6.5
		C1460.5,322.2,1463.4,329.5,1460.7,335.9z"/>
	<path class="st4" d="M1448.2,337l2.8-7.2l0.4,1.7c0.2,0.6,0.8,1.1,1.5,1s1.2-0.8,1.1-1.5l-1.4-6.6c-0.1-0.5-0.7-0.8-1.1-0.5
		l-5.7,3.6c-0.7,0.4-0.8,1.3-0.4,1.9c0.4,0.4,1,0.6,1.5,0.3l1.8-1l-3,7.3c-0.3,0.7,0,1.5,0.7,1.8l0,0
		C1447.1,338,1447.9,337.7,1448.2,337z"/>
</g>
<g>
	<path class="st0" d="M1614.6,622.4c7.1,7.9,6.4,20-1.5,27.1s-20,6.4-27.1-1.5s-6.4-20,1.5-27.1
		C1595.4,613.9,1607.6,614.5,1614.6,622.4z"/>
	<path class="st4" d="M1608.3,640.5l-8.2-8.6l2.7,0.6c1.1,0.2,2.1-0.4,2.3-1.5c0.3-1.1-0.4-2.2-1.5-2.5l-10-2.2
		c-0.8-0.2-1.6,0.4-1.6,1.3l1.4,10.2c0.1,1.2,1.3,2,2.4,1.7c0.8-0.3,1.5-1,1.5-1.9l-0.3-3.2l8.1,8.9c0.8,0.8,2.1,0.9,2.9,0.1l0,0
		C1609.1,642.6,1609.1,641.3,1608.3,640.5z"/>
</g>
<g>
	<path class="st0" d="M1623.1,1273.3c5,5.6,4.5,14.2-1.1,19.3c-5.6,5-14.2,4.5-19.3-1.1c-5-5.6-4.5-14.2,1.1-19.3
		C1609.4,1267.3,1618.1,1267.7,1623.1,1273.3z"/>
	<path class="st4" d="M1618.6,1286.2l-5.8-6.1l1.9,0.4c0.8,0.1,1.5-0.3,1.6-1.1c0.2-0.8-0.3-1.6-1.1-1.8l-7.1-1.6
		c-0.6-0.1-1.1,0.3-1.1,0.9l1,7.2c0.1,0.9,0.9,1.4,1.7,1.2c0.6-0.2,1.1-0.7,1.1-1.4l-0.2-2.3l5.8,6.3c0.6,0.6,1.5,0.6,2.1,0.1l0,0
		C1619.2,1287.7,1619.2,1286.7,1618.6,1286.2z"/>
</g>
<g>
	<path class="st0" d="M1476,1041c7.1,7.9,6.4,20-1.5,27.1s-20,6.4-27.1-1.5s-6.4-20,1.5-27.1C1456.8,1032.5,1469,1033.1,1476,1041z"
		/>
	<path class="st4" d="M1469.7,1059.1l-8.2-8.6l2.7,0.6c1.1,0.2,2.1-0.4,2.3-1.5c0.3-1.1-0.4-2.2-1.5-2.5l-10-2.2
		c-0.8-0.2-1.6,0.4-1.6,1.3l1.4,10.2c0.1,1.2,1.3,2,2.4,1.7c0.8-0.3,1.5-1,1.5-1.9l-0.3-3.2l8.1,8.9c0.8,0.8,2.1,0.9,2.9,0.1l0,0
		C1470.5,1061.2,1470.5,1059.9,1469.7,1059.1z"/>
</g>
<g>
	<path class="st0" d="M1887.8,1199.8c7.1,7.9,6.4,20-1.5,27.1c-7.9,7.1-20,6.4-27.1-1.5c-7.1-7.9-6.4-20,1.5-27.1
		C1868.6,1191.3,1880.8,1191.9,1887.8,1199.8z"/>
	<path class="st4" d="M1881.5,1217.9l-8.2-8.6l2.7,0.6c1.1,0.2,2.1-0.4,2.3-1.5c0.3-1.1-0.4-2.2-1.5-2.5l-10-2.2
		c-0.8-0.2-1.6,0.4-1.6,1.3l1.4,10.2c0.1,1.2,1.3,2,2.4,1.7c0.8-0.3,1.5-1,1.5-1.9l-0.3-3.2l8.1,8.9c0.8,0.8,2.1,0.9,2.9,0.1l0,0
		C1882.3,1220,1882.3,1218.7,1881.5,1217.9z"/>
</g>
<g>
	<path class="st0" d="M1918.6,1081.4c15.9,17.8,14.5,45-3.3,61c-17.8,15.9-45,14.5-61-3.3c-15.9-17.8-14.5-45,3.3-61
		C1875.4,1062.2,1902.7,1063.7,1918.6,1081.4z"/>
	<path class="st4" d="M1904.4,1122l-18.5-19.3l6.1,1.3c2.4,0.4,4.7-1,5.3-3.4c0.7-2.4-0.9-5-3.3-5.7l-22.6-5c-1.8-0.4-3.7,1-3.6,2.8
		l3.1,23c0.1,2.7,2.8,4.5,5.4,3.8c1.8-0.6,3.3-2.3,3.3-4.3l-0.6-7.1l18.3,20c1.7,1.8,4.7,2,6.5,0.3l0,0
		C1906.1,1126.9,1906.1,1123.9,1904.4,1122z"/>
</g>
<g>
	<path class="st4" d="M1900.3,752.1c3-1.5,4.3-5.1,2.8-8.1l-15-31.8c-18.6-39.2-60.4-18.5-60.4-18.5c-42.5,20.2-23.7,58.8-23.7,58.8
		l36.9,78l16.2-7.6l-34-71.8c0,0-13.9-27.5,12.1-39.8c0,0,25.2-15,39.7,15.7l11.5,25.1c1.5,3.1,5.2,4.4,8.3,2.9L1900.3,752.1z"/>
	<path class="st0" d="M1924.2,770.8l-96.6,45.7c-1.6,0.7-2.2,2.6-1.5,4.1l26.5,56c0.7,1.5,2.5,2.2,4.1,1.5l96.6-45.7
		c1.5-0.7,2.2-2.5,1.5-4.1l-26.5-56C1927.6,770.8,1925.7,770.1,1924.2,770.8z M1891.4,822l5.6,11.7c0.6,1.3,0.1,2.9-1.2,3.5
		c-1.3,0.6-2.9,0.1-3.5-1.2l-5.5-11.6c-2.8,0.3-5.6-1.2-6.9-4c-1.7-3.5-0.2-7.7,3.3-9.4s7.7-0.2,9.4,3.3
		C1893.8,816.9,1893.2,820,1891.4,822z"/>
	<path class="st3" d="M1811,746.8c-0.1,0.1-0.3,0.1-0.3,0.2c-1.5,0.4-3-0.3-3.5-1.7c-0.1-0.3-10.7-34.4,25.1-47
		c1.5-0.5,3,0.3,3.5,1.7s-0.3,3-1.7,3.5c-30.7,10.8-22.1,38.9-21.6,40.1C1812.9,744.8,1812.2,746.1,1811,746.8z"/>
</g>
<g>
	<path class="st4" d="M1632.2,980.6c2.3,0.7,4.7-0.6,5.5-2.9l7.7-24c9.6-29.5-22.4-39.3-22.4-39.3c-32.1-10.3-41.2,19-41.2,19
		l-19,58.8l12.2,3.9l17.5-54.1c0,0,6.3-21.2,25.8-14.9c0,0,20.5,4.5,13,27.7l-6.3,18.7c-0.8,2.3,0.5,4.9,2.9,5.6L1632.2,980.6z"/>
	<path class="st0" d="M1635.5,1002.1l-72.8-23.5c-1.1-0.3-2.4,0.3-2.8,1.4l-13.6,42.2c-0.3,1.1,0.3,2.3,1.4,2.8l72.8,23.5
		c1.1,0.3,2.3-0.3,2.8-1.4l13.6-42.2C1637.3,1003.7,1636.6,1002.4,1635.5,1002.1z M1593.3,1012.7l-2.9,8.9c-0.3,1-1.4,1.6-2.3,1.2
		c-1-0.3-1.6-1.4-1.2-2.3l2.9-8.8c-1.6-1.2-2.3-3.4-1.7-5.5c0.9-2.6,3.6-4.1,6.3-3.2c2.6,0.9,4.1,3.6,3.2,6.3
		C1597,1011.2,1595.3,1012.5,1593.3,1012.7z"/>
	<path class="st3" d="M1588.3,934c-0.1,0-0.2-0.1-0.3-0.1c-1-0.4-1.4-1.7-1-2.6c0.1-0.3,11.3-23.2,36.1-12.2c1,0.4,1.5,1.6,1,2.6
		c-0.4,1-1.6,1.4-2.6,1c-21.3-9.4-30.6,9.5-30.9,10.3C1590.3,933.9,1589.3,934.3,1588.3,934z"/>
</g>
<g>
	<path class="st4" d="M1607.2,159.8c1.1-0.5,1.6-1.9,1-3l-5.6-11.7c-6.8-14.4-22.2-6.8-22.2-6.8c-15.6,7.4-8.7,21.5-8.7,21.5
		l13.6,28.7l5.9-2.8l-12.5-26.4c0,0-5.1-10.1,4.4-14.6c0,0,9.2-5.6,14.6,5.7l4.3,9.2c0.5,1.1,1.9,1.7,3,1L1607.2,159.8z"/>
	<path class="st0" d="M1616,166.6l-35.4,16.8c-0.5,0.3-0.8,1-0.5,1.5l9.7,20.6c0.3,0.5,1,0.8,1.5,0.5l35.4-16.8
		c0.5-0.3,0.8-1,0.5-1.5l-9.7-20.6C1617.3,166.6,1616.6,166.4,1616,166.6z M1604,185.4l2,4.3c0.3,0.5,0,1-0.4,1.3
		c-0.5,0.3-1,0-1.3-0.4l-2-4.3c-1,0.1-2.1-0.4-2.5-1.5c-0.6-1.3-0.1-2.9,1.2-3.5s2.9-0.1,3.5,1.2
		C1604.9,183.6,1604.6,184.6,1604,185.4z"/>
	<path class="st3" d="M1574.5,157.8C1574.5,157.8,1574.4,157.8,1574.5,157.8c-0.6,0.3-1.2,0-1.4-0.5c0-0.1-3.9-12.6,9.2-17.3
		c0.5-0.2,1.1,0.1,1.3,0.6c0.2,0.5-0.1,1.1-0.6,1.3c-11.3,4-8.1,14.2-8,14.8C1575.2,157,1574.9,157.5,1574.5,157.8z"/>
</g>
<g>
	<path class="st4" d="M1731.6,50c2,0.6,4.2-0.6,4.7-2.7l6.1-21.2c7.7-26-20.5-33.8-20.5-33.8c-28.2-8.3-35.4,17.4-35.4,17.4
		l-15.2,51.8l10.7,3.1l14-47.6c0,0,5-18.6,22.1-13.5c0,0,18,3.3,12.1,23.8l-5,16.5c-0.6,2,0.5,4.3,2.7,4.7L1731.6,50z"/>
	<path class="st0" d="M1735.1,68.6l-63.9-18.8c-1-0.2-2.1,0.4-2.3,1.3l-11,37.1c-0.2,1,0.4,2.1,1.3,2.3l63.9,18.8
		c1,0.2,2.1-0.4,2.3-1.3l11-37.1C1736.7,70.1,1736,69,1735.1,68.6z M1698.5,78.8l-2.3,7.7c-0.2,1-1.1,1.3-2,1.2
		c-1-0.2-1.3-1.1-1.2-2l2.3-7.7c-1.4-1-2.2-2.9-1.5-4.7c0.7-2.3,3.2-3.8,5.5-3.1c2.3,0.7,3.8,3.2,3.1,5.5
		C1701.7,77.6,1700.2,78.5,1698.5,78.8z"/>
	<path class="st3" d="M1692.4,10.4C1692.4,10.4,1692.2,10.3,1692.4,10.4c-1.1-0.3-1.5-1.4-1.2-2.2c0.1-0.1,9.3-20.4,31.3-11.5
		c0.9,0.3,1.3,1.4,1,2.2c-0.3,0.9-1.4,1.3-2.2,1c-18.9-7.7-26.4,8.8-26.9,9.7C1694.2,10.2,1693.2,10.5,1692.4,10.4z"/>
</g>
<path class="st0" d="M1696.6,318.1h-3.2c0-1.8-0.3-3.6-0.6-5.2l3.4-0.8c0.3-0.1,0.6-0.4,0.5-0.9c-1-3.6-2.6-6.9-5-9.7
	c-0.3-0.3-0.7-0.3-1-0.1l-2.7,2.3c-1.1-1.3-2.4-2.5-3.8-3.6l2.1-2.8c0.3-0.3,0.2-0.8-0.2-1c-3-2.1-6.4-3.6-10.1-4.3
	c-0.3-0.1-0.8,0.2-0.8,0.6l-0.6,3.4c-1.2-0.2-2.5-0.3-3.8-0.3c-0.4,0-1,0-1.4,0.1l-0.2-3.5c0-0.3-0.3-0.7-0.8-0.7
	c-3.6,0.3-7.2,1.4-10.4,3.1c-0.3,0.2-0.4,0.6-0.3,1l1.7,3c-1.5,0.9-3,1.9-4.2,3.1l-2.3-2.5c-0.3-0.3-0.7-0.3-1,0
	c-2.6,2.6-4.7,5.7-6,9.1c-0.2,0.3,0.1,0.8,0.4,0.9l3.3,1.2c-0.6,1.7-1,3.3-1.2,5.1l-3.4-0.3c-0.4-0.1-0.8,0.3-0.8,0.7
	c0,2.2,0.4,7.8,1.2,10.7c0.1,0.4,0.5,0.6,1,0.4c1.1-0.4,3.2-1.2,3.2-1.2c0.6,1.7,1.4,3.2,2.3,4.7l-2.9,1.9c-0.3,0.3-0.4,0.7-0.2,1
	c2.1,3,4.9,5.6,8,7.5c0.3,0.2,0.8,0.1,1-0.3l1.7-3c1.5,0.9,3.1,1.6,4.8,2.1l-1,3.3c-0.1,0.3,0.1,0.8,0.5,0.9c2.3,0.6,4.6,1,6.9,1
	c1.3,0,2.7-0.1,4-0.3c0.3-0.1,0.6-0.4,0.6-0.8l-0.6-3.4c1.7-0.3,3.4-0.8,5-1.5l1.4,3.2c0.2,0.3,0.6,0.5,1,0.3
	c3.3-1.6,6.3-3.8,8.8-6.5c0.3-0.3,0.3-0.8-0.1-1l-2.7-2.3c1.1-1.3,2.1-2.8,2.9-4.3l3.1,1.6c0.3,0.2,0.7,0.1,0.9-0.3
	c2-3,2.4-8.4,2.5-10.6C1697.4,318.6,1697,318.1,1696.6,318.1z M1670.8,328.7c-5.7,0-10.4-4.7-10.4-10.3c0-5.7,4.7-10.4,10.4-10.4
	s10.4,4.7,10.4,10.4C1681.2,324.1,1676.6,328.7,1670.8,328.7z"/>
<path class="st0" d="M1430.1-3h-3.2c0-1.8-0.3-3.6-0.6-5.2l3.4-0.8c0.3-0.1,0.6-0.4,0.5-0.9c-1-3.6-2.6-6.9-5-9.7
	c-0.3-0.3-0.7-0.3-1-0.1l-2.7,2.3c-1.1-1.3-2.4-2.5-3.8-3.6l2.1-2.8c0.3-0.3,0.2-0.8-0.2-1c-3-2.1-6.4-3.6-10.1-4.3
	c-0.3-0.1-0.8,0.2-0.8,0.6l-0.6,3.4c-1.2-0.2-2.5-0.3-3.8-0.3c-0.4,0-1,0-1.4,0.1l-0.2-3.5c0-0.3-0.3-0.7-0.8-0.7
	c-3.6,0.3-7.2,1.4-10.4,3.1c-0.3,0.2-0.4,0.6-0.3,1l1.7,3c-1.5,0.9-3,1.9-4.2,3.1l-2.3-2.5c-0.3-0.3-0.7-0.3-1,0
	c-2.6,2.6-4.7,5.7-6,9.1c-0.2,0.3,0.1,0.8,0.4,0.9l3.3,1.2c-0.6,1.7-1,3.3-1.2,5.1l-3.4-0.3c-0.4-0.1-0.8,0.3-0.8,0.7
	c0,2.2,0.4,7.8,1.2,10.7c0.1,0.4,0.5,0.6,1,0.4c1.1-0.4,3.2-1.2,3.2-1.2c0.6,1.7,1.4,3.2,2.3,4.7l-2.9,1.9c-0.3,0.3-0.4,0.7-0.2,1
	c2.1,3,4.9,5.6,8,7.5c0.3,0.2,0.8,0.1,1-0.3l1.7-3c1.5,0.9,3.1,1.6,4.8,2.1l-1,3.3c-0.1,0.3,0.1,0.8,0.5,0.9c2.3,0.6,4.6,1,6.9,1
	c1.3,0,2.7-0.1,4-0.3c0.3-0.1,0.6-0.4,0.6-0.8l-0.6-3.4c1.7-0.3,3.4-0.8,5-1.5l1.4,3.2c0.2,0.3,0.6,0.5,1,0.3
	c3.3-1.6,6.3-3.8,8.8-6.5c0.3-0.3,0.3-0.8-0.1-1l-2.7-2.3c1.1-1.3,2.1-2.8,2.9-4.3l3.1,1.6c0.3,0.2,0.7,0.1,0.9-0.3
	c2-3,2.4-8.4,2.5-10.6C1431-2.5,1430.5-3,1430.1-3z M1404.3,7.5c-5.7,0-10.4-4.7-10.4-10.3c0-5.7,4.7-10.4,10.4-10.4
	c5.7,0,10.4,4.7,10.4,10.4S1410.1,7.5,1404.3,7.5z"/>
<path class="st0" d="M1794,552.7h-4.3c0-2.3-0.3-4.7-0.9-6.9l4.5-1c0.5-0.1,0.8-0.6,0.7-1.1c-1.3-4.7-3.6-9.1-6.6-13
	c-0.3-0.4-1-0.4-1.3-0.1l-3.6,3c-1.5-1.7-3.2-3.4-5-4.8l2.8-3.7c0.3-0.4,0.3-1-0.2-1.3c-4-2.8-8.6-4.8-13.4-5.7
	c-0.5-0.1-1,0.3-1.1,0.8l-0.8,4.5c-1.7-0.3-3.4-0.4-5.1-0.4c-0.6,0-1.2,0-1.8,0.1l-0.3-4.6c0-0.5-0.5-1-1-0.9
	c-4.9,0.4-9.6,1.9-13.9,4.2c-0.4,0.3-0.6,0.9-0.3,1.3l2.3,4c-2,1.2-3.9,2.6-5.6,4.2l-3.2-3.4c-0.3-0.3-1-0.4-1.3,0
	c-3.5,3.5-6.2,7.6-8,12.2c-0.2,0.5,0.1,1,0.5,1.2l4.3,1.6c-0.8,2.2-1.3,4.4-1.6,6.8l-4.5-0.5c-0.5-0.1-1,0.3-1,1
	c0.1,2.9,0.6,10.4,1.7,14.2c0.2,0.5,0.7,0.8,1.2,0.6c1.5-0.5,4.3-1.6,4.3-1.6c0.8,2.2,1.9,4.3,3.1,6.2l-3.8,2.5
	c-0.4,0.3-0.5,0.9-0.3,1.3c2.8,4,6.4,7.4,10.6,10c0.4,0.3,1,0.1,1.3-0.3l2.3-4c2,1.1,4.2,2.1,6.4,2.8l-1.3,4.4
	c-0.2,0.5,0.2,1,0.6,1.1c3,0.8,6.1,1.2,9.2,1.2c1.7,0,3.6-0.1,5.3-0.4c0.5-0.1,0.9-0.6,0.8-1l-0.8-4.5c2.3-0.4,4.6-1,6.7-2l1.8,4.3
	c0.2,0.4,0.8,0.7,1.2,0.5c4.4-2.1,8.4-5,11.6-8.7c0.3-0.4,0.3-1-0.1-1.3l-3.6-3c1.5-1.8,2.8-3.7,3.8-5.8l4.1,2.1
	c0.4,0.2,1,0.1,1.2-0.3c2.7-4.1,3.3-11.2,3.4-14.1C1795.3,553.2,1794.7,552.7,1794,552.7z M1759.8,566.7c-7.6,0-13.8-6.2-13.8-13.8
	s6.2-13.8,13.8-13.8c7.6,0,13.8,6.2,13.8,13.8C1773.6,560.5,1767.5,566.7,1759.8,566.7z"/>
<path class="st0" d="M1524.5,653.4h-1.9c0-1-0.2-2.1-0.3-3l2-0.4c0.3-0.1,0.3-0.3,0.3-0.5c-0.5-2.1-1.6-4.1-3-5.8
	c-0.2-0.2-0.4-0.2-0.6-0.1l-1.6,1.3c-0.7-0.8-1.4-1.5-2.3-2.1l1.2-1.7c0.2-0.2,0.1-0.4-0.1-0.6c-1.8-1.2-3.8-2.1-5.9-2.5
	c-0.3,0-0.4,0.1-0.5,0.3l-0.3,2c-0.7-0.1-1.5-0.2-2.3-0.2c-0.3,0-0.5,0-0.8,0l-0.1-2.1c0-0.3-0.2-0.4-0.4-0.3
	c-2.2,0.2-4.3,0.9-6.2,1.9c-0.2,0.1-0.3,0.3-0.2,0.6l1,1.7c-0.9,0.5-1.7,1.1-2.4,1.8l-1.4-1.5c-0.2-0.2-0.4-0.2-0.6,0
	c-1.6,1.6-2.8,3.4-3.6,5.4c-0.1,0.2,0,0.4,0.3,0.5l1.9,0.7c-0.3,1-0.6,2-0.7,3l-2-0.3c-0.3,0-0.4,0.2-0.4,0.4c0,1.3,0.3,4.6,0.7,6.3
	c0.1,0.3,0.3,0.3,0.5,0.3c0.7-0.3,1.9-0.7,1.9-0.7c0.3,1,0.9,1.9,1.4,2.8l-1.7,1.1c-0.2,0.2-0.3,0.4-0.1,0.6
	c1.2,1.7,2.9,3.3,4.7,4.4c0.2,0.1,0.4,0.1,0.6-0.2l1-1.7c0.9,0.5,1.8,1,2.9,1.2l-0.6,2c-0.1,0.3,0.1,0.4,0.3,0.5
	c1.3,0.3,2.7,0.5,4.1,0.5c0.8,0,1.6-0.1,2.3-0.2c0.3,0,0.3-0.3,0.3-0.5l-0.3-2c1-0.2,2-0.5,3-0.9l0.8,1.9c0.1,0.2,0.3,0.3,0.5,0.2
	c2-1,3.7-2.3,5.2-3.8c0.2-0.2,0.2-0.4-0.1-0.6l-1.6-1.3c0.7-0.8,1.2-1.7,1.7-2.6l1.8,1c0.2,0.1,0.4,0,0.5-0.2c1.2-1.8,1.5-5,1.5-6.3
	C1525,653.7,1524.8,653.4,1524.5,653.4z M1509.2,659.7c-3.4,0-6.2-2.8-6.2-6.2s2.8-6.2,6.2-6.2c3.4,0,6.2,2.8,6.2,6.2
	C1515.4,656.9,1512.7,659.7,1509.2,659.7z"/>
<path class="st0" d="M1728.2,1260.6h-1.9c0-1-0.2-2.1-0.3-3l2-0.4c0.3-0.1,0.3-0.3,0.3-0.5c-0.5-2.1-1.6-4.1-3-5.8
	c-0.2-0.2-0.4-0.2-0.6-0.1l-1.6,1.3c-0.7-0.8-1.4-1.5-2.3-2.1l1.2-1.7c0.2-0.2,0.1-0.4-0.1-0.6c-1.8-1.2-3.8-2.1-5.9-2.5
	c-0.3,0-0.4,0.1-0.5,0.3l-0.3,2c-0.7-0.1-1.5-0.2-2.3-0.2c-0.3,0-0.5,0-0.8,0l-0.1-2.1c0-0.3-0.2-0.4-0.4-0.3
	c-2.2,0.2-4.3,0.9-6.2,1.9c-0.2,0.1-0.3,0.3-0.2,0.6l1,1.7c-0.9,0.5-1.7,1.1-2.4,1.8l-1.4-1.5c-0.2-0.2-0.4-0.2-0.6,0
	c-1.6,1.6-2.8,3.4-3.6,5.4c-0.1,0.2,0,0.4,0.3,0.5l1.9,0.7c-0.3,1-0.6,2-0.7,3l-2-0.3c-0.3,0-0.4,0.2-0.4,0.4c0,1.3,0.3,4.6,0.7,6.3
	c0.1,0.3,0.3,0.3,0.5,0.3c0.7-0.3,1.9-0.7,1.9-0.7c0.3,1,0.9,1.9,1.4,2.8l-1.7,1.1c-0.2,0.2-0.3,0.4-0.1,0.6
	c1.2,1.7,2.9,3.3,4.7,4.4c0.2,0.1,0.4,0.1,0.6-0.2l1-1.7c0.9,0.5,1.8,1,2.9,1.2l-0.6,2c-0.1,0.3,0.1,0.4,0.3,0.5
	c1.3,0.3,2.7,0.5,4.1,0.5c0.8,0,1.6-0.1,2.3-0.2c0.3,0,0.3-0.3,0.3-0.5l-0.3-2c1-0.2,2-0.5,3-0.9l0.8,1.9c0.1,0.2,0.3,0.3,0.5,0.2
	c2-1,3.7-2.3,5.2-3.8c0.2-0.2,0.2-0.4-0.1-0.6l-1.6-1.3c0.7-0.8,1.2-1.7,1.7-2.6l1.8,1c0.2,0.1,0.4,0,0.5-0.2c1.2-1.8,1.5-5,1.5-6.3
	C1728.7,1260.9,1728.5,1260.6,1728.2,1260.6z M1712.9,1266.9c-3.4,0-6.2-2.8-6.2-6.2s2.8-6.2,6.2-6.2c3.4,0,6.2,2.8,6.2,6.2
	C1719.1,1264.1,1716.4,1266.9,1712.9,1266.9z"/>
<path class="st0" d="M1717.1,770.5h-1.9c0-1-0.2-2.1-0.3-3l2-0.4c0.3-0.1,0.3-0.3,0.3-0.5c-0.5-2.1-1.6-4.1-3-5.8
	c-0.2-0.2-0.4-0.2-0.6-0.1l-1.6,1.3c-0.7-0.8-1.4-1.5-2.3-2.1l1.2-1.7c0.2-0.2,0.1-0.4-0.1-0.6c-1.8-1.2-3.8-2.1-5.9-2.5
	c-0.3,0-0.4,0.1-0.5,0.3l-0.3,2c-0.7-0.1-1.5-0.2-2.3-0.2c-0.3,0-0.5,0-0.8,0l-0.1-2.1c0-0.3-0.2-0.4-0.4-0.3
	c-2.2,0.2-4.3,0.9-6.2,1.9c-0.2,0.1-0.3,0.3-0.2,0.6l1,1.7c-0.9,0.5-1.7,1.1-2.4,1.8l-1.4-1.5c-0.2-0.2-0.4-0.2-0.6,0
	c-1.6,1.6-2.8,3.4-3.6,5.4c-0.1,0.2,0,0.4,0.3,0.5l1.9,0.7c-0.3,1-0.6,2-0.7,3l-2-0.3c-0.3,0-0.4,0.2-0.4,0.4c0,1.3,0.3,4.6,0.7,6.3
	c0.1,0.3,0.3,0.3,0.5,0.3c0.7-0.3,1.9-0.7,1.9-0.7c0.3,1,0.9,1.9,1.4,2.8l-1.7,1.1c-0.2,0.2-0.3,0.4-0.1,0.6
	c1.2,1.7,2.9,3.3,4.7,4.4c0.2,0.1,0.4,0.1,0.6-0.2l1-1.7c0.9,0.5,1.8,1,2.9,1.2l-0.6,2c-0.1,0.3,0.1,0.4,0.3,0.5
	c1.3,0.3,2.7,0.5,4.1,0.5c0.8,0,1.6-0.1,2.3-0.2c0.3,0,0.3-0.3,0.3-0.5l-0.3-2c1-0.2,2-0.5,3-0.9l0.8,1.9c0.1,0.2,0.3,0.3,0.5,0.2
	c2-1,3.7-2.3,5.2-3.8c0.2-0.2,0.2-0.4-0.1-0.6l-1.6-1.3c0.7-0.8,1.2-1.7,1.7-2.6l1.8,1c0.2,0.1,0.4,0,0.5-0.2c1.2-1.8,1.5-5,1.5-6.3
	C1717.6,770.8,1717.4,770.5,1717.1,770.5z M1701.8,776.8c-3.4,0-6.2-2.8-6.2-6.2s2.8-6.2,6.2-6.2c3.4,0,6.2,2.8,6.2,6.2
	C1708,774,1705.3,776.8,1701.8,776.8z"/>
<path class="st0" d="M1485.9,1340.3h-1.9c0-1-0.2-2.1-0.3-3l2-0.4c0.3-0.1,0.3-0.3,0.3-0.5c-0.5-2.1-1.6-4.1-3-5.8
	c-0.2-0.2-0.4-0.2-0.6-0.1l-1.6,1.3c-0.7-0.8-1.4-1.5-2.3-2.1l1.2-1.7c0.2-0.2,0.1-0.4-0.1-0.6c-1.8-1.2-3.8-2.1-5.9-2.5
	c-0.3,0-0.4,0.1-0.5,0.3l-0.3,2c-0.7-0.1-1.5-0.2-2.3-0.2c-0.3,0-0.5,0-0.8,0l-0.1-2.1c0-0.3-0.2-0.4-0.4-0.3
	c-2.2,0.2-4.3,0.9-6.2,1.9c-0.2,0.1-0.3,0.3-0.2,0.6l1,1.7c-0.9,0.5-1.7,1.1-2.4,1.8l-1.4-1.5c-0.2-0.2-0.4-0.2-0.6,0
	c-1.6,1.6-2.8,3.4-3.6,5.4c-0.1,0.2,0,0.4,0.3,0.5l1.9,0.7c-0.3,1-0.6,2-0.7,3l-2-0.3c-0.3,0-0.4,0.2-0.4,0.4c0,1.3,0.3,4.6,0.7,6.3
	c0.1,0.3,0.3,0.3,0.5,0.3c0.7-0.3,1.9-0.7,1.9-0.7c0.3,1,0.9,1.9,1.4,2.8l-1.7,1.1c-0.2,0.2-0.3,0.4-0.1,0.6
	c1.2,1.7,2.9,3.3,4.7,4.4c0.2,0.1,0.4,0.1,0.6-0.2l1-1.7c0.9,0.5,1.8,1,2.9,1.2l-0.6,2c-0.1,0.3,0.1,0.4,0.3,0.5
	c1.3,0.3,2.7,0.5,4.1,0.5c0.8,0,1.6-0.1,2.3-0.2c0.3,0,0.3-0.3,0.3-0.5l-0.3-2c1-0.2,2-0.5,3-0.9l0.8,1.9c0.1,0.2,0.3,0.3,0.5,0.2
	c2-1,3.7-2.3,5.2-3.8c0.2-0.2,0.2-0.4-0.1-0.6l-1.6-1.3c0.7-0.8,1.2-1.7,1.7-2.6l1.8,1c0.2,0.1,0.4,0,0.5-0.2c1.2-1.8,1.5-5,1.5-6.3
	C1486.4,1340.6,1486.2,1340.3,1485.9,1340.3z M1470.6,1346.6c-3.4,0-6.2-2.8-6.2-6.2s2.8-6.2,6.2-6.2c3.4,0,6.2,2.8,6.2,6.2
	C1476.8,1343.8,1474.1,1346.6,1470.6,1346.6z"/>
<path class="st0" d="M1840.9,1159.4h-1.9c0-1-0.2-2.1-0.3-3l2-0.4c0.3-0.1,0.3-0.3,0.3-0.5c-0.5-2.1-1.6-4.1-3-5.8
	c-0.2-0.2-0.4-0.2-0.6-0.1l-1.6,1.3c-0.7-0.8-1.4-1.5-2.3-2.1l1.2-1.7c0.2-0.2,0.1-0.4-0.1-0.6c-1.8-1.2-3.8-2.1-5.9-2.5
	c-0.3,0-0.4,0.1-0.5,0.3l-0.3,2c-0.7-0.1-1.5-0.2-2.3-0.2c-0.3,0-0.5,0-0.8,0l-0.1-2.1c0-0.3-0.2-0.4-0.4-0.3
	c-2.2,0.2-4.3,0.9-6.2,1.9c-0.2,0.1-0.3,0.3-0.2,0.6l1,1.7c-0.9,0.5-1.7,1.1-2.4,1.8l-1.4-1.5c-0.2-0.2-0.4-0.2-0.6,0
	c-1.6,1.6-2.8,3.4-3.6,5.4c-0.1,0.2,0,0.4,0.3,0.5l1.9,0.7c-0.3,1-0.6,2-0.7,3l-2-0.3c-0.3,0-0.4,0.2-0.4,0.4c0,1.3,0.3,4.6,0.7,6.3
	c0.1,0.3,0.3,0.3,0.5,0.3c0.7-0.3,1.9-0.7,1.9-0.7c0.3,1,0.9,1.9,1.4,2.8l-1.7,1.1c-0.2,0.2-0.3,0.4-0.1,0.6
	c1.2,1.7,2.9,3.3,4.7,4.4c0.2,0.1,0.4,0.1,0.6-0.2l1-1.7c0.9,0.5,1.8,1,2.9,1.2l-0.6,2c-0.1,0.3,0.1,0.4,0.3,0.5
	c1.3,0.3,2.7,0.5,4.1,0.5c0.8,0,1.6-0.1,2.3-0.2c0.3,0,0.3-0.3,0.3-0.5l-0.3-2c1-0.2,2-0.5,3-0.9l0.8,1.9c0.1,0.2,0.3,0.3,0.5,0.2
	c2-1,3.7-2.3,5.2-3.8c0.2-0.2,0.2-0.4-0.1-0.6l-1.6-1.3c0.7-0.8,1.2-1.7,1.7-2.6l1.8,1c0.2,0.1,0.4,0,0.5-0.2c1.2-1.8,1.5-5,1.5-6.3
	C1841.4,1159.7,1841.1,1159.4,1840.9,1159.4z M1825.6,1165.7c-3.4,0-6.2-2.8-6.2-6.2c0-3.4,2.8-6.2,6.2-6.2c3.4,0,6.2,2.8,6.2,6.2
	S1829.1,1165.7,1825.6,1165.7z"/>
<path class="st0" d="M1429.4,1152h-1.9c0-1-0.2-2.1-0.3-3l2-0.4c0.3-0.1,0.3-0.3,0.3-0.5c-0.5-2.1-1.6-4.1-3-5.8
	c-0.2-0.2-0.4-0.2-0.6-0.1l-1.6,1.3c-0.7-0.8-1.4-1.5-2.3-2.1l1.2-1.7c0.2-0.2,0.1-0.4-0.1-0.6c-1.8-1.2-3.8-2.1-5.9-2.5
	c-0.3,0-0.4,0.1-0.5,0.3l-0.3,2c-0.7-0.1-1.5-0.2-2.3-0.2c-0.3,0-0.5,0-0.8,0l-0.1-2.1c0-0.3-0.2-0.4-0.4-0.3
	c-2.2,0.2-4.3,0.9-6.2,1.9c-0.2,0.1-0.3,0.3-0.2,0.6l1,1.7c-0.9,0.5-1.7,1.1-2.4,1.8l-1.4-1.5c-0.2-0.2-0.4-0.2-0.6,0
	c-1.6,1.6-2.8,3.4-3.6,5.4c-0.1,0.2,0,0.4,0.3,0.5l1.9,0.7c-0.3,1-0.6,2-0.7,3l-2-0.3c-0.3,0-0.4,0.2-0.4,0.4c0,1.3,0.3,4.6,0.7,6.3
	c0.1,0.3,0.3,0.3,0.5,0.3c0.7-0.3,1.9-0.7,1.9-0.7c0.3,1,0.9,1.9,1.4,2.8l-1.7,1.1c-0.2,0.2-0.3,0.4-0.1,0.6
	c1.2,1.7,2.9,3.3,4.7,4.4c0.2,0.1,0.4,0.1,0.6-0.2l1-1.7c0.9,0.5,1.8,1,2.9,1.2l-0.6,2c-0.1,0.3,0.1,0.4,0.3,0.5
	c1.3,0.3,2.7,0.5,4.1,0.5c0.8,0,1.6-0.1,2.3-0.2c0.3,0,0.3-0.3,0.3-0.5l-0.3-2c1-0.2,2-0.5,3-0.9l0.8,1.9c0.1,0.2,0.3,0.3,0.5,0.2
	c2-1,3.7-2.3,5.2-3.8c0.2-0.2,0.2-0.4-0.1-0.6l-1.6-1.3c0.7-0.8,1.2-1.7,1.7-2.6l1.8,1c0.2,0.1,0.4,0,0.5-0.2c1.2-1.8,1.5-5,1.5-6.3
	C1429.9,1152.3,1429.7,1152,1429.4,1152z M1414.1,1158.3c-3.4,0-6.2-2.8-6.2-6.2c0-3.4,2.8-6.2,6.2-6.2c3.4,0,6.2,2.8,6.2,6.2
	S1417.6,1158.3,1414.1,1158.3z"/>
<path class="st0" d="M1813.9,1015.7h-6.9c0-3.8-0.5-7.6-1.4-11.1l7.2-1.7c0.8-0.2,1.3-1,1.1-1.8c-2-7.6-5.6-14.7-10.6-20.8
	c-0.5-0.6-1.5-0.7-2.1-0.2l-5.6,4.8c-2.4-2.9-5.1-5.4-8.2-7.6l4.4-6c0.5-0.7,0.3-1.7-0.3-2.1c-6.4-4.5-13.8-7.6-21.5-9.2
	c-0.8-0.2-1.7,0.4-1.7,1.2l-1.3,7.3c-2.7-0.4-5.4-0.7-8.2-0.7c-1,0-2,0.1-3,0.1l-0.4-7.4c-0.1-0.8-0.8-1.5-1.7-1.4
	c-7.8,0.7-15.5,3-22.3,6.8c-0.7,0.4-1,1.3-0.6,2.1l3.7,6.4c-3.2,1.9-6.3,4.2-8.9,6.7l-5.1-5.4c-0.6-0.6-1.6-0.6-2.2-0.1
	c-5.6,5.6-9.9,12.2-12.8,19.5c-0.3,0.8,0.1,1.7,0.9,1.9l6.9,2.5c-1.3,3.5-2.2,7.1-2.5,10.9l-7.2-0.8c-0.9-0.1-1.7,0.6-1.7,1.5
	c0.1,4.6,1,16.7,2.6,22.8c0.3,0.9,1.1,1.3,2,1c2.4-0.9,6.9-2.5,6.9-2.5c1.3,3.6,3,6.9,5,10l-6.2,4.1c-0.7,0.4-0.9,1.4-0.4,2.1
	c4.5,6.4,10.3,11.9,16.9,16c0.7,0.4,1.7,0.2,2.1-0.5l3.7-6.4c3.2,1.8,6.6,3.3,10.3,4.4l-2.1,7.1c-0.3,0.8,0.3,1.7,1,1.8
	c4.8,1.3,9.8,2,14.9,2c2.9,0,5.6-0.2,8.4-0.6c0.8-0.1,1.4-0.9,1.2-1.7l-1.3-7.3c3.7-0.7,7.3-1.7,10.7-3.2l3,6.8
	c0.3,0.8,1.2,1.1,2,0.8c7.1-3.3,13.5-8.1,18.7-13.9c0.5-0.6,0.4-1.6-0.2-2.2l-5.6-4.8c2.4-2.9,4.4-6,6.2-9.3l6.6,3.3
	c0.7,0.3,1.5,0.2,1.9-0.5c4.3-6.5,5.3-18.1,5.5-22.6C1815.8,1016.6,1815,1015.7,1813.9,1015.7z M1758.9,1038.1
	c-12.2,0-22.2-9.9-22.2-22.2s9.9-22.2,22.2-22.2s22.2,9.9,22.2,22.2C1781.2,1028.2,1771.2,1038.1,1758.9,1038.1z"/>
<path class="st0" d="M1838.8,1331.2h-6.4c0-3.5-0.5-7-1.3-10.2l6.6-1.6c0.7-0.2,1.2-0.9,1-1.7c-1.8-7-5.2-13.6-9.8-19.2
	c-0.5-0.6-1.4-0.6-1.9-0.2l-5.2,4.4c-2.2-2.7-4.7-5-7.6-7l4.1-5.5c0.5-0.6,0.3-1.6-0.3-1.9c-5.9-4.2-12.7-7-19.8-8.5
	c-0.7-0.2-1.6,0.4-1.6,1.1l-1.2,6.7c-2.5-0.4-5-0.6-7.6-0.6c-0.9,0-1.8,0.1-2.8,0.1l-0.4-6.8c-0.1-0.7-0.7-1.4-1.6-1.3
	c-7.2,0.6-14.3,2.8-20.6,6.3c-0.6,0.4-0.9,1.2-0.6,1.9l3.4,5.9c-3,1.8-5.8,3.9-8.2,6.2l-4.7-5c-0.6-0.6-1.5-0.6-2-0.1
	c-5.2,5.2-9.1,11.3-11.8,18c-0.3,0.7,0.1,1.6,0.8,1.8l6.4,2.3c-1.2,3.2-2,6.6-2.3,10.1l-6.6-0.7c-0.8-0.1-1.6,0.6-1.6,1.4
	c0.1,4.2,0.9,15.4,2.4,21c0.3,0.8,1,1.2,1.8,0.9c2.2-0.8,6.4-2.3,6.4-2.3c1.2,3.3,2.8,6.4,4.6,9.2l-5.7,3.8
	c-0.6,0.4-0.8,1.3-0.4,1.9c4.2,5.9,9.5,11,15.6,14.8c0.6,0.4,1.6,0.2,1.9-0.5l3.4-5.9c3,1.7,6.1,3,9.5,4.1l-1.9,6.6
	c-0.3,0.7,0.3,1.6,0.9,1.7c4.4,1.2,9,1.8,13.7,1.8c2.7,0,5.2-0.2,7.8-0.6c0.7-0.1,1.3-0.8,1.1-1.6l-1.2-6.7c3.4-0.6,6.7-1.6,9.9-3
	l2.8,6.3c0.3,0.7,1.1,1,1.8,0.7c6.6-3,12.5-7.5,17.3-12.8c0.5-0.6,0.4-1.5-0.2-2l-5.2-4.4c2.2-2.7,4.1-5.5,5.7-8.6l6.1,3
	c0.6,0.3,1.4,0.2,1.8-0.5c4-6,4.9-16.7,5.1-20.9C1840.6,1332,1839.8,1331.2,1838.8,1331.2z M1788.1,1351.9
	c-11.3,0-20.5-9.1-20.5-20.5c0-11.3,9.1-20.5,20.5-20.5c11.3,0,20.5,9.1,20.5,20.5C1808.7,1342.7,1799.4,1351.9,1788.1,1351.9z"/>
<g>
	<path class="st0" d="M1925.6,291.9c0,33.3-27,60.3-60.3,60.3s-60.3-27-60.3-60.3s27-60.3,60.3-60.3S1925.6,258.6,1925.6,291.9z"/>
	<path class="st4" d="M1846.7,285.9l15.3,15.3l64.3-64.3c2.3-2.3,6-2.4,8.5-0.3l0,0c2.8,2.3,3,6.7,0.3,9.3l-72.4,72.4l-24.7-23.5
		c-2.7-2.5-2.5-6.9,0.3-9.3l0,0C1840.7,283.5,1844.3,283.7,1846.7,285.9z"/>
</g>
<g>
	<path class="st0" d="M1618.1,835.9c0,16.5-13.4,30-30,30c-16.5,0-30-13.4-30-30s13.4-30,30-30S1618.1,819.3,1618.1,835.9z"/>
	<path class="st4" d="M1579.1,832.9l7.6,7.6l31.9-31.9c1.1-1.1,3-1.2,4.3-0.2l0,0c1.4,1.2,1.5,3.3,0.2,4.6l-36,36l-12.2-11.6
		c-1.3-1.3-1.3-3.4,0.2-4.6l0,0C1576.1,831.7,1577.9,831.8,1579.1,832.9z"/>
</g>
<g>
	<path class="st0" d="M1583.6-0.1c6.4,13.6,6.7,65.7,1.7,68c-6.2,3-44.6-31.4-50.9-44.9s-0.6-29.8,13-36.1
		C1561.1-19.4,1577.2-13.7,1583.6-0.1z"/>
	
		<ellipse transform="matrix(0.9047 -0.426 0.426 0.9047 143.5607 665.469)" class="st1" cx="1559.5" cy="11.8" rx="10.9" ry="10.9"/>
</g>
<g>
	<path class="st0" d="M1878.2,433.9c-2.3,7.6-20.6,28.6-23.4,27.7c-3.5-1-6.7-28.2-4.4-35.9s10.3-12.1,18-9.8
		C1876.1,418.1,1880.5,426.2,1878.2,433.9z"/>
	
		<ellipse transform="matrix(0.282 -0.9594 0.9594 0.282 925.8766 2097.5828)" class="st1" cx="1864.4" cy="430.2" rx="5.8" ry="5.8"/>
</g>
<g>
	<path class="st0" d="M1664.8,457.8c-2.3,7.6-20.6,28.6-23.4,27.7c-3.5-1-6.7-28.2-4.4-35.9s10.3-12.1,18-9.8
		C1662.7,442.1,1667.1,450.1,1664.8,457.8z"/>
	<ellipse transform="matrix(0.282 -0.9594 0.9594 0.282 749.71 1910.0336)" class="st1" cx="1651" cy="454.1" rx="5.8" ry="5.8"/>
</g>
<g>
	<path class="st0" d="M1582.9,287.4c-1.6,5.4-14.6,20.2-16.5,19.6c-2.5-0.7-4.7-20-3.1-25.4s7.2-8.5,12.7-6.9
		C1581.5,276.3,1584.5,282,1582.9,287.4z"/>
	
		<ellipse transform="matrix(0.282 -0.9594 0.9594 0.282 856.3359 1713.7439)" class="st1" cx="1573.2" cy="284.7" rx="4.1" ry="4.1"/>
</g>
<g>
	<path class="st0" d="M1564.9,1126.9c-4,13.5-36.4,50.5-41.3,49c-6.1-1.8-11.8-49.9-7.8-63.4s18.1-21.3,31.8-17.4
		C1561.2,1099.1,1568.9,1113.4,1564.9,1126.9z"/>
	
		<ellipse transform="matrix(0.282 -0.9594 0.9594 0.282 31.1818 2282.2817)" class="st1" cx="1540.4" cy="1120.3" rx="10.3" ry="10.3"/>
</g>
<g>
	<path class="st0" d="M1742.1,655.9c9.7,7.3,29.7,44.5,27,48c-3.3,4.4-43.7-5.6-53.4-12.8c-9.7-7.3-11.7-21-4.4-30.8
		C1718.6,650.5,1732.4,648.6,1742.1,655.9z"/>
	
		<ellipse transform="matrix(0.6007 -0.7994 0.7994 0.6007 151.9283 1651.4427)" class="st1" cx="1729.3" cy="673.6" rx="8.8" ry="8.8"/>
</g>
<g>
	<path class="st0" d="M1488.1,765.9c3.3,6.6,4.3,32.3,1.9,33.6c-3,1.5-22.5-14.8-25.8-21.3c-3.3-6.6-0.7-14.7,5.9-18
		C1476.7,756.7,1484.8,759.3,1488.1,765.9z"/>
	<ellipse transform="matrix(0.891 -0.454 0.454 0.891 -189.5919 754.4518)" class="st1" cx="1476.4" cy="772.1" rx="5.4" ry="5.4"/>
</g>
<g>
	<path class="st0" d="M1511.7,950.7c-2.5,6.9-20.4,25.4-23,24.5c-3.2-1.1-4.8-26.5-2.3-33.4c2.5-6.9,10.2-10.6,17.1-8.1
		C1510.5,936.1,1514.2,943.8,1511.7,950.7z"/>
	
		<ellipse transform="matrix(0.3328 -0.943 0.943 0.3328 107.6751 2045.1512)" class="st1" cx="1499.1" cy="946.5" rx="5.4" ry="5.4"/>
</g>
</svg>
