<?xml version="1.0" encoding="utf-8"?>
<!-- Generator: Adobe Illustrator 21.0.2, SVG Export Plug-In . SVG Version: 6.00 Build 0)  -->
<svg version="1.1" id="Layer_1" xmlns="http://www.w3.org/2000/svg" xmlns:xlink="http://www.w3.org/1999/xlink" x="0px" y="0px"
	 viewBox="0 0 2500 1200" style="enable-background:new 0 0 2500 1200;" xml:space="preserve">
<style type="text/css">
	.st0{fill:#F1F1F2;}
	.st1{fill:#909190;}
	.st2{fill:#B3B3B4;}
	.st3{fill:#E1E0E0;}
	.st4{fill:#00AEC8;}
	.st5{fill:#028CA0;}
	.st6{fill:#D0D2D3;}
</style>
<g>
	<path class="st0" d="M985.5,282.1c0,22.9-18.3,42.5-44.4,50.3l-42.3,22.8c-2.6,1.3-5.3-1.3-4-3.9l8.4-16.2
		c-32.4-4.6-56.8-26.6-56.8-52.9c0-29.8,31.1-53.8,69.6-53.8S985.5,252.4,985.5,282.1z"/>
	<circle class="st1" cx="886.9" cy="283.7" r="7.5"/>
	<circle class="st1" cx="916.2" cy="283.7" r="7.5"/>
	<circle class="st1" cx="945.4" cy="283.7" r="7.5"/>
</g>
<g>
	<path class="st0" d="M229.1,72.1c0,22.9-18.3,42.5-44.4,50.3l-42.3,22.8c-2.6,1.3-5.3-1.3-4-3.9l8.4-16.2
		C114.4,120.5,90,98.5,90,72.2c0-29.8,31.1-53.8,69.6-53.8S229.1,42.4,229.1,72.1z"/>
	<circle class="st1" cx="130.5" cy="73.7" r="7.5"/>
	<circle class="st1" cx="159.8" cy="73.7" r="7.5"/>
	<circle class="st1" cx="189" cy="73.7" r="7.5"/>
</g>
<g>
	<path class="st0" d="M1670.5,68.8c0,21.4-17.1,39.7-41.4,46.9l-39.5,21.3c-2.4,1.2-5-1.2-3.8-3.6l7.8-15.1
		c-30.3-4.3-53-24.9-53-49.4c0-27.8,29-50.3,64.9-50.3S1670.5,41.1,1670.5,68.8z"/>
	<circle class="st1" cx="1578.4" cy="70.4" r="7"/>
	<circle class="st1" cx="1605.8" cy="70.4" r="7"/>
	<circle class="st1" cx="1633.1" cy="70.4" r="7"/>
</g>
<g>
	<path class="st0" d="M673.3,41.1c0,22.9-18.3,42.5-44.4,50.3l-42.3,22.8c-2.6,1.3-5.3-1.3-4-3.9l8.4-16.2
		c-32.4-4.6-56.8-26.6-56.8-52.9c0-29.8,31.1-53.8,69.6-53.8S673.3,11.4,673.3,41.1z"/>
	<circle class="st1" cx="574.6" cy="42.7" r="7.5"/>
	<circle class="st1" cx="603.9" cy="42.7" r="7.5"/>
	<circle class="st1" cx="633.2" cy="42.7" r="7.5"/>
</g>
<g>
	<path class="st0" d="M965.4,167.4c0,6.6-5.3,12.2-12.8,14.4l-12.2,6.6c-0.7,0.4-1.5-0.4-1.2-1.2l2.5-4.7
		c-9.3-1.3-16.3-7.7-16.3-15.3c0-8.5,9-15.5,20-15.5C956.5,152,965.4,158.9,965.4,167.4z"/>
	<circle class="st1" cx="937" cy="168" r="2.1"/>
	<circle class="st1" cx="945.4" cy="168" r="2.1"/>
	<circle class="st1" cx="953.9" cy="168" r="2.1"/>
</g>
<g>
	<path class="st0" d="M1409.8,177.2c0,6.6-5.3,12.2-12.8,14.4l-12.2,6.6c-0.7,0.4-1.5-0.4-1.2-1.2l2.5-4.7
		c-9.3-1.3-16.3-7.7-16.3-15.3c0-8.5,9-15.5,20-15.5C1401,161.7,1409.8,168.6,1409.8,177.2z"/>
	<circle class="st1" cx="1381.5" cy="177.8" r="2.1"/>
	<circle class="st1" cx="1389.9" cy="177.8" r="2.1"/>
	<circle class="st1" cx="1398.4" cy="177.8" r="2.1"/>
</g>
<g>
	<path class="st0" d="M2070.1,521.8c0,6.6-5.3,12.2-12.8,14.4l-12.2,6.6c-0.7,0.4-1.5-0.4-1.2-1.2l2.5-4.7
		c-9.3-1.3-16.3-7.7-16.3-15.3c0-8.5,9-15.5,20-15.5C2061.3,506.3,2070.1,513.2,2070.1,521.8z"/>
	<circle class="st1" cx="2041.8" cy="522.4" r="2.1"/>
	<circle class="st1" cx="2050.2" cy="522.4" r="2.1"/>
	<circle class="st1" cx="2058.7" cy="522.4" r="2.1"/>
</g>
<g>
	<path class="st0" d="M2301.6,455.1c0,6.6-5.3,12.2-12.8,14.4l-12.2,6.6c-0.7,0.4-1.5-0.4-1.2-1.2l2.5-4.7
		c-9.3-1.3-16.3-7.7-16.3-15.3c0-8.5,9-15.5,20-15.5C2292.8,439.6,2301.6,446.5,2301.6,455.1z"/>
	<circle class="st1" cx="2273.3" cy="455.7" r="2.1"/>
	<circle class="st1" cx="2281.7" cy="455.7" r="2.1"/>
	<circle class="st1" cx="2290.2" cy="455.7" r="2.1"/>
</g>
<g>
	<path class="st0" d="M1095.1,413.9c0,6.6-5.3,12.2-12.8,14.4l-12.2,6.7c-0.7,0.4-1.5-0.4-1.2-1.2l2.5-4.7
		c-9.3-1.3-16.3-7.7-16.3-15.3c0-8.5,9-15.5,20-15.5C1086.1,398.4,1095.1,405.4,1095.1,413.9z"/>
	<circle class="st1" cx="1066.6" cy="414.5" r="2.1"/>
	<circle class="st1" cx="1075.1" cy="414.5" r="2.1"/>
	<circle class="st1" cx="1083.6" cy="414.5" r="2.1"/>
</g>
<g>
	<path class="st0" d="M827.4,391.8c0,9.2-7.4,17-17.8,20.2l-17,9.2c-1,0.5-2.1-0.5-1.7-1.7l3.5-6.6c-13-1.8-22.8-10.7-22.8-21.3
		c0-11.9,12.6-21.6,27.9-21.6C815,370.2,827.4,379.9,827.4,391.8z"/>
	<circle class="st1" cx="787.8" cy="392.7" r="3"/>
	<circle class="st1" cx="799.5" cy="392.7" r="3"/>
	<circle class="st1" cx="811.4" cy="392.7" r="3"/>
</g>
<g>
	<path class="st0" d="M1861.1,132.9c0,10.7-8.7,19.9-20.8,23.8l-19.9,10.7c-1.1,0.6-2.5-0.6-2-2l3.9-7.9
		c-15.4-2.2-26.6-12.6-26.6-25c0-14,14.6-25.5,32.8-25.5C1846.5,107.7,1861.1,119.2,1861.1,132.9z"/>
	<circle class="st1" cx="1814.2" cy="133.8" r="3.6"/>
	<circle class="st1" cx="1828.3" cy="133.8" r="3.6"/>
	<circle class="st1" cx="1842.3" cy="133.8" r="3.6"/>
</g>
<g>
	<path class="st0" d="M2238.5,514.8c0,16.6-13.3,30.7-32.1,36.3l-30.6,16.6c-1.9,0.9-3.8-0.9-2.9-2.8l6.1-11.7
		c-23.4-3.3-41-19.2-41-38.2c0-21.6,22.5-38.9,50.3-38.9C2216,475.8,2238.5,493.3,2238.5,514.8z"/>
	<circle class="st1" cx="2167.2" cy="516" r="5.4"/>
	<circle class="st1" cx="2188.4" cy="516" r="5.4"/>
	<circle class="st1" cx="2209.5" cy="516" r="5.4"/>
</g>
<g>
	<path class="st0" d="M2347.5,146.8c0,16.6-13.3,30.7-32.1,36.3l-30.6,16.6c-1.9,0.9-3.8-0.9-2.9-2.8l6.1-11.7
		c-23.4-3.3-41-19.2-41-38.2c0-21.6,22.5-38.9,50.3-38.9C2325,107.8,2347.5,125.3,2347.5,146.8z"/>
	<circle class="st1" cx="2276.2" cy="148" r="5.4"/>
	<circle class="st1" cx="2297.4" cy="148" r="5.4"/>
	<circle class="st1" cx="2318.5" cy="148" r="5.4"/>
</g>
<g>
	<g>
		<path class="st2" d="M817.2,187.4c2.1,0,3.8-1.8,3.8-3.9v-37.7c0-27.4-29.5-27-29.5-27c-29.8,0-29.5,27.2-29.5,27.2v54.6h11.4
			v-50.3c0,0-0.5-19.5,17.6-19.5c0,0,18.5-1.8,18.5,19.8l-0.2,33c0,2.1,1.8,3.9,4,3.9L817.2,187.4z"/>
		<path class="st3" d="M767.9,144.2c-0.1,0-0.1,0-0.2,0c-0.9-0.1-1.7-1.1-1.4-2c0-0.2,3.2-22.4,26.7-19.9c0.9,0.1,1.7,0.9,1.5,1.9
			c-0.1,0.9-0.9,1.7-1.9,1.5c-20.2-2-22.9,16.1-23.1,16.8C769.6,143.5,768.9,144.2,767.9,144.2z"/>
	</g>
	<path class="st0" d="M825.4,162h-67.7c-1.1,0-2,0.9-2,2v39.3c0,1.1,0.9,2,2,2h67.7c1.1,0,2-0.9,2-2V164
		C827.3,163,826.5,162,825.4,162z M792.8,182.4v8.2c0,0.9-0.7,1.7-1.7,1.7s-1.7-0.7-1.7-1.7v-8.2c-1.7-0.6-2.8-2.2-2.8-4.1
		c0-2.5,2-4.4,4.4-4.4c2.5,0,4.4,2,4.4,4.4C795.5,180.3,794.4,181.8,792.8,182.4z"/>
</g>
<g>
	<g>
		<path class="st2" d="M1647.6,521.3c1.4,0,2.6-1.2,2.6-2.7v-25.5c0-18.6-20-18.3-20-18.3c-20.1,0-20,18.3-20,18.3v37.1h7.7v-34.1
			c0,0-0.4-13.2,12.1-13.2c0,0,12.5-1.2,12.5,13.4l-0.2,22.4c0,1.4,1.2,2.7,2.7,2.7L1647.6,521.3z"/>
		<path class="st3" d="M1614.1,492L1614.1,492c-0.7-0.1-1.2-0.6-1.2-1.3c0-0.1,2.1-15.1,18.2-13.5c0.6,0.1,1.2,0.6,1.1,1.2
			s-0.6,1.2-1.2,1.1c-13.7-1.4-15.5,10.9-15.6,11.4C1615.3,491.5,1614.7,492,1614.1,492z"/>
	</g>
	<path class="st0" d="M1653.1,504.1h-45.9c-0.7,0-1.3,0.6-1.3,1.3V532c0,0.7,0.6,1.3,1.3,1.3h45.9c0.7,0,1.3-0.6,1.3-1.3v-26.6
		C1654.3,504.8,1653.8,504.1,1653.1,504.1z M1630.9,517.9v5.6c0,0.6-0.5,1.2-1.2,1.2c-0.6,0-1.2-0.5-1.2-1.2V518
		c-1.2-0.4-2-1.5-2-2.7c0-1.7,1.3-3,3-3s3,1.3,3,3C1632.8,516.5,1632.1,517.4,1630.9,517.9z"/>
</g>
<g>
	<path class="st4" d="M2055,435.5l-22.5-5.5c-1-0.2-1.8-1-1.9-2.1l-4.7-50.8c-0.2-1.6,1.3-2.8,2.8-2.6l21,4.2L2055,435.5z"/>
	<polygon class="st0" points="2054.6,431.6 2033.7,426.3 2029.2,378.6 2050.1,383 	"/>
	<path class="st4" d="M2095.4,427.9l-20.8-4.2l-5.3-56.8l22.1,4.4c1,0.2,1.8,1,1.9,2.1l4.9,51.9
		C2098.4,426.9,2097.1,428.2,2095.4,427.9z"/>
	<polygon class="st5" points="2074.7,423.7 2055,435.5 2049.7,378.6 2069.4,366.9 	"/>
	<polygon class="st6" points="2074.4,420.2 2054.6,431.6 2050.1,383 2069.8,371.3 	"/>
	<polygon class="st0" points="2095,424 2074.4,420.1 2069.8,371.3 2090.7,375.4 	"/>
</g>
<g>
	<path class="st4" d="M693.7,327.8l-28.4-6.9c-1.3-0.2-2.3-1.3-2.4-2.6l-5.9-64c-0.2-2,1.6-3.5,3.5-3.2l26.6,5.2L693.7,327.8z"/>
	<polygon class="st0" points="693.3,323 666.8,316.5 661.2,256.2 687.6,261.7 	"/>
	<path class="st4" d="M744.7,318.3l-26.2-5.2l-6.7-71.6l27.9,5.5c1.3,0.2,2.3,1.3,2.4,2.6l6.2,65.4
		C748.4,317.2,746.7,318.7,744.7,318.3z"/>
	<polygon class="st5" points="718.5,313.1 693.7,327.8 687,256.2 711.9,241.4 	"/>
	<polygon class="st6" points="718.1,308.7 693.3,323 687.6,261.7 712.4,247 	"/>
	<polygon class="st0" points="744.1,313.5 718.1,308.5 712.4,247 738.7,252.2 	"/>
</g>
<g>
	<path class="st4" d="M1041.2,185.5l-34.7-4.1c-1.5-0.1-2.8-1.2-3.2-2.7l-16.6-74.8c-0.5-2.2,1.3-4.4,3.7-4.3l32.2,2.2L1041.2,185.5
		z"/>
	<polygon class="st0" points="1040,179.9 1007.7,176 992.2,105.6 1024.1,108.2 	"/>
	<path class="st4" d="M1100.1,166.8l-31.7-2.4l-18.5-83.6l33.8,2.6c1.5,0.1,2.8,1.2,3.2,2.7l16.8,76.4
		C1104.2,164.9,1102.4,167,1100.1,166.8z"/>
	<polygon class="st5" points="1068.4,164.4 1041.2,185.5 1022.7,101.7 1049.9,80.8 	"/>
	<polygon class="st6" points="1067.2,159.2 1040,179.9 1024.1,108.2 1051.3,87.2 	"/>
	<polygon class="st0" points="1098.8,161.1 1067.2,159.1 1051.3,87.2 1083.2,89.4 	"/>
</g>
<g>
	<path class="st4" d="M1437.9,337.4l-34.7-4.1c-1.5-0.1-2.8-1.2-3.2-2.7l-16.6-74.8c-0.5-2.2,1.3-4.4,3.7-4.3l32.2,2.2L1437.9,337.4
		z"/>
	<polygon class="st0" points="1436.7,331.8 1404.4,327.9 1389,257.5 1420.9,260.1 	"/>
	<path class="st4" d="M1496.8,318.7l-31.7-2.4l-18.5-83.6l33.8,2.6c1.5,0.1,2.8,1.2,3.2,2.7l16.8,76.4
		C1501,316.8,1499.2,318.9,1496.8,318.7z"/>
	<polygon class="st5" points="1465.1,316.3 1437.9,337.4 1419.5,253.6 1446.7,232.7 	"/>
	<polygon class="st6" points="1463.9,311.1 1436.7,331.8 1420.9,260.1 1448.1,239.1 	"/>
	<polygon class="st0" points="1495.5,313 1463.9,311 1448.1,239.1 1479.9,241.3 	"/>
</g>
<g>
	<path class="st4" d="M1854.1,82.3l-38.9-22.1c-1.8-0.9-2.8-2.8-2.4-4.8l17.4-96.6c0.6-2.9,3.7-4.5,6.4-3.2l36.9,18.6L1854.1,82.3z"
		/>
	<polygon class="st0" points="1855.5,75.1 1819.2,54.5 1835.8,-36.4 1872.2,-17.5 	"/>
	<path class="st4" d="M1933.1,89.3l-36.3-18.5l19.6-108l38.7,19.8c1.8,0.9,2.8,2.8,2.4,4.8l-18,98.7
		C1938.9,89.1,1935.7,90.8,1933.1,89.3z"/>
	<polygon class="st5" points="1896.7,70.8 1854.1,82.3 1873.8,-25.9 1916.3,-37.2 	"/>
	<polygon class="st6" points="1897.9,64.1 1855.5,75.1 1872.2,-17.5 1914.8,-29 	"/>
	<polygon class="st0" points="1934.3,82 1898,63.9 1914.8,-29 1951.4,-10.6 	"/>
</g>
<g>
	<path class="st0" d="M513.5,266.2l-86.8,46.5c-1.7,0.9-3.4-1.1-2.5-2.6l27.9-44.9l1.2-2l-1.1-1.5l-28.5-43.4
		c-1.1-1.5,0.7-3.5,2.4-2.7l87.3,44.7C515.7,261.6,515.9,265,513.5,266.2z"/>
	<path class="st4" d="M493,263.5c0,0.9-1.3,3.7-4.3,3.7h-37.9l0.6-0.9c1.1-1.8,1.1-4-0.2-5.8l-0.6-0.8h38.7
		C491.8,260,493,262.6,493,263.5z"/>
</g>
<g>
	<path class="st0" d="M1488.7,427l-66.6,35.6c-1.3,0.8-2.6-0.8-1.8-2.1l21.4-34.3l0.8-1.5l-0.8-1l-21.7-33.3c-0.8-1,0.5-2.6,1.8-2.1
		l66.8,34.3C1490.5,423.4,1490.5,426,1488.7,427z"/>
	<path class="st4" d="M1473,425c0,0.8-1,2.8-3.4,2.8h-28.9l0.5-0.8c0.8-1.3,0.8-3.1-0.3-4.4l-0.5-0.8h29.7
		C1472.2,422.1,1473,424.2,1473,425z"/>
</g>
<g>
	<path class="st0" d="M1895.2,407l34.1,6.2c0.6,0.1,0.7,1.1,0.1,1.2l-17.5,6.3l-0.7,0.4l-0.1,0.6l-1.7,18.2
		c-0.1,0.6-0.9,0.8-1.2,0.2l-14.2-31.3C1893.6,407.8,1894.3,406.9,1895.2,407z"/>
	<path class="st4" d="M1900.1,412.2c0.2-0.4,1.2-0.7,2-0.1l10.4,8.2l-0.4,0.1c-0.7,0.2-1.2,0.9-1.2,1.7v0.4l-10.5-8.4
		C1899.7,413.4,1900,412.6,1900.1,412.2z"/>
</g>
<g>
	<path class="st0" d="M2358.1,418.8l34.1,6.2c0.6,0.1,0.7,1.1,0.1,1.2l-17.5,6.3l-0.7,0.4l-0.1,0.6l-1.7,18.2
		c-0.1,0.6-0.9,0.8-1.2,0.2l-14.2-31.3C2356.5,419.6,2357.2,418.7,2358.1,418.8z"/>
	<path class="st4" d="M2363,424c0.2-0.4,1.2-0.7,2-0.1l10.4,8.2l-0.4,0.1c-0.7,0.2-1.2,0.9-1.2,1.7v0.4l-10.5-8.4
		C2362.6,425.2,2362.9,424.4,2363,424z"/>
</g>
<g>
	<path class="st0" d="M1319.4,362l34.1,6.2c0.6,0.1,0.7,1.1,0.1,1.2l-17.5,6.3l-0.7,0.4l-0.1,0.6l-1.7,18.2
		c-0.1,0.6-0.9,0.8-1.2,0.2l-14.2-31.3C1317.8,362.8,1318.5,361.8,1319.4,362z"/>
	<path class="st4" d="M1324.3,367.2c0.2-0.4,1.2-0.7,2-0.1l10.4,8.2l-0.4,0.1c-0.7,0.2-1.2,0.9-1.2,1.7v0.4l-10.5-8.4
		C1323.9,368.4,1324.2,367.5,1324.3,367.2z"/>
</g>
<g>
	<path class="st0" d="M1135.7,468.5l-8.7,33.6c-0.1,0.6-1.1,0.6-1.2,0l-5-17.9l-0.3-0.7l-0.6-0.1l-18-3c-0.6-0.1-0.7-1-0.1-1.2
		l32.3-11.9C1135,466.9,1135.9,467.7,1135.7,468.5z"/>
	<path class="st4" d="M1130.1,473.1c0.4,0.2,0.6,1.2,0,2l-8.9,9.8l-0.1-0.4c-0.1-0.7-0.8-1.3-1.6-1.3l-0.4,0l9.1-9.9
		C1128.9,472.6,1129.8,472.9,1130.1,473.1z"/>
</g>
<g>
	<path class="st0" d="M287.3,24.7l-8.7,33.6c-0.1,0.6-1.1,0.6-1.2,0l-5-17.9l-0.3-0.7l-0.6-0.1l-18-3c-0.6-0.1-0.7-1-0.1-1.2
		l32.3-11.9C286.6,23,287.6,23.8,287.3,24.7z"/>
	<path class="st4" d="M281.8,29.2c0.4,0.2,0.6,1.2,0,2l-8.9,9.8l-0.1-0.4c-0.1-0.7-0.8-1.3-1.6-1.3l-0.4,0l9.1-9.9
		C280.6,28.7,281.5,29.1,281.8,29.2z"/>
</g>
<g>
	<path class="st0" d="M433.1,481.8l-8.7,33.6c-0.1,0.6-1.1,0.6-1.2,0l-5-17.9l-0.3-0.7l-0.6-0.1l-18-3c-0.6-0.1-0.7-1-0.1-1.2
		l32.3-11.9C432.4,480.1,433.3,480.9,433.1,481.8z"/>
	<path class="st4" d="M427.5,486.3c0.4,0.2,0.6,1.2,0,2l-8.9,9.8l-0.1-0.4c-0.1-0.7-0.8-1.3-1.6-1.3l-0.4,0l9.1-9.9
		C426.3,485.8,427.2,486.2,427.5,486.3z"/>
</g>
<g>
	<path class="st0" d="M1041.3,18.7l-8.7,33.6c-0.1,0.6-1.1,0.6-1.2,0l-5-17.9l-0.3-0.7l-0.6-0.1l-18-3c-0.6-0.1-0.7-1-0.1-1.2
		l32.3-11.9C1040.6,17,1041.5,17.8,1041.3,18.7z"/>
	<path class="st4" d="M1035.7,23.2c0.4,0.2,0.6,1.2,0,2l-8.9,9.8l-0.1-0.4c-0.1-0.7-0.8-1.3-1.6-1.3l-0.4,0l9.1-9.9
		C1034.5,22.7,1035.4,23.1,1035.7,23.2z"/>
</g>
<g>
	<path class="st0" d="M866.9,477.5l45.4,8.2c0.8,0.2,0.9,1.4,0.2,1.6l-23.3,8.4l-0.9,0.5l-0.2,0.8l-2.2,24.3
		c-0.2,0.8-1.3,1.1-1.6,0.3l-18.9-41.8C864.8,478.6,865.8,477.4,866.9,477.5z"/>
	<path class="st4" d="M873.5,484.5c0.3-0.5,1.6-0.9,2.7-0.2l13.9,10.9l-0.5,0.2c-0.9,0.3-1.6,1.3-1.6,2.2v0.5l-14-11.2
		C873,486.2,873.2,484.9,873.5,484.5z"/>
</g>
<g>
	<path class="st0" d="M21.1,241.2l45.4,8.2c0.8,0.2,0.9,1.4,0.2,1.6l-23.3,8.4l-0.9,0.5l-0.2,0.8L40.1,285c-0.2,0.8-1.3,1.1-1.6,0.3
		l-18.9-41.8C19,242.3,20,241.1,21.1,241.2z"/>
	<path class="st4" d="M27.7,248.2c0.3-0.5,1.6-0.9,2.7-0.2l13.9,10.9l-0.5,0.2c-0.9,0.3-1.6,1.3-1.6,2.2v0.5l-14-11.2
		C27.2,249.9,27.4,248.6,27.7,248.2z"/>
</g>
<g>
	<path class="st0" d="M20.1,20.4l45.4,8.2c0.8,0.2,0.9,1.4,0.2,1.6l-23.3,8.4l-0.9,0.5l-0.2,0.8l-2.2,24.3c-0.2,0.8-1.3,1.1-1.6,0.3
		L18.6,22.7C18,21.5,19,20.3,20.1,20.4z"/>
	<path class="st4" d="M26.7,27.4c0.3-0.5,1.6-0.9,2.7-0.2l13.9,10.9l-0.5,0.2c-0.9,0.3-1.6,1.3-1.6,2.2V41l-14-11.2
		C26.2,29.1,26.4,27.8,26.7,27.4z"/>
</g>
<g>
	<path class="st0" d="M326.8,416.7l49.4,9c0.9,0.1,1.1,1.5,0.1,1.8l-25.4,9.1l-1.1,0.5l-0.1,0.9l-2.4,26.5c-0.1,0.9-1.3,1.2-1.8,0.4
		L325,419.3C324.4,417.9,325.5,416.5,326.8,416.7z"/>
	<path class="st4" d="M334,424.3c0.4-0.5,1.8-1.1,2.8-0.1l15.2,11.9l-0.6,0.1c-1.1,0.4-1.7,1.3-1.8,2.4v0.6l-15.4-12.3
		C333.4,426.1,333.7,424.8,334,424.3z"/>
</g>
<g>
	<path class="st0" d="M677.5,552.6c-3.9,15.6-19.8,24.9-35.4,21c-15.6-3.9-24.9-19.8-21-35.4c3.9-15.6,19.8-24.9,35.4-21
		C671.9,521.1,681.4,537.1,677.5,552.6z"/>
	<path class="st4" d="M649.3,559.8l3.9-17.7l1.6,3.9c0.6,1.6,2.3,2.1,3.9,1.7c1.6-0.6,2.5-2.3,1.9-3.9l-5.6-14.6
		c-0.4-1.2-1.9-1.6-2.9-0.8l-11.7,10.3c-1.4,1.2-1.6,3.3,0,4.5c1,0.8,2.5,1,3.5,0.2l3.7-2.9l-4.3,17.7c-0.4,1.7,0.6,3.3,2.3,3.9l0,0
		C647.2,562.7,648.9,561.6,649.3,559.8z"/>
</g>
<g>
	<path class="st0" d="M1979.6,143.6c13.1,14.6,11.8,36.9-2.8,50c-14.6,13.1-36.9,11.8-50-2.8s-11.8-36.9,2.8-50
		C1944.1,127.9,1966.7,129.1,1979.6,143.6z"/>
	<path class="st4" d="M1967.9,177l-15.1-15.9l5,1.1c2,0.4,3.9-0.7,4.2-2.8c0.6-2-0.7-4.1-2.8-4.6l-18.5-4.1c-1.5-0.4-3,0.7-3,2.4
		l2.6,18.8c0.2,2.2,2.4,3.7,4.4,3.1c1.5-0.6,2.8-1.8,2.8-3.5l-0.6-5.9l15,16.4c1.5,1.5,3.9,1.7,5.4,0.2l0,0
		C1969.4,180.9,1969.4,178.5,1967.9,177z"/>
</g>
<g>
	<path class="st0" d="M1250,404.4c8.4,9.3,7.5,23.5-1.8,31.9s-23.5,7.5-31.9-1.8c-8.4-9.3-7.5-23.5,1.8-31.9
		C1227.3,394.4,1241.7,395.2,1250,404.4z"/>
	<path class="st4" d="M1242.5,425.7l-9.6-10.1l3.2,0.7c1.3,0.3,2.5-0.4,2.7-1.8c0.4-1.3-0.4-2.6-1.8-2.9l-11.8-2.6
		c-1-0.3-1.9,0.4-1.9,1.5l1.7,12c0.1,1.4,1.5,2.4,2.8,2c1-0.4,1.8-1.1,1.8-2.2l-0.4-3.8l9.6,10.5c1,1,2.5,1.1,3.4,0.1l0,0
		C1243.5,428.2,1243.5,426.7,1242.5,425.7z"/>
</g>
<g>
	<path class="st0" d="M184.2,500.9c8.4,9.3,7.5,23.5-1.8,31.9c-9.3,8.4-23.5,7.5-31.9-1.8c-8.4-9.3-7.5-23.5,1.8-31.9
		C161.5,490.9,175.9,491.7,184.2,500.9z"/>
	<path class="st4" d="M176.7,522.2l-9.6-10.1l3.2,0.7c1.3,0.3,2.5-0.4,2.7-1.8c0.4-1.3-0.4-2.6-1.8-2.9l-11.8-2.6
		c-1-0.3-1.9,0.4-1.9,1.5l1.7,12c0.1,1.4,1.5,2.4,2.8,2c1-0.4,1.8-1.1,1.8-2.2l-0.4-3.8l9.6,10.5c1,1,2.5,1.1,3.4,0.1l0,0
		C177.7,524.7,177.7,523.2,176.7,522.2z"/>
</g>
<g>
	<path class="st0" d="M1267.8,188.9c-20.8,19.1-53,17.9-72.2-2.9c-19.1-20.8-17.9-53,2.9-72.2c20.8-19.1,53-17.9,72.2,2.9
		C1289.8,137.5,1288.5,169.8,1267.8,188.9z"/>
	<path class="st4" d="M1219.6,172.8l22.5-22.2l-1.4,7.2c-0.4,2.8,1.3,5.5,4.1,6.2c2.9,0.8,5.9-1.1,6.7-4l5.5-26.8
		c0.4-2.1-1.2-4.4-3.4-4.2l-27.2,4.1c-3.2,0.2-5.3,3.4-4.4,6.5c0.7,2.1,2.8,3.9,5.1,3.8l8.4-0.8l-23.3,22c-2.1,2-2.3,5.6-0.2,7.7
		l0,0C1213.8,174.9,1217.3,174.8,1219.6,172.8z"/>
</g>
<g>
	<path class="st0" d="M2458.3,111.4c-20.8,19.1-53,17.9-72.2-2.9c-19.1-20.8-17.9-53,2.9-72.2c20.8-19.1,53-17.9,72.2,2.9
		C2480.3,60,2479,92.3,2458.3,111.4z"/>
	<path class="st4" d="M2410.1,95.3l22.5-22.2l-1.4,7.2c-0.4,2.8,1.3,5.5,4.1,6.2c2.9,0.8,5.9-1.1,6.7-4l5.5-26.8
		c0.4-2.1-1.2-4.4-3.4-4.2l-27.2,4.1c-3.2,0.2-5.3,3.4-4.4,6.5c0.7,2.1,2.8,3.9,5.1,3.8l8.4-0.8l-23.3,22c-2.1,2-2.3,5.6-0.2,7.7
		l0,0C2404.3,97.4,2407.8,97.3,2410.1,95.3z"/>
</g>
<g>
	<path class="st4" d="M1623,233.2c2.9-1.5,4.2-4.9,2.7-7.8l-14.5-30.7c-18-37.9-58.4-17.9-58.4-17.9c-41.1,19.5-22.9,56.8-22.9,56.8
		l35.7,75.4l15.7-7.3l-32.9-69.4c0,0-13.4-26.6,11.7-38.5c0,0,24.4-14.5,38.4,15.2l11.1,24.3c1.5,3,5,4.3,8,2.8L1623,233.2z"/>
	<path class="st0" d="M1646.1,251.3l-93.4,44.2c-1.5,0.7-2.1,2.5-1.5,4l25.6,54.1c0.7,1.5,2.4,2.1,4,1.5l93.4-44.2
		c1.5-0.7,2.1-2.4,1.5-4l-25.6-54.1C1649.4,251.3,1647.6,250.6,1646.1,251.3z M1614.4,300.8l5.4,11.3c0.6,1.3,0.1,2.8-1.2,3.4
		c-1.3,0.6-2.8,0.1-3.4-1.2l-5.3-11.2c-2.7,0.3-5.4-1.2-6.7-3.9c-1.6-3.4-0.2-7.4,3.2-9.1c3.4-1.6,7.4-0.2,9.1,3.2
		C1616.7,295.9,1616.2,298.9,1614.4,300.8z"/>
	<path class="st3" d="M1536.7,228.1c-0.1,0.1-0.3,0.1-0.3,0.2c-1.5,0.4-2.9-0.3-3.4-1.6c-0.1-0.3-10.3-33.3,24.3-45.4
		c1.5-0.5,2.9,0.3,3.4,1.6c0.5,1.4-0.3,2.9-1.6,3.4c-29.7,10.4-21.4,37.6-20.9,38.8C1538.5,226.2,1537.9,227.4,1536.7,228.1z"/>
</g>
<g>
	<path class="st4" d="M189.4,320.4c2.9-1.5,4.2-4.9,2.7-7.8l-14.5-30.7c-18-37.9-58.4-17.9-58.4-17.9
		c-41.1,19.5-22.9,56.8-22.9,56.8l35.7,75.4l15.7-7.3l-32.9-69.4c0,0-13.4-26.6,11.7-38.5c0,0,24.4-14.5,38.4,15.2l11.1,24.3
		c1.5,3,5,4.3,8,2.8L189.4,320.4z"/>
	<path class="st0" d="M212.5,338.5l-93.4,44.2c-1.5,0.7-2.1,2.5-1.5,4l25.6,54.1c0.7,1.5,2.4,2.1,4,1.5l93.4-44.2
		c1.5-0.7,2.1-2.4,1.5-4L216.5,340C215.8,338.5,214,337.8,212.5,338.5z M180.8,388l5.4,11.3c0.6,1.3,0.1,2.8-1.2,3.4
		c-1.3,0.6-2.8,0.1-3.4-1.2l-5.3-11.2c-2.7,0.3-5.4-1.2-6.7-3.9c-1.6-3.4-0.2-7.4,3.2-9.1c3.4-1.6,7.4-0.2,9.1,3.2
		C183.1,383.1,182.6,386.1,180.8,388z"/>
	<path class="st3" d="M103.1,315.3c-0.1,0.1-0.3,0.1-0.3,0.2c-1.5,0.4-2.9-0.3-3.4-1.6c-0.1-0.3-10.3-33.3,24.3-45.4
		c1.5-0.5,2.9,0.3,3.4,1.6c0.5,1.4-0.3,2.9-1.6,3.4c-29.7,10.4-21.4,37.6-20.9,38.8C104.9,313.4,104.3,314.6,103.1,315.3z"/>
</g>
<g>
	<path class="st4" d="M2254.5,269.4c3.5-1.8,5.1-6,3.3-9.6l-17.7-37.6c-22-46.4-71.4-21.9-71.4-21.9c-50.3,23.9-28,69.6-28,69.6
		l43.6,92.3l19.2-9l-40.2-84.9c0,0-16.4-32.5,14.3-47.1c0,0,29.8-17.7,47,18.6l13.6,29.7c1.8,3.7,6.2,5.2,9.8,3.4L2254.5,269.4z"/>
	<path class="st0" d="M2282.8,291.5l-114.3,54.1c-1.9,0.8-2.6,3.1-1.8,4.8l31.3,66.2c0.8,1.8,3,2.6,4.8,1.8l114.3-54.1
		c1.8-0.8,2.6-3,1.8-4.8l-31.3-66.2C2286.8,291.5,2284.6,290.7,2282.8,291.5z M2244,352.1l6.6,13.8c0.7,1.5,0.1,3.4-1.4,4.1
		s-3.4,0.1-4.1-1.4l-6.5-13.7c-3.3,0.4-6.6-1.4-8.2-4.7c-2-4.1-0.2-9.1,3.9-11.1s9.1-0.2,11.1,3.9
		C2246.8,346.1,2246.1,349.7,2244,352.1z"/>
	<path class="st3" d="M2148.9,263.2c-0.1,0.1-0.4,0.1-0.4,0.2c-1.8,0.5-3.5-0.4-4.1-2c-0.1-0.4-12.7-40.7,29.7-55.6
		c1.8-0.6,3.5,0.4,4.1,2s-0.4,3.5-2,4.1c-36.3,12.8-26.1,46-25.5,47.4C2151.2,260.8,2150.3,262.3,2148.9,263.2z"/>
</g>
<g>
	<path class="st4" d="M2174.4,94c2.1,0.6,4.3-0.6,5.1-2.7l7.1-22.2c8.9-27.3-20.7-36.3-20.7-36.3c-29.7-9.5-38.1,17.6-38.1,17.6
		l-17.6,54.4l11.3,3.6l16.2-50c0,0,5.8-19.6,23.8-13.8c0,0,19,4.2,12,25.6l-5.8,17.3c-0.7,2.1,0.5,4.5,2.7,5.2L2174.4,94z"/>
	<path class="st0" d="M2177.4,113.8l-67.3-21.7c-1-0.3-2.2,0.3-2.6,1.3l-12.6,39c-0.3,1,0.3,2.1,1.3,2.6l67.3,21.7
		c1,0.3,2.1-0.3,2.6-1.3l12.6-39C2179.1,115.3,2178.4,114.1,2177.4,113.8z M2138.4,123.6l-2.7,8.2c-0.3,0.9-1.3,1.5-2.1,1.1
		c-0.9-0.3-1.5-1.3-1.1-2.1l2.7-8.1c-1.5-1.1-2.1-3.1-1.6-5.1c0.8-2.4,3.3-3.8,5.8-3c2.4,0.8,3.8,3.3,3,5.8
		C2141.8,122.2,2140.2,123.4,2138.4,123.6z"/>
	<path class="st3" d="M2133.8,50.9c-0.1,0-0.2-0.1-0.3-0.1c-0.9-0.4-1.3-1.6-0.9-2.4c0.1-0.3,10.4-21.4,33.4-11.3
		c0.9,0.4,1.4,1.5,0.9,2.4c-0.4,0.9-1.5,1.3-2.4,0.9c-19.7-8.7-28.3,8.8-28.6,9.5C2135.6,50.8,2134.7,51.2,2133.8,50.9z"/>
</g>
<g>
	<path class="st4" d="M508.6,490.5c1.3-0.6,1.9-2.2,1.2-3.5l-6.6-13.8c-8-17-26.3-8-26.3-8c-18.5,8.8-10.3,25.4-10.3,25.4l16.1,33.9
		l7-3.3L474.9,490c0,0-6-11.9,5.2-17.3c0,0,10.9-6.6,17.3,6.7l5.1,10.9c0.6,1.3,2.2,2,3.5,1.2L508.6,490.5z"/>
	<path class="st0" d="M519,498.7l-41.9,19.9c-0.6,0.4-0.9,1.2-0.6,1.8l11.5,24.4c0.4,0.6,1.2,0.9,1.8,0.6l41.9-19.9
		c0.6-0.4,0.9-1.2,0.6-1.8l-11.5-24.4C520.6,498.6,519.7,498.3,519,498.7z M504.8,520.8l2.4,5.1c0.4,0.6,0,1.2-0.5,1.5
		c-0.6,0.4-1.2,0-1.5-0.5l-2.4-5.1c-1.2,0.1-2.5-0.5-3-1.8c-0.7-1.5-0.1-3.4,1.4-4.1c1.5-0.7,3.4-0.1,4.1,1.4
		C505.9,518.7,505.5,520,504.8,520.8z"/>
	<path class="st3" d="M469.9,488.2C469.9,488.2,469.8,488.2,469.9,488.2c-0.7,0.4-1.4,0-1.7-0.6c0-0.1-4.6-14.9,10.9-20.5
		c0.6-0.2,1.3,0.1,1.5,0.7c0.2,0.6-0.1,1.3-0.7,1.5c-13.4,4.7-9.6,16.8-9.5,17.5C470.8,487.2,470.4,487.9,469.9,488.2z"/>
</g>
<g>
	<path class="st4" d="M2450.1,488.8c1.3-0.6,1.9-2.2,1.2-3.5l-6.6-13.8c-8-17-26.3-8-26.3-8c-18.5,8.8-10.3,25.4-10.3,25.4
		l16.1,33.9l7-3.3l-14.8-31.2c0,0-6-11.9,5.2-17.3c0,0,10.9-6.6,17.3,6.7l5.1,10.9c0.6,1.3,2.2,2,3.5,1.2L2450.1,488.8z"/>
	<path class="st0" d="M2460.5,497l-41.9,19.9c-0.6,0.4-0.9,1.2-0.6,1.8l11.5,24.4c0.4,0.6,1.2,0.9,1.8,0.6l41.9-19.9
		c0.6-0.4,0.9-1.2,0.6-1.8l-11.5-24.4C2462.1,496.9,2461.2,496.6,2460.5,497z M2446.3,519.1l2.4,5.1c0.4,0.6,0,1.2-0.5,1.5
		c-0.6,0.4-1.2,0-1.5-0.5l-2.4-5.1c-1.2,0.1-2.5-0.5-3-1.8c-0.7-1.5-0.1-3.4,1.4-4.1c1.5-0.7,3.4-0.1,4.1,1.4
		C2447.4,517,2447,518.3,2446.3,519.1z"/>
	<path class="st3" d="M2411.4,486.5C2411.4,486.5,2411.3,486.5,2411.4,486.5c-0.7,0.4-1.4,0-1.7-0.6c0-0.1-4.6-14.9,10.9-20.5
		c0.6-0.2,1.3,0.1,1.5,0.7s-0.1,1.3-0.7,1.5c-13.4,4.7-9.6,16.8-9.5,17.5C2412.3,485.5,2411.9,486.2,2411.4,486.5z"/>
</g>
<g>
	<path class="st4" d="M970.4,398.1c1.3-0.6,1.9-2.2,1.2-3.5l-6.6-13.8c-8-17-26.3-8-26.3-8c-18.5,8.8-10.3,25.4-10.3,25.4l16.1,33.9
		l7-3.3l-14.8-31.2c0,0-6-11.9,5.2-17.3c0,0,10.9-6.6,17.3,6.7l5.1,10.9c0.6,1.3,2.2,2,3.5,1.2L970.4,398.1z"/>
	<path class="st0" d="M980.8,406.3l-41.9,19.9c-0.6,0.4-0.9,1.2-0.6,1.8l11.5,24.4c0.4,0.6,1.2,0.9,1.8,0.6l41.9-19.9
		c0.6-0.4,0.9-1.2,0.6-1.8l-11.5-24.4C982.4,406.2,981.5,405.9,980.8,406.3z M966.6,428.4l2.4,5.1c0.4,0.6,0,1.2-0.5,1.5
		c-0.6,0.4-1.2,0-1.5-0.5l-2.4-5.1c-1.2,0.1-2.5-0.5-3-1.8c-0.7-1.5-0.1-3.4,1.4-4.1c1.5-0.7,3.4-0.1,4.1,1.4
		C967.7,426.3,967.3,427.6,966.6,428.4z"/>
	<path class="st3" d="M931.7,395.8C931.7,395.8,931.6,395.8,931.7,395.8c-0.7,0.4-1.4,0-1.7-0.6c0-0.1-4.6-14.9,10.9-20.5
		c0.6-0.2,1.3,0.1,1.5,0.7s-0.1,1.3-0.7,1.5c-13.4,4.7-9.6,16.8-9.5,17.5C932.6,394.8,932.2,395.5,931.7,395.8z"/>
</g>
<g>
	<path class="st4" d="M497.1,120c1.3-0.6,1.9-2.2,1.2-3.5l-6.6-13.8c-8-17-26.3-8-26.3-8c-18.5,8.8-10.3,25.4-10.3,25.4l16.1,33.9
		l7-3.3l-14.8-31.2c0,0-6-11.9,5.2-17.3c0,0,10.9-6.6,17.3,6.7l5.1,10.9c0.6,1.3,2.2,2,3.5,1.2L497.1,120z"/>
	<path class="st0" d="M507.5,128.2L465.7,148c-0.6,0.4-0.9,1.2-0.6,1.8l11.5,24.4c0.4,0.6,1.2,0.9,1.8,0.6l41.9-19.9
		c0.6-0.4,0.9-1.2,0.6-1.8l-11.5-24.4C509.1,128.1,508.3,127.8,507.5,128.2z M493.4,150.3l2.4,5.1c0.4,0.6,0,1.2-0.5,1.5
		c-0.6,0.4-1.2,0-1.5-0.5l-2.4-5.1c-1.2,0.1-2.5-0.5-3-1.8c-0.7-1.5-0.1-3.4,1.4-4.1c1.5-0.7,3.4-0.1,4.1,1.4
		C494.4,148.2,494.1,149.5,493.4,150.3z"/>
	<path class="st3" d="M458.5,117.6C458.5,117.6,458.3,117.6,458.5,117.6c-0.7,0.4-1.4,0-1.7-0.6c0-0.1-4.6-14.9,10.9-20.5
		c0.6-0.2,1.3,0.1,1.5,0.7c0.2,0.6-0.1,1.3-0.7,1.5c-13.4,4.7-9.6,16.8-9.5,17.5C459.3,116.7,458.9,117.4,458.5,117.6z"/>
</g>
<g>
	<path class="st4" d="M1458.9,33.2c2.9,0.8,6-1.1,6.6-4.2l7.5-31.2c9.4-38.2-31.9-47.7-31.9-47.7c-41.4-10.2-50.2,27.6-50.2,27.6
		L1372.1,54l15.7,3.8l17.3-70.1c0,0,6-27.3,31.2-21.1c0,0,26.4,3.6,19.1,33.7l-6.1,24.3c-0.8,2.9,1,6.2,4.2,6.6L1458.9,33.2z"/>
	<path class="st0" d="M1465,60.1L1371,37c-1.4-0.2-3.1,0.7-3.3,2.1L1354,93.8c-0.2,1.4,0.7,3.1,2.1,3.3l94,23.1
		c1.4,0.2,3.1-0.7,3.3-2.1l13.6-54.6C1467.6,62,1466.6,60.5,1465,60.1z M1412.8,77.2l-2.9,11.4c-0.2,1.4-1.6,1.9-2.8,1.9
		c-1.4-0.2-1.9-1.6-1.9-2.8l2.9-11.4c-2.1-1.4-3.4-4-2.4-6.8c0.9-3.4,4.3-5.7,7.8-4.8c3.4,0.9,5.7,4.3,4.8,7.8
		C1417.3,75.2,1415,76.8,1412.8,77.2z"/>
	<path class="st3" d="M1399.3-21.7C1399.3-21.7,1399.1-21.9,1399.3-21.7c-1.6-0.4-2.3-1.9-1.9-3.1c0.2-0.2,12.2-30.2,44.6-18.8
		c1.3,0.4,2,1.9,1.6,3.2s-1.9,2-3.2,1.6c-27.9-10-37.7,14.6-38.4,15.9C1401.9-22.2,1400.4-21.5,1399.3-21.7z"/>
</g>
<path class="st0" d="M600.8,367.4h-6.2c0-3.5-0.6-6.9-1.2-10l6.6-1.5c0.6-0.2,1.2-0.8,1-1.7c-1.9-6.9-5-13.3-9.6-18.7
	c-0.6-0.6-1.4-0.6-1.9-0.2l-5.2,4.4c-2.1-2.5-4.6-4.8-7.3-6.9l4.1-5.4c0.6-0.6,0.4-1.5-0.4-1.9c-5.8-4.1-12.3-6.9-19.5-8.3
	c-0.6-0.2-1.5,0.4-1.5,1.2l-1.2,6.6c-2.3-0.4-4.8-0.6-7.3-0.6c-0.8,0-1.9,0-2.7,0.2l-0.4-6.8c0-0.6-0.6-1.4-1.5-1.4
	c-6.9,0.6-13.9,2.7-20.1,6c-0.6,0.4-0.8,1.2-0.6,1.9l3.3,5.8c-2.9,1.7-5.8,3.7-8.1,6l-4.4-4.8c-0.6-0.6-1.4-0.6-1.9,0
	c-5,5-9.1,11-11.6,17.6c-0.4,0.6,0.2,1.5,0.8,1.7l6.4,2.3c-1.2,3.3-1.9,6.4-2.3,9.8l-6.6-0.6c-0.8-0.2-1.5,0.6-1.5,1.4
	c0,4.2,0.8,15,2.3,20.6c0.2,0.8,1,1.2,1.9,0.8c2.1-0.8,6.2-2.3,6.2-2.3c1.2,3.3,2.7,6.2,4.4,9.1l-5.6,3.7c-0.6,0.6-0.8,1.4-0.4,1.9
	c4.1,5.8,9.5,10.8,15.4,14.5c0.6,0.4,1.5,0.2,1.9-0.6l3.3-5.8c2.9,1.7,6,3.1,9.3,4.1l-1.9,6.4c-0.2,0.6,0.2,1.5,1,1.7
	c4.4,1.2,8.9,1.9,13.3,1.9c2.5,0,5.2-0.2,7.7-0.6c0.6-0.2,1.2-0.8,1.2-1.5l-1.2-6.6c3.3-0.6,6.6-1.5,9.6-2.9l2.7,6.2
	c0.4,0.6,1.2,1,1.9,0.6c6.4-3.1,12.2-7.3,17-12.5c0.6-0.6,0.6-1.5-0.2-1.9l-5.2-4.4c2.1-2.5,4.1-5.4,5.6-8.3l6,3.1
	c0.6,0.4,1.4,0.2,1.7-0.6c3.9-5.8,4.6-16.2,4.8-20.4C602.3,368.4,601.5,367.4,600.8,367.4z M551,387.9c-11,0-20.1-9.1-20.1-19.9
	c0-11,9.1-20.1,20.1-20.1s20.1,9.1,20.1,20.1S562.2,387.9,551,387.9z"/>
<path class="st0" d="M354.4,263.2h-6.2c0-3.5-0.6-6.9-1.2-10l6.6-1.5c0.6-0.2,1.2-0.8,1-1.7c-1.9-6.9-5-13.3-9.6-18.7
	c-0.6-0.6-1.4-0.6-1.9-0.2l-5.2,4.4c-2.1-2.5-4.6-4.8-7.3-6.9l4.1-5.4c0.6-0.6,0.4-1.5-0.4-1.9c-5.8-4.1-12.3-6.9-19.5-8.3
	c-0.6-0.2-1.5,0.4-1.5,1.2l-1.2,6.6c-2.3-0.4-4.8-0.6-7.3-0.6c-0.8,0-1.9,0-2.7,0.2l-0.4-6.8c0-0.6-0.6-1.4-1.5-1.4
	c-6.9,0.6-13.9,2.7-20.1,6c-0.6,0.4-0.8,1.2-0.6,1.9l3.3,5.8c-2.9,1.7-5.8,3.7-8.1,6l-4.4-4.8c-0.6-0.6-1.4-0.6-1.9,0
	c-5,5-9.1,11-11.6,17.6c-0.4,0.6,0.2,1.5,0.8,1.7l6.4,2.3c-1.2,3.3-1.9,6.4-2.3,9.8l-6.6-0.6c-0.8-0.2-1.5,0.6-1.5,1.4
	c0,4.2,0.8,15,2.3,20.6c0.2,0.8,1,1.2,1.9,0.8c2.1-0.8,6.2-2.3,6.2-2.3c1.2,3.3,2.7,6.2,4.4,9.1l-5.6,3.7c-0.6,0.6-0.8,1.4-0.4,1.9
	c4.1,5.8,9.5,10.8,15.4,14.5c0.6,0.4,1.5,0.2,1.9-0.6l3.3-5.8c2.9,1.7,6,3.1,9.3,4.1l-1.9,6.4c-0.2,0.6,0.2,1.5,1,1.7
	c4.4,1.2,8.9,1.9,13.3,1.9c2.5,0,5.2-0.2,7.7-0.6c0.6-0.2,1.2-0.8,1.2-1.5l-1.2-6.6c3.3-0.6,6.6-1.5,9.6-2.9l2.7,6.2
	c0.4,0.6,1.2,1,1.9,0.6c6.4-3.1,12.2-7.3,17-12.5c0.6-0.6,0.6-1.5-0.2-1.9l-5.2-4.4c2.1-2.5,4.1-5.4,5.6-8.3l6,3.1
	c0.6,0.4,1.4,0.2,1.7-0.6c3.9-5.8,4.6-16.2,4.8-20.4C355.9,264.2,355.1,263.2,354.4,263.2z M304.6,283.6c-11,0-20.1-9.1-20.1-19.9
	c0-11,9.1-20.1,20.1-20.1s20.1,9.1,20.1,20.1C324.7,274.8,315.8,283.6,304.6,283.6z"/>
<path class="st0" d="M1888.7,260.1h-3.8c0-2.1-0.4-4.3-0.7-6.2l4-0.9c0.4-0.1,0.7-0.5,0.6-1.1c-1.2-4.3-3.1-8.2-5.9-11.5
	c-0.4-0.4-0.8-0.4-1.2-0.1l-3.2,2.7c-1.3-1.5-2.8-3-4.5-4.3l2.5-3.3c0.4-0.4,0.2-0.9-0.2-1.2c-3.5-2.5-7.6-4.3-11.9-5.1
	c-0.4-0.1-0.9,0.2-0.9,0.7l-0.7,4c-1.4-0.2-3-0.4-4.5-0.4c-0.5,0-1.2,0-1.7,0.1l-0.2-4.1c0-0.4-0.4-0.8-0.9-0.8
	c-4.3,0.4-8.5,1.7-12.3,3.7c-0.4,0.2-0.5,0.7-0.4,1.2l2,3.5c-1.8,1.1-3.5,2.2-5,3.7l-2.7-3c-0.4-0.4-0.8-0.4-1.2,0
	c-3.1,3.1-5.6,6.7-7.1,10.8c-0.2,0.4,0.1,0.9,0.5,1.1l3.9,1.4c-0.7,2-1.2,3.9-1.4,6l-4-0.4c-0.5-0.1-0.9,0.4-0.9,0.8
	c0,2.6,0.5,9.2,1.4,12.7c0.1,0.5,0.6,0.7,1.2,0.5c1.3-0.5,3.8-1.4,3.8-1.4c0.7,2,1.7,3.8,2.7,5.6l-3.4,2.2c-0.4,0.4-0.5,0.8-0.2,1.2
	c2.5,3.5,5.8,6.6,9.5,8.9c0.4,0.2,0.9,0.1,1.2-0.4l2-3.5c1.8,1.1,3.7,1.9,5.7,2.5l-1.2,3.9c-0.1,0.4,0.1,0.9,0.6,1.1
	c2.7,0.7,5.4,1.2,8.2,1.2c1.5,0,3.2-0.1,4.7-0.4c0.4-0.1,0.7-0.5,0.7-0.9l-0.7-4c2-0.4,4-0.9,5.9-1.8l1.7,3.8
	c0.2,0.4,0.7,0.6,1.2,0.4c3.9-1.9,7.5-4.5,10.4-7.7c0.4-0.4,0.4-0.9-0.1-1.2l-3.2-2.7c1.3-1.5,2.5-3.3,3.4-5.1l3.7,1.9
	c0.4,0.2,0.8,0.1,1.1-0.4c2.4-3.5,2.8-9.9,3-12.5C1889.8,260.7,1889.2,260.1,1888.7,260.1z M1858.2,272.6c-6.7,0-12.3-5.6-12.3-12.2
	c0-6.7,5.6-12.3,12.3-12.3c6.7,0,12.3,5.6,12.3,12.3C1870.5,267.1,1865.1,272.6,1858.2,272.6z"/>
<path class="st0" d="M1686.4,392.5h-3.8c0-2.1-0.4-4.3-0.7-6.2l4-0.9c0.4-0.1,0.7-0.5,0.6-1.1c-1.2-4.3-3.1-8.2-5.9-11.5
	c-0.4-0.4-0.8-0.4-1.2-0.1l-3.2,2.7c-1.3-1.5-2.8-3-4.5-4.3l2.5-3.3c0.4-0.4,0.2-0.9-0.2-1.2c-3.5-2.5-7.6-4.3-11.9-5.1
	c-0.4-0.1-0.9,0.2-0.9,0.7l-0.7,4c-1.4-0.2-3-0.4-4.5-0.4c-0.5,0-1.2,0-1.7,0.1l-0.2-4.1c0-0.4-0.4-0.8-0.9-0.8
	c-4.3,0.4-8.5,1.7-12.3,3.7c-0.4,0.2-0.5,0.7-0.4,1.2l2,3.5c-1.8,1.1-3.5,2.2-5,3.7l-2.7-3c-0.4-0.4-0.8-0.4-1.2,0
	c-3.1,3.1-5.6,6.7-7.1,10.8c-0.2,0.4,0.1,0.9,0.5,1.1l3.9,1.4c-0.7,2-1.2,3.9-1.4,6l-4-0.4c-0.5-0.1-0.9,0.4-0.9,0.8
	c0,2.6,0.5,9.2,1.4,12.7c0.1,0.5,0.6,0.7,1.2,0.5c1.3-0.5,3.8-1.4,3.8-1.4c0.7,2,1.7,3.8,2.7,5.6l-3.4,2.2c-0.4,0.4-0.5,0.8-0.2,1.2
	c2.5,3.5,5.8,6.6,9.5,8.9c0.4,0.2,0.9,0.1,1.2-0.4l2-3.5c1.8,1.1,3.7,1.9,5.7,2.5l-1.2,3.9c-0.1,0.4,0.1,0.9,0.6,1.1
	c2.7,0.7,5.4,1.2,8.2,1.2c1.5,0,3.2-0.1,4.7-0.4c0.4-0.1,0.7-0.5,0.7-0.9l-0.7-4c2-0.4,4-0.9,5.9-1.8l1.7,3.8
	c0.2,0.4,0.7,0.6,1.2,0.4c3.9-1.9,7.5-4.5,10.4-7.7c0.4-0.4,0.4-0.9-0.1-1.2l-3.2-2.7c1.3-1.5,2.5-3.3,3.4-5.1l3.7,1.9
	c0.4,0.2,0.8,0.1,1.1-0.4c2.4-3.5,2.8-9.9,3-12.5C1687.5,393.1,1686.9,392.5,1686.4,392.5z M1655.9,405c-6.7,0-12.3-5.6-12.3-12.2
	c0-6.7,5.6-12.3,12.3-12.3c6.7,0,12.3,5.6,12.3,12.3C1668.2,399.5,1662.8,405,1655.9,405z"/>
<path class="st0" d="M1198.3,26h-3.5c0-1.9-0.2-3.8-0.7-5.6l3.7-0.8c0.4-0.1,0.7-0.5,0.6-0.9c-1.1-3.8-2.9-7.4-5.4-10.6
	c-0.2-0.3-0.8-0.3-1.1-0.1l-2.9,2.5c-1.2-1.4-2.6-2.8-4.1-3.9l2.3-3c0.2-0.3,0.2-0.8-0.2-1.1c-3.3-2.3-7-3.9-11-4.7
	c-0.4-0.1-0.8,0.2-0.9,0.7l-0.6,3.5c-1.4-0.2-2.8-0.3-4.2-0.3c-0.5,0-1,0-1.5,0.1l-0.2-3.8c0-0.4-0.4-0.8-0.8-0.7
	c-4,0.3-7.9,1.6-11.4,3.4c-0.3,0.2-0.5,0.7-0.2,1.1L1158,5c-1.6,1-3.2,2.1-4.6,3.4l-2.6-2.8c-0.2-0.2-0.8-0.3-1.1,0
	c-2.9,2.9-5.1,6.2-6.5,10c-0.2,0.4,0.1,0.8,0.4,1l3.5,1.3c-0.7,1.8-1.1,3.6-1.3,5.6l-3.7-0.4c-0.4-0.1-0.8,0.2-0.8,0.8
	c0.1,2.4,0.5,8.5,1.4,11.6c0.2,0.4,0.6,0.7,1,0.5c1.2-0.4,3.5-1.3,3.5-1.3c0.7,1.8,1.6,3.5,2.5,5.1l-3.1,2c-0.3,0.2-0.4,0.7-0.2,1.1
	c2.3,3.3,5.2,6.1,8.7,8.2c0.3,0.2,0.8,0.1,1.1-0.2l1.9-3.3c1.6,0.9,3.4,1.7,5.2,2.3l-1.1,3.6c-0.2,0.4,0.2,0.8,0.5,0.9
	c2.5,0.7,5,1,7.5,1c1.4,0,2.9-0.1,4.3-0.3c0.4-0.1,0.7-0.5,0.7-0.8l-0.7-3.7c1.9-0.3,3.8-0.8,5.5-1.6l1.5,3.5c0.2,0.3,0.7,0.6,1,0.4
	c3.6-1.7,6.9-4.1,9.5-7.1c0.2-0.3,0.2-0.8-0.1-1.1l-2.9-2.5c1.2-1.5,2.3-3,3.1-4.7l3.4,1.7c0.3,0.2,0.8,0.1,1-0.2
	c2.2-3.4,2.7-9.2,2.8-11.5C1199.4,26.4,1198.9,26,1198.3,26z M1170.4,37.4c-6.2,0-11.3-5.1-11.3-11.3s5.1-11.3,11.3-11.3
	s11.3,5.1,11.3,11.3C1181.7,32.4,1176.7,37.4,1170.4,37.4z"/>
<path class="st0" d="M316.6,540.6h-2.2c0-1.2-0.2-2.5-0.4-3.5l2.4-0.5c0.4-0.1,0.4-0.4,0.4-0.6c-0.6-2.5-1.9-4.8-3.5-6.9
	c-0.2-0.2-0.5-0.2-0.7-0.1l-1.9,1.5c-0.8-0.9-1.7-1.8-2.7-2.5l1.4-2c0.2-0.2,0.1-0.5-0.1-0.7c-2.1-1.4-4.5-2.5-7-3
	c-0.4,0-0.5,0.1-0.6,0.4l-0.4,2.4c-0.8-0.1-1.8-0.2-2.7-0.2c-0.4,0-0.6,0-0.9,0l-0.1-2.5c0-0.4-0.2-0.5-0.5-0.4
	c-2.6,0.2-5.1,1.1-7.3,2.2c-0.2,0.1-0.4,0.4-0.2,0.7l1.2,2c-1.1,0.6-2,1.3-2.8,2.1l-1.7-1.8c-0.2-0.2-0.5-0.2-0.7,0
	c-1.9,1.9-3.3,4-4.3,6.4c-0.1,0.2,0,0.5,0.4,0.6l2.2,0.8c-0.4,1.2-0.7,2.4-0.8,3.5l-2.4-0.4c-0.4,0-0.5,0.2-0.5,0.5
	c0,1.5,0.4,5.4,0.8,7.5c0.1,0.4,0.4,0.4,0.6,0.4c0.8-0.4,2.2-0.8,2.2-0.8c0.4,1.2,1.1,2.2,1.7,3.3l-2,1.3c-0.2,0.2-0.4,0.5-0.1,0.7
	c1.4,2,3.4,3.9,5.6,5.2c0.2,0.1,0.5,0.1,0.7-0.2l1.2-2c1.1,0.6,2.1,1.2,3.4,1.4l-0.7,2.4c-0.1,0.4,0.1,0.5,0.4,0.6
	c1.5,0.4,3.2,0.6,4.8,0.6c0.9,0,1.9-0.1,2.7-0.2c0.4,0,0.4-0.4,0.4-0.6l-0.4-2.4c1.2-0.2,2.4-0.6,3.5-1.1l0.9,2.2
	c0.1,0.2,0.4,0.4,0.6,0.2c2.4-1.2,4.4-2.7,6.2-4.5c0.2-0.2,0.2-0.5-0.1-0.7l-1.9-1.5c0.8-0.9,1.4-2,2-3.1l2.1,1.2
	c0.2,0.1,0.5,0,0.6-0.2c1.4-2.1,1.8-5.9,1.8-7.5C317.2,540.9,316.9,540.6,316.6,540.6z M298.5,548c-4,0-7.3-3.3-7.3-7.3
	s3.3-7.3,7.3-7.3s7.3,3.3,7.3,7.3C305.9,544.7,302.6,548,298.5,548z"/>
<path class="st0" d="M70.3,405.5h-2.2c0-1.2-0.2-2.5-0.4-3.5l2.4-0.5c0.4-0.1,0.4-0.4,0.4-0.6c-0.6-2.5-1.9-4.8-3.5-6.9
	c-0.2-0.2-0.5-0.2-0.7-0.1l-1.9,1.5c-0.8-0.9-1.7-1.8-2.7-2.5l1.4-2c0.2-0.2,0.1-0.5-0.1-0.7c-2.1-1.4-4.5-2.5-7-3
	c-0.4,0-0.5,0.1-0.6,0.4L55,390c-0.8-0.1-1.8-0.2-2.7-0.2c-0.4,0-0.6,0-0.9,0l-0.1-2.5c0-0.4-0.2-0.5-0.5-0.4
	c-2.6,0.2-5.1,1.1-7.3,2.2c-0.2,0.1-0.4,0.4-0.2,0.7l1.2,2c-1.1,0.6-2,1.3-2.8,2.1l-1.7-1.8c-0.2-0.2-0.5-0.2-0.7,0
	c-1.9,1.9-3.3,4-4.3,6.4c-0.1,0.2,0,0.5,0.4,0.6l2.2,0.8c-0.4,1.2-0.7,2.4-0.8,3.5l-2.4-0.4c-0.4,0-0.5,0.2-0.5,0.5
	c0,1.5,0.4,5.4,0.8,7.5c0.1,0.4,0.4,0.4,0.6,0.4c0.8-0.4,2.2-0.8,2.2-0.8c0.4,1.2,1.1,2.2,1.7,3.3l-2,1.3c-0.2,0.2-0.4,0.5-0.1,0.7
	c1.4,2,3.4,3.9,5.6,5.2c0.2,0.1,0.5,0.1,0.7-0.2l1.2-2c1.1,0.6,2.1,1.2,3.4,1.4l-0.7,2.4c-0.1,0.4,0.1,0.5,0.4,0.6
	c1.5,0.4,3.2,0.6,4.8,0.6c0.9,0,1.9-0.1,2.7-0.2c0.4,0,0.4-0.4,0.4-0.6l-0.4-2.4c1.2-0.2,2.4-0.6,3.5-1.1l0.9,2.2
	c0.1,0.2,0.4,0.4,0.6,0.2c2.4-1.2,4.4-2.7,6.2-4.5c0.2-0.2,0.2-0.5-0.1-0.7l-1.9-1.5c0.8-0.9,1.4-2,2-3.1l2.1,1.2
	c0.2,0.1,0.5,0,0.6-0.2c1.4-2.1,1.8-5.9,1.8-7.5C70.9,405.8,70.6,405.5,70.3,405.5z M52.2,412.9c-4,0-7.3-3.3-7.3-7.3
	s3.3-7.3,7.3-7.3s7.3,3.3,7.3,7.3C59.6,409.6,56.3,412.9,52.2,412.9z"/>
<path class="st0" d="M716.5,439.3h-2.2c0-1.2-0.2-2.5-0.4-3.5l2.4-0.5c0.4-0.1,0.4-0.4,0.4-0.6c-0.6-2.5-1.9-4.8-3.5-6.9
	c-0.2-0.2-0.5-0.2-0.7-0.1l-1.9,1.5c-0.8-0.9-1.7-1.8-2.7-2.5l1.4-2c0.2-0.2,0.1-0.5-0.1-0.7c-2.1-1.4-4.5-2.5-7-3
	c-0.4,0-0.5,0.1-0.6,0.4l-0.4,2.4c-0.8-0.1-1.8-0.2-2.7-0.2c-0.4,0-0.6,0-0.9,0l-0.1-2.5c0-0.4-0.2-0.5-0.5-0.4
	c-2.6,0.2-5.1,1.1-7.3,2.2c-0.2,0.1-0.4,0.4-0.2,0.7l1.2,2c-1.1,0.6-2,1.3-2.8,2.1L686,426c-0.2-0.2-0.5-0.2-0.7,0
	c-1.9,1.9-3.3,4-4.3,6.4c-0.1,0.2,0,0.5,0.4,0.6l2.2,0.8c-0.4,1.2-0.7,2.4-0.8,3.5l-2.4-0.4c-0.4,0-0.5,0.2-0.5,0.5
	c0,1.5,0.4,5.4,0.8,7.5c0.1,0.4,0.4,0.4,0.6,0.4c0.8-0.4,2.2-0.8,2.2-0.8c0.4,1.2,1.1,2.2,1.7,3.3l-2,1.3c-0.2,0.2-0.4,0.5-0.1,0.7
	c1.4,2,3.4,3.9,5.6,5.2c0.2,0.1,0.5,0.1,0.7-0.2l1.2-2c1.1,0.6,2.1,1.2,3.4,1.4l-0.7,2.4c-0.1,0.4,0.1,0.5,0.4,0.6
	c1.5,0.4,3.2,0.6,4.8,0.6c0.9,0,1.9-0.1,2.7-0.2c0.4,0,0.4-0.4,0.4-0.6l-0.4-2.4c1.2-0.2,2.4-0.6,3.5-1.1l0.9,2.2
	c0.1,0.2,0.4,0.4,0.6,0.2c2.4-1.2,4.4-2.7,6.2-4.5c0.2-0.2,0.2-0.5-0.1-0.7l-1.9-1.5c0.8-0.9,1.4-2,2-3.1l2.1,1.2
	c0.2,0.1,0.5,0,0.6-0.2c1.4-2.1,1.8-5.9,1.8-7.5C717.1,439.6,716.8,439.3,716.5,439.3z M698.4,446.7c-4,0-7.3-3.3-7.3-7.3
	s3.3-7.3,7.3-7.3s7.3,3.3,7.3,7.3C705.8,443.4,702.5,446.7,698.4,446.7z"/>
<path class="st0" d="M2034.4,74h-2.2c0-1.2-0.2-2.5-0.4-3.5l2.4-0.5c0.4-0.1,0.4-0.4,0.4-0.6c-0.6-2.5-1.9-4.8-3.5-6.9
	c-0.2-0.2-0.5-0.2-0.7-0.1l-1.9,1.5c-0.8-0.9-1.7-1.8-2.7-2.5l1.4-2c0.2-0.2,0.1-0.5-0.1-0.7c-2.1-1.4-4.5-2.5-7-3
	c-0.4,0-0.5,0.1-0.6,0.4l-0.4,2.4c-0.8-0.1-1.8-0.2-2.7-0.2c-0.4,0-0.6,0-0.9,0l-0.1-2.5c0-0.4-0.2-0.5-0.5-0.4
	c-2.6,0.2-5.1,1.1-7.3,2.2c-0.2,0.1-0.4,0.4-0.2,0.7l1.2,2c-1.1,0.6-2,1.3-2.8,2.1l-1.7-1.8c-0.2-0.2-0.5-0.2-0.7,0
	c-1.9,1.9-3.3,4-4.3,6.4c-0.1,0.2,0,0.5,0.4,0.6l2.2,0.8c-0.4,1.2-0.7,2.4-0.8,3.5l-2.4-0.4c-0.4,0-0.5,0.2-0.5,0.5
	c0,1.5,0.4,5.4,0.8,7.5c0.1,0.4,0.4,0.4,0.6,0.4c0.8-0.4,2.2-0.8,2.2-0.8c0.4,1.2,1.1,2.2,1.7,3.3l-2,1.3c-0.2,0.2-0.4,0.5-0.1,0.7
	c1.4,2,3.4,3.9,5.6,5.2c0.2,0.1,0.5,0.1,0.7-0.2l1.2-2c1.1,0.6,2.1,1.2,3.4,1.4l-0.7,2.4c-0.1,0.4,0.1,0.5,0.4,0.6
	c1.5,0.4,3.2,0.6,4.8,0.6c0.9,0,1.9-0.1,2.7-0.2c0.4,0,0.4-0.4,0.4-0.6l-0.4-2.4c1.2-0.2,2.4-0.6,3.5-1.1l0.9,2.2
	c0.1,0.2,0.4,0.4,0.6,0.2c2.4-1.2,4.4-2.7,6.2-4.5c0.2-0.2,0.2-0.5-0.1-0.7l-1.9-1.5c0.8-0.9,1.4-2,2-3.1l2.1,1.2
	c0.2,0.1,0.5,0,0.6-0.2c1.4-2.1,1.8-5.9,1.8-7.5C2035,74.3,2034.6,74,2034.4,74z M2016.3,81.4c-4,0-7.3-3.3-7.3-7.3s3.3-7.3,7.3-7.3
	s7.3,3.3,7.3,7.3C2023.5,78,2020.5,81.4,2016.3,81.4z"/>
<path class="st0" d="M110.2,192.5H108c0-1.2-0.2-2.5-0.4-3.5l2.4-0.5c0.4-0.1,0.4-0.4,0.4-0.6c-0.6-2.5-1.9-4.8-3.5-6.9
	c-0.2-0.2-0.5-0.2-0.7-0.1l-1.9,1.5c-0.8-0.9-1.7-1.8-2.7-2.5l1.4-2c0.2-0.2,0.1-0.5-0.1-0.7c-2.1-1.4-4.5-2.5-7-3
	c-0.4,0-0.5,0.1-0.6,0.4l-0.4,2.4c-0.8-0.1-1.8-0.2-2.7-0.2c-0.4,0-0.6,0-0.9,0l-0.1-2.5c0-0.4-0.2-0.5-0.5-0.4
	c-2.6,0.2-5.1,1.1-7.3,2.2c-0.2,0.1-0.4,0.4-0.2,0.7l1.2,2c-1.1,0.6-2,1.3-2.8,2.1l-1.7-1.8c-0.2-0.2-0.5-0.2-0.7,0
	c-1.9,1.9-3.3,4-4.3,6.4c-0.1,0.2,0,0.5,0.4,0.6l2.2,0.8c-0.4,1.2-0.7,2.4-0.8,3.5l-2.4-0.4c-0.4,0-0.5,0.2-0.5,0.5
	c0,1.5,0.4,5.4,0.8,7.5c0.1,0.4,0.4,0.4,0.6,0.4c0.8-0.4,2.2-0.8,2.2-0.8c0.4,1.2,1.1,2.2,1.7,3.3l-2,1.3c-0.2,0.2-0.4,0.5-0.1,0.7
	c1.4,2,3.4,3.9,5.6,5.2c0.2,0.1,0.5,0.1,0.7-0.2l1.2-2c1.1,0.6,2.1,1.2,3.4,1.4l-0.7,2.4c-0.1,0.4,0.1,0.5,0.4,0.6
	c1.5,0.4,3.2,0.6,4.8,0.6c0.9,0,1.9-0.1,2.7-0.2c0.4,0,0.4-0.4,0.4-0.6l-0.4-2.4c1.2-0.2,2.4-0.6,3.5-1.1l0.9,2.2
	c0.1,0.2,0.4,0.4,0.6,0.2c2.4-1.2,4.4-2.7,6.2-4.5c0.2-0.2,0.2-0.5-0.1-0.7l-1.9-1.5c0.8-0.9,1.4-2,2-3.1l2.1,1.2
	c0.2,0.1,0.5,0,0.6-0.2c1.4-2.1,1.8-5.9,1.8-7.5C110.8,192.8,110.4,192.5,110.2,192.5z M92.1,199.9c-4,0-7.3-3.3-7.3-7.3
	s3.3-7.3,7.3-7.3s7.3,3.3,7.3,7.3C99.3,196.5,96.3,199.9,92.1,199.9z"/>
<path class="st0" d="M1986.2,327.9h-2.2c0-1.2-0.2-2.5-0.4-3.5l2.4-0.5c0.4-0.1,0.4-0.4,0.4-0.6c-0.6-2.5-1.9-4.8-3.5-6.9
	c-0.2-0.2-0.5-0.2-0.7-0.1l-1.9,1.5c-0.8-0.9-1.7-1.8-2.7-2.5l1.4-2c0.2-0.2,0.1-0.5-0.1-0.7c-2.1-1.4-4.5-2.5-7-3
	c-0.4,0-0.5,0.1-0.6,0.4l-0.4,2.4c-0.8-0.1-1.8-0.2-2.7-0.2c-0.4,0-0.6,0-0.9,0l-0.1-2.5c0-0.4-0.2-0.5-0.5-0.4
	c-2.6,0.2-5.1,1.1-7.3,2.2c-0.2,0.1-0.4,0.4-0.2,0.7l1.2,2c-1.1,0.6-2,1.3-2.8,2.1l-1.7-1.8c-0.2-0.2-0.5-0.2-0.7,0
	c-1.9,1.9-3.3,4-4.3,6.4c-0.1,0.2,0,0.5,0.4,0.6l2.2,0.8c-0.4,1.2-0.7,2.4-0.8,3.5l-2.4-0.4c-0.4,0-0.5,0.2-0.5,0.5
	c0,1.5,0.4,5.4,0.8,7.5c0.1,0.4,0.4,0.4,0.6,0.4c0.8-0.4,2.2-0.8,2.2-0.8c0.4,1.2,1.1,2.2,1.7,3.3l-2,1.3c-0.2,0.2-0.4,0.5-0.1,0.7
	c1.4,2,3.4,3.9,5.6,5.2c0.2,0.1,0.5,0.1,0.7-0.2l1.2-2c1.1,0.6,2.1,1.2,3.4,1.4l-0.7,2.4c-0.1,0.4,0.1,0.5,0.4,0.6
	c1.5,0.4,3.2,0.6,4.8,0.6c0.9,0,1.9-0.1,2.7-0.2c0.4,0,0.4-0.4,0.4-0.6l-0.4-2.4c1.2-0.2,2.4-0.6,3.5-1.1l0.9,2.2
	c0.1,0.2,0.4,0.4,0.6,0.2c2.4-1.2,4.4-2.7,6.2-4.5c0.2-0.2,0.2-0.5-0.1-0.7l-1.9-1.5c0.8-0.9,1.4-2,2-3.1l2.1,1.2
	c0.2,0.1,0.5,0,0.6-0.2c1.4-2.1,1.8-5.9,1.8-7.5C1986.8,328.3,1986.6,327.9,1986.2,327.9z M1968.1,335.4c-4,0-7.3-3.3-7.3-7.3
	s3.3-7.3,7.3-7.3s7.3,3.3,7.3,7.3S1972.3,335.4,1968.1,335.4z"/>
<path class="st0" d="M965.1,16.7h-9.8c0-5.4-0.7-10.8-2-15.8l10.2-2.4c1.1-0.3,1.8-1.4,1.6-2.6c-2.8-10.8-8-20.9-15.1-29.6
	c-0.7-0.9-2.1-1-3-0.3l-8,6.8c-3.4-4.1-7.2-7.7-11.6-10.8l6.3-8.5c0.7-1,0.4-2.4-0.4-3c-9.1-6.4-19.6-10.8-30.5-13.1
	c-1.1-0.3-2.4,0.6-2.4,1.7l-1.8,10.4c-3.8-0.6-7.7-1-11.6-1c-1.4,0-2.8,0.1-4.3,0.1L882-61.7c-0.1-1.1-1.1-2.1-2.4-2
	c-11.1,1-22,4.3-31.7,9.7c-1,0.6-1.4,1.8-0.9,3l5.3,9.1c-4.5,2.7-9,6-12.6,9.5l-7.2-7.7c-0.9-0.9-2.3-0.9-3.1-0.1
	c-8,8-14.1,17.3-18.2,27.7c-0.4,1.1,0.1,2.4,1.3,2.7l9.8,3.6c-1.8,5-3.1,10.1-3.6,15.5L808.4,8c-1.3-0.1-2.4,0.9-2.4,2.1
	c0.1,6.5,1.4,23.7,3.7,32.4c0.4,1.3,1.6,1.8,2.8,1.4c3.4-1.3,9.8-3.6,9.8-3.6c1.8,5.1,4.3,9.8,7.1,14.2l-8.8,5.8c-1,0.6-1.3,2-0.6,3
	c6.4,9.1,14.6,16.9,24,22.7c1,0.6,2.4,0.3,3-0.7l5.3-9.1c4.5,2.6,9.4,4.7,14.6,6.3l-3,10.1c-0.4,1.1,0.4,2.4,1.4,2.6
	c6.8,1.8,13.9,2.8,21.2,2.8c4.1,0,8-0.3,11.9-0.9c1.1-0.1,2-1.3,1.7-2.4l-1.8-10.4c5.3-1,10.4-2.4,15.2-4.5l4.3,9.7
	c0.4,1.1,1.7,1.6,2.8,1.1c10.1-4.7,19.2-11.5,26.6-19.7c0.7-0.9,0.6-2.3-0.3-3.1l-8-6.8c3.4-4.1,6.3-8.5,8.8-13.2l9.4,4.7
	c1,0.4,2.1,0.3,2.7-0.7c6.1-9.2,7.5-25.7,7.8-32.1C967.8,18,966.7,16.7,965.1,16.7z M887,48.5c-17.3,0-31.5-14.1-31.5-31.5
	s14.1-31.5,31.5-31.5s31.5,14,31.5,31.5C918.7,34.5,904.5,48.5,887,48.5z"/>
<g>
	<path class="st0" d="M1189,307.7c0,29.7-24.1,53.9-53.9,53.9c-29.7,0-53.9-24.1-53.9-53.9c0-29.7,24.1-53.9,53.9-53.9
		C1164.9,253.9,1189,278,1189,307.7z"/>
	<path class="st4" d="M1118.6,302.4l13.7,13.7l57.4-57.4c2.1-2.1,5.4-2.1,7.6-0.3l0,0c2.5,2.1,2.7,6,0.3,8.3l-64.7,64.7l-22.1-21
		c-2.4-2.2-2.2-6.2,0.3-8.3l0,0C1113.2,300.2,1116.4,300.4,1118.6,302.4z"/>
</g>
<g>
	<path class="st0" d="M1792.6,429.4c0,14.8-12.1,27-27,27c-14.8,0-27-12.1-27-27s12.1-27,27-27S1792.6,414.5,1792.6,429.4z"/>
	<path class="st4" d="M1757.5,426.7l6.8,6.8l28.7-28.7c1-1,2.7-1.1,3.9-0.2l0,0c1.3,1.1,1.3,3,0.2,4.1l-32.4,32.4l-11-10.4
		c-1.2-1.2-1.2-3.1,0.2-4.1l0,0C1754.8,425.6,1756.4,425.7,1757.5,426.7z"/>
</g>
<g>
	<path class="st0" d="M1767.7,228c7.6,16.1,7.9,77.7,2,80.4c-7.3,3.5-52.8-37.1-60.2-53.1c-7.5-16-0.7-35.2,15.4-42.7
		C1741,205.1,1760.1,211.9,1767.7,228z"/>
	
		<ellipse transform="matrix(0.9047 -0.426 0.426 0.9047 62.5625 763.9346)" class="st1" cx="1739.1" cy="242.1" rx="12.9" ry="12.9"/>
</g>
<g>
	<path class="st0" d="M649.7,181.9c-2.7,9-24.4,33.8-27.7,32.8c-4.1-1.2-7.9-33.4-5.2-42.5c2.7-9.1,12.2-14.3,21.3-11.6
		C647.2,163.2,652.4,172.8,649.7,181.9z"/>
	<ellipse transform="matrix(0.282 -0.9594 0.9594 0.282 284.4727 735.17)" class="st1" cx="633.4" cy="177.5" rx="6.9" ry="6.9"/>
</g>
<g>
	<path class="st0" d="M1292.6,296.2c-2.7,9-24.4,33.8-27.7,32.8c-4.1-1.2-7.9-33.4-5.2-42.5s12.2-14.3,21.3-11.6
		C1290.2,277.6,1295.4,287.1,1292.6,296.2z"/>
	
		<ellipse transform="matrix(0.282 -0.9594 0.9594 0.282 636.4472 1434.0564)" class="st1" cx="1276.3" cy="291.8" rx="6.9" ry="6.9"/>
</g>
<g>
	<path class="st0" d="M449.7,372.6c-2.7,9-24.4,33.8-27.7,32.8c-4.1-1.2-7.9-33.4-5.2-42.5c2.7-9.1,12.2-14.3,21.3-11.6
		C447.2,353.9,452.4,363.5,449.7,372.6z"/>
	<ellipse transform="matrix(0.282 -0.9594 0.9594 0.282 -42.0362 680.1)" class="st1" cx="433.4" cy="368.1" rx="6.9" ry="6.9"/>
</g>
<g>
	<path class="st0" d="M213.1,181.9c-2.7,9-24.4,33.8-27.7,32.8c-4.1-1.2-7.9-33.4-5.2-42.5s12.2-14.3,21.3-11.6
		C210.6,163.2,215.8,172.8,213.1,181.9z"/>
	<ellipse transform="matrix(0.282 -0.9594 0.9594 0.282 -28.9722 316.1566)" class="st1" cx="196.7" cy="177.4" rx="6.9" ry="6.9"/>
</g>
<g>
	<path class="st0" d="M2099.7,231.2c-4.7,16-43.1,59.7-48.9,58c-7.2-2.1-14-59-9.2-75s21.4-25.2,37.6-20.6
		C2095.3,198.3,2104.4,215.3,2099.7,231.2z"/>
	
		<ellipse transform="matrix(0.282 -0.9594 0.9594 0.282 1272.4839 2147.0916)" class="st1" cx="2070.8" cy="223.4" rx="12.2" ry="12.2"/>
</g>
<g>
	<path class="st0" d="M448.1,39.1c-7.7,26-70,97.1-79.4,94.2c-11.7-3.5-22.7-96-15-121.9s34.8-41,61.1-33.5
		C441-14.4,455.8,13.1,448.1,39.1z"/>
	
		<ellipse transform="matrix(0.282 -0.9594 0.9594 0.282 262.6714 403.8535)" class="st1" cx="401.2" cy="26.4" rx="19.8" ry="19.8"/>
</g>
<g>
	<path class="st0" d="M2453.7,258.6c-7.7,26-70,97.1-79.4,94.2c-11.7-3.5-22.7-96-15-121.9c7.7-25.9,34.8-41,61.1-33.5
		C2446.6,205.1,2461.4,232.6,2453.7,258.6z"/>
	
		<ellipse transform="matrix(0.282 -0.9594 0.9594 0.282 1492.1085 2485.6848)" class="st1" cx="2406.8" cy="245.9" rx="19.8" ry="19.8"/>
</g>
<g>
	<path class="st0" d="M1725.1,126.9c3.9,7.8,5.1,38.2,2.2,39.7c-3.5,1.8-26.6-17.5-30.5-25.2c-3.9-7.8-0.8-17.4,7-21.3
		C1711.6,116,1721.2,119.1,1725.1,126.9z"/>
	<ellipse transform="matrix(0.891 -0.454 0.454 0.891 125.5641 791.5736)" class="st1" cx="1711.3" cy="134.3" rx="6.4" ry="6.4"/>
</g>
<g>
	<path class="st0" d="M1349.1,468.3c3.9,7.8,5.1,38.2,2.2,39.7c-3.5,1.8-26.6-17.5-30.5-25.2c-3.9-7.8-0.8-17.4,7-21.3
		C1335.6,457.4,1345.2,460.5,1349.1,468.3z"/>
	<ellipse transform="matrix(0.891 -0.454 0.454 0.891 -70.4214 658.0984)" class="st1" cx="1335.3" cy="475.7" rx="6.4" ry="6.4"/>
</g>
<g>
	<path class="st0" d="M312.5,116.1c3.9,7.8,5.1,38.2,2.2,39.7c-3.5,1.8-26.6-17.5-30.5-25.2c-3.9-7.8-0.8-17.4,7-21.3
		C299,105.2,308.6,108.3,312.5,116.1z"/>
	<ellipse transform="matrix(0.891 -0.454 0.454 0.891 -23.4809 149.0133)" class="st1" cx="298.6" cy="123.4" rx="6.4" ry="6.4"/>
</g>
</svg>
