<?xml version="1.0" encoding="utf-8"?>
<!-- Generator: Adobe Illustrator 22.0.0, SVG Export Plug-In . SVG Version: 6.00 Build 0)  -->
<svg version="1.1" xmlns="http://www.w3.org/2000/svg" xmlns:xlink="http://www.w3.org/1999/xlink" x="0px" y="0px"
	 viewBox="0 0 1500 1125" style="enable-background:new 0 0 1500 1125;" xml:space="preserve">
<style type="text/css">
	.st0{display:none;}
	.st1{fill:#F4F4F4;}
	.st2{fill:#5D83ED;}
	.st3{fill:#3765B7;}
	.st4{fill:#4977DB;}
	.st5{fill:#F4B798;}
	.st6{fill:#E59470;}
	.st7{fill:#6B848E;}
	.st8{fill:#C0CBCE;}
	.st9{fill:none;stroke:#78909C;stroke-width:4.8365;stroke-linecap:round;stroke-miterlimit:10;}
	.st10{fill:none;stroke:#2B393D;stroke-width:3.6274;stroke-linecap:round;stroke-miterlimit:10;}
	.st11{fill:#E0E2E2;}
	.st12{fill:#FFFFFF;}
	.st13{fill:#7AA1E5;}
	.st14{fill:#EA5E6B;}
	.st15{fill:#B3B3B3;}
	.st16{fill:#3E69B5;}
	.st17{fill:none;stroke:#3E69B5;stroke-width:1.2091;stroke-miterlimit:10;}
	.st18{fill:none;stroke:#B5C3C6;stroke-width:1.2091;stroke-miterlimit:10;}
	.st19{fill:#B74653;}
	.st20{opacity:0.5;fill:#78909C;}
	.st21{fill:#515151;}
	.st22{fill:#F7C8B2;}
</style>
<g id="Layer_1" class="st0">
	
		<image style="display:inline;overflow:visible;" width="536" height="435" xlink:href="../../personalProjects/motionPersonal/2018_Spring/MINIREELCUT_SPRING_2018/introIllust.jpg"  transform="matrix(1.5373 0 0 1.5373 87 132)">
	</image>
</g>
<g id="Layer_2">
	<rect class="st1" width="1500" height="1122"/>
	<g>
		<g>
			<path class="st2" d="M580,947.5c-4.3,9.7-15.5,16.5-15.5,27.4c0,1.8,0.4,3.6,0.9,5.4c2,6.6,6.7,12.9,5.2,19.7
				c-1.1,5.3-5.8,9.1-9.4,13.2c-2.2,2.5-4.1,5.2-4.6,8.5c-0.2,1.7-0.1,3.3,0.3,5c0.4,2.1,1.1,4.1,1.6,6.2c2,8.1-0.3,16.3-3,24.2
				c-0.5,1.4-1,2.8-1.5,4.3c-4.5,12.3-8.5,27.7-12.3,44.9c0,0,0,0,0,0c-14.1,65-23.5,155.4-33.5,201.8
				c-88.9-21.4-203.1,31.4-299.9,3.6c11.1-36.4,58.7-192.9,79.7-268.2c4-14.4,7-25.8,8.7-32.8c1.6-6.8,1.6-13.8,0.6-20.7
				c-0.3-2-0.7-4.1-1.2-6c-2-8.1,0.1-17.4,6-23.3c0.2-0.2,0.4-0.4,0.6-0.6c2-1.9,4.3-3.7,5.6-6.1c1.3-2.3,1.4-4.8,1-7.2
				c-1.2-7.3-7.5-15.1-6.3-22.8c0.4-3,2-5.7,3.5-8.4c0.3-0.6,0.7-1.2,1-1.8c3.1-5.6,6.1-12.2,6.8-18.6c-0.2-0.3-0.3-0.6-0.4-0.9
				c-8.2-16.5,2.4-37.8,18.7-46.8c16.5-9.1,36.6-8.6,55.4-6.3c31.1,3.8,61.6,11.6,91.9,19.4c15.2,3.9,30.3,7.8,45.5,11.7
				c17.6,4.5,34.6,11.1,49.1,22C597,910.9,580.7,946.1,580,947.5z"/>
			<path class="st3" d="M345,883.3c9,20.4,36.9,31.9,45.8,35.6c35.6,14.6,73.4,25.6,111.9,26.4c32.6,0.7,51-8.1,55.3-12
				c4.3-3.9,6.8-10.4,4.3-15.7c-3.1-6.6-204-55.4-207.7-55.7C345,861,342.1,876.6,345,883.3z"/>
			<path class="st4" d="M564.5,975c0,1.8,0.4,3.6,0.9,5.4c-31,5.9-62.5,0.2-88.7-2.3c-4.7-0.4-9-2.9-5.7-7.7c2.6-3.9,8.6-3,12.5-3.1
				c14.2-0.4,39.4,3.7,53.3,0.7c15.8-3.4,31.2-9.8,43.2-20.4C575.7,957.3,564.5,964.1,564.5,975z"/>
			<path class="st4" d="M358.4,934.8c-8.8,1-17.2-3.8-24.6-8.7c-7.4-4.9-15.2-10.2-24.1-10.5c-1,0-2.1,0-3-0.2
				c0.3-0.6,0.7-1.2,1-1.8c3.1-5.6,6.1-12.2,6.8-18.6c-0.2-0.3-0.3-0.6-0.4-0.9c0.4,0,0.8,0.1,1.3,0.2c3.6,0.9,8.5,9.3,11.1,12
				c7.3,7.7,15.3,14.9,24.8,19.9C354.6,928.2,358.9,930.9,358.4,934.8z"/>
			<path class="st4" d="M556.9,1026.7c-2.3-0.1-4.5-0.6-6.7-1.4c-1.4-0.5-2.9-1.2-3.3-2.6c-0.8-2.5,2.1-4.5,4.5-5.6
				c3.3-1.4,6.5-2.7,9.8-4c-2.2,2.5-4.1,5.2-4.6,8.5C556.4,1023.4,556.6,1025.1,556.9,1026.7z"/>
			<path class="st4" d="M318,958.9c-1.6,3-5.9,2.8-9.2,2.2c-2-0.4-4-0.7-6-1.1c2-1.9,4.3-3.7,5.6-6.1c1.3-2.3,1.4-4.8,1-7.2
				c1.8,1.9,4.3,3.1,6.3,4.8C317.8,953.3,319.4,956.5,318,958.9z"/>
			<path class="st4" d="M309.2,1029.7c-5.2,3.6-11.3,6-15.9,10.4c-1.1,1.1-2.1,2.3-3.5,2.9c-0.6,0.3-1.2,0.4-1.8,0.4
				c4-14.4,7-25.8,8.7-32.8c1.6-6.8,1.6-13.8,0.6-20.7c4.4,3.1,9.4,9.6,12.5,12.3c3.7,3.3,7.5,6.9,8.3,11.8
				C319,1020.3,314.4,1026.1,309.2,1029.7z"/>
			<path class="st4" d="M555.4,1057.1c-0.5,1.4-1,2.8-1.5,4.3c-4.5,12.3-8.5,27.7-12.3,44.9c-0.5-3.4-1-6.3-1.4-7.5
				c-2.9-8.6-7.9-17.8-4.8-26.4c2.9-8,11.6-12,19.5-15.1C555.1,1057.2,555.3,1057.1,555.4,1057.1z"/>
		</g>
		<g>
			<path class="st2" d="M991.9,1038.2c3.5,10.1,14,17.8,13,28.7c-0.2,1.8-0.7,3.6-1.4,5.3c-2.6,6.4-7.8,12.3-7,19.1
				c0.7,5.4,5,9.5,8.2,14c2,2.7,3.6,5.6,3.8,8.9c0.1,1.7-0.2,3.3-0.7,4.9c-0.6,2-1.4,4-2.1,6c-2.7,7.9-1.2,16.2,0.9,24.3
				c0.4,1.5,0.8,2.9,1.2,4.4c3.4,12.7,6.1,28.4,8.3,45.8c0,0,0,0,0,0c8.3,65.9,9.7,156.8,15.6,204c90.5-13.5,199.6,49.2,298.4,30
				c-7.9-37.2-41.5-197.4-55.8-274.2c-2.7-14.6-4.7-26.3-5.7-33.4c-1-6.9-0.4-13.9,1.2-20.7c0.5-2,1.1-4,1.7-5.9
				c2.7-7.9,1.4-17.3-4-23.8c-0.2-0.2-0.4-0.4-0.6-0.7c-1.8-2.1-4-4-5-6.6c-1-2.4-1-4.9-0.4-7.3c1.8-7.2,8.8-14.4,8.3-22.2
				c-0.2-3.1-1.5-5.9-2.8-8.7c-0.3-0.6-0.6-1.3-0.8-1.9c-2.6-5.9-5-12.7-5.1-19.1c0.2-0.3,0.4-0.5,0.5-0.8
				c9.6-15.7,0.9-37.9-14.5-48.3c-15.7-10.6-35.7-11.8-54.6-11.1c-31.3,1-62.4,6.1-93.3,11.2c-15.5,2.6-30.9,5.1-46.4,7.7
				c-17.9,3-35.4,8-50.9,17.6C978.1,1000.1,991.4,1036.6,991.9,1038.2z"/>
			<path class="st3" d="M1231.7,993.6c-10.7,19.5-39.5,28.5-48.8,31.4c-36.7,11.4-75.4,19-113.8,16.4c-32.6-2.2-50.1-12.6-54.1-16.8
				c-3.9-4.3-6.1-11.2-2.9-16c16-24.1,180.2-52.2,211.8-37.2C1232.8,975.6,1235.2,987.2,1231.7,993.6z"/>
			<path class="st4" d="M1004.9,1066.8c-0.2,1.8-0.7,3.6-1.4,5.3c29.7,5.4,19.7,4.9,46.1,4.8c4.7,0,9.2-2.1,6.4-7.2
				c-2.3-4.1-9.2-3.2-22.9-7.4c-15.4-4.7-30.2-12.5-41.2-24.2C995.3,1048.2,1005.9,1056,1004.9,1066.8z"/>
			<path class="st4" d="M1185.3,1054.3c-4.5,2.3-1.7,9.1,3.1,7.6c18.6-5.8,45.1-20.4,50.7-23.4c7.8-4.2,16.1-8.8,25-8.4
				c1,0.1,2.1,0.2,3.1,0c-0.3-0.6-0.6-1.3-0.8-1.9c-2.6-5.9-5-12.7-5.1-19.1c0.2-0.3,0.4-0.5,0.5-0.8c-0.4,0-0.9,0-1.3,0.1
				c-3.7,0.6-9.3,8.5-12.1,11c-8,7-16.6,13.5-26.4,17.7C1219.4,1038.2,1199.3,1047,1185.3,1054.3z"/>
			<path class="st4" d="M1007.9,1119.1c2.3,0.1,4.6-0.2,6.8-0.8c1.4-0.4,3-1,3.5-2.3c1.1-2.4-1.7-4.7-4-5.9
				c-3.1-1.7-6.3-3.2-9.4-4.8c2,2.7,3.6,5.6,3.8,8.9C1008.7,1115.8,1008.4,1117.4,1007.9,1119.1z"/>
			<path class="st4" d="M1251.8,1072.6c1.4,3.1,5.6,3.3,9,3c2-0.2,4.1-0.4,6.1-0.6c-1.8-2.1-4-4-5-6.6c-1-2.4-1-4.9-0.4-7.3
				c-2,1.7-4.5,2.7-6.7,4.2C1252.5,1067,1250.7,1070,1251.8,1072.6z"/>
			<path class="st4" d="M1254.4,1143.9c4.9,4,10.7,6.9,14.9,11.8c1,1.2,1.9,2.4,3.2,3.2c0.5,0.3,1.2,0.5,1.8,0.6
				c-2.7-14.6-4.7-26.3-5.7-33.4c-1-6.9-0.4-13.9,1.2-20.7c-4.6,2.7-10.2,8.7-13.5,11.2c-3.9,2.9-8.1,6.3-9.3,11
				C1245.4,1133.6,1249.5,1139.8,1254.4,1143.9z"/>
			<path class="st4" d="M1006.7,1149.4c0.4,1.5,0.8,2.9,1.2,4.4c3.4,12.7,6.1,28.4,8.3,45.8c0.8-3.3,1.5-6.2,2-7.4
				c3.7-8.4,9.4-17,7.1-25.8c-2.2-8.2-10.5-13-18.1-16.8C1007,1149.6,1006.8,1149.5,1006.7,1149.4z"/>
		</g>
		<path class="st5" d="M695,278.5c-1.5,4-1.8,17.6-6,18.1c-5.2,0.7-5.8-17.3-8.2-22c-4.4-8.6-9-17.7-9-27.4c0-7.9,3.8-17.9,9.3-27.5
			c2.1-3.7,4.5-7.3,7-10.8c13.4-18.5,30.6-31.4,33.6-17.5C723.6,200.9,698.4,269.5,695,278.5z"/>
		<path class="st6" d="M691.4,279.6c-3.5-8.5-3.7-19.6-5.2-28.7c-1.7-10.4-3.5-20.8-5.2-31.2c2.1-3.7,4.5-7.3,7-10.8
			c0.5,0.4,0.9,1,1.2,1.5c0.9,1.7,1.1,3.7,1.3,5.6C691.7,237.3,688.6,258.5,691.4,279.6z"/>
		<path class="st5" d="M570.4,779.1c18.1,3.6,30.8-7.6,35.1-12.3c31.8-34.3,59-72.7,84.7-111.8c8.7-13.2,17.2-26.8,22.3-41.8
			c5.1-15,6.4-31.8,0.4-46.5c-4.4-10.9-12.4-19.9-20.7-28.3C632,478,548.3,441.6,463,438.8c-11.7-0.4-23.6-0.1-34.5,4.1
			c-20.5,7.9-33.8,28.7-38.6,50.1c-4.8,21.4-5.5,226.3,21.1,234.8C439.6,736.9,543.3,773.6,570.4,779.1z"/>
		<path class="st6" d="M482.7,698c0,2.8,4.1,3.2,4.6,0.4c0,0,0-0.1,0-0.1c0.8-4.6,0.8-9.4,2.9-13.5c4.8-9.6,17.5-11.4,28.2-11.7
			c28.2-0.6,56.3,1.4,84.5,0.9c28.2-0.5,56.7-3.6,82.9-14c-35.2-5-70.9-5.4-106.4-5c-17.6,0.2-35.2,0.5-52.7,0.6
			c-8.9,0-17.8,0-26.7-0.2c-4.6-0.1-19.8-3.2-22.3,1.4c-2.1,3.8,4.2,20.9,4.5,26.1C482.2,684.7,482.7,691.6,482.7,698z"/>
		<g>
			<path class="st7" d="M364.9,145.5l58,510.6c1,8.1,7.9,14.2,16.1,14.2h280.4c5.8,0,14.9-5.5,21-12c5.3-5.7,5.8-14.4,1.5-20.8
				L395.7,128.7c-4.7-6.9-14.6-8.2-20.6-2.4C369,132,364.2,139.9,364.9,145.5z"/>
			<path class="st8" d="M372.7,137.8l61.1,505.5c1,8.1,7.9,14.2,16.1,14.2h280.4c9.8,0,17.4-8.6,16.1-18.3l-73.2-505.5
				c-1-8.1-7.9-14.2-16.1-14.2H388.8C379,119.5,371.4,128.1,372.7,137.8z"/>
			<line class="st9" x1="483.4" y1="149.1" x2="572.8" y2="149.1"/>
			<line class="st10" x1="568" y1="664.2" x2="624.8" y2="664.2"/>
			<path class="st11" d="M378.8,184.4L429,603.8c0,0,313.5-1.2,312-1.2c-1.5,0-59.6-420.3-60-418.1
				C680.5,186.6,378.8,184.4,378.8,184.4z"/>
			<path class="st12" d="M664,253.1l-250.4-1.2c-4.7,0-8.8-3.5-9.4-8.2l-4.4-30.5c-0.8-5.7,3.6-10.8,9.4-10.8h249.2
				c4.7,0,8.8,3.5,9.4,8.2l5.7,31.7C674.2,248,669.8,253.1,664,253.1z"/>
			<path class="st13" d="M679.7,383.7l-251.6-1.2c-4.7,0-8.8-3.5-9.4-8.2L407,279.7c-0.8-5.7,3.6-10.8,9.4-10.8h248
				c4.7,0,8.8,3.5,9.4,8.2l15.3,95.8C689.9,378.6,685.5,383.7,679.7,383.7z"/>
			<path class="st12" d="M601.1,527.6l-152.5-1.2c-4.7,0-8.8-3.5-9.4-8.2l-15.3-111.5c-0.8-5.7,3.6-10.8,9.4-10.8h148.8
				c4.7,0,8.8,3.5,9.4,8.2l19,112.8C611.4,522.5,606.9,527.6,601.1,527.6z"/>
			<path class="st14" d="M701.5,527.6l-67.8-1.2c-4.7,0-8.8-3.5-9.4-8.2l-17.7-111.5c-0.8-5.7,3.6-10.8,9.4-10.8h66.6
				c4.7,0,8.8,3.5,9.4,8.2l19,112.8C711.7,522.5,707.3,527.6,701.5,527.6z"/>
			<path class="st15" d="M660.7,237.7l-9.8-8.9c1.3-1.5,1.9-3.6,1.5-5.9c-0.7-4.7-5-8.5-9.7-8.5s-8,3.8-7.3,8.5
				c0.7,4.7,5,8.5,9.7,8.5c1.7,0,3.3-0.5,4.5-1.4l9.9,9c0.2,0.2,0.5,0.3,0.7,0.3c0.2,0,0.4-0.1,0.6-0.3
				C661.2,238.6,661.1,238,660.7,237.7z M637.3,222.9c-0.5-3.7,2-6.7,5.7-6.7c3.7,0,7.1,3,7.6,6.7c0.3,2.1-0.4,3.9-1.7,5.1
				c0,0,0,0,0,0c-1,0.9-2.4,1.5-4,1.5C641.2,229.6,637.8,226.6,637.3,222.9z"/>
			
				<ellipse transform="matrix(0.6819 -0.7315 0.7315 0.6819 -270.515 520.217)" class="st12" cx="462.8" cy="571.1" rx="16.9" ry="19.5"/>
			
				<ellipse transform="matrix(0.6819 -0.7315 0.7315 0.6819 -74.5575 409.7509)" class="st16" cx="433.8" cy="290.6" rx="11.8" ry="13.6"/>
			
				<ellipse transform="matrix(0.6819 -0.7315 0.7315 0.6819 -96.8987 423.6743)" class="st16" cx="438.6" cy="323.2" rx="11.8" ry="13.6"/>
			
				<ellipse transform="matrix(0.6819 -0.7315 0.7315 0.6819 -120.1243 437.9824)" class="st16" cx="443.5" cy="357.1" rx="11.8" ry="13.6"/>
			
				<ellipse transform="matrix(0.6819 -0.7315 0.7315 0.6819 -251.3785 564.2178)" class="st12" cx="523" cy="571.1" rx="16.9" ry="19.5"/>
			
				<ellipse transform="matrix(0.6819 -0.7315 0.7315 0.6819 -232.242 608.2185)" class="st8" cx="583.1" cy="571.1" rx="16.9" ry="19.5"/>
			
				<ellipse transform="matrix(0.6819 -0.7315 0.7315 0.6819 -213.1055 652.2192)" class="st12" cx="643.3" cy="571.1" rx="16.9" ry="19.5"/>
			
				<ellipse transform="matrix(0.6819 -0.7315 0.7315 0.6819 -193.9689 696.2199)" class="st12" cx="703.4" cy="571.1" rx="16.9" ry="19.5"/>
			<g>
				
					<ellipse transform="matrix(0.6819 -0.7315 0.7315 0.6819 -227.1078 611.8216)" class="st12" cx="589.8" cy="567" rx="1.8" ry="2.1"/>
				
					<ellipse transform="matrix(0.6819 -0.7315 0.7315 0.6819 -229.5824 606.1318)" class="st12" cx="582" cy="567" rx="1.8" ry="2.1"/>
				
					<ellipse transform="matrix(0.6819 -0.7315 0.7315 0.6819 -232.057 600.4419)" class="st12" cx="574.3" cy="567" rx="1.8" ry="2.1"/>
				
					<ellipse transform="matrix(0.6819 -0.7315 0.7315 0.6819 -232.4499 615.0959)" class="st12" cx="590.9" cy="574.8" rx="1.8" ry="2.1"/>
				
					<ellipse transform="matrix(0.6819 -0.7315 0.7315 0.6819 -234.9245 609.406)" class="st12" cx="583.1" cy="574.8" rx="1.8" ry="2.1"/>
				
					<ellipse transform="matrix(0.6819 -0.7315 0.7315 0.6819 -237.3991 603.7161)" class="st12" cx="575.4" cy="574.8" rx="1.8" ry="2.1"/>
			</g>
			<polygon class="st8" points="651.2,574.7 648.4,574.7 644.4,578.4 644.2,574.7 635.5,574.7 634.3,566.3 650,566.3 			"/>
			<g>
				<g>
					<path class="st8" d="M528.5,563.8c-0.3-0.3-0.5-0.7-0.8-1c-0.8-1-1.9-1.7-3.2-2.1c-0.3-0.1-0.7-0.2-1-0.3
						c-0.7-0.2-1.3,0-1.5,0.7c-0.1,0.3-0.2,0.6-0.2,1c0,0.7-0.1,1.4-0.1,2.1c0,0.3,0.1,0.7,0.2,1c0.2,0.6,0.7,1,1.4,1.2
						c0.4,0.1,0.9,0.3,1.3,0.4c0.7,0.2,1,0.6,1.2,1.2c0.2,0.7,0.2,1.3,0.1,2c-0.1,1.2-0.4,2.4-0.9,3.5c-0.2,0.5-0.5,1-0.9,1.3
						c-0.4,0.3-0.8,0.3-1.3,0.1c-0.5-0.2-0.9-0.4-1.4-0.5c-0.9-0.3-1.5-0.1-2,0.6c-0.2,0.3-0.4,0.6-0.5,0.9
						c-0.2,0.6-0.4,1.2-0.6,1.8c-0.1,0.2-0.1,0.4-0.1,0.7c0,0.6,0.3,1.1,0.9,1.3c0.8,0.3,1.6,0.7,2.4,0.8c1,0.2,2,0,2.9-0.3
						c1.3-0.5,2.2-1.4,2.9-2.6c0.6-1,1.1-2,1.4-3.2c0.5-1.8,0.9-3.6,0.9-5.6c0-1.2-0.1-2.4-0.6-3.5c-0.1-0.3-0.2-0.5-0.3-0.7
						C528.6,564.1,528.6,564,528.5,563.8z"/>
				</g>
			</g>
			<g>
				<path class="st8" d="M702.5,561.4c-5,0-8.5,4.1-7.8,9.1c0.7,5,5.3,9.1,10.3,9.1s8.5-4.1,7.8-9.1S707.5,561.4,702.5,561.4z
					 M704.5,578.1c0,0-0.1,0.1-0.1,0.1c-1,0.1-2-0.3-2.9-0.8c-0.9-0.6-1.7-1.3-2.5-2.1c-0.4-0.4-0.9-0.9-1.3-1.4
					c-0.4-0.5-0.7-1.1-0.7-1.7c0-0.6,0.4-1.1,1-1.2c0.1,0,0.3,0,0.4,0.1c0.3,0.2,0.4,0.7,0.7,0.7c0.2,0.1,0.5-0.1,0.7,0.1
					c0.1,0.1,0.1,0.1,0.1,0.2c0.1,0.3,0.3,0.5,0.5,0.7c0.2,0.1,0.4,0.2,0.5,0.3c0.2,0.2,0.2,0.5,0.5,0.7c0.2,0.3,0.7,0.3,0.9,0.6
					c0.2,0.3,0.2,0.7,0.4,1c0.1,0.3,0.4,0.4,0.6,0.6c0.6,0.5,1.1,1.1,1.3,1.9C704.6,577.9,704.6,578,704.5,578.1z M709.2,576.2
					c0,0.2-0.1,0.4-0.2,0.5c-0.2,0.2-0.5,0.1-0.7-0.2c-0.2-0.2-0.3-0.5-0.3-0.8c-0.1-0.8,0-1.7-0.4-2.5c-0.2-0.4-0.5-0.7-0.7-1.1
					c-0.2-0.4-0.3-0.9,0-1.1c0.1-0.1,0.2-0.1,0.2-0.2c0.1-0.2-0.2-0.5-0.4-0.5c-0.6-0.2-1.3,0-1.9-0.5c-0.2-0.2-0.3-0.3-0.4-0.5
					c-0.1-0.2-0.3-0.4-0.6-0.5c-0.3-0.1-0.7-0.4-0.9-0.7c-0.3-0.5-0.5-1-0.9-1.4c-0.1-0.1-0.3-0.2-0.4-0.4c-0.1-0.2-0.1-0.4-0.2-0.6
					c0-0.3-0.4-0.5-0.6-0.5c-0.2,0-0.5,0.1-0.7,0c-0.4-0.1-0.8-0.3-0.9-0.7c-0.1-0.4,0.1-0.8,0.5-0.8c0.2,0,0.4,0,0.5,0.1
					c0.8,0.1,1.6-0.4,2.4-0.1c0.2,0.1,0.4,0.2,0.6,0.3c0.7,0.3,1.4-0.1,2.1,0c0.2,0.1,0.4,0.2,0.4,0.4c0,0.3-0.3,0.4-0.5,0.6
					c-0.2,0.3,0,0.7,0.3,0.8s0.6,0.2,1,0.2c0.1,0,0.2,0,0.3-0.1c0.2-0.2-0.2-0.7,0-0.9c0.1-0.2,0.3-0.1,0.5-0.1
					c0.8,0.3,1.4,1.3,1,1.9c-0.2,0.3-0.4,0.5-0.7,0.7l-1.5,1c-0.3,0.2-0.2,0.7,0.2,0.9c0.4,0.2,0.9,0.3,1.2,0.6
					c0.1,0.2,0.2,0.4,0.4,0.5c0.4,0.4,0.9,0.5,1.5,0.6c0.6,0.1,1.2,0.4,1.7,0.8c0.3,0.2,0.3,0.5,0.3,0.8
					C711,574,709.5,574.8,709.2,576.2z"/>
			</g>
			<g>
				<path class="st8" d="M470.3,567.2L470.3,567.2c-0.3,0-0.5-0.1-0.7-0.4l-2.7-3.9c-0.2-0.2-0.4-0.4-0.7-0.4h-9.8
					c-0.3,0-0.5,0.1-0.6,0.4l-1.5,3.9c-0.1,0.2-0.3,0.4-0.6,0.4l0,0c-0.4,0-0.7,0.3-0.6,0.7l0.8,5.7c0.1,0.4,0.4,0.7,0.8,0.7h1.1
					l0.2,1.5c0.1,0.7,0.7,1.2,1.4,1.2h0c0.7,0,1.1-0.5,1-1.2l-0.2-1.5h9.6l0.2,1.5c0.1,0.7,0.7,1.2,1.4,1.2l0,0c0.7,0,1.1-0.5,1-1.2
					l-0.2-1.5h1.1c0.4,0,0.7-0.3,0.6-0.7l-0.8-5.7C471.1,567.5,470.7,567.2,470.3,567.2z M457.8,564.3h7.7c0.3,0,0.5,0.1,0.7,0.4
					l1,1.5c0.3,0.5,0.1,1.1-0.5,1.1h-9.2c-0.5,0-1-0.6-0.8-1.1l0.6-1.5C457.3,564.4,457.5,564.3,457.8,564.3z M456.8,572.3
					c-0.8,0-1.6-0.7-1.7-1.5c-0.1-0.8,0.5-1.5,1.3-1.5c0.8,0,1.6,0.7,1.7,1.5C458.2,571.6,457.6,572.3,456.8,572.3z M468.8,572.3
					c-0.8,0-1.6-0.7-1.7-1.5c-0.1-0.8,0.5-1.5,1.3-1.5c0.8,0,1.6,0.7,1.7,1.5C470.2,571.6,469.6,572.3,468.8,572.3z"/>
			</g>
			<g>
				<line class="st17" x1="453.5" y1="283.3" x2="522.5" y2="283.3"/>
				<line class="st17" x1="454.9" y1="288.8" x2="523.8" y2="288.8"/>
				<line class="st17" x1="455.8" y1="294.8" x2="496.3" y2="294.8"/>
			</g>
			<g>
				<line class="st17" x1="457.2" y1="317.2" x2="526.1" y2="317.2"/>
				<line class="st17" x1="458.5" y1="322.6" x2="527.5" y2="322.6"/>
				<line class="st17" x1="459.4" y1="328.7" x2="499.9" y2="328.7"/>
			</g>
			<g>
				<line class="st17" x1="462" y1="352.3" x2="530.9" y2="352.3"/>
				<line class="st17" x1="463.4" y1="357.7" x2="532.3" y2="357.7"/>
				<line class="st17" x1="464.2" y1="363.7" x2="504.7" y2="363.7"/>
			</g>
			<g>
				
					<ellipse transform="matrix(0.6819 -0.7315 0.7315 0.6819 -168.0748 470.4057)" class="st14" cx="456.8" cy="428.4" rx="11.8" ry="13.6"/>
				
					<ellipse transform="matrix(0.6819 -0.7315 0.7315 0.6819 -190.416 484.3291)" class="st14" cx="461.6" cy="461.1" rx="11.8" ry="13.6"/>
				
					<ellipse transform="matrix(0.6819 -0.7315 0.7315 0.6819 -213.6416 498.6372)" class="st14" cx="466.4" cy="494.9" rx="11.8" ry="13.6"/>
				<g>
					<line class="st18" x1="476.5" y1="421.2" x2="571" y2="421.2"/>
					<line class="st18" x1="478.4" y1="426.6" x2="572.8" y2="426.6"/>
					<line class="st18" x1="479.6" y1="432.7" x2="535.1" y2="432.7"/>
				</g>
				<g>
					<line class="st18" x1="480.1" y1="455" x2="580.5" y2="455"/>
					<line class="st18" x1="482.1" y1="460.5" x2="582.5" y2="460.5"/>
					<line class="st18" x1="483.4" y1="466.5" x2="542.4" y2="466.5"/>
				</g>
				<g>
					<line class="st18" x1="485" y1="490.1" x2="568.8" y2="490.1"/>
					<line class="st18" x1="486.6" y1="495.5" x2="570.4" y2="495.5"/>
					<line class="st18" x1="487.7" y1="501.6" x2="536.9" y2="501.6"/>
				</g>
			</g>
			
				<ellipse transform="matrix(0.6819 -0.7315 0.7315 0.6819 -32.6302 506.1545)" class="st16" cx="565.6" cy="290.6" rx="11.8" ry="13.6"/>
			
				<ellipse transform="matrix(0.6819 -0.7315 0.7315 0.6819 -55.8558 520.4625)" class="st16" cx="570.4" cy="324.4" rx="11.8" ry="13.6"/>
			
				<ellipse transform="matrix(0.6819 -0.7315 0.7315 0.6819 -79.0814 534.7706)" class="st16" cx="575.3" cy="358.3" rx="11.8" ry="13.6"/>
			<g>
				<line class="st17" x1="585.3" y1="283.3" x2="654.3" y2="283.3"/>
				<line class="st17" x1="586.7" y1="288.8" x2="655.6" y2="288.8"/>
				<line class="st17" x1="587.6" y1="294.8" x2="628.1" y2="294.8"/>
			</g>
			<g>
				<line class="st17" x1="589" y1="317.2" x2="657.9" y2="317.2"/>
				<line class="st17" x1="590.3" y1="322.6" x2="659.3" y2="322.6"/>
				<line class="st17" x1="591.2" y1="328.7" x2="631.7" y2="328.7"/>
			</g>
			<g>
				<line class="st17" x1="593.8" y1="352.3" x2="662.7" y2="352.3"/>
				<line class="st17" x1="595.2" y1="357.7" x2="664.1" y2="357.7"/>
				<line class="st17" x1="596" y1="363.7" x2="636.5" y2="363.7"/>
			</g>
			
				<ellipse transform="matrix(0.6819 -0.7315 0.7315 0.6819 -117.0728 621.8983)" class="st19" cx="656.4" cy="445.5" rx="17.1" ry="19.7"/>
			<path class="st19" d="M697.4,526.4h-52.8l-4.8-30.2c-2.1-14.9,8.3-26.9,23.2-26.9h0c14.9,0,28.6,12.1,30.7,26.9L697.4,526.4z"/>
		</g>
		<path class="st5" d="M1194.4,753.9c-1.1,5.9-2,13.2-2.9,20.8c-1.2,10.9-2.4,22.4-3.9,31c0,0,0,0.1,0,0.2c-0.3,1.7-1.7,3.4-3.9,5.1
			c-20.3,15.9-114,32-170.8,35.1c-5.7,0.3-11,0.5-15.8,0.5c-9,0.1-16.4-0.4-21.4-1.4c0,0,0,0,0,0c-1.5-0.3-2.8-0.7-3.9-1.1
			c0,0,0,0-0.1,0c0,0-0.1,0-0.1,0c0.1-0.5-0.2-0.3-0.5-0.1c-0.1,0.1-0.3,0.2-0.5,0.3c-0.3,0.1-0.6,0.2-0.8-0.1
			c-0.2-0.2-0.4-0.5-0.6-0.7c-14.4-15.5-27.8-32-41.1-48.5c-10.1-12.5-20.2-25.1-27.2-39.5c-8-16.7-16.9-56.7-24.9-85.3
			c-3.3-11.7,3.2-25,10.9-34.4c5.8-7.1,13-12.9,19.1-19.6c2-2.2,3.9-4.6,5.5-7.1c1-1.6,2.2-3.1,2.8-4.9c4.8-14.4,3.5-31.6,3.5-31.6
			c-0.5-3.1-1.3-6.2-2.3-9.2c-5.2-15.7-8.8-31.9-12-48.2c-1.3-6.9-2.6-13.8-3.9-20.8c-11.6-63.5-34.6-129-13.8-190.2
			c5.1-14.9,21.6-18.1,24.3-17.1c2.2,0.8,3.7,2.3,4.6,4.2c1.4,2.7,1.8,6.1,2,9.2c0.7,8.8,1.7,17.6,3,26.4c1.1,7.4,2.4,14.8,3.9,22.1
			c3.6,17.5,8.5,34.7,13.3,51.9c3.4,12.1,6.8,24.3,11.3,36.1c8.2,21.8,20,42.3,34.8,60.5c1.5,1.9,4.5,2.3,6.4,0.9
			c1.8-1.3,2.7-3.5,4.2-5.2c4.4-4.9,12-4.5,18.5-3.6c8.9,1.1,18.5,2.6,25,8.7c1.3,1.2,2.5,2.6,4,3.5c3.2,1.8,7.2,0.9,10.9,0.2
			c12.9-2.4,39.9,3.8,43,5.6c3.8,2.2,5.6,7.5,6.7,8.8c3.2,3.8,9.1,3.2,14.1,3c9.2-0.4,18.4,2,26.3,6.6c2.8,1.7,5.1,4,6.9,6.8
			c2,3,5.4,5.7,8.3,7c2.4,1.1,5,1.5,7.6,2.1c16,3.3,25.7,1.4,36.3,12.8C1219.8,574.1,1205.8,690.7,1194.4,753.9z"/>
		<path class="st5" d="M380.5,699.8c2.6-3,2.2,0.2,6.2,0c75.2-2.8,134.6,26.5,200.8,62.2c2.7,1.5,5.5,3.1,6.8,5.9
			c1.4,3,0.6,6.5-0.2,9.7c-8.4,33.2-27.7,114.8-36.1,148.1c-29.3,33-216.7-19-207.2-48.5C368.9,821.5,378.6,701.9,380.5,699.8z"/>
		<path class="st6" d="M594.2,777.3c-11.5,2.6-23.3,3.9-35.2,3.8c-6.4,0-12.8-0.4-19.1-1.3c-5.1-0.6-12.8-3.7-17.4-2.3
			c2,3.6,6.2,6,10.1,7.4c4.9,1.8,10.2,2.3,15.3,3c7.7,1.1,15.3,2.6,22.9,4.5c5.1,1.3,10.6,3.1,13.5,7.5c1.5,2.3,2.2,4.9,2.4,7.7
			L594.2,777.3z"/>
		<path class="st20" d="M668.3,485c5.2,2.9,13.1,1,18.2-2.1c11.7-7.1,24.2-16.9,35.1-15.7c1.5,0.2-2.4-12.6-2.2-14.1
			c0.2-2.1-1.8-4-4-4.3c-2.1-0.3-4.3,0.5-6.2,1.5c-10.3,5.2-18.8,14.6-30.2,16.4c-5.1,0.8-13.3-0.9-16.1,4.4
			C660.7,475.3,664.6,482.9,668.3,485z"/>
		<path class="st20" d="M651.4,387c5.2,2.9,13.1,1,18.2-2.1c11.7-7.1,31.5-16,44.7-19.3c4.8-1.2-12.1-9-11.9-10.4
			c0.2-2.1-1.8-4-4-4.3c-2.1-0.3-4.3,0.5-6.2,1.5c-10.3,5.2-18.8,14.6-30.2,16.4c-5.1,0.8-13.3-0.9-16.1,4.4
			C643.8,377.3,647.7,384.9,651.4,387z"/>
		<path class="st5" d="M744.5,449.3c-3.1,6.9-22.3,43.9-22.3,43.9l-3.5-26.4l-1.9-14.1c-0.8-0.2-0.7,0.1-1.4,0.5
			c-9.9,5.8-19.2,12.5-27.7,20.1c-3.2,2.8-6.3,5.7-10.2,7.4c-3.9,1.6-8.7,1.7-11.9-1c-4.8-4-3.7-11.7-1.4-17.5
			c5.7-14.2,46-63.3,54.5-66.4c4.4-1.6,9.5-2,13.7,0c2.3,1.1,4.2,2.8,5.9,4.6C747.6,410,754.8,426.6,744.5,449.3z"/>
		<path class="st5" d="M727.6,350.1c-0.5,7.6-20.5,37.2-20.5,37.2s-1.3-10.6-2.7-20.5c-0.5-3.5-1-6.9-1.4-9.7
			c-0.2-1.5-0.5-3.4-1.9-3.8c-0.1,0-0.1,0-0.2-0.1c-0.8-0.2-1.7,0.3-2.4,0.7c-9.9,5.8-19.2,12.5-27.7,20.1
			c-3.2,2.8-6.3,5.7-10.2,7.4c-3.9,1.6-8.7,1.7-11.9-1c-4.8-4-3.7-11.7-1.4-17.5c5.7-14.2,16.2-26,26.4-37.5
			c6-6.7,12.4-13.7,20.8-16.8c4.4-1.6,9.5-2,13.7,0c2.3,1.1,4.2,2.8,5.9,4.6C723.4,322.9,728.4,336.7,727.6,350.1z"/>
		<path class="st20" d="M694.2,565.8c3.7,2.5,8.5,3.1,12.9,2.3s8.5-2.7,12.4-4.9c1.6-0.9,3.2-1.9,5.1-2c3-0.2,5.5,2,7.7,4.1
			c1.2-3.2,1.1-6.7,0.7-10.1c-0.3-2.6-0.8-5.2-2.2-7.4c-1.4-2.2-3.7-3.9-6.3-3.9c-2.7,0-4.9,1.8-7.2,3.3c-4.8,3.1-10.6,4.9-16.3,5
			C691.8,552.5,682.7,558,694.2,565.8z"/>
		<path class="st5" d="M754.2,546c-0.5,7.6-18.1,40.8-18.1,40.8s-1.4-11.1-3.3-21.6l-2.8-13.5c-0.4-1.5-1.1-2.3-2.6-2.6
			c-0.3-0.1-0.7,0-1,0c-0.5,0.1-1,0.4-1.4,0.7c-9.9,5.8-17.1,8.9-21,10.5c-3.9,1.6-8.7,1.7-11.9-1c-4.8-4-3.7-11.7-1.4-17.5
			c5.7-14.2,21.8-34.3,30.3-37.4c4.4-1.6,9.5-2,13.7,0c2.3,1.1,4.2,2.8,5.9,4.6C750,518.8,755,532.5,754.2,546z"/>
		<g>
			<g>
				<path class="st21" d="M725.5,550.6c0.1,0,0.1-0.1,0-0.1C725.4,550.5,725.4,550.6,725.5,550.6L725.5,550.6z"/>
			</g>
		</g>
		<path class="st6" d="M726.9,450.2c-0.8,3.9-2.1,7.7-3.8,11.3c-1,2.1-2.4,4-4.4,5.2l-1.9-14.1c0-1.2,2.4-2.1,5.7-4.5
			c0.6-0.4,1.2-0.9,2-1.1c0.7-0.2,1.6-0.1,2.1,0.4C727.2,448.1,727.1,449.3,726.9,450.2z"/>
		<path class="st6" d="M736.3,560.7c-0.8,1.7-2,3.4-3.5,4.6l-2.8-13.5c-0.4-1.5-1.1-2.3-2.6-2.6c-0.3-0.1-0.7,0-1,0
			c1-1.2,1.8-1,7.2-3.5C744.5,540.9,738.1,557.1,736.3,560.7z"/>
		<path class="st6" d="M710.6,354.1c-0.7,3.2-1.7,6.3-3.2,9.3c-0.8,1.7-1.2,3.6-2.8,4.6l-0.3-1.1c-0.5-3.5-1-6.9-1.4-9.7
			c-0.2-1.5-0.5-3.4-1.9-3.8c0.2-0.9,8.8-2,9.2-1.5C710.8,352.4,710.7,353.3,710.6,354.1z"/>
		<path class="st5" d="M1017.9,1011.6c-1.6-5.4-3.7-14.3-6.5-26c-5.9-24.5-14.8-61.7-28.9-106.2c-3.5-11.1-7.4-22.7-11.6-34.6
			c-0.1-0.2-0.2-0.5-0.2-0.7c0-0.1-0.1-0.3-0.1-0.4c-5.4-23.4,75.9-44.7,100.1-46.8c55.4-4.8,99.7,3.2,112.9,7.3
			c2.5,0.8,3.9,1.4,4,1.8c0,0,0,0,0,0c1.2,7.6,2.5,15,3.8,22c8,42.2,17.8,75.1,26.9,116.8c2.5,11.3,4.9,23.2,7.2,36.2
			C1231.1,1012.6,1031.2,1055.2,1017.9,1011.6z"/>
		<path class="st6" d="M1012.9,846c0.1,1.7-0.8,3.5-2.1,4.6c-1.6,1.4-3.7,2.2-5.7,2.9c-7,2.4-14.9,5.9-17.1,13
			c-1.1,3.6-0.5,7.8-2.6,10.9c-0.5,0.7-1.1,1.3-1.8,1.7c-0.4,0.2-0.8,0.3-1.1,0.3c-3.5-11.1-7.4-22.7-11.6-34.6
			c-0.1-0.2-0.2-0.5-0.2-0.7c-0.3,0.1-0.6,0.2-0.8-0.1c-0.2-0.2-0.4-0.5-0.6-0.7c0.4,0.1,0.9,0.2,1.3,0.3c0.2,0,0.4,0.1,0.6,0.2
			c0.2,0.1,0.4,0.1,0.6,0.2c0,0,0,0,0.1,0c1.3,0.4,2.6,0.8,3.9,1.1c0,0,0,0,0,0c2.4,0.7,4.4,1.3,5.7,1.4c5.2,0.5,10.4,0.4,15.7,0
			c5.2-0.4,10.4-1,15.6-1.6C1012.8,845.3,1012.9,845.6,1012.9,846z"/>
		<path class="st22" d="M695.3,543.3c-0.9,2.7-1.4,6,0.6,7.9c1.1,1,2.8,1.3,4.3,1.2c2.9-0.3,5.4-1.9,7.8-3.6
			c1.8-1.2,3.6-2.4,5.3-3.6c0.9-0.6,1.7-1.2,2.3-2.1c1-1.6,0.5-3.8-0.6-5.3c-1.1-1.5-2.8-2.6-4.4-3.5c-3.8-2.3-6.6-5.9-9.8-1.8
			C698.4,535.7,696.6,539.6,695.3,543.3z"/>
		<path class="st22" d="M666.3,465.9c-0.9,2.7-1.4,6,0.6,7.9c1.1,1,2.8,1.3,4.3,1.2c2.9-0.3,5.4-1.9,7.8-3.6
			c1.8-1.2,3.6-2.4,5.3-3.6c0.9-0.6,1.7-1.2,2.3-2.1c1-1.6,0.5-3.8-0.6-5.3c-1.1-1.5-2.8-2.6-4.4-3.5c-3.8-2.3-6.6-5.9-9.8-1.8
			C669.4,458.3,667.6,462.2,666.3,465.9z"/>
		<path class="st22" d="M650.6,363.6c-1,2.9-1.6,6.5,0.7,8.6c1.2,1.1,3,1.5,4.6,1.3c3.1-0.3,5.9-2.1,8.5-3.9
			c1.9-1.3,3.8-2.6,5.8-3.9c0.9-0.6,1.9-1.3,2.5-2.2c1.1-1.8,0.6-4.1-0.6-5.8c-1.2-1.7-3-2.8-4.8-3.8c-4.1-2.5-7.2-6.5-10.5-2
			C654,355.3,652.1,359.5,650.6,363.6z"/>
		<path class="st22" d="M896.1,327.8c-1.4,0.1-3.1,0-3.8-1.2c-0.4-0.7-0.2-1.6-0.1-2.4c2.1-10.3,4.5-21.2,11.9-28.7
			c1.1-1.1,2.4-2.1,3.9-1.9c2.4,0.3,2.6,2.1,3.5,4.4c2.1,5.8,1.7,20.5,2.3,22.2C916.9,328,901.1,327.4,896.1,327.8z"/>
		<path class="st20" d="M494.4,659.4h-33.9c-2.5-2.3-4.4-5.2-6.3-8.1c-1-1.5-1.9-3.1-2.9-4.6c-9-14.3-17.7-28.8-24.7-44.1l0,0
			c-0.7-1.5-1.4-3.1-2.1-4.7c-6.3-14.6-11.1-29.9-15.7-45.1l-18.5-183.6c21.4,7.2,35.1,104,49.6,159.6
			C443.5,542.9,497.9,613.4,494.4,659.4z"/>
		<path class="st5" d="M484,678.5c0,49.9-23.5,101.4-94.2,62.2c-15.4-8.5-24-26-30.2-42.3c-7.8-20.6-9.9-42.9-10.2-64.9
			c-0.3-31.8,5-63.2,10.1-94.6c7.3-44,3.2-92.1-2.4-128.2c-2.8-17.8-5.9-32.6-8.2-42.6c-0.1-0.4-0.1-0.8-0.1-1.2
			c0-2.2,1.4-4.1,3.5-4.9c10.9-3.8,24,0.6,32.5,8.8c9.7,9.3,14.6,22.3,18.8,35c13.6,41.2,21,128.5,45.9,164
			C472.5,602.5,484,662.6,484,678.5z"/>
		<path class="st22" d="M368,409.8c-0.5,0.5-1.3,0.6-2,0.7c-4.4,0.6-7,1-8.9,0.3c-2.8-17.8-5.9-32.6-8.2-42.6
			c-0.1-0.4-0.1-0.8-0.1-1.2c0.9-0.3,2-0.2,2.9,0.1c1.4,0.6,2.5,1.8,3.4,3c8.1,10.4,10.8,23.7,13.4,36.5
			C368.7,407.7,368.8,409,368,409.8z"/>
		<g>
			<defs>
				<path id="SVGID_1_" d="M378.8,184.4L429,603.8c0,0,313.5-1.2,312-1.2c-1.5,0-59.6-420.3-60-418.1
					C680.5,186.6,378.8,184.4,378.8,184.4z"/>
			</defs>
			<clipPath id="SVGID_2_">
				<use xlink:href="#SVGID_1_"  style="overflow:visible;"/>
			</clipPath>
			<g style="clip-path:url(#SVGID_2_);">
				
					<image style="overflow:visible;" width="1500" height="1500" xlink:href="3045DEEF360EDB52.png"  transform="matrix(0.2902 0 0 0.2902 364.8725 167.2603)">
				</image>
			</g>
		</g>
	</g>
</g>
</svg>
