<?xml version="1.0" encoding="utf-8"?>
<!-- Generator: Adobe Illustrator 22.0.0, SVG Export Plug-In . SVG Version: 6.00 Build 0)  -->
<svg version="1.1" id="Layer_1" xmlns="http://www.w3.org/2000/svg" xmlns:xlink="http://www.w3.org/1999/xlink" x="0px" y="0px"
	 viewBox="0 0 1500 1125" style="enable-background:new 0 0 1500 1125;" xml:space="preserve">
<style type="text/css">
	.st0{display:none;}
	.st1{fill:#161D20;}
	.st2{fill:#84695F;}
	.st3{fill:#7C6259;}
	.st4{opacity:0.3;fill:url(#SVGID_1_);enable-background:new    ;}
	.st5{fill:#4A4A4A;}
	.st6{fill:#F1CBB2;}
	.st7{fill:#535353;}
	.st8{fill:#D8A38F;}
	.st9{fill:#EABFA7;}
	.st10{opacity:0.4;fill:url(#SVGID_2_);enable-background:new    ;}
	.st11{fill:#F7D9C9;}
	.st12{fill:#24272A;}
	.st13{fill:#E5B59E;}
	.st14{opacity:0.2;fill:url(#SVGID_3_);enable-background:new    ;}
	.st15{fill:#383838;}
	.st16{fill:#B7B7B7;}
	.st17{fill:#636363;}
	.st18{fill:#F8E5DC;}
	.st19{fill:#775D55;}
	.st20{fill:#96756B;}
	.st21{fill:#43464A;}
	.st22{fill:#282828;}
	.st23{fill:#E8E8E8;}
</style>
<g id="Layer_1_1_" class="st0">
	
		<image style="display:inline;overflow:visible;enable-background:new    ;" width="536" height="435" xlink:href="../../personalProjects/motionPersonal/2018_Spring/MINIREELCUT_SPRING_2018/introIllust.jpg"  transform="matrix(1.5373 0 0 1.5373 87 132)">
	</image>
</g>
<g id="Layer_2_1_">
	<rect x="-1" y="-1" class="st1" width="1501" height="1126"/>
	<g>
		<path class="st2" d="M1078.2,528.8c4.2-2.1,4.8-8.1,2.8-12.4c-2-4.3-5.7-7.4-8.8-10.9c-3.1-3.5-5.8-8-4.9-12.6
			c1.5-7.5,11.5-10.6,13.7-17.9c1.6-5.5-1.7-11.2-5.6-15.3c-3.9-4.2-8.6-7.9-10.6-13.3c-2.1-5.5-0.8-11.8,1.7-17
			c2.6-5.3,6.4-9.8,10-14.5c8.7-11.6,15.7-26.1,12.1-40.1c-1.1-4.1-3-8-5-11.8c-12.3-23.5-48.4-82-77.3-109.3
			c-17.5-16.5-41.8-30.8-65.7-33.5c-9.4-1.1-18.9-0.7-28,1.7c-23.6,6.4-40.9,25.9-56.7,44.5c-15.2-3.8-32,2.5-43.1,13.5
			s-17.8,25.7-22.9,40.5c-7.9,22.5-13,46-15.2,69.8c-1.4,15.4-0.8,32.9,10.3,43.6c5.4,5.2,13.4,9.4,13.5,16.9
			c0.1,6.7-6.5,11.3-9.8,17.1c-4.2,7.2-3,17,2.7,23c4.5,4.6,12.4,6.2,14,12.5c0.8,2.8-0.8,5.8-2.6,8.1c-3.2,4.2-7.5,7.5-10.2,12.1
			c-2.6,4.6-3.1,11.2,1,14.5c3.6,3,9.7,2.6,12,6.7c1.1,1.8,2,4.1,1.5,6.2c-4.8,19.1,1.4,30.9,41.6,40.5c33.2,8,93.4,27.9,176.8,9.6
			c51.4-11.3,32.1-25.7,42-35.6c3.3-3.3,7.6-5.5,9.5-9.8c1.3-3,1.9-6.6,0.4-9.6c-1-2.1-3-3.6-4.2-5.5
			C1070.7,536.2,1073.8,531.1,1078.2,528.8z"/>
		<g>
			<path class="st3" d="M1015.2,463.4c-3.8,10.6-13.6,16.5-16.3,27.4c-2,7.9,1.3,16.2,1.8,24.4c0.7,10.7-3.9,21.8-12.2,28.6
				c-8.4,6.8-20.5,8.8-30.4,4.7c-2.7-1.1-5.2-2.6-8-3.4c-3.2-0.8-6.5-0.6-9.8-0.4c-17.5,1.1-34.9,2.2-52.4,3.3
				c-6.8,0.4-27.1,7.1-32.4,2.8c-3.9-3.1-5.7-8-7.4-12.6c-4.9-14.3,4.1-35.4,1.3-50.2c-1.2-6.3-2.2-12.8-4.6-18.7
				c-3.3-8.2-9.1-15.1-13.5-22.7c-2.2-3.8-4.1-8.2-2.9-12.3c1.5-5.2,7-7.9,12.1-9.5c17.9-5.8,37.1-6.3,55.9-6.7
				c28.5-0.6,93.6-13.9,122-10.5C1025.3,408,1021.6,445.8,1015.2,463.4z"/>
			
				<linearGradient id="SVGID_1_" gradientUnits="userSpaceOnUse" x1="922.1738" y1="602.8147" x2="924.8082" y2="687.996" gradientTransform="matrix(1 0 0 -1 0 1126)">
				<stop  offset="0" style="stop-color:#96756B"/>
				<stop  offset="0.5" style="stop-color:#84675E"/>
				<stop  offset="1" style="stop-color:#775D55"/>
			</linearGradient>
			<path class="st4" d="M1015.2,463.4c-3.8,10.6-13.6,16.5-16.3,27.4c-2,7.9,1.3,16.2,1.8,24.4c0.7,10.7-3.9,21.8-12.2,28.6
				c-8.4,6.8-20.5,8.8-30.4,4.7c-2.7-1.1-5.2-2.6-8-3.4c-3.2-0.8-6.5-0.6-9.8-0.4c-17.5,1.1-34.9,2.2-52.4,3.3
				c-6.8,0.4-27.1,7.1-32.4,2.8c-3.9-3.1-5.7-8-7.4-12.6c-4.9-14.3,4.1-35.4,1.3-50.2c-1.2-6.3-2.2-12.8-4.6-18.7
				c-3.3-8.2-9.1-15.1-13.5-22.7c-2.2-3.8-4.1-8.2-2.9-12.3c1.5-5.2,7-7.9,12.1-9.5c17.9-5.8,37.1-6.3,55.9-6.7
				c28.5-0.6,93.6-13.9,122-10.5C1025.3,408,1021.6,445.8,1015.2,463.4z"/>
		</g>
		<path class="st5" d="M707.4,604.1c-12.4,15.9-23.5,41.7-28.9,61.1c-8,28.9-22.5,54.6-27.3,85.2c37.7,15.2,86.9,20.4,129,19.6
			c6.3-0.1,11.6-4.9,12.2-11.2c4.3-44.7-19-179.8-34.3-182.4C741.9,573.5,716,593.1,707.4,604.1z"/>
		<path class="st6" d="M666.5,843.9c36.1,2.8,124.5-2,92.3-2c-4.8,0,6.9-56.3,12.9-82c0.2-1.1-90-14.5-90-14.5
			S669.5,826.7,666.5,843.9z"/>
		<path class="st7" d="M752,843.6c21-85.9,21.5-176.5,1.4-262.7c-0.4-1.6-0.7-3.4,0.3-4.7c0.6-0.8,1.6-1.1,2.5-1.5
			c33-12.8,66-25.5,99-38.3c11.4-4.4,22.9-8.8,34.8-11.5c36.2-8,74.2,1,108.5,14.9c34.4,13.9,66.6,32.8,101.4,45.7
			c-42,78-21.8,239.6-21.1,258L752,843.6L752,843.6z"/>
		<path class="st6" d="M1139.4,826.5c0.6,1.7,35.6,11.4,64.7,10.6c22.4-0.6,38.6-6.4,51.4-16.1c-29.2-30.8-54.7-72.1-73.3-110.2
			c-25.7,5.8-52.9,20.6-71.6,39.1c-10.7,10.6-9.9,15.7-1.9,27.7C1117.3,790.5,1134.2,812.9,1139.4,826.5z"/>
		<path class="st5" d="M1197.9,722.5c-26.7,31.1-59.1,59.6-98.7,70.2c-3.6,1-7.5,1.7-10.9,0.1c-2.1-1-3.7-2.9-5.1-4.7
			c-18.1-22.6-30.8-49.6-36.7-77.9c-9-43.7,12.3-89.5,44.5-121c3-3,7.7-3.5,11.3-1.3c6.5,3.9,16.4,10.2,21.1,16.4
			c21.8,28.3,42.9,57.3,63.1,86.8c5.9,8.6,11.9,17.5,15.1,27.4C1199.2,720.2,1199.8,720.3,1197.9,722.5z"/>
		<g>
			<path class="st6" d="M846.5,401.1c3.3,12.6,13.9,40.8,4.7,43.3c-9.2,2.4-34.7-21.9-38-34.5s1.4-24.8,10.6-27.3
				C833,380.2,843.2,388.5,846.5,401.1z"/>
			<path class="st8" d="M820.6,406.9c-0.4-4-0.6-10.2,3.2-12.7c3.9-2.6,6.7,0.2,9.7,2.4c0.5,0.4,1.3-0.1,1.2-0.7
				c-0.3-5.2-7.1-6.7-11.1-4.7c-6,3-5.4,10.5-3.3,15.7C820.4,407.1,820.6,407.1,820.6,406.9L820.6,406.9z"/>
		</g>
		<g>
			<path class="st9" d="M956,564.9c-21.4,11.6-47,13.5-69.4,0.2c-5.5-3.2-8.8-9.2-8.8-15.6v-77.3h87.6V549
				C965.4,555.7,961.8,561.8,956,564.9z"/>
			
				<linearGradient id="SVGID_2_" gradientUnits="userSpaceOnUse" x1="918.7656" y1="560.3629" x2="923.5876" y2="653.5846" gradientTransform="matrix(1 0 0 -1 0 1126)">
				<stop  offset="0" style="stop-color:#FFFFFF"/>
				<stop  offset="0.2928" style="stop-color:#D4CBC8"/>
				<stop  offset="0.6225" style="stop-color:#A9968F"/>
				<stop  offset="0.8682" style="stop-color:#8E756C"/>
				<stop  offset="1" style="stop-color:#84695F"/>
			</linearGradient>
			<path class="st10" d="M956,564.9c-21.4,11.6-47,13.5-69.4,0.2c-5.5-3.2-8.8-9.2-8.8-15.6v-77.3h87.6V549
				C965.4,555.7,961.8,561.8,956,564.9z"/>
		</g>
		<path class="st6" d="M994.1,407.6c-3.3,12.6-13.9,40.8-4.7,43.3c9.2,2.4,34.7-21.9,38-34.5c3.3-12.6-1.4-24.8-10.6-27.3
			S997.4,394.9,994.1,407.6z"/>
		<path class="st11" d="M1006.4,372.6c0,18-6.2,82.9-16.6,96.5c-15.8,20.4-38.1,45-66.9,45c-26.3,0-46.7-22.3-62.6-39.8
			c-13.1-14.4-21-81.3-21-101.7c0-45.3,35.6-82,83.6-82S1006.4,327.4,1006.4,372.6z"/>
		<path class="st12" d="M891.8,384.9c-0.9-0.9-1.9-1.8-3-2.2c-2.5-1-5.2,0.1-7.5,1.4c-2.1,1.1-4.1,2.3-6,3.7
			c-0.8,0.5-1.5,1.1-1.9,1.9c-0.5,1.2,0,2.7,0.9,3.6s2.2,1.4,3.5,1.8c3.9,1.2,8.1,1.5,12.2,1c1.4-0.2,2.8-0.4,4-1.1
			C899,392.2,894.6,387.5,891.8,384.9z"/>
		<path class="st12" d="M953.1,384.9c0.9-0.9,1.9-1.8,3-2.2c2.5-1,5.2,0.1,7.5,1.4c2.1,1.1,4.1,2.3,6,3.7c0.8,0.5,1.5,1.1,1.9,1.9
			c0.5,1.2,0,2.7-0.9,3.6s-2.2,1.4-3.5,1.8c-3.9,1.2-8.1,1.5-12.2,1c-1.4-0.2-2.8-0.4-4-1.1C945.9,392.2,950.3,387.5,953.1,384.9z"
			/>
		<g>
			<path class="st13" d="M921.1,375.5l-14.5,52.7c-0.9,3.3,0.3,6.8,3.1,8.8l4.7,3.4c5,3.7,11.8,3.8,17,0.3l5.6-3.8
				c3-2,4.3-5.7,3.3-9.2l-15.7-52.4C924.1,373.7,921.6,373.8,921.1,375.5z"/>
			
				<linearGradient id="SVGID_3_" gradientUnits="userSpaceOnUse" x1="924.0665" y1="728.0432" x2="923.2629" y2="684.6468" gradientTransform="matrix(1 0 0 -1 0 1126)">
				<stop  offset="0" style="stop-color:#FFFFFF"/>
				<stop  offset="0.4336" style="stop-color:#F2DACE"/>
				<stop  offset="0.8021" style="stop-color:#E9BFAB"/>
				<stop  offset="1" style="stop-color:#E5B59E"/>
			</linearGradient>
			<path class="st14" d="M921.1,375.5l-14.5,52.7c-0.9,3.3,0.3,6.8,3.1,8.8l4.7,3.4c5,3.7,11.8,3.8,17,0.3l5.6-3.8
				c3-2,4.3-5.7,3.3-9.2l-15.7-52.4C924.1,373.7,921.6,373.8,921.1,375.5z"/>
		</g>
		<path class="st15" d="M1080.6,896.6H737.7c-5.2,0-9.4-4.2-9.4-9.4V877c0-5.2,4.2-9.4,9.4-9.4h342.9c5.2,0,9.4,4.2,9.4,9.4v10.2
			C1089.9,892.4,1085.7,896.6,1080.6,896.6z"/>
		<path class="st16" d="M707.8,782.5H308.4c-4.2,0-7.6-3.4-7.6-7.6V515.2c0-4.2,3.4-7.6,7.6-7.6h399.5c4.2,0,7.6,3.4,7.6,7.6v259.6
			C715.4,779.1,712,782.5,707.8,782.5z"/>
		<g>
			<path class="st17" d="M464.7,609.7c-2.2,0-4-1.8-4-4v-36.2c0-2.2,1.8-4,4-4s4,1.8,4,4v36.2C468.7,607.9,466.9,609.7,464.7,609.7z
				"/>
			<path class="st17" d="M493.6,609.7c-2.2,0-4-1.8-4-4v-36.2c0-2.2,1.8-4,4-4s4,1.8,4,4v36.2C497.7,607.9,495.9,609.7,493.6,609.7z
				"/>
			<path class="st17" d="M522.6,609.7c-2.2,0-4-1.8-4-4v-36.2c0-2.2,1.8-4,4-4s4,1.8,4,4v36.2C526.6,607.9,524.8,609.7,522.6,609.7z
				"/>
			<path class="st17" d="M551.4,609.7L551.4,609.7c-2.2,0-4-1.8-4-4l0.2-36.2c0-2.2,1.8-4,4-4l0,0c2.2,0,4,1.8,4,4l-0.2,36.2
				C555.4,607.9,553.6,609.7,551.4,609.7z"/>
		</g>
		<path class="st2" d="M899.2,213.1c-21,6.3-43.9,30.6-43.8,53.6c0,1.5,2.1,1.7,2.5,0.3c3.8-11.1,6.2-21.5,13.3-31.2
			C878.6,225.8,888.3,219,899.2,213.1C899.3,213.2,899.3,213.1,899.2,213.1L899.2,213.1z"/>
		<path class="st18" d="M984.1,843.8c-0.3-0.1-0.7-0.3-1-0.4c0-0.1,0-0.1,0-0.2C983.4,843.5,983.8,843.7,984.1,843.8z"/>
		<path class="st18" d="M984.1,843.8c-0.3-0.1-0.7-0.3-1-0.4c0-0.1,0-0.1,0-0.2C983.4,843.5,983.8,843.7,984.1,843.8z"/>
		<path class="st19" d="M899.3,369.7c-12.1-5.1-25.9-3.8-34.4,10.7c-0.3,0.5,0.1,1.3,0.5,1c2.8-2.4,5.5-6.1,8.7-7.5
			c3.3-1.4,7.6-0.7,11.1-0.6c4.9,0.2,10,1.3,14.2-2.8C899.6,370.3,899.5,369.8,899.3,369.7L899.3,369.7z"/>
		<path class="st19" d="M948.5,369.7c12.1-5.1,25.9-3.8,34.4,10.7c0.3,0.5-0.1,1.3-0.5,1c-2.8-2.4-5.5-6.1-8.7-7.5
			c-3.3-1.4-7.6-0.7-11.1-0.6c-4.9,0.2-10,1.3-14.2-2.8C948.2,370.3,948.2,369.8,948.5,369.7L948.5,369.7z"/>
		<path class="st2" d="M1021.6,445.8c3.7-9.2,1.6-46.6-20.9-53c-20.1-5.8-41.3-34.5-48.2-51.4c-2.2-5.4-3.7-10-6.5-15.1
			c-11.6-21.3-38.9-34.3-62.3-27.6c3.1-6.1,6.4-12.4,10.9-17.6c5.5-6.2,12-11.6,19.5-15c10.9-4.9,23.3-5.3,35.1-3.5
			c20.2,3.2,39.4,12.8,53.9,27.2c14.5,14.4,29,34.5,35.3,54C1063.8,421.2,1021.4,446.2,1021.6,445.8z"/>
		<path class="st20" d="M872.9,281.7c18.5-11.8,42.9-18.8,61-2.4c14.5,13.2,19.8,33.1,28.6,49.9c15.3,29.3,46.7,47.2,79.7,40.5
			c2-0.4,1.5-3.6-0.5-3.6c-18.9,0.7-39-5.1-53.7-17.2c-16.3-13.4-22.6-32.8-32.6-50.6c-7.7-13.7-19.2-27.5-35.2-31.4
			C902.8,262.9,885.8,270.8,872.9,281.7C872.8,281.7,872.8,281.8,872.9,281.7L872.9,281.7z"/>
		<path class="st21" d="M1224.1,849.2H226c-2.7,0-4.8-2.2-4.8-4.8s2.2-4.8,4.8-4.8h998.1c2.7,0,4.8,2.2,4.8,4.8
			S1226.8,849.2,1224.1,849.2z"/>
		<path class="st22" d="M874,861.7l-15,11.9c-2.1,1.4-4.8-0.7-4.1-3.1l7.9-18l67.5-82.9c2.5-3.1,7.1-3.6,10.2-1l0,0
			c3.1,2.5,3.6,7.1,1,10.2L874,861.7z"/>
		<path class="st11" d="M1272.3,873.3c-7.9,12.7-21.5,21-35.8,25.1c-14.3,4.2-29.4,4.3-44.3,4.4c-69.9,0.8-168.1-17.9-201.5-24.8
			c-6.5-1.3-13.3-1-19.8,0.5c-0.2,0.1-0.5,0.1-0.7,0.1c-22.3,4.1-63.6,8.2-71.6,3.4c-9.7-5.9-27.3-50.3-22.5-68.8
			c0.7-2.6,1.4-5.2,2.9-7.4c2.3-3.5,6.5-5.5,10.6-6c4.2-0.6,8.4,0.1,12.5,1.1c15.9,3.9,30.5,12,44.6,20.2c5.8,3.4,14,8.4,21.1,12.8
			c9.5,5.9,20.9,7.9,31.8,5.6c35.7-7.4,117.6-25,163.7-34.6c14.7-3.1,29.5-6.2,44.4-5.9c15,0.2,30.4,4.1,42,13.5
			C1257.5,818.9,1280.2,860.6,1272.3,873.3z"/>
		<path class="st23" d="M545.9,895.8h-75.5v-216c0-19.6,15.9-35.5,35.5-35.5h4.5c19.6,0,35.5,15.9,35.5,35.5V895.8z"/>
		
			<ellipse transform="matrix(0.1602 -0.9871 0.9871 0.1602 -250.4306 1077.6541)" class="st16" cx="508.1" cy="686" rx="17.7" ry="17.7"/>
		<path class="st16" d="M589.3,911.9H426.9c-4.4,0-8-3.6-8-8l0,0c0-4.4,3.6-8,8-8h162.3c4.4,0,8,3.6,8,8l0,0
			C597.3,908.3,593.7,911.9,589.3,911.9z"/>
	</g>
</g>
</svg>
