<?xml version="1.0" encoding="utf-8"?>
<!-- Generator: Adobe Illustrator 22.0.0, SVG Export Plug-In . SVG Version: 6.00 Build 0)  -->
<svg version="1.1" id="Layer_1" xmlns="http://www.w3.org/2000/svg" xmlns:xlink="http://www.w3.org/1999/xlink" x="0px" y="0px"
	 viewBox="0 0 550 540" style="enable-background:new 0 0 550 540;" xml:space="preserve">
<style type="text/css">
	.st0{display:none;}
	.st1{opacity:0.1;fill:#F7F7F7;}
</style>
<g id="Layer_1_1_" class="st0">
	
		<image style="display:inline;overflow:visible;enable-background:new    ;" width="536" height="435" xlink:href="../../personalProjects/motionPersonal/2018_Spring/MINIREELCUT_SPRING_2018/introIllust.jpg"  transform="matrix(1.5373 0 0 1.5373 -72.1048 -328.4778)">
	</image>
</g>
<path class="st1" d="M331.2,106.8c-22.9,0-51.3,14.2-72.1,43.7v288.2c0,34.9,13.1,45.9,67.7,51.3v37.1H60.5V490
	c54.6-5.5,66.6-16.4,66.6-51.3V167.9c0-25.1-8.7-33.9-30.6-33.9h-36v-32.8l151.8-88.4h47v68.8c36-41.5,89.5-68.8,139.8-68.8
	c60,0,90.6,31.7,90.6,76.4s-29.5,71-64.4,71C368.4,160.3,367.3,106.8,331.2,106.8z"/>
</svg>
