<?xml version="1.0" encoding="utf-8"?>
<!-- Generator: Adobe Illustrator 21.0.2, SVG Export Plug-In . SVG Version: 6.00 Build 0)  -->
<svg version="1.1" xmlns="http://www.w3.org/2000/svg" xmlns:xlink="http://www.w3.org/1999/xlink" x="0px" y="0px"
	 viewBox="0 0 1500 1125" style="enable-background:new 0 0 1500 1125;" xml:space="preserve">
<style type="text/css">
	.st0{display:none;}
	.st1{display:inline;}
	.st2{fill:#E6E6E6;}
	.st3{fill:#808080;}
	.st4{fill:none;stroke:#666666;stroke-width:2;stroke-miterlimit:10;}
	.st5{fill:#F0F0F0;}
	.st6{fill:#CCCCCC;}
</style>
<g id="Layer_1" class="st0">
	<g id="signsWorking4.psd_1_" class="st1">
		
			<image style="overflow:visible;" width="1920" height="1080" id="signsWorking4" xlink:href="D9FF79E974DD6AE9.jpg"  transform="matrix(0.7278 0 0 0.7278 51.3333 169.5)">
		</image>
	</g>
</g>
<g id="Layer_3">
	<rect class="st2" width="1500" height="1125"/>
	<rect x="217" y="910" transform="matrix(-1 -1.100961e-10 1.100961e-10 -1 704 1840)" class="st3" width="270" height="20"/>
</g>
<g id="Layer_2">
	<circle class="st4" cx="-61" cy="-384" r="0"/>
	<g>
		<rect x="69" y="550" class="st3" width="27.8" height="6"/>
		<g>
			<polygon class="st3" points="93.3,565 114,553 93.3,541 			"/>
		</g>
	</g>
	<g>
		<rect x="1392" y="550" class="st3" width="27.8" height="6"/>
		<g>
			<polygon class="st3" points="1416.3,565 1437,553 1416.3,541 			"/>
		</g>
	</g>
	<g>
		<rect x="138.5" y="272" class="st5" width="1223" height="589"/>
		<path class="st6" d="M1000,272.5l-120,493l481.5-0.4c0,0,0-492.1,0-493.1L1000,272.5z"/>
		<rect x="245.9" y="400.5" class="st6" width="560.6" height="45.5"/>
		<rect x="245.5" y="468" class="st6" width="524.8" height="45"/>
		<rect x="245" y="567" class="st6" width="569.5" height="14"/>
		<rect x="245.5" y="596.6" class="st6" width="569" height="13.9"/>
		<rect x="245.5" y="626.1" class="st6" width="513.4" height="13.9"/>
		<path class="st5" d="M1166.9,530l47.8-47.8c1.8-1.8,1.8-4.6,0-6.4c-1.8-1.8-4.6-1.8-6.4,0l-47.8,47.8l-47.8-47.8
			c-1.8-1.8-4.6-1.8-6.4,0c-1.8,1.8-1.8,4.6,0,6.4l47.8,47.8l-47.8,47.8c-1.8,1.8-1.8,4.6,0,6.4c0.9,0.9,2,1.3,3.2,1.3
			s2.3-0.4,3.2-1.3l47.8-47.8l47.8,47.8c0.9,0.9,2,1.3,3.2,1.3s2.3-0.4,3.2-1.3c1.8-1.8,1.8-4.6,0-6.4L1166.9,530z"/>
		<path class="st3" d="M1359.5,865.5h-1219c-3.6,0-6.5-2.9-6.5-6.5V274c0-3.6,2.9-6.5,6.5-6.5h1219c3.6,0,6.5,2.9,6.5,6.5v585
			C1366,862.6,1363.1,865.5,1359.5,865.5z M143,856.5h1214v-580H143V856.5z"/>
		<g>
			<path class="st3" d="M208.9,406.2v11.4c0.9-1.6,2.5-2.9,5.4-2.9c3.7,0,5.9,2.4,5.9,7.2v16.6h-4.7V423c0-2.5-0.5-4.1-3.1-4.1
				c-2.6,0-3.5,2.1-3.5,5.6v14.2h-4.7v-32.4H208.9z"/>
			<path class="st3" d="M227,438.6V414c-0.8,0.3-2.7,0.5-3.6,0.5v-3.6c2.1-0.4,4.2-1.5,5.1-2.4h3.2v30.1H227z"/>
		</g>
		<g>
			<path class="st3" d="M212.1,596.1V571c0-3.2,0-5.3,0-6.8h4.6c0.1,0.5,0.1,1.8,0.1,2.8c0.8-1.7,2.2-3.2,5.4-3.2
				c4.4,0,6.8,3.8,6.8,11.8c0,8.9-3,12.5-7.5,12.5c-2.6,0-3.9-1.1-4.6-2.5v10.5H212.1z M220.4,567.8c-3,0-3.7,2.9-3.7,7.8
				c0,5.4,0.4,8.4,3.6,8.4c2.6,0,3.9-2.9,3.9-8.2C224.2,570.1,223,567.8,220.4,567.8z"/>
		</g>
		<rect x="141" y="753" class="st3" width="1220" height="107.5"/>
		<rect x="246.5" y="802" class="st5" width="370" height="20"/>
		<rect x="969.5" y="802" class="st5" width="275" height="20"/>
		<g>
			<path class="st5" d="M197.9,793.2v11.4c0.9-1.6,2.5-2.9,5.4-2.9c3.7,0,5.9,2.4,5.9,7.2v16.6h-4.7V810c0-2.5-0.5-4.1-3.1-4.1
				c-2.6,0-3.5,2.1-3.5,5.6v14.2h-4.7v-32.4H197.9z"/>
			<path class="st5" d="M213.2,803.4c0-3.6,1.7-8.2,7.8-8.2c5.2,0,7.5,3.1,7.5,7.7c0,3.7-1.6,5.6-3.6,6.3v0.1
				c2.5,0.8,4.5,2.9,4.5,7.3c0,5-1.9,9.4-8.6,9.4c-5.6,0-8-3.5-8.2-8.1h4.6c0.1,2.2,1,4.3,3.7,4.3c2.9,0,3.7-2.4,3.7-5.5
				c0-3.9-1.5-5.3-4.9-5.3h-1.3v-3.9h1.2c2.9,0,4.2-1,4.2-4.4c0-2.4-0.6-4.1-3.1-4.1c-2.7,0-3.1,2.7-3.2,4.3H213.2z"/>
		</g>
		<g>
			<path class="st5" d="M922.9,792.7v11.4c0.9-1.6,2.5-2.9,5.4-2.9c3.7,0,5.9,2.4,5.9,7.2v16.6h-4.7v-15.6c0-2.5-0.5-4.1-3.1-4.1
				c-2.6,0-3.5,2.1-3.5,5.6v14.2h-4.7v-32.4H922.9z"/>
			<path class="st5" d="M938.2,802.9c0-3.6,1.7-8.2,7.8-8.2c5.2,0,7.5,3.1,7.5,7.7c0,3.7-1.6,5.6-3.6,6.3v0.1
				c2.5,0.8,4.5,2.9,4.5,7.3c0,5-1.9,9.4-8.6,9.4c-5.6,0-8-3.5-8.2-8.1h4.6c0.1,2.2,1,4.3,3.7,4.3c2.9,0,3.7-2.4,3.7-5.5
				c0-3.9-1.5-5.3-4.9-5.3h-1.3v-3.9h1.2c2.9,0,4.2-1,4.2-4.4c0-2.4-0.6-4.1-3.1-4.1c-2.7,0-3.1,2.7-3.2,4.3H938.2z"/>
		</g>
		<g>
			<path class="st5" d="M1296,783.5c-15.7,0-28.5,12.8-28.5,28.5s12.8,28.5,28.5,28.5s28.5-12.8,28.5-28.5S1311.7,783.5,1296,783.5z
				 M1309.9,824.7c-0.4,0.8-1.1,1.2-1.9,1.2c-0.5,0-1-0.2-1.4-0.6l-10.6-10.6l-10.6,10.6c-0.4,0.4-0.9,0.6-1.4,0.6
				c-0.7,0-1.5-0.4-1.9-1.2c-0.3-0.7-0.1-1.6,0.5-2.2l10.6-10.6l-10.6-10.6c-0.6-0.6-0.8-1.5-0.4-2.3c0.7-1.3,2.3-1.5,3.2-0.6
				l10.6,10.6l10.6-10.6c0.5-0.5,1.3-0.8,2-0.5c1.6,0.6,1.9,2.4,0.9,3.4l-10.6,10.6l10.6,10.6C1310,823.1,1310.2,824,1309.9,824.7z"
				/>
		</g>
	</g>
	<g>
		<rect x="1457.5" y="272" class="st5" width="1223" height="589"/>
		<path class="st6" d="M2319,272.5l-120,493l481.5-0.4c0,0,0-492.1,0-493.1L2319,272.5z"/>
		<rect x="1564.9" y="400.5" class="st6" width="560.6" height="45.5"/>
		<rect x="1564.5" y="468" class="st6" width="524.8" height="45"/>
		<rect x="1564" y="567" class="st6" width="569.5" height="14"/>
		<rect x="1564.5" y="596.6" class="st6" width="569" height="13.9"/>
		<rect x="1564.5" y="626.1" class="st6" width="513.4" height="13.9"/>
		<path class="st5" d="M2485.9,530l47.8-47.8c1.8-1.8,1.8-4.6,0-6.4c-1.8-1.8-4.6-1.8-6.4,0l-47.8,47.8l-47.8-47.8
			c-1.8-1.8-4.6-1.8-6.4,0c-1.8,1.8-1.8,4.6,0,6.4l47.8,47.8l-47.8,47.8c-1.8,1.8-1.8,4.6,0,6.4c0.9,0.9,2,1.3,3.2,1.3
			s2.3-0.4,3.2-1.3l47.8-47.8l47.8,47.8c0.9,0.9,2,1.3,3.2,1.3s2.3-0.4,3.2-1.3c1.8-1.8,1.8-4.6,0-6.4L2485.9,530z"/>
		<path class="st3" d="M2678.5,865.5h-1219c-3.6,0-6.5-2.9-6.5-6.5V274c0-3.6,2.9-6.5,6.5-6.5h1219c3.6,0,6.5,2.9,6.5,6.5v585
			C2685,862.6,2682.1,865.5,2678.5,865.5z M1462,856.5h1214v-580H1462V856.5z"/>
		<g>
			<path class="st3" d="M1527.9,406.2v11.4c0.9-1.6,2.5-2.9,5.4-2.9c3.7,0,5.9,2.4,5.9,7.2v16.6h-4.7V423c0-2.5-0.5-4.1-3.1-4.1
				c-2.6,0-3.5,2.1-3.5,5.6v14.2h-4.7v-32.4H1527.9z"/>
			<path class="st3" d="M1546,438.6V414c-0.8,0.3-2.7,0.5-3.6,0.5v-3.6c2.1-0.4,4.2-1.5,5.1-2.4h3.2v30.1H1546z"/>
		</g>
		<g>
			<path class="st3" d="M1531.1,596.1V571c0-3.2,0-5.3,0-6.8h4.6c0.1,0.5,0.1,1.8,0.1,2.8c0.8-1.7,2.2-3.2,5.4-3.2
				c4.4,0,6.8,3.8,6.8,11.8c0,8.9-3,12.5-7.5,12.5c-2.6,0-3.9-1.1-4.6-2.5v10.5H1531.1z M1539.4,567.8c-3,0-3.7,2.9-3.7,7.8
				c0,5.4,0.4,8.4,3.6,8.4c2.6,0,3.9-2.9,3.9-8.2C1543.2,570.1,1542,567.8,1539.4,567.8z"/>
		</g>
		<rect x="1460" y="753" class="st3" width="1220" height="107.5"/>
		<rect x="1565.5" y="802" class="st5" width="370" height="20"/>
		<rect x="2288.5" y="802" class="st5" width="275" height="20"/>
		<g>
			<path class="st5" d="M1516.9,793.2v11.4c0.9-1.6,2.5-2.9,5.4-2.9c3.7,0,5.9,2.4,5.9,7.2v16.6h-4.7V810c0-2.5-0.5-4.1-3.1-4.1
				c-2.6,0-3.5,2.1-3.5,5.6v14.2h-4.7v-32.4H1516.9z"/>
			<path class="st5" d="M1532.2,803.4c0-3.6,1.7-8.2,7.8-8.2c5.2,0,7.5,3.1,7.5,7.7c0,3.7-1.6,5.6-3.6,6.3v0.1
				c2.5,0.8,4.5,2.9,4.5,7.3c0,5-1.9,9.4-8.6,9.4c-5.6,0-8-3.5-8.2-8.1h4.6c0.1,2.2,1,4.3,3.7,4.3c2.9,0,3.7-2.4,3.7-5.5
				c0-3.9-1.5-5.3-4.9-5.3h-1.3v-3.9h1.2c2.9,0,4.2-1,4.2-4.4c0-2.4-0.6-4.1-3.1-4.1c-2.7,0-3.1,2.7-3.2,4.3H1532.2z"/>
		</g>
		<g>
			<path class="st5" d="M2241.9,792.7v11.4c0.9-1.6,2.5-2.9,5.4-2.9c3.7,0,5.9,2.4,5.9,7.2v16.6h-4.7v-15.6c0-2.5-0.5-4.1-3.1-4.1
				c-2.6,0-3.5,2.1-3.5,5.6v14.2h-4.7v-32.4H2241.9z"/>
			<path class="st5" d="M2257.2,802.9c0-3.6,1.7-8.2,7.8-8.2c5.2,0,7.5,3.1,7.5,7.7c0,3.7-1.6,5.6-3.6,6.3v0.1
				c2.5,0.8,4.5,2.9,4.5,7.3c0,5-1.9,9.4-8.6,9.4c-5.6,0-8-3.5-8.2-8.1h4.6c0.1,2.2,1,4.3,3.7,4.3c2.9,0,3.7-2.4,3.7-5.5
				c0-3.9-1.5-5.3-4.9-5.3h-1.3v-3.9h1.2c2.9,0,4.2-1,4.2-4.4c0-2.4-0.6-4.1-3.1-4.1c-2.7,0-3.1,2.7-3.2,4.3H2257.2z"/>
		</g>
		<g>
			<path class="st5" d="M2615,783.5c-15.7,0-28.5,12.8-28.5,28.5s12.8,28.5,28.5,28.5s28.5-12.8,28.5-28.5S2630.7,783.5,2615,783.5z
				 M2628.9,824.7c-0.4,0.8-1.1,1.2-1.9,1.2c-0.5,0-1-0.2-1.4-0.6l-10.6-10.6l-10.6,10.6c-0.4,0.4-0.9,0.6-1.4,0.6
				c-0.7,0-1.5-0.4-1.9-1.2c-0.3-0.7-0.1-1.6,0.5-2.2l10.6-10.6l-10.6-10.6c-0.6-0.6-0.8-1.5-0.4-2.3c0.7-1.3,2.3-1.5,3.2-0.6
				l10.6,10.6l10.6-10.6c0.5-0.5,1.3-0.8,2-0.5c1.6,0.6,1.9,2.4,0.9,3.4l-10.6,10.6l10.6,10.6C2629,823.1,2629.2,824,2628.9,824.7z"
				/>
		</g>
	</g>
	<g>
		<rect x="-1184.5" y="272" class="st5" width="1223" height="589"/>
		<path class="st6" d="M-323,272.5l-120,493l481.5-0.4c0,0,0-492.1,0-493.1L-323,272.5z"/>
		<rect x="-1077.1" y="400.5" class="st6" width="560.6" height="45.5"/>
		<rect x="-1077.5" y="468" class="st6" width="524.8" height="45"/>
		<rect x="-1078" y="567" class="st6" width="569.5" height="14"/>
		<rect x="-1077.5" y="596.6" class="st6" width="569" height="13.9"/>
		<rect x="-1077.5" y="626.1" class="st6" width="513.4" height="13.9"/>
		<path class="st5" d="M-156.1,530l47.8-47.8c1.8-1.8,1.8-4.6,0-6.4c-1.8-1.8-4.6-1.8-6.4,0l-47.8,47.8l-47.8-47.8
			c-1.8-1.8-4.6-1.8-6.4,0c-1.8,1.8-1.8,4.6,0,6.4l47.8,47.8l-47.8,47.8c-1.8,1.8-1.8,4.6,0,6.4c0.9,0.9,2,1.3,3.2,1.3
			s2.3-0.4,3.2-1.3l47.8-47.8l47.8,47.8c0.9,0.9,2,1.3,3.2,1.3s2.3-0.4,3.2-1.3c1.8-1.8,1.8-4.6,0-6.4L-156.1,530z"/>
		<path class="st3" d="M36.5,865.5h-1219c-3.6,0-6.5-2.9-6.5-6.5V274c0-3.6,2.9-6.5,6.5-6.5h1219c3.6,0,6.5,2.9,6.5,6.5v585
			C43,862.6,40.1,865.5,36.5,865.5z M-1180,856.5H34v-580h-1214V856.5z"/>
		<g>
			<path class="st3" d="M-1114.1,406.2v11.4c0.9-1.6,2.5-2.9,5.4-2.9c3.7,0,5.9,2.4,5.9,7.2v16.6h-4.7V423c0-2.5-0.5-4.1-3.1-4.1
				c-2.6,0-3.5,2.1-3.5,5.6v14.2h-4.7v-32.4H-1114.1z"/>
			<path class="st3" d="M-1096,438.6V414c-0.8,0.3-2.7,0.5-3.6,0.5v-3.6c2.1-0.4,4.2-1.5,5.1-2.4h3.2v30.1H-1096z"/>
		</g>
		<g>
			<path class="st3" d="M-1110.9,596.1V571c0-3.2,0-5.3,0-6.8h4.6c0.1,0.5,0.1,1.8,0.1,2.8c0.8-1.7,2.2-3.2,5.4-3.2
				c4.4,0,6.8,3.8,6.8,11.8c0,8.9-3,12.5-7.5,12.5c-2.6,0-3.9-1.1-4.6-2.5v10.5H-1110.9z M-1102.6,567.8c-3,0-3.7,2.9-3.7,7.8
				c0,5.4,0.4,8.4,3.6,8.4c2.6,0,3.9-2.9,3.9-8.2C-1098.8,570.1-1100,567.8-1102.6,567.8z"/>
		</g>
		<rect x="-1182" y="753" class="st3" width="1220" height="107.5"/>
		<rect x="-1076.5" y="802" class="st5" width="370" height="20"/>
		<rect x="-353.5" y="802" class="st5" width="275" height="20"/>
		<g>
			<path class="st5" d="M-1125.1,793.2v11.4c0.9-1.6,2.5-2.9,5.4-2.9c3.7,0,5.9,2.4,5.9,7.2v16.6h-4.7V810c0-2.5-0.5-4.1-3.1-4.1
				c-2.6,0-3.5,2.1-3.5,5.6v14.2h-4.7v-32.4H-1125.1z"/>
			<path class="st5" d="M-1109.8,803.4c0-3.6,1.7-8.2,7.8-8.2c5.2,0,7.5,3.1,7.5,7.7c0,3.7-1.6,5.6-3.6,6.3v0.1
				c2.5,0.8,4.5,2.9,4.5,7.3c0,5-1.9,9.4-8.6,9.4c-5.6,0-8-3.5-8.2-8.1h4.6c0.1,2.2,1,4.3,3.7,4.3c2.9,0,3.7-2.4,3.7-5.5
				c0-3.9-1.5-5.3-4.9-5.3h-1.3v-3.9h1.2c2.9,0,4.2-1,4.2-4.4c0-2.4-0.6-4.1-3.1-4.1c-2.7,0-3.1,2.7-3.2,4.3H-1109.8z"/>
		</g>
		<g>
			<path class="st5" d="M-400.1,792.7v11.4c0.9-1.6,2.5-2.9,5.4-2.9c3.7,0,5.9,2.4,5.9,7.2v16.6h-4.7v-15.6c0-2.5-0.5-4.1-3.1-4.1
				c-2.6,0-3.5,2.1-3.5,5.6v14.2h-4.7v-32.4H-400.1z"/>
			<path class="st5" d="M-384.8,802.9c0-3.6,1.7-8.2,7.8-8.2c5.2,0,7.5,3.1,7.5,7.7c0,3.7-1.6,5.6-3.6,6.3v0.1
				c2.5,0.8,4.5,2.9,4.5,7.3c0,5-1.9,9.4-8.6,9.4c-5.6,0-8-3.5-8.2-8.1h4.6c0.1,2.2,1,4.3,3.7,4.3c2.9,0,3.7-2.4,3.7-5.5
				c0-3.9-1.5-5.3-4.9-5.3h-1.3v-3.9h1.2c2.9,0,4.2-1,4.2-4.4c0-2.4-0.6-4.1-3.1-4.1c-2.7,0-3.1,2.7-3.2,4.3H-384.8z"/>
		</g>
		<g>
			<path class="st5" d="M-27,783.5c-15.7,0-28.5,12.8-28.5,28.5s12.8,28.5,28.5,28.5S1.5,827.7,1.5,812S-11.3,783.5-27,783.5z
				 M-13.1,824.7c-0.4,0.8-1.1,1.2-1.9,1.2c-0.5,0-1-0.2-1.4-0.6L-27,814.8l-10.6,10.6c-0.4,0.4-0.9,0.6-1.4,0.6
				c-0.7,0-1.5-0.4-1.9-1.2c-0.3-0.7-0.1-1.6,0.5-2.2l10.6-10.6l-10.6-10.6c-0.6-0.6-0.8-1.5-0.4-2.3c0.7-1.3,2.3-1.5,3.2-0.6
				l10.6,10.6l10.6-10.6c0.5-0.5,1.3-0.8,2-0.5c1.6,0.6,1.9,2.4,0.9,3.4L-24.2,812l10.6,10.6C-13,823.1-12.8,824-13.1,824.7z"/>
		</g>
	</g>
	<g>
		<path class="st3" d="M166.5,891.5c-15.7,0-28.5,12.8-28.5,28.5s12.8,28.5,28.5,28.5S195,935.7,195,920S182.2,891.5,166.5,891.5z
			 M180.4,932.7c-0.4,0.8-1.1,1.2-1.9,1.2c-0.5,0-1-0.2-1.4-0.6l-10.6-10.6l-10.6,10.6c-0.4,0.4-0.9,0.6-1.4,0.6
			c-0.7,0-1.5-0.4-1.9-1.2c-0.3-0.7-0.1-1.6,0.5-2.2l10.6-10.6l-10.6-10.6c-0.6-0.6-0.8-1.5-0.4-2.3c0.7-1.3,2.3-1.5,3.2-0.6
			l10.6,10.6l10.6-10.6c0.5-0.5,1.3-0.8,2-0.5c1.6,0.6,1.9,2.4,0.9,3.4L169.3,920l10.6,10.6C180.5,931.1,180.7,932,180.4,932.7z"/>
	</g>
</g>
</svg>
