<?xml version="1.0" encoding="utf-8"?>
<!-- Generator: Adobe Illustrator 22.1.0, SVG Export Plug-In . SVG Version: 6.00 Build 0)  -->
<svg version="1.1" id="Layer_1" xmlns="http://www.w3.org/2000/svg" xmlns:xlink="http://www.w3.org/1999/xlink" x="0px" y="0px"
	 viewBox="0 0 1686 1670" style="enable-background:new 0 0 1686 1670;" xml:space="preserve">
<style type="text/css">
	.st0{opacity:0.3;}
	.st1{fill:none;}
	.st2{fill:#A0D1F9;}
	.st3{fill:#75AEF2;}
	.st4{fill:#649AEA;}
	.st5{fill:#337BD1;}
	.st6{fill:#7EB8F2;}
	.st7{fill:#154EA4;}
	.st8{opacity:0.3;fill:#2868C6;enable-background:new    ;}
	.st9{fill:#F1B49B;}
	.st10{fill:#D8917D;}
	.st11{fill:#6B848E;}
	.st12{fill:#C0CBCE;}
	.st13{fill:#526972;}
	.st14{fill:#E0E2E2;}
	.st15{fill:#FFFFFF;}
	.st16{fill:#B3B3B3;}
	.st17{fill:#1F5FBF;}
	.st18{fill:#F0F1F1;}
	.st19{fill:#B5C3C6;}
	.st20{fill:#3E85DB;}
	.st21{opacity:0.5;fill:#4C5973;enable-background:new    ;}
	.st22{fill:#515151;}
	.st23{fill:#F7D2C6;}
	.st24{fill:#87C3F4;}
	.st25{fill:#7AB3ED;}
	.st26{fill:#69B1E2;}
	.st27{fill:#73ACEF;}
	.st28{fill:#2A6CCE;}
	.st29{fill:#327CD6;}
	.st30{fill:#3B8BDB;}
	.st31{opacity:0.4;fill:#2868C6;enable-background:new    ;}
	.st32{opacity:0.3;fill:#337BD1;enable-background:new    ;}
	.st33{fill:#2868C6;}
	.st34{opacity:0.3;fill:#1B59B2;enable-background:new    ;}
	.st35{fill:#3880D6;}
	.st36{opacity:0.3;fill:#649AEA;enable-background:new    ;}
	.st37{opacity:0.3;fill:none;stroke:#2868C6;stroke-width:3;stroke-linecap:round;stroke-miterlimit:10;enable-background:new    ;}
</style>
<g class="st0">
	<g>
		<path class="st1" d="M1069.4,703.1c-0.3-0.3-0.7-0.7-1.1-1c-3.6-2.9-8.3-4.7-13.5-4.7c-12.1,0.1-22.5,9.5-24.4,21.2
			c0,0.1,0,0.3-0.1,0.4c0,0.3-0.1,0.8-0.1,1.1c-0.3,3.7,0.3,7.1,1.6,10.3c0.4,1.1,1,2.2,1.7,3.2c3.7,5.6,10,9.2,17.5,9.2
			c6.6,0,12.7-2.9,17.3-7.4c1.9-1.9,3.6-4.1,4.8-6.6c1.3-2.8,2.2-5.8,2.6-8.9C1076.2,713.3,1073.8,707.2,1069.4,703.1z"/>
		<path class="st2" d="M1085.6,752.2c0.4-0.4,0.8-0.9,1.2-1.3C1086.4,751.3,1086,751.8,1085.6,752.2L1085.6,752.2z"/>
		<path class="st3" d="M1075.7,720.1c-0.2,3.1-1.1,6.1-2.6,8.9l22.1,9.6c3-6,4.9-12.6,5.5-19.2c1.1-13.2-3.2-25.7-11.8-34.8
			l-19.5,18.5C1073.8,707.2,1076.2,713.3,1075.7,720.1z"/>
		<path class="st4" d="M1073.2,729c-1.2,2.5-2.9,4.7-4.8,6.6c-4.5,4.5-10.7,7.4-17.3,7.4c-7.5,0-13.8-3.6-17.5-9.2l-22.1,17
			c8.3,11.3,21.7,17.9,36.4,17.9c14.1-0.1,27.7-6.2,37.6-16.4c0.4-0.4,0.8-0.9,1.2-1.3c0.2-0.2,0.4-0.4,0.7-0.7
			c0.7-0.7,1.2-1.5,1.8-2.1c0.2-0.2,0.3-0.4,0.6-0.8c0.2-0.3,0.4-0.6,0.7-0.9c0.1-0.2,0.3-0.4,0.4-0.7c0.2-0.3,0.4-0.7,0.7-1
			c0.2-0.3,0.3-0.6,0.6-0.9c0.2-0.3,0.4-0.7,0.7-1s0.4-0.7,0.6-1c0.4-0.7,0.8-1.3,1.2-2.1c0.2-0.3,0.3-0.7,0.4-0.9
			c0.1-0.1,0.1-0.2,0.2-0.3l0,0L1073.2,729z"/>
		<path class="st5" d="M1031.9,730.7c-1.3-3.1-1.9-6.6-1.6-10.3c0-0.4,0.1-0.8,0.1-1.1l-27.1-0.7c-0.1,0.4-0.1,1-0.1,1.5
			c-0.7,8.5,0.8,16.7,4.4,23.9c0,0,0,0,0,0.1c0.2,0.4,0.4,0.8,0.6,1.2c0.3,0.6,0.7,1.1,1,1.8c0.2,0.3,0.4,0.8,0.7,1.1l0,0
			c0.2,0.3,0.4,0.7,0.7,1c0.1,0.1,0.1,0.2,0.2,0.3c0.2,0.3,0.6,0.8,0.8,1.1c0,0.1,0.1,0.1,0.1,0.2l22.1-17
			C1032.9,732.8,1032.4,731.8,1031.9,730.7z"/>
		<path class="st6" d="M1030.5,718.7c1.8-11.8,12.4-21.2,24.4-21.2c5.2,0,9.9,1.7,13.5,4.7c0.3,0.3,0.8,0.7,1.1,1l19.5-18.5
			c-0.2-0.2-0.3-0.3-0.6-0.6c-0.2-0.2-0.4-0.4-0.7-0.7c-0.1-0.1-0.1-0.1-0.2-0.2c-0.2-0.2-0.4-0.4-0.7-0.7l-0.1-0.1
			c-8.3-7.5-19.2-11.7-30.8-11.6c-25.9,0.1-49.1,20.9-52.6,46.5c0,0.3-0.1,0.8-0.1,1.1l27.1,0.7
			C1030.4,719.1,1030.5,718.8,1030.5,718.7z"/>
	</g>
	<g>
		<path class="st7" d="M1065.5,686.2c-0.2,0-0.6-0.1-0.8-0.2c-0.7-0.4-1-1.3-0.6-2l14.7-25.6h44.9c0.8,0,1.5,0.7,1.5,1.5
			c0,0.8-0.7,1.5-1.5,1.5h-43.2l-14,24.1C1066.6,686,1066.1,686.2,1065.5,686.2z"/>
		<g>
			<circle class="st7" cx="1065.6" cy="684.7" r="3.1"/>
		</g>
	</g>
	<path class="st4" d="M1123.8,653.7h-38.2c-1.1,0-2-0.9-2-2v-0.2c0-1.1,0.9-2,2-2h38.2c1.1,0,2,0.9,2,2v0.2
		C1125.8,652.8,1124.9,653.7,1123.8,653.7z"/>
	<g>
		<path class="st7" d="M1091.4,702.2c-0.6,0-1-0.2-1.3-0.8c-0.4-0.7-0.1-1.7,0.6-2l10.9-6.1h44.4c0.8,0,1.5,0.7,1.5,1.5
			c0,0.8-0.7,1.5-1.5,1.5h-43.6l-10.3,5.7C1092,702.1,1091.8,702.2,1091.4,702.2z"/>
		<g>
			<path class="st7" d="M1093.1,703.3c-1.6,0.9-3.5,0.3-4.2-1.2c-0.9-1.6-0.3-3.5,1.2-4.2c1.6-0.9,3.5-0.3,4.2,1.2
				C1095.2,700.5,1094.7,702.5,1093.1,703.3z"/>
		</g>
	</g>
	<path class="st4" d="M1145.9,688.5h-38.2c-1.1,0-2-0.9-2-2v-0.2c0-1.1,0.9-2,2-2h38.2c1.1,0,2,0.9,2,2v0.2
		C1147.9,687.6,1147,688.5,1145.9,688.5z"/>
	<g>
		<path class="st7" d="M1127.4,779h-47.2l-12.2-20.9c-0.4-0.7-0.2-1.7,0.6-2c0.7-0.4,1.7-0.2,2,0.6l11.3,19.3h45.5
			c0.8,0,1.5,0.7,1.5,1.5C1128.8,778.3,1128.1,779,1127.4,779z"/>
		<g>
			<path class="st7" d="M1066.6,759.1c-0.9-1.5-0.3-3.5,1.1-4.2c1.5-0.9,3.5-0.3,4.2,1.1c0.9,1.5,0.3,3.5-1.1,4.2
				C1069.4,761.1,1067.5,760.6,1066.6,759.1z"/>
		</g>
	</g>
	<path class="st4" d="M1124.8,771.2h-38.2c-1.1,0-2-0.9-2-2v-0.2c0-1.1,0.9-2,2-2h38.2c1.1,0,2,0.9,2,2v0.2
		C1126.8,770.3,1125.9,771.2,1124.8,771.2z"/>
	<g>
		<path class="st7" d="M995.3,756.6h-47c-0.8,0-1.5-0.7-1.5-1.5c0-0.8,0.7-1.5,1.5-1.5h45.8l20.1-20c0.6-0.6,1.6-0.6,2.1,0
			c0.6,0.6,0.6,1.6,0,2.1L995.3,756.6z"/>
		<g>
			<path class="st7" d="M1013,732.6c1.2-1.2,3.2-1.2,4.5,0s1.2,3.2,0,4.5s-3.2,1.2-4.5,0C1011.7,735.7,1011.7,733.7,1013,732.6z"/>
		</g>
	</g>
	<path class="st4" d="M950.8,748.7H989c1.1,0,2-0.9,2-2v-0.2c0-1.1-0.9-2-2-2h-38.2c-1.1,0-2,0.9-2,2v0.2
		C948.8,747.9,949.7,748.7,950.8,748.7z"/>
</g>
<path class="st8" d="M637.7,1086.4c-3.3,0-5-2.4-6.3-4.3c-1.2-1.8-1.9-2.8-3.3-2.8s-2.1,1-3.3,2.8c-1.3,1.9-2.9,4.3-6.3,4.3
	c-3.3,0-5-2.4-6.3-4.3c-1.2-1.8-1.9-2.8-3.3-2.8s-2.1,1-3.3,2.8c-1.3,1.9-2.9,4.3-6.3,4.3c-3.3,0-5-2.4-6.3-4.3
	c-1.2-1.8-1.9-2.8-3.3-2.8c-1,0-1.8-0.8-1.8-1.8s0.8-1.8,1.8-1.8c3.3,0,5,2.4,6.3,4.3c1.2,1.8,1.9,2.8,3.3,2.8s2.1-1,3.3-2.8
	c1.3-1.9,2.9-4.3,6.3-4.3c3.3,0,5,2.4,6.3,4.3c1.2,1.8,1.9,2.8,3.3,2.8s2.1-1,3.3-2.8c1.3-1.9,2.9-4.3,6.3-4.3c3.3,0,5,2.4,6.3,4.3
	c1.2,1.8,1.9,2.8,3.3,2.8s2.1-1,3.3-2.8c1.3-1.9,2.9-4.3,6.3-4.3c1,0,1.8,0.8,1.8,1.8s-0.8,1.8-1.8,1.8c-1.4,0-2.1,1-3.3,2.8
	C642.7,1084,641,1086.4,637.7,1086.4z"/>
<path class="st8" d="M644.9,954.7c-4.4,4.2-9.5,7.2-14.7,9c-11.4,4.2-23.8,2.9-32.8-4.1c-1.2-0.9-2.4-2-3.4-3.2
	c-12.6-13.4-10.2-36.2,5.3-50.6c15.5-14.5,38.3-15.2,50.8-1.8C662.8,917.5,660.4,940.1,644.9,954.7z"/>
<g>
	<path class="st9" d="M679.6,1055.8c2.3,6,2.7,26.4,9.1,27.2c7.9,1,8.7-25.9,12.3-33c6.7-12.9,13.5-26.5,13.5-41.1
		c0-11.8-5.8-26.8-14-41.2c-3.2-5.5-6.7-11-10.5-16.1c-20.1-27.7-52.6-56.2-57.1-35.3C630,930.3,674.5,1042.2,679.6,1055.8z"/>
	<path class="st10" d="M685,1057.4c5.3-12.8,5.5-29.4,7.8-43c2.6-15.6,5.1-31.2,7.8-46.8c-3.2-5.5-6.7-11-10.5-16.1
		c-0.8,0.8-1.3,1.4-1.8,2.3c-1.4,2.6-1.7,5.5-1.9,8.5C684.5,994,689.2,1025.6,685,1057.4z"/>
	<path class="st9" d="M856,1777.4c-26.4,5.3-44.8-11.1-51-17.9c-46.4-50-85.8-105.6-123.1-162.6c-12.6-19.2-25.1-39-32.4-60.7
		c-7.3-21.8-9.2-46.3-0.6-67.6c6.4-15.9,18.1-28.9,30.1-41.1c87.6-87.9,209.4-140.9,333.3-144.9c16.9-0.6,34.2-0.1,50.1,6
		c29.7,11.4,49.1,41.7,56,72.8c6.9,31.2,8,329-30.7,341.3C1046.2,1716.1,895.4,1769.5,856,1777.4z"/>
	<path class="st10" d="M980.2,1647.1c0,4-5.8,4.5-6.4,0.6c0-0.1,0-0.1,0-0.3c-1-6.4-1.2-13.1-4.1-19c-6.7-13.5-24.6-16.1-39.6-16.4
		c-39.5-0.9-79.2,2-118.7,1.3c-39.5-0.8-79.7-5.1-116.5-19.7c49.6-7.1,99.6-7.6,149.6-7.1c24.7,0.3,49.5,0.8,74.1,0.9
		c12.6,0,25.1,0,37.6-0.3c6.4-0.1,27.8-4.4,31.4,1.9c3,5.4-5.9,29.4-6.3,36.7C980.8,1628.3,980.1,1638.1,980.2,1647.1z"/>
	<g>
		<path class="st11" d="M1145.8,870.5l-81.5,717.6c-1.4,11.4-11.3,20-22.7,20h-394c-8.1,0-20.9-7.8-29.5-16.9
			c-7.6-8-8.2-20.2-2-29.2l486.5-714.9c6.5-9.6,20.4-11.4,29-3.5C1139.9,851.5,1146.7,862.7,1145.8,870.5z"/>
		<path class="st12" d="M1134.8,859.7l-85.9,710.5c-1.4,11.4-11.3,20-22.7,20h-394c-13.7,0-24.4-12.1-22.7-25.8l103.1-710.4
			c1.4-11.4,11-20.1,22.4-20.1h377.1C1126,833.9,1136.6,846,1134.8,859.7z"/>
		<path class="st13" d="M976.1,890.3H850.2c-2.7,0-5-2.3-5-5s2.3-5,5-5h125.8c2.7,0,5,2.3,5,5S978.8,890.3,976.1,890.3z"/>
		<path class="st13" d="M860.3,1601.2h-79.9c-0.9,0-1.5-0.8-1.5-1.5c0-0.8,0.8-1.5,1.5-1.5h79.9c0.9,0,1.5,0.8,1.5,1.5
			C861.8,1600.4,861.1,1601.2,860.3,1601.2z"/>
		<polygon class="st14" points="1126.2,925.2 1055.7,1514.5 617.2,1512.8 701.6,925.2 		"/>
		<path class="st15" d="M725.4,1021.8l351.9-1.7c6.7,0,12.3-4.9,13.2-11.4l6.2-42.9c1-8-5.1-15.3-13.2-15.3H733.2
			c-6.7,0-12.3,4.9-13.2,11.4l-7.9,44.6C710.9,1014.6,717.2,1021.8,725.4,1021.8z"/>
		<path class="st16" d="M755.2,967.4c-6.5,0-12.7,5.4-13.6,11.9c-0.5,3.2,0.4,6.1,2.2,8.2L730,999.9c-0.6,0.5-0.6,1.3-0.3,1.8
			c0.3,0.3,0.5,0.4,0.9,0.4c0.4,0,0.8-0.1,0.9-0.4l13.8-12.6c1.7,1.3,4,2,6.3,2c6.5,0,12.7-5.4,13.6-11.9
			C766.3,972.7,761.8,967.4,755.2,967.4z M762.9,979.3c-0.8,5.1-5.5,9.4-10.6,9.4c-2.2,0-4.2-0.8-5.6-2c0,0,0,0-0.1-0.1
			c-1.8-1.7-2.7-4.3-2.4-7.2c0.8-5.1,5.5-9.4,10.6-9.4C760,969.9,763.6,974.2,762.9,979.3z"/>
		
			<ellipse transform="matrix(0.7315 -0.6819 0.6819 0.7315 -730.6522 1081.8915)" class="st15" cx="1008.3" cy="1468.6" rx="27.3" ry="23.7"/>
		
			<ellipse transform="matrix(0.7315 -0.6819 0.6819 0.7315 -753.4037 1024.2161)" class="st15" cx="923.7" cy="1468.7" rx="27.3" ry="23.7"/>
		
			<ellipse transform="matrix(0.7315 -0.6819 0.6819 0.7315 -776.1102 966.5265)" class="st12" cx="839.1" cy="1468.6" rx="27.3" ry="23.7"/>
		
			<ellipse transform="matrix(0.7315 -0.6819 0.6819 0.7315 -798.8035 908.9448)" class="st15" cx="754.6" cy="1468.7" rx="27.3" ry="23.7"/>
		
			<ellipse transform="matrix(0.7315 -0.6819 0.6819 0.7315 -821.5101 851.2552)" class="st15" cx="670" cy="1468.7" rx="27.3" ry="23.7"/>
		<g>
			
				<ellipse transform="matrix(0.7315 -0.6819 0.6819 0.7315 -774.6875 958.6104)" class="st15" cx="829.7" cy="1462.9" rx="3" ry="2.6"/>
			
				<ellipse transform="matrix(0.7315 -0.6819 0.6819 0.7315 -771.7487 966.1171)" class="st15" cx="840.8" cy="1462.9" rx="3" ry="2.6"/>
			
				<ellipse transform="matrix(0.7315 -0.6819 0.6819 0.7315 -768.8229 973.5157)" class="st15" cx="851.6" cy="1462.9" rx="3" ry="2.6"/>
			
				<ellipse transform="matrix(0.7315 -0.6819 0.6819 0.7315 -782.6273 960.4234)" class="st15" cx="828.1" cy="1473.9" rx="3" ry="2.6"/>
			
				<ellipse transform="matrix(0.7315 -0.6819 0.6819 0.7315 -779.6258 967.9599)" class="st15" cx="839.2" cy="1473.8" rx="3" ry="2.6"/>
			
				<ellipse transform="matrix(0.7315 -0.6819 0.6819 0.7315 -776.7626 975.3289)" class="st15" cx="849.9" cy="1473.9" rx="3" ry="2.6"/>
		</g>
		<polygon class="st12" points="743.4,1473.8 747.2,1473.8 752.9,1478.8 753.1,1473.8 765.5,1473.8 767.2,1461.8 745.1,1461.8 		"/>
		<g>
			<g>
				<path class="st12" d="M915.8,1458.3c0.4-0.5,0.8-0.9,1-1.4c1.2-1.4,2.7-2.4,4.4-3c0.5-0.1,0.9-0.4,1.3-0.5c1-0.3,1.8,0,2,0.9
					c0.1,0.5,0.3,0.9,0.3,1.3c0,0.9,0.1,1.9,0.1,3c0,0.5-0.1,0.9-0.3,1.4c-0.4,0.9-1,1.4-1.9,1.7c-0.6,0.3-1.2,0.4-1.8,0.6
					c-0.9,0.3-1.4,0.9-1.7,1.7c-0.3,0.9-0.3,1.9-0.1,2.7c0.3,1.8,0.6,3.3,1.2,4.9c0.3,0.8,0.6,1.3,1.3,1.8c0.5,0.5,1.2,0.5,1.9,0.1
					c0.8-0.3,1.3-0.5,1.9-0.8c1.2-0.4,2.2-0.1,2.7,0.9c0.4,0.5,0.5,0.9,0.8,1.3c0.4,0.9,0.6,1.7,0.9,2.6c0.1,0.3,0.1,0.6,0.1,0.9
					c0,0.9-0.4,1.5-1.2,1.8c-1,0.5-2.3,0.9-3.3,1c-1.4,0.3-2.7,0.1-4.1-0.5c-1.8-0.8-3.1-2-4.1-3.6c-0.9-1.3-1.4-2.8-2-4.4
					c-0.8-2.6-1.2-5.1-1.3-7.8c0-1.7,0.3-3.3,0.9-5c0.1-0.4,0.3-0.8,0.4-1C915.6,1458.9,915.7,1458.6,915.8,1458.3z"/>
			</g>
		</g>
		<g>
			<path class="st12" d="M682.2,1464.4c-0.4-2.3-1.3-4.3-2.7-5.9c-1.9-2.2-4.9-3.5-8.2-3.5c-4.8,0-9.4,2.6-12.1,6.5
				c-1.3,1.8-2.2,4-2.4,6.1c-0.9,7.1,4,12.8,11,12.8c1.3,0,2.6-0.3,3.8-0.6l0,0c5.4-1.7,9.8-6.4,10.6-12.2
				C682.4,1466.7,682.4,1465.4,682.2,1464.4z M665.4,1467.4c-0.4,0.1-0.8,0.5-0.6,0.8c0,0.1,0.1,0.3,0.3,0.4c0.4,0.4,0.3,1,0,1.7
				c-0.3,0.6-0.8,0.9-0.9,1.5c-0.6,1-0.5,2.3-0.6,3.5c-0.1,0.4-0.1,0.8-0.4,1c-0.3,0.4-0.8,0.5-0.9,0.3c-0.3-0.1-0.3-0.4-0.3-0.6
				c-0.5-2-2.6-3.2-3-5.1c-0.1-0.4,0-0.9,0.4-1c0.8-0.6,1.5-0.9,2.4-1c0.8-0.1,1.5-0.3,2-0.9c0.1-0.3,0.3-0.5,0.5-0.8
				c0.4-0.5,1-0.6,1.7-0.9c0.6-0.3,0.8-0.9,0.3-1.3l-2.2-1.4c-0.4-0.3-0.9-0.5-0.9-0.9c0-0.1-0.1-0.1-0.1-0.3
				c-0.3-0.9,0.5-2.2,1.5-2.6c0.3-0.1,0.6-0.1,0.8,0.1c0.3,0.4-0.4,0.9,0,1.3c0.1,0.1,0.3,0.1,0.4,0.1c0.5,0,0.9,0,1.3-0.3
				c0.5-0.3,0.8-0.9,0.5-1.2c-0.3-0.3-0.8-0.4-0.8-0.9c0-0.3,0.3-0.5,0.6-0.6c0.9-0.1,1.9,0.4,3,0c0.3-0.1,0.5-0.3,0.9-0.4
				c1.2-0.4,2.2,0.3,3.3,0.1c0.3,0,0.5-0.1,0.8-0.1c0.5,0.1,0.9,0.6,0.8,1.2c-0.1,0.6-0.8,0.9-1.2,0.9c-0.4,0.1-0.8,0-0.9,0
				c-0.4-0.1-0.9,0.3-0.9,0.6c-0.1,0.3-0.1,0.5-0.1,0.8c0,0.1-0.1,0.1-0.1,0.3c-0.1,0.3-0.4,0.4-0.6,0.6c-0.6,0.6-0.9,1.3-1.3,2
				c-0.4,0.5-0.9,0.9-1.3,0.9c-0.4,0.1-0.6,0.4-0.8,0.8c-0.1,0.3-0.3,0.5-0.5,0.8C667.3,1467.4,666.3,1467.2,665.4,1467.4z
				 M678,1472.4c-0.6,0.8-1.2,1.3-1.8,1.9c-0.8,0.8-1.4,1.3-2.2,1.9c-0.5,0.4-0.9,0.8-1.3,0.9c-1.2,0.9-2.7,1.3-4.1,1.2
				c-0.1,0-0.1,0-0.3-0.1c-0.1-0.1-0.1-0.3,0-0.5c0.4-0.9,1-1.9,1.9-2.6c0.4-0.3,0.6-0.5,0.9-0.9c0.3-0.5,0.3-0.9,0.6-1.3
				c0.4-0.4,0.9-0.5,1.3-0.9c0.4-0.3,0.4-0.8,0.6-0.9c0.3-0.1,0.5-0.3,0.8-0.4c0.4-0.3,0.6-0.6,0.8-0.9c0-0.1,0-0.3,0.1-0.3
				c0.3-0.3,0.6,0,0.9-0.1c0.5-0.1,0.6-0.9,0.9-1c0.1-0.1,0.4-0.1,0.5-0.1c0.5,0.1,0.9,0.5,1.2,0.9c0.1,0.3,0.3,0.6,0.3,0.9
				C679,1470.9,678.5,1471.8,678,1472.4z"/>
		</g>
		<g>
			<path class="st12" d="M1020.8,1463.2c-0.4,0-0.8-0.3-0.9-0.6l-2.2-5.5c-0.1-0.4-0.5-0.5-0.9-0.5h-13.7c-0.4,0-0.8,0.3-0.9,0.5
				l-3.7,5.5c-0.3,0.4-0.6,0.6-0.9,0.6c-0.6,0-1,0.5-1.2,0.9l-1.2,8c-0.1,0.6,0.4,1,0.9,1h1.5l-0.4,2.2c0,0.3,0,0.5,0,0.8
				c0.1,0.6,0.8,0.9,1.4,0.9c0.9,0,1.8-0.8,1.9-1.7l0.3-2.2h13.5l-0.3,2.2c-0.1,0.9,0.5,1.7,1.4,1.7l0,0c0.9,0,1.8-0.8,1.9-1.7
				l0.3-2.2h1.5c0.6,0,1-0.5,1.2-1l1.2-8C1021.7,1463.6,1021.5,1463.2,1020.8,1463.2z M1002.2,1468.2c-0.1,0.8-0.6,1.4-1.3,1.8
				c-0.4,0.3-0.8,0.4-1.2,0.4c-1.2,0-2-0.9-1.8-2.2c0.1-1.2,1.2-2.2,2.4-2.2c1,0,1.8,0.8,1.8,1.7
				C1002.2,1468,1002.2,1468.1,1002.2,1468.2z M1002.6,1463.2c-0.8,0-1.2-0.9-0.8-1.4l1.4-2c0.3-0.4,0.6-0.6,0.9-0.6h10.8
				c0.4,0,0.8,0.3,0.9,0.6l0.9,2c0.3,0.8-0.4,1.4-1,1.4H1002.6z M1016.6,1470.3c-1.2,0-2-0.9-1.8-2.2c0.1-1.2,1.2-2.2,2.4-2.2
				s1.9,0.9,1.8,2.2C1018.8,1469.4,1017.7,1470.3,1016.6,1470.3z"/>
		</g>
		
			<ellipse transform="matrix(0.7315 -0.6819 0.6819 0.7315 -344.4359 853.7599)" class="st13" cx="911.8" cy="864.2" rx="7.4" ry="6.4"/>
		<g>
			<path class="st12" d="M671.1,1408.3l353.6-1.7c6.7,0,12.3-4.9,13.2-11.4l16.5-133c1-8-5.1-15.3-13.2-15.3H692.5
				c-6.7,0-12.3,4.9-13.2,11.4l-21.5,134.6C656.6,1401.2,662.9,1408.3,671.1,1408.3z"/>
			
				<ellipse transform="matrix(0.7315 -0.6819 0.6819 0.7315 -598.0623 1036.3922)" class="st17" cx="1016.8" cy="1277.5" rx="19.1" ry="16.7"/>
			
				<ellipse transform="matrix(0.7315 -0.6819 0.6819 0.7315 -631.1761 1044.0677)" class="st17" cx="1010" cy="1323.4" rx="19.1" ry="16.7"/>
			
				<ellipse transform="matrix(0.7315 -0.6819 0.6819 0.7315 -665.4028 1052.1506)" class="st17" cx="1003.2" cy="1370.9" rx="19.1" ry="16.7"/>
			<g>
				<rect x="892" y="1266.7" class="st18" width="96.9" height="1.3"/>
				<rect x="890.2" y="1274.3" class="st18" width="96.8" height="1.3"/>
				<rect x="928.8" y="1282.8" class="st18" width="56.9" height="1.3"/>
			</g>
			<g>
				<rect x="886.9" y="1314.3" class="st18" width="96.9" height="1.3"/>
				<rect x="885" y="1321.8" class="st18" width="96.9" height="1.3"/>
				<rect x="923.7" y="1330.3" class="st18" width="57" height="1.3"/>
			</g>
			<g>
				<rect x="880.1" y="1363.5" class="st18" width="96.9" height="1.3"/>
				<rect x="878.1" y="1371.1" class="st18" width="96.9" height="1.3"/>
				<rect x="916.9" y="1379.5" class="st18" width="57" height="1.3"/>
			</g>
			
				<ellipse transform="matrix(0.7315 -0.6819 0.6819 0.7315 -647.8387 910.0037)" class="st17" cx="831.5" cy="1277.5" rx="19.1" ry="16.7"/>
			
				<ellipse transform="matrix(0.7315 -0.6819 0.6819 0.7315 -682.0522 918.1943)" class="st17" cx="824.8" cy="1325.1" rx="19.1" ry="16.7"/>
			
				<ellipse transform="matrix(0.7315 -0.6819 0.6819 0.7315 -716.3086 926.3396)" class="st17" cx="818" cy="1372.6" rx="19.1" ry="16.7"/>
			<g>
				<rect x="706.7" y="1266.7" class="st18" width="96.9" height="1.3"/>
				<rect x="704.8" y="1274.3" class="st18" width="96.9" height="1.3"/>
				<rect x="743.5" y="1282.8" class="st18" width="57" height="1.3"/>
			</g>
			<g>
				<rect x="701.7" y="1314.3" class="st18" width="96.8" height="1.3"/>
				<rect x="699.8" y="1321.8" class="st18" width="96.8" height="1.3"/>
				<rect x="738.5" y="1330.3" class="st18" width="56.9" height="1.3"/>
			</g>
			<g>
				<rect x="694.9" y="1363.5" class="st18" width="96.9" height="1.3"/>
				<rect x="693" y="1371.1" class="st18" width="96.8" height="1.3"/>
				<rect x="731.7" y="1379.5" class="st18" width="56.9" height="1.3"/>
			</g>
		</g>
		<g>
			<path class="st15" d="M838.8,1229.5l214.4-1.7c6.7,0,12.3-4.9,13.2-11.4l21.5-156.8c1-8-5.1-15.3-13.2-15.3H865.5
				c-6.7,0-12.3,4.9-13.2,11.4l-26.8,158.5C824.4,1222.3,830.6,1229.5,838.8,1229.5z"/>
			<path class="st17" d="M831.2,1059.5l-25,156.8c-0.9,6.5-6.5,11.4-13.2,11.4l-19.9,0.4l-69.5,1.2l-6,0.1
				c-8.1,0-14.4-7.2-13.2-15.3l26.7-158.6c0.9-6.5,6.5-11.4,13.2-11.4H818C826.1,1044.2,832.4,1051.5,831.2,1059.5z"/>
			<g>
				<rect x="872.1" y="1076.3" class="st19" width="177.6" height="1.5"/>
				<rect x="873.6" y="1066" class="st19" width="187.2" height="1.5"/>
				<rect x="868.6" y="1086.9" class="st19" width="109" height="1.5"/>
			</g>
			<g>
				<rect x="851.3" y="1191.8" class="st19" width="177.6" height="1.5"/>
				<rect x="852.9" y="1181.2" class="st19" width="187.2" height="1.5"/>
				<rect x="849.3" y="1202.5" class="st19" width="185.4" height="1.5"/>
			</g>
			<g>
				<rect x="863.3" y="1124.4" class="st19" width="177.6" height="1.5"/>
				<rect x="864.8" y="1113.9" class="st19" width="187.2" height="1.5"/>
				
					<rect x="861.3" y="1134.8" transform="matrix(1 -4.936410e-03 4.936410e-03 1 -5.5942 4.6493)" class="st19" width="155.4" height="1.5"/>
				<rect x="859.8" y="1145.2" class="st19" width="167.4" height="1.5"/>
				<rect x="856.6" y="1155.7" class="st19" width="151.5" height="1.5"/>
			</g>
			
				<ellipse transform="matrix(0.7315 -0.6819 0.6819 0.7315 -555.2857 818.2415)" class="st20" cx="761.2" cy="1114.1" rx="27.6" ry="24"/>
			<path class="st20" d="M784.5,1185.4l-6.8,42.4l-4.5,0.4l-69.5,1.2l5-44c1.4-10.5,7.1-20,14.9-26.8c7.8-6.8,17.9-11.1,28.3-11.1
				C772.9,1147.5,787.4,1164.5,784.5,1185.4z"/>
		</g>
		<path class="st21" d="M958.9,1590.1h47.7c3.6-3.2,6.2-4.5,8.8-8.6c1.4-2.2,2.7-4.3,4.1-6.4c12.7-20.1,24.9-40.5,34.8-62l0,0
			c0.9-2.2,2-4.3,3-6.5c9-20.5,15.6-41.9,21.9-63.5l28.5-241.9c-30.1,10.1-51.7,130.1-72.2,208.2
			C1030.4,1429.4,954,1525.5,958.9,1590.1z"/>
	</g>
	<path class="st9" d="M1142,1673.7c-0.9,13.1-4.9,45-1.3,99.8c0.1,2.4,0.4,4.9,0.5,7.4H825.4c-0.6-2.6-1-5-1.5-7.4
		c0-0.3-0.1-0.5-0.1-0.8c0-0.1-0.1-0.4-0.1-0.5l0,0c-0.3-1-0.5-2.2-0.8-3.3c-0.8-4.1-0.9-8.1,0.5-11.8c1.8-4.4,5.9-7.2,9.6-9.5
		c48.3-30,101-51.8,155.4-65.4c35.3-8.7,71-14,106.8-15.5c15.4-0.8,30.8-0.8,46.1-0.1C1142.2,1666.8,1142.4,1669,1142,1673.7z"/>
	<path class="st21" d="M719.3,1347.6c-7.3,4.1-18.5,1.3-25.5-3c-16.4-9.9-33.5-23.7-49-26.2c-2-0.4,3.1-13.7,2.8-15.8
		c-0.3-3,2.8-9.9,5.9-10.4s5.8,5,8.3,6.4c14.5,7.3,26.4,20.5,42.4,23.1c7.2,1,18.6-1.2,22.6,6.2
		C729.9,1334,724.5,1344.6,719.3,1347.6z"/>
	<path class="st21" d="M739.3,1205.1c-7.3,4.1-18.5,1.3-25.5-3c-16.4-9.9-44.4-22.6-62.8-27.2c-6.8-1.7,16.9-12.7,16.7-14.7
		c-0.3-3,2.6-5.6,5.5-6.1c3-0.5,6,0.8,8.7,2c14.5,7.3,26.4,20.5,42.4,23.1c7.2,1,18.6-1.2,22.6,6.2
		C749.9,1191.5,744.4,1202.3,739.3,1205.1z"/>
	<path class="st9" d="M609.3,1293.8c4.4,9.8,31.3,57.7,31.3,57.7l7.8-52.9c1.2-0.3,0.9,0.1,1.9,0.8c13.8,8.1,26.9,17.6,39,28.2
		c4.4,4,8.8,8,14.2,10.4c5.5,2.3,12.3,2.4,16.7-1.4c6.7-5.8,5.3-16.4,1.9-24.6c-8.1-20.1-64.6-89-76.6-93.3
		c-6.2-2.3-13.2-2.8-19.2-0.1c-3.2,1.5-5.9,4-8.3,6.4C604.9,1238.7,594.8,1262.1,609.3,1293.8z"/>
	<path class="st9" d="M633.1,1154.5c0.8,10.6,28.3,53.1,28.3,53.1s5.8-39.2,6.3-43.2c0.4-2.2,0.8-4.8,2.6-5.4c0.1,0,0.3-0.1,0.4-0.1
		c1.2-0.3,2.4,0.4,3.3,0.9c13.8,8.1,26.9,17.6,39,28.2c4.4,4,8.8,8,14.2,10.4c5.5,2.3,12.3,2.4,16.7-1.4c6.7-5.8,5.3-16.4,1.9-24.6
		c-8.1-20.1-22.7-36.5-37-52.7c-8.5-9.5-17.3-19.4-29.2-23.7c-6.2-2.3-13.2-2.8-19.2-0.1c-3.2,1.5-5.9,4-8.3,6.4
		C638.9,1116.4,631.8,1135.6,633.1,1154.5z"/>
	<path class="st21" d="M679.1,1458.7c-5.1,3.6-11.9,4.3-18.1,3.2c-6.2-1-11.9-3.8-17.4-6.9c-2.3-1.3-4.5-2.6-7.1-2.7
		c-4.2-0.3-7.8,2.8-10.9,5.8c-1.7-4.5-1.5-9.5-0.9-14.2c0.5-3.6,1.2-7.3,3.1-10.4c1.9-3.1,5.3-5.5,8.8-5.5c3.7,0,6.9,2.6,10,4.6
		c6.8,4.4,14.9,6.8,22.9,7.1C682.4,1440,695.3,1447.8,679.1,1458.7z"/>
	<path class="st9" d="M595.7,1431.4c0.8,10.6,25.7,54.5,25.7,54.5s1.8-12.7,4.3-27.4l4-19c0.6-2.2,1.5-3.2,3.7-3.7
		c0.5-0.1,0.9,0,1.4,0.1c0.8,0.3,1.4,0.6,2,0.9c13.8,8.1,24,12.6,29.5,14.9c5.5,2.3,12.3,2.4,16.7-1.4c6.7-5.8,5.3-16.4,1.9-24.6
		c-8.1-20.1-30.6-48.2-42.6-52.6c-6.2-2.3-13.2-2.8-19.2-0.1c-3.2,1.5-5.9,4-8.3,6.4C601.5,1393.2,594.4,1412.6,595.7,1431.4z"/>
	<g>
		<g>
			<path class="st22" d="M638.9,1439.7L638.9,1439.7L638.9,1439.7L638.9,1439.7z"/>
		</g>
	</g>
	<path class="st10" d="M634.1,1295.2c1,5.5,3,10.9,5.4,15.9c1.4,2.8,3.5,5.8,6.2,7.4l2.6-19.9c0-1.7-3.5-2.8-8-6.3
		c-0.9-0.6-1.8-1.3-2.7-1.5c-1-0.3-2.3-0.1-3,0.6C633.6,1292.3,633.9,1293.8,634.1,1295.2z"/>
	<path class="st10" d="M620.8,1452.1c1.2,2.4,2.7,4.8,4.9,6.4l4-19c0.6-2.2,1.5-3.2,3.7-3.7c0.5-0.1,0.9,0,1.4,0.1
		c-1.4-1.7-2.6-1.4-10.1-4.9C609.3,1424.2,618.4,1447.1,620.8,1452.1z"/>
	<path class="st10" d="M657.1,1160.1c0.9,4.5,2.4,9,4.4,13.1c1.2,2.4,1.7,5,3.8,6.4l0.4-1.5c0.8-4.9,1.4-9.6,2-13.7
		c0.4-2.2,0.8-4.8,2.6-5.4c-0.4-1.2-12.4-2.7-13.1-2.2C656.7,1157.8,656.8,1159,657.1,1160.1z"/>
	<path class="st23" d="M678.4,1427.7c1.3,3.7,2,8.5-0.9,11.1c-1.5,1.4-3.8,1.9-6,1.7c-4.1-0.4-7.7-2.7-11-5c-2.6-1.7-5-3.3-7.6-5
		c-1.2-0.9-2.4-1.7-3.2-2.8c-1.4-2.3-0.8-5.4,0.9-7.6c1.5-2.2,4-3.6,6.2-5c5.3-3.2,9.4-8.3,13.7-2.6
		C674,1417.1,676.6,1422.4,678.4,1427.7z"/>
	<path class="st23" d="M719.3,1319c1.3,3.7,2,8.5-0.9,11.1c-1.5,1.4-3.8,1.9-6,1.7c-4.1-0.4-7.7-2.7-11-5c-2.6-1.7-5-3.3-7.6-5
		c-1.2-0.9-2.4-1.7-3.2-2.8c-1.4-2.3-0.8-5.4,0.9-7.6c1.5-2.2,4-3.6,6.2-5c5.3-3.2,9.4-8.3,13.7-2.6
		C714.9,1308.2,717.4,1313.6,719.3,1319z"/>
	<path class="st23" d="M741.2,1173.4c1.4,4.1,2.2,9.2-0.9,12.1c-1.7,1.5-4.2,2-6.4,1.8c-4.4-0.4-8.2-3-11.9-5.4
		c-2.7-1.8-5.4-3.7-8.1-5.5c-1.3-0.9-2.6-1.8-3.5-3.1c-1.5-2.6-0.9-5.9,0.9-8.1c1.7-2.4,4.3-4,6.7-5.4c5.8-3.5,10-9.1,14.9-2.8
		C736.5,1161.9,739.3,1167.7,741.2,1173.4z"/>
	<path class="st9" d="M979.3,1619.6c0.1,70.1,20.8,188.9,120.1,133.8c21.8-12.1,33.7-36.5,42.4-59.5c11-28.9,26.3-106.7,26.7-137.6
		c0.5-44.7-6.9-88.9-14.2-133c-10.1-61.8-4.5-129.5,3.3-180.1c3.8-25,8.2-45.9,11.5-59.9c0.1-0.6,0.3-1.2,0.3-1.7
		c0-3-1.9-5.9-4.9-6.8c-15.3-5.3-33.7,0.9-45.6,12.4c-13.6,13.1-20.5,31.3-26.4,49.2c-19.1,57.8-29.5,180.6-64.5,230.5
		C995.4,1512.8,979.2,1597.2,979.3,1619.6z"/>
	<path class="st23" d="M1141.4,1241.9c0.8,0.8,1.8,0.9,2.8,0.9c6.2,0.9,9.8,1.4,12.4,0.4c3.8-25,8.2-45.9,11.5-59.9
		c0.1-0.6,0.3-1.2,0.3-1.7c-1.3-0.5-2.8-0.4-4.1,0.3c-2,0.9-3.5,2.6-4.8,4.2c-11.4,14.7-15.1,33.3-18.7,51.3
		C1140.4,1239.1,1140.2,1240.9,1141.4,1241.9z"/>
</g>
<g class="st0">
	<path class="st7" d="M372.9,817.4l161.6,0.3c1.2,0,2.2-0.9,2.4-2l14-92.7c-1.1-2.8-4.2-7.2-5.7-7.2l-157.8,3.8
		c-1.2,0-2.2,0.9-2.4,2l-17.7,89.8C367,812.9,371.5,817.4,372.9,817.4z"/>
	<path class="st4" d="M369.4,811.7l159.8,0.3c1.2,0,2.2-0.8,2.3-2l14.3-92.3c0.2-1.4-0.9-2.7-2.3-2.7H383.7c-1.2,0-2.1,0.8-2.3,2
		l-14.3,92C366.8,810.4,367.9,811.7,369.4,811.7z"/>
	<path class="st24" d="M369.2,812.6l160,0.3c1.2,0,2.2-0.8,2.3-2l1.9-12.4H368.6l-1.8,11.4C366.6,811.3,367.7,812.6,369.2,812.6z"/>
	<path class="st25" d="M468.6,742c-8.1-8.6-22.6-8.1-32.6,1.1s-11.5,23.8-3.4,32.4c8.1,8.6,22.6,8.1,32.6-1.1
		C475.2,765.1,476.7,750.6,468.6,742z M444.7,767.1l2.5-17.3c0.1-0.3,0.5-0.5,0.7-0.3l11.7,10c0.2,0.2,0.2,0.6-0.1,0.7l-14.2,7.3
		C445,767.7,444.6,767.4,444.7,767.1z"/>
	<path class="st26" d="M375.8,806.6c-0.5,0-0.9-0.4-0.9-0.9s0.4-0.9,0.9-0.9l149-0.7l0,0c0.5,0,0.9,0.4,0.9,0.9s-0.4,0.9-0.9,0.9
		L375.8,806.6L375.8,806.6z"/>
	<path class="st4" d="M375.8,806.6c-0.5,0-0.9-0.4-0.9-0.9s0.4-0.9,0.9-0.9l68.3-0.2l0,0c0.5,0,0.9,0.4,0.9,0.9s-0.4,0.9-0.9,0.9
		L375.8,806.6L375.8,806.6z"/>
</g>
<g class="st0">
	<path class="st7" d="M87.5,1167.9l104.3,0.1c1.4,0,2.5-1,2.7-2.4l9.1-59.2c0.3-1.7-3.1-4.9-4.7-4.9l-102.2,1.7
		c-1.4,0-2.5,1-2.7,2.4l-11.4,57.8C82.3,1165.1,85.8,1167.9,87.5,1167.9z"/>
	<path class="st4" d="M84.9,1165.3l104.3,0.1c1.4,0,2.5-1,2.7-2.4l9.1-59.2c0.3-1.7-1.1-3.2-2.7-3.2H94.1c-1.4,0-2.5,1-2.7,2.4
		l-9.2,59.1C81.8,1163.7,83.2,1165.3,84.9,1165.3z"/>
	<path class="st27" d="M90.3,1108.1l110.1,0.2l0.7-4.5c0.3-1.7-1-3.2-2.7-3.2H93.9c-1.4,0-2.5,1-2.7,2.3L90.3,1108.1z"/>
	<path class="st28" d="M89.4,1157.9l23.1,0.2c0.3,0,0.5-0.2,0.6-0.5l7-42.9c0.1-0.4-0.2-0.6-0.6-0.6H96.4c-0.3,0-0.5,0.2-0.6,0.5
		l-7,42.8C88.7,1157.6,89,1157.9,89.4,1157.9z"/>
	<path class="st29" d="M122.2,1135l66.5,0.2c0.3,0,0.5-0.2,0.6-0.5l3.3-20.1c0.1-0.4-0.2-0.6-0.6-0.6l-66.5-0.1
		c-0.3,0-0.5,0.2-0.6,0.5l-3.3,19.9C121.6,1134.6,121.8,1135,122.2,1135z"/>
	<g>
		<path class="st30" d="M147.4,1141.7h-25.9c-0.6,0-1.2-0.5-1.2-1.2c0-0.6,0.5-1.2,1.2-1.2h25.9c0.6,0,1.2,0.5,1.2,1.2
			C148.6,1141.2,148.1,1141.7,147.4,1141.7z"/>
		<path class="st30" d="M146.3,1147.1h-25.9c-0.6,0-1.2-0.5-1.2-1.2s0.5-1.2,1.2-1.2h25.9c0.6,0,1.2,0.5,1.2,1.2
			S146.9,1147.1,146.3,1147.1z"/>
		<path class="st30" d="M145.4,1152.6h-25.9c-0.6,0-1.2-0.5-1.2-1.2s0.5-1.2,1.2-1.2h25.9c0.6,0,1.2,0.5,1.2,1.2
			C146.6,1152.1,146.1,1152.6,145.4,1152.6z"/>
		<path class="st30" d="M144.8,1158.1h-25.9c-0.6,0-1.2-0.5-1.2-1.2s0.5-1.2,1.2-1.2h25.9c0.6,0,1.2,0.5,1.2,1.2
			C146,1157.6,145.4,1158.1,144.8,1158.1z"/>
	</g>
	<g>
		<path class="st30" d="M186.3,1141.7h-25.9c-0.6,0-1.2-0.5-1.2-1.2c0-0.6,0.5-1.2,1.2-1.2h25.9c0.6,0,1.2,0.5,1.2,1.2
			C187.4,1141.2,186.9,1141.7,186.3,1141.7z"/>
		<path class="st30" d="M185.1,1147.1h-25.9c-0.6,0-1.2-0.5-1.2-1.2s0.5-1.2,1.2-1.2h25.9c0.6,0,1.2,0.5,1.2,1.2
			S185.8,1147.1,185.1,1147.1z"/>
		<path class="st30" d="M184.3,1152.6h-25.9c-0.6,0-1.2-0.5-1.2-1.2s0.5-1.2,1.2-1.2h25.9c0.6,0,1.2,0.5,1.2,1.2
			C185.4,1152.1,184.9,1152.6,184.3,1152.6z"/>
		<path class="st30" d="M183.7,1158.1h-25.9c-0.6,0-1.2-0.5-1.2-1.2s0.5-1.2,1.2-1.2h25.9c0.6,0,1.2,0.5,1.2,1.2
			C184.8,1157.6,184.3,1158.1,183.7,1158.1z"/>
	</g>
	<path class="st4" d="M98.2,1103c-0.1-0.1-0.3-0.1-0.4,0l-1,0.9l-1-1.1c-0.1-0.1-0.3-0.1-0.4,0c-0.1,0.1-0.1,0.3,0,0.4l1,1.1l-1.1,1
		c-0.1,0.1-0.1,0.3,0,0.4c0.1,0.1,0.1,0.1,0.2,0.1s0.1,0,0.2-0.1l1.1-1l0.9,1c0.1,0.1,0.3,0.1,0.4,0c0.1-0.1,0.1-0.1,0.1-0.2
		c0-0.1,0-0.1-0.1-0.2l-0.9-1l1-0.9C98.2,1103.4,98.2,1103.2,98.2,1103z"/>
</g>
<g class="st0">
	<path class="st7" d="M1454.9,881.4l100.5,0.2c1.3,0,2.5-1,2.7-2.3l8.8-57.1c0.3-1.6-3-4.7-4.6-4.7l-98.5,1.6c-1.3,0-2.4,1-2.7,2.3
		l-10.9,55.7C1449.9,878.8,1453.2,881.4,1454.9,881.4z"/>
	<path class="st4" d="M1452.3,878.9l100.5,0.2c1.3,0,2.5-1,2.7-2.3l8.8-57.1c0.3-1.6-1-3.1-2.7-3.1h-100.5c-1.3,0-2.4,1-2.7,2.3
		l-8.8,56.9C1449.4,877.4,1450.7,878.9,1452.3,878.9z"/>
	<path class="st27" d="M1457.6,823.8l106.1,0.2l0.7-4.3c0.3-1.6-1-3.1-2.6-3.1h-100.7c-1.3,0-2.4,1-2.6,2.2L1457.6,823.8z"/>
	<path class="st28" d="M1525.6,871.8l22.3,0.2c0.3,0,0.5-0.2,0.5-0.5l6.8-41.4c0.1-0.3-0.2-0.6-0.5-0.6h-22.3
		c-0.3,0-0.5,0.2-0.5,0.5l-6.8,41.2C1525,871.5,1525.3,871.8,1525.6,871.8z"/>
	<path class="st29" d="M1458.4,849.7l64,0.2c0.3,0,0.5-0.2,0.5-0.5l3.2-19.3c0.1-0.3-0.2-0.6-0.5-0.6h-64c-0.3,0-0.5,0.2-0.5,0.5
		l-3.2,19.2C1457.8,849.4,1458.1,849.7,1458.4,849.7z"/>
	<g>
		<path class="st30" d="M1482.8,856.2h-25c-0.6,0-1.1-0.5-1.1-1.1c0-0.6,0.5-1.1,1.1-1.1h25c0.6,0,1.1,0.5,1.1,1.1
			C1483.9,855.7,1483.4,856.2,1482.8,856.2z"/>
		<path class="st30" d="M1481.6,861.5h-25c-0.6,0-1.1-0.5-1.1-1.1c0-0.6,0.5-1.1,1.1-1.1h25c0.6,0,1.1,0.5,1.1,1.1
			C1482.8,860.9,1482.3,861.5,1481.6,861.5z"/>
		<path class="st30" d="M1480.8,866.7h-25c-0.6,0-1.1-0.5-1.1-1.1c0-0.6,0.5-1.1,1.1-1.1h25c0.6,0,1.1,0.5,1.1,1.1
			C1481.9,866.2,1481.4,866.7,1480.8,866.7z"/>
		<path class="st30" d="M1480.2,872h-25c-0.6,0-1.1-0.5-1.1-1.1c0-0.6,0.5-1.1,1.1-1.1h25c0.6,0,1.1,0.5,1.1,1.1
			C1481.3,871.5,1480.8,872,1480.2,872z"/>
	</g>
	<g>
		<path class="st30" d="M1516,856.2h-25c-0.6,0-1.1-0.5-1.1-1.1c0-0.6,0.5-1.1,1.1-1.1h25c0.6,0,1.1,0.5,1.1,1.1
			C1517.1,855.7,1516.6,856.2,1516,856.2z"/>
		<path class="st30" d="M1514.8,861.5h-25c-0.6,0-1.1-0.5-1.1-1.1c0-0.6,0.5-1.1,1.1-1.1h25c0.6,0,1.1,0.5,1.1,1.1
			C1516,860.9,1515.4,861.5,1514.8,861.5z"/>
		<path class="st30" d="M1514,866.7h-25c-0.6,0-1.1-0.5-1.1-1.1c0-0.6,0.5-1.1,1.1-1.1h25c0.6,0,1.1,0.5,1.1,1.1
			C1515.1,866.2,1514.6,866.7,1514,866.7z"/>
		<path class="st30" d="M1513.4,872h-25c-0.6,0-1.1-0.5-1.1-1.1c0-0.6,0.5-1.1,1.1-1.1h25c0.6,0,1.1,0.5,1.1,1.1
			C1514.5,871.5,1514,872,1513.4,872z"/>
	</g>
	<path class="st4" d="M1465.1,819c-0.1-0.1-0.3-0.1-0.4,0l-1,0.9l-1-1.1c-0.1-0.1-0.3-0.1-0.4,0c-0.1,0.1-0.1,0.3,0,0.4l1,1.1
		l-1.1,1c-0.1,0.1-0.1,0.3,0,0.4c0.1,0.1,0.1,0.1,0.2,0.1c0.1,0,0.1,0,0.2-0.1l1.1-1l0.9,1c0.1,0.1,0.3,0.1,0.4,0
		c0.1-0.1,0.1-0.1,0.1-0.2c0-0.1,0-0.1-0.1-0.2l-0.9-1l1-0.9C1465.2,819.3,1465.2,819.1,1465.1,819z"/>
</g>
<g class="st0">
	<path class="st7" d="M559.7,979.7l-38.9,250c-0.2,1.2-1.3,2.2-2.5,2.2l-95.3-0.2c-1.3,0-6.2-4.4-6.7-5.9c0.5,0.6,1.2,0.9,2,0.9
		l95.3,0.2c1.3,0,2.3-0.9,2.5-2.2l38.3-246l0,0l0.6-4c0.1-0.7-0.1-1.4-0.5-1.9C556,973.9,559.8,978.6,559.7,979.7z"/>
	<path class="st7" d="M555,974.8l-0.6,4l0,0l-38.3,246c-0.2,1.2-1.3,2.2-2.5,2.2l-95.3-0.2c-0.8,0-1.5-0.4-2-0.9l0,0
		c-0.1-0.2-0.1-0.5-0.1-0.7l40.5-246.5l0.4-2.2c0.2-1.2,1.3-2.2,2.5-2.2l42.1-0.9l51.4-1.1c0.4,0,1,0.3,1.5,0.7
		C554.9,973.4,555.1,974,555,974.8z"/>
	<path class="st4" d="M545.4,1035.8l-29.6,190.3l0.2-1.3c-0.2,1.2-1.3,2.2-2.5,2.2l-95.3-0.2c-0.8,0-1.5-0.4-2-0.9l0,0
		c-0.4-0.5-0.7-1.3-0.5-2l2.1-13.8l26.9-173.6L545.4,1035.8z"/>
	<polygon class="st28" points="553.8,981.7 544.7,1039.6 444.2,1039.5 453.5,980.9 	"/>
	<path class="st29" d="M442.3,1090.2l87.3,0.3c0.5,0,0.9-0.3,0.9-0.8l7.2-42.2c0.1-0.6-0.3-1.1-0.9-1.1l-87.3-0.1
		c-0.5,0-0.9,0.3-0.9,0.8l-7.2,41.9C441.3,1089.7,441.8,1090.2,442.3,1090.2z"/>
	<g>
		<path class="st29" d="M516.8,1097.6h-75.5c-0.6,0-1.1-0.5-1.1-1.1s0.5-1.1,1.1-1.1h75.5c0.6,0,1.1,0.5,1.1,1.1
			S517.4,1097.6,516.8,1097.6z"/>
		<path class="st29" d="M515.7,1102.6h-75.5c-0.6,0-1.1-0.5-1.1-1.1s0.5-1.1,1.1-1.1h75.5c0.6,0,1.1,0.5,1.1,1.1
			S516.3,1102.6,515.7,1102.6z"/>
		<path class="st29" d="M514.9,1107.7h-75.5c-0.6,0-1.1-0.5-1.1-1.1s0.5-1.1,1.1-1.1h75.5c0.6,0,1.1,0.5,1.1,1.1
			S515.5,1107.7,514.9,1107.7z"/>
		<path class="st29" d="M500.4,1112.7h-61.6c-0.6,0-1.1-0.5-1.1-1.1s0.5-1.1,1.1-1.1h61.6c0.6,0,1.1,0.5,1.1,1.1
			S501,1112.7,500.4,1112.7z"/>
	</g>
	<path class="st29" d="M428.9,1170.6l87.3,0.3c0.5,0,0.9-0.3,0.9-0.8l7.2-42.2c0.1-0.6-0.3-1.1-0.9-1.1l-87.3-0.1
		c-0.5,0-0.9,0.3-0.9,0.8l-7.2,41.9C427.9,1170.1,428.3,1170.6,428.9,1170.6z"/>
	<path class="st28" d="M518.2,1210.1l-2.3,14.7c-0.2,1.2-1.3,2.2-2.5,2.2l-95.3-0.2c-0.8,0-1.5-0.4-2-0.9l0,0
		c-0.4-0.5-0.7-1.3-0.5-2l2.1-13.8H518.2z"/>
	<g>
		<path class="st29" d="M503.4,1178h-75.5c-0.6,0-1.1-0.5-1.1-1.1s0.5-1.1,1.1-1.1h75.5c0.6,0,1.1,0.5,1.1,1.1S504,1178,503.4,1178z
			"/>
		<path class="st29" d="M502.3,1183.1h-75.5c-0.6,0-1.1-0.5-1.1-1.1s0.5-1.1,1.1-1.1h75.5c0.6,0,1.1,0.5,1.1,1.1
			S502.9,1183.1,502.3,1183.1z"/>
		<path class="st29" d="M501.5,1188.1H426c-0.6,0-1.1-0.5-1.1-1.1s0.5-1.1,1.1-1.1h75.5c0.6,0,1.1,0.5,1.1,1.1
			S502.1,1188.1,501.5,1188.1z"/>
		<path class="st29" d="M487,1193.1h-61.6c-0.6,0-1.1-0.5-1.1-1.1s0.5-1.1,1.1-1.1H487c0.6,0,1.1,0.5,1.1,1.1
			S487.6,1193.1,487,1193.1z"/>
	</g>
	<path class="st25" d="M521.9,1005.4h-47.2c-1.2,0-2.2-1-2.2-2.2s1-2.2,2.2-2.2h47.2c1.2,0,2.2,1,2.2,2.2S523.2,1005.4,521.9,1005.4
		z"/>
	<path class="st25" d="M514.1,1015.4h-37.3c-1.2,0-2.2-1-2.2-2.2s1-2.2,2.2-2.2h37.3c1.2,0,2.2,1,2.2,2.2S515.3,1015.4,514.1,1015.4
		z"/>
	<path class="st27" d="M555,974.8l-1.1,6.9l-100.5-0.2l1.1-7.6c0.2-1.2,1.3-2.1,2.5-2.1h95.5c0.8,0,1.6,0.4,2,1S555.1,974,555,974.8
		z"/>
	<path class="st4" d="M462.3,974.8c-0.2-0.2-0.4-0.2-0.6,0l-1.5,1.3l-1.5-1.6c-0.2-0.2-0.4-0.2-0.6,0c-0.2,0.2-0.2,0.4,0,0.6
		l1.5,1.6l-1.6,1.5c-0.2,0.2-0.2,0.4,0,0.6c0.1,0.1,0.2,0.1,0.3,0.1s0.2,0,0.3-0.1l1.6-1.5l1.3,1.4c0.2,0.2,0.4,0.2,0.6,0
		c0.1-0.1,0.1-0.2,0.1-0.3c0-0.1,0-0.2-0.1-0.3l-1.3-1.4l1.5-1.3C462.5,975.3,462.5,975,462.3,974.8z"/>
	<g>
		
			<ellipse transform="matrix(0.7315 -0.6819 0.6819 0.7315 -706.9993 637.7132)" class="st4" cx="456.2" cy="1216.5" rx="2.4" ry="2.1"/>
		
			<ellipse transform="matrix(0.7315 -0.6819 0.6819 0.7315 -705.3793 641.8896)" class="st4" cx="462.3" cy="1216.5" rx="2.4" ry="2.1"/>
		
			<ellipse transform="matrix(0.7315 -0.6819 0.6819 0.7315 -703.6932 646.0977)" class="st4" cx="468.5" cy="1216.5" rx="2.4" ry="2.1"/>
		
			<ellipse transform="matrix(0.7315 -0.6819 0.6819 0.7315 -702.0732 650.2742)" class="st4" cx="474.6" cy="1216.5" rx="2.4" ry="2.1"/>
	</g>
</g>
<g class="st0">
	<path class="st7" d="M1383.7,643.7l-38.9,250c-0.2,1.2-1.3,2.2-2.5,2.2l-95.3-0.2c-1.3,0-6.2-4.4-6.7-5.9c0.5,0.6,1.2,0.9,2,0.9
		l95.3,0.2c1.3,0,2.3-0.9,2.5-2.2l38.3-246l0,0l0.6-4c0.1-0.7-0.1-1.4-0.5-1.9C1380,637.9,1383.8,642.6,1383.7,643.7z"/>
	<path class="st7" d="M1379,638.8l-0.6,4l0,0l-38.3,246c-0.2,1.2-1.3,2.2-2.5,2.2l-95.3-0.2c-0.8,0-1.5-0.4-2-0.9l0,0
		c-0.1-0.2-0.1-0.5-0.1-0.7l40.5-246.5l0.4-2.2c0.2-1.2,1.3-2.2,2.5-2.2l42.1-0.9l51.4-1.1c0.4,0,1,0.3,1.5,0.7
		C1378.9,637.4,1379.1,638,1379,638.8z"/>
	<path class="st4" d="M1369.4,699.8l-29.6,190.3l0.2-1.3c-0.2,1.2-1.3,2.2-2.5,2.2l-95.3-0.2c-0.8,0-1.5-0.4-2-0.9l0,0
		c-0.4-0.5-0.7-1.3-0.5-2l2.1-13.8l26.9-173.6L1369.4,699.8z"/>
	<polygon class="st28" points="1377.8,645.7 1368.7,703.6 1268.2,703.5 1277.5,644.9 	"/>
	<path class="st29" d="M1266.3,754.2l87.3,0.3c0.5,0,0.9-0.3,0.9-0.8l7.2-42.2c0.1-0.6-0.3-1.1-0.9-1.1l-87.3-0.1
		c-0.5,0-0.9,0.3-0.9,0.8l-7.2,41.9C1265.3,753.7,1265.8,754.2,1266.3,754.2z"/>
	<g>
		<path class="st29" d="M1340.8,761.6h-75.5c-0.6,0-1.1-0.5-1.1-1.1s0.5-1.1,1.1-1.1h75.5c0.6,0,1.1,0.5,1.1,1.1
			S1341.4,761.6,1340.8,761.6z"/>
		<path class="st29" d="M1339.7,766.6h-75.5c-0.6,0-1.1-0.5-1.1-1.1s0.5-1.1,1.1-1.1h75.5c0.6,0,1.1,0.5,1.1,1.1
			S1340.3,766.6,1339.7,766.6z"/>
		<path class="st29" d="M1338.9,771.7h-75.5c-0.6,0-1.1-0.5-1.1-1.1s0.5-1.1,1.1-1.1h75.5c0.6,0,1.1,0.5,1.1,1.1
			S1339.5,771.7,1338.9,771.7z"/>
		<path class="st29" d="M1324.4,776.7h-61.6c-0.6,0-1.1-0.5-1.1-1.1s0.5-1.1,1.1-1.1h61.6c0.6,0,1.1,0.5,1.1,1.1
			S1325,776.7,1324.4,776.7z"/>
	</g>
	<path class="st29" d="M1252.9,834.6l87.3,0.3c0.5,0,0.9-0.3,0.9-0.8l7.2-42.2c0.1-0.6-0.3-1.1-0.9-1.1l-87.3-0.1
		c-0.5,0-0.9,0.3-0.9,0.8l-7.2,41.9C1251.9,834.1,1252.3,834.6,1252.9,834.6z"/>
	<path class="st28" d="M1342.2,874.1l-2.3,14.7c-0.2,1.2-1.3,2.2-2.5,2.2l-95.3-0.2c-0.8,0-1.5-0.4-2-0.9l0,0
		c-0.4-0.5-0.7-1.3-0.5-2l2.1-13.8H1342.2z"/>
	<g>
		<path class="st29" d="M1327.4,842h-75.5c-0.6,0-1.1-0.5-1.1-1.1s0.5-1.1,1.1-1.1h75.5c0.6,0,1.1,0.5,1.1,1.1S1328,842,1327.4,842z
			"/>
		<path class="st29" d="M1326.3,847.1h-75.5c-0.6,0-1.1-0.5-1.1-1.1s0.5-1.1,1.1-1.1h75.5c0.6,0,1.1,0.5,1.1,1.1
			S1326.9,847.1,1326.3,847.1z"/>
		<path class="st29" d="M1325.5,852.1H1250c-0.6,0-1.1-0.5-1.1-1.1s0.5-1.1,1.1-1.1h75.5c0.6,0,1.1,0.5,1.1,1.1
			S1326.1,852.1,1325.5,852.1z"/>
		<path class="st29" d="M1311,857.1h-61.6c-0.6,0-1.1-0.5-1.1-1.1s0.5-1.1,1.1-1.1h61.6c0.6,0,1.1,0.5,1.1,1.1
			S1311.6,857.1,1311,857.1z"/>
	</g>
	<path class="st25" d="M1345.9,669.4h-47.2c-1.2,0-2.2-1-2.2-2.2s1-2.2,2.2-2.2h47.2c1.2,0,2.2,1,2.2,2.2S1347.2,669.4,1345.9,669.4
		z"/>
	<path class="st25" d="M1338.1,679.4h-37.3c-1.2,0-2.2-1-2.2-2.2s1-2.2,2.2-2.2h37.3c1.2,0,2.2,1,2.2,2.2S1339.3,679.4,1338.1,679.4
		z"/>
	<path class="st27" d="M1379,638.8l-1.1,6.9l-100.5-0.2l1.1-7.6c0.2-1.2,1.3-2.1,2.5-2.1h95.5c0.8,0,1.6,0.4,2,1
		S1379.1,638,1379,638.8z"/>
	<path class="st4" d="M1286.3,638.8c-0.2-0.2-0.4-0.2-0.6,0l-1.5,1.3l-1.5-1.6c-0.2-0.2-0.4-0.2-0.6,0c-0.2,0.2-0.2,0.4,0,0.6
		l1.5,1.6l-1.6,1.5c-0.2,0.2-0.2,0.4,0,0.6c0.1,0.1,0.2,0.1,0.3,0.1s0.2,0,0.3-0.1l1.6-1.5l1.3,1.4c0.2,0.2,0.4,0.2,0.6,0
		c0.1-0.1,0.1-0.2,0.1-0.3c0-0.1,0-0.2-0.1-0.3l-1.3-1.4l1.5-1.3C1286.5,639.3,1286.5,639,1286.3,638.8z"/>
	<g>
		
			<ellipse transform="matrix(0.7315 -0.6819 0.6819 0.7315 -256.622 1109.3506)" class="st4" cx="1280.2" cy="880.5" rx="2.4" ry="2.1"/>
		
			<ellipse transform="matrix(0.7315 -0.6819 0.6819 0.7315 -255.002 1113.527)" class="st4" cx="1286.3" cy="880.5" rx="2.4" ry="2.1"/>
		
			<ellipse transform="matrix(0.7315 -0.6819 0.6819 0.7315 -253.3159 1117.7351)" class="st4" cx="1292.5" cy="880.5" rx="2.4" ry="2.1"/>
		
			<ellipse transform="matrix(0.7315 -0.6819 0.6819 0.7315 -251.6959 1121.9115)" class="st4" cx="1298.6" cy="880.5" rx="2.4" ry="2.1"/>
	</g>
</g>
<g class="st0">
	<g>
		<path class="st7" d="M285.9,862.4l-9.5,62.7c-0.1,0.8-0.8,1.4-1.6,1.4l-60.3-0.2c-2.9-0.4-3.9-4.1-3.8-5.1l0.1,0.5
			c0.3,0.4,0.8,0.7,1.3,0.7H224l30.3,0.1l16.9,0.1c0.8,0,1.5-0.6,1.6-1.4l9.7-62.5c0.1-0.5-0.1-0.9-0.3-1.2
			C283.2,857.7,285.7,860.9,285.9,862.4z"/>
		<path class="st7" d="M282.5,858.8l-9.7,62.5c-0.1,0.8-0.8,1.4-1.6,1.4l-16.9-0.1l-30.3-0.1h-11.9c-0.6,0-1.1-0.3-1.3-0.7
			l11.9-60.2c0.1-0.8,0.8-1.4,1.6-1.4l57.8-2.5h0.1C282.4,857.9,282.5,858.3,282.5,858.8z"/>
		<path class="st28" d="M282.5,858.8l-9.7,62.5c-0.1,0.8-0.8,1.4-1.6,1.4l-16.9-0.1l-30.3-0.1h-11.9c-0.6,0-1.1-0.3-1.3-0.7
			c-0.2-0.3-0.3-0.7-0.2-1.1l9.7-62.3c0.1-0.8,0.8-1.4,1.6-1.4H281c0.5,0,1,0.2,1.2,0.6C282.4,857.9,282.5,858.3,282.5,858.8z"/>
	</g>
	
		<ellipse transform="matrix(0.7315 -0.6819 0.6819 0.7315 -531.3063 404.282)" class="st4" cx="247.6" cy="876.7" rx="11.3" ry="9.8"/>
	<path class="st4" d="M257,905.8l-2.7,16.7l-30.3-0.1l1.9-16.6c0.6-4.3,2.9-8.2,6.1-11c3.2-2.8,7.3-4.6,11.6-4.6
		C252.2,890.3,258.2,897.3,257,905.8z"/>
</g>
<g class="st0">
	<g>
		<path class="st7" d="M1306.3,1232.2l-9.5,62.7c-0.1,0.8-0.8,1.4-1.6,1.4l-60.3-0.2c-2.9-0.4-3.9-4.1-3.8-5.1l0.1,0.5
			c0.3,0.4,0.8,0.7,1.3,0.7h11.9l30.3,0.1l16.9,0.1c0.8,0,1.5-0.6,1.6-1.4l9.7-62.5c0.1-0.5-0.1-0.9-0.3-1.2
			C1303.6,1227.5,1306.1,1230.7,1306.3,1232.2z"/>
		<path class="st7" d="M1302.9,1228.6l-9.7,62.5c-0.1,0.8-0.8,1.4-1.6,1.4l-16.9-0.1l-30.3-0.1h-11.9c-0.6,0-1.1-0.3-1.3-0.7
			l11.9-60.2c0.1-0.8,0.8-1.4,1.6-1.4l57.8-2.5h0.1C1302.8,1227.7,1302.9,1228.1,1302.9,1228.6z"/>
		<path class="st28" d="M1302.9,1228.6l-9.7,62.5c-0.1,0.8-0.8,1.4-1.6,1.4l-16.9-0.1l-30.3-0.1h-11.9c-0.6,0-1.1-0.3-1.3-0.7
			c-0.2-0.3-0.3-0.7-0.2-1.1l9.7-62.3c0.1-0.8,0.8-1.4,1.6-1.4h59.1c0.5,0,1,0.2,1.2,0.6C1302.8,1227.7,1302.9,1228.1,1302.9,1228.6
			z"/>
	</g>
	
		<ellipse transform="matrix(0.7315 -0.6819 0.6819 0.7315 -509.4556 1199.3672)" class="st4" cx="1268" cy="1246.5" rx="11.3" ry="9.8"/>
	<path class="st4" d="M1277.4,1275.6l-2.7,16.7l-30.3-0.1l1.9-16.6c0.6-4.3,2.9-8.2,6.1-11c3.2-2.8,7.3-4.6,11.6-4.6
		C1272.6,1260.1,1278.6,1267.1,1277.4,1275.6z"/>
</g>
<g class="st0">
	<path class="st7" d="M981.2,299.8C981.2,299.8,981.1,299.8,981.2,299.8l-55,1c-0.3,0-0.6,0.2-0.7,0.6l-4.9,24.4v-0.2
		c-0.1,0.4,1.2,3,2.3,3.2h6.7c1,0,1-0.1,0.8,0.8l-1.5,7.5c-0.1,0.7,1.8,2.9,2.8,2.2c2.8-2,8.4-7.3,11.3-9.9c0.4-0.4,0.9-0.6,1.4-0.6
		l34.5,0.1c0.3,0,0.6-0.2,0.7-0.6l3.8-25.4C983.4,302.3,981.5,299.9,981.2,299.8z"/>
	<path class="st4" d="M981.2,299.8c-0.1-0.1-0.3-0.2-0.5-0.2h-55.5c-0.3,0-0.6,0.2-0.7,0.6l-3.9,25.2c0,0.1,0,0.3,0.1,0.4
		c0.1,0.1,0.3,0.3,0.6,0.3h4.9h2.9c0.6,0,1,0.5,0.9,1.1l-1.2,9.5c-0.1,0.7,0.7,1.1,1.2,0.7c3-2.5,10.2-8.8,12.4-10.6
		c0.4-0.4,0.9-0.5,1.4-0.5h33.2c0.3,0,0.6-0.2,0.7-0.6l3.9-25.3C981.3,300.2,981.2,300,981.2,299.8z"/>
	
		<ellipse transform="matrix(0.7315 -0.6819 0.6819 0.7315 38.1781 721.6329)" class="st2" cx="935.3" cy="312.3" rx="3.6" ry="3.2"/>
	<ellipse transform="matrix(0.7315 -0.6819 0.6819 0.7315 42.264 731.7778)" class="st2" cx="950.2" cy="312.2" rx="3.6" ry="3.2"/>
	
		<ellipse transform="matrix(0.7315 -0.6819 0.6819 0.7315 46.3979 741.9457)" class="st2" cx="965.2" cy="312.1" rx="3.6" ry="3.2"/>
</g>
<g class="st0">
	<path class="st7" d="M895,683.5L895,683.5l-110.4,2c-0.7,0-1.3,0.3-1.3,1l-9.8,48.8V735c0,0.7,2.3,6.2,4.6,6.2h13.7
		c2,0,2-0.3,1.6,1.6l-2.9,15c-0.3,1.3,3.6,5.9,5.5,4.2c5.5-4.2,16.9-14.6,22.8-19.9c0.7-0.7,2-1,2.9-1h69c0.7,0,1.3-0.3,1.3-1
		l7.8-50.8C899.6,688.4,895.7,683.5,895,683.5z"/>
	<path class="st28" d="M895,683.5c-0.3-0.3-0.7-0.7-1-0.7H782.4c-0.7,0-1.3,0.3-1.3,1l-7.8,50.5c0,0.3,0,0.7,0.3,1
		c0.3,0.3,0.7,0.7,1,0.7h9.8h5.9c1.3,0,2,1,2,2.3l-2.6,18.9c-0.3,1.3,1.3,2.3,2.3,1.3c5.9-5.2,20.5-17.6,24.7-21.5
		c0.7-0.7,2-1,2.9-1h66.4c0.7,0,1.3-0.3,1.3-1l7.8-50.8C895.4,684.2,895,683.9,895,683.5z"/>
	
		<ellipse transform="matrix(0.7315 -0.6819 0.6819 0.7315 -267.4678 737.8536)" class="st4" cx="803.1" cy="708.5" rx="7.5" ry="6.5"/>
	
		<ellipse transform="matrix(0.7315 -0.6819 0.6819 0.7315 -259.2334 758.1889)" class="st4" cx="833" cy="708.2" rx="7.5" ry="6.5"/>
	
		<ellipse transform="matrix(0.7315 -0.6819 0.6819 0.7315 -250.9991 778.5242)" class="st4" cx="862.9" cy="707.9" rx="7.5" ry="6.5"/>
</g>
<g class="st0">
	<path class="st7" d="M322.4,1505.5C322.4,1505.5,322.3,1505.5,322.4,1505.5l-76,1.4c-0.4,0-0.8,0.3-0.9,0.8l-6.7,33.7v-0.3
		c-0.1,0.5,1.6,4.2,3.2,4.4h9.3c1.4,0,1.4-0.2,1.1,1.1l-2.1,10.3c-0.1,0.9,2.5,4,3.9,3c3.9-2.8,11.6-10.1,15.6-13.7
		c0.6-0.5,1.3-0.8,2-0.8l47.6,0.1c0.4,0,0.8-0.3,0.9-0.8l5.3-35.1C325.5,1508.9,322.9,1505.6,322.4,1505.5z"/>
	<path class="st4" d="M322.4,1505.5c-0.2-0.2-0.4-0.3-0.7-0.3H245c-0.4,0-0.8,0.3-0.9,0.8l-5.4,34.8c0,0.2,0,0.4,0.1,0.6
		c0.2,0.2,0.4,0.4,0.8,0.4h6.7h4c0.8,0,1.4,0.7,1.3,1.5l-1.7,13.1c-0.1,0.9,0.9,1.5,1.6,0.9c4.1-3.5,14.1-12.2,17.1-14.7
		c0.6-0.5,1.3-0.7,2-0.7h45.8c0.4,0,0.8-0.3,0.9-0.8l5.4-34.9C322.6,1506,322.5,1505.7,322.4,1505.5z"/>
	<ellipse transform="matrix(0.7315 -0.6819 0.6819 0.7315 -968.7753 585.5417)" class="st2" cx="259" cy="1522.8" rx="5" ry="4.4"/>
	
		<ellipse transform="matrix(0.7315 -0.6819 0.6819 0.7315 -963.1307 599.5563)" class="st2" cx="279.7" cy="1522.6" rx="5" ry="4.4"/>
	<ellipse transform="matrix(0.7315 -0.6819 0.6819 0.7315 -957.42 613.6025)" class="st2" cx="300.3" cy="1522.4" rx="5" ry="4.4"/>
</g>
<g class="st0">
	<path class="st7" d="M1324.4,1105.5C1324.4,1105.5,1324.3,1105.5,1324.4,1105.5l-76,1.4c-0.4,0-0.8,0.3-0.9,0.8l-6.7,33.7v-0.3
		c-0.1,0.5,1.6,4.2,3.2,4.4h9.3c1.4,0,1.4-0.2,1.1,1.1l-2.1,10.3c-0.1,0.9,2.5,4,3.9,3c3.9-2.8,11.6-10.1,15.6-13.7
		c0.6-0.5,1.3-0.8,2-0.8l47.6,0.1c0.4,0,0.8-0.3,0.9-0.8l5.3-35.1C1327.5,1108.9,1324.9,1105.6,1324.4,1105.5z"/>
	<path class="st4" d="M1324.4,1105.5c-0.2-0.2-0.4-0.3-0.7-0.3H1247c-0.4,0-0.8,0.3-0.9,0.8l-5.4,34.8c0,0.2,0,0.4,0.1,0.6
		c0.2,0.2,0.4,0.4,0.8,0.4h6.7h4c0.8,0,1.4,0.7,1.3,1.5l-1.7,13.1c-0.1,0.9,0.9,1.5,1.6,0.9c4.1-3.5,14.1-12.2,17.1-14.7
		c0.6-0.5,1.3-0.7,2-0.7h45.8c0.4,0,0.8-0.3,0.9-0.8l5.4-34.9C1324.6,1106,1324.5,1105.7,1324.4,1105.5z"/>
	
		<ellipse transform="matrix(0.7315 -0.6819 0.6819 0.7315 -426.9599 1161.3666)" class="st2" cx="1261" cy="1122.8" rx="5" ry="4.4"/>
	
		<ellipse transform="matrix(0.7315 -0.6819 0.6819 0.7315 -421.3153 1175.3812)" class="st2" cx="1281.7" cy="1122.6" rx="5" ry="4.4"/>
	
		<ellipse transform="matrix(0.7315 -0.6819 0.6819 0.7315 -415.6046 1189.4274)" class="st2" cx="1302.3" cy="1122.4" rx="5" ry="4.4"/>
</g>
<g class="st0">
	<path class="st7" d="M1491.7,1503.7C1491.7,1503.7,1491.6,1503.7,1491.7,1503.7l-76,1.4c-0.4,0-0.8,0.3-0.9,0.8l-6.7,33.7v-0.3
		c-0.1,0.5,1.6,4.2,3.2,4.4h9.3c1.4,0,1.4-0.2,1.1,1.1l-2.1,10.3c-0.1,0.9,2.5,4,3.9,3c3.9-2.8,11.6-10.1,15.6-13.7
		c0.6-0.5,1.3-0.8,2-0.8l47.6,0.1c0.4,0,0.8-0.3,0.9-0.8l5.3-35.1C1494.8,1507.1,1492.2,1503.8,1491.7,1503.7z"/>
	<path class="st4" d="M1491.7,1503.7c-0.2-0.2-0.4-0.3-0.7-0.3h-76.7c-0.4,0-0.8,0.3-0.9,0.8l-5.4,34.8c0,0.2,0,0.4,0.1,0.6
		c0.2,0.2,0.4,0.4,0.8,0.4h6.7h4c0.8,0,1.4,0.7,1.3,1.5l-1.7,13.1c-0.1,0.9,0.9,1.5,1.6,0.9c4.1-3.5,14.1-12.2,17.1-14.7
		c0.6-0.5,1.3-0.7,2-0.7h45.8c0.4,0,0.8-0.3,0.9-0.8l5.4-34.9C1491.9,1504.2,1491.8,1503.9,1491.7,1503.7z"/>
	
		<ellipse transform="matrix(0.7315 -0.6819 0.6819 0.7315 -653.5724 1382.3871)" class="st2" cx="1428.4" cy="1521" rx="5" ry="4.4"/>
	
		<ellipse transform="matrix(0.7315 -0.6819 0.6819 0.7315 -647.9279 1396.4017)" class="st2" cx="1449" cy="1520.8" rx="5" ry="4.4"/>
	
		<ellipse transform="matrix(0.7315 -0.6819 0.6819 0.7315 -642.2172 1410.4479)" class="st2" cx="1469.7" cy="1520.6" rx="5" ry="4.4"/>
</g>
<g class="st0">
	<path class="st7" d="M1553.6,1222.4L1553.6,1222.4l-69.9,1.3c-0.4,0-0.8,0.3-0.8,0.7l-6.1,30.9v-0.2c-0.1,0.5,1.4,3.8,2.9,4.1h8.6
		c1.3,0,1.3-0.2,1,1.1l-1.9,9.5c-0.1,0.8,2.3,3.8,3.5,2.8c3.6-2.6,10.7-9.2,14.3-12.6c0.5-0.5,1.2-0.7,1.9-0.7l43.8,0.1
		c0.4,0,0.8-0.3,0.8-0.7l4.9-32.2C1556.4,1225.4,1554.1,1222.4,1553.6,1222.4z"/>
	<path class="st25" d="M1553.6,1222.4c-0.2-0.2-0.4-0.3-0.7-0.3h-70.6c-0.4,0-0.8,0.3-0.8,0.7l-5,32c0,0.2,0,0.4,0.2,0.6
		c0.2,0.2,0.4,0.4,0.7,0.4h6.2h3.7c0.8,0,1.4,0.7,1.2,1.4l-1.6,12.1c-0.1,0.8,0.9,1.4,1.5,0.8c3.8-3.2,13-11.2,15.7-13.6
		c0.5-0.5,1.1-0.7,1.8-0.7h42c0.4,0,0.8-0.3,0.8-0.7l5-32.1C1553.8,1222.7,1553.7,1222.5,1553.6,1222.4z"/>
	
		<ellipse transform="matrix(0.7315 -0.6819 0.6819 0.7315 -442.7664 1352.118)" class="st28" cx="1495.3" cy="1238.2" rx="4.7" ry="4.1"/>
	
		<ellipse transform="matrix(0.7315 -0.6819 0.6819 0.7315 -437.5535 1365.0421)" class="st28" cx="1514.3" cy="1238.1" rx="4.7" ry="4.1"/>
	
		<ellipse transform="matrix(0.7315 -0.6819 0.6819 0.7315 -432.317 1377.9166)" class="st28" cx="1533.3" cy="1237.8" rx="4.7" ry="4.1"/>
</g>
<path class="st8" d="M330.1,1202.9c-2,1.8-4.2,3.2-6.5,4c-5.1,1.9-10.6,1.3-14.6-1.8c-0.5-0.4-1.1-0.9-1.5-1.4
	c-5.6-6-4.5-16.1,2.4-22.5s17-6.8,22.6-0.8S337,1196.5,330.1,1202.9z"/>
<path class="st8" d="M372.6,1002.9c-2.8,2.6-6,4.5-9.3,5.7c-7.3,2.6-15.1,1.8-20.8-2.6c-0.8-0.6-1.5-1.3-2.2-2
	c-8-8.5-6.4-22.9,3.4-32.1c9.8-9.2,24.3-9.7,32.2-1.1C383.9,979.3,382.4,993.7,372.6,1002.9z"/>
<path class="st8" d="M78.4,1296c-1.3,1.3-2.9,2.2-4.5,2.7c-3.5,1.3-7.2,0.9-9.9-1.2c-0.4-0.3-0.7-0.6-1-1c-3.8-4.1-3.1-11,1.6-15.4
	c4.7-4.4,11.6-4.6,15.4-0.5C83.8,1284.7,83.1,1291.6,78.4,1296z"/>
<path class="st8" d="M829.5,446.8c-0.9,0.9-2,1.6-3.1,2c-2.4,0.9-5,0.6-6.8-0.9c-0.3-0.2-0.5-0.4-0.7-0.7c-2.6-3-2.1-8,1.1-11.2
	s8-3.4,10.6-0.4C833.2,438.6,832.7,443.6,829.5,446.8z"/>
<path class="st8" d="M1358,514c-0.9,0.9-2,1.6-3.1,2c-2.4,0.9-5,0.6-6.8-0.9c-0.3-0.2-0.5-0.4-0.7-0.7c-2.6-3-2.1-8,1.1-11.2
	s8-3.4,10.6-0.4C1361.7,505.8,1361.2,510.8,1358,514z"/>
<path class="st8" d="M342,412c-0.9,0.9-2,1.6-3.1,2c-2.4,0.9-5,0.6-6.8-0.9c-0.3-0.2-0.5-0.4-0.7-0.7c-2.6-3-2.1-8,1.1-11.2
	s8-3.4,10.6-0.4S345.2,408.8,342,412z"/>
<path class="st8" d="M574,422.8c-0.6,0.6-1.3,1-1.9,1.3c-1.5,0.6-3.1,0.4-4.3-0.6c-0.2-0.1-0.3-0.3-0.5-0.4c-1.7-1.9-1.3-5,0.7-7.1
	c2.1-2,5.1-2.1,6.7-0.2C576.4,417.6,576.1,420.7,574,422.8z"/>
<path class="st8" d="M1384.6,1095c-0.6,0.6-1.3,1-1.9,1.3c-1.5,0.6-3.1,0.4-4.3-0.6c-0.2-0.1-0.3-0.3-0.5-0.4
	c-1.7-1.9-1.3-5,0.7-7.1c2.1-2,5.1-2.1,6.7-0.2C1387,1089.8,1386.7,1092.9,1384.6,1095z"/>
<path class="st8" d="M1188,488c-0.6,0.6-1.3,1-1.9,1.3c-1.5,0.6-3.1,0.4-4.3-0.6c-0.2-0.1-0.3-0.3-0.5-0.4c-1.7-1.9-1.3-5,0.7-7.1
	c2.1-2,5.1-2.1,6.7-0.2C1190.4,482.8,1190.1,485.9,1188,488z"/>
<path class="st8" d="M1462,736.8c-0.6,0.6-1.3,1-1.9,1.3c-1.5,0.6-3.1,0.4-4.3-0.6c-0.2-0.1-0.3-0.3-0.5-0.4c-1.7-1.9-1.3-5,0.7-7.1
	c2.1-2,5.1-2.1,6.7-0.2C1464.4,731.6,1464.1,734.7,1462,736.8z"/>
<path class="st8" d="M1427.3,827c-0.6,0.6-1.3,1-1.9,1.3c-1.5,0.6-3.1,0.4-4.3-0.6c-0.2-0.1-0.3-0.3-0.5-0.4c-1.7-1.9-1.3-5,0.7-7.1
	c2.1-2,5.1-2.1,6.7-0.2C1429.7,821.8,1429.4,824.9,1427.3,827z"/>
<path class="st8" d="M113.3,1543c-0.6,0.6-1.3,1-1.9,1.3c-1.5,0.6-3.1,0.4-4.3-0.6c-0.2-0.1-0.3-0.3-0.5-0.4c-1.7-1.9-1.3-5,0.7-7.1
	c2.1-2,5.1-2.1,6.7-0.2C115.7,1537.8,115.4,1540.9,113.3,1543z"/>
<path class="st8" d="M1268,1370c-0.6,0.6-1.3,1-1.9,1.3c-1.5,0.6-3.1,0.4-4.3-0.6c-0.2-0.1-0.3-0.3-0.5-0.4c-1.7-1.9-1.3-5,0.7-7.1
	c2.1-2,5.1-2.1,6.7-0.2C1270.4,1364.8,1270.1,1367.9,1268,1370z"/>
<path class="st8" d="M1449.9,1340.7c-0.6,0.6-1.3,1-1.9,1.3c-1.5,0.6-3.1,0.4-4.3-0.6c-0.2-0.1-0.3-0.3-0.5-0.4
	c-1.7-1.9-1.3-5,0.7-7.1c2.1-2,5.1-2.1,6.7-0.2C1452.3,1335.5,1452,1338.6,1449.9,1340.7z"/>
<path class="st8" d="M724,658.8c-1.3,1.2-2.7,2-4.2,2.6c-3.3,1.2-6.8,0.8-9.4-1.2c-0.3-0.3-0.7-0.6-1-0.9
	c-3.6-3.9-2.9-10.3,1.5-14.5c4.4-4.1,11-4.4,14.6-0.5C729.1,648.2,728.4,654.7,724,658.8z"/>
<path class="st8" d="M309.6,673.4c-0.6,0.6-1.3,1-2.1,1.3c-1.6,0.6-3.4,0.4-4.6-0.6c-0.2-0.1-0.3-0.3-0.5-0.4
	c-1.8-1.9-1.4-5.1,0.8-7.2c2.2-2,5.4-2.2,7.2-0.3C312.2,668.1,311.8,671.3,309.6,673.4z"/>
<path class="st31" d="M475.2,539.2c-0.6,0.6-1.3,1-2.1,1.3c-1.6,0.6-3.4,0.4-4.6-0.6c-0.2-0.1-0.3-0.3-0.5-0.4
	c-1.8-1.9-1.4-5.1,0.8-7.2c2.2-2,5.4-2.2,7.2-0.3C477.8,533.9,477.4,537.1,475.2,539.2z"/>
<path class="st31" d="M270,564c-0.6,0.6-1.3,1-2.1,1.3c-1.6,0.6-3.4,0.4-4.6-0.6c-0.2-0.1-0.3-0.3-0.5-0.4c-1.8-1.9-1.4-5.1,0.8-7.2
	c2.2-2,5.4-2.2,7.2-0.3C272.6,558.7,272.2,561.9,270,564z"/>
<path class="st8" d="M558.2,584.3c-1.3,1.2-2.8,2.1-4.4,2.7c-3.4,1.2-7.1,0.8-9.8-1.2c-0.4-0.3-0.7-0.6-1-0.9
	c-3.8-4-3.1-10.8,1.6-15.2c4.7-4.3,11.5-4.6,15.3-0.5C563.6,573.2,562.9,579.9,558.2,584.3z"/>
<path class="st8" d="M756.5,300.4c-1.3,1.2-2.8,2.1-4.4,2.7c-3.4,1.2-7.1,0.8-9.8-1.2c-0.4-0.3-0.7-0.6-1-0.9
	c-3.8-4-3.1-10.8,1.6-15.2c4.7-4.3,11.5-4.6,15.3-0.5C761.9,289.3,761.2,296,756.5,300.4z"/>
<path class="st31" d="M817.6,573.4c-0.6,0.6-1.3,1-2.1,1.3c-1.6,0.6-3.4,0.4-4.6-0.6c-0.2-0.1-0.3-0.3-0.5-0.4
	c-1.8-1.9-1.4-5.1,0.8-7.2c2.2-2,5.4-2.2,7.2-0.3S819.8,571.3,817.6,573.4z"/>
<g class="st0">
	<path class="st4" d="M200.6,1458.6c-4.6,4.3-9.8,7.4-15.2,9.4c-11.9,4.3-24.7,2.9-33.9-4.3c-1.3-1-2.5-2.1-3.6-3.3
		c-13-14-10.5-37.5,5.5-52.5c16.1-15,39.7-15.8,52.7-1.9C219.2,1420.1,216.7,1443.6,200.6,1458.6z"/>
	
		<ellipse transform="matrix(0.7315 -0.6819 0.6819 0.7315 -923.6168 502.9102)" class="st28" cx="176.7" cy="1424.1" rx="12.7" ry="11.1"/>
	<path class="st28" d="M187.2,1456.9l-1.8,11.2c-11.9,4.3-24.7,2.9-33.9-4.3l0.8-7c0.7-4.8,3.2-9.2,6.8-12.3s8.3-5.1,13.1-5.1
		C181.9,1439.5,188.5,1447.3,187.2,1456.9z"/>
</g>
<path class="st8" d="M700.2,783.3c-5.1,4.7-10.9,8.2-17,10.3c-13.2,4.7-27.5,3.3-37.7-4.7c-1.4-1.1-2.8-2.3-4-3.7
	c-14.6-15.6-11.8-41.7,6.1-58.4c17.9-16.7,44.2-17.5,58.6-2.1C720.9,740.5,718.1,766.6,700.2,783.3z"/>
<ellipse transform="matrix(0.7315 -0.6819 0.6819 0.7315 -327.1334 659.3936)" class="st32" cx="673.6" cy="745" rx="14.2" ry="12.3"/>
<path class="st32" d="M685.3,781.6l-1.9,12.5c-13.2,4.7-27.5,3.3-37.7-4.7l0.9-7.7c0.7-5.4,3.7-10.2,7.5-13.7
	c4-3.5,9.1-5.8,14.6-5.8C679.3,762.1,686.7,770.9,685.3,781.6z"/>
<g class="st0">
	<path class="st33" d="M1536,1020.8c-3.6,3.3-7.6,5.7-11.8,7.2c-9.2,3.3-19.1,2.3-26.2-3.3c-1-0.8-1.9-1.6-2.8-2.5
		c-10.1-10.8-8.2-29,4.3-40.5c12.4-11.6,30.7-12.2,40.7-1.4C1550.4,991.1,1548.5,1009.2,1536,1020.8z"/>
	
		<ellipse transform="matrix(0.7315 -0.6819 0.6819 0.7315 -270.431 1301.7546)" class="st5" cx="1517.5" cy="994.2" rx="9.8" ry="8.5"/>
	<path class="st5" d="M1525.7,1019.5l-1.4,8.7c-9.2,3.3-19.1,2.3-26.2-3.3l0.6-5.4c0.5-3.7,2.5-7.1,5.3-9.5s6.4-4,10.1-4
		C1521.5,1006,1526.7,1012.1,1525.7,1019.5z"/>
</g>
<g class="st0">
	<path class="st33" d="M1412,1396.8c-3.6,3.3-7.6,5.7-11.8,7.2c-9.2,3.3-19.1,2.3-26.2-3.3c-1-0.8-1.9-1.6-2.8-2.5
		c-10.1-10.8-8.2-29,4.3-40.5c12.4-11.6,30.7-12.2,40.7-1.4C1426.4,1367.1,1424.5,1385.2,1412,1396.8z"/>
	
		<ellipse transform="matrix(0.7315 -0.6819 0.6819 0.7315 -560.1129 1318.1694)" class="st5" cx="1393.5" cy="1370.2" rx="9.8" ry="8.5"/>
	<path class="st5" d="M1401.7,1395.5l-1.4,8.7c-9.2,3.3-19.1,2.3-26.2-3.3l0.6-5.4c0.5-3.7,2.5-7.1,5.3-9.5s6.4-4,10.1-4
		C1397.5,1382,1402.7,1388.1,1401.7,1395.5z"/>
</g>
<g class="st0">
	<path class="st33" d="M1101.9,572.8c-3.6,3.3-7.6,5.7-11.8,7.2c-9.2,3.3-19.1,2.3-26.2-3.3c-1-0.8-1.9-1.6-2.8-2.5
		c-10.1-10.8-8.2-29,4.3-40.5c12.4-11.6,30.7-12.2,40.7-1.4C1116.3,543.1,1114.4,561.2,1101.9,572.8z"/>
	
		<ellipse transform="matrix(0.7315 -0.6819 0.6819 0.7315 -81.5206 885.4526)" class="st5" cx="1083.4" cy="546.2" rx="9.8" ry="8.5"/>
	<path class="st5" d="M1091.6,571.5l-1.4,8.7c-9.2,3.3-19.1,2.3-26.2-3.3l0.6-5.4c0.5-3.7,2.5-7.1,5.3-9.5c2.8-2.4,6.4-4,10.1-4
		C1087.4,558,1092.6,564.1,1091.6,571.5z"/>
</g>
<g class="st0">
	<path class="st33" d="M160.6,796.5c-2,1.8-4.2,3.2-6.5,4c-5.1,1.8-10.5,1.3-14.4-1.8c-0.5-0.4-1-0.9-1.5-1.4
		c-5.5-6-4.5-15.9,2.4-22.3c6.9-6.4,16.9-6.7,22.4-0.8C168.5,780.1,167.4,790.1,160.6,796.5z"/>
	
		<ellipse transform="matrix(0.7315 -0.6819 0.6819 0.7315 -492.744 312.4483)" class="st5" cx="150.3" cy="781.8" rx="5.4" ry="4.7"/>
	<path class="st5" d="M154.8,795.8l-0.8,4.8c-5.1,1.8-10.5,1.3-14.4-1.8l0.3-3c0.3-2.1,1.4-3.9,2.9-5.2s3.5-2.2,5.6-2.2
		C152.6,788.3,155.4,791.7,154.8,795.8z"/>
</g>
<g class="st0">
	<g>
		<path class="st1" d="M431.7,1394.5c-0.3-0.3-0.6-0.6-1-0.9c-3.2-2.6-7.4-4.2-12.1-4.2c-10.8,0.1-20.2,8.5-21.9,19
			c0,0.1,0,0.3-0.1,0.4c0,0.3-0.1,0.7-0.1,1c-0.3,3.3,0.3,6.4,1.4,9.2c0.4,1,0.9,2,1.5,2.9c3.3,5,9,8.2,15.7,8.2
			c5.9,0,11.4-2.6,15.5-6.6c1.7-1.7,3.2-3.7,4.3-5.9c1.2-2.5,2-5.2,2.3-8C437.8,1403.6,435.6,1398.2,431.7,1394.5z"/>
		<path class="st2" d="M446.2,1438.5c0.4-0.4,0.7-0.8,1.1-1.2C446.9,1437.7,446.5,1438.1,446.2,1438.5L446.2,1438.5z"/>
		<path class="st3" d="M437.3,1409.7c-0.2,2.8-1,5.5-2.3,8l19.8,8.6c2.7-5.4,4.4-11.3,4.9-17.2c1-11.8-2.9-23-10.6-31.2l-17.5,16.6
			C435.6,1398.2,437.8,1403.6,437.3,1409.7z"/>
		<path class="st4" d="M435.1,1417.7c-1.1,2.2-2.6,4.2-4.3,5.9c-4,4-9.6,6.6-15.5,6.6c-6.7,0-12.4-3.2-15.7-8.2l-19.8,15.2
			c7.4,10.1,19.4,16,32.6,16c12.6-0.1,24.8-5.6,33.7-14.7c0.4-0.4,0.7-0.8,1.1-1.2c0.2-0.2,0.4-0.4,0.6-0.6c0.6-0.6,1.1-1.3,1.6-1.9
			c0.2-0.2,0.3-0.4,0.5-0.7c0.2-0.3,0.4-0.5,0.6-0.8c0.1-0.2,0.3-0.4,0.4-0.6c0.2-0.3,0.4-0.6,0.6-0.9c0.2-0.3,0.3-0.5,0.5-0.8
			c0.2-0.3,0.4-0.6,0.6-0.9c0.2-0.3,0.4-0.6,0.5-0.9c0.4-0.6,0.7-1.2,1.1-1.9c0.2-0.3,0.3-0.6,0.4-0.8c0.1-0.1,0.1-0.2,0.2-0.3l0,0
			L435.1,1417.7z"/>
		<path class="st5" d="M398.1,1419.2c-1.2-2.8-1.7-5.9-1.4-9.2c0-0.4,0.1-0.7,0.1-1l-24.3-0.6c-0.1,0.4-0.1,0.9-0.1,1.3
			c-0.6,7.6,0.7,15,3.9,21.4c0,0,0,0,0,0.1c0.2,0.4,0.4,0.7,0.5,1.1c0.3,0.5,0.6,1,0.9,1.6c0.2,0.3,0.4,0.7,0.6,1l0,0
			c0.2,0.3,0.4,0.6,0.6,0.9c0.1,0.1,0.1,0.2,0.2,0.3c0.2,0.3,0.5,0.7,0.7,1c0,0.1,0.1,0.1,0.1,0.2l19.8-15.2
			C399,1421.1,398.5,1420.2,398.1,1419.2z"/>
		<path class="st6" d="M396.8,1408.5c1.6-10.6,11.1-19,21.9-19c4.7,0,8.9,1.5,12.1,4.2c0.3,0.3,0.7,0.6,1,0.9l17.5-16.6
			c-0.2-0.2-0.3-0.3-0.5-0.5c-0.2-0.2-0.4-0.4-0.6-0.6c-0.1-0.1-0.1-0.1-0.2-0.2c-0.2-0.2-0.4-0.4-0.6-0.6l-0.1-0.1
			c-7.4-6.7-17.2-10.5-27.6-10.4c-23.2,0.1-44,18.7-47.1,41.7c0,0.3-0.1,0.7-0.1,1l24.3,0.6C396.7,1408.8,396.8,1408.6,396.8,1408.5
			z"/>
	</g>
	<g>
		<path class="st7" d="M428.2,1379.4c-0.2,0-0.5-0.1-0.7-0.2c-0.6-0.4-0.9-1.2-0.5-1.8l13.2-22.9h40.2c0.7,0,1.3,0.6,1.3,1.3
			c0,0.7-0.6,1.3-1.3,1.3h-38.7l-12.5,21.6C429.2,1379.2,428.7,1379.4,428.2,1379.4z"/>
		<g>
			<circle class="st7" cx="428.3" cy="1378" r="2.8"/>
		</g>
	</g>
	<path class="st4" d="M480.4,1350.2h-34.2c-1,0-1.8-0.8-1.8-1.8v-0.2c0-1,0.8-1.8,1.8-1.8h34.2c1,0,1.8,0.8,1.8,1.8v0.2
		C482.2,1349.4,481.4,1350.2,480.4,1350.2z"/>
	<g>
		<path class="st7" d="M451.4,1393.7c-0.5,0-0.9-0.2-1.2-0.7c-0.4-0.6-0.1-1.5,0.5-1.8l9.8-5.5h39.8c0.7,0,1.3,0.6,1.3,1.3
			c0,0.7-0.6,1.3-1.3,1.3h-39.1l-9.2,5.1C451.9,1393.6,451.7,1393.7,451.4,1393.7z"/>
		<g>
			<path class="st7" d="M452.9,1394.7c-1.4,0.8-3.1,0.3-3.8-1.1c-0.8-1.4-0.3-3.1,1.1-3.8c1.4-0.8,3.1-0.3,3.8,1.1
				C454.8,1392.2,454.3,1394,452.9,1394.7z"/>
		</g>
	</g>
	<path class="st4" d="M500.2,1381.4H466c-1,0-1.8-0.8-1.8-1.8v-0.2c0-1,0.8-1.8,1.8-1.8h34.2c1,0,1.8,0.8,1.8,1.8v0.2
		C502,1380.6,501.2,1381.4,500.2,1381.4z"/>
	<g>
		<path class="st7" d="M483.6,1462.5h-42.3l-10.9-18.7c-0.4-0.6-0.2-1.5,0.5-1.8c0.6-0.4,1.5-0.2,1.8,0.5l10.1,17.3h40.8
			c0.7,0,1.3,0.6,1.3,1.3C484.9,1461.9,484.3,1462.5,483.6,1462.5z"/>
		<g>
			<path class="st7" d="M429.2,1444.7c-0.8-1.3-0.3-3.1,1-3.8c1.3-0.8,3.1-0.3,3.8,1c0.8,1.3,0.3,3.1-1,3.8
				C431.7,1446.5,430,1446,429.2,1444.7z"/>
		</g>
	</g>
	<path class="st4" d="M481.3,1455.5h-34.2c-1,0-1.8-0.8-1.8-1.8v-0.2c0-1,0.8-1.8,1.8-1.8h34.2c1,0,1.8,0.8,1.8,1.8v0.2
		C483.1,1454.7,482.3,1455.5,481.3,1455.5z"/>
	<g>
		<path class="st7" d="M365.3,1442.4h-42.1c-0.7,0-1.3-0.6-1.3-1.3c0-0.7,0.6-1.3,1.3-1.3h41l18-17.9c0.5-0.5,1.4-0.5,1.9,0
			s0.5,1.4,0,1.9L365.3,1442.4z"/>
		<g>
			<path class="st7" d="M381.1,1420.9c1.1-1.1,2.9-1.1,4,0s1.1,2.9,0,4s-2.9,1.1-4,0C380,1423.7,380,1421.9,381.1,1420.9z"/>
		</g>
	</g>
	<path class="st4" d="M325.4,1435.4h34.2c1,0,1.8-0.8,1.8-1.8v-0.2c0-1-0.8-1.8-1.8-1.8h-34.2c-1,0-1.8,0.8-1.8,1.8v0.2
		C323.6,1434.6,324.4,1435.4,325.4,1435.4z"/>
</g>
<path class="st34" d="M301.1,783.7l-14.3,3.4c-1.6,0.4-2.7-1.3-1.9-2.8l4.2-7.5c0.4-0.8,0.3-1.8-0.3-2.4l-6.7-6.4
	c-1.1-1.1-0.5-3.1,1.1-3.4l14.9-3.5c1.5-0.4,2.7,1.2,2,2.6l-3.9,8.7c-0.5,1-0.3,2.2,0.5,2.9l5.4,5
	C303.3,781.3,302.7,783.3,301.1,783.7z"/>
<path class="st34" d="M484.1,644.7l-14.3,3.4c-1.6,0.4-2.7-1.3-1.9-2.8l4.2-7.5c0.4-0.8,0.3-1.8-0.3-2.4l-6.7-6.4
	c-1.1-1.1-0.5-3.1,1.1-3.4l14.9-3.5c1.5-0.4,2.7,1.2,2,2.6l-3.9,8.7c-0.5,1-0.3,2.2,0.5,2.9l5.4,5
	C486.3,642.3,485.7,644.3,484.1,644.7z"/>
<path class="st34" d="M576.7,874.7l-12.8-7.2c-1.4-0.8-1.1-2.8,0.5-3.4l8.2-2.7c0.9-0.3,1.4-1.1,1.4-1.9l-0.6-9.3
	c-0.1-1.5,1.7-2.6,3.1-1.8l13.3,7.5c1.4,0.8,1.2,2.7-0.3,3.3l-8.7,3.7c-1,0.4-1.7,1.5-1.6,2.5l0.6,7.3
	C580,874.4,578.1,875.5,576.7,874.7z"/>
<path class="st34" d="M220.1,1040.4l-17.3-8.4c-1.9-0.9-1.7-3.6,0.4-4.4l10.5-4.2c1.1-0.4,1.8-1.5,1.7-2.6l-1.5-12.1
	c-0.2-2,2-3.5,3.9-2.6l18,8.7c1.8,0.9,1.8,3.4-0.1,4.3l-11.1,5.6c-1.3,0.7-2.1,2-1.9,3.4l1.4,9.6
	C224.3,1039.8,221.9,1041.3,220.1,1040.4z"/>
<path class="st34" d="M73.5,1068.7l-18,1.1c-2,0.1-3-2.2-1.7-3.8l6.7-8.2c0.7-0.9,0.8-2.1,0.2-2.9l-6.7-9.2c-1.1-1.5,0.1-3.8,2-3.9
	l18.7-1.1c1.9-0.1,3,2,1.9,3.6L70,1054c-0.8,1.2-0.8,2.6,0,3.6l5.5,7.2C76.7,1066.3,75.5,1068.6,73.5,1068.7z"/>
<path class="st34" d="M374.9,1298.6l-17.1,0.8c-1.9,0.1-2.8-1.6-1.6-2.8l6.4-6c0.7-0.7,0.8-1.5,0.2-2.1l-6.4-6.8
	c-1-1.1,0.1-2.8,1.9-2.9l17.7-0.8c1.8-0.1,2.8,1.5,1.8,2.6l-6.3,7.1c-0.8,0.9-0.8,1.9,0,2.6l5.2,5.3
	C377.9,1296.9,376.8,1298.5,374.9,1298.6z"/>
<path class="st34" d="M207.3,718l-17.1,1c-1.9,0.1-2.8-2.1-1.6-3.6l6.4-7.8c0.7-0.9,0.8-2,0.2-2.8l-6.4-8.7c-1-1.4,0.1-3.6,1.9-3.7
	l17.7-1c1.8-0.1,2.8,1.9,1.8,3.4L204,704c-0.8,1.1-0.8,2.5,0,3.4l5.2,6.8C210.4,715.7,209.2,717.9,207.3,718z"/>
<path class="st34" d="M1393.8,1240.5l-16.9,6.4c-1.9,0.7-3.6-1.2-2.8-3.1l3.9-9.8c0.4-1,0.1-2.2-0.7-2.8l-9.2-6.8
	c-1.5-1.1-1.1-3.6,0.8-4.3l17.5-6.7c1.8-0.7,3.4,1,2.9,2.9l-3.4,11.2c-0.4,1.3,0,2.7,1.1,3.5l7.4,5.2
	C1396.1,1237.2,1395.6,1239.8,1393.8,1240.5z"/>
<path class="st34" d="M82.6,1425.6l-16.9,6.4c-1.9,0.7-3.6-1.2-2.8-3.1l3.9-9.8c0.4-1,0.1-2.2-0.7-2.8l-9.2-6.8
	c-1.5-1.1-1.1-3.6,0.8-4.3l17.5-6.7c1.8-0.7,3.4,1,2.9,2.9l-3.4,11.2c-0.4,1.3,0,2.7,1.1,3.5l7.4,5.2
	C84.8,1422.3,84.4,1424.9,82.6,1425.6z"/>
<path class="st34" d="M358.8,1122.1l-17-6.2c-1.9-0.7-1.9-3.2-0.1-4.2l9.4-4.9c1-0.5,1.5-1.6,1.3-2.6l-2.5-11.1
	c-0.4-1.8,1.6-3.5,3.4-2.8l17.6,6.4c1.8,0.7,2,3,0.3,4.1l-9.9,6.3c-1.2,0.8-1.8,2.1-1.4,3.3l2.2,8.8
	C362.6,1121,360.6,1122.7,358.8,1122.1z"/>
<g class="st0">
	<g>
		<path class="st7" d="M186.3,1309.8l104.2,0.2c0.8,0,1.5-0.6,1.6-1.4l10.1-65.3c-0.7-1.9-2.9-4.8-3.9-4.8l-101.7,2.5
			c-0.8,0-1.5,0.6-1.6,1.4l-12.7,63.4C182.3,1306.7,185.3,1309.7,186.3,1309.8z"/>
		<path class="st4" d="M298.8,1239.6l-10.3,65.1c-0.1,0.8-0.8,1.4-1.6,1.4h-10.5l-92.6-0.2c-1,0-1.7-0.9-1.6-1.8l10-63l0.3-1.9
			c0.1-0.8,0.8-1.4,1.6-1.4h103C298.2,1237.8,299,1238.6,298.8,1239.6z"/>
	</g>
	<path class="st25" d="M275.1,1297.7l-78.8-0.1c-0.8,0-1.5-0.7-1.3-1.6l6.4-41.9c6-2.7,11.7,6.1,13,8.2c1.3,2.2,5.1,8.7,9.1,12.9
		c4,4.2,6.4,5.5,8.9,5.9c3.9,0.7,7.4-2.1,11.1-3.3c4-1.4,8.5-1,12.2,1c5.3,2.8,8.4,8.3,12.4,12.8
		C270.2,1293.9,272.6,1295.9,275.1,1297.7z"/>
	<path class="st28" d="M282.4,1299.3L282.4,1299.3l-86.8-0.1c-1,0-2-0.4-2.7-1.2c-0.7-0.8-1-1.8-0.8-2.8l7.5-50.3
		c0.1-0.9,0.9-1.5,1.8-1.3c0.9,0.1,1.5,0.9,1.3,1.8l-7.5,50.3c0,0.1,0,0.2,0.1,0.3c0,0.1,0.1,0.1,0.2,0.1l86.8,0.1
		c0.9,0,1.6,0.7,1.6,1.6C284,1298.6,283.3,1299.3,282.4,1299.3z"/>
	<circle class="st35" cx="249.2" cy="1277" r="1.9"/>
	<circle class="st35" cx="205.8" cy="1253.8" r="1.9"/>
	<circle class="st35" cx="232.5" cy="1281.2" r="1.9"/>
	<circle class="st35" cx="218.5" cy="1268.4" r="1.9"/>
</g>
<g class="st0">
	<g>
		<path class="st7" d="M1323,1050.8l104.2,0.2c0.8,0,1.5-0.6,1.6-1.4l10.1-65.3c-0.7-1.9-2.9-4.8-3.9-4.8l-101.7,2.5
			c-0.8,0-1.5,0.6-1.6,1.4l-12.7,63.4C1319,1047.7,1322,1050.7,1323,1050.8z"/>
		<path class="st4" d="M1435.5,980.6l-10.3,65.1c-0.1,0.8-0.8,1.4-1.6,1.4h-10.5l-92.6-0.2c-1,0-1.7-0.9-1.6-1.8l10-63l0.3-1.9
			c0.1-0.8,0.8-1.4,1.6-1.4h103C1434.9,978.8,1435.7,979.6,1435.5,980.6z"/>
	</g>
	<path class="st25" d="M1411.8,1038.7l-78.8-0.1c-0.8,0-1.5-0.7-1.3-1.6l6.4-41.9c6-2.7,11.7,6.1,13,8.2c1.3,2.2,5.1,8.7,9.1,12.9
		s6.4,5.5,8.9,5.9c3.9,0.7,7.4-2.1,11.1-3.3c4-1.4,8.5-1,12.2,1c5.3,2.8,8.4,8.3,12.4,12.8
		C1406.9,1034.9,1409.3,1036.9,1411.8,1038.7z"/>
	<path class="st28" d="M1419.1,1040.3L1419.1,1040.3l-86.8-0.1c-1,0-2-0.4-2.7-1.2c-0.7-0.8-1-1.8-0.8-2.8l7.5-50.3
		c0.1-0.9,0.9-1.5,1.8-1.3c0.9,0.1,1.5,0.9,1.3,1.8l-7.5,50.3c0,0.1,0,0.2,0.1,0.3c0,0.1,0.1,0.1,0.2,0.1l86.8,0.1
		c0.9,0,1.6,0.7,1.6,1.6C1420.7,1039.6,1420,1040.3,1419.1,1040.3z"/>
	<circle class="st35" cx="1385.9" cy="1018" r="1.9"/>
	<circle class="st35" cx="1342.5" cy="994.8" r="1.9"/>
	<circle class="st35" cx="1369.2" cy="1022.2" r="1.9"/>
	<circle class="st35" cx="1355.2" cy="1009.4" r="1.9"/>
</g>
<path class="st8" d="M295.7,1362.4c-3.3,0-5-2.4-6.3-4.3c-1.2-1.8-1.9-2.8-3.3-2.8c-1.4,0-2.1,1-3.3,2.8c-1.3,1.9-2.9,4.3-6.3,4.3
	c-3.3,0-5-2.4-6.3-4.3c-1.2-1.8-1.9-2.8-3.3-2.8s-2.1,1-3.3,2.8c-1.3,1.9-2.9,4.3-6.3,4.3c-3.3,0-5-2.4-6.3-4.3
	c-1.2-1.8-1.9-2.8-3.3-2.8c-1,0-1.8-0.8-1.8-1.8s0.8-1.8,1.8-1.8c3.3,0,5,2.4,6.3,4.3c1.2,1.8,1.9,2.8,3.3,2.8c1.4,0,2.1-1,3.3-2.8
	c1.3-1.9,2.9-4.3,6.3-4.3s5,2.4,6.3,4.3c1.2,1.8,1.9,2.8,3.3,2.8c1.4,0,2.1-1,3.3-2.8c1.3-1.9,2.9-4.3,6.3-4.3c3.3,0,5,2.4,6.3,4.3
	c1.2,1.8,1.9,2.8,3.3,2.8c1.4,0,2.1-1,3.3-2.8c1.3-1.9,2.9-4.3,6.3-4.3c1,0,1.8,0.8,1.8,1.8s-0.8,1.8-1.8,1.8c-1.4,0-2.1,1-3.3,2.8
	C300.7,1360,299,1362.4,295.7,1362.4z"/>
<path class="st8" d="M539.7,1297.4c-3.3,0-5-2.4-6.3-4.3c-1.2-1.8-1.9-2.8-3.3-2.8c-1.4,0-2.1,1-3.3,2.8c-1.3,1.9-2.9,4.3-6.3,4.3
	c-3.3,0-5-2.4-6.3-4.3c-1.2-1.8-1.9-2.8-3.3-2.8s-2.1,1-3.3,2.8c-1.3,1.9-2.9,4.3-6.3,4.3c-3.3,0-5-2.4-6.3-4.3
	c-1.2-1.8-1.9-2.8-3.3-2.8c-1,0-1.8-0.8-1.8-1.8s0.8-1.8,1.8-1.8c3.3,0,5,2.4,6.3,4.3c1.2,1.8,1.9,2.8,3.3,2.8c1.4,0,2.1-1,3.3-2.8
	c1.3-1.9,2.9-4.3,6.3-4.3s5,2.4,6.3,4.3c1.2,1.8,1.9,2.8,3.3,2.8c1.4,0,2.1-1,3.3-2.8c1.3-1.9,2.9-4.3,6.3-4.3c3.3,0,5,2.4,6.3,4.3
	c1.2,1.8,1.9,2.8,3.3,2.8c1.4,0,2.1-1,3.3-2.8c1.3-1.9,2.9-4.3,6.3-4.3c1,0,1.8,0.8,1.8,1.8s-0.8,1.8-1.8,1.8c-1.4,0-2.1,1-3.3,2.8
	C544.7,1295,543,1297.4,539.7,1297.4z"/>
<path class="st8" d="M410.6,933.8c-3.3,0-5-2.4-6.3-4.3c-1.2-1.8-1.9-2.8-3.3-2.8c-1.4,0-2.1,1-3.3,2.8c-1.3,1.9-2.9,4.3-6.3,4.3
	c-3.3,0-5-2.4-6.3-4.3c-1.2-1.8-1.9-2.8-3.3-2.8s-2.1,1-3.3,2.8c-1.3,1.9-2.9,4.3-6.3,4.3c-3.3,0-5-2.4-6.3-4.3
	c-1.2-1.8-1.9-2.8-3.3-2.8c-1,0-1.8-0.8-1.8-1.8s0.8-1.8,1.8-1.8c3.3,0,5,2.4,6.3,4.3c1.2,1.8,1.9,2.8,3.3,2.8c1.4,0,2.1-1,3.3-2.8
	c1.3-1.9,2.9-4.3,6.3-4.3s5,2.4,6.3,4.3c1.2,1.8,1.9,2.8,3.3,2.8c1.4,0,2.1-1,3.3-2.8c1.3-1.9,2.9-4.3,6.3-4.3c3.3,0,5,2.4,6.3,4.3
	c1.2,1.8,1.9,2.8,3.3,2.8c1.4,0,2.1-1,3.3-2.8c1.3-1.9,2.9-4.3,6.3-4.3c1,0,1.8,0.8,1.8,1.8s-0.8,1.8-1.8,1.8c-1.4,0-2.1,1-3.3,2.8
	C415.6,931.4,414,933.8,410.6,933.8z"/>
<path class="st8" d="M996.7,453.1c-2.7,0-4-2-5.1-3.5c-1-1.4-1.6-2.3-2.7-2.3c-1.1,0-1.7,0.8-2.7,2.3c-1.1,1.6-2.4,3.5-5.1,3.5
	s-4-2-5.1-3.5c-1-1.4-1.6-2.3-2.7-2.3c-1.1,0-1.7,0.8-2.7,2.3c-1.1,1.6-2.4,3.5-5.1,3.5s-4-2-5.1-3.5c-1-1.4-1.6-2.3-2.7-2.3
	c-0.8,0-1.4-0.6-1.4-1.4c0-0.8,0.6-1.4,1.4-1.4c2.7,0,4,2,5.1,3.5c1,1.4,1.6,2.3,2.7,2.3s1.7-0.8,2.7-2.3c1.1-1.6,2.4-3.5,5.1-3.5
	c2.7,0,4,2,5.1,3.5c1,1.4,1.6,2.3,2.7,2.3s1.7-0.8,2.7-2.3c1.1-1.6,2.4-3.5,5.1-3.5c2.7,0,4,2,5.1,3.5c1,1.4,1.6,2.3,2.7,2.3
	s1.7-0.8,2.7-2.3c1.1-1.6,2.4-3.5,5.1-3.5c0.8,0,1.4,0.6,1.4,1.4c0,0.8-0.6,1.4-1.4,1.4c-1.1,0-1.7,0.8-2.7,2.3
	C1000.7,451.1,999.4,453.1,996.7,453.1z"/>
<path class="st8" d="M1507.1,1449.1c-5.5,0-8-4-10.1-7c-1.8-2.8-3.1-4.6-5.5-4.6c-2.1,0-3.4,1.5-5.5,4.6s-4.6,7-10.1,7s-8-4-10.1-7
	c-1.8-2.8-3.1-4.6-5.5-4.6c-2.5,0-3.4,1.5-5.5,4.6c-2.1,3.1-4.6,7-10.1,7c-5.5,0-8-4-10.1-7c-1.8-2.8-3.1-4.6-5.5-4.6
	c-1.5,0-2.8-1.2-2.8-2.8c0-1.5,1.2-2.8,2.8-2.8c5.5,0,8,4,10.1,7c1.8,2.8,3.1,4.6,5.5,4.6c2.1,0,3.4-1.5,5.5-4.6s4.6-7,10.1-7
	c5.5,0,8,4,10.1,7c1.8,2.8,3.1,4.6,5.5,4.6c2.1,0,3.4-1.5,5.5-4.6c2.1-3.1,4.6-7,10.1-7c5.5,0,8,4,10.1,7c1.8,2.8,3.1,4.6,5.5,4.6
	c2.1,0,3.4-1.5,5.5-4.6s4.6-7,10.1-7c1.5,0,2.8,1.2,2.8,2.8c0,1.5-1.2,2.8-2.8,2.8c-2.1,0-3.4,1.5-5.5,4.6
	C1515.1,1445.1,1512.4,1449.1,1507.1,1449.1z"/>
<path class="st8" d="M639.9,641.5c-4.2,0-6.3-3-7.9-5.5c-1.5-2.2-2.4-3.5-4.2-3.5c-1.7,0-2.7,1.3-4.2,3.5c-1.6,2.4-3.7,5.5-7.9,5.5
	c-4.2,0-6.3-3-7.9-5.5c-1.5-2.2-2.4-3.5-4.2-3.5s-2.7,1.3-4.2,3.5c-1.6,2.4-3.7,5.5-7.9,5.5c-4.2,0-6.3-3-7.9-5.5
	c-1.5-2.2-2.4-3.5-4.2-3.5c-1.2,0-2.2-1-2.2-2.2c0-1.2,1-2.2,2.2-2.2c4.2,0,6.3,3,7.9,5.5c1.5,2.2,2.4,3.5,4.2,3.5
	c1.7,0,2.7-1.3,4.2-3.5c1.6-2.4,3.7-5.5,7.9-5.5s6.3,3,7.9,5.5c1.5,2.2,2.4,3.5,4.2,3.5c1.7,0,2.7-1.3,4.2-3.5
	c1.6-2.4,3.7-5.5,7.9-5.5c4.2,0,6.3,3,7.9,5.5c1.5,2.2,2.4,3.5,4.2,3.5s2.7-1.3,4.2-3.5c1.6-2.4,3.7-5.5,7.9-5.5
	c1.2,0,2.2,1,2.2,2.2c0,1.2-1,2.2-2.2,2.2c-1.8,0-2.7,1.3-4.2,3.5C646.1,638.4,644.1,641.5,639.9,641.5z"/>
<path class="st8" d="M1483.7,1139.5c-4.2,0-6.3-3-7.9-5.5c-1.5-2.2-2.4-3.5-4.2-3.5c-1.7,0-2.7,1.3-4.2,3.5
	c-1.6,2.4-3.7,5.5-7.9,5.5c-4.2,0-6.3-3-7.9-5.5c-1.5-2.2-2.4-3.5-4.2-3.5s-2.7,1.3-4.2,3.5c-1.6,2.4-3.7,5.5-7.9,5.5
	c-4.2,0-6.3-3-7.9-5.5c-1.5-2.2-2.4-3.5-4.2-3.5c-1.2,0-2.2-1-2.2-2.2c0-1.2,1-2.2,2.2-2.2c4.2,0,6.3,3,7.9,5.5
	c1.5,2.2,2.4,3.5,4.2,3.5c1.7,0,2.7-1.3,4.2-3.5c1.6-2.4,3.7-5.5,7.9-5.5s6.3,3,7.9,5.5c1.5,2.2,2.4,3.5,4.2,3.5
	c1.7,0,2.7-1.3,4.2-3.5c1.6-2.4,3.7-5.5,7.9-5.5c4.2,0,6.3,3,7.9,5.5c1.5,2.2,2.4,3.5,4.2,3.5s2.7-1.3,4.2-3.5
	c1.6-2.4,3.7-5.5,7.9-5.5c1.2,0,2.2,1,2.2,2.2c0,1.2-1,2.2-2.2,2.2c-1.8,0-2.7,1.3-4.2,3.5
	C1489.9,1136.4,1487.9,1139.5,1483.7,1139.5z"/>
<path class="st8" d="M1290.1,1451.5c-4.2,0-6.3-3-7.9-5.5c-1.5-2.2-2.4-3.5-4.2-3.5c-1.7,0-2.7,1.3-4.2,3.5
	c-1.6,2.4-3.7,5.5-7.9,5.5c-4.2,0-6.3-3-7.9-5.5c-1.5-2.2-2.4-3.5-4.2-3.5s-2.7,1.3-4.2,3.5c-1.6,2.4-3.7,5.5-7.9,5.5
	c-4.2,0-6.3-3-7.9-5.5c-1.5-2.2-2.4-3.5-4.2-3.5c-1.2,0-2.2-1-2.2-2.2c0-1.2,1-2.2,2.2-2.2c4.2,0,6.3,3,7.9,5.5
	c1.5,2.2,2.4,3.5,4.2,3.5c1.7,0,2.7-1.3,4.2-3.5c1.6-2.4,3.7-5.5,7.9-5.5s6.3,3,7.9,5.5c1.5,2.2,2.4,3.5,4.2,3.5
	c1.7,0,2.7-1.3,4.2-3.5c1.6-2.4,3.7-5.5,7.9-5.5c4.2,0,6.3,3,7.9,5.5c1.5,2.2,2.4,3.5,4.2,3.5s2.7-1.3,4.2-3.5
	c1.6-2.4,3.7-5.5,7.9-5.5c1.2,0,2.2,1,2.2,2.2c0,1.2-1,2.2-2.2,2.2c-1.8,0-2.7,1.3-4.2,3.5
	C1296.3,1448.4,1294.3,1451.5,1290.1,1451.5z"/>
<path class="st8" d="M1378.1,1605.4c-4.2,0-6.3-3-7.9-5.5c-1.5-2.2-2.4-3.5-4.2-3.5c-1.7,0-2.7,1.3-4.2,3.5
	c-1.6,2.4-3.7,5.5-7.9,5.5c-4.2,0-6.3-3-7.9-5.5c-1.5-2.2-2.4-3.5-4.2-3.5s-2.7,1.3-4.2,3.5c-1.6,2.4-3.7,5.5-7.9,5.5
	c-4.2,0-6.3-3-7.9-5.5c-1.5-2.2-2.4-3.5-4.2-3.5c-1.2,0-2.2-1-2.2-2.2c0-1.2,1-2.2,2.2-2.2c4.2,0,6.3,3,7.9,5.5
	c1.5,2.2,2.4,3.5,4.2,3.5c1.7,0,2.7-1.3,4.2-3.5c1.6-2.4,3.7-5.5,7.9-5.5s6.3,3,7.9,5.5c1.5,2.2,2.4,3.5,4.2,3.5
	c1.7,0,2.7-1.3,4.2-3.5c1.6-2.4,3.7-5.5,7.9-5.5c4.2,0,6.3,3,7.9,5.5c1.5,2.2,2.4,3.5,4.2,3.5s2.7-1.3,4.2-3.5
	c1.6-2.4,3.7-5.5,7.9-5.5c1.2,0,2.2,1,2.2,2.2c0,1.2-1,2.2-2.2,2.2c-1.8,0-2.7,1.3-4.2,3.5
	C1384.3,1602.3,1382.3,1605.4,1378.1,1605.4z"/>
<path class="st8" d="M929.7,647.1c-4.2,0-6.3-3-7.9-5.5c-1.5-2.2-2.4-3.5-4.2-3.5c-1.7,0-2.7,1.3-4.2,3.5c-1.6,2.4-3.7,5.5-7.9,5.5
	c-4.2,0-6.3-3-7.9-5.5c-1.5-2.2-2.4-3.5-4.2-3.5s-2.7,1.3-4.2,3.5c-1.6,2.4-3.7,5.5-7.9,5.5c-4.2,0-6.3-3-7.9-5.5
	c-1.5-2.2-2.4-3.5-4.2-3.5c-1.2,0-2.2-1-2.2-2.2s1-2.2,2.2-2.2c4.2,0,6.3,3,7.9,5.5c1.5,2.2,2.4,3.5,4.2,3.5c1.7,0,2.7-1.3,4.2-3.5
	c1.6-2.4,3.7-5.5,7.9-5.5s6.3,3,7.9,5.5c1.5,2.2,2.4,3.5,4.2,3.5c1.7,0,2.7-1.3,4.2-3.5c1.6-2.4,3.7-5.5,7.9-5.5
	c4.2,0,6.3,3,7.9,5.5c1.5,2.2,2.4,3.5,4.2,3.5s2.7-1.3,4.2-3.5c1.6-2.4,3.7-5.5,7.9-5.5c1.2,0,2.2,1,2.2,2.2s-1,2.2-2.2,2.2
	c-1.8,0-2.7,1.3-4.2,3.5C935.9,644,933.9,647.1,929.7,647.1z"/>
<path class="st8" d="M1463.8,927.9c-4.2,0-6.3-3-7.9-5.5c-1.5-2.2-2.4-3.5-4.2-3.5c-1.7,0-2.7,1.3-4.2,3.5c-1.6,2.4-3.7,5.5-7.9,5.5
	c-4.2,0-6.3-3-7.9-5.5c-1.5-2.2-2.4-3.5-4.2-3.5s-2.7,1.3-4.2,3.5c-1.6,2.4-3.7,5.5-7.9,5.5c-4.2,0-6.3-3-7.9-5.5
	c-1.5-2.2-2.4-3.5-4.2-3.5c-1.2,0-2.2-1-2.2-2.2s1-2.2,2.2-2.2c4.2,0,6.3,3,7.9,5.5c1.5,2.2,2.4,3.5,4.2,3.5c1.7,0,2.7-1.3,4.2-3.5
	c1.6-2.4,3.7-5.5,7.9-5.5s6.3,3,7.9,5.5c1.5,2.2,2.4,3.5,4.2,3.5c1.7,0,2.7-1.3,4.2-3.5c1.6-2.4,3.7-5.5,7.9-5.5
	c4.2,0,6.3,3,7.9,5.5c1.5,2.2,2.4,3.5,4.2,3.5s2.7-1.3,4.2-3.5c1.6-2.4,3.7-5.5,7.9-5.5c1.2,0,2.2,1,2.2,2.2s-1,2.2-2.2,2.2
	c-1.8,0-2.7,1.3-4.2,3.5C1470,924.8,1468,927.9,1463.8,927.9z"/>
<path class="st8" d="M518.8,1582.8l-12.5,1.2c-2.4,0.2-4.6-1.6-4.8-4l-1.2-12.5c-0.4-3.9,4.2-6.4,7.2-3.8l13.7,11.3
	C524.3,1577.5,522.8,1582.4,518.8,1582.8z"/>
<path class="st8" d="M1574.5,1358.8l-12.5,1.2c-2.4,0.2-4.6-1.6-4.8-4l-1.2-12.5c-0.4-3.9,4.2-6.4,7.2-3.8l13.7,11.3
	C1580,1353.5,1578.5,1358.4,1574.5,1358.8z"/>
<path class="st8" d="M563.1,1449.2l5.9,11c1.2,2.2,0.3,4.8-1.8,6l-11,5.9c-3.5,1.9-7.5-1.4-6.3-5.2l5.1-17
	C556.1,1446.2,561.2,1445.7,563.1,1449.2z"/>
<path class="st8" d="M1111,342.1l5.9,11c1.2,2.2,0.3,4.8-1.8,6l-11,5.9c-3.5,1.9-7.5-1.4-6.3-5.2l5.1-17
	C1104,339.1,1109.1,338.6,1111,342.1z"/>
<path class="st36" d="M499.8,295.3c-8.1-8.6-22.6-8.1-32.6,1.1c-9.9,9.3-11.5,23.8-3.4,32.4s22.6,8.1,32.6-1.1
	S507.9,303.9,499.8,295.3z M475.9,320.4l2.5-17.3c0.1-0.3,0.5-0.5,0.7-0.3l11.7,10c0.2,0.2,0.2,0.6-0.1,0.7l-14.2,7.3
	C476.2,321,475.8,320.7,475.9,320.4z"/>
<path class="st34" d="M156.6,883c-8.1-8.6-22.6-8.1-32.6,1.1c-9.9,9.3-11.5,23.8-3.4,32.4c8.1,8.6,22.6,8.1,32.6-1.1
	C163.2,906.1,164.7,891.6,156.6,883z M132.7,908.1l2.5-17.3c0.1-0.3,0.5-0.5,0.7-0.3l11.7,10c0.2,0.2,0.2,0.6-0.1,0.7l-14.2,7.3
	C133,908.7,132.6,908.4,132.7,908.1z"/>
<path class="st34" d="M1441.4,739.6c-8.1-8.6-22.6-8.1-32.6,1.1c-9.9,9.3-11.5,23.8-3.4,32.4c8.1,8.6,22.6,8.1,32.6-1.1
	C1448,762.7,1449.5,748.2,1441.4,739.6z M1417.5,764.7l2.5-17.3c0.1-0.3,0.5-0.5,0.7-0.3l11.7,10c0.2,0.2,0.2,0.6-0.1,0.7l-14.2,7.3
	C1417.8,765.3,1417.4,765,1417.5,764.7z"/>
<path class="st36" d="M395.6,598c-8.1-8.6-22.6-8.1-32.6,1.1c-10,9.2-11.5,23.8-3.4,32.4c8.1,8.6,22.6,8.1,32.6-1.1
	C402.2,621.1,403.7,606.6,395.6,598z M371.7,623.1l2.5-17.3c0.1-0.3,0.5-0.5,0.7-0.3l11.7,10c0.2,0.2,0.2,0.6-0.1,0.7l-14.2,7.3
	C372,623.7,371.6,623.4,371.7,623.1z"/>
<path class="st36" d="M1297.6,1524c-8.1-8.6-22.6-8.1-32.6,1.1c-10,9.2-11.5,23.8-3.4,32.4s22.6,8.1,32.6-1.1
	C1304.2,1547.1,1305.7,1532.6,1297.6,1524z M1273.7,1549.1l2.5-17.3c0.1-0.3,0.5-0.5,0.7-0.3l11.7,10c0.2,0.2,0.2,0.6-0.1,0.7
	l-14.2,7.3C1274,1549.7,1273.6,1549.4,1273.7,1549.1z"/>
<path class="st36" d="M930.2,529c-5.9-6.2-16.4-5.9-23.6,0.8c-7.2,6.7-8.3,17.2-2.5,23.5s16.4,5.9,23.6-0.8
	C935,545.7,936.1,535.2,930.2,529z M912.9,547.1l1.8-12.5c0.1-0.2,0.4-0.4,0.5-0.2l8.5,7.2c0.1,0.1,0.1,0.4-0.1,0.5l-10.3,5.3
	C913.1,547.6,912.9,547.3,912.9,547.1z"/>
<path class="st34" d="M686.3,513.3c-7-7.5-19.6-7-28.2,1c-8.6,8-9.9,20.6-3,28c7,7.5,19.6,7,28.2-1
	C691.9,533.3,693.3,520.8,686.3,513.3z M665.6,535l2.2-14.9c0-0.3,0.4-0.4,0.6-0.2l10.1,8.6c0.2,0.2,0.2,0.5-0.1,0.6l-12.3,6.3
	C665.9,535.6,665.5,535.3,665.6,535z"/>
<path class="st37" d="M1224.7,1004.2c-5.1-6.2-3.7-16.3,3-22.5c6.8-6.2,16.4-6.2,21.5,0"/>
<g class="st0">
	<path class="st33" d="M1242.1,997.8c-1.1,0.9-2.3,1.6-3.5,2c-2.7,0.8-5.6,0.4-7.6-1.2c-0.3-0.2-0.6-0.5-0.8-0.8
		c-2.8-3.3-2.1-8.5,1.7-11.7c3.8-3.3,9.1-3.3,11.8,0C1246.6,989.3,1245.9,994.5,1242.1,997.8z"/>
</g>
<path class="st37" d="M1216,1010.8c-8.4-10.3-6.2-26.9,5.1-37.1c11.2-10.3,27.1-10.3,35.5,0"/>
<path class="st37" d="M1220.3,1006.8c-6.6-8.1-4.8-21.2,4-29.2c8.8-8.1,21.3-8.1,27.9,0"/>
<path class="st37" d="M249.7,577.8c-7.2-8.8-5.2-23,4.3-31.8c9.6-8.8,23.2-8.8,30.4,0"/>
<path class="st37" d="M237.4,587.1c-11.9-14.5-8.7-38,7.2-52.5c15.8-14.5,38.3-14.5,50.2,0"/>
<path class="st37" d="M243.5,581.5c-9.3-11.4-6.8-29.9,5.6-41.3c12.5-11.4,30.1-11.4,39.5,0"/>
<path class="st37" d="M1209.7,611.8c-7.2-8.8-5.2-23,4.3-31.8c9.6-8.8,23.2-8.8,30.4,0"/>
<path class="st37" d="M1197.4,621.1c-11.9-14.5-8.7-38,7.2-52.5c15.8-14.5,38.3-14.5,50.2,0"/>
<path class="st37" d="M1203.5,615.5c-9.3-11.4-6.8-29.9,5.6-41.3c12.5-11.4,30.1-11.4,39.5,0"/>
</svg>
