<?xml version="1.0" encoding="utf-8"?>
<!-- Generator: Adobe Illustrator 22.1.0, SVG Export Plug-In . SVG Version: 6.00 Build 0)  -->
<svg version="1.1" id="Layer_1" xmlns="http://www.w3.org/2000/svg" xmlns:xlink="http://www.w3.org/1999/xlink" x="0px" y="0px"
	 viewBox="0 0 1694 1140" style="enable-background:new 0 0 1694 1140;" xml:space="preserve">
<style type="text/css">
	.st0{opacity:0.3;fill:#2868C6;}
	.st1{fill:#F1B49B;}
	.st2{fill:#D8917D;}
	.st3{fill:#6B848E;}
	.st4{fill:#C0CBCE;}
	.st5{fill:#526972;}
	.st6{fill:#E0E2E2;}
	.st7{fill:#FFFFFF;}
	.st8{fill:#B3B3B3;}
	.st9{fill:#1F5FBF;}
	.st10{fill:#F0F1F1;}
	.st11{fill:#B5C3C6;}
	.st12{fill:#3E85DB;}
	.st13{opacity:0.5;fill:#4C5973;enable-background:new    ;}
	.st14{fill:#515151;}
	.st15{fill:#F7D2C6;}
	.st16{opacity:0.3;}
	.st17{fill:#154EA4;}
	.st18{fill:#649AEA;}
	.st19{fill:#87C3F4;}
	.st20{fill:#7AB3ED;}
	.st21{fill:#69B1E2;}
	.st22{fill:#73ACEF;}
	.st23{fill:#2A6CCE;}
	.st24{fill:#327CD6;}
	.st25{fill:#3B8BDB;}
	.st26{fill:#A0D1F9;}
	.st27{opacity:0.3;fill:none;stroke:#2868C6;stroke-width:3;stroke-linecap:round;stroke-miterlimit:10;}
	.st28{opacity:0.4;fill:#2868C6;}
	.st29{fill:#2868C6;}
	.st30{opacity:0.3;fill:#337BD1;}
	.st31{fill:#337BD1;}
	.st32{fill:none;}
	.st33{fill:#75AEF2;}
	.st34{fill:#7EB8F2;}
	.st35{opacity:0.3;fill:#1B59B2;}
	.st36{fill:#3880D6;}
	.st37{opacity:0.3;fill:#649AEA;}
</style>
<path class="st0" d="M1107.7,556.4c-3.3,0-5-2.4-6.3-4.3c-1.2-1.8-1.9-2.8-3.3-2.8c-1.4,0-2.1,1-3.3,2.8c-1.3,1.9-2.9,4.3-6.3,4.3
	c-3.3,0-5-2.4-6.3-4.3c-1.2-1.8-1.9-2.8-3.3-2.8c-1.4,0-2.1,1-3.3,2.8c-1.3,1.9-2.9,4.3-6.3,4.3c-3.3,0-5-2.4-6.3-4.3
	c-1.2-1.8-1.9-2.8-3.3-2.8c-1,0-1.8-0.8-1.8-1.8s0.8-1.8,1.8-1.8c3.3,0,5,2.4,6.3,4.3c1.2,1.8,1.9,2.8,3.3,2.8c1.4,0,2.1-1,3.3-2.8
	c1.3-1.9,2.9-4.3,6.3-4.3c3.3,0,5,2.4,6.3,4.3c1.2,1.8,1.9,2.8,3.3,2.8c1.4,0,2.1-1,3.3-2.8c1.3-1.9,2.9-4.3,6.3-4.3
	c3.3,0,5,2.4,6.3,4.3c1.2,1.8,1.9,2.8,3.3,2.8c1.4,0,2.1-1,3.3-2.8c1.3-1.9,2.9-4.3,6.3-4.3c1,0,1.8,0.8,1.8,1.8s-0.8,1.8-1.8,1.8
	c-1.4,0-2.1,1-3.3,2.8C1112.7,554,1111,556.4,1107.7,556.4z"/>
<path class="st0" d="M1137,415.3c-5.7,5.4-12.3,9.3-19,11.7c-14.8,5.4-30.8,3.7-42.4-5.3c-1.6-1.2-3.1-2.6-4.4-4.1
	c-16.3-17.4-13.2-46.8,6.9-65.5c20.1-18.7,49.5-19.7,65.8-2.3C1160.1,367.2,1157,396.5,1137,415.3z"/>
<g>
	<path class="st1" d="M1154.4,428.6c2.4,6.3,2.9,27.9,9.6,28.7c8.3,1.1,9.2-27.4,13-34.9c7.1-13.6,14.3-28,14.3-43.4
		c0-12.5-6.1-28.3-14.8-43.6c-3.4-5.8-7.1-11.6-11.1-17c-21.2-29.3-55.6-59.4-60.4-37.3C1102,295.9,1149,414.2,1154.4,428.6z"/>
	<path class="st2" d="M1160.1,430.3c5.6-13.5,5.8-31.1,8.2-45.5c2.8-16.5,5.4-33,8.2-49.5c-3.4-5.8-7.1-11.6-11.1-17
		c-0.8,0.8-1.4,1.5-1.9,2.4c-1.5,2.7-1.8,5.8-2,9C1159.6,363.3,1164.6,396.7,1160.1,430.3z"/>
	<path class="st1" d="M1340.9,1191.3c-27.9,5.6-47.4-11.7-53.9-18.9c-49-52.8-90.7-111.6-130.1-171.9
		c-13.3-20.3-26.5-41.2-34.2-64.2c-7.7-23-9.7-48.9-0.6-71.5c6.8-16.8,19.1-30.6,31.8-43.4c92.6-92.9,221.3-148.9,352.3-153.2
		c17.9-0.6,36.2-0.1,53,6.3c31.4,12.1,51.9,44.1,59.2,76.9c7.3,33,8.5,347.8-32.5,360.8C1541.9,1126.6,1382.5,1183,1340.9,1191.3z"
		/>
	<path class="st2" d="M1472.2,1053.6c0,4.2-6.1,4.8-6.8,0.6c0-0.1,0-0.1,0-0.3c-1.1-6.8-1.3-13.9-4.3-20.1
		c-7.1-14.3-26-17-41.9-17.3c-41.8-0.9-83.7,2.1-125.5,1.4c-41.8-0.8-84.2-5.4-123.1-20.8c52.4-7.5,105.3-8,158.1-7.5
		c26.1,0.3,52.3,0.8,78.3,0.9c13.3,0,26.5,0,39.7-0.3c6.8-0.1,29.4-4.7,33.2,2c3.2,5.7-6.2,31.1-6.7,38.8
		C1472.8,1033.7,1472.1,1044.1,1472.2,1053.6z"/>
	<g>
		<path class="st3" d="M1647.2,232.7L1561,991.2c-1.5,12-11.9,21.1-24,21.1h-416.5c-8.6,0-22.1-8.2-31.2-17.9
			c-8-8.5-8.7-21.3-2.1-30.9l514.2-755.7c6.9-10.2,21.6-12.1,30.7-3.7C1641,212.6,1648.2,224.5,1647.2,232.7z"/>
		<path class="st4" d="M1635.6,221.3l-90.8,751c-1.5,12-11.9,21.1-24,21.1h-416.5c-14.5,0-25.8-12.8-24-27.3l109-750.9
			c1.5-12,11.6-21.2,23.7-21.2h398.6C1626.3,194,1637.5,206.8,1635.6,221.3z"/>
		<path class="st5" d="M1467.8,253.6h-133c-2.9,0-5.3-2.4-5.3-5.3s2.4-5.3,5.3-5.3h133c2.9,0,5.3,2.4,5.3,5.3
			S1470.7,253.6,1467.8,253.6z"/>
		<path class="st5" d="M1345.4,1005.1h-84.5c-0.9,0-1.6-0.8-1.6-1.6s0.8-1.6,1.6-1.6h84.5c0.9,0,1.6,0.8,1.6,1.6
			S1346.3,1005.1,1345.4,1005.1z"/>
		<polygon class="st6" points="1626.5,290.5 1552,913.5 1088.5,911.7 1177.7,290.5 		"/>
		<path class="st7" d="M1202.8,392.6l372-1.8c7.1,0,13-5.2,14-12.1l6.6-45.3c1.1-8.5-5.4-16.2-14-16.2h-370.3c-7.1,0-13,5.2-14,12.1
			l-8.3,47.1C1187.5,385,1194.2,392.6,1202.8,392.6z"/>
		<path class="st8" d="M1234.3,335.1c-6.9,0-13.4,5.7-14.4,12.6c-0.5,3.4,0.4,6.4,2.3,8.7l-14.5,13.1c-0.6,0.5-0.6,1.4-0.3,1.9
			c0.3,0.3,0.5,0.4,0.9,0.4c0.4,0,0.8-0.1,1-0.4l14.6-13.3c1.8,1.4,4.2,2.1,6.7,2.1c6.9,0,13.4-5.7,14.4-12.6
			C1246.1,340.8,1241.3,335.1,1234.3,335.1z M1242.5,347.7c-0.8,5.4-5.8,9.9-11.2,9.9c-2.3,0-4.4-0.8-5.9-2.1c0,0,0,0-0.1-0.1
			c-1.9-1.8-2.9-4.5-2.5-7.6c0.8-5.4,5.8-9.9,11.2-9.9C1239.4,337.8,1243.2,342.3,1242.5,347.7z"/>
		
			<ellipse transform="matrix(0.7315 -0.6819 0.6819 0.7315 -186.5357 1256.2808)" class="st7" cx="1501.8" cy="865" rx="28.9" ry="25.1"/>
		
			<ellipse transform="matrix(0.7315 -0.6819 0.6819 0.7315 -210.5683 1195.3702)" class="st7" cx="1412.4" cy="865" rx="28.9" ry="25.1"/>
		
			<ellipse transform="matrix(0.7315 -0.6819 0.6819 0.7315 -234.596 1134.3918)" class="st4" cx="1323" cy="865" rx="28.9" ry="25.1"/>
		
			<ellipse transform="matrix(0.7315 -0.6819 0.6819 0.7315 -258.545 1073.521)" class="st7" cx="1233.7" cy="865" rx="28.9" ry="25.1"/>
		
			<ellipse transform="matrix(0.7315 -0.6819 0.6819 0.7315 -282.5729 1012.5427)" class="st7" cx="1144.3" cy="865" rx="28.9" ry="25.1"/>
		<g>
			
				<ellipse transform="matrix(0.7315 -0.6819 0.6819 0.7315 -233.0666 1126.01)" class="st7" cx="1313.1" cy="858.9" rx="3.2" ry="2.7"/>
			
				<ellipse transform="matrix(0.7315 -0.6819 0.6819 0.7315 -229.9242 1133.9434)" class="st7" cx="1324.7" cy="858.9" rx="3.2" ry="2.7"/>
			
				<ellipse transform="matrix(0.7315 -0.6819 0.6819 0.7315 -226.8608 1141.769)" class="st7" cx="1336.2" cy="858.9" rx="3.2" ry="2.7"/>
			
				<ellipse transform="matrix(0.7315 -0.6819 0.6819 0.7315 -241.423 1127.9111)" class="st7" cx="1311.3" cy="870.5" rx="3.2" ry="2.7"/>
			
				<ellipse transform="matrix(0.7315 -0.6819 0.6819 0.7315 -238.2808 1135.8444)" class="st7" cx="1323" cy="870.5" rx="3.2" ry="2.7"/>
			
				<ellipse transform="matrix(0.7315 -0.6819 0.6819 0.7315 -235.2171 1143.6702)" class="st7" cx="1334.4" cy="870.5" rx="3.2" ry="2.7"/>
		</g>
		<polygon class="st4" points="1221.9,870.4 1225.9,870.4 1231.9,875.7 1232.1,870.4 1245.2,870.4 1247,857.8 1223.7,857.8 		"/>
		<g>
			<g>
				<path class="st4" d="M1404.1,854.1c0.4-0.5,0.8-1,1.1-1.5c1.3-1.5,2.9-2.5,4.7-3.2c0.5-0.1,1-0.4,1.4-0.5c1.1-0.3,1.9,0,2.1,1
					c0.1,0.5,0.3,0.9,0.3,1.4c0,1,0.1,2,0.1,3.2c0,0.5-0.1,1-0.3,1.5c-0.4,0.9-1.1,1.5-2,1.8c-0.6,0.3-1.3,0.4-1.9,0.6
					c-1,0.3-1.5,0.9-1.8,1.8c-0.3,1-0.3,2-0.1,2.9c0.3,1.9,0.6,3.5,1.3,5.2c0.3,0.8,0.6,1.4,1.4,1.9c0.5,0.5,1.3,0.5,2,0.1
					c0.8-0.3,1.4-0.5,2-0.8c1.3-0.4,2.3-0.1,2.9,0.9c0.4,0.5,0.5,0.9,0.8,1.4c0.4,0.9,0.6,1.8,0.9,2.7c0.1,0.3,0.1,0.6,0.1,1
					c0,0.9-0.4,1.6-1.3,1.9c-1.1,0.5-2.4,1-3.5,1.1c-1.5,0.3-2.9,0.1-4.3-0.5c-1.9-0.8-3.3-2.1-4.3-3.8c-0.9-1.4-1.5-3-2.1-4.7
					c-0.8-2.7-1.3-5.4-1.4-8.2c0-1.8,0.3-3.5,0.9-5.3c0.1-0.4,0.3-0.8,0.4-1.1C1403.9,854.7,1404,854.4,1404.1,854.1z"/>
			</g>
		</g>
		<g>
			<path class="st4" d="M1157.2,860.5c-0.4-2.4-1.4-4.5-2.9-6.2c-2-2.3-5.2-3.7-8.7-3.7c-5.1,0-9.9,2.8-12.8,6.9
				c-1.4,1.9-2.3,4.2-2.5,6.4c-1,7.5,4.2,13.5,11.6,13.5c1.4,0,2.8-0.3,4-0.6l0,0c5.7-1.8,10.4-6.8,11.2-12.9
				C1157.4,862.9,1157.4,861.6,1157.2,860.5z M1139.4,863.7c-0.4,0.1-0.8,0.5-0.6,0.8c0,0.1,0.1,0.3,0.3,0.4c0.4,0.4,0.3,1.1,0,1.8
				c-0.3,0.6-0.8,1-1,1.6c-0.6,1.1-0.5,2.4-0.6,3.7c-0.1,0.4-0.1,0.8-0.4,1.1c-0.3,0.4-0.8,0.5-1,0.3c-0.3-0.1-0.3-0.4-0.3-0.6
				c-0.5-2.1-2.7-3.4-3.2-5.4c-0.1-0.4,0-0.9,0.4-1.1c0.8-0.6,1.6-1,2.5-1.1c0.8-0.1,1.6-0.3,2.1-0.9c0.1-0.3,0.3-0.5,0.5-0.8
				c0.4-0.5,1.1-0.6,1.8-0.9c0.6-0.3,0.8-1,0.3-1.4l-2.3-1.5c-0.4-0.3-0.9-0.5-1-1c0-0.1-0.1-0.1-0.1-0.3c-0.3-1,0.5-2.3,1.6-2.7
				c0.3-0.1,0.6-0.1,0.8,0.1c0.3,0.4-0.4,1,0,1.4c0.1,0.1,0.3,0.1,0.4,0.1c0.5,0,1,0,1.4-0.3c0.5-0.3,0.8-0.9,0.5-1.3
				c-0.3-0.3-0.8-0.4-0.8-0.9c0-0.3,0.3-0.5,0.6-0.6c1-0.1,2,0.4,3.2,0c0.3-0.1,0.5-0.3,0.9-0.4c1.3-0.4,2.3,0.3,3.5,0.1
				c0.3,0,0.5-0.1,0.8-0.1c0.5,0.1,0.9,0.6,0.8,1.3c-0.1,0.6-0.8,0.9-1.3,1c-0.4,0.1-0.8,0-1,0c-0.4-0.1-0.9,0.3-0.9,0.6
				c-0.1,0.3-0.1,0.5-0.1,0.8c0,0.1-0.1,0.1-0.1,0.3c-0.1,0.3-0.4,0.4-0.6,0.6c-0.6,0.6-0.9,1.4-1.4,2.1c-0.4,0.5-0.9,0.9-1.4,1
				c-0.4,0.1-0.6,0.4-0.8,0.8c-0.1,0.3-0.3,0.5-0.5,0.8C1141.4,863.7,1140.4,863.5,1139.4,863.7z M1152.7,869
				c-0.6,0.8-1.3,1.4-1.9,2c-0.8,0.8-1.5,1.4-2.3,2c-0.5,0.4-0.9,0.8-1.4,1c-1.3,0.9-2.9,1.4-4.3,1.3c-0.1,0-0.1,0-0.3-0.1
				c-0.1-0.1-0.1-0.3,0-0.5c0.4-1,1.1-2,2-2.8c0.4-0.3,0.6-0.5,0.9-0.9c0.3-0.5,0.3-1,0.6-1.4c0.4-0.4,1-0.5,1.4-0.9
				c0.4-0.3,0.4-0.8,0.6-1c0.3-0.1,0.5-0.3,0.8-0.4c0.4-0.3,0.6-0.6,0.8-1c0-0.1,0-0.3,0.1-0.3c0.3-0.3,0.6,0,1-0.1
				c0.5-0.1,0.6-0.9,1-1.1c0.1-0.1,0.4-0.1,0.5-0.1c0.5,0.1,1,0.5,1.3,0.9c0.1,0.3,0.3,0.6,0.3,0.9
				C1153.8,867.4,1153.3,868.3,1152.7,869z"/>
		</g>
		<g>
			<path class="st4" d="M1515.1,859.2c-0.4,0-0.8-0.3-0.9-0.6l-2.3-5.8c-0.1-0.4-0.5-0.5-0.9-0.5h-14.5c-0.4,0-0.8,0.3-1,0.5
				l-3.9,5.8c-0.3,0.4-0.6,0.6-1,0.6c-0.6,0-1.1,0.5-1.3,1l-1.3,8.5c-0.1,0.6,0.4,1.1,0.9,1.1h1.6l-0.4,2.3c0,0.3,0,0.5,0,0.8
				c0.1,0.6,0.8,1,1.5,1c1,0,1.9-0.8,2-1.8l0.3-2.3h14.3l-0.3,2.3c-0.1,1,0.5,1.8,1.5,1.8l0,0c1,0,1.9-0.8,2-1.8l0.3-2.3h1.6
				c0.6,0,1.1-0.5,1.3-1.1l1.3-8.5C1516.1,859.6,1515.8,859.2,1515.1,859.2z M1495.4,864.5c-0.1,0.8-0.6,1.5-1.4,1.9
				c-0.4,0.3-0.8,0.4-1.3,0.4c-1.3,0-2.1-1-1.9-2.3c0.1-1.3,1.3-2.3,2.5-2.3c1.1,0,1.9,0.8,1.9,1.8
				C1495.4,864.3,1495.4,864.4,1495.4,864.5z M1495.9,859.2c-0.8,0-1.3-0.9-0.8-1.5l1.5-2.1c0.3-0.4,0.6-0.6,1-0.6h11.4
				c0.4,0,0.8,0.3,0.9,0.6l0.9,2.1c0.3,0.8-0.4,1.5-1.1,1.5H1495.9z M1510.7,866.7c-1.3,0-2.1-1-1.9-2.3c0.1-1.3,1.3-2.3,2.5-2.3
				s2,1,1.9,2.3C1513,865.8,1511.8,866.7,1510.7,866.7z"/>
		</g>
		
			<ellipse transform="matrix(0.7315 -0.6819 0.6819 0.7315 221.6991 1015.1841)" class="st5" cx="1399.8" cy="226.1" rx="7.8" ry="6.8"/>
		<g>
			<path class="st4" d="M1145.4,801.2l373.8-1.8c7.1,0,13-5.2,14-12.1l17.4-140.6c1.1-8.5-5.4-16.2-14-16.2h-368.5
				c-7.1,0-13,5.2-14,12.1l-22.7,142.3C1130.1,793.7,1136.8,801.2,1145.4,801.2z"/>
			
				<ellipse transform="matrix(0.7315 -0.6819 0.6819 0.7315 -46.362 1208.1897)" class="st9" cx="1510.8" cy="663" rx="20.2" ry="17.6"/>
			
				<ellipse transform="matrix(0.7315 -0.6819 0.6819 0.7315 -81.3676 1216.2998)" class="st9" cx="1503.6" cy="711.5" rx="20.2" ry="17.6"/>
			
				<ellipse transform="matrix(0.7315 -0.6819 0.6819 0.7315 -117.574 1224.8751)" class="st9" cx="1496.4" cy="761.7" rx="20.2" ry="17.6"/>
			<g>
				<rect x="1379" y="651.5" class="st10" width="102.4" height="1.4"/>
				<rect x="1377" y="659.6" class="st10" width="102.3" height="1.4"/>
				<rect x="1417.9" y="668.5" class="st10" width="60.1" height="1.4"/>
			</g>
			<g>
				<rect x="1373.6" y="701.8" class="st10" width="102.4" height="1.4"/>
				<rect x="1371.5" y="709.8" class="st10" width="102.4" height="1.4"/>
				<rect x="1412.5" y="718.8" class="st10" width="60.2" height="1.4"/>
			</g>
			<g>
				<rect x="1366.4" y="753.8" class="st10" width="102.4" height="1.4"/>
				<rect x="1364.3" y="761.9" class="st10" width="102.4" height="1.4"/>
				<rect x="1405.3" y="770.8" class="st10" width="60.2" height="1.4"/>
			</g>
			
				<ellipse transform="matrix(0.7315 -0.6819 0.6819 0.7315 -98.9903 1074.6099)" class="st9" cx="1314.9" cy="663" rx="20.2" ry="17.6"/>
			
				<ellipse transform="matrix(0.7315 -0.6819 0.6819 0.7315 -135.1181 1083.2926)" class="st9" cx="1307.8" cy="713.2" rx="20.2" ry="17.6"/>
			
				<ellipse transform="matrix(0.7315 -0.6819 0.6819 0.7315 -171.3245 1091.8676)" class="st9" cx="1300.6" cy="763.5" rx="20.2" ry="17.6"/>
			<g>
				<rect x="1183.1" y="651.5" class="st10" width="102.4" height="1.4"/>
				<rect x="1181.1" y="659.6" class="st10" width="102.4" height="1.4"/>
				<rect x="1222" y="668.5" class="st10" width="60.2" height="1.4"/>
			</g>
			<g>
				<rect x="1177.8" y="701.8" class="st10" width="102.3" height="1.4"/>
				<rect x="1175.8" y="709.8" class="st10" width="102.3" height="1.4"/>
				<rect x="1216.7" y="718.8" class="st10" width="60.1" height="1.4"/>
			</g>
			<g>
				<rect x="1170.6" y="753.8" class="st10" width="102.4" height="1.4"/>
				<rect x="1168.6" y="761.9" class="st10" width="102.3" height="1.4"/>
				<rect x="1209.5" y="770.8" class="st10" width="60.1" height="1.4"/>
			</g>
		</g>
		<g>
			<path class="st7" d="M1322.7,612.2l226.6-1.8c7.1,0,13-5.2,14-12.1l22.7-165.7c1.1-8.5-5.4-16.2-14-16.2h-221.1
				c-7.1,0-13,5.2-14,12.1L1308.6,596C1307.5,604.6,1314.1,612.2,1322.7,612.2z"/>
			<path class="st9" d="M1314.7,432.5l-26.4,165.7c-1,6.9-6.9,12.1-14,12.1l-21,0.4l-73.5,1.3l-6.3,0.1c-8.6,0-15.2-7.6-14-16.2
				l28.2-167.6c1-6.9,6.9-12.1,14-12.1h99C1309.3,416.3,1316,424,1314.7,432.5z"/>
			<g>
				<rect x="1357.9" y="450.3" class="st11" width="187.7" height="1.6"/>
				<rect x="1359.5" y="439.4" class="st11" width="197.9" height="1.6"/>
				<rect x="1354.2" y="461.5" class="st11" width="115.2" height="1.6"/>
			</g>
			<g>
				<rect x="1335.9" y="572.3" class="st11" width="187.7" height="1.6"/>
				<rect x="1337.6" y="561.1" class="st11" width="197.9" height="1.6"/>
				<rect x="1333.8" y="583.7" class="st11" width="196" height="1.6"/>
			</g>
			<g>
				<rect x="1348.6" y="501.1" class="st11" width="187.7" height="1.6"/>
				<rect x="1350.2" y="490" class="st11" width="197.9" height="1.6"/>
				
					<rect x="1346.5" y="512.1" transform="matrix(1 -4.936470e-03 4.936470e-03 1 -2.5146 7.0589)" class="st11" width="164.3" height="1.6"/>
				<rect x="1344.9" y="523.1" class="st11" width="176.9" height="1.6"/>
				<rect x="1341.5" y="534.2" class="st11" width="160.1" height="1.6"/>
			</g>
			
				<ellipse transform="matrix(0.7315 -0.6819 0.6819 0.7315 -1.1833 977.6328)" class="st12" cx="1240.7" cy="490.3" rx="29.2" ry="25.4"/>
			<path class="st12" d="M1265.3,565.6l-7.2,44.8l-4.8,0.4l-73.5,1.3l5.3-46.5c1.5-11.1,7.5-21.1,15.7-28.3s18.9-11.7,29.9-11.7
				C1253.1,525.5,1268.4,543.5,1265.3,565.6z"/>
		</g>
		<path class="st13" d="M1449.7,993.4h50.4c3.8-3.4,6.6-4.8,9.3-9.1c1.5-2.3,2.9-4.5,4.3-6.8c13.4-21.2,26.3-42.8,36.8-65.5l0,0
			c1-2.3,2.1-4.5,3.2-6.9c9.5-21.7,16.5-44.3,23.2-67.1l30.1-255.7c-31.8,10.7-54.7,137.5-76.3,220.1
			C1525.2,823.5,1444.5,925.1,1449.7,993.4z"/>
	</g>
	<path class="st1" d="M1643.2,1081.7c-0.9,13.8-5.2,47.6-1.4,105.5c0.1,2.5,0.4,5.2,0.5,7.8h-333.8c-0.6-2.8-1.1-5.3-1.6-7.8
		c0-0.3-0.1-0.5-0.1-0.8c0-0.1-0.1-0.4-0.1-0.5l0,0c-0.3-1.1-0.5-2.3-0.8-3.5c-0.8-4.3-1-8.6,0.5-12.5c1.9-4.7,6.2-7.6,10.1-10
		c51.1-31.7,106.8-54.8,164.3-69.1c37.3-9.2,75.1-14.8,112.9-16.4c16.3-0.8,32.6-0.8,48.7-0.1
		C1643.4,1074.4,1643.6,1076.8,1643.2,1081.7z"/>
	<path class="st13" d="M1196.4,737c-7.7,4.3-19.6,1.4-27-3.2c-17.3-10.5-35.4-25.1-51.8-27.7c-2.1-0.4,3.3-14.5,3-16.7
		c-0.3-3.2,3-10.5,6.2-11c3.2-0.5,6.1,5.3,8.8,6.8c15.3,7.7,27.9,21.7,44.8,24.4c7.6,1.1,19.7-1.3,23.9,6.6
		C1207.6,722.7,1201.9,733.9,1196.4,737z"/>
	<path class="st13" d="M1217.5,586.4c-7.7,4.3-19.6,1.4-27-3.2c-17.3-10.5-46.9-23.9-66.4-28.8c-7.2-1.8,17.9-13.4,17.7-15.5
		c-0.3-3.2,2.7-5.9,5.8-6.4c3.2-0.5,6.3,0.8,9.2,2.1c15.3,7.7,27.9,21.7,44.8,24.4c7.6,1.1,19.7-1.3,23.9,6.6
		C1228.7,572,1222.9,583.4,1217.5,586.4z"/>
	<path class="st1" d="M1080.1,680.2c4.7,10.4,33.1,61,33.1,61l8.2-55.9c1.3-0.3,1,0.1,2,0.8c14.6,8.6,28.4,18.6,41.2,29.8
		c4.7,4.2,9.3,8.5,15,11c5.8,2.4,13,2.5,17.7-1.5c7.1-6.1,5.6-17.3,2-26c-8.6-21.2-68.3-94.1-81-98.6c-6.6-2.4-14-3-20.3-0.1
		c-3.4,1.6-6.2,4.2-8.8,6.8C1075.5,621.9,1064.8,646.7,1080.1,680.2z"/>
	<path class="st1" d="M1105.3,532.9c0.8,11.2,29.9,56.1,29.9,56.1s6.1-41.4,6.7-45.7c0.4-2.3,0.8-5.1,2.8-5.7c0.1,0,0.3-0.1,0.4-0.1
		c1.3-0.3,2.5,0.4,3.5,1c14.6,8.6,28.4,18.6,41.2,29.8c4.7,4.2,9.3,8.5,15,11c5.8,2.4,13,2.5,17.7-1.5c7.1-6.1,5.6-17.3,2-26
		c-8.6-21.2-24-38.6-39.1-55.7c-9-10-18.3-20.5-30.9-25c-6.6-2.4-14-3-20.3-0.1c-3.4,1.6-6.2,4.2-8.8,6.8
		C1111.4,492.6,1103.9,512.9,1105.3,532.9z"/>
	<path class="st13" d="M1153.9,854.5c-5.4,3.8-12.6,4.5-19.1,3.4c-6.6-1.1-12.6-4-18.4-7.3c-2.4-1.4-4.8-2.8-7.5-2.9
		c-4.4-0.3-8.2,3-11.5,6.1c-1.8-4.8-1.6-10-1-15c0.5-3.8,1.3-7.7,3.3-11c2-3.3,5.6-5.8,9.3-5.8c3.9,0,7.3,2.8,10.6,4.9
		c7.2,4.7,15.7,7.2,24.2,7.5C1157.4,834.7,1171,842.9,1153.9,854.5z"/>
	<path class="st1" d="M1065.8,825.6c0.8,11.2,27.2,57.6,27.2,57.6s1.9-13.4,4.5-29l4.2-20.1c0.6-2.3,1.6-3.4,3.9-3.9
		c0.5-0.1,1,0,1.5,0.1c0.8,0.3,1.5,0.6,2.1,1c14.6,8.6,25.4,13.3,31.2,15.7c5.8,2.4,13,2.5,17.7-1.5c7.1-6.1,5.6-17.3,2-26
		c-8.6-21.2-32.3-50.9-45-55.6c-6.6-2.4-14-3-20.3-0.1c-3.4,1.6-6.2,4.2-8.8,6.8C1071.9,785.2,1064.4,805.7,1065.8,825.6z"/>
	<g>
		<g>
			<path class="st14" d="M1111.4,834.4L1111.4,834.4L1111.4,834.4L1111.4,834.4z"/>
		</g>
	</g>
	<path class="st2" d="M1106.3,681.6c1.1,5.8,3.2,11.5,5.7,16.8c1.5,3,3.7,6.1,6.6,7.8l2.8-21c0-1.8-3.7-3-8.5-6.7
		c-0.9-0.6-1.9-1.4-2.9-1.6c-1.1-0.3-2.4-0.1-3.2,0.6C1105.8,678.6,1106.1,680.2,1106.3,681.6z"/>
	<path class="st2" d="M1092.3,847.5c1.3,2.5,2.9,5.1,5.2,6.8l4.2-20.1c0.6-2.3,1.6-3.4,3.9-3.9c0.5-0.1,1,0,1.5,0.1
		c-1.5-1.8-2.7-1.5-10.7-5.2C1080.1,818,1089.7,842.2,1092.3,847.5z"/>
	<path class="st2" d="M1130.6,538.8c1,4.8,2.5,9.5,4.7,13.9c1.3,2.5,1.8,5.3,4,6.8l0.4-1.6c0.8-5.2,1.5-10.2,2.1-14.5
		c0.4-2.3,0.8-5.1,2.8-5.7c-0.4-1.3-13.1-2.9-13.8-2.3C1130.2,536.4,1130.3,537.7,1130.6,538.8z"/>
	<path class="st15" d="M1153.2,821.7c1.4,3.9,2.1,9-0.9,11.7c-1.6,1.5-4,2-6.3,1.8c-4.3-0.4-8.1-2.9-11.6-5.3
		c-2.7-1.8-5.3-3.5-8-5.3c-1.3-0.9-2.5-1.8-3.4-3c-1.5-2.4-0.8-5.7,0.9-8c1.6-2.3,4.2-3.8,6.6-5.3c5.6-3.4,9.9-8.8,14.5-2.8
		C1148.5,810.5,1151.3,816.1,1153.2,821.7z"/>
	<path class="st15" d="M1196.4,706.8c1.4,3.9,2.1,9-0.9,11.7c-1.6,1.5-4,2-6.3,1.8c-4.3-0.4-8.1-2.9-11.6-5.3
		c-2.7-1.8-5.3-3.5-8-5.3c-1.3-0.9-2.5-1.8-3.4-3c-1.5-2.4-0.8-5.7,0.9-8c1.6-2.3,4.2-3.8,6.6-5.3c5.6-3.4,9.9-8.8,14.5-2.8
		C1191.7,695.4,1194.4,701.1,1196.4,706.8z"/>
	<path class="st15" d="M1219.6,552.9c1.5,4.3,2.3,9.7-1,12.8c-1.8,1.6-4.4,2.1-6.8,1.9c-4.7-0.4-8.7-3.2-12.6-5.7
		c-2.9-1.9-5.7-3.9-8.6-5.8c-1.4-0.9-2.8-1.9-3.7-3.3c-1.6-2.7-0.9-6.2,0.9-8.6c1.8-2.5,4.5-4.2,7.1-5.7c6.1-3.7,10.6-9.6,15.7-3
		C1214.6,540.7,1217.5,546.9,1219.6,552.9z"/>
	<path class="st1" d="M1471.2,1024.6c0.1,74.1,22,199.7,126.9,141.4c23-12.8,35.6-38.6,44.8-62.9c11.6-30.6,27.8-112.8,28.2-145.4
		c0.5-47.2-7.3-94-15-140.6c-10.7-65.3-4.8-136.9,3.5-190.4c4-26.4,8.7-48.5,12.2-63.3c0.1-0.6,0.3-1.3,0.3-1.8c0-3.2-2-6.2-5.2-7.2
		c-16.2-5.6-35.6,1-48.2,13.1c-14.4,13.8-21.7,33.1-27.9,52c-20.2,61.1-31.2,190.9-68.2,243.6
		C1488.2,911.7,1471.1,1000.9,1471.2,1024.6z"/>
	<path class="st15" d="M1642.6,625.3c0.8,0.8,1.9,0.9,3,1c6.6,0.9,10.4,1.5,13.1,0.4c4-26.4,8.7-48.5,12.2-63.3
		c0.1-0.6,0.3-1.3,0.3-1.8c-1.4-0.5-3-0.4-4.3,0.3c-2.1,0.9-3.7,2.7-5.1,4.4c-12,15.5-16,35.2-19.8,54.2
		C1641.5,622.3,1641.3,624.2,1642.6,625.3z"/>
</g>
<g class="st16">
	<path class="st17" d="M842.9,287.4l161.6,0.3c1.2,0,2.2-0.9,2.4-2l14-92.7c-1.1-2.8-4.2-7.2-5.7-7.2l-157.8,3.8
		c-1.2,0-2.2,0.9-2.4,2l-17.7,89.8C837,282.9,841.5,287.4,842.9,287.4z"/>
	<path class="st18" d="M839.4,281.7l159.8,0.3c1.2,0,2.2-0.8,2.3-2l14.3-92.3c0.2-1.4-0.9-2.7-2.3-2.7H853.7c-1.2,0-2.1,0.8-2.3,2
		l-14.3,92C836.8,280.4,837.9,281.7,839.4,281.7z"/>
	<path class="st19" d="M839.2,282.6l160,0.3c1.2,0,2.2-0.8,2.3-2l1.9-12.4H838.6l-1.8,11.4C836.6,281.3,837.7,282.6,839.2,282.6z"/>
	<path class="st20" d="M938.6,212c-8.1-8.6-22.6-8.1-32.6,1.1s-11.5,23.8-3.4,32.4c8.1,8.6,22.6,8.1,32.6-1.1
		C945.2,235.1,946.7,220.6,938.6,212z M914.7,237.1l2.5-17.3c0.1-0.3,0.5-0.5,0.7-0.3l11.7,10c0.2,0.2,0.2,0.6-0.1,0.7l-14.2,7.3
		C915,237.7,914.6,237.4,914.7,237.1z"/>
	<path class="st21" d="M845.8,276.6c-0.5,0-0.9-0.4-0.9-0.9c0-0.5,0.4-0.9,0.9-0.9l149-0.7c0,0,0,0,0,0c0.5,0,0.9,0.4,0.9,0.9
		c0,0.5-0.4,0.9-0.9,0.9L845.8,276.6C845.8,276.6,845.8,276.6,845.8,276.6z"/>
	<path class="st18" d="M845.8,276.6c-0.5,0-0.9-0.4-0.9-0.9c0-0.5,0.4-0.9,0.9-0.9l68.3-0.2c0,0,0,0,0,0c0.5,0,0.9,0.4,0.9,0.9
		c0,0.5-0.4,0.9-0.9,0.9L845.8,276.6C845.8,276.6,845.8,276.6,845.8,276.6z"/>
</g>
<g class="st16">
	<path class="st17" d="M418.1,422.6l76.6,0.1c0.6,0,1-0.4,1.1-1l6.6-43.9c-0.5-1.3-2-3.4-2.7-3.4l-74.8,1.8c-0.6,0-1,0.4-1.1,1
		l-8.4,42.6C415.3,420.4,417.4,422.6,418.1,422.6z"/>
	<path class="st18" d="M416.4,419.9l75.8,0.1c0.6,0,1-0.4,1.1-0.9l6.8-43.8c0.1-0.7-0.4-1.3-1.1-1.3h-75.8c-0.6,0-1,0.4-1.1,0.9
		l-6.8,43.6C415.2,419.2,415.7,419.9,416.4,419.9z"/>
	<path class="st19" d="M416.3,420.3l75.9,0.1c0.6,0,1-0.4,1.1-0.9l0.9-5.9h-78.1l-0.8,5.4C415.1,419.7,415.6,420.3,416.3,420.3z"/>
	<path class="st20" d="M463.5,386.8c-3.8-4.1-10.7-3.9-15.4,0.5c-4.7,4.4-5.4,11.3-1.6,15.4c3.8,4.1,10.7,3.9,15.4-0.5
		C466.6,397.8,467.3,390.9,463.5,386.8z M452.1,398.7l1.2-8.2c0-0.2,0.2-0.2,0.3-0.1l5.5,4.7c0.1,0.1,0.1,0.3,0,0.3l-6.7,3.4
		C452.3,399,452.1,398.9,452.1,398.7z"/>
	<path class="st21" d="M419.4,417.4c-0.2,0-0.4-0.2-0.4-0.4c0-0.2,0.2-0.4,0.4-0.4l70.7-0.3c0,0,0,0,0,0c0.2,0,0.4,0.2,0.4,0.4
		c0,0.2-0.2,0.4-0.4,0.4L419.4,417.4C419.4,417.4,419.4,417.4,419.4,417.4z"/>
	<path class="st18" d="M419.4,417.4c-0.2,0-0.4-0.2-0.4-0.4c0-0.2,0.2-0.4,0.4-0.4l32.4-0.1c0,0,0,0,0,0c0.2,0,0.4,0.2,0.4,0.4
		c0,0.2-0.2,0.4-0.4,0.4L419.4,417.4C419.4,417.4,419.4,417.4,419.4,417.4z"/>
</g>
<g class="st16">
	<path class="st17" d="M578.2,609.1l145,0.2c1.9,0,3.5-1.4,3.8-3.3l12.7-82.3c0.4-2.3-4.3-6.8-6.6-6.8l-142.1,2.4
		c-1.9,0-3.5,1.4-3.8,3.3L571.4,603C571,605.3,575.8,609.1,578.2,609.1z"/>
	<path class="st18" d="M574.5,605.5l145,0.2c1.9,0,3.5-1.4,3.8-3.3l12.7-82.3c0.4-2.3-1.5-4.5-3.8-4.5H587.3c-1.9,0-3.5,1.4-3.8,3.3
		L570.7,601C570.3,603.3,572.2,605.5,574.5,605.5z"/>
	<path class="st22" d="M582.1,526l153,0.3l1-6.2c0.4-2.4-1.4-4.5-3.8-4.5H587.1c-1.9,0-3.5,1.4-3.8,3.2L582.1,526z"/>
	<path class="st23" d="M580.8,595.3l32.1,0.3c0.4,0,0.7-0.3,0.8-0.7l9.7-59.7c0.1-0.5-0.3-0.9-0.8-0.9h-32.1c-0.4,0-0.7,0.3-0.8,0.7
		l-9.8,59.5C579.9,594.8,580.3,595.2,580.8,595.3z"/>
	<path class="st24" d="M626.4,563.4l92.4,0.3c0.4,0,0.7-0.3,0.8-0.7l4.6-27.9c0.1-0.5-0.3-0.9-0.8-0.9l-92.4-0.1
		c-0.4,0-0.7,0.3-0.8,0.7l-4.6,27.6C625.6,562.9,625.9,563.4,626.4,563.4z"/>
	<g>
		<path class="st25" d="M661.5,572.7h-36c-0.9,0-1.6-0.7-1.6-1.6s0.7-1.6,1.6-1.6h36c0.9,0,1.6,0.7,1.6,1.6S662.4,572.7,661.5,572.7
			z"/>
		<path class="st25" d="M659.9,580.3h-36c-0.9,0-1.6-0.7-1.6-1.6s0.7-1.6,1.6-1.6h36c0.9,0,1.6,0.7,1.6,1.6S660.8,580.3,659.9,580.3
			z"/>
		<path class="st25" d="M658.6,587.9h-36c-0.9,0-1.6-0.7-1.6-1.6c0-0.9,0.7-1.6,1.6-1.6h36c0.9,0,1.6,0.7,1.6,1.6
			C660.3,587.2,659.6,587.9,658.6,587.9z"/>
		<path class="st25" d="M657.8,595.6h-36c-0.9,0-1.6-0.7-1.6-1.6c0-0.9,0.7-1.6,1.6-1.6h36c0.9,0,1.6,0.7,1.6,1.6
			C659.5,594.9,658.7,595.6,657.8,595.6z"/>
	</g>
	<g>
		<path class="st25" d="M715.5,572.7h-36c-0.9,0-1.6-0.7-1.6-1.6s0.7-1.6,1.6-1.6h36c0.9,0,1.6,0.7,1.6,1.6S716.4,572.7,715.5,572.7
			z"/>
		<path class="st25" d="M713.9,580.3h-36c-0.9,0-1.6-0.7-1.6-1.6s0.7-1.6,1.6-1.6h36c0.9,0,1.6,0.7,1.6,1.6S714.8,580.3,713.9,580.3
			z"/>
		<path class="st25" d="M712.7,587.9h-36c-0.9,0-1.6-0.7-1.6-1.6c0-0.9,0.7-1.6,1.6-1.6h36c0.9,0,1.6,0.7,1.6,1.6
			C714.3,587.2,713.6,587.9,712.7,587.9z"/>
		<path class="st25" d="M711.9,595.6h-36c-0.9,0-1.6-0.7-1.6-1.6c0-0.9,0.7-1.6,1.6-1.6h36c0.9,0,1.6,0.7,1.6,1.6
			C713.5,594.9,712.8,595.6,711.9,595.6z"/>
	</g>
	<path class="st18" d="M593,519c-0.2-0.2-0.4-0.2-0.6,0l-1.4,1.3l-1.4-1.5c-0.2-0.2-0.4-0.2-0.6,0c-0.2,0.2-0.2,0.4,0,0.6l1.4,1.5
		l-1.5,1.4c-0.2,0.2-0.2,0.4,0,0.6c0.1,0.1,0.2,0.1,0.3,0.1c0.1,0,0.2,0,0.3-0.1l1.5-1.4l1.3,1.4c0.2,0.2,0.4,0.2,0.6,0
		c0.1-0.1,0.1-0.2,0.1-0.3c0-0.1,0-0.2-0.1-0.3l-1.3-1.4l1.4-1.3C593.1,519.5,593.1,519.2,593,519z"/>
</g>
<g class="st16">
	<path class="st17" d="M640.9,181.4l100.5,0.2c1.3,0,2.5-1,2.7-2.3l8.8-57.1c0.3-1.6-3-4.7-4.6-4.7l-98.5,1.6c-1.3,0-2.4,1-2.7,2.3
		l-10.9,55.7C635.9,178.8,639.2,181.4,640.9,181.4z"/>
	<path class="st18" d="M638.3,178.9l100.5,0.2c1.3,0,2.5-1,2.7-2.3l8.8-57.1c0.3-1.6-1-3.1-2.7-3.1H647.1c-1.3,0-2.4,1-2.7,2.3
		l-8.8,56.9C635.4,177.4,636.7,178.9,638.3,178.9z"/>
	<path class="st22" d="M643.6,123.8l106.1,0.2l0.7-4.3c0.3-1.6-1-3.1-2.6-3.1H647.1c-1.3,0-2.4,1-2.6,2.2L643.6,123.8z"/>
	<path class="st23" d="M711.6,171.8l22.3,0.2c0.3,0,0.5-0.2,0.5-0.5l6.8-41.4c0.1-0.3-0.2-0.6-0.5-0.6h-22.3c-0.3,0-0.5,0.2-0.5,0.5
		l-6.8,41.2C711,171.5,711.3,171.8,711.6,171.8z"/>
	<path class="st24" d="M644.4,149.7l64,0.2c0.3,0,0.5-0.2,0.5-0.5l3.2-19.3c0.1-0.3-0.2-0.6-0.5-0.6l-64,0c-0.3,0-0.5,0.2-0.5,0.5
		l-3.2,19.2C643.8,149.4,644.1,149.7,644.4,149.7z"/>
	<g>
		<path class="st25" d="M668.8,156.2h-25c-0.6,0-1.1-0.5-1.1-1.1s0.5-1.1,1.1-1.1h25c0.6,0,1.1,0.5,1.1,1.1S669.4,156.2,668.8,156.2
			z"/>
		<path class="st25" d="M667.6,161.5h-25c-0.6,0-1.1-0.5-1.1-1.1c0-0.6,0.5-1.1,1.1-1.1h25c0.6,0,1.1,0.5,1.1,1.1
			C668.8,160.9,668.3,161.5,667.6,161.5z"/>
		<path class="st25" d="M666.8,166.7h-25c-0.6,0-1.1-0.5-1.1-1.1s0.5-1.1,1.1-1.1h25c0.6,0,1.1,0.5,1.1,1.1S667.4,166.7,666.8,166.7
			z"/>
		<path class="st25" d="M666.2,172h-25c-0.6,0-1.1-0.5-1.1-1.1c0-0.6,0.5-1.1,1.1-1.1h25c0.6,0,1.1,0.5,1.1,1.1
			C667.3,171.5,666.8,172,666.2,172z"/>
	</g>
	<g>
		<path class="st25" d="M702,156.2h-25c-0.6,0-1.1-0.5-1.1-1.1s0.5-1.1,1.1-1.1h25c0.6,0,1.1,0.5,1.1,1.1S702.6,156.2,702,156.2z"/>
		<path class="st25" d="M700.8,161.5h-25c-0.6,0-1.1-0.5-1.1-1.1c0-0.6,0.5-1.1,1.1-1.1h25c0.6,0,1.1,0.5,1.1,1.1
			C702,160.9,701.4,161.5,700.8,161.5z"/>
		<path class="st25" d="M700,166.7h-25c-0.6,0-1.1-0.5-1.1-1.1s0.5-1.1,1.1-1.1h25c0.6,0,1.1,0.5,1.1,1.1S700.6,166.7,700,166.7z"/>
		<path class="st25" d="M699.4,172h-25c-0.6,0-1.1-0.5-1.1-1.1c0-0.6,0.5-1.1,1.1-1.1h25c0.6,0,1.1,0.5,1.1,1.1
			C700.5,171.5,700,172,699.4,172z"/>
	</g>
	<path class="st18" d="M651.1,119c-0.1-0.1-0.3-0.1-0.4,0l-1,0.9l-1-1.1c-0.1-0.1-0.3-0.1-0.4,0c-0.1,0.1-0.1,0.3,0,0.4l1,1.1
		l-1.1,1c-0.1,0.1-0.1,0.3,0,0.4c0.1,0.1,0.1,0.1,0.2,0.1c0.1,0,0.1,0,0.2-0.1l1.1-1l0.9,1c0.1,0.1,0.3,0.1,0.4,0
		c0.1-0.1,0.1-0.1,0.1-0.2c0-0.1,0-0.1-0.1-0.2l-0.9-1l1-0.9C651.2,119.3,651.2,119.1,651.1,119z"/>
</g>
<g class="st16">
	<path class="st17" d="M1029.7,449.7l-38.9,250c-0.2,1.2-1.3,2.2-2.5,2.2l-95.3-0.2c-1.3,0-6.2-4.4-6.7-5.9c0.5,0.6,1.2,0.9,2,0.9
		l95.3,0.2c1.3,0,2.3-0.9,2.5-2.2l38.3-246h0l0.6-4c0.1-0.7-0.1-1.4-0.5-1.9C1026,443.9,1029.8,448.6,1029.7,449.7z"/>
	<path class="st17" d="M1025,444.8l-0.6,4h0l-38.3,246c-0.2,1.2-1.3,2.2-2.5,2.2l-95.3-0.2c-0.8,0-1.5-0.4-2-0.9c0,0,0,0,0,0
		c-0.1-0.2-0.1-0.5-0.1-0.7l40.5-246.5l0.4-2.2c0.2-1.2,1.3-2.2,2.5-2.2l42.1-0.9l51.4-1.1c0.4,0,1,0.3,1.5,0.7
		C1024.9,443.4,1025.1,444,1025,444.8z"/>
	<path class="st18" d="M1015.4,505.8l-29.6,190.3l0.2-1.3c-0.2,1.2-1.3,2.2-2.5,2.2l-95.3-0.2c-0.8,0-1.5-0.4-2-0.9c0,0,0,0,0,0
		c-0.4-0.5-0.7-1.3-0.5-2l2.1-13.8l26.9-173.6L1015.4,505.8z"/>
	<polygon class="st23" points="1023.8,451.7 1014.7,509.6 914.2,509.5 923.5,450.9 	"/>
	<path class="st24" d="M912.3,560.2l87.3,0.3c0.5,0,0.9-0.3,0.9-0.8l7.2-42.2c0.1-0.6-0.3-1.1-0.9-1.1l-87.3-0.1
		c-0.5,0-0.9,0.3-0.9,0.8l-7.2,41.9C911.3,559.7,911.8,560.2,912.3,560.2z"/>
	<g>
		<path class="st24" d="M986.8,567.6h-75.5c-0.6,0-1.1-0.5-1.1-1.1s0.5-1.1,1.1-1.1h75.5c0.6,0,1.1,0.5,1.1,1.1
			S987.4,567.6,986.8,567.6z"/>
		<path class="st24" d="M985.7,572.6h-75.5c-0.6,0-1.1-0.5-1.1-1.1s0.5-1.1,1.1-1.1h75.5c0.6,0,1.1,0.5,1.1,1.1
			S986.3,572.6,985.7,572.6z"/>
		<path class="st24" d="M984.9,577.7h-75.5c-0.6,0-1.1-0.5-1.1-1.1s0.5-1.1,1.1-1.1h75.5c0.6,0,1.1,0.5,1.1,1.1
			S985.5,577.7,984.9,577.7z"/>
		<path class="st24" d="M970.4,582.7h-61.6c-0.6,0-1.1-0.5-1.1-1.1c0-0.6,0.5-1.1,1.1-1.1h61.6c0.6,0,1.1,0.5,1.1,1.1
			C971.5,582.2,971,582.7,970.4,582.7z"/>
	</g>
	<path class="st24" d="M898.9,640.6l87.3,0.3c0.5,0,0.9-0.3,0.9-0.8l7.2-42.2c0.1-0.6-0.3-1.1-0.9-1.1l-87.3-0.1
		c-0.5,0-0.9,0.3-0.9,0.8l-7.2,41.9C897.9,640.1,898.3,640.6,898.9,640.6z"/>
	<path class="st23" d="M988.2,680.1l-2.3,14.7c-0.2,1.2-1.3,2.2-2.5,2.2l-95.3-0.2c-0.8,0-1.5-0.4-2-0.9c0,0,0,0,0,0
		c-0.4-0.5-0.7-1.3-0.5-2l2.1-13.8L988.2,680.1z"/>
	<g>
		<path class="st24" d="M973.4,648h-75.5c-0.6,0-1.1-0.5-1.1-1.1s0.5-1.1,1.1-1.1h75.5c0.6,0,1.1,0.5,1.1,1.1S974,648,973.4,648z"/>
		<path class="st24" d="M972.3,653.1h-75.5c-0.6,0-1.1-0.5-1.1-1.1s0.5-1.1,1.1-1.1h75.5c0.6,0,1.1,0.5,1.1,1.1
			S972.9,653.1,972.3,653.1z"/>
		<path class="st24" d="M971.5,658.1H896c-0.6,0-1.1-0.5-1.1-1.1s0.5-1.1,1.1-1.1h75.5c0.6,0,1.1,0.5,1.1,1.1
			S972.1,658.1,971.5,658.1z"/>
		<path class="st24" d="M957,663.1h-61.6c-0.6,0-1.1-0.5-1.1-1.1s0.5-1.1,1.1-1.1H957c0.6,0,1.1,0.5,1.1,1.1S957.6,663.1,957,663.1z
			"/>
	</g>
	<path class="st20" d="M991.9,475.4h-47.2c-1.2,0-2.2-1-2.2-2.2s1-2.2,2.2-2.2h47.2c1.2,0,2.2,1,2.2,2.2S993.2,475.4,991.9,475.4z"
		/>
	<path class="st20" d="M984.1,485.4h-37.3c-1.2,0-2.2-1-2.2-2.2s1-2.2,2.2-2.2h37.3c1.2,0,2.2,1,2.2,2.2S985.3,485.4,984.1,485.4z"
		/>
	<path class="st22" d="M1025,444.8l-1.1,6.9l-100.5-0.2l1.1-7.6c0.2-1.2,1.3-2.1,2.5-2.1h95.5c0.8,0,1.6,0.4,2,1
		C1024.9,443.4,1025.1,444,1025,444.8z"/>
	<path class="st18" d="M932.3,444.8c-0.2-0.2-0.4-0.2-0.6,0l-1.5,1.3l-1.5-1.6c-0.2-0.2-0.4-0.2-0.6,0c-0.2,0.2-0.2,0.4,0,0.6
		l1.5,1.6l-1.6,1.5c-0.2,0.2-0.2,0.4,0,0.6c0.1,0.1,0.2,0.1,0.3,0.1c0.1,0,0.2,0,0.3-0.1l1.6-1.5l1.3,1.4c0.2,0.2,0.4,0.2,0.6,0
		c0.1-0.1,0.1-0.2,0.1-0.3c0-0.1,0-0.2-0.1-0.3l-1.3-1.4l1.5-1.3C932.5,445.3,932.5,445,932.3,444.8z"/>
	<g>
		
			<ellipse transform="matrix(0.7315 -0.6819 0.6819 0.7315 -219.3977 815.8062)" class="st18" cx="926.1" cy="686.5" rx="2.4" ry="2.1"/>
		
			<ellipse transform="matrix(0.7315 -0.6819 0.6819 0.7315 -217.7473 819.9972)" class="st18" cx="932.2" cy="686.5" rx="2.4" ry="2.1"/>
		
			<ellipse transform="matrix(0.7315 -0.6819 0.6819 0.7315 -216.0968 824.1883)" class="st18" cx="938.4" cy="686.5" rx="2.4" ry="2.1"/>
		
			<ellipse transform="matrix(0.7315 -0.6819 0.6819 0.7315 -214.4463 828.3793)" class="st18" cx="944.5" cy="686.5" rx="2.4" ry="2.1"/>
	</g>
</g>
<g class="st16">
	<g>
		<path class="st17" d="M767.5,327.8l-9.5,62.7c-0.1,0.8-0.8,1.4-1.6,1.4l-60.3-0.2c-2.9-0.4-3.9-4.1-3.8-5.1l0.1,0.5
			c0.3,0.4,0.8,0.7,1.3,0.7l11.9,0l30.3,0.1l16.9,0.1c0.8,0,1.5-0.6,1.6-1.4l9.7-62.5c0.1-0.5-0.1-0.9-0.3-1.2
			C764.8,323.1,767.3,326.3,767.5,327.8z"/>
		<path class="st17" d="M764.1,324.2l-9.7,62.5c-0.1,0.8-0.8,1.4-1.6,1.4l-16.9-0.1l-30.3-0.1l-11.9,0c-0.6,0-1.1-0.3-1.3-0.7
			l11.9-60.2c0.1-0.8,0.8-1.4,1.6-1.4l57.8-2.5c0,0,0.1,0,0.1,0C764,323.3,764.1,323.7,764.1,324.2z"/>
		<path class="st23" d="M764.1,324.2l-9.7,62.5c-0.1,0.8-0.8,1.4-1.6,1.4l-16.9-0.1l-30.3-0.1l-11.9,0c-0.6,0-1.1-0.3-1.3-0.7
			c-0.2-0.3-0.3-0.7-0.2-1.1l9.7-62.3c0.1-0.8,0.8-1.4,1.6-1.4h59.1c0.5,0,1,0.2,1.2,0.6C764,323.3,764.1,323.7,764.1,324.2z"/>
	</g>
	
		<ellipse transform="matrix(0.7315 -0.6819 0.6819 0.7315 -37.4469 589.0856)" class="st18" cx="729.2" cy="342.1" rx="11.3" ry="9.8"/>
	<path class="st18" d="M738.6,371.2l-2.7,16.7l-30.3-0.1l1.9-16.6c0.6-4.3,2.9-8.2,6.1-11c3.2-2.8,7.3-4.6,11.6-4.6
		C733.8,355.7,739.8,362.7,738.6,371.2z"/>
</g>
<g class="st16">
	<path class="st17" d="M614,243.6C614,243.6,613.9,243.6,614,243.6l-76,1.4c-0.4,0-0.8,0.3-0.9,0.8l-6.7,33.7l0-0.3
		c-0.1,0.5,1.6,4.2,3.2,4.4l9.3,0c1.4,0,1.4-0.2,1.1,1.1l-2.1,10.3c-0.1,0.9,2.5,4,3.9,3c3.9-2.8,11.6-10.1,15.6-13.7
		c0.6-0.5,1.3-0.8,2-0.8l47.6,0.1c0.4,0,0.8-0.3,0.9-0.8l5.3-35.1C617.1,247,614.5,243.7,614,243.6z"/>
	<path class="st18" d="M614,243.6c-0.2-0.2-0.4-0.3-0.7-0.3h-76.7c-0.4,0-0.8,0.3-0.9,0.8l-5.4,34.8c0,0.2,0,0.4,0.1,0.6
		c0.2,0.2,0.4,0.4,0.8,0.4l6.7,0l4,0c0.8,0,1.4,0.7,1.3,1.5l-1.7,13.1c-0.1,0.9,0.9,1.5,1.6,0.9c4.1-3.5,14.1-12.2,17.1-14.7
		c0.6-0.5,1.3-0.7,2-0.7l45.8,0c0.4,0,0.8-0.3,0.9-0.8l5.4-34.9C614.2,244.1,614.1,243.8,614,243.6z"/>
	
		<ellipse transform="matrix(0.7315 -0.6819 0.6819 0.7315 -30.0346 445.4736)" class="st26" cx="550.6" cy="260.9" rx="5" ry="4.4"/>
	
		<ellipse transform="matrix(0.7315 -0.6819 0.6819 0.7315 -24.3513 459.5078)" class="st26" cx="571.2" cy="260.7" rx="5" ry="4.4"/>
	<ellipse transform="matrix(0.7315 -0.6819 0.6819 0.7315 -18.668 473.5421)" class="st26" cx="591.9" cy="260.5" rx="5" ry="4.4"/>
</g>
<g class="st16">
	<path class="st17" d="M1284.6,135.9C1284.6,135.9,1284.6,135.9,1284.6,135.9l-33.9,0.6c-0.2,0-0.4,0.1-0.4,0.3l-3,15l0-0.1
		c0,0.2,0.7,1.9,1.4,1.9l4.2,0c0.6,0,0.6-0.1,0.5,0.5l-0.9,4.6c-0.1,0.4,1.1,1.8,1.7,1.3c1.7-1.3,5.2-4.5,7-6.1
		c0.2-0.2,0.6-0.3,0.9-0.3l21.2,0c0.2,0,0.4-0.1,0.4-0.3l2.4-15.6C1286,137.4,1284.8,135.9,1284.6,135.9z"/>
	<path class="st23" d="M1284.6,135.9c-0.1-0.1-0.2-0.2-0.3-0.2H1250c-0.2,0-0.4,0.1-0.4,0.3l-2.4,15.5c0,0.1,0,0.2,0.1,0.3
		c0.1,0.1,0.2,0.2,0.3,0.2l3,0l1.8,0c0.4,0,0.6,0.3,0.6,0.7l-0.8,5.8c-0.1,0.4,0.4,0.7,0.7,0.4c1.8-1.6,6.3-5.4,7.6-6.6
		c0.2-0.2,0.6-0.3,0.9-0.3l20.4,0c0.2,0,0.4-0.1,0.4-0.3l2.4-15.6C1284.7,136.1,1284.6,136,1284.6,135.9z"/>
	
		<ellipse transform="matrix(0.7315 -0.6819 0.6819 0.7315 239.4468 895.2007)" class="st18" cx="1256.3" cy="143.6" rx="2.3" ry="2"/>
	
		<ellipse transform="matrix(0.7315 -0.6819 0.6819 0.7315 241.9812 901.4591)" class="st18" cx="1265.5" cy="143.5" rx="2.3" ry="2"/>
	
		<ellipse transform="matrix(0.7315 -0.6819 0.6819 0.7315 244.5156 907.7175)" class="st18" cx="1274.7" cy="143.4" rx="2.3" ry="2"/>
</g>
<g class="st16">
	<path class="st17" d="M850,999.6C850,999.6,849.9,999.6,850,999.6l-76,1.4c-0.4,0-0.8,0.3-0.9,0.8l-6.7,33.7l0-0.3
		c-0.1,0.5,1.6,4.2,3.2,4.4l9.3,0c1.4,0,1.4-0.2,1.1,1.1l-2.1,10.3c-0.1,0.9,2.5,4,3.9,3c3.9-2.8,11.6-10.1,15.6-13.7
		c0.6-0.5,1.3-0.8,2-0.8l47.6,0.1c0.4,0,0.8-0.3,0.9-0.8l5.3-35.1C853.1,1003,850.5,999.7,850,999.6z"/>
	<path class="st18" d="M850,999.6c-0.2-0.2-0.4-0.3-0.7-0.3h-76.7c-0.4,0-0.8,0.3-0.9,0.8l-5.4,34.8c0,0.2,0,0.4,0.1,0.6
		c0.2,0.2,0.4,0.4,0.8,0.4l6.7,0l4,0c0.8,0,1.4,0.7,1.3,1.5l-1.7,13.1c-0.1,0.9,0.9,1.5,1.6,0.9c4.1-3.5,14.1-12.2,17.1-14.7
		c0.6-0.5,1.3-0.7,2-0.7l45.8,0c0.4,0,0.8-0.3,0.9-0.8l5.4-34.9C850.2,1000.1,850.1,999.8,850,999.6z"/>
	
		<ellipse transform="matrix(0.7315 -0.6819 0.6819 0.7315 -482.1576 809.4037)" class="st26" cx="786.6" cy="1016.9" rx="5" ry="4.4"/>
	
		<ellipse transform="matrix(0.7315 -0.6819 0.6819 0.7315 -476.4743 823.4379)" class="st26" cx="807.2" cy="1016.7" rx="5" ry="4.4"/>
	
		<ellipse transform="matrix(0.7315 -0.6819 0.6819 0.7315 -470.791 837.4721)" class="st26" cx="827.9" cy="1016.5" rx="5" ry="4.4"/>
</g>
<g class="st16">
	<path class="st17" d="M479.2,803.8C479.2,803.8,479.2,803.8,479.2,803.8l-76,1.4c-0.4,0-0.8,0.3-0.9,0.8l-6.7,33.7l0-0.3
		c-0.1,0.5,1.6,4.2,3.2,4.4l9.3,0c1.4,0,1.4-0.2,1.1,1.1l-2.1,10.3c-0.1,0.9,2.5,4,3.9,3c3.9-2.8,11.6-10.1,15.6-13.7
		c0.6-0.5,1.3-0.8,2-0.8l47.6,0.1c0.4,0,0.8-0.3,0.9-0.8l5.3-35.1C482.3,807.2,479.8,803.9,479.2,803.8z"/>
	<path class="st18" d="M479.2,803.8c-0.2-0.2-0.4-0.3-0.7-0.3h-76.7c-0.4,0-0.8,0.3-0.9,0.8l-5.4,34.8c0,0.2,0,0.4,0.1,0.6
		c0.2,0.2,0.4,0.4,0.8,0.4l6.7,0l4,0c0.8,0,1.4,0.7,1.3,1.5l-1.7,13.1c-0.1,0.9,0.9,1.5,1.6,0.9c4.1-3.5,14.1-12.2,17.1-14.7
		c0.6-0.5,1.3-0.7,2-0.7l45.8,0c0.4,0,0.8-0.3,0.9-0.8l5.4-34.9C479.4,804.3,479.4,804,479.2,803.8z"/>
	
		<ellipse transform="matrix(0.7315 -0.6819 0.6819 0.7315 -448.201 504.0163)" class="st26" cx="415.8" cy="821.1" rx="5" ry="4.4"/>
	
		<ellipse transform="matrix(0.7315 -0.6819 0.6819 0.7315 -442.5177 518.0505)" class="st26" cx="436.5" cy="820.9" rx="5" ry="4.4"/>
	
		<ellipse transform="matrix(0.7315 -0.6819 0.6819 0.7315 -436.8344 532.0847)" class="st26" cx="457.1" cy="820.7" rx="5" ry="4.4"/>
</g>
<g class="st16">
	<path class="st17" d="M435.9,642.8C435.9,642.8,435.9,642.8,435.9,642.8l-93.1,1.7c-0.5,0-1,0.4-1.1,0.9l-8.1,41.2l0-0.3
		c-0.1,0.7,1.9,5.1,3.9,5.4l11.4,0c1.7,0,1.7-0.3,1.3,1.4l-2.5,12.7c-0.1,1.1,3,5,4.7,3.7c4.8-3.5,14.2-12.3,19.1-16.8
		c0.7-0.6,1.6-0.9,2.5-0.9l58.3,0.1c0.5,0,1-0.4,1.1-0.9l6.5-42.9C439.7,646.9,436.6,642.9,435.9,642.8z"/>
	<path class="st20" d="M435.9,642.8c-0.2-0.3-0.5-0.4-0.9-0.4h-94c-0.5,0-1,0.4-1.1,0.9l-6.6,42.6c0,0.3,0,0.5,0.2,0.8
		c0.2,0.3,0.5,0.5,0.9,0.5l8.2,0l4.9,0c1,0,1.8,0.9,1.6,1.9l-2.1,16.1c-0.1,1.1,1.2,1.8,2,1.1c5-4.3,17.3-14.9,20.9-18.1
		c0.7-0.6,1.5-0.9,2.4-0.9l56,0c0.5,0,1-0.4,1.1-0.9l6.6-42.8C436.2,643.3,436.1,643,435.9,642.8z"/>
	
		<ellipse transform="matrix(0.7315 -0.6819 0.6819 0.7315 -356.5023 422.5963)" class="st23" cx="358.3" cy="663.9" rx="6.2" ry="5.4"/>
	
		<ellipse transform="matrix(0.7315 -0.6819 0.6819 0.7315 -349.541 439.7863)" class="st23" cx="383.6" cy="663.7" rx="6.2" ry="5.4"/>
	
		<ellipse transform="matrix(0.7315 -0.6819 0.6819 0.7315 -342.5797 456.9763)" class="st23" cx="408.9" cy="663.4" rx="6.2" ry="5.4"/>
</g>
<path class="st0" d="M800.1,672.9c-2,1.8-4.2,3.2-6.5,4c-5.1,1.9-10.6,1.3-14.6-1.8c-0.5-0.4-1.1-0.9-1.5-1.4
	c-5.6-6-4.5-16.1,2.4-22.5c6.9-6.4,17-6.8,22.6-0.8C808.1,656.4,807,666.5,800.1,672.9z"/>
<path class="st0" d="M842.6,472.9c-2.8,2.6-6,4.5-9.3,5.7c-7.3,2.6-15.1,1.8-20.8-2.6c-0.8-0.6-1.5-1.3-2.2-2
	c-8-8.5-6.4-22.9,3.4-32.1c9.8-9.2,24.3-9.7,32.2-1.1C853.9,449.3,852.4,463.7,842.6,472.9z"/>
<path class="st0" d="M548.4,766c-1.3,1.3-2.9,2.2-4.5,2.7c-3.5,1.3-7.2,0.9-9.9-1.2c-0.4-0.3-0.7-0.6-1-1c-3.8-4.1-3.1-11,1.6-15.4
	c4.7-4.4,11.6-4.6,15.4-0.5C553.8,754.7,553.1,761.6,548.4,766z"/>
<path class="st0" d="M334,922.7c-0.9,0.9-2,1.6-3.1,2c-2.4,0.9-5,0.6-6.8-0.9c-0.3-0.2-0.5-0.4-0.7-0.7c-2.6-3-2.1-8,1.1-11.2
	c3.2-3.2,8-3.4,10.6-0.4C337.7,914.5,337.2,919.5,334,922.7z"/>
<path class="st27" d="M540.5,1030.4c-7.2-8.8-5.2-23,4.3-31.8c9.6-8.8,23.2-8.8,30.4,0"/>
<path class="st0" d="M250,657.7c-0.9,0.9-2,1.6-3.1,2c-2.4,0.9-5,0.6-6.8-0.9c-0.3-0.2-0.5-0.4-0.7-0.7c-2.6-3-2.1-8,1.1-11.2
	c3.2-3.2,8-3.4,10.6-0.4C253.7,649.5,253.2,654.5,250,657.7z"/>
<path class="st0" d="M283,340.7c-0.9,0.9-2,1.6-3.1,2c-2.4,0.9-5,0.6-6.8-0.9c-0.3-0.2-0.5-0.4-0.7-0.7c-2.6-3-2.1-8,1.1-11.2
	c3.2-3.2,8-3.4,10.6-0.4C286.7,332.5,286.2,337.5,283,340.7z"/>
<path class="st0" d="M275.1,159.6c-0.6,0.6-1.3,1-1.9,1.3c-1.5,0.6-3.1,0.4-4.3-0.6c-0.2-0.1-0.3-0.3-0.5-0.4
	c-1.7-1.9-1.3-5,0.7-7.1c2.1-2,5.1-2.1,6.7-0.2C277.5,154.4,277.2,157.5,275.1,159.6z"/>
<path class="st0" d="M97.1,470.6c-0.6,0.6-1.3,1-1.9,1.3c-1.5,0.6-3.1,0.4-4.3-0.6c-0.2-0.1-0.3-0.3-0.5-0.4c-1.7-1.9-1.3-5,0.7-7.1
	c2.1-2,5.1-2.1,6.7-0.2C99.5,465.4,99.2,468.5,97.1,470.6z"/>
<path class="st0" d="M162.1,889.6c-0.6,0.6-1.3,1-1.9,1.3c-1.5,0.6-3.1,0.4-4.3-0.6c-0.2-0.1-0.3-0.3-0.5-0.4
	c-1.7-1.9-1.3-5,0.7-7.1c2.1-2,5.1-2.1,6.7-0.2C164.5,884.4,164.2,887.5,162.1,889.6z"/>
<path class="st0" d="M313.1,1056.6c-0.6,0.6-1.3,1-1.9,1.3c-1.5,0.6-3.1,0.4-4.3-0.6c-0.2-0.1-0.3-0.3-0.5-0.4
	c-1.7-1.9-1.3-5,0.7-7.1c2.1-2,5.1-2.1,6.7-0.2C315.5,1051.4,315.2,1054.5,313.1,1056.6z"/>
<path class="st0" d="M1487.1,136.6c-0.6,0.6-1.3,1-1.9,1.3c-1.5,0.6-3.1,0.4-4.3-0.6c-0.2-0.1-0.3-0.3-0.5-0.4
	c-1.7-1.9-1.3-5,0.7-7.1c2.1-2,5.1-2.1,6.7-0.2C1489.5,131.4,1489.2,134.5,1487.1,136.6z"/>
<path class="st0" d="M471,490.7c-0.9,0.9-2,1.6-3.1,2c-2.4,0.9-5,0.6-6.8-0.9c-0.3-0.2-0.5-0.4-0.7-0.7c-2.6-3-2.1-8,1.1-11.2
	c3.2-3.2,8-3.4,10.6-0.4C474.7,482.5,474.2,487.5,471,490.7z"/>
<path class="st0" d="M444.1,293.5c-2.8,2.6-6,4.5-9.3,5.7c-7.3,2.6-15.1,1.8-20.8-2.6c-0.8-0.6-1.5-1.3-2.2-2
	c-8-8.5-6.4-22.9,3.4-32.1c9.8-9.2,24.3-9.7,32.2-1.1C455.4,270,453.9,284.3,444.1,293.5z"/>
<path class="st0" d="M345,452.8c-1.3,1.2-2.7,2-4.2,2.6c-3.3,1.2-6.8,0.8-9.4-1.2c-0.3-0.3-0.7-0.6-1-0.9
	c-3.6-3.9-2.9-10.3,1.5-14.5c4.4-4.1,11-4.4,14.6-0.5C350.1,442.2,349.4,448.7,345,452.8z"/>
<path class="st0" d="M1194,128.8c-1.3,1.2-2.7,2-4.2,2.6c-3.3,1.2-6.8,0.8-9.4-1.2c-0.3-0.3-0.7-0.6-1-0.9
	c-3.6-3.9-2.9-10.3,1.5-14.5c4.4-4.1,11-4.4,14.6-0.5C1199.1,118.2,1198.4,124.7,1194,128.8z"/>
<path class="st0" d="M779.6,143.4c-0.6,0.6-1.3,1-2.1,1.3c-1.6,0.6-3.4,0.4-4.6-0.6c-0.2-0.1-0.3-0.3-0.5-0.4
	c-1.8-1.9-1.4-5.1,0.8-7.2c2.2-2,5.4-2.2,7.2-0.3C782.2,138.1,781.8,141.3,779.6,143.4z"/>
<path class="st28" d="M963.6,37.4c-0.6,0.6-1.3,1-2.1,1.3c-1.6,0.6-3.4,0.4-4.6-0.6c-0.2-0.1-0.3-0.3-0.5-0.4
	c-1.8-1.9-1.4-5.1,0.8-7.2c2.2-2,5.4-2.2,7.2-0.3C966.2,32.1,965.8,35.3,963.6,37.4z"/>
<path class="st0" d="M1010.2,72.3c-1.3,1.2-2.8,2.1-4.4,2.7c-3.4,1.2-7.1,0.8-9.8-1.2c-0.4-0.3-0.7-0.6-1-0.9
	c-3.8-4-3.1-10.8,1.6-15.2c4.7-4.3,11.5-4.6,15.3-0.5C1015.6,61.2,1014.9,67.9,1010.2,72.3z"/>
<path class="st28" d="M1287.6,43.4c-0.6,0.6-1.3,1-2.1,1.3c-1.6,0.6-3.4,0.4-4.6-0.6c-0.2-0.1-0.3-0.3-0.5-0.4
	c-1.8-1.9-1.4-5.1,0.8-7.2c2.2-2,5.4-2.2,7.2-0.3C1290.2,38.1,1289.8,41.3,1287.6,43.4z"/>
<g class="st16">
	<path class="st18" d="M670.6,928.6c-4.6,4.3-9.8,7.4-15.2,9.4c-11.9,4.3-24.7,2.9-33.9-4.3c-1.3-1-2.5-2.1-3.6-3.3
		c-13-14-10.5-37.5,5.5-52.5c16.1-15,39.7-15.8,52.7-1.9C689.2,890.1,686.7,913.6,670.6,928.6z"/>
	
		<ellipse transform="matrix(0.7315 -0.6819 0.6819 0.7315 -436.0396 681.0495)" class="st23" cx="646.7" cy="894.1" rx="12.7" ry="11.1"/>
	<path class="st23" d="M657.2,926.9l-1.8,11.2c-11.9,4.3-24.7,2.9-33.9-4.3l0.8-7c0.7-4.8,3.2-9.2,6.8-12.3
		c3.6-3.1,8.3-5.1,13.1-5.1C651.9,909.5,658.5,917.3,657.2,926.9z"/>
</g>
<g class="st16">
	<path class="st29" d="M565.1,1021.3c-1.5,1.3-3.2,2.2-4.9,2.8c-3.8,1.2-7.9,0.6-10.7-1.7c-0.4-0.3-0.8-0.7-1.1-1.1
		c-4-4.6-2.9-12,2.4-16.6c5.3-4.6,12.8-4.6,16.7,0C571.5,1009.3,570.4,1016.7,565.1,1021.3z"/>
</g>
<path class="st0" d="M1111.3,203.6c-2.9,2.7-6.2,4.7-9.7,5.9c-7.5,2.7-15.7,1.9-21.5-2.7c-0.8-0.6-1.6-1.3-2.3-2.1
	c-8.3-8.9-6.7-23.8,3.5-33.3c10.2-9.5,25.2-10,33.4-1.2C1123.1,179.2,1121.5,194.1,1111.3,203.6z"/>
<ellipse transform="matrix(0.7315 -0.6819 0.6819 0.7315 170.3864 796.2242)" class="st30" cx="1096.1" cy="181.8" rx="8.1" ry="7"/>
<path class="st30" d="M1102.8,202.6l-1.1,7.1c-7.5,2.7-15.7,1.9-21.5-2.7l0.5-4.4c0.4-3.1,2.1-5.8,4.3-7.8c2.3-2,5.2-3.3,8.3-3.3
	C1099.4,191.5,1103.6,196.5,1102.8,202.6z"/>
<g class="st16">
	<path class="st29" d="M413.1,561.4c-3.6,3.3-7.6,5.7-11.8,7.2c-9.2,3.3-19.1,2.3-26.2-3.3c-1-0.8-1.9-1.6-2.8-2.5
		c-10.1-10.8-8.2-29,4.3-40.5c12.4-11.6,30.7-12.2,40.7-1.4C427.5,531.7,425.6,549.8,413.1,561.4z"/>
	
		<ellipse transform="matrix(0.7315 -0.6819 0.6819 0.7315 -258.6811 412.6795)" class="st31" cx="394.6" cy="534.8" rx="9.8" ry="8.5"/>
	<path class="st31" d="M402.8,560.1l-1.4,8.7c-9.2,3.3-19.1,2.3-26.2-3.3l0.6-5.4c0.5-3.7,2.5-7.1,5.3-9.5c2.8-2.4,6.4-4,10.1-4
		C398.6,546.6,403.8,552.7,402.8,560.1z"/>
</g>
<g class="st16">
	<path class="st29" d="M571,191.6c-2,1.8-4.2,3.2-6.5,4c-5.1,1.8-10.5,1.3-14.4-1.8c-0.5-0.4-1-0.9-1.5-1.4
		c-5.5-6-4.5-15.9,2.4-22.3c6.9-6.4,16.9-6.7,22.4-0.8C578.9,175.2,577.8,185.2,571,191.6z"/>
	
		<ellipse transform="matrix(0.7315 -0.6819 0.6819 0.7315 29.9489 429.8632)" class="st31" cx="560.7" cy="176.9" rx="5.4" ry="4.7"/>
	<path class="st31" d="M565.2,190.9l-0.8,4.8c-5.1,1.8-10.5,1.3-14.4-1.8l0.3-3c0.3-2.1,1.4-3.9,2.9-5.2c1.5-1.3,3.5-2.2,5.6-2.2
		C563,183.4,565.8,186.8,565.2,190.9z"/>
</g>
<g class="st16">
	<g>
		<path class="st32" d="M901.7,864.5c-0.3-0.3-0.6-0.6-1-0.9c-3.2-2.6-7.4-4.2-12.1-4.2c-10.8,0.1-20.2,8.5-21.9,19
			c0,0.1,0,0.3-0.1,0.4c0,0.3-0.1,0.7-0.1,1c-0.3,3.3,0.3,6.4,1.4,9.2c0.4,1,0.9,2,1.5,2.9c3.3,5,9,8.2,15.7,8.2
			c5.9,0,11.4-2.6,15.5-6.6c1.7-1.7,3.2-3.7,4.3-5.9c1.2-2.5,2-5.2,2.3-8C907.8,873.6,905.6,868.2,901.7,864.5z"/>
		<path class="st26" d="M916.2,908.5c0.4-0.4,0.7-0.8,1.1-1.2C916.9,907.7,916.5,908.1,916.2,908.5L916.2,908.5z"/>
		<path class="st33" d="M907.3,879.7c-0.2,2.8-1,5.5-2.3,8l19.8,8.6c2.7-5.4,4.4-11.3,4.9-17.2c1-11.8-2.9-23-10.6-31.2l-17.5,16.6
			C905.6,868.2,907.8,873.6,907.3,879.7z"/>
		<path class="st18" d="M905.1,887.7c-1.1,2.2-2.6,4.2-4.3,5.9c-4,4-9.6,6.6-15.5,6.6c-6.7,0-12.4-3.2-15.7-8.2l-19.8,15.2
			c7.4,10.1,19.4,16,32.6,16c12.6-0.1,24.8-5.6,33.7-14.7c0.4-0.4,0.7-0.8,1.1-1.2c0.2-0.2,0.4-0.4,0.6-0.6c0.6-0.6,1.1-1.3,1.6-1.9
			c0.2-0.2,0.3-0.4,0.5-0.7c0.2-0.3,0.4-0.5,0.6-0.8c0.1-0.2,0.3-0.4,0.4-0.6c0.2-0.3,0.4-0.6,0.6-0.9c0.2-0.3,0.3-0.5,0.5-0.8
			c0.2-0.3,0.4-0.6,0.6-0.9c0.2-0.3,0.4-0.6,0.5-0.9c0.4-0.6,0.7-1.2,1.1-1.9c0.2-0.3,0.3-0.6,0.4-0.8c0.1-0.1,0.1-0.2,0.2-0.3l0,0
			L905.1,887.7z"/>
		<path class="st31" d="M868.1,889.2c-1.2-2.8-1.7-5.9-1.4-9.2c0-0.4,0.1-0.7,0.1-1l-24.3-0.6c-0.1,0.4-0.1,0.9-0.1,1.3
			c-0.6,7.6,0.7,15,3.9,21.4c0,0,0,0,0,0.1c0.2,0.4,0.4,0.7,0.5,1.1c0.3,0.5,0.6,1,0.9,1.6c0.2,0.3,0.4,0.7,0.6,1c0,0,0,0,0,0
			c0.2,0.3,0.4,0.6,0.6,0.9c0.1,0.1,0.1,0.2,0.2,0.3c0.2,0.3,0.5,0.7,0.7,1c0,0.1,0.1,0.1,0.1,0.2l19.8-15.2
			C869,891.1,868.5,890.2,868.1,889.2z"/>
		<path class="st34" d="M866.8,878.5c1.6-10.6,11.1-19,21.9-19c4.7,0,8.9,1.5,12.1,4.2c0.3,0.3,0.7,0.6,1,0.9l17.5-16.6
			c-0.2-0.2-0.3-0.3-0.5-0.5c-0.2-0.2-0.4-0.4-0.6-0.6c-0.1-0.1-0.1-0.1-0.2-0.2c-0.2-0.2-0.4-0.4-0.6-0.6c0,0-0.1-0.1-0.1-0.1
			c-7.4-6.7-17.2-10.5-27.6-10.4c-23.2,0.1-44,18.7-47.1,41.7c0,0.3-0.1,0.7-0.1,1l24.3,0.6C866.7,878.8,866.8,878.6,866.8,878.5z"
			/>
	</g>
	<g>
		<path class="st17" d="M898.2,849.4c-0.2,0-0.5-0.1-0.7-0.2c-0.6-0.4-0.9-1.2-0.5-1.8l13.2-22.9h40.2c0.7,0,1.3,0.6,1.3,1.3
			s-0.6,1.3-1.3,1.3h-38.7l-12.5,21.6C899.2,849.2,898.7,849.4,898.2,849.4z"/>
		<g>
			<circle class="st17" cx="898.3" cy="848" r="2.8"/>
		</g>
	</g>
	<path class="st18" d="M950.4,820.2h-34.2c-1,0-1.8-0.8-1.8-1.8v-0.2c0-1,0.8-1.8,1.8-1.8h34.2c1,0,1.8,0.8,1.8,1.8v0.2
		C952.2,819.4,951.4,820.2,950.4,820.2z"/>
	<g>
		<path class="st17" d="M921.4,863.7c-0.5,0-0.9-0.2-1.2-0.7c-0.4-0.6-0.1-1.5,0.5-1.8l9.8-5.5h39.8c0.7,0,1.3,0.6,1.3,1.3
			s-0.6,1.3-1.3,1.3h-39.1l-9.2,5.1C921.9,863.6,921.7,863.7,921.4,863.7z"/>
		<g>
			<path class="st17" d="M922.9,864.7c-1.4,0.8-3.1,0.3-3.8-1.1c-0.8-1.4-0.3-3.1,1.1-3.8c1.4-0.8,3.1-0.3,3.8,1.1
				C924.8,862.2,924.3,864,922.9,864.7z"/>
		</g>
	</g>
	<path class="st18" d="M970.2,851.4H936c-1,0-1.8-0.8-1.8-1.8v-0.2c0-1,0.8-1.8,1.8-1.8h34.2c1,0,1.8,0.8,1.8,1.8v0.2
		C972,850.6,971.2,851.4,970.2,851.4z"/>
	<g>
		<path class="st17" d="M953.6,932.5h-42.3l-10.9-18.7c-0.4-0.6-0.2-1.5,0.5-1.8c0.6-0.4,1.5-0.2,1.8,0.5l10.1,17.3h40.8
			c0.7,0,1.3,0.6,1.3,1.3C954.9,931.9,954.3,932.5,953.6,932.5z"/>
		<g>
			<path class="st17" d="M899.2,914.7c-0.8-1.3-0.3-3.1,1-3.8c1.3-0.8,3.1-0.3,3.8,1c0.8,1.3,0.3,3.1-1,3.8
				C901.7,916.5,900,916,899.2,914.7z"/>
		</g>
	</g>
	<path class="st18" d="M951.3,925.5h-34.2c-1,0-1.8-0.8-1.8-1.8v-0.2c0-1,0.8-1.8,1.8-1.8h34.2c1,0,1.8,0.8,1.8,1.8v0.2
		C953.1,924.7,952.3,925.5,951.3,925.5z"/>
	<g>
		<path class="st17" d="M835.3,912.4h-42.1c-0.7,0-1.3-0.6-1.3-1.3s0.6-1.3,1.3-1.3h41l18-17.9c0.5-0.5,1.4-0.5,1.9,0s0.5,1.4,0,1.9
			L835.3,912.4z"/>
		<g>
			<path class="st17" d="M851.1,890.9c1.1-1.1,2.9-1.1,4,0c1.1,1.1,1.1,2.9,0,4c-1.1,1.1-2.9,1.1-4,0
				C850,893.7,850,891.9,851.1,890.9z"/>
		</g>
	</g>
	<path class="st18" d="M795.4,905.4h34.2c1,0,1.8-0.8,1.8-1.8v-0.2c0-1-0.8-1.8-1.8-1.8h-34.2c-1,0-1.8,0.8-1.8,1.8v0.2
		C793.6,904.6,794.4,905.4,795.4,905.4z"/>
</g>
<path class="st35" d="M771.1,253.7l-14.3,3.4c-1.6,0.4-2.7-1.3-1.9-2.8l4.2-7.5c0.4-0.8,0.3-1.8-0.3-2.4l-6.7-6.4
	c-1.1-1.1-0.5-3.1,1.1-3.4l14.9-3.5c1.5-0.4,2.7,1.2,2,2.6l-3.9,8.7c-0.5,1-0.3,2.2,0.5,2.9l5.4,5
	C773.3,251.3,772.7,253.3,771.1,253.7z"/>
<path class="st35" d="M954.1,114.7l-14.3,3.4c-1.6,0.4-2.7-1.3-1.9-2.8l4.2-7.5c0.4-0.8,0.3-1.8-0.3-2.4l-6.7-6.4
	c-1.1-1.1-0.5-3.1,1.1-3.4l14.9-3.5c1.5-0.4,2.7,1.2,2,2.6l-3.9,8.7c-0.5,1-0.3,2.2,0.5,2.9l5.4,5
	C956.3,112.3,955.7,114.3,954.1,114.7z"/>
<path class="st35" d="M1046.7,344.7l-12.8-7.2c-1.4-0.8-1.1-2.8,0.5-3.4l8.2-2.7c0.9-0.3,1.4-1.1,1.4-1.9l-0.6-9.3
	c-0.1-1.5,1.7-2.6,3.1-1.8l13.3,7.5c1.4,0.8,1.2,2.7-0.3,3.3l-8.7,3.7c-1,0.4-1.7,1.5-1.6,2.5l0.6,7.3
	C1050,344.4,1048.1,345.5,1046.7,344.7z"/>
<path class="st35" d="M648.6,467.3l-17.3-8.4c-1.9-0.9-1.7-3.6,0.4-4.4l10.5-4.2c1.1-0.4,1.8-1.5,1.7-2.6l-1.5-12.1
	c-0.2-2,2-3.5,3.9-2.6l18,8.7c1.8,0.9,1.8,3.4-0.1,4.3l-11.1,5.6c-1.3,0.7-2.1,2-1.9,3.4l1.4,9.6
	C652.8,466.7,650.4,468.2,648.6,467.3z"/>
<path class="st35" d="M500.2,605.8l-18,1.1c-2,0.1-3-2.2-1.7-3.8l6.7-8.2c0.7-0.9,0.8-2.1,0.2-2.9l-6.7-9.2c-1.1-1.5,0.1-3.8,2-3.9
	l18.7-1.1c1.9-0.1,3,2,1.9,3.6l-6.6,9.7c-0.8,1.2-0.8,2.6,0,3.6l5.5,7.2C503.4,603.4,502.2,605.7,500.2,605.8z"/>
<path class="st35" d="M298.7,792.6l-16.9,6.4c-1.9,0.7-3.6-1.2-2.8-3.1l3.9-9.8c0.4-1,0.1-2.2-0.7-2.8l-9.2-6.8
	c-1.5-1.1-1.1-3.6,0.8-4.3l17.5-6.7c1.8-0.7,3.4,1,2.9,2.9l-3.4,11.2c-0.4,1.3,0,2.7,1.1,3.5l7.4,5.2
	C301,789.3,300.5,791.9,298.7,792.6z"/>
<path class="st35" d="M552.6,895.6l-16.9,6.4c-1.9,0.7-3.6-1.2-2.8-3.1l3.9-9.8c0.4-1,0.1-2.2-0.7-2.8l-9.2-6.8
	c-1.5-1.1-1.1-3.6,0.8-4.3l17.5-6.7c1.8-0.7,3.4,1,2.9,2.9l-3.4,11.2c-0.4,1.3,0,2.7,1.1,3.5l7.4,5.2
	C554.8,892.3,554.4,894.9,552.6,895.6z"/>
<path class="st0" d="M437.1,974.4l-11-7.4c-1.2-0.8-0.8-2.6,0.7-3l7.5-1.8c0.8-0.2,1.4-0.9,1.4-1.6l0.1-8.4c0-1.4,1.7-2.2,2.9-1.4
	l11.4,7.7c1.2,0.8,0.9,2.5-0.5,2.9l-8.1,2.7c-1,0.3-1.6,1.2-1.6,2.1l0.1,6.6C440,974.3,438.3,975.2,437.1,974.4z"/>
<path class="st35" d="M828.8,592.1l-17-6.2c-1.9-0.7-1.9-3.2-0.1-4.2l9.4-4.9c1-0.5,1.5-1.6,1.3-2.6l-2.5-11.1
	c-0.4-1.8,1.6-3.5,3.4-2.8l17.6,6.4c1.8,0.7,2,3,0.3,4.1l-9.9,6.3c-1.2,0.8-1.8,2.1-1.4,3.3l2.2,8.8
	C832.6,591,830.6,592.7,828.8,592.1z"/>
<g class="st16">
	<g>
		<path class="st17" d="M632.3,770.8l104.2,0.2c0.8,0,1.5-0.6,1.6-1.4l10.1-65.3c-0.7-1.9-2.9-4.8-3.9-4.8l-101.7,2.5
			c-0.8,0-1.5,0.6-1.6,1.4l-12.7,63.4C628.3,767.7,631.3,770.7,632.3,770.8z"/>
		<path class="st18" d="M744.8,700.6l-10.3,65.1c-0.1,0.8-0.8,1.4-1.6,1.4l-10.5,0l-92.6-0.2c-1,0-1.7-0.9-1.6-1.8l10-63l0.3-1.9
			c0.1-0.8,0.8-1.4,1.6-1.4h103C744.2,698.8,745,699.6,744.8,700.6z"/>
	</g>
	<path class="st20" d="M721.1,758.7l-78.8-0.1c-0.8,0-1.5-0.7-1.3-1.6l6.4-41.9c6-2.7,11.7,6.1,13,8.2c1.3,2.2,5.1,8.7,9.1,12.9
		c4,4.2,6.4,5.5,8.9,5.9c3.9,0.7,7.4-2.1,11.1-3.3c4-1.4,8.5-1,12.2,1c5.3,2.8,8.4,8.3,12.4,12.8
		C716.2,754.9,718.6,756.9,721.1,758.7z"/>
	<path class="st23" d="M728.4,760.3C728.4,760.3,728.4,760.3,728.4,760.3l-86.8-0.1c-1,0-2-0.4-2.7-1.2c-0.7-0.8-1-1.8-0.8-2.8
		l7.5-50.3c0.1-0.9,0.9-1.5,1.8-1.3c0.9,0.1,1.5,0.9,1.3,1.8l-7.5,50.3c0,0.1,0,0.2,0.1,0.3c0,0.1,0.1,0.1,0.2,0.1l86.8,0.1
		c0.9,0,1.6,0.7,1.6,1.6C730,759.6,729.3,760.3,728.4,760.3z"/>
	<circle class="st36" cx="695.2" cy="738" r="1.9"/>
	<circle class="st36" cx="651.8" cy="714.8" r="1.9"/>
	<circle class="st36" cx="678.5" cy="742.2" r="1.9"/>
	<circle class="st36" cx="664.5" cy="729.4" r="1.9"/>
</g>
<path class="st0" d="M765.7,832.4c-3.3,0-5-2.4-6.3-4.3c-1.2-1.8-1.9-2.8-3.3-2.8c-1.4,0-2.1,1-3.3,2.8c-1.3,1.9-2.9,4.3-6.3,4.3
	c-3.3,0-5-2.4-6.3-4.3c-1.2-1.8-1.9-2.8-3.3-2.8s-2.1,1-3.3,2.8c-1.3,1.9-2.9,4.3-6.3,4.3c-3.3,0-5-2.4-6.3-4.3
	c-1.2-1.8-1.9-2.8-3.3-2.8c-1,0-1.8-0.8-1.8-1.8s0.8-1.8,1.8-1.8c3.3,0,5,2.4,6.3,4.3c1.2,1.8,1.9,2.8,3.3,2.8c1.4,0,2.1-1,3.3-2.8
	c1.3-1.9,2.9-4.3,6.3-4.3s5,2.4,6.3,4.3c1.2,1.8,1.9,2.8,3.3,2.8c1.4,0,2.1-1,3.3-2.8c1.3-1.9,2.9-4.3,6.3-4.3c3.3,0,5,2.4,6.3,4.3
	c1.2,1.8,1.9,2.8,3.3,2.8c1.4,0,2.1-1,3.3-2.8c1.3-1.9,2.9-4.3,6.3-4.3c1,0,1.8,0.8,1.8,1.8s-0.8,1.8-1.8,1.8c-1.4,0-2.1,1-3.3,2.8
	C770.7,830,769,832.4,765.7,832.4z"/>
<path class="st0" d="M1009.7,767.4c-3.3,0-5-2.4-6.3-4.3c-1.2-1.8-1.9-2.8-3.3-2.8c-1.4,0-2.1,1-3.3,2.8c-1.3,1.9-2.9,4.3-6.3,4.3
	c-3.3,0-5-2.4-6.3-4.3c-1.2-1.8-1.9-2.8-3.3-2.8s-2.1,1-3.3,2.8c-1.3,1.9-2.9,4.3-6.3,4.3c-3.3,0-5-2.4-6.3-4.3
	c-1.2-1.8-1.9-2.8-3.3-2.8c-1,0-1.8-0.8-1.8-1.8s0.8-1.8,1.8-1.8c3.3,0,5,2.4,6.3,4.3c1.2,1.8,1.9,2.8,3.3,2.8c1.4,0,2.1-1,3.3-2.8
	c1.3-1.9,2.9-4.3,6.3-4.3s5,2.4,6.3,4.3c1.2,1.8,1.9,2.8,3.3,2.8c1.4,0,2.1-1,3.3-2.8c1.3-1.9,2.9-4.3,6.3-4.3c3.3,0,5,2.4,6.3,4.3
	c1.2,1.8,1.9,2.8,3.3,2.8c1.4,0,2.1-1,3.3-2.8c1.3-1.9,2.9-4.3,6.3-4.3c1,0,1.8,0.8,1.8,1.8s-0.8,1.8-1.8,1.8c-1.4,0-2.1,1-3.3,2.8
	C1014.7,765,1013,767.4,1009.7,767.4z"/>
<path class="st0" d="M880.6,403.8c-3.3,0-5-2.4-6.3-4.3c-1.2-1.8-1.9-2.8-3.3-2.8c-1.4,0-2.1,1-3.3,2.8c-1.3,1.9-2.9,4.3-6.3,4.3
	c-3.3,0-5-2.4-6.3-4.3c-1.2-1.8-1.9-2.8-3.3-2.8s-2.1,1-3.3,2.8c-1.3,1.9-2.9,4.3-6.3,4.3c-3.3,0-5-2.4-6.3-4.3
	c-1.2-1.8-1.9-2.8-3.3-2.8c-1,0-1.8-0.8-1.8-1.8c0-1,0.8-1.8,1.8-1.8c3.3,0,5,2.4,6.3,4.3c1.2,1.8,1.9,2.8,3.3,2.8
	c1.4,0,2.1-1,3.3-2.8c1.3-1.9,2.9-4.3,6.3-4.3s5,2.4,6.3,4.3c1.2,1.8,1.9,2.8,3.3,2.8c1.4,0,2.1-1,3.3-2.8c1.3-1.9,2.9-4.3,6.3-4.3
	c3.3,0,5,2.4,6.3,4.3c1.2,1.8,1.9,2.8,3.3,2.8c1.4,0,2.1-1,3.3-2.8c1.3-1.9,2.9-4.3,6.3-4.3c1,0,1.8,0.8,1.8,1.8
	c0,1-0.8,1.8-1.8,1.8c-1.4,0-2.1,1-3.3,2.8C885.6,401.4,884,403.8,880.6,403.8z"/>
<path class="st0" d="M308,590.7c-2.7,0-4-2-5.1-3.5c-1-1.4-1.6-2.3-2.7-2.3c-1.1,0-1.7,0.8-2.7,2.3c-1.1,1.6-2.4,3.5-5.1,3.5
	c-2.7,0-4-2-5.1-3.5c-1-1.4-1.6-2.3-2.7-2.3s-1.7,0.8-2.7,2.3c-1.1,1.6-2.4,3.5-5.1,3.5c-2.7,0-4-2-5.1-3.5c-1-1.4-1.6-2.3-2.7-2.3
	c-0.8,0-1.4-0.6-1.4-1.4c0-0.8,0.6-1.4,1.4-1.4c2.7,0,4,2,5.1,3.5c1,1.4,1.6,2.3,2.7,2.3c1.1,0,1.7-0.8,2.7-2.3
	c1.1-1.6,2.4-3.5,5.1-3.5s4,2,5.1,3.5c1,1.4,1.6,2.3,2.7,2.3c1.1,0,1.7-0.8,2.7-2.3c1.1-1.6,2.4-3.5,5.1-3.5c2.7,0,4,2,5.1,3.5
	c1,1.4,1.6,2.3,2.7,2.3c1.1,0,1.7-0.8,2.7-2.3c1.1-1.6,2.4-3.5,5.1-3.5c0.8,0,1.4,0.6,1.4,1.4c0,0.8-0.6,1.4-1.4,1.4
	c-1.1,0-1.7,0.8-2.7,2.3C312,588.7,310.7,590.7,308,590.7z"/>
<path class="st0" d="M559.3,481.2c-1.8,0-2.6-1.3-3.3-2.3c-0.6-0.9-1-1.5-1.8-1.5c-0.7,0-1.1,0.5-1.8,1.5c-0.7,1-1.5,2.3-3.3,2.3
	c-1.8,0-2.6-1.3-3.3-2.3c-0.6-0.9-1-1.5-1.8-1.5s-1.1,0.5-1.8,1.5c-0.7,1-1.5,2.3-3.3,2.3c-1.8,0-2.6-1.3-3.3-2.3
	c-0.6-0.9-1-1.5-1.8-1.5c-0.5,0-0.9-0.4-0.9-0.9s0.4-0.9,0.9-0.9c1.8,0,2.6,1.3,3.3,2.3c0.6,0.9,1,1.5,1.8,1.5
	c0.7,0,1.1-0.5,1.8-1.5c0.7-1,1.5-2.3,3.3-2.3s2.6,1.3,3.3,2.3c0.6,0.9,1,1.5,1.8,1.5c0.7,0,1.1-0.5,1.8-1.5c0.7-1,1.5-2.3,3.3-2.3
	c1.8,0,2.6,1.3,3.3,2.3c0.6,0.9,1,1.5,1.8,1.5c0.7,0,1.1-0.5,1.8-1.5c0.7-1,1.5-2.3,3.3-2.3c0.5,0,0.9,0.4,0.9,0.9s-0.4,0.9-0.9,0.9
	c-0.7,0-1.1,0.5-1.8,1.5C561.9,479.9,561,481.2,559.3,481.2z"/>
<path class="st0" d="M1080.7,119.1c-4.2,0-6.3-3-7.9-5.5c-1.5-2.2-2.4-3.5-4.2-3.5c-1.7,0-2.7,1.3-4.2,3.5c-1.6,2.4-3.7,5.5-7.9,5.5
	c-4.2,0-6.3-3-7.9-5.5c-1.5-2.2-2.4-3.5-4.2-3.5s-2.7,1.3-4.2,3.5c-1.6,2.4-3.7,5.5-7.9,5.5c-4.2,0-6.3-3-7.9-5.5
	c-1.5-2.2-2.4-3.5-4.2-3.5c-1.2,0-2.2-1-2.2-2.2c0-1.2,1-2.2,2.2-2.2c4.2,0,6.3,3,7.9,5.5c1.5,2.2,2.4,3.5,4.2,3.5
	c1.7,0,2.7-1.3,4.2-3.5c1.6-2.4,3.7-5.5,7.9-5.5s6.3,3,7.9,5.5c1.5,2.2,2.4,3.5,4.2,3.5c1.7,0,2.7-1.3,4.2-3.5
	c1.6-2.4,3.7-5.5,7.9-5.5c4.2,0,6.3,3,7.9,5.5c1.5,2.2,2.4,3.5,4.2,3.5s2.7-1.3,4.2-3.5c1.6-2.4,3.7-5.5,7.9-5.5
	c1.2,0,2.2,1,2.2,2.2c0,1.2-1,2.2-2.2,2.2c-1.8,0-2.7,1.3-4.2,3.5C1086.9,116,1084.9,119.1,1080.7,119.1z"/>
<path class="st0" d="M1399.7,117.1c-4.2,0-6.3-3-7.9-5.5c-1.5-2.2-2.4-3.5-4.2-3.5c-1.7,0-2.7,1.3-4.2,3.5c-1.6,2.4-3.7,5.5-7.9,5.5
	c-4.2,0-6.3-3-7.9-5.5c-1.5-2.2-2.4-3.5-4.2-3.5s-2.7,1.3-4.2,3.5c-1.6,2.4-3.7,5.5-7.9,5.5c-4.2,0-6.3-3-7.9-5.5
	c-1.5-2.2-2.4-3.5-4.2-3.5c-1.2,0-2.2-1-2.2-2.2c0-1.2,1-2.2,2.2-2.2c4.2,0,6.3,3,7.9,5.5c1.5,2.2,2.4,3.5,4.2,3.5
	c1.7,0,2.7-1.3,4.2-3.5c1.6-2.4,3.7-5.5,7.9-5.5s6.3,3,7.9,5.5c1.5,2.2,2.4,3.5,4.2,3.5c1.7,0,2.7-1.3,4.2-3.5
	c1.6-2.4,3.7-5.5,7.9-5.5c4.2,0,6.3,3,7.9,5.5c1.5,2.2,2.4,3.5,4.2,3.5s2.7-1.3,4.2-3.5c1.6-2.4,3.7-5.5,7.9-5.5
	c1.2,0,2.2,1,2.2,2.2c0,1.2-1,2.2-2.2,2.2c-1.8,0-2.7,1.3-4.2,3.5C1405.9,114,1403.9,117.1,1399.7,117.1z"/>
<path class="st0" d="M988.8,1052.8l-12.5,1.2c-2.4,0.2-4.6-1.6-4.8-4l-1.2-12.5c-0.4-3.9,4.2-6.4,7.2-3.8l13.7,11.3
	C994.3,1047.5,992.8,1052.4,988.8,1052.8z"/>
<path class="st0" d="M1033.1,919.2l5.9,11c1.2,2.2,0.3,4.8-1.8,6l-11,5.9c-3.5,1.9-7.5-1.4-6.3-5.2l5.1-17
	C1026.1,916.2,1031.2,915.7,1033.1,919.2z"/>
<path class="st37" d="M538.6,675c-8.1-8.6-22.6-8.1-32.6,1.1c-9.9,9.3-11.5,23.8-3.4,32.4s22.6,8.1,32.6-1.1S546.7,683.6,538.6,675z
	 M514.7,700.1l2.5-17.3c0.1-0.3,0.5-0.5,0.7-0.3l11.7,10c0.2,0.2,0.2,0.6-0.1,0.7l-14.2,7.3C515,700.7,514.6,700.4,514.7,700.1z"/>
<path class="st35" d="M626.6,353c-8.1-8.6-22.6-8.1-32.6,1.1c-9.9,9.3-11.5,23.8-3.4,32.4c8.1,8.6,22.6,8.1,32.6-1.1
	C633.2,376.1,634.7,361.6,626.6,353z M602.7,378.1l2.5-17.3c0.1-0.3,0.5-0.5,0.7-0.3l11.7,10c0.2,0.2,0.2,0.6-0.1,0.7l-14.2,7.3
	C603,378.7,602.6,378.4,602.7,378.1z"/>
<path class="st37" d="M865.6,68c-8.1-8.6-22.6-8.1-32.6,1.1s-11.5,23.8-3.4,32.4c8.1,8.6,22.6,8.1,32.6-1.1
	C872.2,91.1,873.7,76.6,865.6,68z M841.7,93.1l2.5-17.3c0.1-0.3,0.5-0.5,0.7-0.3l11.7,10c0.2,0.2,0.2,0.6-0.1,0.7l-14.2,7.3
	C842,93.7,841.6,93.4,841.7,93.1z"/>
<path class="st35" d="M1160.3,33.3c-7-7.5-19.6-7-28.2,1s-9.9,20.6-3,28c7,7.5,19.6,7,28.2-1C1165.9,53.3,1167.3,40.8,1160.3,33.3z
	 M1139.6,55l2.2-14.9c0-0.3,0.4-0.4,0.6-0.2l10.1,8.6c0.2,0.2,0.2,0.5-0.1,0.6l-12.3,6.3C1139.9,55.6,1139.5,55.3,1139.6,55z"/>
<path class="st27" d="M528.2,1039.7c-11.9-14.5-8.7-38,7.2-52.5c15.8-14.5,38.3-14.5,50.2,0"/>
<path class="st27" d="M534.3,1034.1c-9.3-11.4-6.8-29.9,5.6-41.3c12.5-11.4,30.1-11.4,39.5,0"/>
<path class="st27" d="M421.5,189.4c-7.2-8.8-5.2-23,4.3-31.8c9.6-8.8,23.2-8.8,30.4,0"/>
<path class="st27" d="M409.2,198.7c-11.9-14.5-8.7-38,7.2-52.5c15.8-14.5,38.3-14.5,50.2,0"/>
<path class="st27" d="M415.3,193.1c-9.3-11.4-6.8-29.9,5.6-41.3c12.5-11.4,30.1-11.4,39.5,0"/>
</svg>
