<?xml version="1.0" encoding="utf-8"?>
<!-- Generator: Adobe Illustrator 22.1.0, SVG Export Plug-In . SVG Version: 6.00 Build 0)  -->
<svg version="1.1" id="Layer_1" xmlns="http://www.w3.org/2000/svg" xmlns:xlink="http://www.w3.org/1999/xlink" x="0px" y="0px"
	 viewBox="0 0 1694 1242" style="enable-background:new 0 0 1694 1242;" xml:space="preserve">
<style type="text/css">
	.st0{opacity:0.3;fill:#2868C6;enable-background:new    ;}
	.st1{fill:#F1B49B;}
	.st2{fill:#D8917D;}
	.st3{fill:#6B848E;}
	.st4{fill:#C0CBCE;}
	.st5{fill:#526972;}
	.st6{fill:#E0E2E2;}
	.st7{fill:#FFFFFF;}
	.st8{fill:#B3B3B3;}
	.st9{fill:#1F5FBF;}
	.st10{fill:#F0F1F1;}
	.st11{fill:#B5C3C6;}
	.st12{fill:#3E85DB;}
	.st13{opacity:0.5;fill:#4C5973;enable-background:new    ;}
	.st14{fill:#515151;}
	.st15{fill:#F7D2C6;}
	.st16{opacity:0.3;}
	.st17{fill:#154EA4;}
	.st18{fill:#649AEA;}
	.st19{fill:#87C3F4;}
	.st20{fill:#7AB3ED;}
	.st21{fill:#69B1E2;}
	.st22{fill:#73ACEF;}
	.st23{fill:#2A6CCE;}
	.st24{fill:#327CD6;}
	.st25{fill:#3B8BDB;}
	.st26{fill:#A0D1F9;}
	.st27{opacity:0.3;fill:none;stroke:#2868C6;stroke-width:3;stroke-linecap:round;stroke-miterlimit:10;enable-background:new    ;}
	.st28{opacity:0.4;fill:#2868C6;enable-background:new    ;}
	.st29{fill:#2868C6;}
	.st30{opacity:0.3;fill:#337BD1;enable-background:new    ;}
	.st31{fill:#337BD1;}
	.st32{fill:none;}
	.st33{fill:#75AEF2;}
	.st34{fill:#7EB8F2;}
	.st35{opacity:0.3;fill:#1B59B2;enable-background:new    ;}
	.st36{fill:#3880D6;}
	.st37{opacity:0.3;fill:#649AEA;enable-background:new    ;}
</style>
<path class="st0" d="M1107.7,658.4c-3.3,0-5-2.4-6.3-4.3c-1.2-1.8-1.9-2.8-3.3-2.8s-2.1,1-3.3,2.8c-1.3,1.9-2.9,4.3-6.3,4.3
	c-3.3,0-5-2.4-6.3-4.3c-1.2-1.8-1.9-2.8-3.3-2.8s-2.1,1-3.3,2.8c-1.3,1.9-2.9,4.3-6.3,4.3c-3.3,0-5-2.4-6.3-4.3
	c-1.2-1.8-1.9-2.8-3.3-2.8c-1,0-1.8-0.8-1.8-1.8s0.8-1.8,1.8-1.8c3.3,0,5,2.4,6.3,4.3c1.2,1.8,1.9,2.8,3.3,2.8s2.1-1,3.3-2.8
	c1.3-1.9,2.9-4.3,6.3-4.3c3.3,0,5,2.4,6.3,4.3c1.2,1.8,1.9,2.8,3.3,2.8s2.1-1,3.3-2.8c1.3-1.9,2.9-4.3,6.3-4.3c3.3,0,5,2.4,6.3,4.3
	c1.2,1.8,1.9,2.8,3.3,2.8s2.1-1,3.3-2.8c1.3-1.9,2.9-4.3,6.3-4.3c1,0,1.8,0.8,1.8,1.8s-0.8,1.8-1.8,1.8c-1.4,0-2.1,1-3.3,2.8
	C1112.7,656,1111,658.4,1107.7,658.4z"/>
<path class="st0" d="M1137,517.3c-5.7,5.4-12.3,9.3-19,11.7c-14.8,5.4-30.8,3.7-42.4-5.3c-1.6-1.2-3.1-2.6-4.4-4.1
	c-16.3-17.4-13.2-46.8,6.9-65.5s49.5-19.7,65.8-2.3C1160.1,469.2,1157,498.5,1137,517.3z"/>
<g>
	<path class="st1" d="M1154.4,530.6c2.4,6.3,2.9,27.9,9.6,28.7c8.3,1.1,9.2-27.4,13-34.9c7.1-13.6,14.3-28,14.3-43.4
		c0-12.5-6.1-28.3-14.8-43.6c-3.4-5.8-7.1-11.6-11.1-17c-21.2-29.3-55.6-59.4-60.4-37.3C1102,397.9,1149,516.2,1154.4,530.6z"/>
	<path class="st2" d="M1160.1,532.3c5.6-13.5,5.8-31.1,8.2-45.5c2.8-16.5,5.4-33,8.2-49.5c-3.4-5.8-7.1-11.6-11.1-17
		c-0.8,0.8-1.4,1.5-1.9,2.4c-1.5,2.7-1.8,5.8-2,9C1159.6,465.3,1164.6,498.7,1160.1,532.3z"/>
	<path class="st1" d="M1340.9,1293.3c-27.9,5.6-47.4-11.7-53.9-18.9c-49-52.8-90.7-111.6-130.1-171.9
		c-13.3-20.3-26.5-41.2-34.2-64.2c-7.7-23-9.7-48.9-0.6-71.5c6.8-16.8,19.1-30.6,31.8-43.4c92.6-92.9,221.3-148.9,352.3-153.2
		c17.9-0.6,36.2-0.1,53,6.3c31.4,12.1,51.9,44.1,59.2,76.9c7.3,33,8.5,347.8-32.5,360.8C1541.9,1228.6,1382.5,1285,1340.9,1293.3z"
		/>
	<path class="st2" d="M1472.2,1155.6c0,4.2-6.1,4.8-6.8,0.6c0-0.1,0-0.1,0-0.3c-1.1-6.8-1.3-13.9-4.3-20.1
		c-7.1-14.3-26-17-41.9-17.3c-41.8-0.9-83.7,2.1-125.5,1.4c-41.8-0.8-84.2-5.4-123.1-20.8c52.4-7.5,105.3-8,158.1-7.5
		c26.1,0.3,52.3,0.8,78.3,0.9c13.3,0,26.5,0,39.7-0.3c6.8-0.1,29.4-4.7,33.2,2c3.2,5.7-6.2,31.1-6.7,38.8
		C1472.8,1135.7,1472.1,1146.1,1472.2,1155.6z"/>
	<g>
		<path class="st3" d="M1647.2,334.7l-86.2,758.5c-1.5,12-11.9,21.1-24,21.1h-416.5c-8.6,0-22.1-8.2-31.2-17.9
			c-8-8.5-8.7-21.3-2.1-30.9l514.2-755.7c6.9-10.2,21.6-12.1,30.7-3.7C1641,314.6,1648.2,326.5,1647.2,334.7z"/>
		<path class="st4" d="M1635.6,323.3l-90.8,751c-1.5,12-11.9,21.1-24,21.1h-416.5c-14.5,0-25.8-12.8-24-27.3l109-750.9
			c1.5-12,11.6-21.2,23.7-21.2h398.6C1626.3,296,1637.5,308.8,1635.6,323.3z"/>
		<path class="st5" d="M1467.8,355.6h-133c-2.9,0-5.3-2.4-5.3-5.3c0-2.9,2.4-5.3,5.3-5.3h133c2.9,0,5.3,2.4,5.3,5.3
			C1473.1,353.2,1470.7,355.6,1467.8,355.6z"/>
		<path class="st5" d="M1345.4,1107.1h-84.5c-0.9,0-1.6-0.8-1.6-1.6s0.8-1.6,1.6-1.6h84.5c0.9,0,1.6,0.8,1.6,1.6
			S1346.3,1107.1,1345.4,1107.1z"/>
		<polygon class="st6" points="1626.5,392.5 1552,1015.5 1088.5,1013.7 1177.7,392.5 		"/>
		<path class="st7" d="M1202.8,494.6l372-1.8c7.1,0,13-5.2,14-12.1l6.6-45.3c1.1-8.5-5.4-16.2-14-16.2h-370.3c-7.1,0-13,5.2-14,12.1
			l-8.3,47.1C1187.5,487,1194.2,494.6,1202.8,494.6z"/>
		<path class="st8" d="M1234.3,437.1c-6.9,0-13.4,5.7-14.4,12.6c-0.5,3.4,0.4,6.4,2.3,8.7l-14.5,13.1c-0.6,0.5-0.6,1.4-0.3,1.9
			c0.3,0.3,0.5,0.4,0.9,0.4s0.8-0.1,1-0.4l14.6-13.3c1.8,1.4,4.2,2.1,6.7,2.1c6.9,0,13.4-5.7,14.4-12.6
			C1246.1,442.8,1241.3,437.1,1234.3,437.1z M1242.5,449.7c-0.8,5.4-5.8,9.9-11.2,9.9c-2.3,0-4.4-0.8-5.9-2.1c0,0,0,0-0.1-0.1
			c-1.9-1.8-2.9-4.5-2.5-7.6c0.8-5.4,5.8-9.9,11.2-9.9C1239.4,439.8,1243.2,444.3,1242.5,449.7z"/>
		
			<ellipse transform="matrix(0.7315 -0.6819 0.6819 0.7315 -256.0402 1283.7419)" class="st7" cx="1501.9" cy="967" rx="28.9" ry="25.1"/>
		
			<ellipse transform="matrix(0.7315 -0.6819 0.6819 0.7315 -280.0895 1222.7767)" class="st7" cx="1412.4" cy="967" rx="28.9" ry="25.1"/>
		
			<ellipse transform="matrix(0.7315 -0.6819 0.6819 0.7315 -304.0911 1161.7966)" class="st4" cx="1323" cy="967" rx="28.9" ry="25.1"/>
		
			<ellipse transform="matrix(0.7315 -0.6819 0.6819 0.7315 -328.0788 1100.9305)" class="st7" cx="1233.8" cy="967" rx="28.9" ry="25.1"/>
		
			<ellipse transform="matrix(0.7315 -0.6819 0.6819 0.7315 -352.0805 1039.9504)" class="st7" cx="1144.3" cy="967" rx="28.9" ry="25.1"/>
		<g>
			
				<ellipse transform="matrix(0.7315 -0.6819 0.6819 0.7315 -302.5873 1153.429)" class="st7" cx="1313.2" cy="960.9" rx="3.2" ry="2.7"/>
			
				<ellipse transform="matrix(0.7315 -0.6819 0.6819 0.7315 -299.4808 1161.3639)" class="st7" cx="1324.8" cy="960.9" rx="3.2" ry="2.7"/>
			
				<ellipse transform="matrix(0.7315 -0.6819 0.6819 0.7315 -296.3882 1169.1844)" class="st7" cx="1336.3" cy="960.9" rx="3.2" ry="2.7"/>
			
				<ellipse transform="matrix(0.7315 -0.6819 0.6819 0.7315 -310.9799 1155.3455)" class="st7" cx="1311.4" cy="972.5" rx="3.2" ry="2.7"/>
			
				<ellipse transform="matrix(0.7315 -0.6819 0.6819 0.7315 -307.8073 1163.3118)" class="st7" cx="1323.1" cy="972.5" rx="3.2" ry="2.7"/>
			
				<ellipse transform="matrix(0.7315 -0.6819 0.6819 0.7315 -304.7808 1171.1011)" class="st7" cx="1334.5" cy="972.5" rx="3.2" ry="2.7"/>
		</g>
		<polygon class="st4" points="1221.9,972.4 1225.9,972.4 1231.9,977.7 1232.1,972.4 1245.2,972.4 1247,959.8 1223.7,959.8 		"/>
		<g>
			<g>
				<path class="st4" d="M1404.1,956.1c0.4-0.5,0.8-1,1.1-1.5c1.3-1.5,2.9-2.5,4.7-3.2c0.5-0.1,1-0.4,1.4-0.5c1.1-0.3,1.9,0,2.1,1
					c0.1,0.5,0.3,0.9,0.3,1.4c0,1,0.1,2,0.1,3.2c0,0.5-0.1,1-0.3,1.5c-0.4,0.9-1.1,1.5-2,1.8c-0.6,0.3-1.3,0.4-1.9,0.6
					c-1,0.3-1.5,0.9-1.8,1.8c-0.3,1-0.3,2-0.1,2.9c0.3,1.9,0.6,3.5,1.3,5.2c0.3,0.8,0.6,1.4,1.4,1.9c0.5,0.5,1.3,0.5,2,0.1
					c0.8-0.3,1.4-0.5,2-0.8c1.3-0.4,2.3-0.1,2.9,0.9c0.4,0.5,0.5,0.9,0.8,1.4c0.4,0.9,0.6,1.8,0.9,2.7c0.1,0.3,0.1,0.6,0.1,1
					c0,0.9-0.4,1.6-1.3,1.9c-1.1,0.5-2.4,1-3.5,1.1c-1.5,0.3-2.9,0.1-4.3-0.5c-1.9-0.8-3.3-2.1-4.3-3.8c-0.9-1.4-1.5-3-2.1-4.7
					c-0.8-2.7-1.3-5.4-1.4-8.2c0-1.8,0.3-3.5,0.9-5.3c0.1-0.4,0.3-0.8,0.4-1.1C1403.9,956.7,1404,956.4,1404.1,956.1z"/>
			</g>
		</g>
		<g>
			<path class="st4" d="M1157.2,962.5c-0.4-2.4-1.4-4.5-2.9-6.2c-2-2.3-5.2-3.7-8.7-3.7c-5.1,0-9.9,2.8-12.8,6.9
				c-1.4,1.9-2.3,4.2-2.5,6.4c-1,7.5,4.2,13.5,11.6,13.5c1.4,0,2.8-0.3,4-0.6l0,0c5.7-1.8,10.4-6.8,11.2-12.9
				C1157.4,964.9,1157.4,963.6,1157.2,962.5z M1139.4,965.7c-0.4,0.1-0.8,0.5-0.6,0.8c0,0.1,0.1,0.3,0.3,0.4c0.4,0.4,0.3,1.1,0,1.8
				c-0.3,0.6-0.8,1-1,1.6c-0.6,1.1-0.5,2.4-0.6,3.7c-0.1,0.4-0.1,0.8-0.4,1.1c-0.3,0.4-0.8,0.5-1,0.3c-0.3-0.1-0.3-0.4-0.3-0.6
				c-0.5-2.1-2.7-3.4-3.2-5.4c-0.1-0.4,0-0.9,0.4-1.1c0.8-0.6,1.6-1,2.5-1.1c0.8-0.1,1.6-0.3,2.1-0.9c0.1-0.3,0.3-0.5,0.5-0.8
				c0.4-0.5,1.1-0.6,1.8-0.9c0.6-0.3,0.8-1,0.3-1.4l-2.3-1.5c-0.4-0.3-0.9-0.5-1-1c0-0.1-0.1-0.1-0.1-0.3c-0.3-1,0.5-2.3,1.6-2.7
				c0.3-0.1,0.6-0.1,0.8,0.1c0.3,0.4-0.4,1,0,1.4c0.1,0.1,0.3,0.1,0.4,0.1c0.5,0,1,0,1.4-0.3c0.5-0.3,0.8-0.9,0.5-1.3
				c-0.3-0.3-0.8-0.4-0.8-0.9c0-0.3,0.3-0.5,0.6-0.6c1-0.1,2,0.4,3.2,0c0.3-0.1,0.5-0.3,0.9-0.4c1.3-0.4,2.3,0.3,3.5,0.1
				c0.3,0,0.5-0.1,0.8-0.1c0.5,0.1,0.9,0.6,0.8,1.3c-0.1,0.6-0.8,0.9-1.3,1c-0.4,0.1-0.8,0-1,0c-0.4-0.1-0.9,0.3-0.9,0.6
				c-0.1,0.3-0.1,0.5-0.1,0.8c0,0.1-0.1,0.1-0.1,0.3c-0.1,0.3-0.4,0.4-0.6,0.6c-0.6,0.6-0.9,1.4-1.4,2.1c-0.4,0.5-0.9,0.9-1.4,1
				c-0.4,0.1-0.6,0.4-0.8,0.8c-0.1,0.3-0.3,0.5-0.5,0.8C1141.4,965.7,1140.4,965.5,1139.4,965.7z M1152.7,971
				c-0.6,0.8-1.3,1.4-1.9,2c-0.8,0.8-1.5,1.4-2.3,2c-0.5,0.4-0.9,0.8-1.4,1c-1.3,0.9-2.9,1.4-4.3,1.3c-0.1,0-0.1,0-0.3-0.1
				c-0.1-0.1-0.1-0.3,0-0.5c0.4-1,1.1-2,2-2.8c0.4-0.3,0.6-0.5,0.9-0.9c0.3-0.5,0.3-1,0.6-1.4c0.4-0.4,1-0.5,1.4-0.9
				c0.4-0.3,0.4-0.8,0.6-1c0.3-0.1,0.5-0.3,0.8-0.4c0.4-0.3,0.6-0.6,0.8-1c0-0.1,0-0.3,0.1-0.3c0.3-0.3,0.6,0,1-0.1
				c0.5-0.1,0.6-0.9,1-1.1c0.1-0.1,0.4-0.1,0.5-0.1c0.5,0.1,1,0.5,1.3,0.9c0.1,0.3,0.3,0.6,0.3,0.9
				C1153.8,969.4,1153.3,970.3,1152.7,971z"/>
		</g>
		<g>
			<path class="st4" d="M1515.1,961.2c-0.4,0-0.8-0.3-0.9-0.6l-2.3-5.8c-0.1-0.4-0.5-0.5-0.9-0.5h-14.5c-0.4,0-0.8,0.3-1,0.5
				l-3.9,5.8c-0.3,0.4-0.6,0.6-1,0.6c-0.6,0-1.1,0.5-1.3,1l-1.3,8.5c-0.1,0.6,0.4,1.1,0.9,1.1h1.6l-0.4,2.3c0,0.3,0,0.5,0,0.8
				c0.1,0.6,0.8,1,1.5,1c1,0,1.9-0.8,2-1.8l0.3-2.3h14.3l-0.3,2.3c-0.1,1,0.5,1.8,1.5,1.8l0,0c1,0,1.9-0.8,2-1.8l0.3-2.3h1.6
				c0.6,0,1.1-0.5,1.3-1.1l1.3-8.5C1516.1,961.6,1515.8,961.2,1515.1,961.2z M1495.4,966.5c-0.1,0.8-0.6,1.5-1.4,1.9
				c-0.4,0.3-0.8,0.4-1.3,0.4c-1.3,0-2.1-1-1.9-2.3c0.1-1.3,1.3-2.3,2.5-2.3c1.1,0,1.9,0.8,1.9,1.8
				C1495.4,966.3,1495.4,966.4,1495.4,966.5z M1495.9,961.2c-0.8,0-1.3-0.9-0.8-1.5l1.5-2.1c0.3-0.4,0.6-0.6,1-0.6h11.4
				c0.4,0,0.8,0.3,0.9,0.6l0.9,2.1c0.3,0.8-0.4,1.5-1.1,1.5H1495.9z M1510.7,968.7c-1.3,0-2.1-1-1.9-2.3c0.1-1.3,1.3-2.3,2.5-2.3
				s2,1,1.9,2.3C1513,967.8,1511.8,968.7,1510.7,968.7z"/>
		</g>
		
			<ellipse transform="matrix(0.7315 -0.6819 0.6819 0.7315 152.2053 1042.598)" class="st5" cx="1399.8" cy="328.1" rx="7.8" ry="6.8"/>
		<g>
			<path class="st4" d="M1145.4,903.2l373.8-1.8c7.1,0,13-5.2,14-12.1l17.4-140.6c1.1-8.5-5.4-16.2-14-16.2h-368.5
				c-7.1,0-13,5.2-14,12.1l-22.7,142.3C1130.1,895.7,1136.8,903.2,1145.4,903.2z"/>
			
				<ellipse transform="matrix(0.7315 -0.6819 0.6819 0.7315 -115.8876 1235.6473)" class="st9" cx="1510.9" cy="765" rx="20.2" ry="17.6"/>
			
				<ellipse transform="matrix(0.7315 -0.6819 0.6819 0.7315 -150.8903 1243.7607)" class="st9" cx="1503.7" cy="813.5" rx="20.2" ry="17.6"/>
			
				<ellipse transform="matrix(0.7315 -0.6819 0.6819 0.7315 -187.0692 1252.3046)" class="st9" cx="1496.4" cy="863.7" rx="20.2" ry="17.6"/>
			<g>
				<rect x="1379" y="753.5" class="st10" width="102.4" height="1.4"/>
				<rect x="1377" y="761.6" class="st10" width="102.3" height="1.4"/>
				<rect x="1417.9" y="770.5" class="st10" width="60.1" height="1.4"/>
			</g>
			<g>
				<rect x="1373.6" y="803.8" class="st10" width="102.4" height="1.4"/>
				<rect x="1371.5" y="811.8" class="st10" width="102.4" height="1.4"/>
				<rect x="1412.5" y="820.8" class="st10" width="60.2" height="1.4"/>
			</g>
			<g>
				<rect x="1366.4" y="855.8" class="st10" width="102.4" height="1.4"/>
				<rect x="1364.3" y="863.9" class="st10" width="102.4" height="1.4"/>
				<rect x="1405.3" y="872.8" class="st10" width="60.2" height="1.4"/>
			</g>
			
				<ellipse transform="matrix(0.7315 -0.6819 0.6819 0.7315 -168.5033 1102.0498)" class="st9" cx="1315" cy="765" rx="20.2" ry="17.6"/>
			
				<ellipse transform="matrix(0.7315 -0.6819 0.6819 0.7315 -204.6682 1110.7076)" class="st9" cx="1307.9" cy="815.2" rx="20.2" ry="17.6"/>
			
				<ellipse transform="matrix(0.7315 -0.6819 0.6819 0.7315 -240.8785 1119.3175)" class="st9" cx="1300.7" cy="865.5" rx="20.2" ry="17.6"/>
			<g>
				<rect x="1183.1" y="753.5" class="st10" width="102.4" height="1.4"/>
				<rect x="1181.1" y="761.6" class="st10" width="102.4" height="1.4"/>
				<rect x="1222" y="770.5" class="st10" width="60.2" height="1.4"/>
			</g>
			<g>
				<rect x="1177.8" y="803.8" class="st10" width="102.3" height="1.4"/>
				<rect x="1175.8" y="811.8" class="st10" width="102.3" height="1.4"/>
				<rect x="1216.7" y="820.8" class="st10" width="60.1" height="1.4"/>
			</g>
			<g>
				<rect x="1170.6" y="855.8" class="st10" width="102.4" height="1.4"/>
				<rect x="1168.6" y="863.9" class="st10" width="102.3" height="1.4"/>
				<rect x="1209.5" y="872.8" class="st10" width="60.1" height="1.4"/>
			</g>
		</g>
		<g>
			<path class="st7" d="M1322.7,714.2l226.6-1.8c7.1,0,13-5.2,14-12.1l22.7-165.7c1.1-8.5-5.4-16.2-14-16.2h-221.1
				c-7.1,0-13,5.2-14,12.1L1308.6,698C1307.5,706.6,1314.1,714.2,1322.7,714.2z"/>
			<path class="st9" d="M1314.7,534.5l-26.4,165.7c-1,6.9-6.9,12.1-14,12.1l-21,0.4l-73.5,1.3l-6.3,0.1c-8.6,0-15.2-7.6-14-16.2
				l28.2-167.6c1-6.9,6.9-12.1,14-12.1h99C1309.3,518.3,1316,526,1314.7,534.5z"/>
			<g>
				<rect x="1357.9" y="552.3" class="st11" width="187.7" height="1.6"/>
				<rect x="1359.5" y="541.4" class="st11" width="197.9" height="1.6"/>
				<rect x="1354.2" y="563.5" class="st11" width="115.2" height="1.6"/>
			</g>
			<g>
				<rect x="1335.9" y="674.3" class="st11" width="187.7" height="1.6"/>
				<rect x="1337.6" y="663.1" class="st11" width="197.9" height="1.6"/>
				<rect x="1333.8" y="685.7" class="st11" width="196" height="1.6"/>
			</g>
			<g>
				<rect x="1348.6" y="603.1" class="st11" width="187.7" height="1.6"/>
				<rect x="1350.2" y="592" class="st11" width="197.9" height="1.6"/>
				
					<rect x="1346.5" y="614.1" transform="matrix(1 -4.936410e-03 4.936410e-03 1 -3.018 7.06)" class="st11" width="164.3" height="1.6"/>
				<rect x="1344.9" y="625.1" class="st11" width="176.9" height="1.6"/>
				<rect x="1341.5" y="636.2" class="st11" width="160.1" height="1.6"/>
			</g>
			
				<ellipse transform="matrix(0.7315 -0.6819 0.6819 0.7315 -70.6711 1005.0536)" class="st12" cx="1240.7" cy="592.3" rx="29.2" ry="25.4"/>
			<path class="st12" d="M1265.3,667.6l-7.2,44.8l-4.8,0.4l-73.5,1.3l5.3-46.5c1.5-11.1,7.5-21.1,15.7-28.3s18.9-11.7,29.9-11.7
				C1253.1,627.5,1268.4,645.5,1265.3,667.6z"/>
		</g>
		<path class="st13" d="M1449.7,1095.4h50.4c3.8-3.4,6.6-4.8,9.3-9.1c1.5-2.3,2.9-4.5,4.3-6.8c13.4-21.2,26.3-42.8,36.8-65.5l0,0
			c1-2.3,2.1-4.5,3.2-6.9c9.5-21.7,16.5-44.3,23.2-67.1l30.1-255.7c-31.8,10.7-54.7,137.5-76.3,220.1
			C1525.2,925.5,1444.5,1027.1,1449.7,1095.4z"/>
	</g>
	<path class="st1" d="M1643.2,1183.7c-0.9,13.8-5.2,47.6-1.4,105.5c0.1,2.5,0.4,5.2,0.5,7.8h-333.8c-0.6-2.8-1.1-5.3-1.6-7.8
		c0-0.3-0.1-0.5-0.1-0.8c0-0.1-0.1-0.4-0.1-0.5l0,0c-0.3-1.1-0.5-2.3-0.8-3.5c-0.8-4.3-1-8.6,0.5-12.5c1.9-4.7,6.2-7.6,10.1-10
		c51.1-31.7,106.8-54.8,164.3-69.1c37.3-9.2,75.1-14.8,112.9-16.4c16.3-0.8,32.6-0.8,48.7-0.1
		C1643.4,1176.4,1643.6,1178.8,1643.2,1183.7z"/>
	<path class="st13" d="M1196.4,839c-7.7,4.3-19.6,1.4-27-3.2c-17.3-10.5-35.4-25.1-51.8-27.7c-2.1-0.4,3.3-14.5,3-16.7
		c-0.3-3.2,3-10.5,6.2-11s6.1,5.3,8.8,6.8c15.3,7.7,27.9,21.7,44.8,24.4c7.6,1.1,19.7-1.3,23.9,6.6
		C1207.6,824.7,1201.9,835.9,1196.4,839z"/>
	<path class="st13" d="M1217.5,688.4c-7.7,4.3-19.6,1.4-27-3.2c-17.3-10.5-46.9-23.9-66.4-28.8c-7.2-1.8,17.9-13.4,17.7-15.5
		c-0.3-3.2,2.7-5.9,5.8-6.4c3.2-0.5,6.3,0.8,9.2,2.1c15.3,7.7,27.9,21.7,44.8,24.4c7.6,1.1,19.7-1.3,23.9,6.6
		C1228.7,674,1222.9,685.4,1217.5,688.4z"/>
	<path class="st1" d="M1080.1,782.2c4.7,10.4,33.1,61,33.1,61l8.2-55.9c1.3-0.3,1,0.1,2,0.8c14.6,8.6,28.4,18.6,41.2,29.8
		c4.7,4.2,9.3,8.5,15,11c5.8,2.4,13,2.5,17.7-1.5c7.1-6.1,5.6-17.3,2-26c-8.6-21.2-68.3-94.1-81-98.6c-6.6-2.4-14-3-20.3-0.1
		c-3.4,1.6-6.2,4.2-8.8,6.8C1075.5,723.9,1064.8,748.7,1080.1,782.2z"/>
	<path class="st1" d="M1105.3,634.9c0.8,11.2,29.9,56.1,29.9,56.1s6.1-41.4,6.7-45.7c0.4-2.3,0.8-5.1,2.8-5.7c0.1,0,0.3-0.1,0.4-0.1
		c1.3-0.3,2.5,0.4,3.5,1c14.6,8.6,28.4,18.6,41.2,29.8c4.7,4.2,9.3,8.5,15,11c5.8,2.4,13,2.5,17.7-1.5c7.1-6.1,5.6-17.3,2-26
		c-8.6-21.2-24-38.6-39.1-55.7c-9-10-18.3-20.5-30.9-25c-6.6-2.4-14-3-20.3-0.1c-3.4,1.6-6.2,4.2-8.8,6.8
		C1111.4,594.6,1103.9,614.9,1105.3,634.9z"/>
	<path class="st13" d="M1153.9,956.5c-5.4,3.8-12.6,4.5-19.1,3.4c-6.6-1.1-12.6-4-18.4-7.3c-2.4-1.4-4.8-2.8-7.5-2.9
		c-4.4-0.3-8.2,3-11.5,6.1c-1.8-4.8-1.6-10-1-15c0.5-3.8,1.3-7.7,3.3-11s5.6-5.8,9.3-5.8c3.9,0,7.3,2.8,10.6,4.9
		c7.2,4.7,15.7,7.2,24.2,7.5C1157.4,936.7,1171,944.9,1153.9,956.5z"/>
	<path class="st1" d="M1065.8,927.6c0.8,11.2,27.2,57.6,27.2,57.6s1.9-13.4,4.5-29l4.2-20.1c0.6-2.3,1.6-3.4,3.9-3.9
		c0.5-0.1,1,0,1.5,0.1c0.8,0.3,1.5,0.6,2.1,1c14.6,8.6,25.4,13.3,31.2,15.7c5.8,2.4,13,2.5,17.7-1.5c7.1-6.1,5.6-17.3,2-26
		c-8.6-21.2-32.3-50.9-45-55.6c-6.6-2.4-14-3-20.3-0.1c-3.4,1.6-6.2,4.2-8.8,6.8C1071.9,887.2,1064.4,907.7,1065.8,927.6z"/>
	<g>
		<g>
			<path class="st14" d="M1111.4,936.4L1111.4,936.4L1111.4,936.4L1111.4,936.4z"/>
		</g>
	</g>
	<path class="st2" d="M1106.3,783.6c1.1,5.8,3.2,11.5,5.7,16.8c1.5,3,3.7,6.1,6.6,7.8l2.8-21c0-1.8-3.7-3-8.5-6.7
		c-0.9-0.6-1.9-1.4-2.9-1.6c-1.1-0.3-2.4-0.1-3.2,0.6C1105.8,780.6,1106.1,782.2,1106.3,783.6z"/>
	<path class="st2" d="M1092.3,949.5c1.3,2.5,2.9,5.1,5.2,6.8l4.2-20.1c0.6-2.3,1.6-3.4,3.9-3.9c0.5-0.1,1,0,1.5,0.1
		c-1.5-1.8-2.7-1.5-10.7-5.2C1080.1,920,1089.7,944.2,1092.3,949.5z"/>
	<path class="st2" d="M1130.6,640.8c1,4.8,2.5,9.5,4.7,13.9c1.3,2.5,1.8,5.3,4,6.8l0.4-1.6c0.8-5.2,1.5-10.2,2.1-14.5
		c0.4-2.3,0.8-5.1,2.8-5.7c-0.4-1.3-13.1-2.9-13.8-2.3C1130.2,638.4,1130.3,639.7,1130.6,640.8z"/>
	<path class="st15" d="M1153.2,923.7c1.4,3.9,2.1,9-0.9,11.7c-1.6,1.5-4,2-6.3,1.8c-4.3-0.4-8.1-2.9-11.6-5.3
		c-2.7-1.8-5.3-3.5-8-5.3c-1.3-0.9-2.5-1.8-3.4-3c-1.5-2.4-0.8-5.7,0.9-8c1.6-2.3,4.2-3.8,6.6-5.3c5.6-3.4,9.9-8.8,14.5-2.8
		C1148.5,912.5,1151.3,918.1,1153.2,923.7z"/>
	<path class="st15" d="M1196.4,808.8c1.4,3.9,2.1,9-0.9,11.7c-1.6,1.5-4,2-6.3,1.8c-4.3-0.4-8.1-2.9-11.6-5.3
		c-2.7-1.8-5.3-3.5-8-5.3c-1.3-0.9-2.5-1.8-3.4-3c-1.5-2.4-0.8-5.7,0.9-8c1.6-2.3,4.2-3.8,6.6-5.3c5.6-3.4,9.9-8.8,14.5-2.8
		C1191.7,797.4,1194.4,803.1,1196.4,808.8z"/>
	<path class="st15" d="M1219.6,654.9c1.5,4.3,2.3,9.7-1,12.8c-1.8,1.6-4.4,2.1-6.8,1.9c-4.7-0.4-8.7-3.2-12.6-5.7
		c-2.9-1.9-5.7-3.9-8.6-5.8c-1.4-0.9-2.8-1.9-3.7-3.3c-1.6-2.7-0.9-6.2,0.9-8.6c1.8-2.5,4.5-4.2,7.1-5.7c6.1-3.7,10.6-9.6,15.7-3
		C1214.6,642.7,1217.5,648.9,1219.6,654.9z"/>
	<path class="st1" d="M1471.2,1126.6c0.1,74.1,22,199.7,126.9,141.4c23-12.8,35.6-38.6,44.8-62.9c11.6-30.6,27.8-112.8,28.2-145.4
		c0.5-47.2-7.3-94-15-140.6c-10.7-65.3-4.8-136.9,3.5-190.4c4-26.4,8.7-48.5,12.2-63.3c0.1-0.6,0.3-1.3,0.3-1.8c0-3.2-2-6.2-5.2-7.2
		c-16.2-5.6-35.6,1-48.2,13.1c-14.4,13.8-21.7,33.1-27.9,52c-20.2,61.1-31.2,190.9-68.2,243.6
		C1488.2,1013.7,1471.1,1102.9,1471.2,1126.6z"/>
	<path class="st15" d="M1642.6,727.3c0.8,0.8,1.9,0.9,3,1c6.6,0.9,10.4,1.5,13.1,0.4c4-26.4,8.7-48.5,12.2-63.3
		c0.1-0.6,0.3-1.3,0.3-1.8c-1.4-0.5-3-0.4-4.3,0.3c-2.1,0.9-3.7,2.7-5.1,4.4c-12,15.5-16,35.2-19.8,54.2
		C1641.5,724.3,1641.3,726.2,1642.6,727.3z"/>
</g>
<g class="st16">
	<path class="st17" d="M842.9,389.4l161.6,0.3c1.2,0,2.2-0.9,2.4-2l14-92.7c-1.1-2.8-4.2-7.2-5.7-7.2l-157.8,3.8
		c-1.2,0-2.2,0.9-2.4,2l-17.7,89.8C837,384.9,841.5,389.4,842.9,389.4z"/>
	<path class="st18" d="M839.4,383.7l159.8,0.3c1.2,0,2.2-0.8,2.3-2l14.3-92.3c0.2-1.4-0.9-2.7-2.3-2.7H853.7c-1.2,0-2.1,0.8-2.3,2
		l-14.3,92C836.8,382.4,837.9,383.7,839.4,383.7z"/>
	<path class="st19" d="M839.2,384.6l160,0.3c1.2,0,2.2-0.8,2.3-2l1.9-12.4H838.6l-1.8,11.4C836.6,383.3,837.7,384.6,839.2,384.6z"/>
	<path class="st20" d="M938.6,314c-8.1-8.6-22.6-8.1-32.6,1.1s-11.5,23.8-3.4,32.4c8.1,8.6,22.6,8.1,32.6-1.1
		C945.2,337.1,946.7,322.6,938.6,314z M914.7,339.1l2.5-17.3c0.1-0.3,0.5-0.5,0.7-0.3l11.7,10c0.2,0.2,0.2,0.6-0.1,0.7l-14.2,7.3
		C915,339.7,914.6,339.4,914.7,339.1z"/>
	<path class="st21" d="M845.8,378.6c-0.5,0-0.9-0.4-0.9-0.9s0.4-0.9,0.9-0.9l149-0.7l0,0c0.5,0,0.9,0.4,0.9,0.9s-0.4,0.9-0.9,0.9
		L845.8,378.6L845.8,378.6z"/>
	<path class="st18" d="M845.8,378.6c-0.5,0-0.9-0.4-0.9-0.9s0.4-0.9,0.9-0.9l68.3-0.2l0,0c0.5,0,0.9,0.4,0.9,0.9s-0.4,0.9-0.9,0.9
		L845.8,378.6L845.8,378.6z"/>
</g>
<g class="st16">
	<path class="st17" d="M578.2,711.1l145,0.2c1.9,0,3.5-1.4,3.8-3.3l12.7-82.3c0.4-2.3-4.3-6.8-6.6-6.8L591,621.3
		c-1.9,0-3.5,1.4-3.8,3.3L571.4,705C571,707.3,575.8,711.1,578.2,711.1z"/>
	<path class="st18" d="M574.5,707.5l145,0.2c1.9,0,3.5-1.4,3.8-3.3l12.7-82.3c0.4-2.3-1.5-4.5-3.8-4.5H587.3c-1.9,0-3.5,1.4-3.8,3.3
		L570.7,703C570.3,705.3,572.2,707.5,574.5,707.5z"/>
	<path class="st22" d="M582.1,628l153,0.3l1-6.2c0.4-2.4-1.4-4.5-3.8-4.5H587.1c-1.9,0-3.5,1.4-3.8,3.2L582.1,628z"/>
	<path class="st23" d="M580.8,697.3l32.1,0.3c0.4,0,0.7-0.3,0.8-0.7l9.7-59.7c0.1-0.5-0.3-0.9-0.8-0.9h-32.1c-0.4,0-0.7,0.3-0.8,0.7
		l-9.8,59.5C579.9,696.8,580.3,697.2,580.8,697.3z"/>
	<path class="st24" d="M626.4,665.4l92.4,0.3c0.4,0,0.7-0.3,0.8-0.7l4.6-27.9c0.1-0.5-0.3-0.9-0.8-0.9l-92.4-0.1
		c-0.4,0-0.7,0.3-0.8,0.7l-4.6,27.6C625.6,664.9,625.9,665.4,626.4,665.4z"/>
	<g>
		<path class="st25" d="M661.5,674.7h-36c-0.9,0-1.6-0.7-1.6-1.6s0.7-1.6,1.6-1.6h36c0.9,0,1.6,0.7,1.6,1.6S662.4,674.7,661.5,674.7
			z"/>
		<path class="st25" d="M659.9,682.3h-36c-0.9,0-1.6-0.7-1.6-1.6s0.7-1.6,1.6-1.6h36c0.9,0,1.6,0.7,1.6,1.6S660.8,682.3,659.9,682.3
			z"/>
		<path class="st25" d="M658.6,689.9h-36c-0.9,0-1.6-0.7-1.6-1.6c0-0.9,0.7-1.6,1.6-1.6h36c0.9,0,1.6,0.7,1.6,1.6
			C660.3,689.2,659.6,689.9,658.6,689.9z"/>
		<path class="st25" d="M657.8,697.6h-36c-0.9,0-1.6-0.7-1.6-1.6c0-0.9,0.7-1.6,1.6-1.6h36c0.9,0,1.6,0.7,1.6,1.6
			C659.5,696.9,658.7,697.6,657.8,697.6z"/>
	</g>
	<g>
		<path class="st25" d="M715.5,674.7h-36c-0.9,0-1.6-0.7-1.6-1.6s0.7-1.6,1.6-1.6h36c0.9,0,1.6,0.7,1.6,1.6S716.4,674.7,715.5,674.7
			z"/>
		<path class="st25" d="M713.9,682.3h-36c-0.9,0-1.6-0.7-1.6-1.6s0.7-1.6,1.6-1.6h36c0.9,0,1.6,0.7,1.6,1.6S714.8,682.3,713.9,682.3
			z"/>
		<path class="st25" d="M712.7,689.9h-36c-0.9,0-1.6-0.7-1.6-1.6c0-0.9,0.7-1.6,1.6-1.6h36c0.9,0,1.6,0.7,1.6,1.6
			S713.6,689.9,712.7,689.9z"/>
		<path class="st25" d="M711.9,697.6h-36c-0.9,0-1.6-0.7-1.6-1.6c0-0.9,0.7-1.6,1.6-1.6h36c0.9,0,1.6,0.7,1.6,1.6
			C713.5,696.9,712.8,697.6,711.9,697.6z"/>
	</g>
	<path class="st18" d="M593,621c-0.2-0.2-0.4-0.2-0.6,0l-1.4,1.3l-1.4-1.5c-0.2-0.2-0.4-0.2-0.6,0c-0.2,0.2-0.2,0.4,0,0.6l1.4,1.5
		l-1.5,1.4c-0.2,0.2-0.2,0.4,0,0.6c0.1,0.1,0.2,0.1,0.3,0.1s0.2,0,0.3-0.1l1.5-1.4l1.3,1.4c0.2,0.2,0.4,0.2,0.6,0
		c0.1-0.1,0.1-0.2,0.1-0.3s0-0.2-0.1-0.3l-1.3-1.4l1.4-1.3C593.1,621.5,593.1,621.2,593,621z"/>
</g>
<g class="st16">
	<path class="st17" d="M640.9,283.4l100.5,0.2c1.3,0,2.5-1,2.7-2.3l8.8-57.1c0.3-1.6-3-4.7-4.6-4.7l-98.5,1.6c-1.3,0-2.4,1-2.7,2.3
		l-10.9,55.7C635.9,280.8,639.2,283.4,640.9,283.4z"/>
	<path class="st18" d="M638.3,280.9l100.5,0.2c1.3,0,2.5-1,2.7-2.3l8.8-57.1c0.3-1.6-1-3.1-2.7-3.1H647.1c-1.3,0-2.4,1-2.7,2.3
		l-8.8,56.9C635.4,279.4,636.7,280.9,638.3,280.9z"/>
	<path class="st22" d="M643.6,225.8l106.1,0.2l0.7-4.3c0.3-1.6-1-3.1-2.6-3.1H647.1c-1.3,0-2.4,1-2.6,2.2L643.6,225.8z"/>
	<path class="st23" d="M711.6,273.8l22.3,0.2c0.3,0,0.5-0.2,0.5-0.5l6.8-41.4c0.1-0.3-0.2-0.6-0.5-0.6h-22.3c-0.3,0-0.5,0.2-0.5,0.5
		l-6.8,41.2C711,273.5,711.3,273.8,711.6,273.8z"/>
	<path class="st24" d="M644.4,251.7l64,0.2c0.3,0,0.5-0.2,0.5-0.5l3.2-19.3c0.1-0.3-0.2-0.6-0.5-0.6h-64c-0.3,0-0.5,0.2-0.5,0.5
		l-3.2,19.2C643.8,251.4,644.1,251.7,644.4,251.7z"/>
	<g>
		<path class="st25" d="M668.8,258.2h-25c-0.6,0-1.1-0.5-1.1-1.1c0-0.6,0.5-1.1,1.1-1.1h25c0.6,0,1.1,0.5,1.1,1.1
			C669.9,257.7,669.4,258.2,668.8,258.2z"/>
		<path class="st25" d="M667.6,263.5h-25c-0.6,0-1.1-0.5-1.1-1.1s0.5-1.1,1.1-1.1h25c0.6,0,1.1,0.5,1.1,1.1
			C668.8,262.9,668.3,263.5,667.6,263.5z"/>
		<path class="st25" d="M666.8,268.7h-25c-0.6,0-1.1-0.5-1.1-1.1c0-0.6,0.5-1.1,1.1-1.1h25c0.6,0,1.1,0.5,1.1,1.1
			C667.9,268.2,667.4,268.7,666.8,268.7z"/>
		<path class="st25" d="M666.2,274h-25c-0.6,0-1.1-0.5-1.1-1.1s0.5-1.1,1.1-1.1h25c0.6,0,1.1,0.5,1.1,1.1S666.8,274,666.2,274z"/>
	</g>
	<g>
		<path class="st25" d="M702,258.2h-25c-0.6,0-1.1-0.5-1.1-1.1c0-0.6,0.5-1.1,1.1-1.1h25c0.6,0,1.1,0.5,1.1,1.1
			C703.1,257.7,702.6,258.2,702,258.2z"/>
		<path class="st25" d="M700.8,263.5h-25c-0.6,0-1.1-0.5-1.1-1.1s0.5-1.1,1.1-1.1h25c0.6,0,1.1,0.5,1.1,1.1
			C702,262.9,701.4,263.5,700.8,263.5z"/>
		<path class="st25" d="M700,268.7h-25c-0.6,0-1.1-0.5-1.1-1.1c0-0.6,0.5-1.1,1.1-1.1h25c0.6,0,1.1,0.5,1.1,1.1
			C701.1,268.2,700.6,268.7,700,268.7z"/>
		<path class="st25" d="M699.4,274h-25c-0.6,0-1.1-0.5-1.1-1.1s0.5-1.1,1.1-1.1h25c0.6,0,1.1,0.5,1.1,1.1S700,274,699.4,274z"/>
	</g>
	<path class="st18" d="M651.1,221c-0.1-0.1-0.3-0.1-0.4,0l-1,0.9l-1-1.1c-0.1-0.1-0.3-0.1-0.4,0c-0.1,0.1-0.1,0.3,0,0.4l1,1.1
		l-1.1,1c-0.1,0.1-0.1,0.3,0,0.4c0.1,0.1,0.1,0.1,0.2,0.1c0.1,0,0.1,0,0.2-0.1l1.1-1l0.9,1c0.1,0.1,0.3,0.1,0.4,0
		c0.1-0.1,0.1-0.1,0.1-0.2c0-0.1,0-0.1-0.1-0.2l-0.9-1l1-0.9C651.2,221.3,651.2,221.1,651.1,221z"/>
</g>
<g class="st16">
	<path class="st17" d="M1029.7,551.7l-38.9,250c-0.2,1.2-1.3,2.2-2.5,2.2l-95.3-0.2c-1.3,0-6.2-4.4-6.7-5.9c0.5,0.6,1.2,0.9,2,0.9
		l95.3,0.2c1.3,0,2.3-0.9,2.5-2.2l38.3-246l0,0l0.6-4c0.1-0.7-0.1-1.4-0.5-1.9C1026,545.9,1029.8,550.6,1029.7,551.7z"/>
	<path class="st17" d="M1025,546.8l-0.6,4l0,0l-38.3,246c-0.2,1.2-1.3,2.2-2.5,2.2l-95.3-0.2c-0.8,0-1.5-0.4-2-0.9l0,0
		c-0.1-0.2-0.1-0.5-0.1-0.7l40.5-246.5l0.4-2.2c0.2-1.2,1.3-2.2,2.5-2.2l42.1-0.9l51.4-1.1c0.4,0,1,0.3,1.5,0.7
		C1024.9,545.4,1025.1,546,1025,546.8z"/>
	<path class="st18" d="M1015.4,607.8l-29.6,190.3l0.2-1.3c-0.2,1.2-1.3,2.2-2.5,2.2l-95.3-0.2c-0.8,0-1.5-0.4-2-0.9l0,0
		c-0.4-0.5-0.7-1.3-0.5-2l2.1-13.8l26.9-173.6L1015.4,607.8z"/>
	<polygon class="st23" points="1023.8,553.7 1014.7,611.6 914.2,611.5 923.5,552.9 	"/>
	<path class="st24" d="M912.3,662.2l87.3,0.3c0.5,0,0.9-0.3,0.9-0.8l7.2-42.2c0.1-0.6-0.3-1.1-0.9-1.1l-87.3-0.1
		c-0.5,0-0.9,0.3-0.9,0.8l-7.2,41.9C911.3,661.7,911.8,662.2,912.3,662.2z"/>
	<g>
		<path class="st24" d="M986.8,669.6h-75.5c-0.6,0-1.1-0.5-1.1-1.1s0.5-1.1,1.1-1.1h75.5c0.6,0,1.1,0.5,1.1,1.1
			S987.4,669.6,986.8,669.6z"/>
		<path class="st24" d="M985.7,674.6h-75.5c-0.6,0-1.1-0.5-1.1-1.1s0.5-1.1,1.1-1.1h75.5c0.6,0,1.1,0.5,1.1,1.1
			S986.3,674.6,985.7,674.6z"/>
		<path class="st24" d="M984.9,679.7h-75.5c-0.6,0-1.1-0.5-1.1-1.1s0.5-1.1,1.1-1.1h75.5c0.6,0,1.1,0.5,1.1,1.1
			S985.5,679.7,984.9,679.7z"/>
		<path class="st24" d="M970.4,684.7h-61.6c-0.6,0-1.1-0.5-1.1-1.1s0.5-1.1,1.1-1.1h61.6c0.6,0,1.1,0.5,1.1,1.1
			S971,684.7,970.4,684.7z"/>
	</g>
	<path class="st24" d="M898.9,742.6l87.3,0.3c0.5,0,0.9-0.3,0.9-0.8l7.2-42.2c0.1-0.6-0.3-1.1-0.9-1.1l-87.3-0.1
		c-0.5,0-0.9,0.3-0.9,0.8l-7.2,41.9C897.9,742.1,898.3,742.6,898.9,742.6z"/>
	<path class="st23" d="M988.2,782.1l-2.3,14.7c-0.2,1.2-1.3,2.2-2.5,2.2l-95.3-0.2c-0.8,0-1.5-0.4-2-0.9l0,0c-0.4-0.5-0.7-1.3-0.5-2
		l2.1-13.8H988.2z"/>
	<g>
		<path class="st24" d="M973.4,750h-75.5c-0.6,0-1.1-0.5-1.1-1.1s0.5-1.1,1.1-1.1h75.5c0.6,0,1.1,0.5,1.1,1.1S974,750,973.4,750z"/>
		<path class="st24" d="M972.3,755.1h-75.5c-0.6,0-1.1-0.5-1.1-1.1s0.5-1.1,1.1-1.1h75.5c0.6,0,1.1,0.5,1.1,1.1
			S972.9,755.1,972.3,755.1z"/>
		<path class="st24" d="M971.5,760.1H896c-0.6,0-1.1-0.5-1.1-1.1s0.5-1.1,1.1-1.1h75.5c0.6,0,1.1,0.5,1.1,1.1
			S972.1,760.1,971.5,760.1z"/>
		<path class="st24" d="M957,765.1h-61.6c-0.6,0-1.1-0.5-1.1-1.1s0.5-1.1,1.1-1.1H957c0.6,0,1.1,0.5,1.1,1.1S957.6,765.1,957,765.1z
			"/>
	</g>
	<path class="st20" d="M991.9,577.4h-47.2c-1.2,0-2.2-1-2.2-2.2c0-1.2,1-2.2,2.2-2.2h47.2c1.2,0,2.2,1,2.2,2.2
		C994.1,576.4,993.2,577.4,991.9,577.4z"/>
	<path class="st20" d="M984.1,587.4h-37.3c-1.2,0-2.2-1-2.2-2.2c0-1.2,1-2.2,2.2-2.2h37.3c1.2,0,2.2,1,2.2,2.2
		C986.3,586.4,985.3,587.4,984.1,587.4z"/>
	<path class="st22" d="M1025,546.8l-1.1,6.9l-100.5-0.2l1.1-7.6c0.2-1.2,1.3-2.1,2.5-2.1h95.5c0.8,0,1.6,0.4,2,1
		C1024.9,545.4,1025.1,546,1025,546.8z"/>
	<path class="st18" d="M932.3,546.8c-0.2-0.2-0.4-0.2-0.6,0l-1.5,1.3l-1.5-1.6c-0.2-0.2-0.4-0.2-0.6,0c-0.2,0.2-0.2,0.4,0,0.6
		l1.5,1.6l-1.6,1.5c-0.2,0.2-0.2,0.4,0,0.6c0.1,0.1,0.2,0.1,0.3,0.1s0.2,0,0.3-0.1l1.6-1.5l1.3,1.4c0.2,0.2,0.4,0.2,0.6,0
		c0.1-0.1,0.1-0.2,0.1-0.3c0-0.1,0-0.2-0.1-0.3l-1.3-1.4l1.5-1.3C932.5,547.3,932.5,547,932.3,546.8z"/>
	<g>
		
			<ellipse transform="matrix(0.7315 -0.6819 0.6819 0.7315 -288.9352 843.2574)" class="st18" cx="926.2" cy="788.5" rx="2.4" ry="2.1"/>
		
			<ellipse transform="matrix(0.7315 -0.6819 0.6819 0.7315 -287.3151 847.4338)" class="st18" cx="932.3" cy="788.5" rx="2.4" ry="2.1"/>
		
			<ellipse transform="matrix(0.7315 -0.6819 0.6819 0.7315 -285.6291 851.642)" class="st18" cx="938.5" cy="788.5" rx="2.4" ry="2.1"/>
		
			<ellipse transform="matrix(0.7315 -0.6819 0.6819 0.7315 -284.009 855.8184)" class="st18" cx="944.6" cy="788.5" rx="2.4" ry="2.1"/>
	</g>
</g>
<g class="st16">
	<g>
		<path class="st17" d="M767.5,429.8l-9.5,62.7c-0.1,0.8-0.8,1.4-1.6,1.4l-60.3-0.2c-2.9-0.4-3.9-4.1-3.8-5.1l0.1,0.5
			c0.3,0.4,0.8,0.7,1.3,0.7h11.9l30.3,0.1l16.9,0.1c0.8,0,1.5-0.6,1.6-1.4l9.7-62.5c0.1-0.5-0.1-0.9-0.3-1.2
			C764.8,425.1,767.3,428.3,767.5,429.8z"/>
		<path class="st17" d="M764.1,426.2l-9.7,62.5c-0.1,0.8-0.8,1.4-1.6,1.4l-16.9-0.1l-30.3-0.1h-11.9c-0.6,0-1.1-0.3-1.3-0.7
			l11.9-60.2c0.1-0.8,0.8-1.4,1.6-1.4l57.8-2.5h0.1C764,425.3,764.1,425.7,764.1,426.2z"/>
		<path class="st23" d="M764.1,426.2l-9.7,62.5c-0.1,0.8-0.8,1.4-1.6,1.4l-16.9-0.1l-30.3-0.1h-11.9c-0.6,0-1.1-0.3-1.3-0.7
			c-0.2-0.3-0.3-0.7-0.2-1.1l9.7-62.3c0.1-0.8,0.8-1.4,1.6-1.4h59.1c0.5,0,1,0.2,1.2,0.6C764,425.3,764.1,425.7,764.1,426.2z"/>
	</g>
	
		<ellipse transform="matrix(0.7315 -0.6819 0.6819 0.7315 -106.9905 616.5007)" class="st18" cx="729.2" cy="444.1" rx="11.3" ry="9.8"/>
	<path class="st18" d="M738.6,473.2l-2.7,16.7l-30.3-0.1l1.9-16.6c0.6-4.3,2.9-8.2,6.1-11c3.2-2.8,7.3-4.6,11.6-4.6
		C733.8,457.7,739.8,464.7,738.6,473.2z"/>
</g>
<g class="st16">
	<path class="st17" d="M614.9,360.7C614.9,360.7,614.8,360.7,614.9,360.7l-55,1c-0.3,0-0.6,0.2-0.7,0.6l-4.9,24.4v-0.2
		c-0.1,0.4,1.2,3,2.3,3.2h6.7c1,0,1-0.1,0.8,0.8l-1.5,7.5c-0.1,0.7,1.8,2.9,2.8,2.2c2.8-2,8.4-7.3,11.3-9.9c0.4-0.4,0.9-0.6,1.4-0.6
		l34.5,0.1c0.3,0,0.6-0.2,0.7-0.6l3.8-25.4C617.1,363.1,615.2,360.7,614.9,360.7z"/>
	<path class="st18" d="M614.9,360.7c-0.1-0.1-0.3-0.2-0.5-0.2h-55.5c-0.3,0-0.6,0.2-0.7,0.6l-3.9,25.2c0,0.1,0,0.3,0.1,0.4
		c0.1,0.1,0.3,0.3,0.6,0.3h4.9h2.9c0.6,0,1,0.5,0.9,1.1l-1.2,9.5c-0.1,0.7,0.7,1.1,1.2,0.7c3-2.5,10.2-8.8,12.4-10.6
		c0.4-0.4,0.9-0.5,1.4-0.5h33.2c0.3,0,0.6-0.2,0.7-0.6l3.9-25.3C615,361,615,360.8,614.9,360.7z"/>
	
		<ellipse transform="matrix(0.7315 -0.6819 0.6819 0.7315 -101.6603 488.205)" class="st26" cx="569" cy="373.2" rx="3.6" ry="3.2"/>
	
		<ellipse transform="matrix(0.7315 -0.6819 0.6819 0.7315 -97.5743 498.3499)" class="st26" cx="583.9" cy="373.1" rx="3.6" ry="3.2"/>
	
		<ellipse transform="matrix(0.7315 -0.6819 0.6819 0.7315 -93.4405 508.5177)" class="st26" cx="598.9" cy="372.9" rx="3.6" ry="3.2"/>
</g>
<g class="st16">
	<path class="st17" d="M1303.2,224L1303.2,224l-50.7,0.9c-0.3,0-0.6,0.1-0.6,0.4l-4.5,22.5v-0.1c0,0.3,1,2.8,2.1,2.8h6.3
		c0.9,0,0.9-0.1,0.7,0.7l-1.3,6.9c-0.1,0.6,1.6,2.7,2.5,1.9c2.5-1.9,7.8-6.7,10.5-9.1c0.3-0.3,0.9-0.4,1.3-0.4h31.7
		c0.3,0,0.6-0.1,0.6-0.4l3.6-23.4C1305.3,226.2,1303.5,224,1303.2,224z"/>
	<path class="st23" d="M1303.2,224c-0.1-0.1-0.3-0.3-0.4-0.3h-51.3c-0.3,0-0.6,0.1-0.6,0.4l-3.6,23.2c0,0.1,0,0.3,0.1,0.4
		c0.1,0.1,0.3,0.3,0.4,0.3h4.5h2.7c0.6,0,0.9,0.4,0.9,1l-1.2,8.7c-0.1,0.6,0.6,1,1,0.6c2.7-2.4,9.4-8.1,11.4-9.9
		c0.3-0.3,0.9-0.4,1.3-0.4h30.5c0.3,0,0.6-0.1,0.6-0.4l3.6-23.4C1303.3,224.3,1303.2,224.1,1303.2,224z"/>
	
		<ellipse transform="matrix(0.7315 -0.6819 0.6819 0.7315 178.0281 923.0032)" class="st18" cx="1260.9" cy="235.5" rx="3.4" ry="3"/>
	
		<ellipse transform="matrix(0.7315 -0.6819 0.6819 0.7315 181.8147 932.3545)" class="st18" cx="1274.7" cy="235.3" rx="3.4" ry="3"/>
	
		<ellipse transform="matrix(0.7315 -0.6819 0.6819 0.7315 185.6013 941.7058)" class="st18" cx="1288.4" cy="235.2" rx="3.4" ry="3"/>
</g>
<g class="st16">
	<path class="st17" d="M792.4,1077.5C792.4,1077.5,792.3,1077.5,792.4,1077.5l-76,1.4c-0.4,0-0.8,0.3-0.9,0.8l-6.7,33.7v-0.3
		c-0.1,0.5,1.6,4.2,3.2,4.4h9.3c1.4,0,1.4-0.2,1.1,1.1l-2.1,10.3c-0.1,0.9,2.5,4,3.9,3c3.9-2.8,11.6-10.1,15.6-13.7
		c0.6-0.5,1.3-0.8,2-0.8l47.6,0.1c0.4,0,0.8-0.3,0.9-0.8l5.3-35.1C795.5,1080.9,792.9,1077.6,792.4,1077.5z"/>
	<path class="st18" d="M792.4,1077.5c-0.2-0.2-0.4-0.3-0.7-0.3H715c-0.4,0-0.8,0.3-0.9,0.8l-5.4,34.8c0,0.2,0,0.4,0.1,0.6
		c0.2,0.2,0.4,0.4,0.8,0.4h6.7h4c0.8,0,1.4,0.7,1.3,1.5l-1.7,13.1c-0.1,0.9,0.9,1.5,1.6,0.9c4.1-3.5,14.1-12.2,17.1-14.7
		c0.6-0.5,1.3-0.7,2-0.7h45.8c0.4,0,0.8-0.3,0.9-0.8l5.4-34.9C792.6,1078,792.5,1077.7,792.4,1077.5z"/>
	
		<ellipse transform="matrix(0.7315 -0.6819 0.6819 0.7315 -550.7111 791.0859)" class="st26" cx="729" cy="1094.7" rx="5" ry="4.4"/>
	
		<ellipse transform="matrix(0.7315 -0.6819 0.6819 0.7315 -545.0665 805.1005)" class="st26" cx="749.7" cy="1094.6" rx="5" ry="4.4"/>
	
		<ellipse transform="matrix(0.7315 -0.6819 0.6819 0.7315 -539.3558 819.1467)" class="st26" cx="770.3" cy="1094.4" rx="5" ry="4.4"/>
</g>
<g class="st16">
	<path class="st17" d="M479.2,905.8L479.2,905.8l-76,1.4c-0.4,0-0.8,0.3-0.9,0.8l-6.7,33.7v-0.3c-0.1,0.5,1.6,4.2,3.2,4.4h9.3
		c1.4,0,1.4-0.2,1.1,1.1l-2.1,10.3c-0.1,0.9,2.5,4,3.9,3c3.9-2.8,11.6-10.1,15.6-13.7c0.6-0.5,1.3-0.8,2-0.8l47.6,0.1
		c0.4,0,0.8-0.3,0.9-0.8l5.3-35.1C482.3,909.2,479.8,905.9,479.2,905.8z"/>
	<path class="st18" d="M479.2,905.8c-0.2-0.2-0.4-0.3-0.7-0.3h-76.7c-0.4,0-0.8,0.3-0.9,0.8l-5.4,34.8c0,0.2,0,0.4,0.1,0.6
		c0.2,0.2,0.4,0.4,0.8,0.4h6.7h4c0.8,0,1.4,0.7,1.3,1.5l-1.7,13.1c-0.1,0.9,0.9,1.5,1.6,0.9c4.1-3.5,14.1-12.2,17.1-14.7
		c0.6-0.5,1.3-0.7,2-0.7h45.8c0.4,0,0.8-0.3,0.9-0.8l5.4-34.9C479.4,906.3,479.4,906,479.2,905.8z"/>
	
		<ellipse transform="matrix(0.7315 -0.6819 0.6819 0.7315 -517.7764 531.4507)" class="st26" cx="415.9" cy="923.1" rx="5" ry="4.4"/>
	
		<ellipse transform="matrix(0.7315 -0.6819 0.6819 0.7315 -512.0658 545.4969)" class="st26" cx="436.6" cy="922.9" rx="5" ry="4.4"/>
	
		<ellipse transform="matrix(0.7315 -0.6819 0.6819 0.7315 -506.4213 559.5115)" class="st26" cx="457.2" cy="922.7" rx="5" ry="4.4"/>
</g>
<g class="st16">
	<path class="st17" d="M410.3,761.5L410.3,761.5l-69.9,1.3c-0.4,0-0.8,0.3-0.8,0.7l-6.1,30.9v-0.2c-0.1,0.5,1.4,3.8,2.9,4.1h8.6
		c1.3,0,1.3-0.2,1,1.1l-1.9,9.5c-0.1,0.8,2.3,3.8,3.5,2.8c3.6-2.6,10.7-9.2,14.3-12.6c0.5-0.5,1.2-0.7,1.9-0.7l43.8,0.1
		c0.4,0,0.8-0.3,0.8-0.7l4.9-32.2C413.2,764.6,410.8,761.6,410.3,761.5z"/>
	<path class="st20" d="M410.3,761.5c-0.2-0.2-0.4-0.3-0.7-0.3h-70.6c-0.4,0-0.8,0.3-0.8,0.7l-5,32c0,0.2,0,0.4,0.2,0.6
		c0.2,0.2,0.4,0.4,0.7,0.4h6.2h3.7c0.8,0,1.4,0.7,1.2,1.4l-1.6,12.1c-0.1,0.8,0.9,1.4,1.5,0.8c3.8-3.2,13-11.2,15.7-13.6
		c0.5-0.5,1.1-0.7,1.8-0.7h42c0.4,0,0.8-0.3,0.8-0.7l5-32.1C410.5,761.9,410.5,761.6,410.3,761.5z"/>
	
		<ellipse transform="matrix(0.7315 -0.6819 0.6819 0.7315 -435.5099 448.8086)" class="st23" cx="352.1" cy="777.3" rx="4.7" ry="4.1"/>
	
		<ellipse transform="matrix(0.7315 -0.6819 0.6819 0.7315 -430.297 461.7326)" class="st23" cx="371.1" cy="777.2" rx="4.7" ry="4.1"/>
	
		<ellipse transform="matrix(0.7315 -0.6819 0.6819 0.7315 -425.0605 474.607)" class="st23" cx="390.1" cy="777" rx="4.7" ry="4.1"/>
</g>
<path class="st0" d="M800.1,774.9c-2,1.8-4.2,3.2-6.5,4c-5.1,1.9-10.6,1.3-14.6-1.8c-0.5-0.4-1.1-0.9-1.5-1.4
	c-5.6-6-4.5-16.1,2.4-22.5s17-6.8,22.6-0.8S807,768.5,800.1,774.9z"/>
<path class="st0" d="M842.6,574.9c-2.8,2.6-6,4.5-9.3,5.7c-7.3,2.6-15.1,1.8-20.8-2.6c-0.8-0.6-1.5-1.3-2.2-2
	c-8-8.5-6.4-22.9,3.4-32.1c9.8-9.2,24.3-9.7,32.2-1.1C853.9,551.3,852.4,565.7,842.6,574.9z"/>
<path class="st0" d="M548.4,868c-1.3,1.3-2.9,2.2-4.5,2.7c-3.5,1.3-7.2,0.9-9.9-1.2c-0.4-0.3-0.7-0.6-1-1c-3.8-4.1-3.1-11,1.6-15.4
	c4.7-4.4,11.6-4.6,15.4-0.5C553.8,856.7,553.1,863.6,548.4,868z"/>
<path class="st0" d="M334,1024.7c-0.9,0.9-2,1.6-3.1,2c-2.4,0.9-5,0.6-6.8-0.9c-0.3-0.2-0.5-0.4-0.7-0.7c-2.6-3-2.1-8,1.1-11.2
	s8-3.4,10.6-0.4C337.7,1016.5,337.2,1021.5,334,1024.7z"/>
<path class="st0" d="M136.9,341.2c-0.9,0.9-2,1.6-3.1,2c-2.4,0.9-5,0.6-6.8-0.9c-0.3-0.2-0.5-0.4-0.7-0.7c-2.6-3-2.1-8,1.1-11.2
	s8-3.4,10.6-0.4C140.6,333,140.1,338,136.9,341.2z"/>
<path class="st27" d="M540.5,1132.4c-7.2-8.8-5.2-23,4.3-31.8c9.6-8.8,23.2-8.8,30.4,0"/>
<path class="st0" d="M250,759.7c-0.9,0.9-2,1.6-3.1,2c-2.4,0.9-5,0.6-6.8-0.9c-0.3-0.2-0.5-0.4-0.7-0.7c-2.6-3-2.1-8,1.1-11.2
	c3.2-3.2,8-3.4,10.6-0.4C253.7,751.5,253.2,756.5,250,759.7z"/>
<path class="st0" d="M283,442.7c-0.9,0.9-2,1.6-3.1,2c-2.4,0.9-5,0.6-6.8-0.9c-0.3-0.2-0.5-0.4-0.7-0.7c-2.6-3-2.1-8,1.1-11.2
	s8-3.4,10.6-0.4S286.2,439.5,283,442.7z"/>
<path class="st0" d="M275.1,261.6c-0.6,0.6-1.3,1-1.9,1.3c-1.5,0.6-3.1,0.4-4.3-0.6c-0.2-0.1-0.3-0.3-0.5-0.4
	c-1.7-1.9-1.3-5,0.7-7.1c2.1-2,5.1-2.1,6.7-0.2C277.5,256.4,277.2,259.5,275.1,261.6z"/>
<path class="st0" d="M97.1,572.6c-0.6,0.6-1.3,1-1.9,1.3c-1.5,0.6-3.1,0.4-4.3-0.6c-0.2-0.1-0.3-0.3-0.5-0.4c-1.7-1.9-1.3-5,0.7-7.1
	c2.1-2,5.1-2.1,6.7-0.2C99.5,567.4,99.2,570.5,97.1,572.6z"/>
<path class="st0" d="M162.1,991.6c-0.6,0.6-1.3,1-1.9,1.3c-1.5,0.6-3.1,0.4-4.3-0.6c-0.2-0.1-0.3-0.3-0.5-0.4
	c-1.7-1.9-1.3-5,0.7-7.1c2.1-2,5.1-2.1,6.7-0.2C164.5,986.4,164.2,989.5,162.1,991.6z"/>
<path class="st0" d="M313.1,1158.6c-0.6,0.6-1.3,1-1.9,1.3c-1.5,0.6-3.1,0.4-4.3-0.6c-0.2-0.1-0.3-0.3-0.5-0.4
	c-1.7-1.9-1.3-5,0.7-7.1c2.1-2,5.1-2.1,6.7-0.2C315.5,1153.4,315.2,1156.5,313.1,1158.6z"/>
<path class="st0" d="M1487.1,238.6c-0.6,0.6-1.3,1-1.9,1.3c-1.5,0.6-3.1,0.4-4.3-0.6c-0.2-0.1-0.3-0.3-0.5-0.4
	c-1.7-1.9-1.3-5,0.7-7.1c2.1-2,5.1-2.1,6.7-0.2C1489.5,233.4,1489.2,236.5,1487.1,238.6z"/>
<path class="st0" d="M471,592.7c-0.9,0.9-2,1.6-3.1,2c-2.4,0.9-5,0.6-6.8-0.9c-0.3-0.2-0.5-0.4-0.7-0.7c-2.6-3-2.1-8,1.1-11.2
	c3.2-3.2,8-3.4,10.6-0.4S474.2,589.5,471,592.7z"/>
<path class="st0" d="M444.1,395.5c-2.8,2.6-6,4.5-9.3,5.7c-7.3,2.6-15.1,1.8-20.8-2.6c-0.8-0.6-1.5-1.3-2.2-2
	c-8-8.5-6.4-22.9,3.4-32.1s24.3-9.7,32.2-1.1C455.4,372,453.9,386.3,444.1,395.5z"/>
<path class="st0" d="M435,498.8c-1.3,1.2-2.7,2-4.2,2.6c-3.3,1.2-6.8,0.8-9.4-1.2c-0.3-0.3-0.7-0.6-1-0.9
	c-3.6-3.9-2.9-10.3,1.5-14.5c4.4-4.1,11-4.4,14.6-0.5C440.1,488.2,439.4,494.7,435,498.8z"/>
<path class="st0" d="M1194,230.8c-1.3,1.2-2.7,2-4.2,2.6c-3.3,1.2-6.8,0.8-9.4-1.2c-0.3-0.3-0.7-0.6-1-0.9
	c-3.6-3.9-2.9-10.3,1.5-14.5c4.4-4.1,11-4.4,14.6-0.5C1199.1,220.2,1198.4,226.7,1194,230.8z"/>
<path class="st0" d="M779.6,245.4c-0.6,0.6-1.3,1-2.1,1.3c-1.6,0.6-3.4,0.4-4.6-0.6c-0.2-0.1-0.3-0.3-0.5-0.4
	c-1.8-1.9-1.4-5.1,0.8-7.2c2.2-2,5.4-2.2,7.2-0.3C782.2,240.1,781.8,243.3,779.6,245.4z"/>
<path class="st28" d="M945.2,111.2c-0.6,0.6-1.3,1-2.1,1.3c-1.6,0.6-3.4,0.4-4.6-0.6c-0.2-0.1-0.3-0.3-0.5-0.4
	c-1.8-1.9-1.4-5.1,0.8-7.2c2.2-2,5.4-2.2,7.2-0.3C947.8,105.9,947.4,109.1,945.2,111.2z"/>
<path class="st28" d="M740,136c-0.6,0.6-1.3,1-2.1,1.3c-1.6,0.6-3.4,0.4-4.6-0.6c-0.2-0.1-0.3-0.3-0.5-0.4c-1.8-1.9-1.4-5.1,0.8-7.2
	c2.2-2,5.4-2.2,7.2-0.3C742.6,130.7,742.2,133.9,740,136z"/>
<path class="st0" d="M1028.2,156.3c-1.3,1.2-2.8,2.1-4.4,2.7c-3.4,1.2-7.1,0.8-9.8-1.2c-0.4-0.3-0.7-0.6-1-0.9
	c-3.8-4-3.1-10.8,1.6-15.2c4.7-4.3,11.5-4.6,15.3-0.5C1033.6,145.2,1032.9,151.9,1028.2,156.3z"/>
<path class="st28" d="M1287.6,145.4c-0.6,0.6-1.3,1-2.1,1.3c-1.6,0.6-3.4,0.4-4.6-0.6c-0.2-0.1-0.3-0.3-0.5-0.4
	c-1.8-1.9-1.4-5.1,0.8-7.2c2.2-2,5.4-2.2,7.2-0.3C1290.2,140.1,1289.8,143.3,1287.6,145.4z"/>
<g class="st16">
	<path class="st18" d="M670.6,1030.6c-4.6,4.3-9.8,7.4-15.2,9.4c-11.9,4.3-24.7,2.9-33.9-4.3c-1.3-1-2.5-2.1-3.6-3.3
		c-13-14-10.5-37.5,5.5-52.5c16.1-15,39.7-15.8,52.7-1.9C689.2,992.1,686.7,1015.6,670.6,1030.6z"/>
	
		<ellipse transform="matrix(0.7315 -0.6819 0.6819 0.7315 -505.5527 708.4544)" class="st23" cx="646.7" cy="996.1" rx="12.7" ry="11.1"/>
	<path class="st23" d="M657.2,1028.9l-1.8,11.2c-11.9,4.3-24.7,2.9-33.9-4.3l0.8-7c0.7-4.8,3.2-9.2,6.8-12.3s8.3-5.1,13.1-5.1
		C651.9,1011.5,658.5,1019.3,657.2,1028.9z"/>
</g>
<g class="st16">
	<path class="st29" d="M565.1,1123.3c-1.5,1.3-3.2,2.2-4.9,2.8c-3.8,1.2-7.9,0.6-10.7-1.7c-0.4-0.3-0.8-0.7-1.1-1.1
		c-4-4.6-2.9-12,2.4-16.6c5.3-4.6,12.8-4.6,16.7,0C571.5,1111.3,570.4,1118.7,565.1,1123.3z"/>
</g>
<path class="st0" d="M1111.3,305.6c-2.9,2.7-6.2,4.7-9.7,5.9c-7.5,2.7-15.7,1.9-21.5-2.7c-0.8-0.6-1.6-1.3-2.3-2.1
	c-8.3-8.9-6.7-23.8,3.5-33.3s25.2-10,33.4-1.2C1123.1,281.2,1121.5,296.1,1111.3,305.6z"/>
<ellipse transform="matrix(0.7315 -0.6819 0.6819 0.7315 100.847 823.6402)" class="st30" cx="1096.2" cy="283.8" rx="8.1" ry="7"/>
<path class="st30" d="M1102.8,304.6l-1.1,7.1c-7.5,2.7-15.7,1.9-21.5-2.7l0.5-4.4c0.4-3.1,2.1-5.8,4.3-7.8c2.3-2,5.2-3.3,8.3-3.3
	C1099.4,293.5,1103.6,298.5,1102.8,304.6z"/>
<g class="st16">
	<path class="st29" d="M413.1,663.4c-3.6,3.3-7.6,5.7-11.8,7.2c-9.2,3.3-19.1,2.3-26.2-3.3c-1-0.8-1.9-1.6-2.8-2.5
		c-10.1-10.8-8.2-29,4.3-40.5c12.4-11.6,30.7-12.2,40.7-1.4C427.5,633.7,425.6,651.8,413.1,663.4z"/>
	
		<ellipse transform="matrix(0.7315 -0.6819 0.6819 0.7315 -328.2472 440.1019)" class="st31" cx="394.6" cy="636.8" rx="9.8" ry="8.5"/>
	<path class="st31" d="M402.8,662.1l-1.4,8.7c-9.2,3.3-19.1,2.3-26.2-3.3l0.6-5.4c0.5-3.7,2.5-7.1,5.3-9.5s6.4-4,10.1-4
		C398.6,648.6,403.8,654.7,402.8,662.1z"/>
</g>
<g class="st16">
	<path class="st29" d="M571,293.6c-2,1.8-4.2,3.2-6.5,4c-5.1,1.8-10.5,1.3-14.4-1.8c-0.5-0.4-1-0.9-1.5-1.4
		c-5.5-6-4.5-15.9,2.4-22.3s16.9-6.7,22.4-0.8C578.9,277.2,577.8,287.2,571,293.6z"/>
	
		<ellipse transform="matrix(0.7315 -0.6819 0.6819 0.7315 -39.6187 457.2452)" class="st31" cx="560.7" cy="278.9" rx="5.4" ry="4.7"/>
	<path class="st31" d="M565.2,292.9l-0.8,4.8c-5.1,1.8-10.5,1.3-14.4-1.8l0.3-3c0.3-2.1,1.4-3.9,2.9-5.2c1.5-1.3,3.5-2.2,5.6-2.2
		C563,285.4,565.8,288.8,565.2,292.9z"/>
</g>
<g class="st16">
	<g>
		<path class="st32" d="M901.7,966.5c-0.3-0.3-0.6-0.6-1-0.9c-3.2-2.6-7.4-4.2-12.1-4.2c-10.8,0.1-20.2,8.5-21.9,19
			c0,0.1,0,0.3-0.1,0.4c0,0.3-0.1,0.7-0.1,1c-0.3,3.3,0.3,6.4,1.4,9.2c0.4,1,0.9,2,1.5,2.9c3.3,5,9,8.2,15.7,8.2
			c5.9,0,11.4-2.6,15.5-6.6c1.7-1.7,3.2-3.7,4.3-5.9c1.2-2.5,2-5.2,2.3-8C907.8,975.6,905.6,970.2,901.7,966.5z"/>
		<path class="st26" d="M916.2,1010.5c0.4-0.4,0.7-0.8,1.1-1.2C916.9,1009.7,916.5,1010.1,916.2,1010.5L916.2,1010.5z"/>
		<path class="st33" d="M907.3,981.7c-0.2,2.8-1,5.5-2.3,8l19.8,8.6c2.7-5.4,4.4-11.3,4.9-17.2c1-11.8-2.9-23-10.6-31.2l-17.5,16.6
			C905.6,970.2,907.8,975.6,907.3,981.7z"/>
		<path class="st18" d="M905.1,989.7c-1.1,2.2-2.6,4.2-4.3,5.9c-4,4-9.6,6.6-15.5,6.6c-6.7,0-12.4-3.2-15.7-8.2l-19.8,15.2
			c7.4,10.1,19.4,16,32.6,16c12.6-0.1,24.8-5.6,33.7-14.7c0.4-0.4,0.7-0.8,1.1-1.2c0.2-0.2,0.4-0.4,0.6-0.6c0.6-0.6,1.1-1.3,1.6-1.9
			c0.2-0.2,0.3-0.4,0.5-0.7s0.4-0.5,0.6-0.8c0.1-0.2,0.3-0.4,0.4-0.6c0.2-0.3,0.4-0.6,0.6-0.9c0.2-0.3,0.3-0.5,0.5-0.8
			s0.4-0.6,0.6-0.9c0.2-0.3,0.4-0.6,0.5-0.9c0.4-0.6,0.7-1.2,1.1-1.9c0.2-0.3,0.3-0.6,0.4-0.8c0.1-0.1,0.1-0.2,0.2-0.3l0,0
			L905.1,989.7z"/>
		<path class="st31" d="M868.1,991.2c-1.2-2.8-1.7-5.9-1.4-9.2c0-0.4,0.1-0.7,0.1-1l-24.3-0.6c-0.1,0.4-0.1,0.9-0.1,1.3
			c-0.6,7.6,0.7,15,3.9,21.4c0,0,0,0,0,0.1c0.2,0.4,0.4,0.7,0.5,1.1c0.3,0.5,0.6,1,0.9,1.6c0.2,0.3,0.4,0.7,0.6,1l0,0
			c0.2,0.3,0.4,0.6,0.6,0.9c0.1,0.1,0.1,0.2,0.2,0.3c0.2,0.3,0.5,0.7,0.7,1c0,0.1,0.1,0.1,0.1,0.2l19.8-15.2
			C869,993.1,868.5,992.2,868.1,991.2z"/>
		<path class="st34" d="M866.8,980.5c1.6-10.6,11.1-19,21.9-19c4.7,0,8.9,1.5,12.1,4.2c0.3,0.3,0.7,0.6,1,0.9l17.5-16.6
			c-0.2-0.2-0.3-0.3-0.5-0.5s-0.4-0.4-0.6-0.6c-0.1-0.1-0.1-0.1-0.2-0.2c-0.2-0.2-0.4-0.4-0.6-0.6l-0.1-0.1
			c-7.4-6.7-17.2-10.5-27.6-10.4c-23.2,0.1-44,18.7-47.1,41.7c0,0.3-0.1,0.7-0.1,1l24.3,0.6C866.7,980.8,866.8,980.6,866.8,980.5z"
			/>
	</g>
	<g>
		<path class="st17" d="M898.2,951.4c-0.2,0-0.5-0.1-0.7-0.2c-0.6-0.4-0.9-1.2-0.5-1.8l13.2-22.9h40.2c0.7,0,1.3,0.6,1.3,1.3
			s-0.6,1.3-1.3,1.3h-38.7l-12.5,21.6C899.2,951.2,898.7,951.4,898.2,951.4z"/>
		<g>
			<circle class="st17" cx="898.3" cy="950" r="2.8"/>
		</g>
	</g>
	<path class="st18" d="M950.4,922.2h-34.2c-1,0-1.8-0.8-1.8-1.8v-0.2c0-1,0.8-1.8,1.8-1.8h34.2c1,0,1.8,0.8,1.8,1.8v0.2
		C952.2,921.4,951.4,922.2,950.4,922.2z"/>
	<g>
		<path class="st17" d="M921.4,965.7c-0.5,0-0.9-0.2-1.2-0.7c-0.4-0.6-0.1-1.5,0.5-1.8l9.8-5.5h39.8c0.7,0,1.3,0.6,1.3,1.3
			s-0.6,1.3-1.3,1.3h-39.1l-9.2,5.1C921.9,965.6,921.7,965.7,921.4,965.7z"/>
		<g>
			<path class="st17" d="M922.9,966.7c-1.4,0.8-3.1,0.3-3.8-1.1c-0.8-1.4-0.3-3.1,1.1-3.8c1.4-0.8,3.1-0.3,3.8,1.1
				C924.8,964.2,924.3,966,922.9,966.7z"/>
		</g>
	</g>
	<path class="st18" d="M970.2,953.4H936c-1,0-1.8-0.8-1.8-1.8v-0.2c0-1,0.8-1.8,1.8-1.8h34.2c1,0,1.8,0.8,1.8,1.8v0.2
		C972,952.6,971.2,953.4,970.2,953.4z"/>
	<g>
		<path class="st17" d="M953.6,1034.5h-42.3l-10.9-18.7c-0.4-0.6-0.2-1.5,0.5-1.8c0.6-0.4,1.5-0.2,1.8,0.5l10.1,17.3h40.8
			c0.7,0,1.3,0.6,1.3,1.3C954.9,1033.9,954.3,1034.5,953.6,1034.5z"/>
		<g>
			<path class="st17" d="M899.2,1016.7c-0.8-1.3-0.3-3.1,1-3.8c1.3-0.8,3.1-0.3,3.8,1c0.8,1.3,0.3,3.1-1,3.8
				C901.7,1018.5,900,1018,899.2,1016.7z"/>
		</g>
	</g>
	<path class="st18" d="M951.3,1027.5h-34.2c-1,0-1.8-0.8-1.8-1.8v-0.2c0-1,0.8-1.8,1.8-1.8h34.2c1,0,1.8,0.8,1.8,1.8v0.2
		C953.1,1026.7,952.3,1027.5,951.3,1027.5z"/>
	<g>
		<path class="st17" d="M835.3,1014.4h-42.1c-0.7,0-1.3-0.6-1.3-1.3s0.6-1.3,1.3-1.3h41l18-17.9c0.5-0.5,1.4-0.5,1.9,0
			s0.5,1.4,0,1.9L835.3,1014.4z"/>
		<g>
			<path class="st17" d="M851.1,992.9c1.1-1.1,2.9-1.1,4,0s1.1,2.9,0,4s-2.9,1.1-4,0C850,995.7,850,993.9,851.1,992.9z"/>
		</g>
	</g>
	<path class="st18" d="M795.4,1007.4h34.2c1,0,1.8-0.8,1.8-1.8v-0.2c0-1-0.8-1.8-1.8-1.8h-34.2c-1,0-1.8,0.8-1.8,1.8v0.2
		C793.6,1006.6,794.4,1007.4,795.4,1007.4z"/>
</g>
<path class="st35" d="M771.1,355.7l-14.3,3.4c-1.6,0.4-2.7-1.3-1.9-2.8l4.2-7.5c0.4-0.8,0.3-1.8-0.3-2.4l-6.7-6.4
	c-1.1-1.1-0.5-3.1,1.1-3.4l14.9-3.5c1.5-0.4,2.7,1.2,2,2.6l-3.9,8.7c-0.5,1-0.3,2.2,0.5,2.9l5.4,5
	C773.3,353.3,772.7,355.3,771.1,355.7z"/>
<path class="st35" d="M954.1,216.7l-14.3,3.4c-1.6,0.4-2.7-1.3-1.9-2.8l4.2-7.5c0.4-0.8,0.3-1.8-0.3-2.4l-6.7-6.4
	c-1.1-1.1-0.5-3.1,1.1-3.4l14.9-3.5c1.5-0.4,2.7,1.2,2,2.6l-3.9,8.7c-0.5,1-0.3,2.2,0.5,2.9l5.4,5
	C956.3,214.3,955.7,216.3,954.1,216.7z"/>
<path class="st35" d="M1046.7,446.7l-12.8-7.2c-1.4-0.8-1.1-2.8,0.5-3.4l8.2-2.7c0.9-0.3,1.4-1.1,1.4-1.9l-0.6-9.3
	c-0.1-1.5,1.7-2.6,3.1-1.8l13.3,7.5c1.4,0.8,1.2,2.7-0.3,3.3l-8.7,3.7c-1,0.4-1.7,1.5-1.6,2.5l0.6,7.3
	C1050,446.4,1048.1,447.5,1046.7,446.7z"/>
<path class="st35" d="M648.6,569.3l-17.3-8.4c-1.9-0.9-1.7-3.6,0.4-4.4l10.5-4.2c1.1-0.4,1.8-1.5,1.7-2.6l-1.5-12.1
	c-0.2-2,2-3.5,3.9-2.6l18,8.7c1.8,0.9,1.8,3.4-0.1,4.3l-11.1,5.6c-1.3,0.7-2.1,2-1.9,3.4l1.4,9.6
	C652.8,568.7,650.4,570.2,648.6,569.3z"/>
<path class="st35" d="M500.2,707.8l-18,1.1c-2,0.1-3-2.2-1.7-3.8l6.7-8.2c0.7-0.9,0.8-2.1,0.2-2.9l-6.7-9.2c-1.1-1.5,0.1-3.8,2-3.9
	l18.7-1.1c1.9-0.1,3,2,1.9,3.6l-6.6,9.7c-0.8,1.2-0.8,2.6,0,3.6l5.5,7.2C503.4,705.4,502.2,707.7,500.2,707.8z"/>
<path class="st35" d="M97.5,871.9l-17.1,1c-1.9,0.1-2.8-2.1-1.6-3.6l6.4-7.8c0.7-0.9,0.8-2,0.2-2.8l-6.4-8.7c-1-1.4,0.1-3.6,1.9-3.7
	l17.7-1c1.8-0.1,2.8,1.9,1.8,3.4l-6.3,9.2c-0.8,1.1-0.8,2.5,0,3.4l5.2,6.8C100.6,869.7,99.4,871.8,97.5,871.9z"/>
<path class="st35" d="M356.3,126.3l-17.1,1c-1.9,0.1-2.8-2.1-1.6-3.6l6.4-7.8c0.7-0.9,0.8-2,0.2-2.8l-6.4-8.7
	c-1-1.4,0.1-3.6,1.9-3.7l17.7-1c1.8-0.1,2.8,1.9,1.8,3.4l-6.3,9.2c-0.8,1.1-0.8,2.5,0,3.4l5.2,6.8
	C359.4,124.1,358.2,126.2,356.3,126.3z"/>
<path class="st35" d="M298.7,894.6l-16.9,6.4c-1.9,0.7-3.6-1.2-2.8-3.1l3.9-9.8c0.4-1,0.1-2.2-0.7-2.8l-9.2-6.8
	c-1.5-1.1-1.1-3.6,0.8-4.3l17.5-6.7c1.8-0.7,3.4,1,2.9,2.9l-3.4,11.2c-0.4,1.3,0,2.7,1.1,3.5l7.4,5.2
	C301,891.3,300.5,893.9,298.7,894.6z"/>
<path class="st35" d="M552.6,997.6l-16.9,6.4c-1.9,0.7-3.6-1.2-2.8-3.1l3.9-9.8c0.4-1,0.1-2.2-0.7-2.8l-9.2-6.8
	c-1.5-1.1-1.1-3.6,0.8-4.3l17.5-6.7c1.8-0.7,3.4,1,2.9,2.9l-3.4,11.2c-0.4,1.3,0,2.7,1.1,3.5l7.4,5.2
	C554.8,994.3,554.4,996.9,552.6,997.6z"/>
<path class="st0" d="M437.1,1076.4l-11-7.4c-1.2-0.8-0.8-2.6,0.7-3l7.5-1.8c0.8-0.2,1.4-0.9,1.4-1.6l0.1-8.4c0-1.4,1.7-2.2,2.9-1.4
	l11.4,7.7c1.2,0.8,0.9,2.5-0.5,2.9l-8.1,2.7c-1,0.3-1.6,1.2-1.6,2.1l0.1,6.6C440,1076.3,438.3,1077.2,437.1,1076.4z"/>
<path class="st35" d="M828.8,694.1l-17-6.2c-1.9-0.7-1.9-3.2-0.1-4.2l9.4-4.9c1-0.5,1.5-1.6,1.3-2.6l-2.5-11.1
	c-0.4-1.8,1.6-3.5,3.4-2.8l17.6,6.4c1.8,0.7,2,3,0.3,4.1l-9.9,6.3c-1.2,0.8-1.8,2.1-1.4,3.3l2.2,8.8
	C832.6,693,830.6,694.7,828.8,694.1z"/>
<g class="st16">
	<g>
		<path class="st17" d="M632.3,872.8l104.2,0.2c0.8,0,1.5-0.6,1.6-1.4l10.1-65.3c-0.7-1.9-2.9-4.8-3.9-4.8L642.6,804
			c-0.8,0-1.5,0.6-1.6,1.4l-12.7,63.4C628.3,869.7,631.3,872.7,632.3,872.8z"/>
		<path class="st18" d="M744.8,802.6l-10.3,65.1c-0.1,0.8-0.8,1.4-1.6,1.4h-10.5l-92.6-0.2c-1,0-1.7-0.9-1.6-1.8l10-63l0.3-1.9
			c0.1-0.8,0.8-1.4,1.6-1.4h103C744.2,800.8,745,801.6,744.8,802.6z"/>
	</g>
	<path class="st20" d="M721.1,860.7l-78.8-0.1c-0.8,0-1.5-0.7-1.3-1.6l6.4-41.9c6-2.7,11.7,6.1,13,8.2c1.3,2.2,5.1,8.7,9.1,12.9
		s6.4,5.5,8.9,5.9c3.9,0.7,7.4-2.1,11.1-3.3c4-1.4,8.5-1,12.2,1c5.3,2.8,8.4,8.3,12.4,12.8C716.2,856.9,718.6,858.9,721.1,860.7z"/>
	<path class="st23" d="M728.4,862.3L728.4,862.3l-86.8-0.1c-1,0-2-0.4-2.7-1.2s-1-1.8-0.8-2.8l7.5-50.3c0.1-0.9,0.9-1.5,1.8-1.3
		c0.9,0.1,1.5,0.9,1.3,1.8l-7.5,50.3c0,0.1,0,0.2,0.1,0.3c0,0.1,0.1,0.1,0.2,0.1l86.8,0.1c0.9,0,1.6,0.7,1.6,1.6
		C730,861.6,729.3,862.3,728.4,862.3z"/>
	<circle class="st36" cx="695.2" cy="840" r="1.9"/>
	<circle class="st36" cx="651.8" cy="816.8" r="1.9"/>
	<circle class="st36" cx="678.5" cy="844.2" r="1.9"/>
	<circle class="st36" cx="664.5" cy="831.4" r="1.9"/>
</g>
<path class="st0" d="M765.7,934.4c-3.3,0-5-2.4-6.3-4.3c-1.2-1.8-1.9-2.8-3.3-2.8c-1.4,0-2.1,1-3.3,2.8c-1.3,1.9-2.9,4.3-6.3,4.3
	c-3.3,0-5-2.4-6.3-4.3c-1.2-1.8-1.9-2.8-3.3-2.8s-2.1,1-3.3,2.8c-1.3,1.9-2.9,4.3-6.3,4.3c-3.3,0-5-2.4-6.3-4.3
	c-1.2-1.8-1.9-2.8-3.3-2.8c-1,0-1.8-0.8-1.8-1.8s0.8-1.8,1.8-1.8c3.3,0,5,2.4,6.3,4.3c1.2,1.8,1.9,2.8,3.3,2.8c1.4,0,2.1-1,3.3-2.8
	c1.3-1.9,2.9-4.3,6.3-4.3s5,2.4,6.3,4.3c1.2,1.8,1.9,2.8,3.3,2.8c1.4,0,2.1-1,3.3-2.8c1.3-1.9,2.9-4.3,6.3-4.3c3.3,0,5,2.4,6.3,4.3
	c1.2,1.8,1.9,2.8,3.3,2.8c1.4,0,2.1-1,3.3-2.8c1.3-1.9,2.9-4.3,6.3-4.3c1,0,1.8,0.8,1.8,1.8s-0.8,1.8-1.8,1.8c-1.4,0-2.1,1-3.3,2.8
	C770.7,932,769,934.4,765.7,934.4z"/>
<path class="st0" d="M1009.7,869.4c-3.3,0-5-2.4-6.3-4.3c-1.2-1.8-1.9-2.8-3.3-2.8c-1.4,0-2.1,1-3.3,2.8c-1.3,1.9-2.9,4.3-6.3,4.3
	c-3.3,0-5-2.4-6.3-4.3c-1.2-1.8-1.9-2.8-3.3-2.8s-2.1,1-3.3,2.8c-1.3,1.9-2.9,4.3-6.3,4.3c-3.3,0-5-2.4-6.3-4.3
	c-1.2-1.8-1.9-2.8-3.3-2.8c-1,0-1.8-0.8-1.8-1.8s0.8-1.8,1.8-1.8c3.3,0,5,2.4,6.3,4.3c1.2,1.8,1.9,2.8,3.3,2.8c1.4,0,2.1-1,3.3-2.8
	c1.3-1.9,2.9-4.3,6.3-4.3s5,2.4,6.3,4.3c1.2,1.8,1.9,2.8,3.3,2.8c1.4,0,2.1-1,3.3-2.8c1.3-1.9,2.9-4.3,6.3-4.3c3.3,0,5,2.4,6.3,4.3
	c1.2,1.8,1.9,2.8,3.3,2.8c1.4,0,2.1-1,3.3-2.8c1.3-1.9,2.9-4.3,6.3-4.3c1,0,1.8,0.8,1.8,1.8s-0.8,1.8-1.8,1.8c-1.4,0-2.1,1-3.3,2.8
	C1014.7,867,1013,869.4,1009.7,869.4z"/>
<path class="st0" d="M880.6,505.8c-3.3,0-5-2.4-6.3-4.3c-1.2-1.8-1.9-2.8-3.3-2.8c-1.4,0-2.1,1-3.3,2.8c-1.3,1.9-2.9,4.3-6.3,4.3
	c-3.3,0-5-2.4-6.3-4.3c-1.2-1.8-1.9-2.8-3.3-2.8s-2.1,1-3.3,2.8c-1.3,1.9-2.9,4.3-6.3,4.3c-3.3,0-5-2.4-6.3-4.3
	c-1.2-1.8-1.9-2.8-3.3-2.8c-1,0-1.8-0.8-1.8-1.8s0.8-1.8,1.8-1.8c3.3,0,5,2.4,6.3,4.3c1.2,1.8,1.9,2.8,3.3,2.8c1.4,0,2.1-1,3.3-2.8
	c1.3-1.9,2.9-4.3,6.3-4.3s5,2.4,6.3,4.3c1.2,1.8,1.9,2.8,3.3,2.8c1.4,0,2.1-1,3.3-2.8c1.3-1.9,2.9-4.3,6.3-4.3c3.3,0,5,2.4,6.3,4.3
	c1.2,1.8,1.9,2.8,3.3,2.8c1.4,0,2.1-1,3.3-2.8c1.3-1.9,2.9-4.3,6.3-4.3c1,0,1.8,0.8,1.8,1.8s-0.8,1.8-1.8,1.8c-1.4,0-2.1,1-3.3,2.8
	C885.6,503.4,884,505.8,880.6,505.8z"/>
<path class="st0" d="M308,692.7c-2.7,0-4-2-5.1-3.5c-1-1.4-1.6-2.3-2.7-2.3s-1.7,0.8-2.7,2.3c-1.1,1.6-2.4,3.5-5.1,3.5s-4-2-5.1-3.5
	c-1-1.4-1.6-2.3-2.7-2.3s-1.7,0.8-2.7,2.3c-1.1,1.6-2.4,3.5-5.1,3.5s-4-2-5.1-3.5c-1-1.4-1.6-2.3-2.7-2.3c-0.8,0-1.4-0.6-1.4-1.4
	c0-0.8,0.6-1.4,1.4-1.4c2.7,0,4,2,5.1,3.5c1,1.4,1.6,2.3,2.7,2.3s1.7-0.8,2.7-2.3c1.1-1.6,2.4-3.5,5.1-3.5s4,2,5.1,3.5
	c1,1.4,1.6,2.3,2.7,2.3s1.7-0.8,2.7-2.3c1.1-1.6,2.4-3.5,5.1-3.5s4,2,5.1,3.5c1,1.4,1.6,2.3,2.7,2.3s1.7-0.8,2.7-2.3
	c1.1-1.6,2.4-3.5,5.1-3.5c0.8,0,1.4,0.6,1.4,1.4c0,0.8-0.6,1.4-1.4,1.4c-1.1,0-1.7,0.8-2.7,2.3C312,690.7,310.7,692.7,308,692.7z"/>
<path class="st0" d="M559.3,583.2c-1.8,0-2.6-1.3-3.3-2.3c-0.6-0.9-1-1.5-1.8-1.5c-0.7,0-1.1,0.5-1.8,1.5s-1.5,2.3-3.3,2.3
	s-2.6-1.3-3.3-2.3c-0.6-0.9-1-1.5-1.8-1.5s-1.1,0.5-1.8,1.5s-1.5,2.3-3.3,2.3s-2.6-1.3-3.3-2.3c-0.6-0.9-1-1.5-1.8-1.5
	c-0.5,0-0.9-0.4-0.9-0.9s0.4-0.9,0.9-0.9c1.8,0,2.6,1.3,3.3,2.3c0.6,0.9,1,1.5,1.8,1.5c0.7,0,1.1-0.5,1.8-1.5s1.5-2.3,3.3-2.3
	s2.6,1.3,3.3,2.3c0.6,0.9,1,1.5,1.8,1.5c0.7,0,1.1-0.5,1.8-1.5s1.5-2.3,3.3-2.3s2.6,1.3,3.3,2.3c0.6,0.9,1,1.5,1.8,1.5
	c0.7,0,1.1-0.5,1.8-1.5s1.5-2.3,3.3-2.3c0.5,0,0.9,0.4,0.9,0.9s-0.4,0.9-0.9,0.9c-0.7,0-1.1,0.5-1.8,1.5
	C561.9,581.9,561,583.2,559.3,583.2z"/>
<path class="st0" d="M1109.9,213.5c-4.2,0-6.3-3-7.9-5.5c-1.5-2.2-2.4-3.5-4.2-3.5c-1.7,0-2.7,1.3-4.2,3.5c-1.6,2.4-3.7,5.5-7.9,5.5
	c-4.2,0-6.3-3-7.9-5.5c-1.5-2.2-2.4-3.5-4.2-3.5s-2.7,1.3-4.2,3.5c-1.6,2.4-3.7,5.5-7.9,5.5c-4.2,0-6.3-3-7.9-5.5
	c-1.5-2.2-2.4-3.5-4.2-3.5c-1.2,0-2.2-1-2.2-2.2s1-2.2,2.2-2.2c4.2,0,6.3,3,7.9,5.5c1.5,2.2,2.4,3.5,4.2,3.5c1.7,0,2.7-1.3,4.2-3.5
	c1.6-2.4,3.7-5.5,7.9-5.5s6.3,3,7.9,5.5c1.5,2.2,2.4,3.5,4.2,3.5c1.7,0,2.7-1.3,4.2-3.5c1.6-2.4,3.7-5.5,7.9-5.5
	c4.2,0,6.3,3,7.9,5.5c1.5,2.2,2.4,3.5,4.2,3.5s2.7-1.3,4.2-3.5c1.6-2.4,3.7-5.5,7.9-5.5c1.2,0,2.2,1,2.2,2.2s-1,2.2-2.2,2.2
	c-1.8,0-2.7,1.3-4.2,3.5C1116.1,210.4,1114.1,213.5,1109.9,213.5z"/>
<path class="st0" d="M232.5,619.5c-4.2,0-6.3-3-7.9-5.5c-1.5-2.2-2.4-3.5-4.2-3.5c-1.7,0-2.7,1.3-4.2,3.5c-1.6,2.4-3.7,5.5-7.9,5.5
	c-4.2,0-6.3-3-7.9-5.5c-1.5-2.2-2.4-3.5-4.2-3.5s-2.7,1.3-4.2,3.5c-1.6,2.4-3.7,5.5-7.9,5.5c-4.2,0-6.3-3-7.9-5.5
	c-1.5-2.2-2.4-3.5-4.2-3.5c-1.2,0-2.2-1-2.2-2.2s1-2.2,2.2-2.2c4.2,0,6.3,3,7.9,5.5c1.5,2.2,2.4,3.5,4.2,3.5c1.7,0,2.7-1.3,4.2-3.5
	c1.6-2.4,3.7-5.5,7.9-5.5s6.3,3,7.9,5.5c1.5,2.2,2.4,3.5,4.2,3.5c1.7,0,2.7-1.3,4.2-3.5c1.6-2.4,3.7-5.5,7.9-5.5
	c4.2,0,6.3,3,7.9,5.5c1.5,2.2,2.4,3.5,4.2,3.5s2.7-1.3,4.2-3.5c1.6-2.4,3.7-5.5,7.9-5.5c1.2,0,2.2,1,2.2,2.2s-1,2.2-2.2,2.2
	c-1.8,0-2.7,1.3-4.2,3.5C238.7,616.4,236.7,619.5,232.5,619.5z"/>
<path class="st0" d="M1399.7,219.1c-4.2,0-6.3-3-7.9-5.5c-1.5-2.2-2.4-3.5-4.2-3.5c-1.7,0-2.7,1.3-4.2,3.5c-1.6,2.4-3.7,5.5-7.9,5.5
	c-4.2,0-6.3-3-7.9-5.5c-1.5-2.2-2.4-3.5-4.2-3.5s-2.7,1.3-4.2,3.5c-1.6,2.4-3.7,5.5-7.9,5.5c-4.2,0-6.3-3-7.9-5.5
	c-1.5-2.2-2.4-3.5-4.2-3.5c-1.2,0-2.2-1-2.2-2.2c0-1.2,1-2.2,2.2-2.2c4.2,0,6.3,3,7.9,5.5c1.5,2.2,2.4,3.5,4.2,3.5
	c1.7,0,2.7-1.3,4.2-3.5c1.6-2.4,3.7-5.5,7.9-5.5s6.3,3,7.9,5.5c1.5,2.2,2.4,3.5,4.2,3.5c1.7,0,2.7-1.3,4.2-3.5
	c1.6-2.4,3.7-5.5,7.9-5.5c4.2,0,6.3,3,7.9,5.5c1.5,2.2,2.4,3.5,4.2,3.5s2.7-1.3,4.2-3.5c1.6-2.4,3.7-5.5,7.9-5.5
	c1.2,0,2.2,1,2.2,2.2c0,1.2-1,2.2-2.2,2.2c-1.8,0-2.7,1.3-4.2,3.5C1405.9,216,1403.9,219.1,1399.7,219.1z"/>
<path class="st0" d="M988.8,1154.8l-12.5,1.2c-2.4,0.2-4.6-1.6-4.8-4l-1.2-12.5c-0.4-3.9,4.2-6.4,7.2-3.8l13.7,11.3
	C994.3,1149.5,992.8,1154.4,988.8,1154.8z"/>
<path class="st0" d="M1033.1,1021.2l5.9,11c1.2,2.2,0.3,4.8-1.8,6l-11,5.9c-3.5,1.9-7.5-1.4-6.3-5.2l5.1-17
	C1026.1,1018.2,1031.2,1017.7,1033.1,1021.2z"/>
<path class="st37" d="M538.6,777c-8.1-8.6-22.6-8.1-32.6,1.1c-9.9,9.3-11.5,23.8-3.4,32.4s22.6,8.1,32.6-1.1S546.7,785.6,538.6,777z
	 M514.7,802.1l2.5-17.3c0.1-0.3,0.5-0.5,0.7-0.3l11.7,10c0.2,0.2,0.2,0.6-0.1,0.7l-14.2,7.3C515,802.7,514.6,802.4,514.7,802.1z"/>
<path class="st35" d="M626.6,455c-8.1-8.6-22.6-8.1-32.6,1.1c-9.9,9.3-11.5,23.8-3.4,32.4s22.6,8.1,32.6-1.1
	C633.2,478.1,634.7,463.6,626.6,455z M602.7,480.1l2.5-17.3c0.1-0.3,0.5-0.5,0.7-0.3l11.7,10c0.2,0.2,0.2,0.6-0.1,0.7l-14.2,7.3
	C603,480.7,602.6,480.4,602.7,480.1z"/>
<path class="st37" d="M865.6,170c-8.1-8.6-22.6-8.1-32.6,1.1c-10,9.2-11.5,23.8-3.4,32.4s22.6,8.1,32.6-1.1
	C872.2,193.1,873.7,178.6,865.6,170z M841.7,195.1l2.5-17.3c0.1-0.3,0.5-0.5,0.7-0.3l11.7,10c0.2,0.2,0.2,0.6-0.1,0.7l-14.2,7.3
	C842,195.7,841.6,195.4,841.7,195.1z"/>
<path class="st37" d="M1400.2,100.9c-5.9-6.2-16.4-5.9-23.6,0.8c-7.2,6.7-8.3,17.2-2.5,23.5s16.4,5.9,23.6-0.8
	C1405,117.7,1406.1,107.2,1400.2,100.9z M1382.9,119.1l1.8-12.5c0.1-0.2,0.4-0.4,0.5-0.2l8.5,7.2c0.1,0.1,0.1,0.4-0.1,0.5l-10.3,5.3
	C1383.1,119.5,1382.9,119.3,1382.9,119.1z"/>
<path class="st35" d="M1156.3,85.3c-7-7.5-19.6-7-28.2,1s-9.9,20.6-3,28c7,7.5,19.6,7,28.2-1S1163.3,92.8,1156.3,85.3z M1135.6,107
	l2.2-14.9c0-0.3,0.4-0.4,0.6-0.2l10.1,8.6c0.2,0.2,0.2,0.5-0.1,0.6l-12.3,6.3C1135.9,107.6,1135.5,107.3,1135.6,107z"/>
<path class="st27" d="M528.2,1141.7c-11.9-14.5-8.7-38,7.2-52.5c15.8-14.5,38.3-14.5,50.2,0"/>
<path class="st27" d="M534.3,1136.1c-9.3-11.4-6.8-29.9,5.6-41.3c12.5-11.4,30.1-11.4,39.5,0"/>
<path class="st27" d="M192.2,1130.4c-5.1-6.2-3.7-16.3,3-22.5c6.8-6.2,16.4-6.2,21.5,0"/>
<g class="st16">
	<path class="st29" d="M209.6,1124c-1.1,0.9-2.3,1.6-3.5,2c-2.7,0.8-5.6,0.4-7.6-1.2c-0.3-0.2-0.6-0.5-0.8-0.8
		c-2.8-3.3-2.1-8.5,1.7-11.7c3.8-3.3,9.1-3.3,11.8,0C214.1,1115.5,213.3,1120.7,209.6,1124z"/>
</g>
<path class="st27" d="M183.5,1137c-8.4-10.3-6.2-26.9,5.1-37.1c11.2-10.3,27.1-10.3,35.5,0"/>
<path class="st27" d="M187.8,1133c-6.6-8.1-4.8-21.2,4-29.2c8.8-8.1,21.3-8.1,27.9,0"/>
<path class="st27" d="M421.5,291.4c-7.2-8.8-5.2-23,4.3-31.8c9.6-8.8,23.2-8.8,30.4,0"/>
<path class="st27" d="M409.2,300.7c-11.9-14.5-8.7-38,7.2-52.5c15.8-14.5,38.3-14.5,50.2,0"/>
<path class="st27" d="M415.3,295.1c-9.3-11.4-6.8-29.9,5.6-41.3c12.5-11.4,30.1-11.4,39.5,0"/>
</svg>
